<?xml version="1.0" encoding="UTF-8" standalone="no"?>
<!-- Created with Inkscape (http://www.inkscape.org/) -->

<svg
   version="1.1"
   id="svg1"
   width="546.112"
   height="596.4433"
   viewBox="0 0 546.112 596.4433"
   sodipodi:docname="logo AI tutor.svg"
   xml:space="preserve"
   inkscape:version="1.3.2 (091e20e, 2023-11-25, custom)"
   xmlns:inkscape="http://www.inkscape.org/namespaces/inkscape"
   xmlns:sodipodi="http://sodipodi.sourceforge.net/DTD/sodipodi-0.dtd"
   xmlns:xlink="http://www.w3.org/1999/xlink"
   xmlns="http://www.w3.org/2000/svg"
   xmlns:svg="http://www.w3.org/2000/svg"><defs
     id="defs1"><linearGradient
       id="gradient_0"
       gradientUnits="userSpaceOnUse"
       x1="526.60919"
       y1="477.15625"
       x2="470.97217"
       y2="677.59705"
       gradientTransform="translate(258.80861,437.18213)"><stop
         offset="0"
         stop-color="#E0E7ED"
         stop-opacity="0.90980393"
         id="stop25" /><stop
         offset="1"
         stop-color="#DAE2E9"
         id="stop26" /></linearGradient><linearGradient
       id="gradient_1"
       gradientUnits="userSpaceOnUse"
       x1="579.62769"
       y1="756.0575"
       x2="585.65314"
       y2="793.6969"
       gradientTransform="translate(-435.37589,357.41546)"><stop
         offset="0"
         stop-color="#B8263A"
         id="stop12" /><stop
         offset="1"
         stop-color="#D44A50"
         id="stop13" /></linearGradient><linearGradient
       inkscape:collect="always"
       xlink:href="#gradient_0"
       id="linearGradient6"
       gradientUnits="userSpaceOnUse"
       gradientTransform="translate(-1341.0119,417.2355)"
       x1="526.60919"
       y1="477.15625"
       x2="470.97217"
       y2="677.59705" /><linearGradient
       inkscape:collect="always"
       xlink:href="#gradient_1"
       id="linearGradient7"
       gradientUnits="userSpaceOnUse"
       gradientTransform="translate(-1340.8635,377.24488)"
       x1="579.62769"
       y1="756.0575"
       x2="585.65314"
       y2="793.6969" /></defs><sodipodi:namedview
     id="namedview1"
     pagecolor="#ffffff"
     bordercolor="#666666"
     borderopacity="1.0"
     inkscape:showpageshadow="2"
     inkscape:pageopacity="0.0"
     inkscape:pagecheckerboard="0"
     inkscape:deskcolor="#d1d1d1"
     showgrid="false"
     inkscape:zoom="0.27777778"
     inkscape:cx="-446.4"
     inkscape:cy="975.6"
     inkscape:window-width="1280"
     inkscape:window-height="650"
     inkscape:window-x="-6"
     inkscape:window-y="-6"
     inkscape:window-maximized="1"
     inkscape:current-layer="g1" /><g
     inkscape:groupmode="layer"
     inkscape:label="Image"
     id="g1"
     transform="translate(1100.9957,-619.74701)"><path
       fill="#0d253a"
       d="m -932.88385,692.90948 c 6.705,-5.787 29.89,-13.579 38.86,-15.946 2.78,-0.733 15.636,-2.141 16.851,-4.172 0.323,-0.539 0.454,-2.575 0.556,-3.258 1.601,-10.651 0.768,-21.678 9.821,-29.39 3.209,-2.733 7.246,-4.211 11.473,-3.993 7.879,0.405 16.048,6.399 20.993,12.242 3.373,3.985 4.881,9.144 8.104,13.215 l 0.473,-0.322 c 3.393,-2.354 6.21,-5.378 9.578,-7.802 7.069,-5.086 18.935,-9.733 27.712,-8.269 5.183,0.864 8.256,3.61 11.525,7.415 0.041,0.2 0.083,0.4 0.121,0.6 0.803,4.253 -0.778,17.578 0.351,19.445 14.895,5.309 44.293,10.565 55.676,20.84 3.174,-5.146 5.888,-10.564 9.721,-15.276 11.458,-14.086 31.319,-24.478 48.694,-28.579 19.063,-4.5 43.609,1.501 59.919,11.687 19.938,12.451 36.012,33.809 41.232,56.825 5.271,23.245 1.234,49.835 -11.63,70.047 -1.355,2.129 -2.848,4.18 -4.326,6.225 4.236,1.986 9.311,4.276 11.12,8.968 1.669,4.328 1.299,30.738 -0.751,35.073 -0.3447,0.72067 -0.7103,1.43067 -1.097,2.13 l -0.736,0.447 c -5.098,3.065 -17.4,5.894 -20.475,9.767 l -480.12805,10.989 c 0.689,-1.679 4.289,-9.178 3.789,-10.363 -0.123,-0.292 -1.034,-0.959 -1.312,-1.121 -6.749,-3.95 -21.587,-6.271 -24.281,-14.691 -0.522,-1.629 0.126,-30.426 0.363,-34.424 3.015,-3.204 6.388,-5.079 10.096,-7.363 -11.527,-19.161 -15.473,-33.045 -15.356,-55.416 0.035,-6.683 0.184,-13.155 1.793,-19.684 5.788,-23.486 18.35,-44.219 39.42,-56.791 3.978,-2.373 8.897,-5.166 13.373,-6.297 17.967,-8.767 35.779,-8.041 54.89305,-4.465 3.754,-0.629 23.54,10.817 27.493,13.609 11.369,8.031 17.482,17.607 26.092,28.098 z"
       id="path3-9-3"
       sodipodi:nodetypes="csscscscccsccccssccscscccccsccccssscccc" /><path
       fill="#37506a"
       d="m -649.19285,650.16548 c 1.622,-0.059 3.296,0.027 4.915,0.143 22.262,1.592 43.91,11.866 58.401,28.99 11.811,13.956 12.754,29.371 11.349,46.797 -5.218,-20.926 -13.798,-34.677 -31.215,-47.577 -7.642,-4.548 -15.324,-8.309 -24.051,-10.244 -23.063,-5.116 -44.531,-0.305 -63.961,12.926 -3.719,2.532 -6.602,6.431 -10.216,8.755 -0.227,-0.465 -0.319,-0.58 -0.4,-1.164 -0.773,-5.58 2.675,-12.922 6.202,-16.933 11.205,-12.74 32.415,-20.562 48.976,-21.693 z"
       id="path18-5-8" /><path
       fill="#37506a"
       d="m -1039.2909,656.13448 c 14.478,-6.731 33.221,-7.081 48.56005,-3.685 11.939,2.943 27.601,8.821 34.528,19.748 1.917,3.023 2.957,6.491 2.054,10.024 -0.298,1.165 -0.742,2.293 -1.184,3.41 -4.953,-3.491 -9.896,-7.297 -15.184,-10.262 -15.124,-8.482 -33.94705,-11.431 -50.99305,-8.468 -18.435,3.203 -35.987,15.197 -46.681,30.515 -6.185,8.858 -9.415,18.948 -11.675,29.381 -1.311,-17.706 -0.82,-34.183 11.297,-48.361 8.946,-10.468 18.071,-15.226 29.278,-22.302 z"
       id="path19-0-8" /><path
       fill="#5ecefe"
       d="m -663.33385,710.15448 c 9.87,-0.677 19.732,0.805 28.48,5.571 q 0.917,0.498 1.807,1.041 0.891,0.544 1.753,1.131 0.862,0.587 1.694,1.217 0.832,0.63 1.631,1.3 0.8,0.671 1.564,1.38 0.765,0.71 1.493,1.457 0.728,0.747 1.418,1.529 0.69,0.783 1.34,1.599 0.65,0.816 1.258,1.664 0.609,0.847 1.174,1.724 0.565,0.877 1.085,1.781 0.521,0.905 0.995,1.834 0.475,0.929 0.902,1.88 0.428,0.952 0.807,1.924 0.379,0.972 0.709,1.961 0.331,0.99 0.611,1.995 c 3.857,13.661 0.97,27.006 -5.888,39.114 l -3.975,-6.543 c -8.259,-13.018 -27.799,-34.116 -39.579,-44.349 -5.547,-4.819 -11.959,-8.584 -17.236,-13.707 l -0.575,-0.564 c 6.211,-3.101 11.609,-4.412 18.532,-4.939 z"
       id="path20-5-9" /><path
       fill="#5ecefe"
       d="m -999.43385,709.66548 c 9.214,-0.353 18.158,0.767 25.903,6.019 -4.759,3.833 -9.936,7.082 -14.627,11.036 -14.79305,12.469 -27.04705,27.452 -38.79305,42.747 -2.698,4.023 -5.212,8.173 -7.906,12.202 -4.599,-7.093 -7.034,-15.791 -7.453,-24.187 -0.625,-12.538 2.261,-23.932 10.854,-33.378 8.405,-9.238 19.756,-13.778 32.02205,-14.439 z"
       id="path21-7-8" /><path
       fill="#fefefe"
       d="m -867.76535,635.08256 c 0.948,0.187 1.878,0.376 2.792,0.697 8.086,2.845 14.727,15.272 16.136,23.323 0.583,3.337 0.109,8.493 1.507,11.429 2.55,-0.012 2.052,-35.125 5.888,-37.626 4.191,-2.734 28.707,12.73 33.793,13.82 1.031,1.036 1.051,1.618 1.006,3.075 -0.332,10.826 -1.587,-8.759 -9.495,9.469 l 37.436,-9.733 c 4.514,0.744 -6.7537,23.24433 -2.303,24.301 10.365,2.423 20.361,6.289 30.14,10.446 37.52,15.948 69.904,39.86 95.144,72.01 4.307,5.487 47.763,27.8779 25.3428,29.36013 -8.9654,-2.19499 24.0429,14.90443 39.1396,54.79494 17.1395,45.28861 19.8208,103.03425 16.1014,112.75706 -22.9091,59.88591 -152.4258,125.79491 -164.9388,126.97991 -9.554,0.904 -18.954,2.544 -28.378,4.319 -18.366,4.511 -28.457,8.681 -41.288,22.701 -1.74,-0.7487 -3.49,-1.4737 -5.25,-2.175 -16.403,-6.439 -36.358,-4.477 -52.218,2.458 -3.469,-5.114 -8.3969,-8.6981 -13.663,-11.815 -4.8633,-2.8785 -70.7928,-29.3614 -117.5361,-67.0716 -40.08645,-32.33965 -63.23565,-74.36264 -66.57395,-77.86258 -57.1454,-59.91185 20.6072,-93.56422 -7.0978,-86.58022 4.437,-7.833 51.1838,-109.34764 57.2368,-116.19364 18.21605,-20.605 39.58905,-39.264 64.01705,-52.222 9.989,-5.298 20.45,-9.633 30.867,-14.006 52.9891,-21.02881 41.8514,9.75766 29.528,-43.721 0.149,-5.413 18.489,1.022 22.667,-2.934 z"
       id="path30-9-7"
       sodipodi:nodetypes="cccccccccccccsscccccssscccscc" /><path
       fill="#081c39"
       d="m -839.82585,619.8395 c 0.885,-0.072 1.753,-0.14 2.639,-0.048 10.79,1.122 21.816,16.659 28.184,24.386 1.722,-0.769 3.45,-1.516 5.248,-2.095 0.7347,-0.238 1.475,-0.458 2.221,-0.66 0.7453,-0.202 1.4953,-0.38567 2.25,-0.551 0.7547,-0.16467 1.513,-0.311 2.275,-0.439 0.762,-0.12733 1.5267,-0.23633 2.294,-0.327 0.7667,-0.09 1.5353,-0.16133 2.306,-0.214 0.7713,-0.0527 1.543,-0.086 2.315,-0.1 0.7727,-0.0147 1.545,-0.0103 2.317,0.013 0.772,0.0233 1.543,0.0657 2.313,0.127 0.77,0.0613 1.538,0.14133 2.304,0.24 0.766,0.0987 1.5293,0.21633 2.29,0.353 0.76,0.13667 1.5167,0.29167 2.27,0.465 0.7527,0.174 1.5007,0.366 2.244,0.576 0.7433,0.21067 1.481,0.43933 2.213,0.686 0.732,0.24667 1.4573,0.511 2.176,0.793 0.7193,0.282 1.4313,0.58167 2.136,0.899 0.704,0.31733 1.4,0.65167 2.088,1.003 3.452,1.777 6.848,4.408 7.918,8.321 1.277,4.669 -1.187,8.111 -3.428,11.952 19.635,5.9 32.842,13.114 50.919,22.257 72.7412,68.4293 71.0899,68.83037 110.236,125.207 5.07,6.634 8.783,9.597 12.798,17.545 9.408,0.527 20.951,-1.972 29.894,1.202 2.085,1.922 3.04,4.339 3.65,7.075 1.272,5.704 1.508,21.101 -1.759,25.836 -2.557,3.707 -5.701,4.526 -9.879,5.202 0.512,3.196 1.337,6.367 2.028,9.53 8.887,40.677 -1.055,84.963 -23.536,119.66097 -12.45,19.21503 -28.512,35.70703 -46.415,49.86903 -55.085,43.575 -117.749,58.612 -185.12,72.729 -11.046,0.947 -17.885,-0.051 -28.732,-2.382 -16.8973,-3.7473 -33.6737,-7.974 -50.329,-12.68 -10.014,-2.763 -20.215,-5.241 -30.074,-8.515 -43.066,-14.301 -84.15105,-36.235 -115.75505,-69.204 -8.587,-8.958 -16.824,-18.52 -23.531,-28.98603 -8.49,-13.25 -16.058,-29.22797 -20.311,-44.41297 -7.545,-26.942 -8.113,-59.182 -2.097,-86.394 -1.803,-1.115 -3.523,-2.273 -5.096,-3.704 -3.836,-3.488 -4.206,-10.077 -4.432,-14.975 -0.244,-5.292 -0.945,-13.894 3.172,-17.969 3.923,-3.884 22.339,-2.211 28.468,-2.091 3.347,-6.269 7.602,-11.107 11.57,-16.893 -2.841,-2.611 -6.483,-4.637 -9.6,-6.933 -1.874,-1.38533 -3.691,-2.842 -5.451,-4.37 l 73.86145,-77.24901 48.9546,-39.99199 c 0.4827,-0.51349 0.8503,1.12433 1.265,1.695 0.4147,0.57 0.8223,1.145 1.223,1.725 16.165,-9.249 32.313,-16.612 50.027,-22.413 -2.944,-9.408 -3.148,-16.934 -1.582,-26.608 0.42,-2.597 0.769,-5.393 1.941,-7.775 1.08,-2.193 2.597,-3.764 4.991,-4.444 10.113,-2.87 29.195,5.2 37.85,10.285 2.916,-7.194 7.194,-13.625 14.278,-17.208 z m -24.507,246.776 c 0.532,24.136 -4.017,47.169 -18.33,67.118 -15.854,22.098 -38.431,35.402 -65.235,39.648 -26.933,4.266 -61.62205,1.155 -84.11305,-15.307 -29.935,-21.91 -36.149,-48.356 -41.435,-82.797 l -0.155,0.579 c -4.958,19.094 -4.641,41.706 -0.876,61.012 0.173,-0.086 0.35,-0.164 0.519,-0.259 5.95,-3.362 5.717,-8.369 7.262,-9.27 3.288,1.956 4.993,5.591 8.777,7.774 0.293,0.735 0.518,1.332 0.663,2.115 0.898,6.409 11.915,13.717 16.087,18.925 4.165,5.198 7.05,11.792 10.916,17.301 13.128,18.70797 28.646,35.784 46.94605,49.56 24.104,18.145 53.341,34.159 81.449,45.037 13.629,5.275 27.751,9.434 41.705,13.746 10.488,3.242 23.496,8.77 34.594,7.037 15.271,-2.384 30.801,-8.009 45.555,-12.549 34.602,-10.648 70.182,-21.36 98.878,-44.343 4.218,-3.378 8.127,-7.231 12.077,-10.916 6.692,-6.242 13.394,-12.201 18.76,-19.672 2.265,-3.15303 4.68,-6.36803 6.56,-9.76703 3.323,-6.01 9.926,-22.57597 14.244,-26.19397 0.574,-0.698 0.833,-1.11 1.202,-1.902 l -0.824,-2.106 c -9.303,4.743 -18.71,8.696 -29,10.734 -31.417,6.224 -67.092,1.943 -93.963,-16.275 -29.6,-20.068 -38.749,-58.124 -45.111,-91.095 -6.754,-6.967 -17.401,-11.067 -26.955,-11.844 -15.389,-1.25 -28.564,3.951 -40.197,13.71 z m 27.735,-226.118 -0.247,0.917 c -1.277,4.856 -3.719,30.415 -5.779,32.099 -5.5,-0.631 -18.956,-25.368 -39.324,-29.21 -1.378,9.36 2.193,17.257 7.723,24.605 2.186,2.905 4.499,5.73 6.798,8.546 -69.535,14.728 -117.064,51.846 -155.44005,110.819 -2.723,4.186 -5.213,8.292 -7.27,12.854 19.389,-4.267 38.45405,-3.62 58.13105,-3.922 5.994,-4.274 11.349,-9.402 17.141,-13.944 13.143,-10.305 29.633,-18.345 46.771,-15.54 10.36,1.696 18.785,8.516 24.709,16.906 0.93,1.33933 1.8207,2.70433 2.672,4.095 0.8513,1.39133 1.6617,2.80567 2.431,4.243 0.77,1.438 1.4977,2.89667 2.183,4.376 0.6853,1.47933 1.3277,2.97733 1.927,4.494 0.5987,1.51667 1.1533,3.04933 1.664,4.598 0.5107,1.54867 0.9763,3.11067 1.397,4.686 0.4207,1.576 0.7953,3.16233 1.124,4.759 0.3287,1.59733 0.6113,3.20267 0.848,4.816 1.182,8.134 1.47,14.587 5.113,22.207 7.123,-3.263 14.392,-6.372 22.198,-7.518 18.75,-1.785 30.765,-0.155 47.941,7.41 3.635,-8.977 3.946,-17.779 5.968,-27.101 3.704,-17.072 13.332,-38.818 30.474,-46.17 10.265,-4.402 23.616,-2.585 33.67,1.598 18.055,7.512 22.856,16.648 36.537,27.615 18.748,0.102 37.518,0.687 56.26,0.576 -23.07,-49.929 -70.68,-91.963 -122.166,-110.924 -12.874,-4.741 -25.608,-8.466 -39.034,-11.273 0.081,-0.156 0.161,-0.312 0.245,-0.467 2.262,-4.202 9.762,-12.629 10.363,-16.641 -0.57,-1.169 -0.912,-1.487 -2.188,-1.871 -6.839,-2.061 -14.071,0.453 -19.965,3.945 -4.092,2.424 -12.508,10.36 -14.935,11.217 -1.054,-0.551 -1.013,-0.918 -1.381,-2.031 -1.042,-3.147 -1.484,-6.488 -2.491,-9.658 -2.074,-6.529 -6.955,-17.141 -13.23,-20.673 -0.275,-0.154 -0.559,-0.292 -0.838,-0.438 z m -228.11405,319.179 c 0.513,3.916 5.853,12.761 7.648,17.045 0.082,0.258 0.158,0.518 0.245,0.774 1.036,3.02497 3.872,4.84397 3.715,8.32597 l -0.655,0.811 -1.902,-0.025 c 1.29,2.046 2.529,4.156 3.923,6.132 1.421,2.185 2.833,4.347 4.426,6.413 29.651,39.48403 73.01505,62.92103 118.46805,79.59303 l 3.882,1.29 c 18.525,6.272 37.56,10.76 56.512,15.513 11.857,2.974 27.728,8.295 39.778,8.014 11.586,-0.27 24.15,-4.534 35.416,-7.343 1.687,-0.1 3.535,-0.715 5.195,-1.089 25.695,-5.611 51.083,-12.314 75.489,-22.229 1.806,-0.471 3.719,-1.516 5.457,-2.244 42.357,-18.907 83.604,-46.75 107.123,-87.85003 2.189,-3.28897 3.806,-7.00897 5.398,-10.61197 l -0.492,-0.117 c -1.212,-1.504 -2.117,-3.327 -2.365,-5.255 -0.193,-1.504 0.012,-2.519 0.93,-3.706 0.756,0.121 1.472,0.208 2.237,0.27 0.773,-1.273 0.41,-2.674 0.264,-4.085 -0.585,-2.32 -1.344,-4.57 -2.102,-6.838 -2.698,-1.183 -5.175,-3.759 -8.164,-3.804 -4.1,1.773 -9.14,4.971 -11.807,8.572 -4.717,2.129 -8.552,6.393 -13.392,8.161 -4.318,3.618 -10.921,20.18397 -14.244,26.19397 -1.88,3.399 -4.295,6.614 -6.56,9.76703 -5.366,7.471 -12.068,13.43 -18.76,19.672 -3.95,3.685 -7.859,7.538 -12.077,10.916 -28.696,22.983 -64.276,33.695 -98.878,44.343 -14.754,4.54 -30.284,10.165 -45.555,12.549 -11.098,1.733 -24.106,-3.795 -34.594,-7.037 -13.954,-4.312 -28.076,-8.471 -41.705,-13.746 -28.108,-10.878 -57.345,-26.892 -81.449,-45.037 -18.30005,-13.776 -33.81805,-30.85203 -46.94605,-49.56 -3.866,-5.509 -6.751,-12.103 -10.916,-17.301 -4.172,-5.208 -15.189,-12.516 -16.087,-18.925 -2.724,-0.359 -5.778,-0.445 -8.058,1.358 -1.956,1.546 -2.565,3.993 -2.679,6.379 -0.238,4.956 1.863,8.648 2.923,13.264 0.111,0.484 0.238,0.965 0.358,1.447 z m 336.01905,-142.716 c -13.936,0.51 -27.899,5.903 -37.506,16.238 -7.641,8.222 -12.177,21.08 -11.608,32.279 0.124,2.443 0.507,4.902 1,7.294 3.452,-16.165 7.871,-32.987 22.543,-42.649 5.035,-3.315 10.938,-5.454 16.842,-6.571 16.684,-3.157 45.657,-0.73 63.724,-0.586 4.92,8.826 9.653,17.381 15.883,25.385 12.997,16.698 32.491,30.386 34.493,53.177 0.797,13.068 -1.997,24.37 -10.756,34.374 -4.833,5.52 -10.797,10.149 -16.369,14.894 16.575,-5.756 28.919,-13.353 36.973,-29.614 6.588,-13.3 15.397,-63.839 10.33,-78.098 -3.416,-9.615 -11.982,-19.03 -21.338,-23.166 -3.473,-1.535 -7.554,-2.221 -11.323,-2.515 -11.665,-0.909 -23.779,-0.205 -35.493,-0.271 -19.114,-0.109 -38.289,-0.686 -57.395,-0.171 z m -242.601,-2.948 c -20.518,0.88 -60.21505,-0.833 -74.93405,15.054 -9.734,10.507 -9.547,25.002 -8.931,38.393 1.161,25.245 8.197,53.825 27.531,71.325 3.187,2.885 6.597,5.376 10.255,7.624 -11.609,-13.223 -18.231,-27.432 -16.966,-45.419 1.184,-16.839 7.555,-29.193 19.322,-41.093 11.694,-11.456 20.46505,-21.821 25.17705,-37.812 16.553,-3.807 49.874,-2.927 66.587,0.556 6.648,1.386 13.352,3.579 19.13,7.215 14.813,9.322 20.619,26.899 24.523,43.039 1.003,-14.354 -2.11,-28.17 -11.775,-39.166 -14.104,-16.044 -35.325,-18.467 -55.422,-19.641 -8.1647,-0.42267 -16.3303,-0.44767 -24.497,-0.075 z m 21.5,24.91 c -10.188,0.884 -19.121,4.708 -25.798,12.662 -0.3847,0.45533 -0.7577,0.92033 -1.119,1.395 -0.3613,0.47467 -0.7107,0.95767 -1.048,1.449 -0.3373,0.492 -0.662,0.992 -0.974,1.5 -0.3127,0.50867 -0.612,1.02433 -0.898,1.547 -0.2867,0.52333 -0.5597,1.05333 -0.819,1.59 -0.26,0.53667 -0.5063,1.07967 -0.739,1.629 -0.2327,0.54933 -0.4513,1.104 -0.656,1.664 -0.2047,0.56 -0.3953,1.125 -0.572,1.695 -0.176,0.56933 -0.338,1.143 -0.486,1.721 -0.148,0.578 -0.281,1.159 -0.399,1.743 -0.1187,0.58467 -0.2227,1.17167 -0.312,1.761 -0.089,0.59 -0.1637,1.18167 -0.223,1.775 -0.06,0.59333 -0.1047,1.188 -0.134,1.784 -0.03,0.59533 -0.045,1.19133 -0.045,1.788 0,0.596 0.015,1.19167 0.045,1.787 0.03,0.596 0.075,1.19067 0.135,1.784 0.063,0.57867 0.139,1.15533 0.229,1.73 0.091,0.57467 0.1953,1.14667 0.314,1.716 0.1187,0.56933 0.251,1.13567 0.397,1.699 0.146,0.56333 0.306,1.12267 0.48,1.678 0.1733,0.55467 0.3603,1.10533 0.561,1.652 0.2007,0.546 0.4143,1.08667 0.641,1.622 0.2273,0.536 0.4673,1.066 0.72,1.59 0.2527,0.524 0.518,1.04133 0.796,1.552 0.2787,0.51067 0.5693,1.01433 0.872,1.511 0.3027,0.49733 0.6173,0.98667 0.944,1.468 0.3267,0.48133 0.665,0.95433 1.015,1.419 0.35,0.46467 0.711,0.92067 1.083,1.368 0.3727,0.44667 0.7557,0.88433 1.149,1.313 0.3933,0.42867 0.797,0.84733 1.211,1.256 0.414,0.40867 0.838,0.807 1.272,1.195 0.4333,0.388 0.876,0.765 1.328,1.131 8.414,6.723 17.001,8.917 27.587,8.64 11.293,-2.179 20.302,-6.793 26.887,-16.544 0.3133,-0.47333 0.6147,-0.954 0.904,-1.442 0.2893,-0.488 0.5667,-0.983 0.832,-1.485 0.2653,-0.50133 0.518,-1.00933 0.758,-1.524 0.24,-0.514 0.467,-1.03367 0.681,-1.559 0.2147,-0.52533 0.416,-1.056 0.604,-1.592 0.1887,-0.53533 0.3637,-1.075 0.525,-1.619 0.1613,-0.544 0.3093,-1.09133 0.444,-1.642 0.1347,-0.55133 0.2557,-1.10567 0.363,-1.663 0.1073,-0.55733 0.201,-1.117 0.281,-1.679 0.079,-0.562 0.145,-1.12567 0.197,-1.691 0.052,-0.56467 0.09,-1.13067 0.114,-1.698 0.023,-0.56667 0.033,-1.13367 0.029,-1.701 -0.01,-0.568 -0.025,-1.13533 -0.054,-1.702 -0.032,-0.566 -0.078,-1.13133 -0.137,-1.696 -0.06,-0.564 -0.134,-1.12633 -0.222,-1.687 -0.087,-0.56067 -0.1887,-1.119 -0.304,-1.675 -1.976,-9.662 -7.797,-17.879 -16.04,-23.225 -6.57,-4.261 -14.567,-6.557 -22.419,-5.99 z m 235.63,-0.481 c -9.39,0.801 -17.993,4.806 -24.115,12.091 -0.37,0.44133 -0.729,0.89167 -1.077,1.351 -0.3473,0.46 -0.6833,0.928 -1.008,1.404 -0.3247,0.476 -0.6373,0.95967 -0.938,1.451 -0.3007,0.49133 -0.589,0.99 -0.865,1.496 -0.276,0.50533 -0.5393,1.01733 -0.79,1.536 -0.2507,0.51867 -0.4883,1.04333 -0.713,1.574 -0.2253,0.53067 -0.437,1.06633 -0.635,1.607 -0.1987,0.54133 -0.3833,1.087 -0.554,1.637 -0.1713,0.55 -0.329,1.104 -0.473,1.662 -0.144,0.55733 -0.2743,1.11833 -0.391,1.683 -0.116,0.564 -0.218,1.13067 -0.306,1.7 -0.088,0.57 -0.162,1.14133 -0.222,1.714 -0.06,0.57333 -0.1057,1.14733 -0.137,1.722 -0.032,0.57533 -0.049,1.15133 -0.052,1.728 0,0.576 0.011,1.15167 0.033,1.727 0.025,0.576 0.065,1.15067 0.119,1.724 0.056,0.60067 0.1267,1.19967 0.212,1.797 0.085,0.59733 0.1853,1.19233 0.3,1.785 0.1147,0.592 0.244,1.181 0.388,1.767 0.144,0.586 0.3023,1.16833 0.475,1.747 0.1727,0.578 0.3593,1.15133 0.56,1.72 0.2007,0.56933 0.4153,1.13333 0.644,1.692 0.2287,0.558 0.471,1.11033 0.727,1.657 0.256,0.546 0.5253,1.08567 0.808,1.619 0.2827,0.53333 0.5783,1.059 0.887,1.577 0.3087,0.51867 0.63,1.02933 0.964,1.532 0.3333,0.50267 0.6793,0.997 1.038,1.483 0.358,0.48533 0.7277,0.96167 1.109,1.429 0.382,0.46733 0.7753,0.925 1.18,1.373 0.404,0.448 0.819,0.88567 1.245,1.313 0.426,0.42733 0.862,0.844 1.308,1.25 0.4467,0.406 0.903,0.80067 1.369,1.184 8.206,6.675 17.209,8.606 27.601,8.31 9.083,-1.101 17.998,-5.805 23.662,-13.049 0.368,-0.478 0.724,-0.965 1.068,-1.461 0.344,-0.496 0.6753,-1.00033 0.994,-1.513 0.3187,-0.512 0.6247,-1.03167 0.918,-1.559 0.2933,-0.52733 0.5733,-1.06167 0.84,-1.603 0.2667,-0.54133 0.52,-1.089 0.76,-1.643 0.2393,-0.55333 0.465,-1.11267 0.677,-1.678 0.212,-0.56467 0.41,-1.13433 0.594,-1.709 0.184,-0.57533 0.3537,-1.15433 0.509,-1.737 0.1553,-0.58333 0.296,-1.17 0.422,-1.76 0.126,-0.59 0.2377,-1.183 0.335,-1.779 0.097,-0.59533 0.1787,-1.193 0.246,-1.793 0.067,-0.59933 0.1197,-1.20033 0.157,-1.803 0.038,-0.602 0.061,-1.20467 0.068,-1.808 0.01,-0.60333 0,-1.20667 -0.021,-1.81 -0.022,-0.60333 -0.059,-1.20533 -0.111,-1.806 -0.052,-0.60133 -0.1187,-1.201 -0.2,-1.799 -0.085,-0.57333 -0.1843,-1.144 -0.297,-1.712 -0.1127,-0.568 -0.2393,-1.133 -0.38,-1.695 -0.1407,-0.562 -0.295,-1.12033 -0.463,-1.675 -0.1673,-0.554 -0.3487,-1.104 -0.544,-1.65 -0.1947,-0.54533 -0.4023,-1.08567 -0.623,-1.621 -0.2213,-0.53533 -0.4557,-1.065 -0.703,-1.589 -0.2467,-0.524 -0.5063,-1.04167 -0.779,-1.553 -0.272,-0.51133 -0.5567,-1.01567 -0.854,-1.513 -0.2967,-0.49733 -0.6057,-0.987 -0.927,-1.469 -0.3207,-0.482 -0.6533,-0.956 -0.998,-1.422 -0.344,-0.466 -0.6993,-0.92333 -1.066,-1.372 -0.3667,-0.44867 -0.7437,-0.888 -1.131,-1.318 -0.3887,-0.43 -0.787,-0.85033 -1.195,-1.261 -0.4087,-0.41067 -0.827,-0.811 -1.255,-1.201 -0.4287,-0.39067 -0.8663,-0.77033 -1.313,-1.139 -0.4467,-0.36867 -0.902,-0.72633 -1.366,-1.073 -0.4573,-0.34 -0.922,-0.66967 -1.394,-0.989 -0.472,-0.31933 -0.951,-0.62833 -1.437,-0.927 -0.486,-0.298 -0.9783,-0.585 -1.477,-0.861 -0.4987,-0.276 -1.003,-0.54067 -1.513,-0.794 -0.5107,-0.254 -1.0267,-0.496 -1.548,-0.726 -0.5213,-0.23067 -1.0473,-0.44967 -1.578,-0.657 -0.5313,-0.20733 -1.0667,-0.40233 -1.606,-0.585 -0.54,-0.18333 -1.0837,-0.35467 -1.631,-0.514 -0.5473,-0.15867 -1.098,-0.30533 -1.652,-0.44 -0.554,-0.13467 -1.1107,-0.25667 -1.67,-0.366 -0.5593,-0.10933 -1.1207,-0.20633 -1.684,-0.291 -0.564,-0.0847 -1.1293,-0.15667 -1.696,-0.216 -0.5673,-0.0593 -1.1353,-0.106 -1.704,-0.14 -0.5687,-0.034 -1.138,-0.0553 -1.708,-0.064 -0.57,-0.009 -1.14,-0.005 -1.71,0.012 -0.5693,0.0173 -1.1383,0.047 -1.707,0.089 z m 128.694,43.244 c -4.169,23.792 -7.423,44.188 -23.415,63.414 -1.4107,1.36667 -2.8023,2.75233 -4.175,4.157 0.318,1.258 0.233,1.596 1.185,2.54 1.876,-0.332 3.847,-2.398 5.708,-3.261 l 0.546,-0.247 1.335,0.372 c 2.989,0.045 5.466,2.621 8.164,3.804 0.758,2.268 1.517,4.518 2.102,6.838 0.146,1.411 0.509,2.812 -0.264,4.085 -0.765,-0.062 -1.481,-0.149 -2.237,-0.27 -0.918,1.187 -1.123,2.202 -0.93,3.706 0.248,1.928 1.153,3.751 2.365,5.255 l 0.492,0.117 c 0.445,-0.829 0.643,-1.587 0.856,-2.501 13.948,-28.642 13.991,-57.276 8.268,-88.009 z m -489.00705,55.183 c 0.59,8.185 3.994,19.936 7.555,27.143 0.398,0.142 0.126,0.085 0.829,-0.098 0.249,-1.654 0.567,-2.769 1.381,-4.237 -0.12,-0.482 -0.247,-0.963 -0.358,-1.447 -1.06,-4.616 -3.161,-8.308 -2.923,-13.264 0.114,-2.386 0.723,-4.833 2.679,-6.379 2.28,-1.803 5.334,-1.717 8.058,-1.358 -0.145,-0.783 -0.37,-1.38 -0.663,-2.115 -3.784,-2.183 -5.489,-5.818 -8.777,-7.774 -1.545,0.901 -1.312,5.908 -7.262,9.27 -0.169,0.095 -0.346,0.173 -0.519,0.259 z m 489.04605,-96.045 c 0.47,2.274 0.897,4.476 1.738,6.65 6.221,0.047 12.577,0.5 18.783,0.17 0.056,-2.232 0.142,-4.459 0.04,-6.69 -6.781,-0.281 -13.794,-0.701 -20.561,-0.13 z m -490.79205,-1.336 c -4.43,0.231 -8.834,0.251 -13.268,0.228 -0.282,1.991 -0.706,3.89 -0.218,5.874 0.839,1.032 1.051,1.371 2.426,1.644 0.629,0.125 1.524,0.045 2.146,0.037 4.124,-0.021 8.264,0.036 12.385,-0.076 0.364,-2.468 0.818,-4.955 1.028,-7.441 -1.406,-0.143 -3.121,-0.501 -4.499,-0.266 z m 470.60205,108.801 -0.546,0.247 c -1.861,0.863 -3.832,2.929 -5.708,3.261 -0.952,-0.944 -0.867,-1.282 -1.185,-2.54 -2.808,2.622 -15.141,10.969 -16.047,12.129 l 0.824,2.106 c -0.369,0.792 -0.628,1.204 -1.202,1.902 4.84,-1.768 8.675,-6.032 13.392,-8.161 2.667,-3.601 7.707,-6.799 11.807,-8.572 z m -459.09105,11.388 c -0.814,1.468 -1.132,2.583 -1.381,4.237 -0.703,0.183 -0.431,0.24 -0.829,0.098 1.217,3.415 2.65,7.327 4.663,10.334 2.477,0.612 2.921,3.569 4.606,3.905 l 0.589,-1.529 c -1.795,-4.284 -7.135,-13.129 -7.648,-17.045 z m 2.453,14.669 c 1.929,4.238 4.28,8.22997 6.598,12.26197 l 1.902,0.025 0.655,-0.811 c 0.157,-3.482 -2.679,-5.301 -3.715,-8.32597 -0.087,-0.256 -0.163,-0.516 -0.245,-0.774 l -0.589,1.529 c -1.685,-0.336 -2.129,-3.293 -4.606,-3.905 z"
       id="path11-2"
       sodipodi:nodetypes="ccccscccscssssccssscscccccscccsscccssccccscccccccsccsccccccscccccccccssscccscscccccscccccccscccccscssscsssccccccsccsccccsccsccccccccccccsscccccccscccccccccscssccssccccscccsccccscscccsccccssscscccsccccccsssscsscscsccssccsscssscssscssccccsssccssscsccccccsccccsssscscscssccccssssssssscsccsscccssssssssscsccsscssssccccccscssscscsscsscssssssccccccccccccccccccccccccccccccccccccccsccccccccccccccccccccccccccccc" /><path
       fill="#dfe5ea"
       fill-opacity="0.890196"
       d="m -1062.2589,974.3455 c 2.477,0.612 2.921,3.569 4.606,3.905 l 0.589,-1.529 c 0.082,0.258 0.158,0.518 0.245,0.774 1.036,3.02497 3.872,4.84397 3.715,8.32597 l -0.655,0.811 -1.902,-0.025 c -2.318,-4.032 -4.669,-8.02397 -6.598,-12.26197 z"
       id="path12-8" /><path
       fill="#dfe5ea"
       fill-opacity="0.839216"
       d="m -1064.7119,959.6765 c 0.513,3.916 5.853,12.761 7.648,17.045 l -0.589,1.529 c -1.685,-0.336 -2.129,-3.293 -4.606,-3.905 -2.013,-3.007 -3.446,-6.919 -4.663,-10.334 0.398,0.142 0.126,0.085 0.829,-0.098 0.249,-1.654 0.567,-2.769 1.381,-4.237 z"
       id="path13-0" /><path
       fill="#dfe5ea"
       fill-opacity="0.454902"
       d="m -605.62085,948.2885 1.335,0.372 c -4.1,1.773 -9.14,4.971 -11.807,8.572 -4.717,2.129 -8.552,6.393 -13.392,8.161 0.574,-0.698 0.833,-1.11 1.202,-1.902 l -0.824,-2.106 c 0.906,-1.16 13.239,-9.507 16.047,-12.129 0.318,1.258 0.233,1.596 1.185,2.54 1.876,-0.332 3.847,-2.398 5.708,-3.261 z"
       id="path14-1" /><path
       fill="#083250"
       d="m -981.58885,710.1385 c 0.367,0.557 0.631,1.045 1.159,1.463 -1.556,1.95 -4.296,3.794 -6.208,5.454 -4.892,4.25 -9.901,8.459 -14.51705,13.009 -7.001,6.902 -12.721,14.839 -19.541,21.853 l -0.455,0.461 c 8.589,-16.967 24.72805,-30.935 39.56205,-42.24 z"
       id="path15-4" /><path
       fill="#dfe5ea"
       fill-opacity="0.427451"
       d="m -1074.4769,936.8685 c 0.173,-0.086 0.35,-0.164 0.519,-0.259 5.95,-3.362 5.717,-8.369 7.262,-9.27 3.288,1.956 4.993,5.591 8.777,7.774 0.293,0.735 0.518,1.332 0.663,2.115 -2.724,-0.359 -5.778,-0.445 -8.058,1.358 -1.956,1.546 -2.565,3.993 -2.679,6.379 -0.238,4.956 1.863,8.648 2.923,13.264 0.111,0.484 0.238,0.965 0.358,1.447 -0.814,1.468 -1.132,2.583 -1.381,4.237 -0.703,0.183 -0.431,0.24 -0.829,0.098 -3.561,-7.207 -6.965,-18.958 -7.555,-27.143 z"
       id="path17-7" /><path
       fill="#dfe5ea"
       fill-opacity="0.341176"
       d="m -608.88485,945.0995 c 0.732,0.478 1.348,1.203 2.26,1.053 3.064,-0.506 11.44,-8.653 13.341,-7.484 3.098,1.904 4.208,9.289 5.383,12.66 l -0.345,0.611 c -1.129,1.969 -5.322,6.565 -4.825,8.509 0.253,0.987 0.591,1.84 0.978,2.778 -0.395,2.316 -1.825,4.119 -1.645,6.468 -0.213,0.914 -0.411,1.672 -0.856,2.501 l -0.492,-0.117 c -1.212,-1.504 -2.117,-3.327 -2.365,-5.255 -0.193,-1.504 0.012,-2.519 0.93,-3.706 0.756,0.121 1.472,0.208 2.237,0.27 0.773,-1.273 0.41,-2.674 0.264,-4.085 -0.585,-2.32 -1.344,-4.57 -2.102,-6.838 -2.698,-1.183 -5.175,-3.759 -8.164,-3.804 l -1.335,-0.372 -0.546,0.247 c -1.861,0.863 -3.832,2.929 -5.708,3.261 -0.952,-0.944 -0.867,-1.282 -1.185,-2.54 q 2.059,-2.107 4.175,-4.157 z m 3.264,3.189 1.335,0.372 c 2.989,0.045 5.466,2.621 8.164,3.804 0.758,2.268 1.517,4.518 2.102,6.838 0,-0.166 0,-0.332 0.012,-0.498 0.013,-0.277 0.038,-0.552 0.049,-0.829 0.117,-3.075 1.478,-4.972 2.242,-7.801 0.395,-1.463 0.144,-2.065 -0.552,-3.357 -1.83,-1.355 -4.022,-1.372 -6.22,-1.645 -2.297,0.923 -5.169,1.609 -7.132,3.116 z"
       id="path18-9" /><path
       fill="#dfe5ea"
       fill-opacity="0.443137"
       d="m -605.62085,948.2885 c 1.963,-1.507 4.835,-2.193 7.132,-3.116 2.198,0.273 4.39,0.29 6.22,1.645 0.696,1.292 0.947,1.894 0.552,3.357 -0.764,2.829 -2.125,4.726 -2.242,7.801 -0.011,0.277 -0.036,0.552 -0.049,0.829 -0.01,0.166 -0.01,0.332 -0.012,0.498 -0.585,-2.32 -1.344,-4.57 -2.102,-6.838 -2.698,-1.183 -5.175,-3.759 -8.164,-3.804 z"
       id="path19-7" /><path
       fill="#083250"
       d="m -748.96785,773.8255 c 2.248,-0.18 4.623,-0.175 6.874,-0.012 18.251,1.322 32.157,11.916 43.585,25.376 -18.68,0.452 -30.585,-2.351 -49.625,3.061 q -2.454,0.676 -4.844,1.555 -2.389,0.879 -4.697,1.955 -2.308,1.075 -4.518,2.339 -2.209,1.265 -4.306,2.709 c -2.669,1.811 -11.786,9.981 -14.159,10.235 -0.049,-0.189 -0.116,-0.375 -0.145,-0.568 -0.619,-4.13 4.275,-18.821 6.162,-23.126 1.215,-2.773 2.999,-5.475 4.6,-8.048 5.255,-8.446 11.334,-13.222 21.073,-15.476 z"
       id="path20-56" /><path
       fill="#083250"
       d="m -923.52585,774.4055 c 2.58,-0.319 5.367,-0.307 7.967,-0.284 8.421,0.074 16.351,2.93 22.249,9.102 9.042,9.462 15.57,26.36 15.209,39.384 -6.325,-5.981 -12.273,-11.986 -20.176,-15.865 -19.797,-9.36 -41.832,-8.346 -63.177,-9.135 9.879,-11.105 23.258,-20.165 37.928,-23.202 z"
       id="path21-4" /><path
       fill="#081c39"
       d="m -949.32985,852.9545 c 3.417,-0.211 6.446,0.112 9.759,0.875 -2.204,2.684 -4.344,5.149 -5.102,8.627 -0.765,3.511 -0.093,6.978 1.915,9.959 q 0.319,0.482 0.685,0.929 0.367,0.448 0.776,0.856 0.41,0.408 0.858,0.773 0.449,0.364 0.932,0.681 0.484,0.318 0.996,0.585 0.513,0.267 1.051,0.48 0.537,0.214 1.093,0.372 0.556,0.159 1.125,0.26 c 5.014,0.879 8.942,-1.886 12.752,-4.673 q -0.317,2.179 -0.689,4.349 c -1.45,7.985 -5.464,13.559 -12.077,18.109 -2.294,1.186 -4.578,1.84 -7.122,2.242 -6.597,1.043 -13.068,-0.168 -18.462,-4.246 -4.68,-3.539 -8.144,-8.866 -8.933,-14.729 -0.782,-5.819 1.095,-12.06 4.654,-16.686 3.942,-5.126 9.478,-7.955 15.789,-8.763 z m -15.254,18.736 c -1.681,1.165 -3.14,2.173 -3.416,4.379 -0.176,1.4 0.279,2.42 1.143,3.486 1.353,1.667 3.481,2.092 5.515,2.148 0.146,0.005 0.292,-0.005 0.438,-0.007 1.623,-1.119 3.195,-2.177 3.547,-4.283 0.242,-1.453 0.074,-2.343 -0.743,-3.574 -0.977,-1.475 -2.706,-2.115 -4.398,-2.234 -0.676,-0.048 -1.416,0.037 -2.086,0.085 z"
       id="path25-6" /><path
       fill="#081c39"
       d="m -713.14155,853.71028 c 3.417,-0.211 6.446,0.112 9.759,0.875 -2.204,2.684 -4.344,5.149 -5.102,8.627 -0.765,3.511 -0.093,6.978 1.915,9.959 q 0.319,0.482 0.685,0.929 0.367,0.448 0.776,0.856 0.41,0.408 0.858,0.773 0.449,0.364 0.932,0.681 0.484,0.318 0.996,0.585 0.513,0.267 1.051,0.48 0.537,0.214 1.093,0.372 0.556,0.159 1.125,0.26 c 5.014,0.879 8.942,-1.886 12.752,-4.673 q -0.317,2.179 -0.689,4.349 c -1.45,7.985 -5.464,13.559 -12.077,18.109 -2.294,1.186 -4.578,1.84 -7.122,2.242 -6.597,1.043 -13.068,-0.168 -18.462,-4.246 -4.68,-3.539 -8.144,-8.866 -8.933,-14.729 -0.782,-5.819 1.095,-12.06 4.654,-16.686 3.942,-5.126 9.478,-7.955 15.789,-8.763 z m -15.254,18.736 c -1.681,1.165 -3.14,2.173 -3.416,4.379 -0.176,1.4 0.279,2.42 1.143,3.486 1.353,1.667 3.481,2.092 5.515,2.148 0.146,0.005 0.292,-0.005 0.438,-0.007 1.623,-1.119 3.195,-2.177 3.547,-4.283 0.242,-1.453 0.074,-2.343 -0.743,-3.574 -0.977,-1.475 -2.706,-2.115 -4.398,-2.234 -0.676,-0.048 -1.416,0.037 -2.086,0.085 z"
       id="path25-6-2" /><path
       fill="url(#gradient_0)"
       d="m -1064.7119,959.6765 c -0.12,-0.482 -0.247,-0.963 -0.358,-1.447 -1.06,-4.616 -3.161,-8.308 -2.923,-13.264 0.114,-2.386 0.723,-4.833 2.679,-6.379 2.28,-1.803 5.334,-1.717 8.058,-1.358 0.898,6.409 11.915,13.717 16.087,18.925 4.165,5.198 7.05,11.792 10.916,17.301 13.128,18.70797 28.646,35.784 46.94605,49.56 24.104,18.145 53.341,34.159 81.449,45.037 13.629,5.275 27.751,9.434 41.705,13.746 10.488,3.242 23.496,8.77 34.594,7.037 15.271,-2.384 30.801,-8.009 45.555,-12.549 34.602,-10.648 70.182,-21.36 98.878,-44.343 4.218,-3.378 8.127,-7.231 12.077,-10.916 6.692,-6.242 13.394,-12.201 18.76,-19.672 2.265,-3.15303 4.68,-6.36803 6.56,-9.76703 3.323,-6.01 9.926,-22.57597 14.244,-26.19397 4.84,-1.768 8.675,-6.032 13.392,-8.161 2.667,-3.601 7.707,-6.799 11.807,-8.572 2.989,0.045 5.466,2.621 8.164,3.804 0.758,2.268 1.517,4.518 2.102,6.838 0.146,1.411 0.509,2.812 -0.264,4.085 -0.765,-0.062 -1.481,-0.149 -2.237,-0.27 -0.918,1.187 -1.123,2.202 -0.93,3.706 0.248,1.928 1.153,3.751 2.365,5.255 l 0.492,0.117 c -1.592,3.603 -3.209,7.323 -5.398,10.61197 -23.519,41.10003 -64.766,68.94303 -107.123,87.85003 -1.738,0.728 -3.651,1.773 -5.457,2.244 -24.406,9.915 -49.794,16.618 -75.489,22.229 -1.66,0.374 -3.508,0.989 -5.195,1.089 -11.266,2.809 -23.83,7.073 -35.416,7.343 -12.05,0.281 -27.921,-5.04 -39.778,-8.014 -18.952,-4.753 -37.987,-9.241 -56.512,-15.513 l -3.882,-1.29 c -45.453,-16.672 -88.81705,-40.109 -118.46805,-79.59303 -1.593,-2.066 -3.005,-4.228 -4.426,-6.413 -1.394,-1.976 -2.633,-4.086 -3.923,-6.132 l 1.902,0.025 0.655,-0.811 c 0.157,-3.482 -2.679,-5.301 -3.715,-8.32597 -0.087,-0.256 -0.163,-0.516 -0.245,-0.774 -1.795,-4.284 -7.135,-13.129 -7.648,-17.045 z m 460.42605,-11.016 c -4.1,1.773 -9.14,4.971 -11.807,8.572 0.134,-0.053 0.269,-0.105 0.402,-0.16 3.114,-1.285 7.484,-5.394 10.934,-3.838 2.488,1.122 5.6,3.304 7.373,5.371 l 0.109,0.964 c -0.93,0.559 -1.646,0.52 -2.71,0.54 -0.79,1.173 -1.87,3.69 -1.843,5.123 0.021,1.131 1.513,3.217 2.116,4.242 -0.258,0.183 -0.52,0.361 -0.773,0.549 -1.411,1.049 -2.062,2.453 -2.217,4.179 -0.232,2.573 1.152,6.60297 2.71,8.60497 2.189,-3.28897 3.806,-7.00897 5.398,-10.61197 l -0.492,-0.117 c -1.212,-1.504 -2.117,-3.327 -2.365,-5.255 -0.193,-1.504 0.012,-2.519 0.93,-3.706 0.756,0.121 1.472,0.208 2.237,0.27 0.773,-1.273 0.41,-2.674 0.264,-4.085 -0.585,-2.32 -1.344,-4.57 -2.102,-6.838 -2.698,-1.183 -5.175,-3.759 -8.164,-3.804 z m -188.97,147.559 c 1.687,-0.1 3.535,-0.715 5.195,-1.089 -0.926,-1.098 -1.459,-1.985 -3.01,-2.174 -3.32,-0.406 -8.393,-0.706 -11.617,0.023 0.614,0.649 0.924,0.694 1.754,0.956 l -0.032,-0.017 -0.153,0.558 c -0.688,0.534 -1.2,0.954 -2.012,1.287 3.164,-0.069 6.848,-0.49 9.875,0.456 z M -1051.7379,992.73947 c 1.421,2.185 2.833,4.347 4.426,6.413 1.055,-0.01 1.552,0.084 2.485,-0.461 -0.135,-0.744 -0.107,-0.736 -0.417,-1.577 -0.886,-2.407 -3.335,-6.801 -5.726,-7.765 -0.966,1.081 -0.703,1.987 -0.768,3.39 z m 339.16605,80.16203 c 1.806,-0.471 3.719,-1.516 5.457,-2.244 -0.666,-0.33 -1.316,-0.74 -1.971,-1.062 -1.478,-0.726 -4.213,-0.133 -5.804,0.117 l -0.857,0.711 c 0.263,0.969 0.443,1.369 1.382,1.854 0.69,0.357 0.604,0.069 1.277,0.324 0.186,0.07 0.344,0.2 0.516,0.3 z m -216.272,5.844 3.882,1.29 c 1.422,-0.424 2.663,-0.588 3.579,-1.824 l -0.671,-0.665 c -2.961,-0.316 -4.329,-0.537 -6.79,1.199 z"
       id="path26-5"
       style="fill:url(#linearGradient6)" /><path
       fill="#dfe5ea"
       fill-opacity="0.929412"
       d="m -1051.7379,992.73947 c 0.065,-1.403 -0.198,-2.309 0.768,-3.39 2.391,0.964 4.84,5.358 5.726,7.765 0.31,0.841 0.282,0.833 0.417,1.577 -0.933,0.545 -1.43,0.451 -2.485,0.461 -1.593,-2.066 -3.005,-4.228 -4.426,-6.413 z"
       id="path29-91" /><g
       id="g9"
       transform="translate(5.2,30.4)"><path
         fill="#dfe5ea"
         fill-opacity="0.921569"
         d="m -928.84385,1078.7455 c 2.461,-1.736 3.829,-1.515 6.79,-1.199 l 0.671,0.665 c -0.916,1.236 -2.157,1.4 -3.579,1.824 z"
         id="path27-5" /><path
         fill="#dfe5ea"
         fill-opacity="0.882353"
         d="m -712.57185,1072.9015 c -0.172,-0.1 -0.33,-0.23 -0.516,-0.3 -0.673,-0.255 -0.587,0.033 -1.277,-0.324 -0.939,-0.485 -1.119,-0.885 -1.382,-1.854 l 0.857,-0.711 c 1.591,-0.25 4.326,-0.843 5.804,-0.117 0.655,0.322 1.305,0.732 1.971,1.062 -1.738,0.728 -3.651,1.773 -5.457,2.244 z"
         id="path28-0" /><path
         fill="#dfe5ea"
         fill-opacity="0.917647"
         d="m -793.25585,1096.2195 c -3.027,-0.946 -6.711,-0.525 -9.875,-0.456 0.812,-0.333 1.324,-0.753 2.012,-1.287 l 0.153,-0.558 0.032,0.017 c -0.83,-0.262 -1.14,-0.307 -1.754,-0.956 3.224,-0.729 8.297,-0.429 11.617,-0.023 1.551,0.189 2.084,1.076 3.01,2.174 -1.66,0.374 -3.508,0.989 -5.195,1.089 z"
         id="path30-6" /><path
         fill="#0d253a"
         d="m -724.35845,1057.3399 c 22.9249,12.1067 17.979,27.181 19.286,43.932 0.482,6.182 0.315,12.493 0.337,18.695 0.064,18.565 -0.263,39.145 -13.078,54.026 -0.3407,0.3993 -0.691,0.79 -1.051,1.172 -0.36,0.382 -0.729,0.755 -1.107,1.119 -0.3787,0.3633 -0.766,0.7173 -1.162,1.062 -0.396,0.3447 -0.8,0.6793 -1.212,1.004 -0.4127,0.3247 -0.833,0.639 -1.261,0.943 -0.428,0.304 -0.863,0.597 -1.305,0.879 -0.4427,0.2827 -0.892,0.554 -1.348,0.814 -0.456,0.26 -0.918,0.5087 -1.386,0.746 -0.468,0.2373 -0.9417,0.463 -1.421,0.677 -0.4793,0.214 -0.9637,0.416 -1.453,0.606 -0.4893,0.19 -0.9833,0.3677 -1.482,0.533 -0.498,0.1653 -0.9997,0.3183 -1.505,0.459 -0.506,0.1407 -1.015,0.2687 -1.527,0.384 -0.512,0.116 -1.0263,0.219 -1.543,0.309 -0.5173,0.09 -1.0363,0.167 -1.557,0.231 -0.5213,0.065 -1.0437,0.1163 -1.567,0.155 -15.549,1.112 -43.336,-14.383 -57.744,-21.536 -2.595,-1.288 -5.605,-4.168 -8.437,-4.578 -2.493,-0.361 -5.476,1.12 -7.786,1.981 -13.473,5.02 -24.194,4.767 -36.604,-2.85 -14.151,8.705 -44.845,24.756 -60.739,27.337 -0.9633,0.15 -1.932,0.2517 -2.906,0.305 -0.9733,0.054 -1.947,0.06 -2.921,0.017 -0.9747,-0.043 -1.9443,-0.1337 -2.909,-0.273 -0.9653,-0.1387 -1.9213,-0.325 -2.868,-0.559 -9.283,-2.293 -17.089,-8.824 -21.896,-16.987 -8.891,-15.099 -10.646,-43.989 -9.174,-61.194 0.676,-7.908 2.271,-16.437 4.287,-24.119 2.734,-10.413 7.664,-19.895 16.806,-25.896 0,0 -0.8099,-0.2892 -0.589,-0.34 19.2863,-4.4348 36.3558,-2.6011 52.2709,4.6586 21.4744,9.7955 33.0933,17.3662 50.8209,16.1154 36.746,-2.5925 82.8053,-31.9347 105.7302,-19.828 z"
         id="path3-9-6-8"
         sodipodi:nodetypes="zsccscscsssssssscsccssccccsccccccsssz" /><path
         fill="#ce3f47"
         d="m -788.91645,1139.3369 0.693,0.725 c -0.219,2.451 -0.663,5.763 -1.73,7.983 -1.633,-0.776 -2.995,-1.952 -4.408,-3.063 1.963,-1.806 3.757,-3.57 5.445,-5.645 z"
         id="path4-7-0-9" /><path
         fill="#fefefe"
         d="m -857.43945,1119.3469 c 0.333,-4.605 1.342,-9.061 3.381,-13.219 q 0.312,-0.647 0.656,-1.277 0.345,-0.63 0.721,-1.242 0.376,-0.612 0.782,-1.203 0.407,-0.592 0.843,-1.163 0.436,-0.571 0.901,-1.118 0.464,-0.548 0.956,-1.071 0.491,-0.524 1.009,-1.022 0.517,-0.497 1.059,-0.968 0.543,-0.471 1.108,-0.914 0.565,-0.443 1.152,-0.856 0.587,-0.414 1.195,-0.797 0.607,-0.383 1.233,-0.735 0.626,-0.352 1.269,-0.672 0.643,-0.319 1.301,-0.606 0.659,-0.287 1.331,-0.54 0.672,-0.253 1.356,-0.471 c 6.453,-2.097 14.014,-1.719 20.059,1.448 7.209,3.777 11.271,10.323 13.697,17.814 -0.14,-0.012 -0.281,-0.022 -0.421,-0.037 -12.812,-1.353 -19.456,-18.734 -37.326,-5.247 -5.636,4.254 -10.552,9.567 -16.262,13.896 z"
         id="path10-1-2-2" /><path
         fill="#fefefe"
         d="m -934.52545,1086.1799 c 1.8,-6.484 4.422,-12.162 10.563,-15.641 5.294,-2.999 10.254,-2.559 15.821,-0.838 7.781,2.405 41.823,16.078 45.122,22.078 0.266,0.484 0.17,0.42 -0.087,1.004 -0.426,0.969 -0.965,1.649 -1.604,2.481 -8.76,0.243 -15.705,-4.725 -23.29,-8.395 -8.279,-4.004 -22.089,-11.65 -31.321,-8.471 -4.999,1.755 -10.57,6.737 -15.204,7.782 z"
         id="path11-7-0-1" /><path
         fill="#fefefe"
         d="m -795.29045,1092.0619 c 7.358,-8.147 31.732,-18.48 42.993,-22.118 5.54,-1.791 12.884,-2.84 18.165,0.088 5.246,2.909 7.525,9.119 8.926,14.596 -0.207,-0.051 -0.415,-0.097 -0.621,-0.153 -5.087,-1.369 -8.715,-6.211 -14.18,-7.085 -7.626,-1.219 -30.995,10.904 -38.705,14.178 -3.15,1.337 -7.033,2.239 -9.932,3.935 -0.79,0.462 -1.323,1.234 -1.867,1.946 -1.285,-2.068 -3.062,-3.68 -4.779,-5.387 z"
         id="path12-6-9-7" /><path
         fill="url(#gradient_1)"
         d="m -787.70545,1132.7709 c 0.324,1.382 0.285,2.803 1.585,3.615 1.555,0.972 3.597,1.614 5.256,2.482 10.627,5.56 25.029,13.187 36.931,14.938 6.308,0.928 12.746,0.264 19.072,1.124 -0.724,2.148 -1.818,4.298 -3.014,6.225 -2.238,3.606 -5.528,7.43 -9.912,8.275 -3.326,0.641 -7.674,-0.442 -10.849,-1.476 -7.102,-2.312 -35.648,-15.836 -41.317,-19.909 1.067,-2.22 1.511,-5.532 1.73,-7.983 l -0.693,-0.725 c 0.105,-2.06 0.922,-4.449 1.211,-6.566 z"
         id="path13-9-0-4"
         style="fill:url(#linearGradient7)" /><path
         fill="#ce3f47"
         d="m -872.44845,1131.1939 c 2.116,5.793 4.121,10.828 9.26,14.642 -11.686,7.308 -43.871,25.521 -57.322,22.233 -4.76,-1.163 -8.396,-4.361 -10.724,-8.605 -1.757,-3.205 -2.968,-7.097 -3.43,-10.715 0.831,0.251 0.495,0.104 1.231,0.497 3.968,2.121 8.248,3.751 12.729,4.342 12.071,1.591 22.132,-2.951 32.699,-7.925 3.969,-1.869 8.204,-3.584 11.665,-6.335 3.497,-2.78 3.417,-3.942 3.892,-8.134 z"
         id="path14-5-6-6" /><path
         fill="#fd585c"
         d="m -857.43945,1119.3469 c 5.71,-4.329 10.626,-9.642 16.262,-13.896 17.87,-13.487 24.514,3.894 37.326,5.247 0.14,0.015 0.281,0.025 0.421,0.037 2.599,5.978 1.981,12.444 -0.311,18.408 -2.77,7.206 -8.275,13.315 -15.42,16.355 -6.654,2.831 -13.619,2.533 -20.224,-0.181 q -0.677,-0.282 -1.339,-0.598 -0.662,-0.316 -1.308,-0.664 -0.645,-0.349 -1.272,-0.729 -0.627,-0.381 -1.235,-0.792 -0.607,-0.412 -1.193,-0.853 -0.586,-0.441 -1.149,-0.912 -0.563,-0.47 -1.102,-0.968 -0.538,-0.497 -1.052,-1.021 -0.513,-0.525 -0.999,-1.074 -0.486,-0.549 -0.945,-1.122 -0.458,-0.573 -0.887,-1.168 -0.428,-0.595 -0.827,-1.211 -0.398,-0.616 -0.766,-1.251 -0.367,-0.635 -0.702,-1.287 -0.335,-0.653 -0.636,-1.321 -0.302,-0.669 -0.57,-1.352 c -1.259,-3.13 -1.697,-6.325 -2.072,-9.647 z"
         id="path17-1-8-2" /><path
         fill="#fd585c"
         d="m -790.51145,1097.4489 c 0.544,-0.712 1.077,-1.484 1.867,-1.946 2.899,-1.696 6.782,-2.598 9.932,-3.935 7.71,-3.274 31.079,-15.397 38.705,-14.178 5.465,0.874 9.093,5.716 14.18,7.085 0.206,0.056 0.414,0.102 0.621,0.153 6.733,19.226 5.769,51.044 0.345,70.302 -6.326,-0.86 -12.764,-0.196 -19.072,-1.124 -11.902,-1.751 -26.304,-9.378 -36.931,-14.938 -1.659,-0.868 -3.701,-1.51 -5.256,-2.482 -1.3,-0.812 -1.261,-2.233 -1.585,-3.615 0.177,-0.553 0.539,-1.828 1.172,-2.056 0.573,-0.206 2.392,0.126 3.123,0.161 6.509,0.304 14.925,0.6 20.191,-3.988 1.762,-1.536 3.286,-4.199 3.173,-6.61 -0.069,-1.482 -0.594,-2.675 -1.633,-3.716 -5.289,-5.295 -16.864,-4.253 -23.788,-4.237 -0.587,-5.452 -3.415,-9.748 -5.044,-14.876 z"
         id="path22-9-2-0" /><path
         fill="#fbe4c1"
         d="m -744.09945,1078.8329 c 1.845,-0.11 3.615,-0.193 5.233,0.874 1.198,0.79 1.935,2.039 2.23,3.425 q 0.063,0.3 0.094,0.605 0.031,0.305 0.029,0.612 0,0.307 -0.037,0.612 -0.035,0.304 -0.102,0.603 -0.067,0.3 -0.166,0.59 -0.099,0.29 -0.228,0.568 -0.13,0.279 -0.288,0.541 -0.158,0.263 -0.344,0.507 c -1.068,1.41 -2.147,1.858 -3.815,2.121 -3.772,-1.018 -6.869,-1.813 -8.956,-5.354 -0.04,-0.824 -0.215,-1.373 0.196,-2.128 1.21,-2.22 3.927,-2.81 6.154,-3.576 z"
         id="path23-1-6-7" /><path
         fill="#fd585c"
         d="m -919.32145,1078.3979 c 9.232,-3.179 23.042,4.467 31.321,8.471 7.585,3.67 14.53,8.638 23.29,8.395 -3.027,3.927 -5.382,7.484 -7.255,12.078 -0.367,1.529 -0.495,2.994 -1.811,4.009 -1.611,0.403 -3.061,0.393 -4.716,0.367 -5.39,0.02 -11.529,0.482 -15.531,4.616 -1.373,1.418 -2.112,3.234 -1.94,5.215 0.204,2.359 1.09,4.099 3.002,5.506 4.924,3.623 12.198,4.242 18.044,3.409 1.031,-0.146 2.066,-0.354 2.469,0.73 -0.475,4.192 -0.395,5.354 -3.892,8.134 -3.461,2.751 -7.696,4.466 -11.665,6.335 -10.567,4.974 -20.628,9.516 -32.699,7.925 -4.481,-0.591 -8.761,-2.221 -12.729,-4.342 -0.736,-0.393 -0.4,-0.246 -1.231,-0.497 -2.852,-11.665 -5.75,-32.557 -2.793,-44.179 0.039,-5.964 1.001,-12.725 2.932,-18.39 4.634,-1.045 10.205,-6.027 15.204,-7.782 z"
         id="path24-1-3-2" /><path
         fill="#fe7373"
         d="m -934.52545,1086.1799 c 4.634,-1.045 10.205,-6.027 15.204,-7.782 1.026,0.491 1.805,0.847 2.943,0.96 -1.252,0.483 -2.642,0.895 -3.254,2.213 -0.67,1.444 -0.487,3.291 -0.449,4.838 -0.92,-1.103 -1.174,-1.833 -2.714,-1.978 -3.257,-0.305 -7.277,0.294 -9.706,2.637 -4.801,4.63 -1.552,13.777 -4.956,17.502 0.039,-5.964 1.001,-12.725 2.932,-18.39 z"
         id="path25-2-5-6" /><path
         fill="#fbe4c1"
         d="m -916.37845,1079.3579 c 1.966,-0.098 4.146,-0.319 5.814,0.968 0.8,0.617 1.042,1.349 1.384,2.253 -0.018,1.64 -0.267,2.857 -1.457,4.077 -1.262,1.294 -2.752,1.823 -4.543,1.76 -2.111,-0.074 -3.364,-0.586 -4.901,-2.007 -0.038,-1.547 -0.221,-3.394 0.449,-4.838 0.612,-1.318 2.002,-1.73 3.254,-2.213 z"
         id="path26-8-7-7" /></g><path
       fill="#dfe5ea"
       fill-opacity="0.6"
       d="m -604.28585,948.6605 c 2.989,0.045 5.466,2.621 8.164,3.804 0.758,2.268 1.517,4.518 2.102,6.838 0.146,1.411 0.509,2.812 -0.264,4.085 -0.765,-0.062 -1.481,-0.149 -2.237,-0.27 -0.918,1.187 -1.123,2.202 -0.93,3.706 0.248,1.928 1.153,3.751 2.365,5.255 l 0.492,0.117 c -1.592,3.603 -3.209,7.323 -5.398,10.61197 -1.558,-2.002 -2.942,-6.03197 -2.71,-8.60497 0.155,-1.726 0.806,-3.13 2.217,-4.179 0.253,-0.188 0.515,-0.366 0.773,-0.549 -0.603,-1.025 -2.095,-3.111 -2.116,-4.242 -0.027,-1.433 1.053,-3.95 1.843,-5.123 1.064,-0.02 1.78,0.019 2.71,-0.54 l -0.109,-0.964 c -1.773,-2.067 -4.885,-4.249 -7.373,-5.371 -3.45,-1.556 -7.82,2.553 -10.934,3.838 -0.133,0.055 -0.268,0.107 -0.402,0.16 2.667,-3.601 7.707,-6.799 11.807,-8.572 z"
       id="path31-10" /><path
       fill="#010215"
       d="m -783.86985,976.1575 c 2.118,-4.224 3.349,-11.35 6.933,-14.452 l 0.657,0.113 c 0.072,0.127 0.158,0.246 0.218,0.379 1.208,2.719 0.447,6.842 -0.424,9.574 l -0.604,-0.245 c 0.169,-1.297 0.931,-3.538 0.458,-4.616 -1.526,0.032 -1.653,0.06 -2.897,0.941 -0.808,1.458 -0.813,2.458 -0.8,4.064 l -2.395,4.042 z"
       id="path32-8" /><path
       fill="#081c39"
       d="m -831.32685,967.0885 c -11.84,-2.887 -22.298,-6.083 -28.953,-17.217 -2.767,-4.63 -4.22,-10.18 -2.868,-15.521 1.099,-4.34 4.043,-7.619 7.861,-9.83 13.969,-8.089 36.173,-6.722 51.111,-2.407 4.864,1.404 11.097,3.429 13.604,8.214 1.288,2.457 1.009,5.211 0.084,7.744 -4.109,11.25 -17.078,22.263 -27.846,26.891 -2.708,1.164 -5.41,1.892 -8.286,2.506 0.566,5.982 3.077,11.415 7.695,15.35897 4.708,4.02 11.163,6.38 17.371,5.793 7.265,-0.687 10.979,-4.008 15.271,-9.42997 0.639,-0.807 1.624,-2.505 2.413,-3.033 l 1.146,-0.2 2.395,-4.042 c -0.013,-1.606 -0.01,-2.606 0.8,-4.064 1.244,-0.881 1.371,-0.909 2.897,-0.941 0.473,1.078 -0.289,3.319 -0.458,4.616 l 0.604,0.245 c -1.673,7.854 -5.328,14.92397 -12.237,19.41797 -2.565,1.667 -5.196,2.498 -8.091,3.368 -2.71,10.83903 -5.956,19.33703 -15.973,25.29303 q -0.645,0.385 -1.309,0.738 -0.664,0.353 -1.345,0.672 -0.68,0.319 -1.376,0.603 -0.696,0.285 -1.405,0.534 -0.709,0.249 -1.43,0.463 -0.721,0.213 -1.451,0.39 -0.731,0.177 -1.469,0.318 -0.739,0.14 -1.483,0.243 -0.745,0.103 -1.494,0.169 -0.749,0.065 -1.5,0.093 -0.751,0.028 -1.503,0.019 -0.751,-0.01 -1.501,-0.057 -0.751,-0.047 -1.498,-0.132 -0.746,-0.085 -1.488,-0.207 -0.742,-0.122 -1.477,-0.281 -0.734,-0.159 -1.46,-0.355 c -8.03,-2.164 -14.744,-8.121 -18.668,-15.354 -2.342,-4.315 -3.42,-8.62103 -4.302,-13.42303 -8.565,-2.293 -15.941,-7.623 -20.367,-15.36397 -2.396,-4.19 -6.062,-13.232 -4.517,-17.963 0.373,-1.143 0.579,-1.205 1.588,-1.674 1.14,0.29 1.593,0.344 2.281,1.417 0.989,1.543 1.395,4.436 2.1,6.268 2.958,7.694 8.745,15.43497 16.498,18.70097 5.627,2.371 12.93,2.949 18.631,0.513 4.646,-1.985 7.872,-5.832 9.692,-10.47797 1.098,-2.803 1.538,-5.626 1.713,-8.615 z m -14.944,-37.268 c -2.184,0.697 -4.595,1.39 -5.73,3.575 -0.06,0.755 -0.237,0.931 0.277,1.586 1.195,1.523 3.345,1.812 5.164,1.884 3.571,0.144 6.878,-1.376 10.118,-2.702 2.699,-0.785 5.402,-1.647 8.128,-2.322 -5.885,-1.219 -11.912,-2.458 -17.957,-2.021 z"
       id="path33-0" /><path
       fill="#f45a41"
       d="m -832.10485,1003.8385 c 3.804,-0.28 7.441,0.114 11.021,1.472 2.654,1.008 6.711,3.167 7.547,6.168 0.35,1.259 0.092,2.335 -0.688,3.364 -1.531,2.019 -6.296,3.283 -8.665,3.862 -4.15,0.502 -8.263,0.54 -12.29,-0.769 -2.485,-0.809 -5.922,-2.51 -6.98,-5.113 -0.475,-1.167 -0.593,-2.277 0.01,-3.434 1.602,-3.091 6.874,-4.711 10.048,-5.55 z"
       id="path34-8" /></g></svg>
