<?xml version="1.0" encoding="UTF-8" standalone="no"?>
<svg
   width="1024"
   height="1024"
   version="1.1"
   id="svg81"
   sodipodi:docname="DALL·E-2024-12-27-10.34 (2).svg"
   inkscape:version="1.3.2 (091e20e, 2023-11-25, custom)"
   xmlns:inkscape="http://www.inkscape.org/namespaces/inkscape"
   xmlns:sodipodi="http://sodipodi.sourceforge.net/DTD/sodipodi-0.dtd"
   xmlns:xlink="http://www.w3.org/1999/xlink"
   xmlns="http://www.w3.org/2000/svg"
   xmlns:svg="http://www.w3.org/2000/svg">
  <sodipodi:namedview
     id="namedview81"
     pagecolor="#ffffff"
     bordercolor="#666666"
     borderopacity="1.0"
     inkscape:showpageshadow="2"
     inkscape:pageopacity="0.0"
     inkscape:pagecheckerboard="0"
     inkscape:deskcolor="#d1d1d1"
     inkscape:zoom="0.22442354"
     inkscape:cx="338.6454"
     inkscape:cy="463.4095"
     inkscape:window-width="1280"
     inkscape:window-height="650"
     inkscape:window-x="-6"
     inkscape:window-y="-6"
     inkscape:window-maximized="1"
     inkscape:current-layer="svg81" />
  <path
     fill="#FBF7EE"
     d="M -4.6227691e-6,4.455861 H 1024 V 1028.4559 H -4.6227691e-6 Z"
     id="path1"
     style="fill:url(#radialGradient82)" />
  <path
     fill="#030729"
     d="m 326.5891,382.04887 c 0.93306,0.13707 2.02604,0.24048 2.9086,0.56994 1.8517,0.69138 3.11182,1.97674 3.86692,3.76952 2.27615,5.4084 2.69338,21.04801 -0.0998,26.38066 -1.31783,2.51903 -2.89417,2.90981 -5.43845,3.66131 -1.2505,-0.29098 -2.64288,-0.5519 -3.78516,-1.15551 -1.85169,-0.97875 -2.78957,-2.7559 -3.38716,-4.66651 -1.73506,-5.54547 -2.28576,-20.47447 0.73828,-25.35862 1.35029,-2.18116 2.87253,-2.58877 5.19677,-3.20079 z"
     id="path2"
     style="stroke-width:1.2024" />
  <path
     fill="#030729"
     d="m 301.5395,520.8335 c 0.6553,0.14669 1.16031,0.24048 1.8072,0.48216 1.7014,0.63487 2.90741,1.88056 3.59999,3.53746 1.94308,4.6557 2.08015,28.89969 -0.22725,33.39547 -1.11463,2.17033 -3.74668,2.85329 -5.87253,3.51702 -0.66492,-0.0409 -1.2024,-0.14429 -1.82764,-0.38116 -1.97194,-0.7467 -2.85691,-1.59439 -3.63125,-3.56272 -1.70741,-4.33705 -1.89859,-29.74978 0.12625,-33.47121 1.1531,-2.11743 3.9078,-2.86652 6.02523,-3.51702 z"
     id="path3"
     style="stroke-width:1.2024" />
  <path
     fill="#030729"
     d="m 281.17204,391.54061 c 0.87775,-0.0649 1.75069,-0.13707 2.63205,-0.12985 2.27615,0.0156 3.96672,0.54228 5.55149,2.30379 3.47253,3.85971 2.35309,25.8456 1.91301,31.67002 -0.33787,4.47774 -0.78276,6.9607 -4.23966,9.9198 -1.08937,0.26092 -2.19318,0.57716 -3.32463,0.52064 -1.83126,-0.0914 -3.22244,-0.75751 -4.42364,-2.13065 -3.67693,-4.20359 -2.65489,-30.16582 -1.67734,-36.25477 0.46292,-2.88215 1.22765,-4.16752 3.56872,-5.89898 z"
     id="path4"
     style="stroke-width:1.2024" />
  <path
     fill="#030729"
     d="m 282.56442,546.05264 c 2.89538,0.18637 4.68215,0.38717 6.72382,2.58276 1.7543,4.22523 1.98637,39.69604 0.53146,44.33129 -0.75511,2.40841 -3.49658,3.48936 -5.55629,4.47894 -1.01242,-0.0337 -2.21001,0 -3.19117,-0.24168 -1.48256,-0.36553 -2.62123,-1.57996 -3.28015,-2.91943 -1.66051,-3.37875 -1.7531,-40.40425 -0.23567,-43.87318 1.07976,-2.46732 2.69939,-3.26451 5.008,-4.3587 z"
     id="path5"
     style="stroke-width:1.2024" />
  <path
     fill="#030729"
     d="m 302.43769,390.47048 c 1.45611,-0.23206 2.92905,-0.47615 4.40439,-0.28136 1.98156,0.26212 3.59157,1.36833 4.69898,3.01321 1.82765,2.71502 2.04649,39.88842 0.89338,44.11967 -0.68777,2.52504 -2.3555,3.46051 -4.42603,4.7603 q -1.04489,0.0649 -2.09097,0.0649 c -2.17394,-0.0192 -4.29618,-0.69859 -5.74988,-2.38556 -0.9018,-1.04729 -1.43326,-2.28456 -1.69298,-3.63245 -1.20481,-6.25248 -0.98236,-35.02231 -0.11784,-40.89603 0.36433,-2.47695 2.19078,-3.40761 4.08095,-4.76271 z"
     id="path6"
     style="stroke-width:1.2024" />
  <path
     fill="#030729"
     d="m 738.76225,412.04033 c 3.62884,0.86333 4.66531,2.46973 6.713,5.46732 l 0.1984,37.20466 c 0.0288,6.69978 0.54589,13.81919 -0.28858,20.45524 -0.21643,1.72424 -0.6012,3.33425 -1.806,4.65208 -1.25411,1.37074 -3.28135,1.35751 -5.0068,1.51984 -1.14468,-0.18277 -2.48897,-0.30662 -3.57594,-0.6998 -1.43326,-0.52064 -2.33145,-1.4032 -2.87253,-2.81963 -1.96593,-5.14748 -1.96833,-58.17573 0.2501,-62.00297 1.44649,-2.49858 3.80439,-3.0084 6.38835,-3.77674 z"
     id="path7"
     style="stroke-width:1.2024" />
  <path
     fill="#030729"
     d="m 755.60547,414.46197 q 2.20881,-0.32104 4.43926,-0.22004 c 1.98036,0.101 3.08656,0.78156 4.43325,2.24488 1.46212,4.1062 1.97915,65.87229 1.18918,71.64261 -0.42686,3.1058 -2.17154,4.45609 -4.58115,6.15028 -0.97034,0.0505 -1.97554,0.10821 -2.94227,-0.007 -1.98156,-0.23567 -4.50299,-1.36472 -5.5575,-3.1587 -2.22323,-3.78155 -2.14868,-64.59775 -1.02925,-71.62217 0.40761,-2.55029 2.12705,-3.57714 4.04848,-5.02964 z"
     id="path8"
     style="stroke-width:1.2024" />
  <path
     fill="#030729"
     d="m 665.16694,386.78272 c 9.82722,-0.48457 19.8348,-0.12505 29.68245,-0.17195 6.36551,-0.0301 13.36228,-0.74067 19.64722,0.17796 2.7559,0.4028 4.68696,1.1038 6.30058,3.49177 2.5527,3.77313 2.41682,13.8757 1.35871,18.26326 -0.44849,1.85891 -1.29017,3.17794 -3.02283,4.10138 -1.70621,0.90902 -4.56552,0.73828 -6.37032,0.20802 -5.97232,-1.7519 -2.41322,-8.10538 -4.72543,-11.69455 -0.53627,-0.83326 -1.7519,-0.68176 -2.6525,-0.81643 -2.21001,-0.0385 -4.18916,-0.002 -6.3631,0.40882 -2.03807,3.18756 0.98717,7.66891 -1.76632,10.83723 -1.19158,1.37074 -3.14668,2.13426 -4.93586,2.14989 -2.48415,0.0204 -5.11861,-1.16151 -6.77552,-3.01562 -2.14749,-2.40239 -1.4008,-7.26129 -1.3515,-10.29134 l -8.46249,0.0144 c 0.0685,4.11221 0.37755,8.54786 -2.37113,11.98312 -0.97395,1.21683 -2.12705,2.09939 -3.75029,2.1523 -2.11622,0.0697 -4.25169,-1.26252 -5.6609,-2.7511 -3.38716,-3.57473 -3.94628,-9.62641 -3.5591,-14.3302 0.37274,-4.53425 1.32143,-7.75548 4.77833,-10.71699 z"
     id="path9"
     style="stroke-width:1.2024" />
  <path
     fill="#030729"
     d="m 514,69.946676 c 0.88977,-0.08778 1.72664,-0.09018 2.62123,-0.0084 1.16993,0.105811 272.85585,103.720234 276.77929,106.660104 0.68897,0.51703 1.58235,1.21563 2.03205,1.96713 0.86573,1.44649 1.07014,3.16712 0.53988,4.80359 -0.67936,2.09338 -2.34348,2.82323 -4.17113,3.76952 -6.98594,3.61442 -15.06246,6.03365 -22.44039,8.83283 -14.85926,5.63926 -29.97584,11.33864 -44.26636,18.2861 l -0.0192,54.21743 c 0.0421,0.0276 0.0842,0.0553 0.12745,0.0818 0.40882,0.24409 0.82245,0.48337 1.22044,0.74669 5.32182,3.52183 13.65806,31.98625 14.99874,39.58662 0.36192,2.0501 1.22645,6.67212 -0.34028,8.4144 -2.03085,2.26051 -6.4617,2.67895 -9.29455,2.81482 -7.20959,0.34509 -32.31451,1.44168 -36.92571,-3.08175 -1.301,-1.27575 -1.49939,-2.74629 -1.43927,-4.509 0.10701,-3.09017 10.36348,-35.99626 11.9759,-39.09604 1.0016,-1.92625 2.73065,-3.16953 4.206,-4.68696 2.95189,-3.03726 1.56913,-42.71527 1.53546,-49.73127 -16.28651,6.58915 -32.21711,14.34824 -48.62145,20.56946 10e-4,18.42077 1.09779,37.70847 -1.17715,55.98375 -4.14949,33.33534 -29.17264,58.3104 -54.49037,77.90591 -22.62557,17.74863 -64.34164,41.01146 -91.39805,49.83227 -40.94417,-14.36153 -78.40975,-39.1466 -109.27897,-69.44468 -41.87599,-41.09924 -38.34935,-61.79134 -38.91568,-115.58793 -26.39268,-9.93904 -52.49559,-20.92416 -78.68747,-31.40789 -12.57951,-5.03445 -42.11527,-14.39995 -51.4976,-21.83679 -0.72144,-2.17995 -0.72745,-4.50058 0.33908,-6.57953 1.04849,-2.04168 2.43366,-2.89178 4.48255,-3.83085 9.59395,-4.39958 19.76746,-7.68574 29.63676,-11.41559 l 58.47993,-22.38869 Q 389.01531,117.7 448.28282,95.26922 C 470.18213,86.857232 491.83375,77.637228 514,69.946676 Z"
     id="path32"
     style="stroke-width:1.2024" />
  <path
     fill="#f2c855"
     d="m 717.297,282.94224 c 4.38997,3.21642 6.78755,17.42638 8.40598,22.70612 l -8.1186,0.13948 -8.57672,-0.12625 c 2.95069,-7.5162 5.06571,-15.29453 8.28934,-22.71935 z"
     id="path33"
     style="stroke-width:1.2024" />
  <path
     fill="#fbf7ee"
     d="m 517.40519,174.74787 c 2.45891,-0.083 4.88415,0.0361 7.33104,0.26332 3.28856,0.30541 9.15868,1.28176 11.04284,4.46211 0.91863,1.54989 0.68657,2.01522 0.28978,3.65409 -3.33666,3.82845 -9.23804,4.17955 -14.01157,4.71582 -4.03165,0.0902 -8.15227,0.0493 -12.09975,-0.87415 -2.87254,-0.67094 -7.33464,-1.87694 -8.81841,-4.73385 -0.47374,-0.91142 -0.095,-1.43446 0.13467,-2.36872 3.6553,-3.94267 11.02,-4.72303 16.1314,-5.11862 z"
     id="path34"
     style="stroke-width:1.2024" />
  <path
     fill="#0da6ba"
     d="m 716.90021,162.4377 c 16.40675,7.51981 34.04235,12.51939 50.9,18.96064 -17.9891,7.52703 -36.53132,13.15186 -54.08275,21.8404 -7.97552,-10.84805 -14.44083,-16.25044 -26.42756,-22.2444 q 15.03722,-8.90738 29.61031,-18.55664 z"
     id="path35"
     style="stroke-width:1.2024" />
  <path
     fill="#fbf7ee"
     d="m 381.9993,244.6987 c 10.87331,4.22523 21.55663,8.99515 32.42032,13.27931 q -0.59759,4.06531 -0.97394,8.15708 -0.37636,4.09177 -0.53026,8.19676 -0.15391,4.1062 -0.0854,8.2148 0.0685,4.1086 0.35951,8.20638 0.28978,4.09898 0.80321,8.17632 0.51222,4.07614 1.24448,8.11981 0.73226,4.04247 1.68336,8.04045 0.9511,3.99678 2.11623,7.93704 c 1.22404,4.13385 2.48175,8.35548 4.14948,12.33422 1.86372,4.45009 12.36789,21.67327 11.41198,24.7959 -9.31019,-7.40558 -17.98911,-15.91978 -26.08006,-24.62997 -28.0532,-30.20188 -27.9029,-51.88236 -26.51894,-90.8281 z"
     id="path36"
     style="stroke-width:1.2024" />
  <path
     fill="#0da6ba"
     d="m 686.22939,195.27765 c 5.79557,3.07814 9.8224,6.60719 13.58471,12.00596 -9.96789,6.6096 -29.15098,12.91498 -40.74453,17.87849 -21.66124,9.27171 -43.51847,17.98069 -65.28672,26.98908 -25.07004,10.3743 -50.28076,21.08649 -75.90632,29.99507 4.95509,-12.62761 36.79104,-26.60671 39.87039,-32.20268 23.78347,-11.30617 48.77055,-20.97828 73.30072,-30.56261 13.24924,-5.17633 42.85835,-15.04323 52.93687,-22.45482 z"
     id="path37"
     style="stroke-width:1.2024" />
  <path
     fill="#77d6d5"
     d="m 336.22513,195.7526 c 16.74703,5.15108 33.13334,12.90175 49.43669,19.39832 l 91.50024,36.03834 c 8.78834,3.42563 30.33295,13.84684 39.18502,13.66167 9.60598,-0.20201 30.99547,-11.33022 41.39984,-14.90736 -3.07935,5.59597 -34.9153,19.57507 -39.87039,32.20268 -6.20438,-0.0541 -51.37014,-19.0388 -60.44946,-22.68328 -18.48209,-7.41761 -37.10487,-14.50696 -55.53165,-22.05563 -27.51332,-11.27009 -54.88957,-22.9947 -82.6097,-33.73574 3.48456,-3.36551 8.59836,-5.01521 12.96668,-6.94506 1.67855,0.0241 2.48657,-0.202 3.97273,-0.97394 z"
     id="path38"
     style="stroke-width:1.2024" />
  <path
     fill="#0da6ba"
     d="m 629.64925,253.78163 c 6.03364,-2.804 12.15746,-5.3122 18.32698,-7.79756 -0.33547,45.18259 4.41762,64.05666 -30.60469,98.64611 -24.08047,23.78227 -59.54045,45.61785 -90.80045,58.12041 -3.56752,1.46813 -7.86731,3.89578 -11.77871,3.76472 1.80239,-4.37915 6.78274,-6.37753 10.68573,-8.6164 27.81993,-17.26767 53.37093,-36.73573 70.20333,-65.51758 10.99956,-18.80795 13.90095,-34.01951 14.55626,-55.35731 0.1491,-4.86611 0.71663,-11.13061 -0.51824,-15.82478 l 7.18434,-3.07695 -0.13587,33.13334 c -0.0481,5.19557 -0.73707,10.73142 -0.25611,15.88251 0.17916,1.92744 0.63126,4.11341 1.87815,5.65849 1.17234,1.4537 2.83526,1.96593 4.63165,1.90821 1.58356,-0.0517 2.80279,-0.57956 3.85008,-1.79278 1.65571,-1.91662 2.33266,-4.67373 2.64528,-7.12302 0.77555,-6.07813 0.26453,-12.66007 0.22605,-18.7863 q -0.16593,-16.61115 -0.0938,-33.22111 z"
     id="path39"
     style="stroke-width:1.2024" />
  <path
     fill="#fbf7ee"
     d="m 516.29538,84.673673 c 66.58531,26.599497 134.12894,50.861517 200.60483,77.764027 q -14.57309,9.64926 -29.61031,18.55664 c -8.32782,-3.61081 -16.87568,-4.86251 -25.7542,-6.34026 -7.03885,-5.81962 -53.81823,-20.83519 -65.68712,-25.39469 l -41.23271,-15.59032 c -8.3146,-3.19478 -16.50174,-6.91139 -24.9474,-9.73222 -3.87654,-1.29499 -9.1683,-3.13226 -13.26247,-2.79558 -12.4713,1.02444 -58.05669,20.72817 -72.51555,26.36743 -32.5093,12.6781 -65.61738,23.74379 -97.2345,38.61748 -4.40799,-1.97915 -10.24084,-6.31741 -15.12739,-4.19998 -1.44649,0.62765 -2.25089,1.66051 -2.79077,3.1058 -0.71663,1.92504 -0.0481,4.92623 1.01362,6.62041 1.45491,2.32304 4.04247,3.11783 6.47372,4.10019 -1.48616,0.77194 -2.29418,0.99799 -3.97273,0.97394 -4.36832,1.92985 -9.48212,3.57955 -12.96668,6.94506 -2.33987,-0.93186 -4.72303,-1.69658 -7.11701,-2.47574 -5.73665,-2.01041 -11.31699,-4.65449 -16.96346,-6.92703 l -31.95859,-12.67089 z"
     id="path40"
     style="stroke-width:1.2024" />
  <path
     fill="#86e3ee"
     d="m 312.16871,201.19586 c 5.89778,-3.73586 13.31057,-4.31541 20.08369,-4.46932 -4.36832,1.92985 -9.48212,3.57955 -12.96668,6.94506 -2.33987,-0.93186 -4.72303,-1.69658 -7.11701,-2.47574 z"
     id="path41"
     style="stroke-width:1.2024" />
  <path
     fill="#77d6d5"
     d="m 414.41962,257.97801 q 32.25799,12.927 64.67109,25.46202 c 9.52421,3.68776 18.91736,8.07051 28.56903,11.3735 2.84127,0.97275 7.43444,2.65009 10.41519,2.27134 9.74064,-1.23968 20.57427,-6.92583 29.65479,-10.55347 q 23.9951,-9.49535 47.82547,-19.39471 l 14.16427,-5.93745 c 1.23487,4.69417 0.66734,10.95867 0.51824,15.82478 -0.65531,21.3378 -3.5567,36.54936 -14.55626,55.35731 -16.8324,28.78185 -42.3834,48.24991 -70.20333,65.51758 -3.90299,2.23887 -8.88334,4.23725 -10.68573,8.6164 -7.16511,-4.07614 -15.79233,-6.35108 -23.3446,-9.84646 -20.09211,-9.29936 -40.15536,-21.95462 -56.84948,-36.51208 0.95591,-3.12263 -9.54826,-20.34581 -11.41198,-24.7959 -1.66773,-3.97874 -2.92544,-8.20037 -4.14948,-12.33422 q -1.16513,-3.94026 -2.11623,-7.93704 -0.9511,-3.99798 -1.68336,-8.04045 -0.73226,-4.04367 -1.24448,-8.11981 -0.51343,-4.07734 -0.80321,-8.17632 -0.29098,-4.09778 -0.35951,-8.20638 -0.0685,-4.1086 0.0854,-8.2148 0.1539,-4.10499 0.53026,-8.19676 0.37635,-4.09177 0.97394,-8.15708 z"
     id="path42"
     style="stroke-width:1.2024" />
  <path
     fill="#77d6d5"
     d="m 346.65595,186.12618 c 31.61712,-14.87369 64.7252,-25.93938 97.2345,-38.61748 14.45886,-5.63926 60.04425,-25.34299 72.51555,-26.36743 4.09417,-0.33668 9.38593,1.50059 13.26247,2.79558 8.44566,2.82083 16.6328,6.53744 24.9474,9.73222 l 41.23271,15.59032 c 11.86889,4.5595 58.64827,19.57507 65.68712,25.39469 -36.83674,0.083 -73.69631,-0.37395 -110.52823,0.11904 -6.12503,-7.89977 -14.49494,-11.35547 -24.22235,-12.53863 -11.01519,-1.34068 -26.12696,0.0601 -34.96941,7.44045 -3.18996,2.66212 -5.68855,6.87052 -6.02162,11.06329 -0.29699,3.74427 1.08938,7.09416 3.54708,9.87651 6.37753,7.21921 17.71136,9.75267 26.96623,10.04726 10.64485,0.33787 23.30612,-1.40681 31.54497,-8.81841 1.38757,-1.24809 2.55991,-2.74628 3.71421,-4.20479 q 33.34256,-0.28737 66.68632,-0.21403 c 16.6857,-0.0661 36.55056,-2.0044 52.67114,1.87214 -33.74296,14.38191 -68.128,27.32815 -102.11865,41.12088 -16.44041,6.67092 -36.36298,16.99112 -52.9044,21.52777 -21.21515,-7.05688 -41.99503,-16.41757 -62.83022,-24.57946 z"
     id="path43"
     style="stroke-width:1.2024" />
  <path
     fill="#030729"
     d="m 358.06914,337.08271 c 0.69258,-0.0521 1.38636,-0.0881 2.08135,-0.10822 4.44888,-0.11903 8.23524,0.57235 11.44565,3.94147 1.1531,1.20962 2.02965,2.90019 1.68937,4.61722 -0.3511,1.77354 -1.8024,3.25369 -3.18035,4.307 -4.77954,3.65168 -17.71376,1.74227 -24.37866,3.68776 -7.53544,2.19919 -14.65004,6.31741 -21.73579,9.64685 -29.39507,13.80837 -42.41346,17.60795 -74.89871,12.93663 -1.01723,24.56744 -0.2537,49.47395 -0.27535,74.08348 l 0.0962,131.07724 c 0.10461,15.8296 4.71581,30.89087 16.30214,42.14413 12.68893,12.3234 27.04318,13.628 43.85033,13.72419 8.4152,0.0273 16.82919,-0.0517 25.24199,-0.23687 l 100.24169,0.38116 15.39433,0.0397 133.22233,-1.04248 c 5.43365,0.36192 10.89735,0.24289 16.34062,0.22846 57.54429,-278.22031 54.98803,-73.09425 102.23166,-0.77675 9.40518,0.22004 18.84282,0.55671 28.2504,0.46412 15.25244,-0.1491 27.54338,-4.02082 38.3746,-15.14663 7.54987,-7.75548 11.85446,-17.14382 13.729,-27.74659 1.6028,-9.0661 0.88016,-18.79592 0.8513,-27.98947 L 782.83743,521.674 c 0.27094,-49.30081 0.29299,-98.60162 0.0661,-147.90243 -33.64676,16.57869 -67.13842,-8.84606 -98.86134,-17.96266 -4.91541,-1.30821 -10.1687,-1.20481 -14.9819,-2.62123 -2.39759,-0.70581 -5.53706,-2.27254 -6.48575,-4.79998 -0.73346,-1.9515 -0.58677,-4.69297 0.37395,-6.55549 2.38075,-4.61481 11.29655,-3.707 15.50615,-3.03005 28.82273,4.63886 56.29998,29.23155 86.43574,25.92255 11.51658,-1.26373 15.24763,-7.67492 22.24801,-8.78354 2.22684,-0.3535 5.10058,-0.0144 6.8152,1.57996 4.7098,4.37794 3.11061,19.94421 3.14067,25.9995 6.94867,0.20561 24.98347,-2.43727 29.99147,2.27373 2.38075,2.24008 1.75189,8.01641 1.79398,11.22802 0.68657,53.46111 0.0769,107.00159 0.1022,160.47112 l 0.0601,44.77257 c 0.01,10.3695 0.78877,21.58308 -1.17474,31.77102 -2.59599,13.46448 -9.8152,26.61032 -19.41516,36.32932 -19.68569,19.93098 -43.37899,19.93579 -69.45183,19.8384 -12.56428,-0.0898 -25.12897,-0.0898 -37.69405,0 -21.24204,-30.81569 -37.01263,20.40677 -101.90702,-0.47255 l -15.03361,0.12385 c 0.0409,5.69337 0.4473,11.74625 -1.26372,17.23641 -41.02646,131.78715 -8.30564,-3.49878 -58.09674,-20.18414 -4.86086,-1.6289 -75.31316,8.00142 -75.21697,2.8816 l -14.56828,0.0673 c -32.62104,84.57764 -50.46489,81.61996 -101.10382,-0.29098 -16.11216,-0.64448 -32.35658,-0.29579 -48.48798,-0.3523 -8.37592,-0.0301 -16.96467,0.37755 -25.26484,-0.82845 -3.18155,-0.47134 -6.3138,-1.16594 -9.39675,-2.08376 -3.08215,-0.91864 -6.08375,-2.0509 -9.00478,-3.39678 -0.98837,-0.47134 -1.96432,-0.96673 -2.92784,-1.48617 -0.96433,-0.51944 -1.91503,-1.06212 -2.8521,-1.62805 -0.93706,-0.56673 -1.8593,-1.1559 -2.76672,-1.76753 -0.90821,-0.61162 -1.8008,-1.24529 -2.67774,-1.90099 -0.87695,-0.65571 -1.73708,-1.33266 -2.58035,-2.03086 -0.84328,-0.69819 -1.66894,-1.41682 -2.47695,-2.1559 -0.80801,-0.73827 -1.59718,-1.49659 -2.36752,-2.27494 -0.77114,-0.77756 -1.52224,-1.57355 -2.2533,-2.38797 -0.73106,-0.81523 -1.44208,-1.64768 -2.13306,-2.49738 -0.69018,-0.8497 -1.35911,-1.71583 -2.00681,-2.59839 -0.64769,-0.88337 -1.27294,-1.78156 -1.87574,-2.69458 -0.60361,-0.91382 -1.18436,-1.84208 -1.74228,-2.78476 -0.55711,-0.94187 -1.09097,-1.89699 -1.6016,-2.86532 -0.51062,-0.96833 -0.99718,-1.94909 -1.45971,-2.94227 -0.46172,-0.99238 -0.899,-1.99559 -1.31182,-3.00961 -0.41282,-1.01402 -0.8004,-2.03767 -1.16272,-3.07093 -2.24247,-6.22122 -3.49057,-12.40155 -3.77073,-19.00153 -0.51823,-12.17791 -0.12264,-24.5013 -0.1046,-36.69364 l 0.0938,-65.40817 0.0421,-79.02654 c -0.0745,-16.92859 -0.52545,-33.91009 -0.25371,-50.83267 0.0397,-2.47815 -0.0709,-5.7078 0.98597,-7.9659 5.17393,-4.5078 22.53298,-2.62244 29.77022,-2.73306 0.12626,-6.25128 0.0806,-12.51939 0.11904,-18.77307 0.84288,-1.22765 1.68817,-2.57675 2.69578,-3.67093 1.0028,-1.08937 1.9515,-1.57033 3.43286,-1.46092 3.46651,0.25491 7.53904,1.71944 10.9743,2.49739 10.08092,2.28336 21.07567,3.47133 31.33455,1.63887 26.40952,-4.71701 46.52206,-24.0985 74.98408,-26.29649 z"
     id="path44"
     sodipodi:nodetypes="cccccccccccccccccccsscccccccccccccccccccccccsccccccccccsscccccccscscccccccccccccc"
     style="stroke-width:1.2024" />
  <defs
     id="defs69">
    <linearGradient
       id="linearGradient81"
       inkscape:collect="always">
      <stop
         style="stop-color:#ffe1cb;stop-opacity:1;"
         offset="0"
         id="stop81" />
      <stop
         style="stop-color:#ffab71;stop-opacity:1;"
         offset="1"
         id="stop82" />
    </linearGradient>
    <linearGradient
       id="gradient_0"
       gradientUnits="userSpaceOnUse"
       x1="428.31552"
       y1="694.32886"
       x2="375.28607"
       y2="693.07928">
      <stop
         offset="0"
         stop-color="#FBF6E3"
         id="stop68" />
      <stop
         offset="1"
         stop-color="#FFFEFF"
         id="stop69" />
    </linearGradient>
    <linearGradient
       id="gradient_0-6"
       gradientUnits="userSpaceOnUse"
       x1="429.21002"
       y1="589.09937"
       x2="448.32864"
       y2="591.66711"
       gradientTransform="matrix(1.4597595,0,0,1.4597595,-223.77298,-142.99019)">
      <stop
         offset="0"
         stop-color="#DACCC6"
         id="stop25" />
      <stop
         offset="1"
         stop-color="#EAE7DD"
         id="stop26" />
    </linearGradient>
    <linearGradient
       id="gradient_2"
       gradientUnits="userSpaceOnUse"
       x1="509.62747"
       y1="423.19971"
       x2="511.25043"
       y2="446.54404"
       gradientTransform="matrix(1.4597595,0,0,1.4597595,-223.77298,-142.99019)">
      <stop
         offset="0"
         stop-color="#038E92"
         id="stop65" />
      <stop
         offset="1"
         stop-color="#15AEAB"
         id="stop66" />
    </linearGradient>
    <linearGradient
       id="gradient_3"
       gradientUnits="userSpaceOnUse"
       x1="480.19659"
       y1="561.3075"
       x2="517.10297"
       y2="568.05377"
       gradientTransform="matrix(1.4597595,0,0,1.4597595,-223.77298,-142.99019)">
      <stop
         offset="0"
         stop-color="#209CA6"
         id="stop72" />
      <stop
         offset="1"
         stop-color="#30B5B7"
         id="stop73" />
    </linearGradient>
    <radialGradient
       inkscape:collect="always"
       xlink:href="#linearGradient81"
       id="radialGradient82"
       cx="512"
       cy="512"
       fx="512"
       fy="512"
       r="512"
       gradientUnits="userSpaceOnUse"
       gradientTransform="translate(-4.6227691e-6,4.455861)" />
  </defs>
  <path
     fill="#f2c855"
     d="m 218.66166,398.07566 q 3.86091,-0.0649 7.72182,-0.0697 c 2.00199,0.006 5.17994,-0.18998 6.97632,0.81883 1.78677,1.00281 1.2517,10.64846 1.24689,12.67691 l -0.018,118.26567 -0.0637,36.82952 c -0.0192,11.88813 -0.75271,24.41473 1.95149,36.06239 2.72584,11.73903 10.23002,22.99951 18.66967,31.41751 21.58188,21.52416 51.12365,17.75584 79.09148,17.62839 l -0.0132,23.11133 -39.30887,0.01 c -12.13342,0.005 -25.37184,1.12184 -37.18422,-1.88176 q -1.70741,-0.42565 -3.38235,-0.96552 -1.67495,-0.53988 -3.31021,-1.19038 -1.63526,-0.6517 -3.22243,-1.41042 -1.58717,-0.75991 -3.12023,-1.62324 -1.53306,-0.86452 -3.0048,-1.83005 -1.47174,-0.96432 -2.87494,-2.02725 -1.4032,-1.06171 -2.73185,-2.21482 -1.32985,-1.1531 -2.57795,-2.39398 -1.36592,-1.3527 -2.62484,-2.8064 -1.25891,-1.4525 -2.4048,-2.99758 -1.14468,-1.54388 -2.16913,-3.17193 -1.02444,-1.62685 -1.92263,-3.32704 -0.8982,-1.7002 -1.66413,-3.46292 -0.76592,-1.76392 -1.39598,-3.58074 -0.63006,-1.81683 -1.11944,-3.67574 -0.49058,-1.85891 -0.83807,-3.75029 c -1.7026,-9.53383 -1.16513,-19.58108 -1.12545,-29.23876 l 0.29459,-42.84513 z"
     id="path80"
     style="stroke-width:1.2024" />
  <path
     fill="#f2c855"
     d="m 797.4021,397.62837 17.12218,0.0914 0.22485,216.04485 c 0.0589,17.64042 -4.45489,33.42432 -17.30134,46.17698 -14.97829,14.87008 -31.29366,15.50495 -51.22705,15.4292 l -28.82875,-0.1491 -16.15545,-0.0469 -0.0361,-24.31494 c 30.4568,-0.41363 54.0046,4.42002 77.78808,-19.21796 q 1.53546,-1.50661 2.9567,-3.12143 1.42244,-1.61362 2.72344,-3.32704 1.30099,-1.71342 2.47333,-3.51582 1.17354,-1.8036 2.21242,-3.68656 1.03887,-1.88416 1.93947,-3.83806 0.8994,-1.9539 1.6545,-3.96792 0.75511,-2.01402 1.36232,-4.07734 0.60721,-2.06452 1.06292,-4.16632 c 2.47214,-11.4228 2.01523,-23.21474 2.09579,-34.83593 l 0.11423,-39.13212 z"
     id="path81"
     style="stroke-width:1.2024" />
  <path
     fill="#060d1e"
     d="m 603.00709,446.87824 c 10.60232,-0.45108 97.14699,-0.14734 101.12338,1.3313 1.42627,0.53135 2.11528,1.81157 2.6846,3.13556 0.65241,1.51816 0.83205,3.29323 0.87722,4.92524 1.00295,36.6823 0.17322,73.6945 0.3227,110.41475 0.16154,40.37112 1.23923,81.02542 0.17711,121.37317 -0.16738,6.3631 -0.62906,12.76414 -1.74295,19.03673 -3.34869,18.85133 -11.42543,37.24431 -18.54187,54.91469 l -16.46453,41.10539 c -3.51081,8.43155 -7.55435,19.1462 -13.85019,25.82752 -2.42904,2.57939 -4.48595,3.6961 -8.00396,3.88442 -6.22442,-2.21154 -10.29132,-10.7891 -13.03118,-16.43253 -7.3718,-15.18441 -13.1248,-30.65056 -19.23243,-46.35612 -8.34399,-21.46139 -17.25571,-43.20742 -21.46275,-65.95778 -2.38816,-12.92032 -0.99556,-248.43648 0.67441,-251.83772 1.41733,-2.88594 3.67705,-4.04063 6.47102,-5.36462 z"
     id="path14-8"
     style="stroke-width:1.45976" />
  <path
     fill="#f83933"
     d="m 648.82894,770.1639 c 1.7955,-0.65251 2.85393,-1.06562 4.71073,-0.29195 3.22608,1.34298 6.09596,5.04639 7.02438,8.33962 2.50495,8.88847 -6.12088,21.37379 -9.31328,29.59078 -3.95302,-6.99517 -11.55254,-17.84702 -11.30728,-26.01146 2.47282,-5.01136 3.88002,-8.72498 8.88545,-11.62699 z"
     id="path15-2"
     style="stroke-width:1.45976" />
  <path
     fill="#ffd0d9"
     d="m 648.82894,770.1639 -0.32408,1.26708 c -1.42472,5.67555 -1.27875,14.34651 -3.85376,19.15642 -2.14721,-1.28314 -2.902,-6.43316 -4.70761,-8.79651 2.47282,-5.01136 3.88002,-8.72498 8.88545,-11.62699 z"
     id="path16-5"
     style="stroke-width:1.45976" />
  <path
     fill="#eae8da"
     d="m 677.1074,669.18795 c 6.51208,3.5516 11.1804,7.73381 13.49265,15.07056 6.20982,19.71114 -14.25017,59.83554 -20.70678,80.00359 -5.92079,-5.8113 -10.32771,-9.41254 -18.75636,-10.74968 l 1.09774,-0.61455 c 11.13057,-21.68473 24.33128,-59.58155 24.87275,-83.70992 z"
     id="path17-1"
     style="stroke-width:1.45976" />
  <path
     fill="#fcf7ed"
     d="m 660.85308,465.06976 q 14.64723,-0.18393 29.29445,-0.0452 l 0.19853,9.71617 c -5.05818,0.95321 -12.56561,1.85535 -15.97425,6.11639 -1.59115,1.98965 -1.7196,4.73983 -1.90197,7.16741 -0.95468,12.71013 -0.11483,26.13115 -0.0837,38.91281 l 0.23065,76.58483 c 0.0311,7.31924 1.61587,25.63046 -0.7941,31.39943 -1.01307,2.42759 -3.01295,3.83479 -5.51498,4.46978 -1.78382,0.45107 -3.64939,0.7182 -5.46397,1.00577 -0.0487,-58.41373 -0.8817,-116.92529 0.0195,-175.32734 z"
     id="path18-4"
     style="stroke-width:1.45976" />
  <path
     fill="#fcf7ed"
     d="m 612.67945,464.41871 c 9.90457,-0.28757 19.88777,-0.006 29.80109,0.0279 l -0.0195,15.2282 c -4.33842,0.0539 -8.79789,-0.11963 -13.10126,0.4394 -1.96347,2.99251 -4.12235,5.98647 -4.71793,9.59354 -2.14741,12.98602 -0.46869,41.44842 -0.37954,55.87668 l 0.0739,107.49232 c -4.61712,1.53274 -8.4082,3.89171 -12.38459,6.60396 z"
     id="path19-2"
     style="stroke-width:1.45976" />
  <path
     fill="#ea9c21"
     d="m 642.46438,479.67466 0.0253,177.92426 c -6.02453,-3.17643 -11.12337,-5.73101 -18.14929,-4.52233 l -0.074,-107.49232 c -0.0895,-14.42827 -1.76785,-42.89066 0.37955,-55.87669 0.59557,-3.60706 2.75446,-6.60103 4.71793,-9.59353 4.30338,-0.55909 8.76285,-0.38538 13.10125,-0.43939 z"
     id="path20-8"
     style="stroke-width:1.45976" />
  <path
     fill="#f83933"
     d="m 690.34606,474.74067 c 1.17657,23.15325 0.53271,46.62765 0.62029,69.82614 0.1421,37.27643 0.45118,74.73969 -0.86416,111.99275 -7.41695,-3.22168 -13.93781,-5.77042 -21.95616,-2.59981 -2.53862,1.0043 -4.94566,2.26553 -7.31047,3.62019 v -17.18282 c 1.81457,-0.28758 3.68015,-0.55472 5.46397,-1.00579 2.50203,-0.63498 4.50191,-2.04219 5.51497,-4.46978 2.40998,-5.76897 0.82468,-24.08019 0.79411,-31.39942 l -0.23064,-76.58484 c -0.0312,-12.78164 -0.87002,-26.20268 0.0837,-38.9128 0.18297,-2.42758 0.31084,-5.17777 1.90197,-7.16742 3.40864,-4.26104 10.91609,-5.16319 15.97426,-6.1164 z"
     id="path21-8"
     style="stroke-width:1.45976" />
  <path
     fill="#fcf7ed"
     d="m 633.87224,765.28539 c -7.76008,-18.83383 -24.09478,-56.36862 -22.0379,-76.38485 0.71372,-6.94407 4.36897,-12.39044 9.89134,-16.57848 2.40121,-1.82177 5.42446,-3.22608 8.51623,-2.50933 6.44767,1.49626 11.30574,10.21247 14.90999,15.29828 1.73556,2.44947 3.04214,4.2406 6.21994,4.76903 6.19814,-1.33714 10.18775,-12.99478 15.19473,-17.27625 3.43044,-2.93265 6.09148,-3.72968 10.54083,-3.41584 -0.54147,24.12837 -13.74218,62.02519 -24.87275,83.70992 l -1.09774,0.61455 c -7.7091,1.90645 -12.2869,5.84197 -17.26467,11.77297 z"
     id="path22-5"
     style="stroke-width:1.45976" />
  <path
     fill="#060d1e"
     d="m 444.31952,446.36441 c 2.64373,0.22626 4.76914,0.46274 6.458,2.82463 1.81457,2.53997 2.21453,6.44337 2.31809,9.46217 0.34741,10.18036 -0.39549,20.51838 -0.32991,30.725 l 0.12267,105.90849 0.32563,65.49358 c 0.0953,15.58147 1.76475,32.73948 -1.69488,47.97354 q -2.80567,11.88535 -7.07244,23.32842 c -7.29588,19.76807 -16.1099,38.97849 -24.44668,58.32031 -5.07549,11.77734 -9.44465,24.24953 -15.46899,35.5539 -1.41751,2.65969 -3.09332,6.1018 -5.9019,7.48128 -1.91813,0.94008 -5.09884,1.22474 -7.052,0.30947 -6.87994,-3.22316 -11.46496,-19.87171 -14.097,-26.6377 -13.74645,-31.80379 -32.29708,-67.43068 -37.37413,-101.95982 -1.88172,-12.80356 -1.1532,-26.3078 -1.14444,-39.21791 l 0.0564,-59.57425 0.0351,-94.91065 c 0,-16.34493 -0.56055,-32.94677 0.19073,-49.26397 0.15961,-3.51217 0.0292,-9.92199 2.36345,-12.65903 1.6145,-1.89623 6.10317,-2.06994 8.41542,-2.25241 11.39645,-0.90067 23.19851,-0.21604 34.65761,-0.18686 q 29.82736,0.2073 59.63994,-0.71819 z"
     id="path23-0"
     style="stroke-width:1.45976" />
  <path
     fill="#fcf7ed"
     d="m 383.56434,781.33399 c 2.93412,-4.96465 6.01421,-8.88264 11.54669,-10.90442 -0.69484,4.05667 -1.92239,7.96007 -2.60712,12.01529 -0.7692,4.56614 -0.99985,9.55266 -2.1881,13.99472 -2.39691,-4.97195 -4.87851,-9.90739 -6.75147,-15.10559 z"
     id="path24-6"
     style="stroke-width:1.45976" />
  <path
     fill="#f83933"
     d="m 395.11103,770.42957 c 3.65388,1.07439 7.05804,2.69473 8.85355,6.26821 1.74431,3.46985 0.98096,7.94402 -0.32563,11.42409 -2.7677,7.37471 -6.23746,14.09105 -8.53959,21.68472 -1.73127,-4.42015 -3.48592,-8.79505 -4.78355,-13.36701 1.18825,-4.44206 1.4189,-9.42858 2.1881,-13.99472 0.68473,-4.05522 1.91228,-7.95862 2.60712,-12.01529 z"
     id="path25-4"
     style="stroke-width:1.45976" />
  <path
     fill="url(#gradient_0)"
     d="m 430.808,677.1889 c 5.14575,7.29441 5.56324,15.15522 4.11652,23.71088 -3.63188,21.46867 -13.07205,44.0497 -21.49778,64.13162 -4.78802,-6.49302 -8.76888,-9.71618 -16.57411,-12.01384 1.66257,-4.12381 4.17199,-7.87393 5.91494,-12.01236 5.02586,-11.93499 9.19356,-24.62613 12.44591,-37.15817 1.52399,-5.86678 2.02459,-20.10965 5.1004,-24.31522 1.9444,-2.65676 6.63451,-1.44224 9.44602,-2.086 0.35033,-0.0802 0.69932,-0.17068 1.0481,-0.25691 z"
     id="path26-0"
     style="fill:url(#gradient_0-6);stroke-width:1.45976" />
  <path
     fill="#fcf7ed"
     d="m 404.73669,659.6236 -0.28747,-130.99445 c -0.0331,-14.2633 -1.88173,-51.1558 1.2334,-62.94044 4.07721,-2.97355 15.09975,-1.64661 20.17971,-1.59699 -2.99971,1.65976 -6.78204,3.08303 -8.03588,6.51929 -1.68905,4.62744 -2.28598,168.46647 -1.19855,182.66265 -3.35882,2.57355 -8.07676,4.42745 -11.89121,6.34994 z"
     id="path27-2"
     style="stroke-width:1.45976" />
  <path
     fill="#fcf7ed"
     d="m 355.67708,464.12238 c 7.19526,0.0613 20.24687,-2.29328 26.3765,1.34736 3.0042,1.78382 3.62312,3.98369 4.69011,7.12947 -5.59223,-0.28028 -12.22247,-1.46123 -17.34194,1.25831 -1.17792,1.48895 -1.09481,3.02753 -1.20713,4.8537 -0.79411,12.92618 -0.12457,26.19831 -0.2102,39.16244 l -0.61174,65.28482 0.13234,43.69498 c 0.0545,8.38341 -0.3373,17.15802 0.64658,25.47864 0.0252,0.21313 0.0546,0.42626 0.0818,0.63938 -0.17322,0.0745 -0.34586,0.14461 -0.51674,0.22042 -0.2832,0.13002 -0.56347,0.26714 -0.84667,0.39706 -3.85961,1.78382 -7.10319,4.35739 -10.48108,6.90028 z"
     id="path28-9"
     style="stroke-width:1.45976" />
  <path
     fill="#f0bc31"
     d="m 425.86233,464.09172 c 3.28446,-0.0672 6.59385,-0.22626 9.87673,-0.12689 1.13862,65.58117 0.25556,131.46304 -0.0875,197.06026 -5.347,-3.99536 -12.13936,-7.7703 -19.02357,-7.75133 -1.08743,-14.19617 -0.4905,-178.0352 1.19855,-182.66264 1.25384,-3.43627 5.03617,-4.85953 8.03588,-6.51928 z"
     id="path29-6"
     style="stroke-width:1.45976" />
  <path
     fill="#f0bc31"
     d="m 368.23394,652.97148 c -0.0272,-0.21312 -0.0564,-0.42625 -0.0818,-0.63938 -0.98389,-8.32062 -0.59267,-17.09523 -0.64658,-25.47864 l -0.13234,-43.69498 0.61173,-65.28482 c 0.0837,-12.96413 -0.58391,-26.23626 0.21021,-39.16244 0.1129,-1.82617 0.0292,-3.36475 1.20712,-4.8537 5.11947,-2.71954 11.74971,-1.53859 17.34194,-1.25831 2.64666,21.54751 0.98974,44.25407 0.95625,65.98259 l -0.0623,120.6068 c -6.37468,-2.8042 -12.35385,-5.70182 -19.40311,-6.21712 z"
     id="path30-0"
     style="stroke-width:1.45976" />
  <path
     fill="#fcf7ed"
     d="m 377.00574,765.38026 c -8.37319,-20.14467 -22.42483,-54.2724 -20.50087,-75.82574 0.55023,-6.16749 3.13556,-12.07806 8.16143,-15.88803 2.71807,-2.05971 5.98656,-3.44357 9.44463,-2.84069 9.6169,1.67872 17.63546,16.50843 22.98246,23.79408 5.23916,-6.65212 8.05067,-14.65306 14.68382,-20.32132 2.6918,-2.29911 5.87991,-4.10775 9.53223,-3.7472 4.29754,0.42626 6.95857,3.46985 9.49856,6.63754 -0.34878,0.0862 -0.69777,0.17672 -1.0481,0.25691 -2.81151,0.64376 -7.50162,-0.57076 -9.44602,2.086 -3.07581,4.20557 -3.57641,18.44844 -5.1004,24.31522 -3.25235,12.53204 -7.42005,25.22318 -12.44591,37.15817 -1.74295,4.13843 -4.25237,7.88855 -5.91494,12.01236 -9.468,0.76929 -13.88096,5.70183 -19.84689,12.3627 z"
     id="path31-5"
     style="stroke-width:1.45976" />
  <path
     fill="#060d1e"
     d="m 517.24192,445.54987 c 13.83853,-0.81602 27.39521,1.45975 39.22511,9.01254 13.35835,8.52792 22.37384,22.4482 25.78227,37.77712 3.20135,14.39469 1.35913,42.85855 1.33714,58.61666 l -0.0311,112.34164 0.46284,116.88002 c -0.0312,15.14063 1.49031,36.72317 -1.18397,50.96605 -3.01138,16.03547 -12.67656,38.13331 -18.73592,53.95418 -7.16605,18.71704 -13.80933,38.06469 -22.29344,56.21826 q -6.12963,12.91304 -13.88971,24.9181 c -1.59542,1.66413 -3.18364,3.04944 -5.528,3.51802 -1.81012,0.36055 -3.29323,0.0292 -4.76466,-1.09336 -4.9661,-3.79101 -51.1895,-127.8005 -52.45948,-138.51951 -1.67132,-14.11441 -0.57806,-29.44919 -0.57068,-43.68477 l 0.54012,-95.90767 -0.0895,-129.95216 v -38.526 c 0.0195,-8.22719 -0.4175,-16.84124 0.69621,-24.99691 1.48604,-10.88835 6.32816,-22.4219 13.18747,-31.00383 9.59509,-12.00361 23.15042,-18.91704 38.31149,-20.51838 z"
     id="path59-4"
     style="stroke-width:1.45976" />
  <path
     fill="#31bdc3"
     d="m 516.51632,924.32912 c -1.82469,-3.72093 -6.72949,-11.56714 -5.94705,-15.53769 0.21896,-1.10795 1.02339,-1.38531 1.85681,-2.03636 2.73559,-0.64958 5.14283,0.06 7.85058,0.61456 -2.24355,5.44782 -2.53258,11.26058 -3.76034,16.95949 z"
     id="path60-1"
     style="stroke-width:1.45976" />
  <path
     fill="#109794"
     d="m 520.27666,907.36963 c 7.01717,0.69047 11.63429,-0.13721 18.17265,-2.62173 q -7.49732,18.64551 -15.34499,37.14651 c -2.10361,-5.5033 -5.41727,-11.87224 -6.588,-17.56529 1.22776,-5.69891 1.51679,-11.51167 3.76034,-16.95949 z"
     id="path61-4"
     style="stroke-width:1.45976" />
  <path
     fill="#eae8da"
     d="m 532.5766,530.17943 q 16.68661,-0.18102 33.36874,0.24669 v 29.33826 l -29.5936,0.0714 4.17043,-0.943 c 1.37957,-2.90784 0.5446,-23.00435 0.66136,-27.90769 -2.54153,0.0292 -6.44201,0.61164 -8.61412,-0.8058 z"
     id="path62-3"
     style="stroke-width:1.45976" />
  <path
     fill="#fcf7ed"
     d="m 480.60623,512.39516 q 0.19463,-2.96769 0.47745,-5.92807 c 1.35893,-13.84582 6.69152,-26.72237 17.72732,-35.62398 q 0.82758,-0.66419 1.68748,-1.28458 0.86126,-0.6204 1.75171,-1.19701 0.89045,-0.5766 1.80854,-1.10649 0.91966,-0.53136 1.86421,-1.01454 0.94438,-0.48318 1.91074,-0.91819 0.96791,-0.43501 1.95606,-0.82038 0.98838,-0.38538 1.9956,-0.72113 1.00568,-0.33574 2.02906,-0.61892 1.02184,-0.2832 2.0567,-0.5153 1.03507,-0.2321 2.08163,-0.4102 1.04519,-0.17964 2.09914,-0.30509 1.05258,-0.12689 2.11081,-0.19852 1.05841,-0.073 2.11957,-0.0921 1.06134,-0.0195 2.12113,0.0155 1.05977,0.0351 2.11664,0.12268 1.05824,0.089 2.10927,0.23065 c 10.55113,1.38676 19.15651,6.78495 25.67872,15.01801 l -2.78094,0.69775 c -15.48357,-4.51649 -28.79074,-6.89589 -43.49344,1.44662 -8.08123,4.58512 -13.53353,11.92041 -15.82379,20.90523 -1.00588,3.94865 -0.99712,8.12502 -0.85989,12.1744 z"
     id="path63-6"
     style="stroke-width:1.45976" />
  <path
     fill="#09525a"
     d="m 556.30801,477.02812 c 9.21691,10.07234 10.55542,22.40147 10.2372,35.41084 q -25.29025,0.14014 -50.58067,-0.0176 c -7.1863,-0.0279 -14.888,0.59851 -22.00578,-0.0979 3.27998,-0.66273 6.92645,-0.5226 10.27514,-0.66273 1.00433,-0.79265 1.99403,-1.54588 3.06258,-2.25241 0.29779,-0.19707 0.59851,-0.38685 0.89785,-0.57953 0,-0.61747 0.0272,-1.23495 0.0623,-1.85097 0.81746,-0.99118 1.60573,-1.99258 2.39109,-3.00856 0.44825,0.18977 0.89336,0.38683 1.34454,0.5693 5.17339,2.08454 9.69125,0.30217 14.50553,-1.78821 l 1.83931,0.85251 c 2.8728,-2.72391 5.87854,-5.3544 8.56002,-8.26663 5.37932,-5.84049 9.95848,-13.18746 16.62958,-17.61054 z"
     id="path64-4"
     style="stroke-width:1.45976" />
  <path
     fill="#109794"
     d="m 510.6481,503.96944 c 0.44823,0.18976 0.89336,0.38683 1.34452,0.5693 5.17339,2.08454 9.69125,0.30218 14.50554,-1.7882 l 1.83929,0.85249 c -6.62438,6.57914 -11.44452,8.09729 -20.65852,8.08124 l -3.44503,-0.0235 c 1.00433,-0.79264 1.99403,-1.54588 3.06258,-2.25241 0.29779,-0.19706 0.59851,-0.38682 0.89785,-0.57953 0,-0.61747 0.0272,-1.23495 0.0623,-1.85096 0.81746,-0.99119 1.60573,-1.99258 2.39109,-3.00856 z"
     id="path65-4"
     style="stroke-width:1.45976" />
  <path
     fill="url(#gradient_2)"
     d="m 493.34995,512.25213 c -0.13819,-4.04939 -0.14599,-8.22575 0.85989,-12.1744 2.29026,-8.98483 7.74256,-16.32013 15.82379,-20.90523 14.7027,-8.34252 28.00987,-5.96311 43.49344,-1.44662 -6.67109,4.42306 -11.25028,11.77004 -16.62959,17.61054 -2.68147,2.91222 -5.68722,5.54271 -8.56003,8.26661 l -1.83929,-0.85249 c -4.81429,2.09038 -9.33215,3.87274 -14.50554,1.7882 -0.45116,-0.18238 -0.89629,-0.37954 -1.34452,-0.5693 -0.78536,1.01599 -1.57363,2.01739 -2.39109,3.00856 -0.0351,0.61602 -0.0583,1.2335 -0.0623,1.85098 -0.29936,0.19269 -0.60005,0.38246 -0.89784,0.57952 -1.06855,0.70653 -2.05827,1.45976 -3.06259,2.25241 -3.34868,0.14014 -6.99516,0 -10.27514,0.66274 z"
     id="path66-3"
     style="fill:url(#gradient_2);stroke-width:1.45976" />
  <path
     fill="#fcf7ed"
     d="m 510.6481,503.96944 c -0.46849,-0.81309 -1.04812,-1.71668 -1.38094,-2.60567 -1.05103,-2.81003 -1.24663,-6.77475 0.34023,-9.40669 1.41439,-2.34291 3.89599,-3.63919 6.51343,-4.15011 3.30044,-0.64375 6.98934,-0.0351 9.77747,1.89623 1.88446,1.30504 3.26403,3.28738 3.45672,5.62591 0.24524,2.96477 -1.10514,5.19092 -2.85685,7.42143 -4.81429,2.09038 -9.33215,3.87274 -14.50554,1.7882 -0.45116,-0.18238 -0.89629,-0.37954 -1.34452,-0.5693 z"
     id="path67-6"
     style="stroke-width:1.45976" />
  <path
     fill="#fcf7ed"
     d="m 481.22965,529.8466 q 25.67561,-0.12133 51.34695,0.33283 c 2.17212,1.41742 6.0726,0.83498 8.61414,0.80578 -0.11688,4.90334 0.7182,24.99985 -0.66137,27.90768 l -4.17044,0.94301 -55.15127,0.0626 z"
     id="path68-4"
     style="stroke-width:1.45976" />
  <path
     fill="#eae8da"
     d="m 546.82677,801.25386 c 3.96763,-0.59704 7.70617,0.32407 10.94236,2.73705 5.2055,3.88296 7.64039,10.40809 8.2492,16.68213 1.34881,13.88816 -13.02105,46.20578 -17.98872,60.6501 -6.23454,5.42155 -16.36527,11.49122 -24.84062,10.99929 -0.45118,-0.0262 -0.90214,-0.0672 -1.35466,-0.10064 2.52247,-11.31314 7.27679,-22.09346 10.52039,-33.22122 4.00558,-13.74654 6.75868,-27.91061 9.9688,-41.86297 0.85678,-3.72532 3.46391,-9.93951 3.73834,-13.39329 0.0331,-0.4102 -0.10124,-0.81748 -0.15182,-1.22621 l 0.90798,-0.29487 z"
     id="path69-2"
     style="stroke-width:1.45976" />
  <path
     fill="#0c807c"
     d="m 536.50199,577.51504 q 14.5538,-0.28027 29.10604,0.1123 l 0.34899,212.18774 c -4.79093,-2.32977 -9.41409,-4.01726 -14.64722,-5.1004 0.24952,-14.17864 2.28889,-28.50911 3.56318,-42.6425 q 2.7021,-28.10913 3.35607,-56.34087 c 0.30947,-9.62858 0.59111,-19.30824 0.10701,-28.93537 -0.47589,-9.44901 -1.67718,-18.83965 -1.90782,-28.30474 -0.40872,-16.73176 0.51228,-33.55111 1.02028,-50.27558 -6.95275,-0.0364 -14.04581,0.21314 -20.946,-0.70068 z"
     id="path70-4"
     style="stroke-width:1.45976" />
  <path
     fill="#fcf7ed"
     d="m 481.80616,577.03771 12.10588,0.22772 q -0.80734,61.85001 -0.49787,123.70586 c 0.0195,27.5851 -0.59851,55.34972 0.19074,82.91436 -4.38959,1.33276 -7.77624,3.74427 -11.55545,6.26674 z"
     id="path71-1"
     style="stroke-width:1.45976" />
  <path
     fill="#fcf7ed"
     d="m 504.56966,893.82599 c -5.83457,-10.07673 -21.94603,-57.07368 -22.72983,-68.74156 -0.46576,-6.94553 1.05686,-14.96399 5.92215,-20.22788 2.56782,-2.77646 6.4755,-4.94275 10.31467,-5.05076 12.66194,-0.35765 13.8064,18.96373 21.19861,25.18231 1.23788,1.04079 2.55323,1.44371 4.12393,1.30064 8.1877,-0.73863 9.3775,-14.38885 13.84279,-19.80456 2.75468,-3.33993 5.31354,-4.79094 9.58479,-5.23032 v 0.96929 l -0.90797,0.29487 c 0.0506,0.40874 0.18491,0.816 0.15182,1.2262 -0.27444,3.45379 -2.88157,9.66797 -3.73835,13.39329 -3.21012,13.95238 -5.96321,28.11643 -9.9688,41.86299 -3.24358,11.12774 -7.99792,21.90807 -10.52039,33.22121 l -8.74104,-2.25971 z"
     id="path72-0"
     style="stroke-width:1.45976" />
  <path
     fill="url(#gradient_3)"
     d="m 493.91204,577.26543 20.89793,0.1489 0.0253,212.54537 c -7.03448,-3.7691 -13.11291,-5.82153 -21.22918,-6.07405 -0.78983,-27.56464 -0.17517,-55.32926 -0.19074,-82.91436 q -0.30947,-61.85585 0.49788,-123.70586 z"
     id="path73-5"
     style="fill:url(#gradient_3);stroke-width:1.45976" />
  <path
     fill="#109794"
     d="m 532.18246,614.14043 c 0.25693,-6.02591 -1.39396,-33.19786 0.91537,-36.53633 l 3.40416,-0.089 c 6.90019,0.9138 13.99325,0.66419 20.946,0.70069 -0.50801,16.72447 -1.42902,33.54381 -1.02028,50.27559 0.23064,9.46507 1.43192,18.8557 1.90781,28.30474 0.48464,9.6271 0.203,19.30677 -0.10701,28.93535 q -0.65399,28.23174 -3.3561,56.34088 c -1.27428,14.13339 -3.31365,28.46385 -3.56318,42.6425 -6.5076,-0.0292 -12.34079,2.59253 -18.28494,4.95296 q 0.0953,-26.6669 -0.74311,-53.32064 c -0.44086,-25.49908 -0.21897,-51.0624 -0.35756,-76.56878 -0.0798,-14.89101 -1.2875,-30.87683 0.25829,-45.63791 z"
     id="path74-0"
     style="stroke-width:1.45976" />
  <path
     fill="#fcf7ed"
     d="m 532.18246,614.14043 c 2.19255,-0.88025 4.01882,-1.85975 6.43462,-1.38533 3.08458,2.19256 3.57213,4.57635 4.16033,8.20822 2.02321,12.4722 0.54166,34.06351 0.49787,47.5254 -0.0623,19.82354 0.7941,39.85145 0.20281,59.63995 -0.0798,2.64362 -0.37079,5.00114 -1.28888,7.48126 -2.63787,2.01009 -5.90618,1.29773 -8.96739,0.87294 l -0.94009,-0.13572 c -0.44085,-25.49909 -0.21897,-51.06239 -0.35754,-76.56877 -0.0798,-14.89102 -1.28752,-30.87683 0.25827,-45.63793 z"
     id="path75-9"
     style="stroke-width:1.45976" />
</svg>
