<svg xmlns="http://www.w3.org/2000/svg" width="500" height="500" xmlns:v="https://vecta.io/nano"><style><![CDATA[.B{fill:#e68e4d}.C{fill:#1e1f1e}.D{fill:#ebac6f}.E{fill:#020101}.F{fill:#121112}.G{fill:#40321f}.H{fill:#aaa9aa}.I{fill:#c26235}.J{fill:#883c1b}.K{fill:#f0bb8f}.L{fill:#ebca8b}.M{fill:#838282}.N{fill:#c94f25}.O{fill:#57190e}.P{fill:#9b8060}.Q{fill:#b27d33}.R{fill:#e77d5b}.S{fill:#fefefe}]]></style><defs><linearGradient id="A" x1="96.577" y1="249.998" x2="149.216" y2="27.147" href="#B"><stop offset="0" stop-color="#4b3e26"/><stop offset="1" stop-color="#a48c6f"/></linearGradient><linearGradient id="B" gradientUnits="userSpaceOnUse"/></defs><path fill="url(#A)" transform="matrix(2 0 0 2 -.000061 0)" d="M0 0h250v250h-53.68-1.449-32.245-7.926-57.682-11.523-7.018-10.023-18.756-2.043H0V0zm0 0v250h47.655 2.043c1.998-4.696 4.373-8.592 7.319-12.749l-.799-.244c-.551-.791-1.423-1.342-1.958-2.179-.418-.653-.598-1.412-.406-2.172.762-3.024 5.474-5.634 7.953-7.133-7.795-3.243-13.19-8.068-18.532-14.525-2.632-3.345-7.009-9.828-8.153-13.967-4.254-6.198-6.452-27.562-5.421-35.362.127-9.944.735-20.007 1.345-29.934-.036-2.01.212-4.089.361-6.093.307 1.227.573 2.42.729 3.679l-.047-.754.374-.002-.187.064.177-.278.117.306c.252-.286 4.982-29.124 5.673-32.124 1.611-6.985 4.55-13.819 7.409-20.365q.609-2.419 1.386-4.789.777-2.37 1.716-4.681.94-2.311 2.038-4.55 1.099-2.239 2.35-4.397 1.252-2.158 2.651-4.223 1.399-2.065 2.939-4.028 1.54-1.963 3.212-3.813 1.673-1.851 3.47-3.58c16.811-16.392 37.098-22.877 60.22-22.586 3.947-.021 8.406.488 12.244 1.373 4.191.967 16.864 5.708 19.855 8.62l1.167.546.328.261c.482.294 1.172.608 1.569.991 6.226 3.768 11.366 8.052 16.446 13.213 1.563 1.588 2.98 3.425 4.603 4.933 14.469 20.633 22.125 48.897 25.026 73.756.988 8.467 1.34 17.067 1.681 25.583.422 10.534.974 21.525-.874 31.961-.966 5.453-2.7 10.859-4.856 15.952-.718 1.695-3.208 6.149-3.193 7.699-3.107 6.395-9.071 12.092-14.461 16.654-1.769 1.496-3.786 2.879-5.425 4.492 1.727 1.99 7.224 6.461 7.003 9.028-.014.164-.042.324-.075.486-.49.213-1.095.57-1.621.636.689 2.607 7.883 12.172 9.819 14.294h1.449H250V0H0z"/><path d="M318.458 60.644c.964.588 2.344 1.217 3.138 1.982-.866.72-.932 1.63-1.256 2.69-1.072-1.183-1.438-3.154-1.882-4.672zm-2.99-1.615l2.334 1.092c-1.938.958-.772 1.694-1.96 3.112l-1.188-.471c-.226-1.536.896-2.083.814-3.734z" class="P"/><path d="M115.168 474.416l-1.73-.684-.252-.79c1.164-.658 2.68-.514 3.97-.136 1.234.364 2.514.942 3.513 1.762 2.587 1.366 5.135 2.79 7.905 3.756-1.47-.076-3.162-.462-4.43.29l-.111.546c-1.525-.584-3.059-1.612-4.501-2.402l-4.365-2.342z" class="F"/><path d="M135.49 481.218c2.72.74 5.397.704 8.059 1.362 7.983 1.974 14.923 5.968 21.714 10.382 1.635 1.064 2.919.726 4.377 2.378-12.103-.9-24.358-7.244-34.149-14.122z" class="G"/><defs><linearGradient id="C" x1="29.564" y1="178.652" x2="33.508" y2="178.84" href="#B"><stop offset="0" stop-color="#110f15"/><stop offset="1" stop-color="#403622"/></linearGradient></defs><path fill="url(#C)" transform="matrix(2 0 0 2 -.000061 0)" d="M35.122 197.031c-4.254-6.198-6.452-27.562-5.421-35.362.01 1.087-.189 3.614.447 4.406.394-.489.469-.88.574-1.482-.072 7.21.757 15.184 2.343 22.241.527 2.345 1.83 4.827 2.167 7.143-.564-.212-.843-1.88-1.429-2.352.345 1.445 1.62 4.077 1.32 5.406z"/><path d="M62.093 263.47c-.072-4.02.424-8.178.722-12.186.613 2.454 1.147 4.84 1.458 7.358l-.094-1.508.748-.004-.375.128.354-.556.234.612c-.518 4.472.1 10.052-1.141 14.228-1.565 19.204-.851 38.482-2.554 57.644-.21 1.204-.361 1.986-1.148 2.964-1.272-1.584-.873-6.638-.894-8.812.253-19.888 1.47-40.014 2.691-59.868zm61.94 215.69l.111-.546c1.268-.752 2.96-.366 4.43-.29q3.487 1.378 6.916 2.894c9.791 6.878 22.046 13.222 34.149 14.122 7.714 2.188 17.087 4.092 25.126 3.656l-.728 1.004H170.99h-14.037l-.568-1.286c1.311-.49 2.429-1.57 3.52-2.432-12.523-5.024-24.036-10.604-35.872-17.122z" class="E"/><path d="M159.905 496.282c3.034 1.018 8.751 1.878 11.085 3.718h-14.037l-.568-1.286c1.311-.49 2.429-1.57 3.52-2.432z" class="D"/><path d="M347.34 450.392c1.036-.012 2.408.274 3.208.966.882.764.764 1.054.798 2.148-1.758 2.894-6.584 5.074-9.198 7.37-4.512 3.962-8.17 8.858-12.358 13.146-6.068 6.212-16.892 10.558-24.942 13.458-1.238.18-2.002.27-3.196-.216-.952-.968-.968-.954-1.016-2.306.102-.248.21-.494.332-.734 1.596-3.16 10.628-4.944 13.766-7.2 3.642-2.62 5.836-7.012 9.196-9.99 2.984-2.644 6.962-3.968 10.2-6.27 4.634-3.296 8.272-7.334 13.21-10.372z" class="G"/><path d="M251.27 39.042c7.894-.042 16.812.975 24.488 2.746 8.382 1.934 33.728 11.416 39.71 17.24-.608.087-1.08.361-1.616.642l-.024 1.164c-2.302 1.208-7.022-.684-9.906.14-.76.217-3.082-.997-3.84-1.38-4.76-2.4-10.324-2.538-15.454-3.841-7.622-1.935-15.32-4.728-22.768-7.228-1.77-.594-3.932-.78-5.594-1.524-1.04-.466-1.77-1.006-2.458-1.917-.056-.073-.108-.149-.162-.223l-5.364-.394c-.072-.87-.126-.917.352-1.634l-.612-1.018c1.76-.212 5.57-.197 6.852-1.342-.994-.961-2.304-1.139-3.604-1.433z" class="P"/><defs><linearGradient id="D" x1="125.694" y1="223.832" x2="158.096" y2="259.704" href="#B"><stop offset="0" stop-color="#2f2c17"/><stop offset="1" stop-color="#433426"/></linearGradient></defs><path fill="url(#D)" transform="matrix(2 0 0 2 -.000061 0)" d="M97.383 249.498c4.522-.215 9.156.069 13.697.014 6.927-.084 14.015.012 20.918-.337 2.892-.147 5.757-.598 8.645-.791 3.323-.221 6.704.14 9.985-.555 3.757-.796 7.298-2.626 10.881-3.978 1.983-.748 4.05-1.17 6.052-1.846 3.058-1.033 10.754-4.097 12.459-6.886 1.21-1.978.041-4.586-.475-6.624-.252-.997-.475-1.878.107-2.803.029-.046.062-.09.093-.136 1.727 1.99 7.224 6.461 7.003 9.028-.014.164-.042.324-.075.486-.49.213-1.095.57-1.621.636-3.359.629-6.723 3.434-9.719 5.031-4.659 2.484-9.462 4.453-13.789 7.561l1.082 1.702H154.7 97.018l.364-.502z"/><path d="M323.088 496.596l2.164 3.404H309.4c1.698-1.546 10.768-2.66 13.688-3.404z" class="H"/><path d="M115.168 474.416l4.365 2.342c1.441.79 2.975 1.818 4.501 2.402 11.836 6.518 23.349 12.098 35.872 17.122-1.091.862-2.209 1.942-3.52 2.432l.568 1.286h-20.045-37.512c3.995-9.392 8.746-17.184 14.639-25.498l1.133-.086z" class="B"/><path d="M136.908 500c3.348-2.792 15.133-1.644 19.477-1.286l.568 1.286h-20.045z" class="K"/><path d="M323.088 496.596c8.654-6.216 18.26-10.154 27.578-15.122 5.992-3.194 12.72-8.804 19.438-10.062 1.378 5.214 15.766 24.344 19.638 28.588h-64.49l-2.164-3.404z" class="D"/><path d="M91.303 152.338q1.219-4.838 2.772-9.579 1.553-4.741 3.433-9.362 1.88-4.621 4.077-9.1 2.197-4.479 4.701-8.794 2.504-4.315 5.302-8.445 2.798-4.13 5.878-8.055 3.079-3.925 6.425-7.626 3.345-3.701 6.94-7.16c33.623-32.783 74.196-45.754 120.44-45.173 1.3.294 2.61.472 3.604 1.433-1.282 1.145-5.092 1.13-6.852 1.342-16.174 2.132-32.854 3.994-48.528 8.652-31.097 9.241-64.354 33.957-83.987 59.612q-5.187 6.731-9.069 14.292c-2.759 5.268-9.993 25.804-14.427 27.895l-.709.07z" class="H"/><path d="M92.572 285.334c-1.837-26.45 2.857-49.094 10.368-74.174 1.888-6.304 3.186-12.787 5.229-19.037 10.14-31.024 24.953-53.277 46.255-77.747 18.4-21.136 46.027-33.317 73.733-35.198q3.044-.202 6.096-.255 3.05-.052 6.1.045 3.05.098 6.092.345 3.04.247 6.066.644 3.026.397 6.028.942 3.002.545 5.974 1.237 2.972.692 5.906 1.529 2.934.837 5.824 1.817 2.89.98 5.728 2.101 2.838 1.121 5.616 2.38 2.78 1.259 5.494 2.653 2.714 1.394 5.356 2.92 2.642 1.526 5.206 3.18 2.564 1.654 5.044 3.432 2.48 1.778 4.87 3.676 2.388 1.898 4.682 3.911c18.648 16.374 38.388 44.787 48.744 67.212 10.844 23.483 19.068 53.905 20.71 79.795 1.912 30.148-5.556 71.134-19.226 98.206-6.67 13.208-16.142 25.984-25.938 37.058-12.814 14.488-26.94 25.844-42.988 36.514-4.25 2.826-8.538 6.02-13.122 8.262-1.216-2.446 1.452-4.772 1.942-7.074.258-1.21-.006-1.916-.66-2.896-1.016-.168-1.97-.18-2.998-.168l-.514-.692c.164-1.91 1.48-2.21 1.962-3.844.24-.81-.062-1.06-.46-1.688l-1.762-.36c.23-1.242.758-1.716 1.542-2.674.392-2.568-2.07-8.59-2.758-11.322.396-1.242.656-2.234.608-3.562-1.122-1.33-2.592-.378-3.932-1.624l.026-2.342.188-.888c6.482-4.564 14.738-7.706 21.73-11.558 9.82-5.414 18.006-12.714 26.25-20.208 6.566-6.728 12.462-15.774 15.41-24.726.9-2.778 2.45-5.556 3.598-8.26 1.048-5.36 3.974-10.888 3.726-16.414.006-.612.214-1.178.388-1.76 1.076-.414 2.168-.666 3.286-.928.226-2.84 16.786-29.608 19.418-37.496 4.48-13.426-.216-26.242-6.306-38.334.192-.69.426-1.444.482-2.158.286-3.732-7.57-13.388-10.358-15.874-1.672-1.49-4.624-3.008-5.862-4.774-.61-.872-.506-.98-.316-1.974 5.736-2.788 15.352 7.32 19.6 7.096.09-.004.18-.018.27-.028.056-.346.042-.328.182-.72.482-1.334 1.658-3.128 2.962-3.726.962-.44 1.078-.358 1.988.022.638 1.534.434 1.948.07 3.506.856 2.422 1.546 4.042 3.966 5.22.582.282 1.206.462 1.832.62-3.43-16.144-9.488-35.153-16.588-50.02-12.064-25.262-38.162-60.191-61.776-75.573-20.366-13.266-44.028-19.626-68.21-19.635-5.636-.002-11.398.046-16.93 1.241-3.68.795-7.532 1.039-11.144 1.937-16.578 4.121-34.355 14.179-46.598 25.998-4.895 4.726-9.088 10.128-13.39 15.384-5.65 6.904-11.488 13.717-16.309 21.239-9.531 14.873-17.331 31.85-22.613 48.696-1.701 5.425-2.789 11.019-4.407 16.469-4.12 13.88-8.296 27.434-9.878 41.91-.677 6.188-.312 29.69-1.503 32.512z" class="F"/><path d="M350.316 316.484c.006-.612.214-1.178.388-1.76 1.076-.414 2.168-.666 3.286-.928 1.298 6.998-2.074 15.428-4.806 21.824-.696-1.092-1.636-1.874-2.594-2.722 1.048-5.36 3.974-10.888 3.726-16.414z" class="C"/><path d="M346.59 332.898c.958.848 1.898 1.63 2.594 2.722-3.68 10.156-10.494 18.238-14.82 27.95q-2.044 4.502-2.85 9.382c-.284 1.784-.264 4.16-.936 5.812-.626 1.532-2.078 3.13-3.074 4.464l.262-.362c.282-.406.3-.636.36-1.118.502-4.042 3.94-9.924 1.146-13.886-.314-.444-.72-.774-1.082-1.168-.224-.244-.416-.542-.608-.81 6.566-6.728 12.462-15.774 15.41-24.726.9-2.778 2.45-5.556 3.598-8.26z" class="E"/><path d="M373.22 287.576c1.552-.232 2.698.03 4.056.762 1.416.764 2.442 1.866 2.896 3.438 2.728 9.438-15.476 51.244-20.96 60.834-5.812 10.166-13.514 19.52-18.928 29.83l-.232-.466 1.448-2.724c1.588-2.998 13.998-20.532 13.794-22.174-.102-.816-.328-1.51-.114-2.35.804-3.144 3.918-8.958 5.272-12.294 3.19-7.86 5.814-16.328 9.414-23.964 1.74-3.688 4.11-7.12 6.286-10.562 1.754-2.772 4.87-12.288 3.99-15.37-.436-1.53-1.642-2.684-2.97-3.476-2.082-1.246-4.02-.532-6.19.004l2.238-1.488z" class="C"/><path d="M86.55 421.996c2.387-4.312 8.334-4.628 10.327-8.88 1.786-3.81-2.175-9.45-.031-12.664.818.316 1.557.678 2.317 1.114l.437-.376c.83-11.236-7.098-30.774-5.773-38.136.614-3.408 3.487-4.954 4.167-7.714.555-2.25-1.684-4.442-1.129-6.496 1.634 1.07 3.346 7.852 4.192 9.898 4.004 9.686 9.594 19.14 15.517 27.784q7.037 10.394 15.615 19.558c14.564 15.294 39.602 34.59 58.451 44.184 6.385 3.25 13.05 5.362 19.67 7.996 6.696 2.664 14.212 7.274 21.778 5.756 1.204-.242 1.528-.578 2.366-1.42.258-1.238.132-1.86-.392-3.006-3.026-2.256-6.488-4.454-9.086-7.19 5.416-.212 13.14 4.516 17.046 8.116.152.14.298.284.444.428-2.056 1.51-6.078 2.582-7.108 4.928 2.766 2.618 23.69-2.862 29.074-2.786 2.11.03 4.116.702 6.1 1.356 18.684-7.378 57.02-34.062 73.048-47.47q6.29-5.236 11.794-11.296c1.718-1.922 3.836-5.766 6.094-6.73.27.134.532.28.762.478 1.036.896 1.822 2.94 1.914 4.292.438 6.388-9.918 11.96-13.388 16.644-3.028 4.088-4.656 8.88-7.998 12.83-.644 2.882-.728 5.904-1.128 8.832-.72 5.262-2.376 9.642-4.456 14.492-5.41.79-10.748 3.258-15.916 5.004-10.374 3.502-20.592 6.866-30.788 10.886-23.046 9.086-41.08 14.486-66.392 11.86-6.95-.72-14.384-1.828-21.106-3.776-8.8-2.55-17.158-6.294-25.836-9.19-7.6-2.536-15.564-3.722-23.1-6.266-1.948-.658-5.331-1.808-6.218-3.826-.767-1.744 1.981-3.644 2.583-5.318-2.72-8.322-22.402-2.158-26.787-4.846-15.59-6.486-26.38-16.136-37.064-29.05z" class="G"/><defs><linearGradient id="E" x1="101.121" y1="221.054" x2="132.342" y2="41.374" href="#B"><stop offset="0"/><stop offset="1" stop-color="#4f4f4f"/></linearGradient></defs><path fill="url(#E)" transform="matrix(2 0 0 2 -.000061 0)" d="M46.286 142.667c.596-1.411.413-13.162.752-16.256.791-7.238 2.879-14.015 4.939-20.955.809-2.725 1.353-5.522 2.203-8.234 2.641-8.423 6.541-16.911 11.307-24.348 2.41-3.761 5.329-7.168 8.154-10.62 2.151-2.628 4.247-5.329 6.695-7.692 6.122-5.909 15.01-10.939 23.299-12.999 1.806-.449 3.732-.571 5.572-.968 2.766-.598 5.647-.622 8.465-.621 12.091.004 23.922 3.184 34.105 9.818 11.807 7.691 24.856 25.155 30.888 37.787 3.55 7.434 6.579 16.938 8.294 25.01-.313-.079-.625-.169-.916-.31-1.21-.589-1.555-1.399-1.983-2.61.182-.779.284-.986-.035-1.753-.455-.19-.513-.231-.994-.011-.652.299-1.24 1.196-1.481 1.863-.07.196-.063.187-.091.36-.045.005-.09.012-.135.014-2.124.112-6.932-4.942-9.8-3.548-.095.497-.147.551.158.987.619.883 2.095 1.642 2.931 2.387 1.394 1.243 5.322 6.071 5.179 7.937-.028.357-.145.734-.241 1.079-4.555-6.142-10.515-12.248-17.264-15.921l.502-1.01c-1.895-2.559-3.783-5.225-6.47-7.012-1.614-1.073-7.823-3.951-9.513-3.616-1.918.977-6.542.361-8.816.273-.875.229-1.844.59-2.732.707-1.699-1.167-4.962-1.437-7.021-1.992-2.116-.423-4.264-1.249-6.243-2.101l-.177.144c-1.043.825-2.326.822-3.599.966.696.212 1.426.1 2.142.053.301.746.039 3.21-.256 3.976-.463 1.2-2.72 2.258-3.877 2.729-.046.019-.094.034-.141.051-.585.557-.938 1.211-1.768 1.205l-.716-.413c-1.683-1.718-3.973-3.166-5.797-4.81-3.23-2.911-5.962-6.256-8.672-9.639-.678-3.34-4.33-7.566-5.927-10.878-.924-2.246-1.359-4.652-2.177-6.94.15-.578.574-1.181.861-1.708.015.055.024.112.044.166.222.592.433.707.956 1.004l.193-.224c-.541-2.79-1.436-9.276-3.961-11.047l-.3.064-.276 1.331c-.489 2.797-1.73 5.506-2.709 8.165-1.503 3.47-2.384 7.147-3.758 10.656.488 3.221-2.297 7.216-1.192 9.828-1.631 1.781-2.747 3.794-3.841 5.932-.676 1.228-3.441 3.916-3.157 5.169.032.144.065.177.136.286-1.297 1.449-9.288 11.318-9.708 12.572-1.457 1.1-2.878 2.417-4.423 3.37l-.865.804c-2.143 2.35-3.953 4.71-5.352 7.58-3.268 8.017-2.722 16.913.638 24.873 1.82 4.313 4.709 8.363 6.945 12.491 1.085 2.151 1.453 4.77 2.092 7.091 1.388 5.041 3.505 9.136 6.43 13.444 1.124 2.18 2.735 4.136 4.252 6.056 2.105 2.587 4.208 5.072 6.935 7.038 3.5 2.525 17.028 8.377 18.405 11.081.125 1.562.138 3.286.511 4.803-.409 2.361-.583 4.861-1.107 7.187-.113 1.293-.265 2.598-.333 3.894 1.015.613 2.145 1.189 3.086 1.905-.041.025-.082.052-.124.076-.892.51-1.715.215-2.561.811l.036.379.592.355-1.23.281-.056.349.663.393.056.433c-2.617-1.308-5.104-2.988-7.593-4.531-10.444-6.474-19.764-13.772-28.052-22.886-3.398-3.737-9.526-10.914-11.931-15.055-4.729-8.145-9.495-27.094-9.043-36.502z"/><path d="M322.436 130.389c1.116 1.494 2.384 3.139 3.154 4.84.544 1.205.468 1.709 0 2.856l-1.128.253c-1.198-.304-2.338-.361-3.212-1.259l.568.24c-.666-1.257.432-5.318.618-6.931zm-26.664 29.223c1.392-1.062 1.822-1.362 3.568-1.483l-.358.84c1.122 1.292 1.634 1.568 1.766 3.31-.49 1.238-1.01 2.624-2.3 3.239-1.17.558-2.506.476-3.662-.093-.506-.249-.95-.716-1.344-1.11l.7-.832.84-2.323.79-1.549z" class="M"/><path fill="#5f5f5f" d="M294.982 161.16c1.304.295 2.49.417 3.326 1.574l-.244.816c-1.26.648-2.61.203-3.922-.067l.84-2.323z"/><path d="M115.349 237.402c-.833-5.924 3.944-11.512 6.565-16.656 1.624-.134 2.707.758 4.138 1.496-4.286 4.7-7.907 9.42-10.704 15.16z" class="F"/><path d="M205.55 425.53c.102-2.314-.556-4.42-.74-6.702q-.478-6.564-.014-13.13c.146-2.188.324-2.734 1.946-4.148.25 3.124.276 6.572 1.022 9.606-.818 4.722-1.166 9.722-2.214 14.374z" class="C"/><path d="M312.458 132.894c1.05-.323 1.728-.748 2.798-.223 2.756 1.354 6.548 8.284 7.354 11.234.244.893.26 1.638-.012 2.537-1.012.432-1.314.564-2.402.074-1.25-.563-2.742-1.753-3.752-2.692-1.55-1.448-2.948-2.893-4.258-4.562 1.52-.664 3.284-1.212 4.342-2.544-.392-1.478-2.828-2.857-4.07-3.823zm-6.232-16.333c3.274-.053 6.382-.505 9.374-1.891l4.778 5.432c-2.482 3.234-.07 6.332-3.322 7.184-.998-.304-1.834-.431-2.414-1.405-.278-.47-.432-1.086-.59-1.609l-.278.422-.342-.716q-.17-.345-.352-.683c-1.512-2.824-3.652-5.805-6.854-6.734z" class="M"/><path d="M303.674 116.549l2.552.011c3.202.929 5.342 3.91 6.854 6.734q.182.338.352.683c-.552 1.181-.526 1.429-1.684 1.975-2.452-.392-4.328-3.13-6.718-2.975l-.822.926c.514 2.78 6.564 6.271 8.25 8.99 1.242.966 3.678 2.345 4.07 3.823-1.058 1.332-2.822 1.88-4.342 2.544-3.452-3.981-8.756-5.665-12.454-9.249-1.218-1.179-2.158-2.665-2.126-4.411.068-3.724 3.666-6.61 6.068-9.051z" class="H"/><defs><linearGradient id="F" x1="156.666" y1="64.453" x2="142.684" y2="66.05" href="#B"><stop offset="0" stop-color="#767575"/><stop offset="1" stop-color="#949393"/></linearGradient></defs><path fill="url(#F)" transform="matrix(2 0 0 2 -.000061 0)" d="M144.256 62.473c.433-.146 1.103-.298 1.444-.599.802-.711.058-2.7.087-3.663l.453-.409c1.644-.365 3.952.117 5.597.474-1.201 1.22-3 2.664-3.034 4.525-.016.873.454 1.616 1.063 2.206 1.849 1.792 4.501 2.634 6.227 4.625.655.834 1.354 1.557 2.129 2.281-.198.08-.136.067-.317.102-.585.111-.88-.241-1.358-.555l-.351.207c-3.604-2.852-7.323-5.566-11.747-6.985-.321-.828-.927-1.644-1.721-2.054-.05-.026-.102-.049-.153-.073.111-.031.349-.116.473-.102.424.048.617.107 1.058.044l.15-.023z"/><defs><linearGradient id="G" x1="83.059" y1="82.008" x2="78.606" y2="78.677" href="#B"><stop offset="0" stop-color="#4b4a4a"/><stop offset="1" stop-color="#656565"/></linearGradient></defs><path fill="url(#G)" transform="matrix(2 0 0 2 -.000061 0)" d="M71.009 86.917c.835-1.247 2.44-2.295 3.571-3.294l6.082-5.688c1.729-1.538 3.955-3.003 5.416-4.774.488 3.221-2.297 7.216-1.192 9.828-1.631 1.781-2.747 3.794-3.841 5.932-.676 1.228-3.441 3.916-3.157 5.169.032.144.065.177.136.286-1.297 1.449-9.288 11.318-9.708 12.572-1.457 1.1-2.878 2.417-4.423 3.37l-.187-.233c.556-1.431 6.185-4.743 7.458-7.561 1.483-3.28 5.942-6.063 6.494-9.61l.03-.206c.1-.613.44-1.071.938-1.427.505-.362.85-.762 1.202-1.276 1.272-1.855 4.668-6.941 4.261-9.141l-.409-.23c-1.041.645-2.039.619-3.148 1.038-2.223.84-2.416 2.971-3.792 4.533a1.22 1.22 0 0 1-1.016.467c-.933.015-1.718-.917-2.334-1.515-.743.723-1.485 1.24-2.38 1.762z"/><path d="M125.287 166.99c-10.82 12.006-13.316 26.542-17.928 41.352-1.36 4.366-3.277 8.538-4.715 12.878-4.924 14.87-7.314 29.308-7.605 44.982-.036 1.93-.673 5.782-.268 7.514.022.092.078.172.117.258l-.642.302.058.502.426-.412-.346.924c-.782-2.818.192-24.296 1.055-27.058 1.501-4.804 1.349-10.128 2.726-15.008 2.484-8.796 5.983-17.182 8.682-25.87 2.677-8.621 4.347-17.636 8.063-25.924 1.988-4.434 5.438-8.003 7.52-12.31 1.308-2.704 2.071-5.737 3.217-8.523 2.035-4.949 5.144-10.321 8.208-14.714 4.635-6.646 10.984-12.776 16.364-18.877 9.317-10.567 20.971-22.208 33.383-28.949 6.782-3.683 14.807-7.374 22.206-9.519 3.134-.909 6.58-1.058 9.62-2.218-.688-.545-1.834-.401-2.692-.305-2.064.229-3.936 1.035-6.04.593l-.178-.247c1.334-1.742 5.124-2.828 7.234-3.105 1.408-.185 2.822-.088 4.232-.333 4.848-.844 17.16-4.624 21.27-1.519 1.066.806 1.056 1.962 1.15 3.212 5.978 1.32 12.15 1.248 18.158 2.488 6.19 1.278 12.17 3.188 18.184 5.114 20.83 6.672 33.738 13.885 47.618 31.182 2.766 3.447 5.774 6.913 8.146 10.644 2.138 3.364 3.658 7.374 6.394 10.307l.2-.078c.306-1.441.412-3.208 1.582-4.199 1.088.061 1.178.054 1.906.87 1.704 1.911 2.912 4.434 4.348 6.56 9.51 14.078 17.08 29.041 23.308 44.826.74 1.873 2.48 4.5 2.398 6.518-.01.251-.048.347-.106.607-1.934-1.498-5.052-13.426-7.182-16.818-5.398-14.03-15.692-30.257-24.572-42.521l-1.278 7.443c-5.448-9.929-11.976-18.712-19.13-27.459-1.49-1.882-3.18-3.641-4.778-5.432-9.03-12.953-42.628-23.851-58.076-26.901-22.174-4.377-54.216-1.583-73.327 11.288-14.644 6.977-33.115 27.018-42.895 40.077-.278 2.891-1.084 5.952-2.314 8.592-2.972 6.153-6.142 10.803-10.443 16.032-1.041.761-2.377 2.785-3.258 3.232z" class="F"/><path d="M125.287 166.99c-.09-1.887.024-3.455.722-5.227 2.076-5.27 10.256-20.407 15.293-22.628-.278 2.891-1.084 5.952-2.314 8.592-2.972 6.153-6.142 10.803-10.443 16.032-1.041.761-2.377 2.785-3.258 3.232z" class="C"/><defs><linearGradient id="H" x1="154.019" y1="81.946" x2="153.293" y2="64.886" href="#B"><stop offset="0" stop-color="#878687"/><stop offset="1" stop-color="#afaeae"/></linearGradient></defs><path fill="url(#H)" transform="matrix(2 0 0 2 -.000061 0)" d="M144.449 64.68c4.424 1.419 8.143 4.133 11.747 6.985 1.693 1.343 9.101 7.577 9.381 9.694.027.206-.182.386-.303.549-.997.255-1.661.157-2.526-.369-2.093-1.271-4.063-3.046-6.014-4.542-2.35.974-4.468 1.989-7.064 2.067-.873.06-1.088.211-1.784.742.327-.783.919-1.587 1.07-2.422.113-.624-.087-.903-.462-1.337-1.047-.256-2.131.328-3.186.378-.583.028-.714-.052-1.115-.416-.172-.678.056-1.25.258-1.892.296-.083.567-.224.846-.353l.009-.449c-.933-1.1-2.506-1.888-3.725-2.66l2.26-2.451q.325-1.759.608-3.525z"/><path d="M141.303 139.134c9.779-13.059 28.251-33.1 42.895-40.077.633 3.238.822 6.328.892 9.622-.979 5.594-3.461 11.012-5.418 16.33-3.006 6.939-4.769 14.295-7.516 21.312-2.923 3.543-7.374 6.472-10.832 9.549-4.149 3.692-8.002 7.703-12.163 11.376-2.262 1.997-5.471 4.095-7.141 6.588-3.476 4.288-9.004 12.181-14.795 12.973-.098.013-.197.01-.295.016-.764-.803-1.063-1.039-1.201-2.164-.004-.033.003-.066.005-.099-.348-4.609 5.861-11.971 7.008-17.418.447-2.123.099-4.769.014-6.948-1.343 1.277-2.75 2.423-4.21 3.563 4.302-5.229 7.471-9.879 10.443-16.032 1.23-2.64 2.036-5.701 2.314-8.592z" class="M"/><path d="M138.989 147.725c.299 1.748.611 3.517.346 5.288-.986 6.589-9.297 25.619-13.212 31.086-.1.14-.285.342-.39.461-.348-4.609 5.861-11.971 7.008-17.418.447-2.123.099-4.769.014-6.948-1.343 1.277-2.75 2.423-4.21 3.563 4.302-5.229 7.471-9.879 10.443-16.032zm45.208-48.669c19.111-12.871 51.153-15.665 73.327-11.288 15.448 3.05 49.046 13.948 58.076 26.901-2.992 1.386-6.1 1.839-9.374 1.891l-2.552-.011c-3.29-.714-7.906-1.678-11.194-.947l-.906.817c-.058 1.927 1.43 5.904-.174 7.327-.682.604-2.022.907-2.888 1.199l-.3.046c-.882.127-1.268.008-2.116-.088-.248-.028-.724.142-.946.203.102.049.206.094.306.146 1.588.82 2.8 2.452 3.442 4.108q-.566 3.532-1.216 7.05l-4.52 4.902c2.438 1.545 5.584 3.121 7.45 5.32l-.018.897c-.558.258-1.1.539-1.692.705-.404 1.284-.86 2.427-.516 3.784.802.728 1.064.887 2.23.831 2.11-.1 4.278-1.268 6.372-.756.75.868 1.15 1.426.924 2.673-.302 1.67-1.486 3.279-2.14 4.844l-.79 1.549-.84 2.323-.7.832c-4.916-2.27-13.216-3.831-18.628-4.074 5.274 7.684 15.292 12.035 21.236 19.311 1.738 1.436 3.264 2.9 5.562 3.297-3.836 1.954-13.084.722-17.632.546-1.75.458-3.688 1.179-5.464 1.414-3.398-2.334-9.924-2.875-14.042-3.984-4.232-.847-8.528-2.499-12.486-4.202l-.354.288c-2.086 1.649-4.652 1.644-7.198 1.932 1.392.423 2.852.2 4.284.105.602 1.492.078 6.419-.512 7.951-.926 2.4-5.44 4.516-7.754 5.458-.092.038-.188.067-.282.101-1.17 1.114-1.876 2.422-3.536 2.409l-1.432-.826c-3.366-3.435-7.946-6.332-11.594-9.62-6.46-5.823-11.924-12.512-17.344-19.277-1.356-6.68-8.66-15.132-11.853-21.756-1.848-4.492-2.719-9.304-4.354-13.881.301-1.156 1.148-2.363 1.722-3.417.029.111.047.225.088.332.444 1.185.866 1.413 1.911 2.007l.386-.448c-1.082-5.58-2.871-18.552-7.922-22.095l-.601.128-.553 2.663c-.07-3.294-.259-6.384-.892-9.622z" fill="#5f5f5f"/><path d="M284.2 182.951l1.176-.358c-.478-1.533-2.058-2.663-1.932-4.314 3.434-1.678 8.218 2.412 12.188 1.385l.418-.112c1.738 1.436 3.264 2.9 5.562 3.297-3.836 1.954-13.084.722-17.632.546l.22-.444z" class="C"/><path d="M213.02 142.321c1.084-1.62 2.302-3.982 4.392-4.338 1.492-.254 3.07.656 4.184 1.575 3.764 3.102 6.364 7.783 9.938 11.2s7.948 5.526 11.866 8.481c5.168 3.899 9.604 8.427 15.092 11.938 4.212 2.694 9.166 6.529 13.762 8.272 2.276.862 11.036 2.459 11.946 3.503l-.22.444c-1.75.458-3.688 1.179-5.464 1.414-3.398-2.334-9.924-2.875-14.042-3.984-4.232-.847-8.528-2.499-12.486-4.202q-4.578-3.386-9.01-6.962c-8.556-7.049-14.74-16.717-23.9-23.152-.854-1.023-1.594-1.734-2.702-2.489-1.066.012-1.248-.083-2.02.728-1.196 1.254-.916 3.243-.902 4.854-.458-2.482-.49-4.773-.434-7.281z" class="P"/><path d="M244.512 168.962c-2.02-1.976-6.252-5.165-6.342-8.023 1.008-.444 1.556-.154 2.55.225 4.366 1.663 8.502 6.814 11.358 10.422-3.192-.088-4.904-.843-7.566-2.624z" class="B"/><path d="M242.978 169.661l1.534-.699c2.662 1.781 4.374 2.535 7.566 2.624 3.712.565 9.98 4.256 12.28 7.254.176.797.352 1.193.116 1.985-4.232-.847-8.528-2.499-12.486-4.202q-4.578-3.386-9.01-6.962z" class="I"/><path d="M213.454 149.602c-.014-1.612-.294-3.6.902-4.854.772-.811.954-.716 2.02-.728 1.108.755 1.848 1.466 2.702 2.489 9.16 6.435 15.344 16.103 23.9 23.152q4.432 3.576 9.01 6.962l-.354.288c-2.086 1.649-4.652 1.644-7.198 1.932 1.392.423 2.852.2 4.284.105.602 1.492.078 6.419-.512 7.951-.926 2.4-5.44 4.516-7.754 5.458-.092.038-.188.067-.282.101-1.17 1.114-1.876 2.422-3.536 2.409l-1.432-.826c1.054-2.341 2.608-2.675 4.28-4.375.03-.318.184-.977.118-1.262-.372-1.633-11.908-13.312-13.776-15.989-1.782-2.555-4.098-6.687-3.53-9.926q-3.448-4.044-6.804-8.163c-1.096-1.355-1.508-3.093-2.038-4.725z" class="D"/><path d="M213.454 149.602c-.014-1.612-.294-3.6.902-4.854.772-.811.954-.716 2.02-.728 1.108.755 1.848 1.466 2.702 2.489-1.034 1.02-1.038 1.054-1.168 2.503.596 1.303 1.26 2.507 2.004 3.73-.156.391-.228.914-.63 1.076-1.254.507-2.46.49-3.792.508-1.096-1.355-1.508-3.093-2.038-4.725z" class="Q"/><path d="M222.296 162.49c8.096 8.386 15.494 17.562 24.806 24.694-2.454 1.53-5.162 2.929-6.93 5.275-1.17 1.114-1.876 2.422-3.536 2.409l-1.432-.826c1.054-2.341 2.608-2.675 4.28-4.375.03-.318.184-.977.118-1.262-.372-1.633-11.908-13.312-13.776-15.989-1.782-2.555-4.098-6.687-3.53-9.926z" class="C"/><path d="M220.306 114.809c8.97 1.157 18.054 1.041 26.96 2.266 8.012 1.102 15.692 3.652 23.356 6.145 3.454 1.124 12.366 5.521 15.55 4.215-.182-1.829-9.626-4.379-11.572-6.509-.304-.333-.194-.431-.174-.855 4.024-.2 10.21 3.434 14.086 4.875l-.3.046c-.882.127-1.268.008-2.116-.088-.248-.028-.724.142-.946.203.102.049.206.094.306.146 1.588.82 2.8 2.452 3.442 4.108q-.566 3.532-1.216 7.05l-4.52 4.902c2.438 1.545 5.584 3.121 7.45 5.32l-.018.897c-.558.258-1.1.539-1.692.705-.404 1.284-.86 2.427-.516 3.784.802.728 1.064.887 2.23.831 2.11-.1 4.278-1.268 6.372-.756.75.868 1.15 1.426.924 2.673-.302 1.67-1.486 3.279-2.14 4.844l-.79 1.549-.84 2.323-.7.832c-4.916-2.27-13.216-3.831-18.628-4.074-4.202-1.682-8.04-3.768-11.968-5.99-3.896-1.686-7.796-4.831-11.288-7.26-12.5-8.694-25.194-17.675-31.252-32.182z" class="M"/><path d="M262.846 154.251l.318-.293c3.434-3.012 17.152-8.337 21.822-8.008 1.842.13 2.774.956 3.916 2.285-.404 1.284-.86 2.427-.516 3.784.802.728 1.064.887 2.23.831 2.11-.1 4.278-1.268 6.372-.756.75.868 1.15 1.426.924 2.673-.302 1.67-1.486 3.279-2.14 4.844l-.79 1.549-.84 2.323-.7.832c-4.916-2.27-13.216-3.831-18.628-4.074-4.202-1.682-8.04-3.768-11.968-5.99z" class="H"/><path d="M185.09 108.679l.553-2.663.601-.128c5.05 3.543 6.84 16.515 7.922 22.095l-.386.448c-1.045-.594-1.467-.823-1.911-2.007-.04-.107-.058-.221-.088-.332-.574 1.054-1.421 2.261-1.722 3.417 1.635 4.577 2.506 9.389 4.354 13.881 3.194 6.624 10.497 15.077 11.853 21.756 5.42 6.766 10.884 13.454 17.344 19.277 3.648 3.288 8.228 6.184 11.594 9.62l1.432.826c1.66.012 2.366-1.296 3.536-2.409.094-.034.19-.064.282-.101 2.314-.942 6.828-3.058 7.754-5.458.59-1.532 1.114-6.459.512-7.951-1.432.095-2.892.318-4.284-.105 2.546-.288 5.112-.283 7.198-1.932l.354-.288c3.958 1.703 8.254 3.355 12.486 4.202 4.118 1.109 10.644 1.65 14.042 3.984 1.776-.235 3.714-.956 5.464-1.414 4.548.176 13.796 1.408 17.632-.546 3.38-.672 15.798 5.084 19.026 7.231 5.374 3.574 9.15 8.905 12.94 14.024l-1.004 2.02c13.498 7.346 25.418 19.558 34.528 31.842 6.09 12.092 10.786 24.908 6.306 38.334-2.632 7.888-19.192 34.656-19.418 37.496-1.118.262-2.21.514-3.286.928-.174.582-.382 1.148-.388 1.76.248 5.526-2.678 11.054-3.726 16.414-1.148 2.704-2.698 5.482-3.598 8.26-2.948 8.952-8.844 17.998-15.41 24.726-8.244 7.494-16.43 14.794-26.25 20.208-6.992 3.852-15.248 6.994-21.73 11.558l-.188.888-.026 2.342c1.34 1.246 2.81.294 3.932 1.624.048 1.328-.212 2.32-.608 3.562.688 2.732 3.15 8.754 2.758 11.322-.784.958-1.312 1.432-1.542 2.674l1.762.36c.398.628.7.878.46 1.688-.482 1.634-1.798 1.934-1.962 3.844l.514.692c1.028-.012 1.982 0 2.998.168.654.98.918 1.686.66 2.896-.49 2.302-3.158 4.628-1.942 7.074-1.59 1.258-3.54 1.696-5.306 2.744-4.88 2.898-9.686 5.934-14.69 8.618-5.636 3.022-20.11 9.328-23.956 12.802l-.444-.428c-3.906-3.6-11.63-8.328-17.046-8.116-5.312-3.038-15.052-5.182-19.168-9.122l-.112-.866-1.326-.786.112-.698 2.46-.562-1.184-.71-.072-.758c1.692-1.192 3.338-.602 5.122-1.622.084-.048.166-.102.248-.152-1.882-1.432-4.142-2.584-6.172-3.81.136-2.592.44-5.202.666-7.788 1.048-4.652 1.396-9.652 2.214-14.374-.746-3.034-.772-6.482-1.022-9.606-2.754-5.408-29.809-17.112-36.81-22.162-5.453-3.932-9.661-8.902-13.87-14.076-3.034-3.84-6.256-7.752-8.504-12.112-5.85-8.616-10.083-16.806-12.859-26.888-1.278-4.642-2.014-9.88-4.184-14.182-4.471-8.256-10.25-16.356-13.89-24.982-6.719-15.92-7.812-33.712-1.276-49.746 2.797-5.74 6.418-10.46 10.704-15.16l1.73-1.608c3.091-1.906 5.933-4.54 8.847-6.74.839-2.508 16.822-22.246 19.416-25.144-.142-.218-.207-.284-.272-.572-.567-2.506 4.962-7.881 6.315-10.337 2.188-4.276 4.42-8.301 7.681-11.863-2.209-5.224 3.36-13.215 2.385-19.656 2.748-7.017 4.51-14.372 7.516-21.312 1.957-5.319 4.439-10.736 5.418-16.33z" class="N"/><path d="M129.239 289.06c1.236 2.774 2.334 5.804 4.173 8.24l.19.864c-4.379.92-3.082-2.758-6.164-3.446-1.177-.956-1.2-1.684-1.64-3.112 1.175.796 1.262 1.002 2.65.862.819-1.294.728-1.902.792-3.408z" class="J"/><path d="M289.618 225.512c6.838-2.052 10.776-6.38 18.448-6.616l-2.662.864c-1.086.344-1.848.978-2.366 2.018-.272.546-.364 1.196-.402 1.8-3.708.7-7.604 3.666-10.83 5.618-1.014-1.216-1.672-2.174-2.188-3.684z" class="O"/><path d="M356.418 251.124c.044-.07.096-.138.132-.212 2.572-5.274-8.692-15.1-9.874-19.628.81-.788 1.518-1.012 2.584-1.34 1.144.12 1.91.326 2.776 1.116 3.016 2.746 6.502 13.234 6.724 17.356-.878.872-1.276 2.918-2.144 3.082l-.198-.374zm-81.268-6.076l-.896-1.156c-.334-3.042 1.258-7.52 2.62-10.242 2.634-5.268 7.574-6.41 12.744-8.138.516 1.51 1.174 2.468 2.188 3.684-6.71 4.5-12.074 9.162-16.656 15.852z" class="J"/><path fill="#e9ebd2" d="M184.543 224.278c7.843.992 15.971 7.802 20.677 13.844 3.18 4.082 5.396 8.516 7.206 13.338-1.46 1.19-3.634 1.33-5.444 1.644-.39-2.218-.868-4.466-1.7-6.564-4.034-10.164-11.34-16.46-21.225-20.718l.144-1.38.342-.164z"/><path d="M160.805 213.072c1.468.824 3.479 1.712 4.549 3.04 1.048 1.298.761 2.906.632 4.458-8.776.932-17.303 3.76-23.099 10.83-.64.78-1.199 1.636-1.731 2.492l-3.255-1.258.121-1.098c5.535-8.06 13.886-14.576 22.781-18.464z" class="R"/><path d="M283.334 302.852c-.224-.134-.254-.144-.496-.33-5.85-4.442-14.158-16.77-15.086-23.972-.194-1.502-.002-1.948.922-3.11 1.572 3.952 3.6 7.168 6.272 10.472 2.294.288 4.414.582 6.604 1.38 2.954.57 6.154 1.26 8.976 2.298-1.948 2.474-5.578 6.164-5.048 9.604a3.94 3.94 0 0 0 .718 1.778l-2.862 1.88z" class="D"/><path d="M125.118 241.164c3.152-2.132 6.329-4.574 9.701-6.326-2.186 2.114-5.28 4.582-6.85 7.156-3.082 5.052-2.728 17.758-2.841 24.006-.121 6.742.335 17.202 4.11 23.06-.063 1.506.028 2.114-.792 3.408-1.387.14-1.475-.066-2.65-.862-.88-4.036-2.628-7.962-3.523-12.076-2.491-11.46-2.173-27.638 2.843-38.366z" class="O"/><path d="M339.112 227.842c4.806 4.726 9.526 9.346 13.004 15.184 1.566 2.628 2.734 5.492 4.302 8.098l.198.374c.868-.164 1.266-2.21 2.144-3.082 3.97 9.366 1.478 18.744-1.016 28.134-1.028 3.868-1.958 7.864-3.43 11.592-.522 1.318-.828 2.348-2.118 3l-.494-1.012c1.982-10.414 3.41-20.886 5.228-31.32-2.612 1.472-5.016 2.902-7.306 4.852-1.492-1.442-3.118-2.888-4.444-4.482-4.162-5.006-3.548-13.258-7-18.728-1.482-2.346-4.638-5.634-4.368-8.486 1.302-1.798 3.324-2.48 5.002-3.874l.298-.25z" class="E"/><path d="M349.624 263.662c2.29-1.95 4.694-3.38 7.306-4.852l-5.228 31.32-1.196 4.424c-1.468 3.38-2.974 5.468-5.858 7.792-1.002.75-2.264 1.516-3.154 2.378-3.144-5.232-8.622-11.494-13.92-14.652l-.184-.27c-2.37-.504-4.86-.586-7.274-.778 2.806-.526 9.376-2.946 11.556-4.728 10.078-7.696 10.492-13.01 17.952-20.634z" class="D"/><path d="M344.648 302.346c-1.736-2.35-3.758-5.662-3.49-8.654.404-.676.524-1.134 1.278-1.444 2.33-.96 5.93 1.32 8.07 2.306-1.468 3.38-2.974 5.468-5.858 7.792z" class="L"/><path d="M308.066 218.896c2.39-.742 4.74-.8 7.192-.402l.294.08c8.986 2.318 16.618 1.706 23.56 9.268l-.298.25c-1.678 1.394-3.7 2.076-5.002 3.874-.27 2.852 2.886 6.14 4.368 8.486 3.452 5.47 2.838 13.722 7 18.728 1.326 1.594 2.952 3.04 4.444 4.482-7.46 7.624-7.874 12.938-17.952 20.634-.754.052-1.732.202-2.474.07-1.474-.26-1.988-1.52-2.78-2.64 1.09-.776 2.146-1.62 3.174-2.476 5.074-4.232 8.964-10.048 9.49-16.766.762-9.738-3.522-17.668-9.58-24.894-.81.834-1.708 1.65-2.43 2.556-4.156-5.932-9.868-9.778-15.688-13.892-.502-.104-.754-.178-1.156-.516-.302-.252-.376-.342-.71-.568-1.882-1.27-4.81-.31-6.856.136l-.026-1.728c.038-.604.13-1.254.402-1.8.518-1.04 1.28-1.674 2.366-2.018l2.662-.864z" class="C"/><path d="M308.066 218.896c2.39-.742 4.74-.8 7.192-.402-1.054 1.938-2.006 3.748-4.246 4.428-1.212.37-1.88.218-2.98-.368-1.396-.742-2.142-1.274-2.628-2.794l2.662-.864z" class="E"/><path fill="#e9ebd2" d="M311.384 226.254c4.142-.366 10.092 3.596 13.156 6.194q2.738 2.324 4.962 5.142c-.81.834-1.708 1.65-2.43 2.556-4.156-5.932-9.868-9.778-15.688-13.892z"/><path d="M212.426 251.46l.82 2.708c3.68 11.754 1.762 25.51-3.886 36.342-5.484 10.516-14.778 19.478-26.223 23.056-7.867 2.46-17.049 2.676-25.04.7 1.382-.908 18.331.68 22.786-.912-.219-2.926-3.719-6.356-3.22-8.958.031-.162.082-.32.123-.48l.363-1.8 1.09-3.64c-.004-1.698-.1-3.136-.584-4.768-1.244-1.594-3.957-1.908-5.828-2.568 2.845.094 5.598-.018 8.248-1.136 2.069-.022 4.161.018 6.219-.208 2.402-.832 4.682-1.624 7.221-1.942l-.417-.052c-1.817-.28-2.54-1.186-3.561-2.57 4.38-1.242 9.288-2.642 12.953-5.426 2.636-2.004 4.12-4.474 4.552-7.748-.148-2.174-.15-4.89-1.848-6.49-1-.944-1.554-.7-2.826-.658l2.926-3.334c1.628-2.638 1.02-5.558.688-8.472 1.81-.314 3.984-.454 5.444-1.644z" class="L"/><path d="M186.691 298l1.197-.22c.97.688 1.355 1.104 1.535 2.368.25 1.752-.542 4.044-1.634 5.394-.753.93-1.82 1.918-3.081 1.962-.148.006-.297-.002-.445-.002 1.018-3.15 1.787-6.256 2.429-9.502z" class="B"/><path fill="#ded3bb" d="M212.426 251.46l.82 2.708-.908.312-1.268-.84-.74.386c-.212 3.444-.004 10.732-1.826 13.604l.026.274-.488 4.154c-.148-2.174-.15-4.89-1.848-6.49-1-.944-1.554-.7-2.826-.658l2.926-3.334c1.628-2.638 1.02-5.558.688-8.472 1.81-.314 3.984-.454 5.444-1.644z"/><path d="M181.406 295.654l5.285 2.346c-.641 3.246-1.411 6.352-2.429 9.502l-.666 1.756-.755.054-.558-.738c-.275.852-.241.98-1.007 1.514-1.67-1.286-2.61-4.276-3.492-6.172l.363-1.8 1.09-3.64 1.517-.612c.036-.826.329-1.458.65-2.21z" class="K"/><path d="M179.239 298.476l1.517-.612-.111.906c.331 3.228.629 6.712 1.639 9.804-.275.852-.241.98-1.007 1.514-1.67-1.286-2.61-4.276-3.492-6.172l.363-1.8 1.09-3.64z" class="D"/><path d="M179.239 298.476l1.517-.612-.111.906c.003 1.714-.02 2.932-.858 4.462l-.742.256c-.333-.448-.681-.854-.896-1.372l1.09-3.64z" class="B"/><path d="M208.53 267.904c1.392.876 1.778 1.634 2.134 3.262.694 3.156-1.216 6.742-2.976 9.21-1.674 2.344-3.86 4.068-6.418 5.348l-6.755 2.13-.417-.052c-1.817-.28-2.54-1.186-3.561-2.57 4.38-1.242 9.288-2.642 12.953-5.426 2.636-2.004 4.12-4.474 4.552-7.748l.488-4.154z" class="J"/><path d="M194.515 287.854c2.15-.894 4.522-1.456 6.755-2.13-1.686 3.88-4.881 11.022-8.603 13.192l-.905-.124c-1.295-2.942-2.474-5.392-4.649-7.792-1.172-.314-1.828-.376-2.983.026-1.37 1.374-1.314 3.572-2.723 4.628-.321.752-.614 1.384-.65 2.21l-1.517.612c-.004-1.698-.1-3.136-.584-4.768-1.244-1.594-3.957-1.908-5.828-2.568 2.845.094 5.598-.018 8.248-1.136 2.069-.022 4.161.018 6.219-.208 2.402-.832 4.682-1.624 7.221-1.942z" class="D"/><path d="M138.902 285.328c-.388-1.122-.422-1.968-.007-3.074.626-1.666 1.627-3.028 3.26-3.78 2.76 3.036 6.17 4.95 9.498 7.276 2.613 1.008 5.358 1.908 7.904 3.06 1.87.866 3.602 1.248 5.631 1.578 2.468.23 5.222.274 7.639.752 1.87.66 4.584.974 5.828 2.568.484 1.632.58 3.07.584 4.768l-1.09 3.64-.363 1.8c-.041.16-.091.318-.123.48-.499 2.602 3.002 6.032 3.22 8.958-4.455 1.592-21.403.004-22.786.912-9.674-2.246-17.831-9.054-24.496-16.102l-.19-.864c1.24-1.426 3.175-2.588 4.691-3.732-.745-1.556-1.559-3.046-1.772-4.78.306-1.628 1.39-2.412 2.571-3.46z" class="K"/><path d="M169.923 299.254l1.09.268c.221.334.671.778.572 1.174-.64 2.57-4.46 4.568-6.553 5.96-.465-.02-.866-.192-1.304-.34l-.015-.98c1.538-2.372 4.092-4.228 6.209-6.082zm-18.27-13.504l7.904 3.06c1.87.866 3.602 1.248 5.631 1.578-6.494 1.84-12.86-1.044-19.415-1.692 1.382-.174 3.836.054 5.027-.608.621-.346 1.307-.354 2.002-.408l.375-.026-1.545-1.064.02-.84z" class="B"/><path d="M138.902 285.328c-.388-1.122-.422-1.968-.007-3.074.626-1.666 1.627-3.028 3.26-3.78 2.76 3.036 6.17 4.95 9.498 7.276l-.02.84 1.545 1.064-.375.026c-.695.054-1.381.062-2.002.408-1.192.662-3.645.434-5.027.608-1.61-.93-2.886-2.868-4.52-3.592-1.061-.47-1.312-.184-2.351.224z" class="I"/><path d="M305.168 288.108l.316-.208c.638.972 1.392 1.96 1.85 3.032 2.734-.068 5.652-.648 8.382-.958l3.574-.172.826-.778c2.414.192 4.904.274 7.274.778l.184.27c5.298 3.158 10.776 9.42 13.92 14.652-7.666 6.29-15.652 10.908-25.718 11.752-13.558 1.136-22.568-5.23-32.442-13.624l2.862-1.88a3.94 3.94 0 0 1-.718-1.778c-.53-3.44 3.1-7.13 5.048-9.604l4.168.77 1.682-1.562c1.538-.072 2.878.942 3.968 1.944.142.13.278.266.414.402 1.398-1.284 2.722-2.172 4.41-3.036z" class="L"/><path d="M320.808 303.416c.784 1.05 1.266 2.018 1.36 3.338.112 1.594-.55 2.432-1.502 3.572-.642-.384-.946-.762-1.364-1.356-.316-1.89.782-3.842 1.506-5.554zm-20.002-2.47l2.432 4.068 1.708 2.942c-.29.142-.534.262-.856.308-1.134.162-2.382-.244-3.268-.952-.938-.75-1.63-2.094-1.596-3.308.038-1.458.698-2.06 1.58-3.058zm-10.28-11.356l4.168.77c-3.642 1.836-5.348 7.906-8.498 10.612a3.94 3.94 0 0 1-.718-1.778c-.53-3.44 3.1-7.13 5.048-9.604z" class="B"/><path d="M306.178 291.884l1.844 1.314c-1.452 2.494-1.756 4.812-2.578 7.5l-2.206 4.316-2.432-4.068-.044-1.934.104-.45 5.312-6.678z" class="K"/><path d="M325.222 296.812c-.166-.686-.43-1.522-.344-2.222.116-.948.724-1.162 1.426-1.702 1.194 2.106 5.16 8.834 5.03 11.096-1.266 1.978-3.588 3.656-5.85 4.268l-.462-.41c.662-2.312 2.166-3.92 3.666-5.736-1.164-1.72-2.514-3.452-3.466-5.294zm-20.054-8.704l.316-.208c.638.972 1.392 1.96 1.85 3.032l-1.156.952-5.312 6.678-.104.45c-2.646.86-3.556 3.622-5.798 4.638-.71.322-1.08.152-1.794-.056.164-2.918 4.148-6.42 6.12-8.532.74-1.22 1.074-2.558 1.468-3.918 1.398-1.284 2.722-2.172 4.41-3.036zm2.854 5.09c1.536.218 2.082.17 3.252 1.266.19 1.364-.232 2.24-.764 3.45 1.506.432 3.544 3.634 4.18 5.064.202.454.232.77.282 1.26l1.736-.364c-.176 1.616-.244 3.084-1.158 4.48-2.24 1.224-5.69-.084-8.374.338l-.466-.226c1.328-3.56.098-4.62-1.266-7.768.822-2.688 1.126-5.006 2.578-7.5z" class="B"/><path d="M310.51 297.914c1.506.432 3.544 3.634 4.18 5.064.202.454.232.77.282 1.26-1.24.984-1.618 1.41-3.214 1.65-.68-.422-1.058-.546-1.406-1.298-1.01-2.18-.59-4.5.158-6.676z" class="K"/><path d="M320.116 289.024c2.414.192 4.904.274 7.274.778l.184.27c-1.1 1.048-1.058 1.376-1.27 2.816-.702.54-1.31.754-1.426 1.702-.086.7.178 1.536.344 2.222l-.42-.002c-2.09-.028-4.246-1.182-6.116-.47-.976 1.598-2.632 5.282-2.106 7.146.036.132.086.258.128.388l-1.736.364c-.05-.49-.08-.806-.282-1.26-.636-1.43-2.674-4.632-4.18-5.064.532-1.21.954-2.086.764-3.45-1.17-1.096-1.716-1.048-3.252-1.266l-1.844-1.314 1.156-.952c2.734-.068 5.652-.648 8.382-.958l3.574-.172.826-.778z" class="D"/><path d="M319.29 289.802c.544 1.718 1.602 3.864.746 5.598-.214.434-.622.394-1.054.514-2.022-1.88-2.718-3.258-3.266-5.94l3.574-.172z" class="B"/><path d="M291.806 229.196c3.226-1.952 7.122-4.918 10.83-5.618l.026 1.728c-3.926 2.764-9.606 7.31-10.438 12.296-.622 3.722.926 7.922 1.294 11.642.242 2.46.096 5.08-.016 7.544-2.196 1.69-3.908 3.578-5.708 5.666-.248-5.68-.644-11.5.27-17.136.308-1.902 1.076-3.654 1.392-5.538l-.466-.216c-3.152 1.932-4.61 4.906-5.434 8.404-1.496 6.348-1.674 17.992 1.888 23.668 1.982 3.158 5.108 5.244 8.192 7.21 3.39 1.868 6.922 3.61 10.796 4.166 5.864.844 11.798-1.34 16.452-4.842 6.398-4.816 9.476-11.26 10.55-19.012q.158-2.472-.04-4.94-.2-2.47-.754-4.884-.554-2.414-1.45-4.724-.898-2.308-2.118-4.464c.722-.906 1.62-1.722 2.43-2.556 6.058 7.226 10.342 15.156 9.58 24.894-.526 6.718-4.416 12.534-9.49 16.766-1.028.856-2.084 1.7-3.174 2.476.792 1.12 1.306 2.38 2.78 2.64.742.132 1.72-.018 2.474-.07-2.18 1.782-8.75 4.202-11.556 4.728l-.826.778-3.574.172c-2.73.31-5.648.89-8.382.958-.458-1.072-1.212-2.06-1.85-3.032l-.316.208c-1.688.864-3.012 1.752-4.41 3.036-.136-.136-.272-.272-.414-.402-1.09-1.002-2.43-2.016-3.968-1.944l-1.682 1.562-4.168-.77c-2.822-1.038-6.022-1.728-8.976-2.298-2.19-.798-4.31-1.092-6.604-1.38-2.672-3.304-4.7-6.52-6.272-10.472.16-2.67-.092-6.078 1.296-8.432.72-2.022.792-4.89 1.18-7.056.926-5.152 2.162-10 4-14.904 4.582-6.69 9.946-11.352 16.656-15.852z" class="S"/><path d="M295.438 287.248l9.73.86c-1.688.864-3.012 1.752-4.41 3.036l-.414-.402c-1.09-1.002-2.43-2.016-3.968-1.944l-.938-1.55z" class="B"/><path d="M285.668 284.282c2.928.816 7.246 1.41 9.77 2.966l.938 1.55-1.682 1.562-4.168-.77c-2.822-1.038-6.022-1.728-8.976-2.298.398-.004.85.002 1.236-.108 1.514-.43 2.042-1.69 2.882-2.902z" class="I"/><path d="M269.97 267.008c-.136 4.374-.136 7.952 3.056 11.374 2.944 3.156 8.502 4.968 12.642 5.9-.84 1.212-1.368 2.472-2.882 2.902-.386.11-.838.104-1.236.108-2.19-.798-4.31-1.092-6.604-1.38-2.672-3.304-4.7-6.52-6.272-10.472.16-2.67-.092-6.078 1.296-8.432z" class="O"/><path d="M305.484 287.9c7.888-.696 13.842-2.702 20.934-6.174.792 1.12 1.306 2.38 2.78 2.64.742.132 1.72-.018 2.474-.07-2.18 1.782-8.75 4.202-11.556 4.728l-.826.778-3.574.172c-2.73.31-5.648.89-8.382.958-.458-1.072-1.212-2.06-1.85-3.032z" class="I"/><path d="M302.662 225.306c2.046-.446 4.974-1.406 6.856-.136.334.226.408.316.71.568.402.338.654.412 1.156.516 5.82 4.114 11.532 7.96 15.688 13.892q1.22 2.156 2.118 4.464.896 2.31 1.45 4.724.554 2.414.754 4.884.198 2.468.04 4.94c-1.074 7.752-4.152 14.196-10.55 19.012-4.654 3.502-10.588 5.686-16.452 4.842-3.874-.556-7.406-2.298-10.796-4.166-3.084-1.966-6.21-4.052-8.192-7.21-3.562-5.676-3.384-17.32-1.888-23.668.824-3.498 2.282-6.472 5.434-8.404l.466.216c-.316 1.884-1.084 3.636-1.392 5.538-.914 5.636-.518 11.456-.27 17.136 1.8-2.088 3.512-3.976 5.708-5.666.112-2.464.258-5.084.016-7.544-.368-3.72-1.916-7.92-1.294-11.642.832-4.986 6.512-9.532 10.438-12.296z" class="E"/><path d="M295.46 277.028c-3.09-1.772-5.82-4.766-6.956-8.176-.376-1.13-.78-2.656-.21-3.76 1.72.684 2.812 3.546 4.514 4.812l.336.244c2.842 2.99 5.984 5.974 8.488 9.256-2.056-.784-4.144-1.522-6.172-2.376z" class="H"/><path d="M293.144 270.148c7.862-.856 17.576 1.406 24.618-2.828 4.252-2.558 8.576-6.34 13.23-8.008l.442-.154c-1.074 7.752-4.152 14.196-10.55 19.012-4.654 3.502-10.588 5.686-16.452 4.842-3.874-.556-7.406-2.298-10.796-4.166l1.824-1.818c2.028.854 4.116 1.592 6.172 2.376-2.504-3.282-5.646-6.266-8.488-9.256z" class="G"/><defs><linearGradient id="I" x1="55.909" y1="128.349" x2="95.01" y2="127.545" href="#B"><stop offset="0" stop-color="#d72513"/><stop offset="1" stop-color="#ef6f2c"/></linearGradient></defs><path fill="url(#I)" transform="matrix(2 0 0 2 -.000061 0)" d="M78.023 94.375c6.106-2.91 16.277-3.301 22.574-1.035 2.384.858 4.557 2.474 5.652 4.808.528 1.126 1.031 2.77.634 4.01-.168.525-.531.93-1.001 1.202-3.188.403-6.961-.315-9.926.171-.537.089-.73.341-1.097.706-11.179.281-9.957-2.329-21.047 3.217-3.211 1.606-6.011 3.237-8.511 5.869-1.36 1.432-3.006 3.61-2.955 5.679.013.526.116 1.065.213 1.581-2.508 5.364-2.667 13.453-1.422 19.183.447 2.057 1.321 4.02 1.761 6.038.22.714.231 1.078.82 1.556-.076 2.341 1.304 6.104 2.674 7.958l-1.135.748c-2.236-4.128-5.125-8.178-6.945-12.491-3.36-7.96-3.906-16.856-.638-24.873 1.399-2.87 3.209-5.23 5.352-7.58l.865-.804c1.546-.953 2.967-2.27 4.423-3.37.42-1.254 8.411-11.123 9.708-12.572z"/><path d="M156.046 188.75c12.212-5.82 32.554-6.601 45.148-2.071 4.768 1.715 9.114 4.948 11.304 9.616 1.056 2.251 2.062 5.539 1.268 8.019-.336 1.05-1.062 1.86-2.002 2.404-6.79-.15-13.481-.952-20.194-1.954-10.163-1.516-24.683-6.31-34.546-2.602-7.422 2.79-13.366 8.22-20.394 11.732.839-2.508 16.822-22.246 19.416-25.144z" class="F"/><defs><linearGradient id="J" x1="97.235" y1="123.683" x2="74.448" y2="138.582" href="#B"><stop offset="0" stop-color="#e2e0cc"/><stop offset="1" stop-color="#fff"/></linearGradient></defs><path fill="url(#J)" transform="matrix(2 0 0 2 -.000061 0)" d="M82.994 110.285c2.233.056 8.136.121 9.896 1.524l-.097.269-.521.061-.171.082-.072.69c4.942 2.129 8.596 5.277 10.613 10.359.416 1.049.655 2.173.85 3.282.166 1.457.47 2.917-.344 4.236l-1.463 1.667c.636-.021.913-.143 1.413.329.849.8.85 2.158.924 3.245-.216 1.637-.958 2.872-2.276 3.874-1.832 1.392-4.286 2.092-6.476 2.713.511.692.872 1.145 1.781 1.285.069.01.139.017.209.026-1.27.159-2.41.555-3.611.971-1.029.113-2.075.093-3.109.104-1.325.559-2.702.615-4.124.568-1.209-.239-2.585-.261-3.819-.376-1.014-.165-1.881-.356-2.815-.789-1.273-.576-2.646-1.026-3.952-1.53-1.664-1.163-3.369-2.12-4.749-3.638-1.547-2.378-3.029-5.053-3.902-7.761-1.716-5.325 1.059-9.92 3.403-14.53.266-.428.546-.856.865-1.246 2.898-3.535 7.161-4.949 11.549-5.415z"/><path d="M165.105 286.812c8.836.726 16.768.096 25.432-1.58 1.022 1.384 1.745 2.29 3.561 2.57.138.02.278.034.417.052-2.539.318-4.819 1.11-7.221 1.942-2.058.226-4.15.186-6.219.208-2.651 1.118-5.403 1.23-8.248 1.136-2.417-.478-5.171-.522-7.639-.752-2.029-.33-3.761-.712-5.631-1.578.331-.058.648-.132.976-.202 1.71-.364 2.364-1.018 3.556-2.234l1.016.438z" class="I"/><path d="M164.089 286.374l1.016.438c1.673 1.716 2.879 1.894 5.223 1.918 3.224.034 6.837-.718 9.943.194.312.344.653.634.805 1.08-2.651 1.118-5.403 1.23-8.248 1.136-2.417-.478-5.171-.522-7.639-.752-2.029-.33-3.761-.712-5.631-1.578l.976-.202c1.71-.364 2.364-1.018 3.556-2.234z" class="N"/><path d="M157.325 259.848c2.232.918 5.18 4.058 6.259 6.218l3.372 2.45 5.685 5.232c1.404-.942 2.795-1.068 4.432-1.284 6.886 3.408 15.866-3.976 21.211-1.502-4.555 5.522-9.385 10.7-16.952 11.584-5.172.602-10.305-1.078-14.35-4.296-5.782-4.602-8.897-11.166-9.657-18.402z" class="G"/><path d="M163.585 266.066l3.372 2.45 5.685 5.232c1.598 1.55 2.965 3.326 4.37 5.048-4.038-1.878-8.309-4.542-11.27-7.924-1.316-1.504-2.299-2.732-2.157-4.806z" class="H"/><path fill="#231518" d="M165.987 220.57c4.466.112 16.273.242 19.793 3.048l-.194.538-1.043.122-.342.164c-8.404-1.03-20.368 4.666-26.838 9.73-7.494 5.866-13.093 14.772-14.237 24.308-.766 6.382.423 13.064 4.509 18.178 3.391 4.244 10.925 9.03 16.453 9.716-1.192 1.216-1.846 1.87-3.556 2.234l-.976.202c-2.546-1.152-5.292-2.052-7.904-3.06-3.328-2.326-6.737-4.24-9.498-7.276-3.093-4.756-6.059-10.106-7.804-15.522-3.432-10.65 2.117-19.84 6.807-29.06.532-.856 1.091-1.712 1.731-2.492 5.795-7.07 14.322-9.898 23.099-10.83z"/><path d="M184.057 225.822c9.885 4.258 17.191 10.554 21.225 20.718.832 2.098 1.31 4.346 1.7 6.564.332 2.914.94 5.834-.688 8.472l-2.926 3.334c-1.682 2.01-3.314 4.122-5.083 6.052-5.346-2.474-14.325 4.91-21.211 1.502-1.637.216-3.027.342-4.432 1.284l-5.685-5.232c-1.068-.882-2.239-1.652-3.372-2.45-1.079-2.16-4.027-5.3-6.259-6.218-.06-.28-.072-.302-.097-.636-.708-9.472 5.279-18.004 11.286-24.706 4.138-4.618 9.151-8.316 15.543-8.684z" class="E"/><path d="M166.957 268.516c4.305-.232 6.674 1.702 10.117 3.948-1.637.216-3.027.342-4.432 1.284l-5.685-5.232z" class="C"/><path d="M166.259 241.75l.508.346c2.193 1.67 3.269 5.772 3.583 8.39.474 3.96.122 6.86-2.353 10.002-.461-.144-.894-.282-1.276-.592-2.074-1.678-2.869-6.434-2.985-8.922-.176-3.782-.062-6.382 2.522-9.224z" class="S"/><path d="M185.09 108.679l.553-2.663.601-.128c5.05 3.543 6.84 16.515 7.922 22.095l-.386.448c-1.045-.594-1.467-.823-1.911-2.007-.04-.107-.058-.221-.088-.332-.574 1.054-1.421 2.261-1.722 3.417 1.635 4.577 2.506 9.389 4.354 13.881 3.194 6.624 10.497 15.077 11.853 21.756 5.42 6.766 10.884 13.454 17.344 19.277 3.648 3.288 8.228 6.184 11.594 9.62l1.432.826c1.66.012 2.366-1.296 3.536-2.409.094-.034.19-.064.282-.101 2.314-.942 6.828-3.058 7.754-5.458.59-1.532 1.114-6.459.512-7.951-1.432.095-2.892.318-4.284-.105 2.546-.288 5.112-.283 7.198-1.932l.354-.288c3.958 1.703 8.254 3.355 12.486 4.202 4.118 1.109 10.644 1.65 14.042 3.984 1.776-.235 3.714-.956 5.464-1.414 4.548.176 13.796 1.408 17.632-.546 3.38-.672 15.798 5.084 19.026 7.231 5.374 3.574 9.15 8.905 12.94 14.024l-1.004 2.02-2.108-.936c-9.132 4.308-23.126-.868-34.51 1.412q-2.68.81-5.346 1.664c-22.378 16.528-25.548 19.782-33.828 46.736l-.19-.052c-8.916-2.348-21.308-3.186-30.474-1.374-.406-2.068-1.054-4.12-1.78-6.098-5.946-16.22-18.876-31.69-34.621-39.004.736-.73 1.12-1.234 2.195-1.412 5.931-.972 13.476.464 19.852-.342.94-.544 1.666-1.354 2.002-2.404.794-2.48-.212-5.768-1.268-8.019-2.19-4.668-6.536-7.901-11.304-9.616-12.594-4.53-32.936-3.749-45.148 2.071-.142-.218-.207-.284-.272-.572-.567-2.506 4.962-7.881 6.315-10.337 2.188-4.276 4.42-8.301 7.681-11.863-2.209-5.224 3.36-13.215 2.385-19.656 2.748-7.017 4.51-14.372 7.516-21.312 1.957-5.319 4.439-10.736 5.418-16.33z" class="L"/><path d="M186.797 127.395c1.146.593 2.546 1.034 3.262 2.113 1.635 4.577 2.506 9.389 4.354 13.881 3.194 6.624 10.497 15.077 11.853 21.756-5.352-5.509-9.141-11.392-12.907-18.062-3.607-6.156-5.214-12.752-6.562-19.689z" class="Q"/><path d="M185.226 114.879c1.086 1.088 1.201 1.631 1.199 3.202l-.144 7.677-.188-.211c-1.629-2.052.095-4.914-1.527-6.681-3.529 6.433-2.866 20.292-6.863 28.088l.224.718c2.755-4.348 2.344-8.66 4.392-13.091l.252.066c.839.214 1.637.336 2.498.41.934 1.285.778 2.832 1.076 4.347l-.766.946c-1.305-.474-1.099-1.592-2.598-1.653-4.899 5.08-6.818 37.606-20.526 39.098-.057.006-.111.031-.166.046 2.188-4.276 4.42-8.301 7.681-11.863 6.109-9.058 9.881-29.629 11.812-40.793.916-3.548 1.83-7.097 3.643-10.304z" class="D"/><path d="M185.09 108.679l.553-2.663.601-.128c5.05 3.543 6.84 16.515 7.922 22.095l-.386.448c-1.045-.594-1.467-.823-1.911-2.007-.04-.107-.058-.221-.088-.332-.574 1.054-1.421 2.261-1.722 3.417-.715-1.079-2.116-1.52-3.262-2.113l-.516-1.637.144-7.677c.002-1.571-.113-2.114-1.199-3.202-1.813 3.208-2.727 6.757-3.643 10.304-1.931 11.165-5.703 31.735-11.812 40.793-2.209-5.224 3.36-13.215 2.385-19.656 2.748-7.017 4.51-14.372 7.516-21.312 1.957-5.319 4.439-10.736 5.418-16.33z" class="C"/><path fill="#7a7446" d="M185.226 114.879l.259-.915.716-.169c2.41 3.873 4.113 7.986 5.579 12.295-.574 1.054-1.421 2.261-1.722 3.417-.715-1.079-2.116-1.52-3.262-2.113l-.516-1.637.144-7.677c.002-1.571-.113-2.114-1.199-3.202z"/><path d="M301.612 182.848c3.38-.672 15.798 5.084 19.026 7.231 5.374 3.574 9.15 8.905 12.94 14.024l-1.004 2.02-2.108-.936c-9.132 4.308-23.126-.868-34.51 1.412q-2.68.81-5.346 1.664c-3.96-2.236-11.676 1.674-17.764-2.148-.228-.036-.456-.072-.68-.124-3.718-.846-5.746-3.76-7.65-6.774 3.404-6.676 7.816-10.392 14-14.409 1.776-.235 3.714-.956 5.464-1.414 4.548.176 13.796 1.408 17.632-.546z" class="F"/><path d="M272.846 206.116c8.348-2.272 19.646-2.35 28.358-2.638q-2.638 1.538-5.248 3.122-2.68.81-5.346 1.664c-3.96-2.236-11.676 1.674-17.764-2.148z" class="R"/><path d="M301.204 203.478c8.652-.724 21.102-1.806 29.262 1.71-9.132 4.308-23.126-.868-34.51 1.412q2.61-1.584 5.248-3.122z" class="I"/><path d="M132.786 310.634c9.864 9.706 21.32 13.944 35.22 13.792 14.979-.164 29.915-5.716 40.422-16.576 5.834-6.03 10.232-13.454 13.516-21.14 2.39-5.59 4.304-13.194 8.448-17.658 2.406-2.592 5.362-3.51 8.826-3.602 3.406-.092 7.436.108 10.024 2.598 5.576 5.368 8.02 15.476 11.266 22.38 7.284 15.494 17.568 24.29 33.436 30.434 6.75 2.616 13.696 4.514 20.984 4.48 2.6-.012 5.362-.084 7.89-.722 7.032-1.776 21.144-10.71 26.532-10.484.634.77.772 1.38.966 2.348.248 5.526-2.678 11.054-3.726 16.414-1.148 2.704-2.698 5.482-3.598 8.26-2.948 8.952-8.844 17.998-15.41 24.726-8.244 7.494-16.43 14.794-26.25 20.208-6.992 3.852-15.248 6.994-21.73 11.558l-.188.888-.026 2.342c1.34 1.246 2.81.294 3.932 1.624.048 1.328-.212 2.32-.608 3.562.688 2.732 3.15 8.754 2.758 11.322-.784.958-1.312 1.432-1.542 2.674l1.762.36c.398.628.7.878.46 1.688-.482 1.634-1.798 1.934-1.962 3.844l.514.692c1.028-.012 1.982 0 2.998.168.654.98.918 1.686.66 2.896-.49 2.302-3.158 4.628-1.942 7.074-1.59 1.258-3.54 1.696-5.306 2.744-4.88 2.898-9.686 5.934-14.69 8.618-5.636 3.022-20.11 9.328-23.956 12.802l-.444-.428c-3.906-3.6-11.63-8.328-17.046-8.116-5.312-3.038-15.052-5.182-19.168-9.122l-.112-.866-1.326-.786.112-.698 2.46-.562-1.184-.71-.072-.758c1.692-1.192 3.338-.602 5.122-1.622.084-.048.166-.102.248-.152-1.882-1.432-4.142-2.584-6.172-3.81.136-2.592.44-5.202.666-7.788 1.048-4.652 1.396-9.652 2.214-14.374-.746-3.034-.772-6.482-1.022-9.606-2.754-5.408-29.809-17.112-36.81-22.162-5.453-3.932-9.661-8.902-13.87-14.076-3.034-3.84-6.256-7.752-8.504-12.112-5.85-8.616-10.083-16.806-12.859-26.888-1.278-4.642-2.014-9.88-4.184-14.182l2.271-1.496z" class="L"/><path d="M219.214 307.374c1-2.492 1.366-3.05 3.644-4.398.188 1.676.468 3.398.388 5.084-1.294-.368-2.702-.488-4.032-.686z" class="Q"/><path d="M147.558 353.2c2.999.082 4.444 1.56 6.421 3.632 2.204 2.308 4.24 5.062 6.046 7.696l-3.962.784c-3.034-3.84-6.256-7.752-8.504-12.112z" class="R"/><g class="J"><path d="M252.97 314.302c2.252-1.188 3.498-4.426 6.006-4.856.09 2.654.148 4.394-1.768 6.394-4.276 4.464-13.266 4.558-19.038 4.708l1.838-.898.352-1.048c2.468-.014 5.47.078 7.838-.658 1.858-.578 2.926-1.354 3.814-3.092l.958-.55zm-3.744 22.446c8.208.866 16.534-.454 24.636-1.718l.726 4.058c-7.106-.86-15.162 2.314-21.96.842l.146-.306-.242-.386c-1.57-.54-2.254-1.24-3.306-2.49z"/><path d="M219.214 307.374c1.33.198 2.738.318 4.032.686 5.422 4.836 9.684 8.998 17.114 10.542l-.352 1.048-1.838.898c-3.74.132-6.814-.614-10.062-2.506-3.85-2.242-7.696-6.282-8.894-10.668z"/></g><path d="M273.862 335.03c3.748-1.666 9.04-4.808 13.166-4.212.816.564 1.2.696 1.432 1.726.576 2.568-1.744 5.896-3.008 7.99l-5.18-1.898c-1.748.89-3.286 1.838-5.266 1.562l-.418-1.11-.726-4.058z" class="O"/><path d="M227.862 279.15c.836.232 1.638.288 2.206.974 3.15 3.81 4.292 9.588 7.954 12.93 3.008 2.746 12.968 2.248 16.726 5.844.55.528.456.71.494 1.46l-.586.502-5.934-.68c-5.138-.47-19.768-1.712-22.96-5.828-.802-1.03-.994-1.898-.898-3.176 1.472-1.488 3.596-1.346 5.612-1.51 1.784-2.296-3.472-5.14-2.614-10.516z" class="B"/><path d="M202.93 333.43l23.284 1.802c7.512.406 15.618.246 23.012 1.516 1.052 1.25 1.736 1.95 3.306 2.49l.242.386-.146.306c-9.166 1.702-20.912.41-30.218-.46-4.276-.4-14.128-2.506-17.784-1.458-.986-1.578-1.502-2.726-1.696-4.582z" class="J"/><path d="M222.858 302.976c1.782-.764 3.388-1.244 5.334-1.318 1.714-.064 28.876 2.036 29.262 2.166.638.212.972.724 1.17 1.35.386 1.226.272 2.986.352 4.272-2.508.43-3.754 3.668-6.006 4.856l-.958.55c-.888 1.738-1.956 2.514-3.814 3.092-2.368.736-5.37.644-7.838.658-7.43-1.544-11.692-5.706-17.114-10.542.08-1.686-.2-3.408-.388-5.084z" class="B"/><path d="M236.6 308.424c4.056.438 8.784.002 12.594 1.536 2.184.88 2.918 2.262 3.776 4.342l-.958.55a18.72 18.72 0 0 0-.84-.646l-.388-.276c-3.754-2.696-9.868-3.164-14.184-5.506z" class="N"/><defs><linearGradient id="K" x1="156.72" y1="188.739" x2="151.984" y2="180.642" href="#B"><stop offset="0" stop-color="#ab4c27"/><stop offset="1" stop-color="#a77c31"/></linearGradient></defs><path fill="url(#K)" transform="matrix(2 0 0 2 -.000061 0)" d="M136.003 197.03c2.483-1.448 5.387-2.486 7.979-3.782 6.344-3.171 14.102-7.534 18.746-12.892 2.841-3.279 4.852-6.934 6.96-10.696.801.069 1.16.458 1.808.919-1.474 4.476-4.422 8.999-7.705 12.363-4.122 3.747-8.215 7.397-13.125 10.104-3.496 1.926-7.624 3.497-10.865 5.779-.739-1.372-2.596-.764-3.798-1.795z"/><path d="M160.024 364.528q3.171 3.666 6.789 6.89 3.619 3.224 7.624 5.954c15.268 10.488 43.958 22.768 62.432 24.004 12.412.83 23.956-2.042 35.136-7.316 2.404 2.062 6.118.846 7.596 3.59l-.188.888c-.67 2.628-.606 5.284-.634 7.978l-.096 2.988-.214.038c-3.824.708-7.398 2.462-10.87 4.15-12.128 5.9-20.476 9.83-34.212 7.244-9.104-1.712-15.162-5.608-22.81-10.458-.994-.63-1.722-1.186-2.464-.08-.166.25-.266.47-.35.758-.746-3.034-.772-6.482-1.022-9.606-2.754-5.408-29.809-17.112-36.81-22.162-5.453-3.932-9.661-8.902-13.87-14.076l3.962-.784zm35.808-23.512c-1.378-1.044-5.208-5.528-5.525-7.132-.131-.66.155-.846.512-1.37 3.284-1.402 8.641.268 12.111.916.194 1.856.71 3.004 1.696 4.582 3.656-1.048 13.508 1.058 17.784 1.458 9.306.87 21.052 2.162 30.218.46 6.798 1.472 14.854-1.702 21.96-.842l.418 1.11c1.98.276 3.518-.672 5.266-1.562l5.18 1.898c-8.502 15.15-17.92 29.14-35.53 34.122-9.428 2.666-19.646 2.132-28.268-2.764-9.046-5.136-14.69-13.85-20.556-22.12-1.76-2.482-4.412-5.5-5.195-8.45-.027-.102-.047-.204-.071-.306z" class="N"/><path fill="#231518" d="M195.832 341.016c-1.378-1.044-5.208-5.528-5.525-7.132-.131-.66.155-.846.512-1.37 3.284-1.402 8.641.268 12.111.916.194 1.856.71 3.004 1.696 4.582 5.186 8.112 9.3 11.452 18.75 13.518 14.482 3.17 30.962 3.172 44.736-2.81l.352.524c-1.054.764-2.136 1.47-3.312 2.034-15.77 7.548-41.004 4.554-56.434-2.528-4.686-2.15-7.906-6.014-12.886-7.734z"/><path d="M204.626 338.012c3.656-1.048 13.508 1.058 17.784 1.458 9.306.87 21.052 2.162 30.218.46 6.798 1.472 14.854-1.702 21.96-.842-1.146 4.296-3.312 6.626-6.476 9.632-13.774 5.982-30.254 5.98-44.736 2.81-9.45-2.066-13.564-5.406-18.75-13.518z" class="S"/><path d="M279.414 398.538l-.026 2.342c1.34 1.246 2.81.294 3.932 1.624.048 1.328-.212 2.32-.608 3.562.688 2.732 3.15 8.754 2.758 11.322-.784.958-1.312 1.432-1.542 2.674l1.762.36c.398.628.7.878.46 1.688-.482 1.634-1.798 1.934-1.962 3.844l.514.692c1.028-.012 1.982 0 2.998.168.654.98.918 1.686.66 2.896-.49 2.302-3.158 4.628-1.942 7.074-1.59 1.258-3.54 1.696-5.306 2.744-4.88 2.898-9.686 5.934-14.69 8.618-5.636 3.022-20.11 9.328-23.956 12.802l-.444-.428c-3.906-3.6-11.63-8.328-17.046-8.116-5.312-3.038-15.052-5.182-19.168-9.122l-.112-.866-1.326-.786.112-.698 2.46-.562-1.184-.71-.072-.758c1.692-1.192 3.338-.602 5.122-1.622.084-.048.166-.102.248-.152-1.882-1.432-4.142-2.584-6.172-3.81.136-2.592.44-5.202.666-7.788 1.048-4.652 1.396-9.652 2.214-14.374.084-.288.184-.508.35-.758.742-1.106 1.47-.55 2.464.08 7.648 4.85 13.706 8.746 22.81 10.458 13.736 2.586 22.084-1.344 34.212-7.244 3.472-1.688 7.046-3.442 10.87-4.15l.214-.038.096-2.988c.028-2.694-.036-5.35.634-7.978z" class="B"/><path d="M279.414 398.538l-.026 2.342c1.34 1.246 2.81.294 3.932 1.624.048 1.328-.212 2.32-.608 3.562.688 2.732 3.15 8.754 2.758 11.322-.784.958-1.312 1.432-1.542 2.674l1.762.36c.398.628.7.878.46 1.688-.482 1.634-1.798 1.934-1.962 3.844l.514.692c1.028-.012 1.982 0 2.998.168.654.98.918 1.686.66 2.896-.49 2.302-3.158 4.628-1.942 7.074-1.59 1.258-3.54 1.696-5.306 2.744-4.88 2.898-9.686 5.934-14.69 8.618-5.636 3.022-20.11 9.328-23.956 12.802l-.444-.428c-3.906-3.6-11.63-8.328-17.046-8.116-5.312-3.038-15.052-5.182-19.168-9.122l-.112-.866-1.326-.786.112-.698 2.46-.562-1.184-.71-.072-.758c1.692-1.192 3.338-.602 5.122-1.622.084-.048.166-.102.248-.152 2.014.592 4.314 2.226 6.162 3.298 9.024 5.236 16.998 12 27.104 15.064 12.038-5.622 30.666-13.992 39.238-24.152-2.66-7.008-3.794-14.452-4.876-21.834l.096-2.988c.028-2.694-.036-5.35.634-7.978z" class="C"/><path d="M112.437 474.014l1.598.488c-5.893 8.314-10.643 16.106-14.639 25.498H95.31c5.213-9.15 10.702-17.648 17.127-25.986zm257.667-2.602c1.052-.132 2.262-.846 3.242-1.272 2.208 6.802 8.276 12.804 12.412 18.586 2.57 3.59 4.76 7.406 6.882 11.274h-2.898c-3.872-4.244-18.26-23.374-19.638-28.588z" class="J"/><path d="M363.694 98.918l.124-.657c3.516 1.054 6.816 11.732 10.214 12.582.018-2.886-7.702-11.648-9.596-14.776l.3-.856c29.816 34.79 47.242 103.589 52.06 148.252 1.816 16.826 1.79 34.17 2.542 51.094.698 15.712 2.39 31.098 1.172 46.852-1.842 23.83-7.646 47.396-21.248 67.412-.03-3.1 4.95-12.008 6.386-15.398 4.312-10.186 7.78-20.998 9.712-31.904 3.696-20.872 2.592-42.854 1.748-63.922-.682-17.032-1.386-34.232-3.362-51.166-5.802-49.719-21.114-106.247-50.052-147.512z" class="E"/><path d="M62.815 251.284c1.259-16.434 4.301-32.932 7.854-49.012 1.095-4.958 6.265-20.686 6.187-23.852-.705-.128-1.147-.202-1.707-.695.383-2.317 2.887-3.708 3.801-5.884 2.47-5.878 4.365-12.359 6.276-18.461 1.315-4.203-.907-5.777-.081-8.839l.337-.027c.516.916.859 1.838 1.214 2.822 1.171-.606 1.697-1.891 2.243-3.037 6.748-14.154 10.265-26.771 19.341-40.213 12.508-18.523 30.163-34.631 49.19-46.294 9.91-6.075 20.758-11.578 31.781-15.305 27.434-9.273 62.974-11.45 91.112-4.636 28.414 6.881 53.726 22.797 73.496 44.195 3.734 4.043 8.018 8.461 10.878 13.164l-.3.856c1.894 3.128 9.614 11.89 9.596 14.776-3.398-.85-6.698-11.528-10.214-12.582l-.124.657c-3.246-3.015-6.08-6.69-9.206-9.865-10.16-10.323-20.44-18.891-32.892-26.426-.794-.766-2.174-1.394-3.138-1.982l-.656-.522-2.334-1.092c-5.982-5.825-31.328-15.307-39.71-17.24-7.676-1.771-16.594-2.788-24.488-2.746-46.244-.581-86.817 12.39-120.44 45.173q-3.595 3.459-6.94 7.16-3.345 3.701-6.425 7.626-3.079 3.925-5.878 8.055-2.798 4.13-5.302 8.445-2.504 4.315-4.701 8.794-2.197 4.479-4.077 9.1-1.88 4.621-3.433 9.362-1.553 4.741-2.772 9.579c-5.718 13.091-11.597 26.759-14.818 40.729-1.383 5.999-10.844 63.675-11.347 64.247l-.234-.612-.354.556.375-.128-.748.004.094 1.508c-.311-2.518-.844-4.904-1.458-7.358z" class="G"/></svg>