<?xml version="1.0" encoding="utf-8" ?>
<svg xmlns="http://www.w3.org/2000/svg" xmlns:xlink="http://www.w3.org/1999/xlink" width="500" height="500">
	<path fill="#3F0802" transform="scale(2 2)" d="M149.746 201.365C150.108 200.955 150.222 200.567 150.357 200.052L150.408 199.855C150.805 200.307 151.249 200.593 151.746 200.919C151.83 205.772 152.006 210.627 152.766 215.428C152.794 215.607 152.78 215.562 152.75 215.791C152.283 215.958 151.886 216.013 151.579 216.42C151.019 215.543 150.708 214.454 150.345 213.481C150.002 210.89 149.838 208.292 149.702 205.683C149.897 204.324 149.752 202.747 149.746 201.365Z"/>
	<path fill="#0C563D" transform="scale(2 2)" d="M60.0582 250Q60.3143 249.238 60.6044 248.489C61.577 245.997 63.4218 243.705 65.0986 241.657C74.1544 230.594 87.0269 225.116 99.7811 219.55C98.9821 220.631 97.9286 221.372 98.15 222.819Q98.1887 223.066 98.2372 223.312L97.8975 223.765C95.9146 223.461 79.9902 231.975 77.6076 233.741L77.4448 233.863C75.774 234.698 73.3629 236.399 72.251 237.918C68.1522 240.458 65.8571 246.247 62.9849 250L60.0582 250Z"/>
	<path fill="#0C563D" transform="scale(2 2)" d="M163.681 220.099C167.82 221.766 171.48 224.229 175.292 226.504C187.078 233.536 193.569 237.244 200.463 250L198.301 250C197.137 246.998 193.682 242.963 190.962 241.213C187.328 237.154 182.974 234.996 178.382 232.248L164.809 224.159L165.186 224.059C164.243 223.133 162.501 222.483 161.302 221.878C161.336 221.344 161.356 221.33 161.721 220.937C163.031 221.608 164.327 222.273 165.695 222.82C165.105 221.633 164.15 221.68 163.681 220.099Z"/>
	<path fill="#DE5F35" transform="scale(2 2)" d="M59.199 122.63C60.8942 123.428 63.106 127.215 63.7898 128.978C64.5451 128.846 65.1695 128.4 65.8134 128.007C65.8725 131.866 66.3708 135.621 66.9566 139.426C67.3303 141.852 67.856 144.36 67.8823 146.82L68.139 149.308L67.9381 149.898L67.6049 149.905C67.0602 149.145 67.24 148.139 67.3109 147.255L66.6628 146.511C66.3362 146.429 66.3008 146.459 65.9811 146.58C65.4923 146.438 65.1172 146.31 64.7165 145.987C64.5392 145.844 64.1493 145.946 63.9172 145.964C63.96 147.437 64.1031 148.891 63.3638 150.226L63.4395 150.689C64.6946 151.298 65.394 150.359 66.4045 151.378C63.5456 151.532 61.2216 153.765 58.453 154.008C56.8419 154.15 55.5906 153.331 54.3122 154.747L54.0117 155.085C53.9294 155.178 53.8508 155.274 53.7726 155.37C52.6961 154.57 51.634 153.758 50.4808 153.07L50.2493 153.137L50.8577 154.443L50.6006 154.777C47.9971 151.646 46.7984 146.303 46.546 142.341C46.2136 137.125 46.6367 130.625 50.2974 126.531C52.8239 123.705 55.5595 122.824 59.199 122.63Z"/>
	<path fill="#A92512" transform="scale(2 2)" d="M63.7898 128.978C64.5451 128.846 65.1695 128.4 65.8134 128.007C65.8725 131.866 66.3708 135.621 66.9566 139.426C67.3303 141.852 67.856 144.36 67.8823 146.82L66.5614 145.595C65.4936 142.589 63.7596 139.703 62.5872 136.702C65.0124 138.36 64.7424 143.306 67.0374 144.906C67.2973 144.603 67.367 144.047 67.2815 143.639C66.5674 140.23 65.8593 136.684 65.6615 133.169C65.4045 132.877 65.2065 132.594 64.8174 132.482C65.0249 133.115 65.2052 133.592 65.0143 134.259C64.8577 134.807 64.8222 135.326 64.3151 135.611C64.2838 135.439 64.2673 135.286 64.2923 135.111C64.5929 133.007 64.1459 131.05 63.7898 128.978Z"/>
	<path fill="#981C0D" transform="scale(2 2)" d="M53.3253 133.007C53.744 132.661 54.2431 132.129 54.7256 131.9L55.2354 132.146C54.7978 132.897 54.1738 133.75 54.0943 134.628L54.4343 134.639C53.5597 140.204 52.7343 145.441 54.7258 150.862C53.5954 149.713 52.7146 148.702 52.2204 147.122C51.1824 143.805 51.7197 136.1 53.3253 133.007Z"/>
	<path fill="#7D1A12" transform="scale(2 2)" d="M53.3253 133.007C53.806 132.01 54.3028 131.198 55.406 130.828C56.1865 130.567 56.9599 130.736 57.6732 131.101C59.8839 132.232 61.3466 134.641 62.5872 136.702C63.7596 139.703 65.4936 142.589 66.5614 145.595L67.8823 146.82L68.139 149.308L67.9381 149.898L67.6049 149.905C67.0602 149.145 67.24 148.139 67.3109 147.255L66.6628 146.511C66.3362 146.429 66.3008 146.459 65.9811 146.58C65.4923 146.438 65.1172 146.31 64.7165 145.987C64.5392 145.844 64.1493 145.946 63.9172 145.964C62.5322 141.913 61.231 135.739 57.6533 133.024C57.0294 132.551 56.6212 132.555 55.8699 132.639C55.0162 133.049 54.7879 133.819 54.4343 134.639L54.0943 134.628C54.1738 133.75 54.7978 132.897 55.2354 132.146L54.7256 131.9C54.2431 132.129 53.744 132.661 53.3253 133.007Z"/>
	<path fill="#DE5F35" transform="scale(2 2)" d="M188.738 132.289Q188.786 131.925 188.848 131.564C189.291 129.023 190.146 123.919 192.434 122.378C193.975 121.339 195.902 122.482 197.507 122.772C198.284 122.913 198.411 122.806 199.06 122.373C202.029 123.64 204.986 125.739 206.455 128.699C208.751 130.952 210.117 137.27 210.157 140.486C210.23 146.341 207.731 152.389 203.631 156.553C199.998 160.244 194.603 163.631 189.274 163.638C187.679 163.64 186.067 163.508 184.476 163.408C184.885 162.257 184.446 160.84 184.934 159.835C184.987 159.112 184.977 158.375 184.993 157.649C184.926 156.259 184.813 154.851 185.024 153.469C185.156 152.606 185.286 151.891 186.018 151.345C187.928 148.243 188.642 145.114 189.492 141.623C189.208 141.497 188.934 141.3 188.668 141.138C187.757 139.581 188.567 135.305 188.772 133.489C188.879 133.087 188.791 132.693 188.738 132.289Z"/>
	<path fill="#F0733F" transform="scale(2 2)" d="M192.848 130.299L192.678 129.903L193.25 129.5C193.282 129.82 193.279 130.145 193.288 130.466L192.848 130.299Z"/>
	<path fill="#F0733F" transform="scale(2 2)" d="M192 128.75L192.436 128.276L192.656 128.447L192.283 128.867L192.047 129.422L191.864 129.17L192 128.75Z"/>
	<path fill="#F0733F" transform="scale(2 2)" d="M188.738 132.289Q188.786 131.925 188.848 131.564C189.291 129.023 190.146 123.919 192.434 122.378C193.975 121.339 195.902 122.482 197.507 122.772C198.284 122.913 198.411 122.806 199.06 122.373C202.029 123.64 204.986 125.739 206.455 128.699C206.4 128.664 206.345 128.629 206.291 128.593C204.813 127.61 204.02 125.917 202.545 124.906C201.74 124.355 201.24 124.918 200.423 124.739C198.009 124.21 196.082 121.891 193.33 122.437C192.72 122.557 192.262 122.836 191.919 123.359C191.643 123.777 191.521 124.188 191.453 124.682C192.268 125.188 193.209 125.664 193.955 126.258L193.979 126.946C193.129 127.401 192.381 127.581 192.047 128.558C192.026 128.621 192.016 128.686 192 128.75C191.155 128.453 191.062 128.531 190.267 128.841C189.051 130.528 189.09 133.295 188.935 135.32C188.85 134.707 188.802 134.106 188.772 133.489C188.879 133.087 188.791 132.693 188.738 132.289Z"/>
	<path fill="#F0733F" transform="scale(2 2)" d="M193.25 129.5C193.327 128.305 194.138 127.337 194.665 126.245C195.427 126.203 195.424 126.604 196.026 126.823C196.815 127.109 198.011 126.142 199.064 126.5C199.148 126.856 199.048 127.071 198.924 127.397C199.933 127.939 200.666 126.937 201.18 128.534C201.379 129.151 201.204 130.069 201.032 130.68C202.352 133.115 204.978 137.334 204.224 140.173C204.212 140.216 204.199 140.258 204.186 140.3C203.674 137.773 203.255 134.807 201.692 132.683C200.912 131.624 199.823 130.893 198.507 130.714C197.265 130.544 196.186 130.717 195.179 131.473C193.219 132.872 192.144 134.89 191.151 137.025L190.863 136.678C191.49 134.83 192.827 133.48 193.669 131.757C193.961 131.161 194.119 130.518 193.866 129.879C193.786 129.677 193.446 129.592 193.25 129.5Z"/>
	<path fill="#E88F5A" transform="scale(2 2)" d="M188.205 152.223C189.674 153.014 192.582 153.099 194.239 152.908C198.679 152.397 201.073 150.088 203.707 146.774L203.548 146.578L203.946 146.677C204.267 147.428 203.979 148.295 203.834 149.066C202.391 152.796 198.649 156.646 195.006 158.244C191.802 159.65 188.634 159.401 185.411 160.337C185.217 160.175 185.052 160.064 184.934 159.835C184.987 159.112 184.977 158.375 184.993 157.649C184.926 156.259 184.813 154.851 185.024 153.469C185.156 152.606 185.286 151.891 186.018 151.345L188.205 152.223Z"/>
	<defs>
		<linearGradient id="gradient_0" gradientUnits="userSpaceOnUse" x1="190.70842" y1="139.32224" x2="201.5872" y2="148.08119">
			<stop offset="0" stop-color="#C64323"/>
			<stop offset="1" stop-color="#E46539"/>
		</linearGradient>
	</defs>
	<path fill="url(#gradient_0)" transform="scale(2 2)" d="M195.179 131.473C196.186 130.717 197.265 130.544 198.507 130.714C199.823 130.893 200.912 131.624 201.692 132.683C203.255 134.807 203.674 137.773 204.186 140.3C204.115 140.66 203.996 141.03 204.092 141.392C205.042 142.812 204.996 145.667 204.692 147.316C204.582 147.911 204.191 148.45 203.893 148.966C203.874 149 203.853 149.032 203.834 149.066C203.979 148.295 204.267 147.428 203.946 146.677L203.548 146.578L203.707 146.774C201.073 150.088 198.679 152.397 194.239 152.908C192.582 153.099 189.674 153.014 188.205 152.223L186.018 151.345C187.928 148.243 188.642 145.114 189.492 141.623Q190.294 139.314 191.151 137.025C192.144 134.89 193.219 132.872 195.179 131.473Z"/>
	<path fill="#981C0D" transform="scale(2 2)" d="M195.179 131.473C196.186 130.717 197.265 130.544 198.507 130.714C199.823 130.893 200.912 131.624 201.692 132.683C203.255 134.807 203.674 137.773 204.186 140.3C204.115 140.66 203.996 141.03 204.092 141.392C204.138 142.041 204.329 143.389 203.95 143.881C203.1 140.056 202.706 135.337 199.611 132.493C198.959 131.894 198.245 131.546 197.343 131.602C196.527 131.653 196.206 132.113 195.698 132.663C195.626 132.034 195.585 131.96 195.179 131.473Z"/>
	<path fill="#7D1A12" transform="scale(2 2)" d="M195.179 131.473C195.585 131.96 195.626 132.034 195.698 132.663C192.983 136.9 191.595 141.257 190.586 146.164C190.263 147.732 190.091 149.865 189.485 151.309C189.244 151.885 188.992 152.08 188.358 152.204C188.308 152.214 188.256 152.216 188.205 152.223L186.018 151.345C187.928 148.243 188.642 145.114 189.492 141.623Q190.294 139.314 191.151 137.025C192.144 134.89 193.219 132.872 195.179 131.473Z"/>
	<path fill="#A92512" transform="scale(2 2)" d="M63.9172 145.964C64.1493 145.946 64.5392 145.844 64.7165 145.987C65.1172 146.31 65.4923 146.438 65.9811 146.58C66.3008 146.459 66.3362 146.429 66.6628 146.511L67.3109 147.255C67.24 148.139 67.0602 149.145 67.6049 149.905L67.9381 149.898L68.139 149.308C68.6382 151.399 69.2992 154.228 69.2439 156.363C71.1284 165.948 74.6849 175.878 81.9372 182.74C84.4794 185.145 87.4474 187.129 90.3474 189.075C94.5448 191.891 98.8102 194.432 103.381 196.598C104.992 197.361 106.707 197.921 108.302 198.69C109.047 198.954 109.81 199.176 110.566 199.407C115.453 200.897 120.428 201.848 125.552 201.771C136.084 201.611 148.409 196.732 157.665 191.799C167.277 186.676 176.032 179.199 180.008 168.799C181.589 164.663 182.527 160.185 183.82 155.938L184.525 156.198C184.697 156.678 184.852 157.159 184.993 157.649C184.977 158.375 184.987 159.112 184.934 159.835C184.446 160.84 184.885 162.257 184.476 163.408C181.06 174.17 177.439 181.27 168.577 188.563C165.024 191.488 160.993 194.17 156.893 196.287C155.333 197.093 153.771 197.571 152.023 197.762C151.909 198.81 151.768 199.864 151.746 200.919C151.249 200.593 150.805 200.307 150.408 199.855L150.357 200.052C150.222 200.567 150.108 200.955 149.746 201.365C149.752 202.747 149.897 204.324 149.702 205.683C149.838 208.292 150.002 210.89 150.345 213.481C148.022 214.914 145.913 216.638 143.546 218.007C136.907 221.845 128.454 223.699 120.905 221.924C116.653 220.925 112.807 218.722 108.631 217.637L110.117 214.034Q109.803 212.978 109.531 211.91C109.194 212.349 109.171 212.863 109.09 213.394C109.141 210.971 109.156 208.605 108.98 206.186C108.854 204.45 108.501 202.74 108.587 200.995C104.608 201.299 97.0347 196.892 93.5223 194.854C79.1389 186.508 72.8676 178.349 68.656 162.443C66.47 163.161 64.6887 163.379 62.4073 162.91C57.6828 161.938 53.2268 158.79 50.6006 154.777L50.8577 154.443L50.2493 153.137L50.4808 153.07C51.634 153.758 52.6961 154.57 53.7726 155.37C53.8508 155.274 53.9294 155.178 54.0117 155.085L54.3122 154.747C55.5906 153.331 56.8419 154.15 58.453 154.008C61.2216 153.765 63.5456 151.532 66.4045 151.378C65.394 150.359 64.6946 151.298 63.4395 150.689L63.3638 150.226C64.1031 148.891 63.96 147.437 63.9172 145.964Z"/>
	<path fill="#7D1A12" transform="scale(2 2)" d="M149.746 201.365C149.705 200.7 149.674 200.013 149.699 199.346C149.728 198.541 149.956 198.153 150.535 197.632C151.12 197.543 151.477 197.514 152.023 197.762C151.909 198.81 151.768 199.864 151.746 200.919C151.249 200.593 150.805 200.307 150.408 199.855L150.357 200.052C150.222 200.567 150.108 200.955 149.746 201.365Z"/>
	<path fill="#981C0D" transform="scale(2 2)" d="M63.9172 145.964C64.1493 145.946 64.5392 145.844 64.7165 145.987C65.1172 146.31 65.4923 146.438 65.9811 146.58C66.3008 146.459 66.3362 146.429 66.6628 146.511L67.3109 147.255C67.24 148.139 67.0602 149.145 67.6049 149.905L67.9381 149.898L68.139 149.308C68.6382 151.399 69.2992 154.228 69.2439 156.363C69.0846 157.71 69.3266 158.863 69.6026 160.171L69.3435 160.253C68.4457 159.032 68.8482 157.209 67.7463 156.031C67.7094 155.991 67.6699 155.954 67.6317 155.916C66.9312 154.757 66.6883 152.711 66.4045 151.378C65.394 150.359 64.6946 151.298 63.4395 150.689L63.3638 150.226C64.1031 148.891 63.96 147.437 63.9172 145.964Z"/>
	<defs>
		<linearGradient id="gradient_1" gradientUnits="userSpaceOnUse" x1="57.793556" y1="152.28291" x2="66.998703" y2="159.3985">
			<stop offset="0" stop-color="#E77860"/>
			<stop offset="1" stop-color="#E09775"/>
		</linearGradient>
	</defs>
	<path fill="url(#gradient_1)" transform="scale(2 2)" d="M66.4045 151.378C66.6883 152.711 66.9312 154.757 67.6317 155.916C67.8571 157.136 68.2481 158.36 68.5628 159.562C63.4993 158.493 58.0132 158.787 53.7726 155.37C53.8508 155.274 53.9294 155.178 54.0117 155.085L54.3122 154.747C55.5906 153.331 56.8419 154.15 58.453 154.008C61.2216 153.765 63.5456 151.532 66.4045 151.378Z"/>
	<path fill="#CC3F23" transform="scale(2 2)" d="M147.96 204.833C148.276 204.299 148.736 203.312 149.331 203.142C149.487 203.99 149.618 204.826 149.702 205.683C149.838 208.292 150.002 210.89 150.345 213.481C148.022 214.914 145.913 216.638 143.546 218.007C136.907 221.845 128.454 223.699 120.905 221.924C116.653 220.925 112.807 218.722 108.631 217.637L110.117 214.034C110.645 211.819 111.314 209.475 111.389 207.196C113.407 208.149 115.336 209.171 117.428 209.976C130.692 215.081 136.016 210.126 147.96 204.833Z"/>
	<path fill="#7ACA3A" transform="scale(2 2)" d="M109.09 213.394C109.171 212.863 109.194 212.349 109.531 211.91Q109.803 212.978 110.117 214.034L108.631 217.637C112.807 218.722 116.653 220.925 120.905 221.924C128.454 223.699 136.907 221.845 143.546 218.007C145.913 216.638 148.022 214.914 150.345 213.481C150.708 214.454 151.019 215.543 151.579 216.42C151.886 216.013 152.283 215.958 152.75 215.791C152.934 216.012 153.189 216.411 153.408 216.581C154.208 217.201 156.365 217.474 157.374 217.752C159.556 218.353 161.612 219.19 163.681 220.099C164.15 221.68 165.105 221.633 165.695 222.82C164.327 222.273 163.031 221.608 161.721 220.937C161.356 221.33 161.336 221.344 161.302 221.878C162.501 222.483 164.243 223.133 165.186 224.059L164.809 224.159L178.382 232.248C182.974 234.996 187.328 237.154 190.962 241.213C193.682 242.963 197.137 246.998 198.301 250L181.857 250L181.5 250L119.778 250L65.7607 250L62.9849 250C65.8571 246.247 68.1522 240.458 72.251 237.918C73.3629 236.399 75.774 234.698 77.4448 233.863L77.6076 233.741C79.9902 231.975 95.9146 223.461 97.8975 223.765L98.2372 223.312Q98.1887 223.066 98.15 222.819C97.9286 221.372 98.9821 220.631 99.7811 219.55C100.423 219.132 101.31 218.844 102.017 218.525C104.058 217.867 106.51 216.938 108.178 215.573C108.942 214.949 108.998 214.322 109.09 213.394Z"/>
	<path fill="#BDEEB3" transform="scale(2 2)" d="M72.251 237.918C73.3629 236.399 75.774 234.698 77.4448 233.863C78.0609 233.888 78.6193 233.872 79.2329 233.798C79.633 234.024 79.8096 234.16 80.0263 234.569C77.9362 235.66 76.0945 236.966 74.1754 238.323L74.2157 237.79C74.635 237.384 75.1555 236.746 75.683 236.504C75.7426 236.476 75.8036 236.452 75.8639 236.426C74.6682 236.751 73.5917 237.818 72.3642 237.913C72.3265 237.916 72.2887 237.916 72.251 237.918Z"/>
	<path fill="#A4E07E" transform="scale(2 2)" d="M119.778 250C119.722 249.983 119.666 249.965 119.609 249.949C117.526 249.359 114.063 250.38 112.348 249.599C114.367 249.095 117.196 249.401 119.304 249.352C131.69 249.066 143.984 249.785 156.356 249.881C160.266 249.912 179.138 249.388 181.5 250L119.778 250Z"/>
	<path fill="#D4F3DE" transform="scale(2 2)" d="M72.251 237.918C72.2887 237.916 72.3265 237.916 72.3642 237.913C73.5917 237.818 74.6682 236.751 75.8639 236.426C75.8036 236.452 75.7426 236.476 75.683 236.504C75.1555 236.746 74.635 237.384 74.2157 237.79L74.1754 238.323C70.5608 241.861 68.1253 245.55 65.7607 250L62.9849 250C65.8571 246.247 68.1522 240.458 72.251 237.918Z"/>
	<path fill="#1F4E06" transform="scale(2 2)" d="M160.449 221.98C160.964 222.311 161.444 222.627 162.02 222.845C158.081 232.048 154.218 237.25 144.681 241.061C142.903 241.772 141.065 242.423 139.235 242.981C138.964 242.714 138.791 242.353 138.6 242.024Q141.4 241.229 144.06 240.051Q146.721 238.872 149.191 237.333C155.327 233.445 158.857 229.095 160.449 221.98Z"/>
	<path fill="#A4E07E" transform="scale(2 2)" d="M77.4448 233.863L77.6076 233.741C79.9902 231.975 95.9146 223.461 97.8975 223.765L97.7085 224.99C95.3793 226.692 92.6799 227.828 90.1389 229.173C86.7657 230.959 83.441 232.866 80.0263 234.569C79.8096 234.16 79.633 234.024 79.2329 233.798C78.6193 233.872 78.0609 233.888 77.4448 233.863Z"/>
	<defs>
		<linearGradient id="gradient_2" gradientUnits="userSpaceOnUse" x1="114.63942" y1="242.01727" x2="118.6114" y2="232.961">
			<stop offset="0" stop-color="#004000"/>
			<stop offset="1" stop-color="#0B690D"/>
		</linearGradient>
	</defs>
	<path fill="url(#gradient_2)" transform="scale(2 2)" d="M98.2372 223.312C98.6953 223.221 99.0277 223.108 99.4267 222.864C99.6233 228.288 102.569 232.568 106.471 236.199C112.372 241.689 121.907 243.581 129.731 243.268Q134.228 243.094 138.6 242.024C138.791 242.353 138.964 242.714 139.235 242.981C138.312 243.312 137.346 243.595 136.391 243.82C128.057 245.779 116.195 244.392 108.881 239.82C103.83 236.663 99.0749 230.844 97.7085 224.99L97.8975 223.765L98.2372 223.312Z"/>
	<path fill="#379F4A" transform="scale(2 2)" d="M190.962 241.213C193.682 242.963 197.137 246.998 198.301 250L181.857 250C184.294 247.165 189.185 243.897 190.962 241.213Z"/>
	<path fill="#7ACA3A" transform="scale(2 2)" d="M109.09 213.394C109.171 212.863 109.194 212.349 109.531 211.91Q109.803 212.978 110.117 214.034L108.631 217.637C112.807 218.722 116.653 220.925 120.905 221.924C128.454 223.699 136.907 221.845 143.546 218.007C145.913 216.638 148.022 214.914 150.345 213.481C150.708 214.454 151.019 215.543 151.579 216.42C151.886 216.013 152.283 215.958 152.75 215.791C152.934 216.012 153.189 216.411 153.408 216.581C154.208 217.201 156.365 217.474 157.374 217.752C159.556 218.353 161.612 219.19 163.681 220.099C164.15 221.68 165.105 221.633 165.695 222.82C164.327 222.273 163.031 221.608 161.721 220.937C161.356 221.33 161.336 221.344 161.302 221.878C162.501 222.483 164.243 223.133 165.186 224.059L164.809 224.159C163.862 223.803 162.934 223.283 162.02 222.845C161.444 222.627 160.964 222.311 160.449 221.98C158.857 229.095 155.327 233.445 149.191 237.333Q146.721 238.872 144.06 240.051Q141.4 241.229 138.6 242.024Q134.228 243.094 129.731 243.268C121.907 243.581 112.372 241.689 106.471 236.199C102.569 232.568 99.6233 228.288 99.4267 222.864C99.0277 223.108 98.6953 223.221 98.2372 223.312Q98.1887 223.066 98.15 222.819C97.9286 221.372 98.9821 220.631 99.7811 219.55C100.423 219.132 101.31 218.844 102.017 218.525C104.058 217.867 106.51 216.938 108.178 215.573C108.942 214.949 108.998 214.322 109.09 213.394Z"/>
	<path fill="#193400" transform="scale(2 2)" d="M120.197 234.181C121.782 234.609 123.345 234.905 124.969 235.148C125.104 235.531 125.236 235.898 125.305 236.299L125.067 236.659C123.456 236.374 121.738 236.031 120.226 235.4C120.418 234.983 120.286 234.609 120.197 234.181Z"/>
	<path fill="#231A00" transform="scale(2 2)" d="M113.78 231.446C115.879 232.436 117.971 233.505 120.197 234.181C120.286 234.609 120.418 234.983 120.226 235.4C117.734 234.928 114.894 233.812 112.75 232.44C113.44 232.142 113.444 232.121 113.78 231.446Z"/>
	<path fill="#022009" transform="scale(2 2)" d="M99.7811 219.55C100.423 219.132 101.31 218.844 102.017 218.525C102.023 219.147 102.015 219.477 102.533 219.925C102.933 220.271 103.541 220.417 104.055 220.468C102.688 221.004 100.37 221.701 99.4267 222.864C99.0277 223.108 98.6953 223.221 98.2372 223.312Q98.1887 223.066 98.15 222.819C97.9286 221.372 98.9821 220.631 99.7811 219.55Z"/>
	<path fill="#1F4E06" transform="scale(2 2)" d="M124.969 235.148C129.453 235.59 133.766 234.771 138.082 233.65L137.926 233.786C136.928 234.649 135.657 234.082 135.035 235.045C136.823 235.508 138.5 234.78 140.286 234.667C135.587 236.634 130.11 237.424 125.067 236.659L125.305 236.299C125.236 235.898 125.104 235.531 124.969 235.148Z"/>
	<path fill="#193400" transform="scale(2 2)" d="M150.828 225.75L151.127 226.065C151.686 225.538 152.185 224.127 152.731 223.895C152.785 224.998 151.549 225.542 151.58 226.547L151.9 226.614C149.354 230.573 144.545 233.023 140.286 234.667C138.5 234.78 136.823 235.508 135.035 235.045C135.657 234.082 136.928 234.649 137.926 233.786L138.082 233.65C142.954 231.52 147.079 229.62 150.828 225.75Z"/>
	<path fill="#022009" transform="scale(2 2)" d="M151.579 216.42C151.886 216.013 152.283 215.958 152.75 215.791C152.934 216.012 153.189 216.411 153.408 216.581C154.208 217.201 156.365 217.474 157.374 217.752C159.556 218.353 161.612 219.19 163.681 220.099C164.15 221.68 165.105 221.633 165.695 222.82C164.327 222.273 163.031 221.608 161.721 220.937C161.356 221.33 161.336 221.344 161.302 221.878C162.501 222.483 164.243 223.133 165.186 224.059L164.809 224.159C163.862 223.803 162.934 223.283 162.02 222.845C161.444 222.627 160.964 222.311 160.449 221.98C158.449 220.47 156.121 219.537 153.956 218.294C154.184 221.412 153.74 223.998 151.9 226.614L151.58 226.547C151.549 225.542 152.785 224.998 152.731 223.895C152.185 224.127 151.686 225.538 151.127 226.065L150.828 225.75C151.432 224.917 152.071 224.037 152.463 223.08C153.404 220.782 152.442 218.558 151.579 216.42Z"/>
	<path fill="#0F0B0E" transform="scale(2 2)" d="M109.09 213.394C109.171 212.863 109.194 212.349 109.531 211.91Q109.803 212.978 110.117 214.034L108.631 217.637C107.213 219.276 105.777 220.728 105.978 223.074C106.188 225.53 108.293 227.443 110.092 228.907C111.252 229.852 112.502 230.671 113.78 231.446C113.444 232.121 113.44 232.142 112.75 232.44C111.926 231.988 111.127 231.463 110.366 230.911C106.744 228.285 104.753 224.852 104.055 220.468C103.541 220.417 102.933 220.271 102.533 219.925C102.015 219.477 102.023 219.147 102.017 218.525C104.058 217.867 106.51 216.938 108.178 215.573C108.942 214.949 108.998 214.322 109.09 213.394Z"/>
	<path fill="#E88F5A" transform="scale(2 2)" d="M108.631 217.637C112.807 218.722 116.653 220.925 120.905 221.924C128.454 223.699 136.907 221.845 143.546 218.007C145.913 216.638 148.022 214.914 150.345 213.481C150.708 214.454 151.019 215.543 151.579 216.42C152.442 218.558 153.404 220.782 152.463 223.08C152.071 224.037 151.432 224.917 150.828 225.75C147.079 229.62 142.954 231.52 138.082 233.65C133.766 234.771 129.453 235.59 124.969 235.148C123.345 234.905 121.782 234.609 120.197 234.181C117.971 233.505 115.879 232.436 113.78 231.446C112.502 230.671 111.252 229.852 110.092 228.907C108.293 227.443 106.188 225.53 105.978 223.074C105.777 220.728 107.213 219.276 108.631 217.637Z"/>
	<defs>
		<linearGradient id="gradient_3" gradientUnits="userSpaceOnUse" x1="122.26309" y1="126.57592" x2="130.80135" y2="10.59271">
			<stop offset="0" stop-color="#0A050A"/>
			<stop offset="1" stop-color="#322827"/>
		</linearGradient>
	</defs>
	<path fill="url(#gradient_3)" transform="scale(2 2)" d="M112.747 9.35498C128.802 9.32513 144.579 12.602 158.69 20.396C163.252 22.916 167.427 25.6367 171.149 29.3273C172.48 30.648 173.661 32.0738 174.815 33.5498C173.143 28.4094 170.768 23.862 167.607 19.474C166.185 17.5014 164.606 15.6872 163.288 13.6335C165.996 14.2321 168.629 14.9981 171.167 16.1297C176.772 18.6286 186.434 25.0139 189.664 30.1111C192.33 34.3193 192.767 39.4591 191.661 44.2456C191.101 46.6714 190.159 49.1297 188.906 51.2827C194.205 49.7133 199.276 48.3076 204.47 51.1555C205.94 51.9619 210.107 54.3459 210.523 55.9254C210.584 56.1536 210.406 56.4524 210.323 56.6731C207.384 59.5565 198.192 58.7991 194.128 59.0853C199.681 62.8596 205.293 69.3035 206.575 76.095C206.848 77.5421 207.036 79.7278 206.172 81.0235C205.786 81.6013 205.193 81.9073 204.523 82.0163C202.442 82.3548 200.417 81.1898 198.704 80.1761C199.266 93.4296 197.999 106.442 197.303 119.654C197.266 120.358 197.128 121.121 197.729 121.609C198.103 121.913 198.633 122.145 199.06 122.373C198.411 122.806 198.284 122.913 197.507 122.772C195.902 122.482 193.975 121.339 192.434 122.378C190.146 123.919 189.291 129.023 188.848 131.564Q188.785 131.925 188.738 132.289L188.036 132.027C187.605 130.979 187.765 129.523 187.509 128.36C187.552 126.088 187.005 123.544 186.678 121.294C184.991 109.683 182.262 98.6024 178.982 87.3516C177.681 82.8887 176.519 78.2967 174.624 74.0417C174.084 73.3277 173.638 72.8396 172.857 72.3927C172.695 72.4058 172.528 72.3884 172.371 72.4321C172.076 72.5145 171.471 73.1105 171.193 73.3179C169.151 74.8409 167.107 76.2478 164.742 77.2308C161.342 78.6442 157.829 79.8204 154.397 81.1592C150.428 82.7074 146.436 84.5268 142.316 85.6093C138.052 86.7292 133.363 86.9664 128.983 87.4689C123.352 88.1149 117.595 89.0023 111.927 89.1097C111.511 89.2176 111.002 89.1915 110.57 89.2152L110.204 88.8546C110.234 88.1896 110.219 88.0619 110.604 87.5305Q110.126 87.0821 109.632 86.6503L109.607 86.1382C110.301 85.262 111.761 85.0296 112.805 84.8741C115.875 84.403 130.624 74.7489 133.048 72.2707C126.113 75.2484 119.042 77.0373 111.745 78.8543C105.824 80.3282 99.9389 81.7786 93.9043 82.7166C93.3432 82.9606 92.8074 83.19 92.29 83.52C90.5992 84.5984 75.5027 87.2131 73.609 86.7153C73.4505 86.6737 73.3097 86.6121 73.1653 86.5373L73.2942 84.8216L72.9516 84.5618C72.424 84.6465 72.0121 84.7783 71.5315 85.0116C70.1193 88.6435 69.7369 92.5411 69.2716 96.3821C69.1291 97.5583 69.1171 98.9982 68.7807 100.124C68.5041 109.541 66.732 118.679 65.8134 128.007C65.1695 128.4 64.5451 128.846 63.7898 128.978C63.106 127.215 60.8942 123.428 59.199 122.63L58.9469 121.492C57.992 117.245 57.9525 112.602 57.6546 108.254C57.1362 100.691 56.7006 93.079 55.8871 85.5418C53.3974 85.5291 49.7835 85.8655 47.8667 84.0024C47.2817 83.4337 46.9761 82.6851 46.9873 81.869C47.0249 79.1021 49.9604 76.0757 51.8675 74.3013C55.3164 71.0925 59.2714 68.6765 63.2294 66.1628C56.0196 66.5075 49.457 67.1397 43.7366 61.9462C42.8668 61.1566 41.3817 59.8292 41.3327 58.5942C41.3061 57.9229 41.8512 57.1869 42.3078 56.7399C45.4406 53.6729 53.4845 50.0856 57.6648 48.8501C60.887 47.8979 64.7863 47.2705 67.6682 45.5049C60.7114 45.4931 54.3516 43.4352 49.3029 38.4011C47.8761 36.9784 46.182 34.9839 45.5196 33.0632L45.6334 32.7411C49.4947 32.7404 53.3367 32.6855 57.18 32.275C62.7984 31.6748 68.3634 30.6016 73.9948 30.1112Q78.2033 29.725 82.4227 29.4852C84.266 29.3958 86.4765 29.6078 88.2412 29.1806C83.2546 26.7051 77.467 25.3515 75.4995 19.418C75.3009 18.8189 75.1108 18.2536 75.3009 17.6263C77.671 15.621 99.9178 17.3623 104.284 17.7237C111.248 18.3001 118.519 19.3103 125.373 20.6506C120.467 17.2961 115.691 14.7871 112.747 9.35498Z"/>
	<path fill="#926842" transform="scale(2 2)" d="M96.5593 72.0821C94.0862 74.4674 89.835 76.702 86.6686 78.0803C87.5358 76.9347 89.0771 76.0871 90.3663 75.4908L90.5598 75.4025L90.6205 75.1015C89.1659 75.1501 87.8087 75.9722 86.3645 75.8354C86.3117 75.8304 86.2593 75.8217 86.2067 75.8148C89.6212 74.4721 93.1686 73.4778 96.5593 72.0821Z"/>
	<path fill="#E88F5A" transform="scale(2 2)" d="M111.927 89.1097C111.511 89.2176 111.002 89.1915 110.57 89.2152L110.204 88.8546C110.234 88.1896 110.219 88.0619 110.604 87.5305Q110.126 87.0821 109.632 86.6503L109.607 86.1382C110.301 85.262 111.761 85.0296 112.805 84.8741Q111.055 85.8547 109.275 86.7783Q113.289 86.4128 117.311 86.1553L117.496 86.6204C116.957 87.4643 115.386 87.6306 114.467 87.8336C113.484 88.0511 111.922 88.1904 111.129 88.7713C111.454 89.0614 111.514 89.0523 111.927 89.1097Z"/>
	<path fill="#0F0B0E" transform="scale(2 2)" d="M113.022 33.4798C115.912 33.5854 119.06 35.2729 121.839 36.0954C123.234 36.5083 124.714 36.6979 126.09 37.1439C126.755 37.3595 127.391 37.8079 128.041 37.976C129.017 38.2287 130.245 38.1525 131.133 38.6199C129.929 38.5313 128.608 38.3544 127.403 38.4193C125.26 38.5345 123.105 39.1653 120.886 39.233C121.796 38.8989 124.166 38.7334 124.725 38.2326C124.33 37.6984 123.874 37.6677 123.259 37.4632C119.982 37.3354 116.455 35.2458 113.175 34.5258C115.06 33.4499 121.879 38.1124 124.411 37.0705C123.043 37.0623 114.886 34.1399 113.022 33.4798Z"/>
	<path fill="#0F0B0E" transform="scale(2 2)" d="M154.781 70.2342L155.052 70.5168C155.022 70.6258 154.983 70.7904 154.928 70.8985C153.372 73.9767 144.688 78.238 141.568 79.2205L141.193 78.9237C141.724 76.6163 152.368 72.0533 154.781 70.2342Z"/>
	<path fill="#DE5F35" transform="scale(2 2)" d="M86.2067 75.8148C86.2593 75.8217 86.3117 75.8304 86.3645 75.8354C87.8087 75.9722 89.1659 75.1501 90.6205 75.1015L90.5598 75.4025L90.3663 75.4908C89.0771 76.0871 87.5358 76.9347 86.6686 78.0803C85.0947 78.8083 79.503 80.7473 78.5998 81.7894L78.5731 82.0383C77.9227 82.3576 76.6478 83.0444 75.9504 82.8509C76.0984 82.5324 76.246 82.216 76.3739 81.8886L75.9774 81.8527C75.5965 82.1908 74.4636 83.3933 74.0389 83.3944L73.6694 82.9827C73.6833 82.907 73.7059 82.8323 73.7111 82.7555C73.7154 82.6917 73.6889 82.4208 73.6824 82.3485L73.1796 82.2547C76.2444 78.4604 81.6471 76.8963 86.2067 75.8148Z"/>
	<path fill="#7D1A12" transform="scale(2 2)" d="M58.9469 121.492C60.7229 121.735 63.323 122.584 65.0534 122.149C65.4385 122.052 65.8718 121.965 66.041 121.568C66.2885 120.987 66.1772 119.887 66.2644 119.218C66.6077 116.584 67.9877 111.983 66.9584 109.481C66.4876 108.336 66.4351 107.369 66.6081 106.15C66.7296 105.294 66.9781 103.365 67.6656 102.849L67.5099 102.859C67.1342 103.363 67.6548 103.082 67.7095 103.436C67.8097 104.085 67.1085 106.958 67.3703 108.9C67.487 108.746 67.5687 108.619 67.5765 108.418C67.6852 105.63 67.8238 102.773 68.7807 100.124C68.5041 109.541 66.732 118.679 65.8134 128.007C65.1695 128.4 64.5451 128.846 63.7898 128.978C63.106 127.215 60.8942 123.428 59.199 122.63L58.9469 121.492Z"/>
	<path fill="#593933" transform="scale(2 2)" d="M135.071 45.8042L135.337 45.7436L135.455 45.9164C133.079 46.5506 130.729 47.3076 128.306 47.7491C125.953 48.1778 123.603 48.3162 121.256 48.8438C121.552 49.2764 121.847 49.7017 122.178 50.1089C122.389 49.9545 122.613 49.8713 122.852 49.7694L123.938 50.3757C122.902 52.3197 117.966 53.3606 116.062 54.537C114.911 55.2483 114.351 56.5657 113.106 57.3051C113.036 57.3466 112.965 57.3867 112.894 57.4275C112.513 57.3035 112.171 57.1593 111.772 57.2818C111.473 57.3739 111.327 57.3707 111.016 57.3287C111.208 56.8009 115.256 50.5122 115.674 49.9978L115.594 49.6887L113.951 49.7848L113.834 49.5545C116.116 49.2262 118.357 48.639 120.631 48.2744C122.714 47.9405 124.84 47.8756 126.929 47.5633C129.658 47.1554 132.382 46.4261 135.071 45.8042Z"/>
	<path fill="#F0733F" transform="scale(2 2)" d="M73.1796 82.2547L73.6824 82.3485C73.6889 82.4208 73.7154 82.6917 73.7111 82.7555C73.7059 82.8323 73.6833 82.907 73.6694 82.9827L74.0389 83.3944C74.4636 83.3933 75.5965 82.1908 75.9774 81.8527L76.3739 81.8886C76.246 82.216 76.0984 82.5324 75.9504 82.8509C76.6478 83.0444 77.9227 82.3576 78.5731 82.0383C81.5839 81.7572 84.516 82.4231 87.5069 82.6871C89.6335 82.8747 91.7743 82.7955 93.9043 82.7166C93.3432 82.9606 92.8074 83.19 92.29 83.52C90.5992 84.5984 75.5027 87.2131 73.609 86.7153C73.4505 86.6737 73.3097 86.6121 73.1653 86.5373L73.2942 84.8216L72.9516 84.5618C72.424 84.6465 72.0121 84.7783 71.5315 85.0116C71.9487 84.0092 72.5703 83.1463 73.1796 82.2547Z"/>
	<path fill="#0F0B0E" transform="scale(2 2)" d="M138.783 61.5637C139.496 61.4726 139.997 61.4949 140.699 61.6536L140.895 62.0418L140.613 62.7807C138.514 64.735 119.273 70.802 115.582 71.8573C115.205 71.8978 114.841 71.9273 114.462 71.8985C113.84 71.8512 113.749 71.8677 113.334 71.3879C113.38 71.2326 113.416 71.1194 113.515 70.9886C115.32 68.6033 134.856 62.0966 138.783 61.5637Z"/>
	<path fill="#593933" transform="scale(2 2)" d="M121.921 40.6101C123.92 40.2227 128.321 40.3288 130.086 41.3692L130.16 41.7786C130.066 41.869 130.025 41.912 129.912 41.9979C129.439 42.3597 128.861 42.5653 128.294 42.7312C126.595 43.2288 124.785 43.4447 123.06 43.8657C121.75 44.1854 116.537 45.9472 115.663 45.823C115.672 45.6319 115.682 45.445 115.707 45.2552C115.713 45.2093 115.72 45.1636 115.727 45.1178C112.399 45.6034 108.983 46.7556 105.692 47.5314C103.915 47.9043 97.9259 49.7687 96.6024 49.1176C96.669 48.7031 96.6946 48.5746 96.9734 48.2467C97.8916 47.167 99.4438 46.1588 100.731 45.5985C104.953 43.7599 117.196 41.0221 121.921 40.6101Z"/>
	<defs>
		<linearGradient id="gradient_4" gradientUnits="userSpaceOnUse" x1="141.20656" y1="72.247025" x2="143.51633" y2="84.975838">
			<stop offset="0" stop-color="#B95B28"/>
			<stop offset="1" stop-color="#E97C4A"/>
		</linearGradient>
	</defs>
	<path fill="url(#gradient_4)" transform="scale(2 2)" d="M172.24 65.401C172.504 68.5526 173.464 71.1332 174.624 74.0417C174.084 73.3277 173.638 72.8396 172.857 72.3927C172.695 72.4058 172.528 72.3884 172.371 72.4321C172.076 72.5145 171.471 73.1105 171.193 73.3179C169.151 74.8409 167.107 76.2478 164.742 77.2308C161.342 78.6442 157.829 79.8204 154.397 81.1592C150.428 82.7074 146.436 84.5268 142.316 85.6093C138.052 86.7292 133.363 86.9664 128.983 87.4689C123.352 88.1149 117.595 89.0023 111.927 89.1097C111.514 89.0523 111.454 89.0614 111.129 88.7713C111.922 88.1904 113.484 88.0511 114.467 87.8336C115.386 87.6306 116.957 87.4643 117.496 86.6204L117.311 86.1553C119.018 85.438 126.886 84.8533 129.498 84.3431C138.187 82.6459 154.348 78.6677 161.432 74.0497C165.333 71.5066 168.527 68.1723 172.24 65.401Z"/>
	<defs>
		<linearGradient id="gradient_5" gradientUnits="userSpaceOnUse" x1="130.22644" y1="200.95009" x2="123.75172" y2="74.293854">
			<stop offset="0" stop-color="#F79D6B"/>
			<stop offset="1" stop-color="#FABF8C"/>
		</linearGradient>
	</defs>
	<path fill="url(#gradient_5)" transform="scale(2 2)" d="M111.927 89.1097C117.595 89.0023 123.352 88.1149 128.983 87.4689C133.363 86.9664 138.052 86.7292 142.316 85.6093C146.436 84.5268 150.428 82.7074 154.397 81.1592C157.829 79.8204 161.342 78.6442 164.742 77.2308C167.107 76.2478 169.151 74.8409 171.193 73.3179C171.471 73.1105 172.076 72.5145 172.371 72.4321C172.528 72.3884 172.695 72.4058 172.857 72.3927C173.638 72.8396 174.084 73.3277 174.624 74.0417C176.519 78.2967 177.681 82.8887 178.982 87.3516C182.262 98.6024 184.991 109.683 186.678 121.294C187.005 123.544 187.552 126.088 187.509 128.36C187.765 129.523 187.605 130.979 188.036 132.027L188.738 132.289C188.791 132.693 188.879 133.087 188.772 133.489C188.567 135.305 187.757 139.581 188.668 141.138C188.934 141.3 189.208 141.497 189.492 141.623C188.642 145.114 187.928 148.243 186.018 151.345C185.286 151.891 185.156 152.606 185.024 153.469C184.813 154.851 184.926 156.259 184.993 157.649C184.852 157.159 184.697 156.678 184.525 156.198L183.82 155.938C182.527 160.185 181.589 164.663 180.008 168.799C176.032 179.199 167.277 186.676 157.665 191.799C148.409 196.732 136.084 201.611 125.552 201.771C120.428 201.848 115.453 200.897 110.566 199.407C109.81 199.176 109.047 198.954 108.302 198.69C106.707 197.921 104.992 197.361 103.381 196.598C98.8102 194.432 94.5448 191.891 90.3474 189.075C87.4474 187.129 84.4794 185.145 81.9372 182.74C74.6849 175.878 71.1284 165.948 69.2439 156.363C69.2992 154.228 68.6382 151.399 68.139 149.308L67.8823 146.82C67.856 144.36 67.3303 141.852 66.9566 139.426C66.3708 135.621 65.8725 131.866 65.8134 128.007C66.732 118.679 68.5041 109.541 68.7807 100.124C69.1171 98.9982 69.1291 97.5583 69.2716 96.3821C69.7369 92.5411 70.1193 88.6435 71.5315 85.0116C72.0121 84.7783 72.424 84.6465 72.9516 84.5618L73.2942 84.8216L73.1653 86.5373C73.3097 86.6121 73.4505 86.6737 73.609 86.7153C75.5027 87.2131 90.5992 84.5984 92.29 83.52C92.8074 83.19 93.3432 82.9606 93.9043 82.7166C99.9389 81.7786 105.824 80.3282 111.745 78.8543C119.042 77.0373 126.113 75.2484 133.048 72.2707C130.624 74.7489 115.875 84.403 112.805 84.8741C111.761 85.0296 110.301 85.262 109.607 86.1382L109.632 86.6503Q110.126 87.0821 110.604 87.5305C110.219 88.0619 110.234 88.1896 110.204 88.8546L110.57 89.2152C111.002 89.1915 111.511 89.2176 111.927 89.1097Z"/>
	<path fill="#A92512" transform="scale(2 2)" d="M112.565 138.033C112.844 138.865 113.321 139.142 114.027 139.596L112.882 142.479C112.257 142.082 111.966 141.941 111.606 141.272L111.775 140.249C112.103 139.556 112.316 138.761 112.565 138.033Z"/>
	<path fill="#7D1A12" transform="scale(2 2)" d="M112.97 136.33L113.627 134.149C113.841 134.947 114.385 135.561 115.076 136.008C114.816 137.244 114.342 138.384 114.027 139.596C113.321 139.142 112.844 138.865 112.565 138.033C112.735 137.478 112.843 136.897 112.97 136.33Z"/>
	<path fill="#A92512" transform="scale(2 2)" d="M141.102 141.223C142.075 142.839 142.978 144.482 144.445 145.71L143.716 146.673C141.734 145.172 139.913 143.768 138.86 141.437C139.552 141.88 140.154 142.538 140.746 143.107L141.131 143.065C141.342 142.349 141.273 141.929 141.102 141.223Z"/>
	<path fill="#CC3F23" transform="scale(2 2)" d="M107.041 148.947C108.436 147.22 109.694 145.945 110.626 143.862C110.988 143.052 111.117 142.194 111.535 141.403C111.558 141.359 111.583 141.316 111.606 141.272C111.966 141.941 112.257 142.082 112.882 142.479C111.823 145.587 109.729 147.302 107.041 148.947Z"/>
	<path fill="#CC3F23" transform="scale(2 2)" d="M129.614 158.692C129.99 158.992 130.343 159.309 130.793 159.493C127.87 160.417 123.91 160.739 120.901 160.063C121.471 160.029 122.015 159.992 122.574 159.859C122.786 159.808 122.882 159.521 122.993 159.337C125.024 158.728 127.634 159.65 129.614 158.692Z"/>
	<path fill="#981C0D" transform="scale(2 2)" d="M130.669 157.578C130.691 157.124 130.722 156.801 130.915 156.385C132.658 155.784 134.017 153.996 135.759 153.871L135.838 154.322C135.576 155.958 135.013 157.041 133.633 158.015C132.751 158.636 131.787 159.084 130.793 159.493C130.343 159.309 129.99 158.992 129.614 158.692L130.669 157.578Z"/>
	<path fill="#7D1A12" transform="scale(2 2)" d="M115.693 152.259L116.233 152.375L116.876 153.347C117.463 154.695 118.703 156.43 119.655 157.568C120.717 158.486 121.599 159.087 122.993 159.337C122.882 159.521 122.786 159.808 122.574 159.859C122.015 159.992 121.471 160.029 120.901 160.063C119.328 159.628 117.774 159.009 116.719 157.702C115.378 156.041 115.489 154.246 115.693 152.259Z"/>
	<path fill="#DE5F35" transform="scale(2 2)" d="M106.713 140.762L107.091 141.162C106.791 142.095 105.868 142.798 104.998 143.236C100.897 145.297 92.8016 145.909 88.4095 144.475L89.5018 143.8C90.5258 143.62 92.0458 143.968 93.1155 144.011C98.3003 144.222 102.355 143.776 106.713 140.762Z"/>
	<path fill="#CC3F23" transform="scale(2 2)" d="M187.509 128.36C187.765 129.523 187.605 130.979 188.036 132.027L188.738 132.289C188.791 132.693 188.879 133.087 188.772 133.489C188.567 135.305 187.757 139.581 188.668 141.138C188.934 141.3 189.208 141.497 189.492 141.623C188.642 145.114 187.928 148.243 186.018 151.345C185.286 151.891 185.156 152.606 185.024 153.469C184.813 154.851 184.926 156.259 184.993 157.649C184.852 157.159 184.697 156.678 184.525 156.198L183.82 155.938C184.239 154.842 184.321 153.291 184.557 152.114C186.13 144.261 187.394 136.375 187.509 128.36Z"/>
	<path fill="#DE5F35" transform="scale(2 2)" d="M123.919 152.875L125.221 153.75C125.585 153.715 126.091 153.6 126.446 153.659C127.931 156.044 130.322 155.566 130.669 157.578L129.614 158.692C127.634 159.65 125.024 158.728 122.993 159.337C121.599 159.087 120.717 158.486 119.655 157.568C118.703 156.43 117.463 154.695 116.876 153.347C117.019 153.312 117.161 153.287 117.305 153.256C118.993 152.896 120.516 154.381 122.111 154.007C122.814 153.842 123.528 153.498 123.919 152.875Z"/>
	<path fill="#CC3F23" transform="scale(2 2)" d="M123.919 152.875L125.221 153.75C125.601 154.396 126.156 155.099 126.012 155.88C123.941 157.057 121.109 154.193 119.655 157.568C118.703 156.43 117.463 154.695 116.876 153.347C117.019 153.312 117.161 153.287 117.305 153.256C118.993 152.896 120.516 154.381 122.111 154.007C122.814 153.842 123.528 153.498 123.919 152.875Z"/>
	<defs>
		<linearGradient id="gradient_6" gradientUnits="userSpaceOnUse" x1="125.4914" y1="166.37469" x2="125.57907" y2="172.75235">
			<stop offset="0" stop-color="#700000"/>
			<stop offset="1" stop-color="#A41204"/>
		</linearGradient>
	</defs>
	<path fill="url(#gradient_6)" transform="scale(2 2)" d="M152.902 165.477C152.935 165.479 152.969 165.477 153.002 165.484C153.578 165.613 153.858 165.697 154.195 166.181C154.115 166.433 154.014 166.712 153.846 166.92C151.598 169.707 143.127 171.322 139.733 171.924C128.57 173.904 107.745 175.264 98.361 168.711C97.63 168.238 97.0143 167.81 96.8049 166.925L97.1332 166.653C98.5112 166.483 106.756 170.011 109.339 170.614C118.285 172.703 135.236 171.718 144.017 169.329C147.21 168.461 150.088 167.213 152.902 165.477Z"/>
	<path fill="#E88F5A" transform="scale(2 2)" d="M178.5 126.407C179.403 128.032 179.097 129.693 178.599 131.417C177.222 136.185 173.881 140.983 169.443 143.354C168.093 144.075 164.192 144.078 163.405 144.946L163.89 145.465C163.727 146.531 162.797 147.384 161.963 147.985C159.528 149.741 156.707 149.717 154.186 151.034C154.554 151.312 155.465 151.168 155.917 151.098C156.971 150.932 158.053 150.553 159.06 150.209L159.204 150.351C158.079 151.478 155.68 151.649 154.123 151.641C153.552 151.639 152.98 151.605 152.411 151.569Q150.092 150.622 147.91 149.393Q145.728 148.165 143.716 146.673L144.445 145.71C142.978 144.482 142.075 142.839 141.102 141.223C141.108 140.851 140.959 140.379 140.891 140.006C141.999 140.314 143.103 140.664 144.253 140.761C148.423 144.117 153.045 145.199 158.325 144.643C160.953 144.366 163.445 143.648 166.019 143.121C166.358 143.341 166.645 143.466 167.057 143.447C169.485 143.337 171.535 141.65 173.129 139.961C176.585 136.3 178.654 131.442 178.5 126.407Z"/>
	<path fill="#CC3F23" transform="scale(2 2)" d="M144.445 145.71C146.249 146.991 148.16 148.241 150.163 149.187C151.237 149.695 152.945 150.008 153.724 150.893C153.394 151.384 152.957 151.402 152.411 151.569Q150.092 150.622 147.91 149.393Q145.728 148.165 143.716 146.673L144.445 145.71Z"/>
	<path fill="#E88F5A" transform="scale(2 2)" d="M115.693 152.259C115.54 151.191 115.93 149.846 116.149 148.792C116.695 146.165 119.948 140.137 122.177 138.753C122.692 138.433 122.833 138.479 123.388 138.601C124.137 139.445 124.269 141.613 124.472 142.752L124.279 142.871C123.669 141.988 123.965 140.629 123.67 139.609C123.511 139.059 123.454 138.999 122.973 138.738C121.662 139.12 119.945 142.838 119.26 144.026C120.265 144.784 121.583 144.016 122.65 145.163L122.531 145.382C121.94 145.227 121.359 145.061 120.777 144.873C120.321 145.239 120.25 145.32 120.046 145.866L120.397 146.184C120.897 146.268 121.36 146.295 121.865 146.225C122.923 146.078 124.012 145.894 124.679 145.018C124.224 144.14 122.951 144.115 122.25 143.363C121.849 142.933 121.595 142.338 121.697 141.743C121.792 141.185 122.064 140.986 122.499 140.719L122.729 140.985C122.542 141.491 122.412 141.932 122.365 142.47C122.597 142.789 122.839 143.155 123.129 143.422C123.644 143.898 124.04 143.927 124.707 143.925C126.429 143.213 127.418 140.337 128.36 138.752C129.709 140.129 130.735 141.618 131.297 143.476L131.389 143.673C132.868 146.787 137.063 150.523 135.874 154.219C135.863 154.253 135.85 154.288 135.838 154.322L135.759 153.871C134.017 153.996 132.658 155.784 130.915 156.385C130.722 156.801 130.691 157.124 130.669 157.578C130.322 155.566 127.931 156.044 126.446 153.659C126.091 153.6 125.585 153.715 125.221 153.75L123.919 152.875C123.528 153.498 122.814 153.842 122.111 154.007C120.516 154.381 118.993 152.896 117.305 153.256C117.161 153.287 117.019 153.312 116.876 153.347L116.233 152.375L115.693 152.259Z"/>
	<path fill="#DE5F35" transform="scale(2 2)" d="M116.233 152.375C116.312 152.377 116.392 152.38 116.471 152.382C118.735 152.432 121.851 150.738 123.635 152.544C123.827 152.739 123.761 152.665 123.919 152.875C123.528 153.498 122.814 153.842 122.111 154.007C120.516 154.381 118.993 152.896 117.305 153.256C117.161 153.287 117.019 153.312 116.876 153.347L116.233 152.375Z"/>
	<path fill="#CC3F23" transform="scale(2 2)" d="M135.531 153.239L135.759 153.871C134.017 153.996 132.658 155.784 130.915 156.385C130.722 156.801 130.691 157.124 130.669 157.578C130.322 155.566 127.931 156.044 126.446 153.659C129.587 153.938 132.434 153.937 135.531 153.239Z"/>
	<path fill="#F0733F" transform="scale(2 2)" d="M132.373 148.556C131.906 148.894 131.408 149.243 130.872 149.463C129.78 149.913 128.32 150.444 127.207 149.983C127.118 149.761 126.996 149.494 126.979 149.255C126.865 147.687 129.303 147.413 130.13 146.386C130.202 145.521 129.735 144.993 129.319 144.253C129.313 143.594 129.332 143.61 129.784 143.123C130.476 143.017 130.684 143.182 131.297 143.476L131.389 143.673C132.868 146.787 137.063 150.523 135.874 154.219C135.863 154.253 135.85 154.288 135.838 154.322L135.759 153.871L135.531 153.239C135.057 151.579 133.307 150.063 132.373 148.556Z"/>
	<path fill="#0F0B0E" transform="scale(2 2)" d="M95.6675 88.8475C99.0499 88.1818 105.097 88.567 108.052 90.3735C109.544 91.2853 110.518 92.5461 110.926 94.2504C111.238 95.5579 111.471 97.2995 110.637 98.4824C109.237 100.468 90.8674 99.7146 87.2476 100.278C83.1814 100.409 78.8577 102.986 75.2098 104.642C75.6863 101.907 76.584 99.6182 78.3533 97.4785C82.5932 92.3511 89.157 89.465 95.6675 88.8475Z"/>
	<path fill="#0F0B0E" transform="scale(2 2)" d="M151.413 87.5916C153.201 87.4811 155.13 87.6068 156.903 87.864C162.653 88.6981 170.322 92.3935 173.826 97.1644C174.619 98.2443 175.469 99.9545 175.17 101.341C175.108 101.628 175.043 101.768 174.796 101.92C173.114 102.956 168.145 100.946 166.31 100.441C162.263 99.4683 157.966 99.0419 153.808 99.0549C150.495 99.0652 146.838 99.5113 143.589 98.7685C142.988 98.6314 141.651 98.3146 141.337 97.7195C140.987 97.0566 140.674 96.2913 140.59 95.5432C140.431 94.1236 141.014 92.8883 141.901 91.8134C144.298 88.9091 147.82 87.8984 151.413 87.5916Z"/>
	<defs>
		<linearGradient id="gradient_7" gradientUnits="userSpaceOnUse" x1="154.25415" y1="105.81562" x2="142.72676" y2="143.67795">
			<stop offset="0" stop-color="#231209"/>
			<stop offset="1" stop-color="#6A2A24"/>
		</linearGradient>
	</defs>
	<path fill="url(#gradient_7)" transform="scale(2 2)" d="M137.879 121.397C138.864 119.78 139.598 117.997 140.646 116.427C143.32 112.423 147.871 108.683 152.615 107.543C158.127 106.217 164.907 108 169.634 110.946C175.384 114.53 176.941 120.215 178.5 126.407C178.654 131.442 176.585 136.3 173.129 139.961C171.535 141.65 169.485 143.337 167.057 143.447C166.645 143.466 166.358 143.341 166.019 143.121C166.05 143.109 166.081 143.098 166.112 143.085C169.681 141.58 172.653 138.425 174.051 134.832C175.524 131.048 175.156 126.917 173.514 123.249C171.448 118.638 166.209 113.888 161.497 112.131C157.304 110.567 153.174 112.083 149.335 113.85C148.357 116.453 145.652 118.599 143.703 120.536C142.645 121.717 141.96 123.054 141.221 124.444L140.692 124.938C138.712 128.022 138.756 132.631 139.505 136.1C139.793 137.439 140.254 138.792 140.891 140.006C140.959 140.379 141.108 140.851 141.102 141.223C141.273 141.929 141.342 142.349 141.131 143.065L140.746 143.107C140.154 142.538 139.552 141.88 138.86 141.437C137.789 138.693 136.851 135.877 136.387 132.959C136.128 131.333 136.145 129.531 135.66 127.958C135.375 127.034 134.828 126.375 133.958 125.951C131.471 124.737 121.818 124.82 119.183 125.719C118.125 126.079 117.33 126.674 116.826 127.678C116.55 127.39 116.472 127.129 116.357 126.76C116.918 125.804 117.134 124.794 117.933 123.96C121.181 120.566 128.221 122.075 132.434 121.941C134.104 121.672 136.42 122.219 137.879 121.397Z"/>
	<path fill="#DCAC8E" transform="scale(2 2)" d="M132.434 121.941C134.104 121.672 136.42 122.219 137.879 121.397C137.435 122.896 137.107 124.401 136.792 125.931C136.22 124.633 135.736 122.927 134.306 122.357C133.735 122.13 133.039 122.048 132.434 121.941Z"/>
	<path fill="#DCAC8E" transform="scale(2 2)" d="M145.469 116.314C146.284 115.18 148.095 114.438 149.335 113.85C148.357 116.453 145.652 118.599 143.703 120.536C142.645 121.717 141.96 123.054 141.221 124.444L140.692 124.938C140.679 124.895 140.664 124.852 140.652 124.809C140.632 124.736 140.616 124.662 140.596 124.59C140.49 124.212 140.379 123.852 140.425 123.454C140.742 120.723 143.376 117.951 145.469 116.314Z"/>
	<path fill="#F9ECDC" transform="scale(2 2)" d="M149.335 113.85C153.174 112.083 157.304 110.567 161.497 112.131C166.209 113.888 171.448 118.638 173.514 123.249C175.156 126.917 175.524 131.048 174.051 134.832C172.653 138.425 169.681 141.58 166.112 143.085C166.081 143.098 166.05 143.109 166.019 143.121C163.445 143.648 160.953 144.366 158.325 144.643C153.045 145.199 148.423 144.117 144.253 140.761C143.103 140.664 141.999 140.314 140.891 140.006C140.254 138.792 139.793 137.439 139.505 136.1C138.756 132.631 138.712 128.022 140.692 124.938L141.221 124.444C141.96 123.054 142.645 121.717 143.703 120.536C145.652 118.599 148.357 116.453 149.335 113.85Z"/>
	<path fill="#593933" transform="scale(2 2)" d="M145.78 131.317C146.519 131.931 147.768 132.832 148.72 133.048C148.944 133.882 149.136 134.732 149.512 135.513L148.387 136.264C147.239 134.749 146.454 133.083 145.78 131.317Z"/>
	<path fill="#DCAC8E" transform="scale(2 2)" d="M141.221 124.444C140.785 131.392 140.251 134.755 144.253 140.761C143.103 140.664 141.999 140.314 140.891 140.006C140.254 138.792 139.793 137.439 139.505 136.1C138.756 132.631 138.712 128.022 140.692 124.938L141.221 124.444Z"/>
	<path fill="#4A4C4F" transform="scale(2 2)" d="M168.973 131.001L170.702 130.977C170.481 131.847 170.284 132.73 169.941 133.561C168.921 135.608 167.784 137.698 165.779 138.949C165.742 139.001 165.712 139.059 165.668 139.105C163.664 141.14 159.436 141.709 156.711 141.422C153.122 141.045 150.567 138.958 148.387 136.264L149.512 135.513C149.136 134.732 148.944 133.882 148.72 133.048C150.083 133.792 151.286 134.803 152.643 135.53C157.65 135.78 160.568 135.302 165.421 134.074C166.565 133.019 167.686 131.88 168.973 131.001Z"/>
	<path fill="#593933" transform="scale(2 2)" d="M167.798 134.44C168.641 134.323 169.218 133.994 169.941 133.561C168.921 135.608 167.784 137.698 165.779 138.949C165.665 138.786 165.599 138.583 165.523 138.4C166.514 137.73 167.584 136.96 168.227 135.932L168.112 135.512L167.501 135.44C167.064 135.978 166.63 136.529 166.16 137.039C165.831 137.397 165.295 138.144 164.811 138.165L165.835 136.739C166.476 135.962 167.107 135.174 167.798 134.44Z"/>
	<path fill="#606769" transform="scale(2 2)" d="M148.72 133.048C150.083 133.792 151.286 134.803 152.643 135.53C152.968 136.048 153.319 136.556 153.47 137.155C153.567 137.539 153.508 137.542 153.306 137.885C152.866 138.016 152.54 137.97 152.12 137.813C150.785 137.313 150.106 136.828 149.512 135.513C149.136 134.732 148.944 133.882 148.72 133.048Z"/>
	<path fill="#606769" transform="scale(2 2)" d="M168.973 131.001L170.702 130.977C170.481 131.847 170.284 132.73 169.941 133.561C169.218 133.994 168.641 134.323 167.798 134.44C167.107 135.174 166.476 135.962 165.835 136.739C165.249 136.008 165.402 134.962 165.421 134.074C166.565 133.019 167.686 131.88 168.973 131.001Z"/>
	<path fill="#4A4C4F" transform="scale(2 2)" d="M168.973 131.001L170.702 130.977C170.481 131.847 170.284 132.73 169.941 133.561C169.218 133.994 168.641 134.323 167.798 134.44C168.469 133.326 169.21 132.329 168.973 131.001Z"/>
	<path fill="#16222C" transform="scale(2 2)" d="M145.78 131.317C145.459 129.4 145.208 127.409 145.445 125.468C145.905 121.688 148.515 118.398 151.455 116.126C153.648 114.431 156.318 113.213 159.146 113.615C162.624 114.111 165.908 116.659 167.95 119.444Q168.396 120.061 168.78 120.718Q169.163 121.375 169.481 122.067Q169.798 122.758 170.046 123.478Q170.295 124.197 170.471 124.937Q170.648 125.677 170.751 126.431Q170.855 127.185 170.884 127.946Q170.913 128.706 170.867 129.466Q170.822 130.225 170.702 130.977L168.973 131.001C167.686 131.88 166.565 133.019 165.421 134.074C160.568 135.302 157.65 135.78 152.643 135.53C151.286 134.803 150.083 133.792 148.72 133.048C147.768 132.832 146.519 131.931 145.78 131.317Z"/>
	<path fill="#F9ECDC" transform="scale(2 2)" d="M150.689 120.683C151.165 120.753 151.24 120.806 151.605 121.086C152.129 122.625 152.01 124.67 151.685 126.237C151.42 127.514 151.11 128.968 149.952 129.73C149.338 129.674 149.357 129.597 148.951 129.119L146.172 125.721C147.266 123.159 148.207 121.99 150.689 120.683Z"/>
	<defs>
		<linearGradient id="gradient_8" gradientUnits="userSpaceOnUse" x1="79.614777" y1="115.05067" x2="111.33067" y2="139.4455">
			<stop offset="0" stop-color="black"/>
			<stop offset="1" stop-color="#520E0A"/>
		</linearGradient>
	</defs>
	<path fill="url(#gradient_8)" transform="scale(2 2)" d="M88.4095 144.475C85.8211 143.339 83.1645 142.471 80.8088 140.857Q80.2132 140.456 79.6605 139.998Q79.1077 139.54 78.6033 139.03Q78.0988 138.519 77.6476 137.961Q77.1964 137.403 76.803 136.802Q76.4096 136.202 76.0778 135.565Q75.746 134.929 75.4792 134.263Q75.2124 133.596 75.0132 132.907Q74.814 132.217 74.6843 131.511C73.8084 126.645 75.0722 120.81 77.8942 116.752C80.7839 112.596 86.1548 108.925 91.1735 108.059C96.9417 107.064 102.441 108.597 107.159 111.96Q107.617 112.282 108.058 112.626Q108.499 112.971 108.922 113.337Q109.345 113.703 109.749 114.09Q110.153 114.477 110.537 114.884Q110.922 115.291 111.285 115.717Q111.648 116.142 111.99 116.585Q112.331 117.029 112.65 117.489Q112.969 117.948 113.265 118.424Q113.56 118.899 113.831 119.388Q114.102 119.878 114.348 120.38Q114.595 120.883 114.815 121.397Q115.036 121.911 115.231 122.436Q115.425 122.961 115.593 123.494Q115.761 124.028 115.903 124.57Q116.044 125.111 116.157 125.659Q116.271 126.207 116.357 126.76C116.472 127.129 116.55 127.39 116.826 127.678Q116.298 131.916 115.076 136.008C114.385 135.561 113.841 134.947 113.627 134.149L112.97 136.33C112.843 136.897 112.735 137.478 112.565 138.033C112.316 138.761 112.103 139.556 111.775 140.249C111.217 140.484 108.899 143.261 107.215 143.979C106.459 144.302 105.987 144.183 105.25 143.896C105.339 143.694 105.293 143.724 105.435 143.612C106.196 143.011 106.882 142.45 107.556 141.75C108.16 141.122 108.804 140.554 108.787 139.616L108.494 139.374L107.779 139.615C107.431 139.964 106.96 140.339 106.713 140.762C102.355 143.776 98.3003 144.222 93.1155 144.011C92.0458 143.968 90.5258 143.62 89.5018 143.8L88.4095 144.475Z"/>
	<path fill="#FACA94" transform="scale(2 2)" d="M98.8797 112.234C103.554 113.23 108.16 115.963 110.856 119.988C113.565 122.816 114.106 126.371 114.035 130.148C114.009 131.499 113.837 132.816 113.627 134.149L112.97 136.33C112.843 136.897 112.735 137.478 112.565 138.033C112.316 138.761 112.103 139.556 111.775 140.249C111.217 140.484 108.899 143.261 107.215 143.979C106.459 144.302 105.987 144.183 105.25 143.896C105.339 143.694 105.293 143.724 105.435 143.612C106.196 143.011 106.882 142.45 107.556 141.75C108.16 141.122 108.804 140.554 108.787 139.616L108.494 139.374L107.779 139.615C107.466 139.206 106.897 139.028 106.438 138.819C106.82 138.538 107.194 138.248 107.544 137.926C109.512 136.122 109.714 134.705 109.803 132.169C109.675 127.564 110.036 123.753 107.388 119.682C105.1 116.165 101.884 114.582 97.9182 113.751C98.8366 113.532 99.8769 113.577 100.821 113.525L100.665 113.288C100.048 113.033 99.5505 112.772 99.0267 112.353L98.8797 112.234Z"/>
	<path fill="#E88F5A" transform="scale(2 2)" d="M110.856 119.988C113.565 122.816 114.106 126.371 114.035 130.148C114.009 131.499 113.837 132.816 113.627 134.149L112.97 136.33C113.189 130.753 111.615 125.451 110.856 119.988Z"/>
	<path fill="#F9ECDC" transform="scale(2 2)" d="M89.5018 143.8C85.994 143.015 82.6131 141.313 80.4295 138.372C78.0953 135.228 77.5056 131.023 78.1189 127.226C78.8549 122.669 81.4582 118.118 85.2216 115.402C89.2324 112.507 94.0331 111.462 98.8797 112.234L99.0267 112.353C99.5505 112.772 100.048 113.033 100.665 113.288L100.821 113.525C99.8769 113.577 98.8366 113.532 97.9182 113.751C93.9069 113.899 90.711 114.716 87.8801 117.775C85.0126 120.873 84.2529 124.104 84.4233 128.22Q84.4565 129.074 84.5351 129.926C85.2424 131.939 89.2893 134.249 91.1604 135.281C94.2255 137.941 98.5325 137.775 102.365 138.004C103.821 137.078 105.138 136.046 106.38 134.851L108.676 132.023C109.203 131.965 109.321 131.958 109.803 132.169C109.714 134.705 109.512 136.122 107.544 137.926C107.194 138.248 106.82 138.538 106.438 138.819C106.897 139.028 107.466 139.206 107.779 139.615C107.431 139.964 106.96 140.339 106.713 140.762C102.355 143.776 98.3003 144.222 93.1155 144.011C92.0458 143.968 90.5258 143.62 89.5018 143.8Z"/>
	<path fill="#F9ECDC" transform="scale(2 2)" d="M108.676 132.023C109.203 131.965 109.321 131.958 109.803 132.169C109.714 134.705 109.512 136.122 107.544 137.926C107.194 138.248 106.82 138.538 106.438 138.819C102.833 140.197 97.5789 141.832 93.697 140.79C94.2907 140.812 94.9578 140.871 95.5488 140.804C96.3002 140.719 96.6242 139.969 97.0144 139.415L100.647 139.292C101.13 138.765 101.773 138.398 102.365 138.004C103.821 137.078 105.138 136.046 106.38 134.851L108.676 132.023Z"/>
	<path fill="#593933" transform="scale(2 2)" d="M108.676 132.023C109.203 131.965 109.321 131.958 109.803 132.169C109.714 134.705 109.512 136.122 107.544 137.926C107.194 138.248 106.82 138.538 106.438 138.819C102.833 140.197 97.5789 141.832 93.697 140.79C94.2907 140.812 94.9578 140.871 95.5488 140.804C96.3002 140.719 96.6242 139.969 97.0144 139.415L100.647 139.292C102.66 139.322 104.752 138.898 106.507 137.896C107.612 137.265 108.645 136.349 108.969 135.069C109.211 134.117 109.177 132.882 108.676 132.023Z"/>
	<path fill="#5C7A77" transform="scale(2 2)" d="M84.5351 129.926C85.2424 131.939 89.2893 134.249 91.1604 135.281C94.2255 137.941 98.5325 137.775 102.365 138.004C101.773 138.398 101.13 138.765 100.647 139.292L97.0144 139.415C96.6242 139.969 96.3002 140.719 95.5488 140.804C94.9578 140.871 94.2907 140.812 93.697 140.79C91.339 140.251 89.4411 139.039 87.7551 137.337C87.6355 137.252 87.5217 137.162 87.4124 137.063C85.4699 135.311 84.6645 132.438 84.5351 129.926Z"/>
	<path fill="#4A4C4F" transform="scale(2 2)" d="M87.7551 137.337L88.3889 136.935C92.4785 138.216 91.699 139.068 97.0144 139.415C96.6242 139.969 96.3002 140.719 95.5488 140.804C94.9578 140.871 94.2907 140.812 93.697 140.79C91.339 140.251 89.4411 139.039 87.7551 137.337Z"/>
	<path fill="#16222C" transform="scale(2 2)" d="M97.9182 113.751C101.884 114.582 105.1 116.165 107.388 119.682C110.036 123.753 109.675 127.564 109.803 132.169C109.321 131.958 109.203 131.965 108.676 132.023L106.38 134.851C105.138 136.046 103.821 137.078 102.365 138.004C98.5325 137.775 94.2255 137.941 91.1604 135.281C89.2893 134.249 85.2424 131.939 84.5351 129.926Q84.4565 129.074 84.4233 128.22C84.2529 124.104 85.0126 120.873 87.8801 117.775C90.711 114.716 93.9069 113.899 97.9182 113.751Z"/>
	<path fill="#2F4E52" transform="scale(2 2)" d="M91.1604 135.281C93.2247 135.263 95.3122 135.343 97.3719 135.241C100.395 135.092 103.344 134.748 106.38 134.851C105.138 136.046 103.821 137.078 102.365 138.004C98.5325 137.775 94.2255 137.941 91.1604 135.281Z"/>
	<path fill="#F9ECDC" transform="scale(2 2)" d="M87.6411 120.745C88.1338 120.696 88.6572 120.624 89.1517 120.645C89.7423 120.67 90.1774 120.902 90.562 121.337C91.692 122.616 91.9147 124.455 91.8075 126.084C91.7042 127.654 91.2811 128.157 90.1131 129.166C89.828 129.192 89.5417 129.216 89.2551 129.203C88.6426 129.176 88.1273 128.732 87.7316 128.298C86.5173 126.966 85.9398 125.017 86.0601 123.233C86.1421 122.016 86.7633 121.485 87.6411 120.745Z"/>
</svg>
