<svg xmlns="http://www.w3.org/2000/svg" width="500" height="500" xmlns:v="https://vecta.io/nano"><style><![CDATA[.B{fill:#af5830}.C{fill:#de8052}.D{fill:#7d1e0f}.E{fill:#aa411f}.F{fill:#f29c61}.G{fill:#df6736}.H{fill:#e4a573}.I{fill:#c95a2c}.J{fill:#681407}.K{fill:#fbf8f2}.L{fill:#ad683b}.M{fill:#bd7648}.N{fill:#fcc28b}.O{fill:#44140e}.P{fill:#f1d29d}.Q{fill:#9d361a}.R{fill:#010000}.S{fill:#240504}]]></style><path fill="#5e4b3a" d="M160.36 70.49c1.091.681 2.167 1.304 3.073 2.23l-4.309 3.596c-.918-.703-2.01-1.238-3.015-1.811l4.251-4.015z"/><path d="M160.36 70.49l3.811-4.192c1.133.814 2.36 1.584 3.319 2.603l-4.056 3.818c-.906-.925-1.982-1.549-3.073-2.23z" class="B"/><path d="M107.682 413.69c1.874-.5 3.415-.918 4.953-2.138l-.169 5.692c-.429 1.318-.982 2.38-1.688 3.562-1.284-2.084-2.142-4.838-3.096-7.116z" class="H"/><path fill="#665744" d="M140.084 87.824c.843 1.247 1.225 1.298 2.586 1.794l-6.324 6.513-.46-.551c.575-.835 1.094-1.595 1.464-2.546-.857-.323-2.928 2.102-4.86 2.312 2.193-2.769 4.957-5.188 7.594-7.521z"/><path fill="#5e4b3a" d="M152.963 77.095l3.146-2.59c1.004.573 2.097 1.108 3.015 1.811-.835.631-1.731 1.472-2.64 1.968L142.67 89.618c-1.361-.496-1.744-.547-2.586-1.794q6.399-5.413 12.88-10.73z"/><path fill="#665744" d="M152.963 77.095l3.146-2.59c1.004.573 2.097 1.108 3.015 1.811-.835.631-1.731 1.472-2.64 1.968-.909.244-1.814.675-2.693 1.019l-.611-.389-.217-1.82z"/><path fill-opacity=".216" d="M94.64 253.838c.314 2.868.409 6.178 1.849 8.738l.174.26c.829 1.158 1.584 1.406 2.891 1.82.482 2.838.172 5.654.459 8.488-.098 1.632-.091 3.37-.523 4.95-.353-2.93-.24-6.06-.316-9.02-.665 2.292-.797 5.14-2.113 7.152-2.459-1.706-.325-6.672-1.799-8.928-.536 1.944-.279 4.544-.323 6.578-2.292-5.448-3.732-9.94-4.315-15.842 1.165-1.588 2.575-2.868 4.016-4.196z" class="K"/><defs><linearGradient id="A" x1="45.504" y1="122.938" x2="48.246" y2="125.312" href="#B"><stop offset="0" stop-color="#fbfbf8" stop-opacity=".098"/><stop offset="1" stop-color="#fbfbf8" stop-opacity=".216"/></linearGradient><linearGradient id="B" gradientUnits="userSpaceOnUse"/></defs><path fill="url(#A)" transform="matrix(2 0 0 2 .000061 0)" d="M45.312 129.017c-.38-2.417-.382-4.502.112-6.91.142-.691.307-1.299.919-1.711.324.154.449.354.643.64l.077.115c.785-.574 1.322-.921 2.305-.81.66.671.617 1.043.78 1.953-.435.127-.84.275-1.255.46l-.311-.226.101-.322c-.459.228-.884.942-1.075 1.411-.11.269-.127.58-.132.866l.311.467c.917-.025.784-.286 1.502-.741-.02.642-.176.884-.565 1.367-.719.891-.701 1.616-.585 2.716.121 1.145.382 1.827.105 2.996-.72-1.28-.768-2.935-.924-4.369-.72.664-1.425 1.304-2.008 2.098z"/><path fill="#957246" d="M132.49 95.345c1.932-.21 4.003-2.635 4.86-2.312-.37.951-.89 1.711-1.464 2.546l.46.551c-6.58 8.158-13.603 16.588-15.847 27.105l.434.141 1.509-2.31.561.173c.241 1.679-.009 2.592-.699 4.129l.065 2.065-7.431 17.604c-2.064 4.874-3.89 10.474-6.833 14.879-1.029.327-4.011 1.955-4.801 1.838 2.311-18.987 14.462-53.858 29.187-66.41zm-10.186 30.024c-1.541 1.916-1.24 4.319-3.205 5.927l-.503-.011c.077-1.347.271-2.623.511-3.948l-.34-.169c-2.684 4.811-4.099 10.337-6.162 15.436.871.768 1.684 1.456 2.333 2.434l7.431-17.604-.065-2.065z"/><path d="M112.605 142.605c.871.768 1.684 1.456 2.333 2.434-2.064 4.874-3.89 10.474-6.833 14.879-.064-.123-.136-.242-.193-.368-1.497-3.311 3.189-13.728 4.694-16.944z" class="H"/><path fill-opacity=".988" d="M122.304 125.37l.065 2.065-7.431 17.604c-.648-.978-1.461-1.665-2.333-2.434 2.064-5.099 3.478-10.625 6.162-15.436l.34.169c-.24 1.325-.434 2.601-.511 3.948l.503.011c1.965-1.608 1.664-4.011 3.205-5.927z" class="P"/><defs><linearGradient id="C" x1="174.541" y1="41.419" x2="181.555" y2="36.132" href="#B"><stop offset="0" stop-color="#b54b24"/><stop offset="1" stop-color="#d77c3f"/></linearGradient></defs><path fill="url(#C)" transform="matrix(2 0 0 2 .000061 0)" d="M161.714 23.993c1.852 1.006 3.901 1.929 5.558 3.223 1.732 1.155 2.945 3.161 4.595 4.472 3.089 2.454 6.636 4.428 9.798 6.813 4.22 3.184 12.547 11.586 14.738 16.263-.037-.015-.075-.028-.111-.043-1.656-.722-4.569-6.015-5.819-5.825-.241.615-.196.879.072 1.492.996 2.281 4.827 5.309 4.816 7.612-1.007-.7-4.641-6-5.748-7.372-1.346-1.667-2.741-3.253-4.257-4.766-4.207-4.2-9.124-6.946-13.79-10.524-.463-.487-.931-1.07-1.582-1.292-.425-.144-.53.004-.908.199-1.088-1.331-2.38-2.297-3.242-3.837-.707-1.262-.993-3.101-1.819-4.21-.596-.8-1.589-1.283-2.22-2.096-.028-.036-.054-.072-.081-.108z"/><path d="M254.352 26.707c20.278-1.266 38.738-.193 56.792 10.041l2.94 1.653c-1.604.417-3.5.558-4.614 1.794-1.878-.704-3.48-1.842-5.136-2.946-1.38-.381-2.672-.927-3.99-1.479-3.918-1.521-7.77-3.027-12-3.35-7.342-2.292-17.492-1.418-25.21-1.562-30.918 2.24-72.086 10.72-93.164 35.121q-1.251 1.451-2.48 2.922c-.958-1.02-2.185-1.789-3.319-2.603q2.759-3.438 5.632-6.782c11.277-13.011 24.611-17.924 40.315-23.575 7.188-2.586 14.276-5.214 21.794-6.706 7.354-1.459 14.972-1.989 22.44-2.529z" class="L"/><path d="M254.352 26.707c20.278-1.266 38.738-.193 56.792 10.041l2.94 1.653c-1.604.417-3.5.558-4.614 1.794-1.878-.704-3.48-1.842-5.136-2.946-1.38-.381-2.672-.927-3.99-1.479-3.918-1.521-7.77-3.027-12-3.35-7.342-2.292-17.492-1.418-25.21-1.562 4.678-3.598 33.322 2.589 34.812 2.046l-.198-.557c-8.69-3.847-17.37-4.145-26.706-4.578l.988-.199c-5.64-.871-11.602.244-17.25-.781l-.428-.081z" class="M"/><path d="M304.334 37.249c1.994-.734 4.692-.464 6.81-.501l2.94 1.653c-1.604.417-3.5.558-4.614 1.794-1.878-.704-3.48-1.842-5.136-2.946z" class="C"/><defs><linearGradient id="D" x1="71.457" y1="207.232" x2="63.862" y2="228.693" href="#B"><stop offset="0" stop-color="#f1d0ae"/><stop offset="1" stop-color="#f6f2e8"/></linearGradient></defs><path fill="url(#D)" transform="matrix(2 0 0 2 .000061 0)" d="M56.233 208.622l.925-3.13c.261-.769.711-1.799 1.478-2.169 1.493-.087 3.379 2.411 4.576 3.356 2.309 4.959 4.979 9.271 8.638 13.36 1.644 1.837 3.447 3.543 5.048 5.415 1.109 1.327 2.245 2.582 3.472 3.801-1.783 1.26-7.387 7.155-8.256 7.414.767-1.072 1.718-2.191 2.174-3.437.098-.268-.016-.345-.128-.595-.519-.031-1.02-.099-1.521-.244-1.817-.526-3.437-1.93-4.708-3.298-2.152-2.318-3.67-5.126-5.418-7.744-2.422-3.627-4.993-7.133-7.122-10.948.353-.591.629-1.122.844-1.781z"/><defs><linearGradient id="E" x1="121.719" y1="50.606" x2="86.895" y2="23.951" href="#B"><stop offset="0" stop-color="#fcd599" stop-opacity=".988"/><stop offset="1" stop-color="#f0e7cb"/></linearGradient></defs><path fill="url(#E)" transform="matrix(2 0 0 2 .000061 0)" d="M131.567 15.429c3.859.072 8.934-.365 12.605.781 2.115.161 4.041.914 6 1.675-.544.507-1.052.733-1.01 1.538.007.14.022.175.055.294l-2.363-.263c-1.636-.335-3.093-.505-4.763-.557-1.013-.297-2.116-.44-3.154-.643-4.982-.168-15.788-.13-20.118 1.607-3.798.833-7.716 1.574-11.364 2.948-5.521.956-12.546 4.068-16.478 8.085-1.465 1.461-3.287 3.023-3.316 5.272-.019 1.493.892 2.736 1.913 3.736.497.487 1.063.904 1.625 1.312-.033.019-.066.04-.1.058-1.456.756-5.652-.127-7.683.433-7.752 2.136-18.935 14.948-22.232 22.012l-.032-1.032c.345-.769.47-1.225.349-2.065l-.281-.087-.755 1.155-.217-.07c1.122-5.259 4.634-9.474 7.924-13.553l3.162-3.256 6.907-5.667c.455-.248.902-.669 1.32-.984l2.155-1.798 2.028-1.909q.614-.735 1.24-1.461c10.539-12.2 31.123-16.441 46.582-17.56z"/><path d="M288.344 32.42c4.23.322 8.082 1.828 12 3.35-1.088 1.015-2.104 1.465-2.02 3.075.014.281.044.349.11.589l-4.726-.525a53.89 53.89 0 0 0-9.526-1.113c-2.026-.595-4.232-.88-6.308-1.286 5.402-.687 11.186.87 16.106-1.733v-.493c-1.83-.314-3.9-.488-5.4-1.66-.082-.064-.158-.135-.236-.203z" class="N"/><path d="M300.344 35.77l3.99 1.479c1.656 1.105 3.258 2.242 5.136 2.946 1.114-1.236 3.01-1.377 4.614-1.794l5.058 3.01c5.346 3.453 11.846 7.597 15.402 13.022-3.314-2.588-7.412-4.434-11.116-6.446l.162.217c1.262 1.626 3.248 2.593 4.44 4.193 1.652 2.218 2.224 5.895 3.638 8.419 1.724 3.08 4.308 5.013 6.484 7.674.756-.389.966-.686 1.816-.397 1.302.443 2.238 1.609 3.164 2.583l-1.06.863c-.13 1.429.792 2.021 1.674 3.098.93 3.197.358 24.066-.066 28.409-.254 2.621-.796 5.369-1.522 7.901-1.982 2.045-5.836 6.494-8.788 6.456-.228-.003-.326-.022-.538-.051-.386-.48-.692-.826-.874-1.424-6.184 4.784-12.976 9.582-20.558 11.781-1.682-.593-3.58-1.085-5.17-1.873l-.92-.794 1.804-2.178c7.126-12.155 8.912-23.931 9.658-37.734-.924-12.425-7.698-23.086-13.654-33.692l-1.16-1.594c-3.006-5.122-9.736-6.86-14.448-10.039l-2.52-1.042-.808-.966a53.89 53.89 0 0 1 9.526 1.113l4.726.525c-.066-.239-.096-.308-.11-.589-.084-1.61.932-2.061 2.02-3.075z" class="D"/><path d="M314.084 38.401l5.058 3.01c5.346 3.453 11.846 7.597 15.402 13.022-3.314-2.588-7.412-4.434-11.116-6.446-2.832-1.364-5.236-3.47-8.148-4.667 4.372 3.852 10.712 8.143 11.51 14.276-4.524-6.212-8.452-10.36-14.198-15.468-1.076-.567-2.096-1.28-3.122-1.933 1.114-1.236 3.01-1.377 4.614-1.794z" class="M"/><path d="M338.152 68.49c.756-.389.966-.686 1.816-.397 1.302.443 2.238 1.609 3.164 2.583l-1.06.863c-.13 1.429.792 2.021 1.674 3.098.93 3.197.358 24.066-.066 28.409-.254 2.621-.796 5.369-1.522 7.901-1.982 2.045-5.836 6.494-8.788 6.456-.228-.003-.326-.022-.538-.051-.386-.48-.692-.826-.874-1.424 4.344-5.012 7.168-10.612 8.5-17.12 1.47-7.19 1.714-24.259-2.306-30.316z" class="I"/><path d="M329.934 82.284l1.032-7.233c.528 3.079.994 6.167 1.058 9.297.406 6.615-.116 13.005-1.854 19.41-2.89 7.223-6.2 15.376-13.964 18.611-2.122.884-6.426 1.757-8.582.778-.244-.11-.304-.155-.51-.284 7.126-12.155 8.912-23.931 9.658-37.734.468.665.648 2.276.888 3.112.536-.899.304-1.943.228-2.948l.186.314-.456-1.597 1.638 1.024c3.66.407 7.362-1.401 10.678-2.75z" class="E"/><path d="M332.024 84.348c.406 6.615-.116 13.005-1.854 19.41-1.532-6.665.15-12.958 1.854-19.41z" class="Q"/><defs><linearGradient id="F" x1="153.109" y1="40.018" x2="159.764" y2="21.708" href="#B"><stop offset="0" stop-color="#b74923"/><stop offset="1" stop-color="#ffbb65"/></linearGradient></defs><path fill="url(#F)" transform="matrix(2 0 0 2 .000061 0)" d="M150.172 17.885l1.995.739c.828.552 1.629 1.121 2.568 1.473l1.561.966c2.873 2.554 4.837 4.628 7.099 7.734.95 2.689 1.972 5.859 2.088 8.728-.199 1.205-.379 2.403-.516 3.617-1.658.674-3.509 1.579-5.339 1.375l-.819-.512.228.798-.093-.157c.038.502.154 1.024-.114 1.474-.12-.418-.21-1.224-.444-1.556-.462-6.212-3.849-11.543-6.827-16.846l-.58-.797c-1.503-2.561-4.868-3.43-7.224-5.02l-1.26-.521-.404-.483c1.67.052 3.127.222 4.763.557l2.363.263c-.033-.12-.048-.154-.055-.294-.042-.805.466-1.03 1.01-1.538z"/><path d="M284.182 37.796a53.89 53.89 0 0 1 9.526 1.113c1.706.694 3.402 1.352 4.99 2.293l-.974-.171c.744.335 1.47.591 2.022 1.217l-.652.791c2.434 2.122 5.94 4.612 7.462 7.459l-.012 1.203c-1.074.511-2.32 0-3.426-.265l-1.16-1.594c-3.006-5.122-9.736-6.86-14.448-10.039l-2.52-1.042-.808-.966z" class="F"/><path d="M284.182 37.796a53.89 53.89 0 0 1 9.526 1.113c1.706.694 3.402 1.352 4.99 2.293l-.974-.171c.744.335 1.47.591 2.022 1.217l-.652.791c-2.596-1.701-8.442-2.524-11.584-3.235l-2.52-1.042-.808-.966z" class="H"/><defs><linearGradient id="G" x1="131.551" y1="58.01" x2="140.973" y2="19.229" href="#B"><stop offset="0" stop-color="#983710"/><stop offset="1" stop-color="#e18747"/></linearGradient></defs><path fill="url(#G)" transform="matrix(2 0 0 2 .000061 0)" d="M118.819 19.862c4.33-1.737 15.136-1.775 20.118-1.607 1.038.203 2.141.346 3.154.643l.404.483 1.26.521c2.356 1.59 5.721 2.458 7.224 5.02l.58.797c2.978 5.303 6.365 10.633 6.827 16.846-.373 6.902-1.266 12.79-4.829 18.867l-.902 1.089.46.397c-1.141-.077-2.293-.003-3.435.036-2.745-.753-5.537-1.524-8.364-1.889-.208-.712-.272-.905-.839-1.428.225-.083.445-.174.652-.296 1.335-.785 2.02-2.61 2.349-4.038 1.775-7.71.314-14.169-3.845-20.742-.038-1.764-5.8-7.147-7.27-8.555-2.478-2.737-4.272-3.789-7.953-4.331-2.026-.83-3.94-.16-5.591-1.813z"/><path d="M293.472 48.233q-4.42-2.89-9.242-5.045c2.52.355 5.058 1.329 7.244 2.598l.61-1.923c-1.3-1.867-5.354-3.733-7.49-4.475l-.336-.113.732-.513 2.52 1.042c4.712 3.179 11.442 4.917 14.448 10.039-2.312-1.216-5.298-3.196-7.976-2.915l-.51 1.304z" class="B"/><path d="M273.826 48.232c.412-.025.822-.033 1.236.005 3.49.318 9.488 4.936 11.772 7.545-.248.591-.528 1.169-.798 1.75-.804.043-1.84-.288-2.646-.437-4.242-1.252-8.2-3.707-12.006-5.918l.14-.553-.648.053.562-.339c.97.467 1.898 1.042 2.832 1.578-.228-1.242-.392-2.418-.444-3.684z" class="H"/><defs><linearGradient id="H" x1="158.389" y1="43.981" x2="143.247" y2="40.99" href="#B"><stop offset="0" stop-color="#4d0004"/><stop offset="1" stop-color="#ab4017"/></linearGradient></defs><path fill="url(#H)" transform="matrix(2 0 0 2 .000061 0)" d="M146.736 24.116l.255-.652c1.339-.14 2.832.85 3.988 1.457l.58.797c2.978 5.303 6.365 10.633 6.827 16.846-.373 6.902-1.266 12.79-4.829 18.867l-.902 1.089c-.688-.126-1.381-.164-1.901-.672.039-.62.141-.797.577-1.271.104-.113.214-.221.318-.334 2.836-3.096 3.938-13.862 3.679-17.955-.419-6.608-3.604-13.767-8.592-18.172z"/><defs><linearGradient id="I" x1="142.137" y1="194.045" x2="236.574" y2="90.267" href="#B"><stop offset="0" stop-color="#a1482d"/><stop offset="1" stop-color="#c15322"/></linearGradient></defs><path fill="url(#I)" transform="matrix(2 0 0 2 .000061 0)" d="M171.873 37.318c-.441-.538-.902-.834-.837-1.549l.53-.431c4.666 3.578 9.583 6.324 13.79 10.524 1.516 1.513 2.911 3.099 4.257 4.766 1.107 1.372 4.741 6.672 5.748 7.372.011-2.303-3.82-5.331-4.816-7.612-.268-.613-.313-.877-.072-1.492 1.25-.19 4.163 5.103 5.819 5.825.036.016.074.029.111.043 1.645 2.137 2.747 4.795 3.879 7.228 1.411 3.032 2.844 6.029 3.847 9.229 3.358 10.706 4.443 26.296 4.131 37.554-.16 5.767-1.104 11.514-1.124 17.278-.015 4.403.401 8.803.365 13.205-.04 4.935-.778 9.833-.954 14.759-.174 4.891.303 9.79.098 14.671-.376 8.967-1.65 18.213-2.813 27.119-1.175 9.002-3.864 17.581-6.872 26.125-1.262 3.586-3.443 7.323-3.896 11.11-.337 2.816.056 4.608 1.653 6.921.21.212.454.421.634.658l-.024 1.247c-.56.45-.872.29-1.572.242-1.882-2.384-4.111-4.427-6.383-6.429-1.123-1.019-2.393-1.894-3.608-2.8.205-.603.299-.676.798-1.083-1.392-1.086-3.428-2.067-5.008-2.852-4.344-1.23-9.702-4.924-14.008-6.916-.511-.15-.999-.289-1.529-.36-.24.224-.393.365-.527.672-.939-.179-1.28-.305-2.203.003-.527.648-1.207 1.738-1.863 2.192l-.442-.208-.082-.353-.62-.308.957-1.909c-.822-.848-2.416-1.382-3.482-1.883-.815-.276-1.611-.791-2.266-1.341-4.145-3.48-4.831-10.269-5.287-15.29.201-2.658-.941-5.162-.928-7.755.003-.715.322-.93.801-1.389l-1.862-.273c3.384-2.49 7.29-4.38 10.821-6.675 7.325-4.762 15.224-12.595 18.793-20.607.666-1.707 1.341-3.455 1.602-5.276l-.164-.3c-.245 1.021-.402 2.305-1.08 3.13l-.602.257-.154-.063c-2.152-.872-5.854-1.867-8.187-1.906-1.149-.019-2.305.766-3.491.856-5.19.398-10.322-.628-15.369 1.083.632-1.087 1.349-2.18 1.258-3.48.282.056.594.132.882.129.786-.007 1.048-.499 1.535-1.023 1.827-.48 3.578-1.068 5.267-1.917-.811-.922-1.556-1.856-2.649-2.455 4.002.128 7.111-.346 10.767-2.012 8.119-3.536 14.439-12.46 18.452-20.033-1.081-3.946.923-8.625-.381-12.633-.195-4.484-2.679-7.48-5.342-10.796a25.16 25.16 0 0 0 .769-.798c.021-1.212-1.07-2.524-1.368-3.793-.474-1.327-.769-2.799-1.103-4.169-.387-2.25-.515-4.741-1.388-6.855 1.206-1.288-.137-4.005-.136-5.677l.082-.236c-.291-.86-.595-1.685-.991-2.503.073-1.696-.643-3.46-1.165-5.062-.146-.534-.534-1.05-.82-1.523-.812-1.117-1.293-2.409-2.167-3.515-1.209-3.113-4.042-5.804-6.437-8.015-1.336-1.086-2.67-1.811-4.269-2.409-1.656-.888-4.386-1.37-6.248-1.281-.988-.544-2.195-.901-3.25-1.319 1.142-.039 2.294-.112 3.435-.036.795.394 1.744.64 2.585.936 3.791-1.1 7.187-3.498 10.279-5.891.091.299.244.472.437.712.106.015.155.024.269.026 1.476.019 3.403-2.206 4.394-3.228a22.51 22.51 0 0 0 .761-3.95c.212-2.172.498-12.606.033-14.205zm0 0c.465 1.598.179 12.033-.033 14.205a22.51 22.51 0 0 1-.761 3.95c-.991 1.022-2.918 3.247-4.394 3.228-.114-.002-.163-.011-.269-.026-.193-.24-.346-.413-.437-.712-3.092 2.392-6.488 4.791-10.279 5.891-.841-.297-1.79-.543-2.585-.936-1.141-.077-2.293-.003-3.435.036 1.055.418 2.262.775 3.25 1.319 1.862-.09 4.592.392 6.248 1.281 1.599.597 2.933 1.322 4.269 2.409-.364-1.025-1.373-1.491-1.894-2.44-.16-.29-.126-.294-.037-.608 1.61-.081 2.317 1.63 3.815 1.991.058.014.117.026.175.039-.5-.738-1.283-1.181-1.641-2.012.508-.486.868-.427 1.552-.519l-.296 1.102c.745 1.138 7.138 2.955 8.635 3.266 1.159.241 3.501 1.164 4.545.827l.12.117c.488.462.992.782 1.571 1.117l-.154.303c.779.831 1.697 1.666 2.343 2.602.559.672 1.101 1.392 1.698 2.028l.112-.113c-.007-.686-1.204-2.08-1.616-2.688.797-1.471 14.681-.954 16.326-2.623.023-.023.04-.052.06-.078q.46 1.189.941 2.369l.374.062c.778 1.91 1.272 3.817 1.849 5.789.331 1.134.907 2.896 1.998 3.498.05-.094.12-.207.147-.315.471-1.852-3.377-13.572-4.347-15.727-1.243-2.764-2.793-5.363-4.362-7.949-1.007-.7-4.641-6-5.748-7.372-1.346-1.667-2.741-3.253-4.257-4.766-4.207-4.2-9.124-6.946-13.79-10.524l-.53.431c-.065.715.396 1.011.837 1.549z"/><path d="M349.89 177.63c4.296 7.244 4.272 19.205 4.75 27.334.118 2.038.75 4.024.504 6.068-.948-2.654-1.538-5.598-2.206-8.338-.774-4.501-1.03-9.481-2.776-13.711 2.412-2.576-.274-8.009-.272-11.354z" class="I"/><path d="M345.632 147.172l-.452-2.963c-.146-1.37.046-2.182.892-3.239 1.204-.407 1.96-.588 3.248-.315l2.17.409c1.888 1.429 4.174 2.838 5.496 4.827l-.274-.111c-.78-.321-1.352-.62-2.004-1.153.318 1.807.524 2.228-.522 3.775-1.52.929-3.384 1.604-5.19 1.178-1.044-.247-2.054-.979-2.942-1.561l-.422-.847zm40.382 197.43l.718-2.316.65.272c1.51 4.32.184 11.63-1.736 15.606-1.682 3.484-3.904 5.244-7.338 6.866-.916-.5-1.23-1.28-1.7-2.17l.35-.224c6.034-4.002 7.664-11.426 9.056-18.034z" class="C"/><path d="M369.124 463.596c5.948 3.022 10.182 6.602 14.914 11.264 1.69 1.666 3.422 3.756 5.396 5.066.42.424.908.842 1.268 1.316l-.048 2.494c-1.12.9-1.744.58-3.144.484-3.764-4.768-8.222-8.854-12.766-12.858-2.246-2.038-4.786-3.788-7.216-5.6.41-1.206.598-1.352 1.596-2.166z" class="R"/><path d="M331.012 133.886c-1-1.476-2.566-2.361-3.282-4.024 1.016-.972 1.736-.853 3.104-1.039l-.592 2.205c1.49 2.276 14.276 5.91 17.27 6.532 2.318.482 7.002 2.328 9.09 1.654l.24.233c.976.924 1.984 1.564 3.142 2.234l-.308.606c-1.51-.851-3.418-2.111-5.176-2.313-1.418-.164-1.938.291-3.01 1.089l-2.17-.409c-1.288-.272-2.044-.092-3.248.315-.846 1.056-1.038 1.869-.892 3.239.104.991.282 1.981.452 2.963-.9-1.055-1.784-1.688-1.69-3.199.052-.839.414-1.813.648-2.625-1.876-.79-3.76-1.684-5.692-2.318 2.568 4.57 6.95 8.678 8.856 13.462l-.366.827c-4.678-7.715-9.436-13.639-16.376-19.432z" class="G"/><path d="M326.894 135.922c-.728-2.049-2.746-2.982-3.788-4.88-.32-.581-.252-.588-.074-1.216 3.22-.162 4.634 3.259 7.63 3.982l.35.078c6.94 5.792 11.698 11.717 16.376 19.432 4.072 7.756 8.574 15.63 11.948 23.708 6.806 16.293 19.12 56.636 14.028 72.472-.426 1.326-1.222 2.548-1.632 3.86-.546-2.138-2.33-18.994-2.17-21.454l-.144-.256c-1.842-5.58-2.302-11.954-3.462-17.74-2.672-13.314-7.828-28.403-15.066-39.961l.052.437-.374-.468c-.054 1.11-.286 2.159-.514 3.243-.582-1.72-1.19-3.371-1.982-5.007.146-3.391-1.286-6.919-2.33-10.124-.292-1.068-1.068-2.1-1.64-3.046-1.624-2.235-2.586-4.818-4.334-7.03-2.418-6.225-8.084-11.609-12.874-16.03z" class="D"/><path d="M345.742 162.028c10.744 13.096 23.714 52.56 23.676 69.62-1.842-5.58-2.302-11.954-3.462-17.74-2.672-13.314-7.828-28.403-15.066-39.961l.052.437-.374-.468c-.054 1.11-.286 2.159-.514 3.243-.582-1.72-1.19-3.371-1.982-5.007.146-3.391-1.286-6.919-2.33-10.124z" class="E"/><defs><linearGradient id="J" x1="194.741" y1="93.866" x2="183.41" y2="95.808" href="#B"><stop offset="0" stop-color="#801c0e"/><stop offset="1" stop-color="#a73a1a"/></linearGradient></defs><path fill="url(#J)" transform="matrix(2 0 0 2 .000061 0)" d="M175.745 70.532c.536-.399.796-.626 1.505-.544.879.101 1.833.731 2.588 1.157.779.831 1.697 1.666 2.343 2.602l1.698 2.028c2.105 3.47 5.157 6.256 7.177 9.811 1.522 2.68 2.79 5.685 3.73 8.619 1.538 4.795 4.388 18.25 3.299 22.712-.18.735-.514 1.617-1.198 2.02-.325.192-.516.3-.887.187-.222-.069-.361-.231-.523-.389l-.225.002c-.522.003-.959-.013-1.464-.15-1.84-.499-4.791.741-6.204-.611 1.516-.915 5.93.103 7.642.432-.027-3.651-.117-7.139-.777-10.746-1.195-6.528-7.202-24.295-11.192-29.601l-.218.032c-1.479-1.468-3.421-3.413-4.546-5.147-.661-.995-1.804-1.699-2.748-2.414z"/><path d="M351.49 141.064c1.072-.797 1.592-1.252 3.01-1.089 1.758.203 3.666 1.463 5.176 2.313 1.558 1.662 3.394 3.332 4.686 5.203l-.328-.14c-1.602-.711-2.714-1.869-3.94-3.091l-.822.429c.546 4.021 5.37 7.881 7.242 11.431l-.436.064c-2.958-2.936-6.842-6.827-9.092-10.293-1.322-1.989-3.608-3.399-5.496-4.827z" class="I"/><defs><linearGradient id="K" x1="157.846" y1="54.887" x2="198.794" y2="56.444" href="#B"><stop offset="0" stop-color="#af461e"/><stop offset="1" stop-color="#eb803f"/></linearGradient></defs><path fill="url(#K)" transform="matrix(2 0 0 2 .000061 0)" d="M171.873 37.318c-.441-.538-.902-.834-.837-1.549l.53-.431c4.666 3.578 9.583 6.324 13.79 10.524 1.516 1.513 2.911 3.099 4.257 4.766 1.107 1.372 4.741 6.672 5.748 7.372 1.569 2.587 3.119 5.185 4.362 7.949.97 2.155 4.818 13.875 4.347 15.727-.027.108-.097.22-.147.315-1.091-.602-1.667-2.364-1.998-3.498-.577-1.972-1.071-3.879-1.849-5.789l-.374-.062q-.481-1.181-.941-2.369c-.02.026-.037.055-.06.078-1.645 1.669-15.529 1.152-16.326 2.623.412.608 1.609 2.002 1.616 2.688l-.112.113c-.597-.636-1.139-1.356-1.698-2.028-.646-.936-1.564-1.77-2.343-2.602l.154-.303c-.579-.335-1.083-.655-1.571-1.117l-.12-.117c-1.044.337-3.386-.586-4.545-.827-1.497-.311-7.89-2.128-8.635-3.266l.296-1.102c-.684.093-1.044.034-1.552.519.358.831 1.141 1.274 1.641 2.012l-.175-.039c-1.498-.361-2.205-2.072-3.815-1.991-.089.314-.123.317.037.608.521.949 1.53 1.415 1.894 2.44-1.336-1.086-2.67-1.811-4.269-2.409-1.656-.888-4.386-1.37-6.248-1.281-.988-.544-2.195-.901-3.25-1.319 1.142-.039 2.294-.112 3.435-.036.795.394 1.744.64 2.585.936 3.791-1.1 7.187-3.498 10.279-5.891.091.299.244.472.437.712.106.015.155.024.269.026 1.476.019 3.403-2.206 4.394-3.228a22.51 22.51 0 0 0 .761-3.95c.212-2.172.498-12.606.033-14.205zm0 0c8.493 6.378 13.659 11.29 19.611 20.133l-1.065.711c1.107 1.626 2.409 3.275 3.365 4.984.324-.241.796-.413 1.162-.596 1.196 2.021 5.24 8.034 5.13 10.152.778 1.91 1.272 3.817 1.849 5.789.331 1.134.907 2.896 1.998 3.498.05-.094.12-.207.147-.315.471-1.852-3.377-13.572-4.347-15.727-1.243-2.764-2.793-5.363-4.362-7.949-1.007-.7-4.641-6-5.748-7.372-1.346-1.667-2.741-3.253-4.257-4.766-4.207-4.2-9.124-6.946-13.79-10.524l-.53.431c-.065.715.396 1.011.837 1.549z"/><path d="M373.644 130.638l-3.816-1.513c-1.804-.842-3.264-2.279-3.924-4.185-.5-1.444-.416-2.958.272-4.326 1.13-2.252 3.626-3.941 5.988-4.665 3.32-1.019 5.542-1.239 8.674.376 2.214 3.252 4.818 6.55 6.73 9.968-3.648 2.411-9.654 3.298-13.924 4.345zm-12.222-5.764c1.712 1.994 4.186 4.372 4.074 7.195-.054 1.366-.722 2.561-1.746 3.436-1.528 1.308-3.262 2.614-5.216 3.139l-1.932.571c-2.088.674-6.772-1.172-9.09-1.654-2.994-.623-15.78-4.257-17.27-6.532l.592-2.205c5.568-.507 11.15-.978 16.678-1.821 4.602-.702 9.256-1.961 13.91-2.129z" class="F"/><defs><linearGradient id="L" x1="184.697" y1="63.626" x2="193.602" y2="53.989" href="#B"><stop offset="0" stop-color="#f7995b" stop-opacity=".984"/><stop offset="1" stop-color="#f4d3ad"/></linearGradient></defs><path fill="url(#L)" transform="matrix(2 0 0 2 .000061 0)" d="M171.873 37.318c-.441-.538-.902-.834-.837-1.549l.53-.431c4.666 3.578 9.583 6.324 13.79 10.524 1.516 1.513 2.911 3.099 4.257 4.766 1.107 1.372 4.741 6.672 5.748 7.372 1.569 2.587 3.119 5.185 4.362 7.949.97 2.155 4.818 13.875 4.347 15.727-.027.108-.097.22-.147.315-1.091-.602-1.667-2.364-1.998-3.498-.577-1.972-1.071-3.879-1.849-5.789.11-2.118-3.934-8.131-5.13-10.152-.366.183-.838.355-1.162.596-.956-1.709-2.258-3.358-3.365-4.984l1.065-.711c-5.952-8.843-11.118-13.755-19.611-20.133z"/><path d="M382.968 114.902c2.704 2.421 5.724 6.775 6.924 10.2-.732.366-1.676.709-2.324 1.191-1.912-3.418-4.516-6.716-6.73-9.968l2.13-1.423z" class="H"/><defs><linearGradient id="M" x1="203.142" y1="150.367" x2="155.849" y2="138.316" href="#B"><stop offset="0" stop-color="#eb7344"/><stop offset="1" stop-color="#ffab75"/></linearGradient></defs><path fill="url(#M)" transform="matrix(2 0 0 2 .000061 0)" d="M183.894 133.536l.133-.13c3.94-3.947 3.872-11.256 11.051-11.352 2.771-.037 5.46 1.439 7.369 3.377 3.227 3.276 3.19 7.045 3.114 11.329-.062 3.432-.143 7.477-1.167 10.756-.355 1.137-1.112 2.13-1.526 3.25-.167.959-.32 1.119-.983 1.83.33.441.545.648.434 1.24-.349 1.86-5.491 5.506-7.248 6.492-.774.434-2.681.869-3.186 1.407-3.075.093-5.942.012-8.987-.431-1.016-.368-1.795-.614-2.882-.52l-.217.614c-.097-1.729-.167-3.188.256-4.884l-.293-.024c-.355.762-.335 1.698-.724 2.397-.524.939-1.367 1.229-1.609 2.383l-.164-.3c-.245 1.021-.402 2.305-1.08 3.13l-.602.257-.154-.063c-2.152-.872-5.854-1.867-8.187-1.906-1.149-.019-2.305.766-3.491.856-5.19.398-10.322-.628-15.369 1.083.632-1.087 1.349-2.18 1.258-3.48.282.056.594.132.882.129.786-.007 1.048-.499 1.535-1.023 1.827-.48 3.578-1.068 5.267-1.917-.811-.922-1.556-1.856-2.649-2.455 4.002.128 7.111-.346 10.767-2.012 8.119-3.536 14.439-12.46 18.452-20.033z"/><g class="G"><path d="M367.194 294.154c1.766-4.316 4.48-8.264 7.464-11.826-.816 3.698-1.414 7.638-3.046 11.072-1.324 1.294-2.176 3.106-2.496 4.926-.194-1.514-1.168-2.874-1.922-4.172z"/><path d="M379.042 288.24c1.106-6.358 5.416-18.704 10.926-22.382.562-.374 1.112-.54 1.774-.628 2.064 1 2.648 2.44 3.378 4.576 2.044 5.98 3.446 14.204 2.816 20.502-2.166-8.646-2.002-16.79-5.884-25.106-2.7 2.902-9.676 10.434-9.288 14.726.012.144.04.286.06.428l.86-.532-.906-.138.682.192.528-1.17c-.144 5.784-.776 16.53-3.28 21.624-1.736 1.362-5.294.818-7.354.582a10.99 10.99 0 0 1-1.968-.408l-1.02.258-.428-.83-.822-1.608c.32-1.82 1.172-3.632 2.496-4.926 1.744 1.612 3.842 2.308 6.024 3.12.268-2.862.612-5.508 1.406-8.28z"/></g><path d="M377.636 296.52c.268-2.862.612-5.508 1.406-8.28.162 2.602 1.328 9.084-.406 11-1.274 1.408-3.604 1.162-5.348 1.182-.64.008-1.266 0-1.902.084l-1.02.258-.428-.83-.822-1.608c.32-1.82 1.172-3.632 2.496-4.926 1.744 1.612 3.842 2.308 6.024 3.12z" class="I"/><defs><linearGradient id="N" x1="189.439" y1="137.515" x2="202.997" y2="144.053" href="#B"><stop offset="0" stop-color="#ab2610"/><stop offset="1" stop-color="#d14b2c"/></linearGradient></defs><path fill="url(#N)" transform="matrix(2 0 0 2 .000061 0)" d="M187.329 141.164c1.562-3.15 4.879-9.669 8.474-10.849.704-.232 1.502-.216 2.174.105 1.444.692 2.223 2.836 2.641 4.268.888 3.044 1.644 12.495.134 15.225a2.48 2.48 0 0 1-.458.595l-.404.098c-.986-1.104-.712-3.984-.922-5.452.315-3.149-.386-7.261-1.408-10.251-.365-1.068-.657-1.788-1.689-2.288-.331.044-.606.127-.887.314-2.755 1.839-4.91 8.012-5.463 11.191-.397 1.386-.569 2.709-.703 4.14-1.091-.406-2.14-.754-3.012-1.56.816-1.717 1.115-3.687 1.523-5.536z"/><defs><linearGradient id="O" x1="189.916" y1="149.704" x2="190.67" y2="157.182" href="#B"><stop offset="0" stop-color="#f38955"/><stop offset="1" stop-color="#feb481"/></linearGradient></defs><path fill="url(#O)" transform="matrix(2 0 0 2 .000061 0)" d="M180.055 156.514c.997-1.642 2.097-6.665 3.542-9.437.377.649.864 1.329.961 2.086l.411.804.214.415c.277.526.301.6.875.779.845.262 1.823.26 2.704.314l-.385.064c2.291.25 10.104.114 11.295 1.624.165.209.264.425.363.67 1.073-.889 1.936-2.007 2.833-3.067-.167.959-.32 1.119-.983 1.83.33.441.545.648.434 1.24-.349 1.86-5.491 5.506-7.248 6.492-.774.434-2.681.869-3.186 1.407-3.075.093-5.942.012-8.987-.431-1.016-.368-1.795-.614-2.882-.52l-.217.614c-.097-1.729-.167-3.188.256-4.884z"/><path d="M378.164 305.106l2.096.53-3.008.602-1.108-.348-.06-.236 2.08-.548z" class="F"/><path d="M360.11 313.028c1.994-3.284 4.194-13.33 7.084-18.874.754 1.298 1.728 2.658 1.922 4.172l.822 1.608c-1.676.456-2.228.804-3.108 2.33-2.36 4.094-2.532 9.158-4.692 13.2 1.148.728 3.296.724 4.672.942 14.272 2.274 23.294-6.312 28.032-5.9.918.08 1.744-.086 2.648-.236l2.58-2.604c2.146-1.778 3.872-4.014 5.666-6.134-.334 1.918-.64 2.238-1.966 3.66.66.882 1.09 1.296.868 2.48-.698 3.72-10.982 11.012-14.496 12.984-1.548.868-5.362 1.738-6.372 2.814-6.15.186-11.884.024-17.974-.862-2.032-.736-3.59-1.228-5.764-1.04l-.434 1.228c-.194-3.458-.334-6.376.512-9.768z" class="C"/><path d="M360.032 321.568c.026-.572.22-.876.51-1.362 4.76-1.216 16.508-.53 22.418-1.012-3.502 2.396-12.758 3.06-17.164 3.414-2.032-.736-3.59-1.228-5.764-1.04z" class="I"/><path d="M405.736 301.532c-.334 1.918-.64 2.238-1.966 3.66.66.882 1.09 1.296.868 2.48-.698 3.72-10.982 11.012-14.496 12.984-1.548.868-5.362 1.738-6.372 2.814-6.15.186-11.884.024-17.974-.862 4.406-.354 13.662-1.018 17.164-3.414l2.664-1.386c4.608-2.102 8.15-4.076 11.866-7.538l2.58-2.604c2.146-1.778 3.872-4.014 5.666-6.134z" class="Q"/><defs><linearGradient id="P" x1="152.327" y1="188.532" x2="187.863" y2="214.692" href="#B"><stop offset="0" stop-color="#6d1815"/><stop offset="1" stop-color="#924122"/></linearGradient></defs><path fill="url(#P)" transform="matrix(2 0 0 2 .000061 0)" d="M177.429 161.27c.242-1.154 1.085-1.444 1.609-2.383.389-.699.369-1.635.724-2.397l.293.024c-.423 1.696-.353 3.155-.256 4.884l.217-.614c1.087-.094 1.866.152 2.882.52 3.045.443 5.912.524 8.987.431 1.032 3.502 1.129 6.934 1.122 10.566-.696 3.304-1.511 7.016-4.528 9.017-.057.038-.116.075-.175.112.235.445.392.835.85 1.085l.083.264c-1.158 1.598-3.828.702-4.855 1.887.069-.031.136-.071.209-.092.364-.106.9.128 1.225.275.01.03-1.27 10.701-1.388 11.896l.132.045c.201-.523.347-1.106.795-1.467.041.985-1.274 2.728-1.653 3.748-1.136 3.711-1.341 7.709-2.427 11.448-1.015 3.493-3.053 6.872-3.834 10.376-.313 1.405-.291 2.945-.122 4.373.9 1.144 1.78 2.272 2.235 3.678-4.344-1.23-9.702-4.924-14.008-6.916-.511-.15-.999-.289-1.529-.36-.24.224-.393.365-.527.672-.939-.179-1.28-.305-2.203.003-.527.648-1.207 1.738-1.863 2.192l-.442-.208-.082-.353-.62-.308.957-1.909c-.822-.848-2.416-1.382-3.482-1.883-.815-.276-1.611-.791-2.266-1.341-4.145-3.48-4.831-10.269-5.287-15.29.201-2.658-.941-5.162-.928-7.755.003-.715.322-.93.801-1.389l-1.862-.273c3.384-2.49 7.29-4.38 10.821-6.675 7.325-4.762 15.224-12.595 18.793-20.607.666-1.707 1.341-3.455 1.602-5.276z"/><path d="M311.51 439.752c2.22-1.208 3.85-1.398 6.278-.658 1.544.472 3.058 1.174 4.538 1.814-1.152.646-3.282 1.47-3.852 2.61-1.644-1.696-4.832-2.764-6.964-3.766z" class="O"/><path fill="#062201" d="M322.326 440.908c3.134.52 6 1.588 8.766 3.152-1.022-.3-1.998-.578-3.058-.72-.48.448-.786.73-1.054 1.344-1.878-.358-2.56-.61-4.406.006-1.054 1.296-2.414 3.476-3.726 4.384l-.884-.416-.164-.706-1.24-.616 1.914-3.818c.57-1.14 2.7-1.964 3.852-2.61z"/><path d="M354.638 450.536l-.648.24-.824-.524c-.938-2.354-1.19-4.708-1.03-7.234.374-5.916 3.39-11.132 4.856-16.78 2.008-7.746 3.2-16.094 4.568-23.988 1.046-6.03 2.468-28.78 6.15-32.002 1.198-.23 1.25-.176 2.336.398.794 5.592-2.276 20.624-2.642 27.496-2.272 7.422-2.682 15.418-4.854 22.896-2.03 6.986-6.106 13.744-7.668 20.752-.626 2.81-.582 5.89-.244 8.746z" class="J"/><path d="M351.654 333.092c1.824.498 2.566 1.546 3.55 3.182.188.31.336.646.49.974-1.402 3.652-3.306 7.03-4.736 10.634 2.046 6.23 5.07 11.316 11.19 14.352 4.552 2.258 9.72 2.286 14.46.626.47.89.784 1.67 1.7 2.17l.166.528q-1.01.37-2.026.722c-5.3 1.836-10.674 2.238-15.834-.346-5.294-2.648-9.866-8.304-11.758-13.904l-.564-1.51c-1.372.01-2.2.862-3.142 1.828-3.428 3.518-6.11 7.73-9.576 11.182-11.012 10.968-25.348 18.522-39.424 24.672l-3.724-.546c6.768-4.98 14.58-8.76 21.642-13.35 14.65-9.524 30.448-25.19 37.586-41.214z" class="I"/><path d="M354.858 322.54c.484-2.308 2.17-2.888 3.218-4.766.778-1.398.738-3.27 1.448-4.794l.586.048c-.846 3.392-.706 6.31-.512 9.768l.434-1.228c2.174-.188 3.732.304 5.764 1.04 6.09.886 11.824 1.048 17.974.862 2.064 7.004 2.258 13.868 2.244 21.132-1.392 6.608-3.022 14.032-9.056 18.034-.114.076-.232.15-.35.224-4.74 1.66-9.908 1.632-14.46-.626-6.12-3.036-9.144-8.122-11.19-14.352 1.43-3.604 3.334-6.982 4.736-10.634-.154-.328-.302-.664-.49-.974-.984-1.636-1.726-2.684-3.55-3.182 1.332-3.414 2.682-6.91 3.204-10.552z" class="D"/><defs><linearGradient id="Q" x1="177.229" y1="166.947" x2="178.563" y2="160.116" href="#B"><stop offset="0" stop-color="#dd6c47"/><stop offset="1" stop-color="#f3955a"/></linearGradient></defs><path fill="url(#Q)" transform="matrix(2 0 0 2 .000061 0)" d="M177.429 161.27c.242-1.154 1.085-1.444 1.609-2.383.389-.699.369-1.635.724-2.397l.293.024c-.423 1.696-.353 3.155-.256 4.884q-.652 3.701-1.952 7.226l-.245-.487c-.492-.818-.863-1.342-1.775-1.591.666-1.707 1.341-3.455 1.602-5.276z"/><path d="M237.638 39.723c3.302 3.306 7.13 1.966 11.182 3.626 7.362 1.084 10.95 3.189 15.906 8.662 2.94 2.816 14.464 13.582 14.54 17.11 8.318 13.145 11.24 26.063 7.69 41.483-.658 2.855-2.028 6.506-4.698 8.075-.414.244-.854.427-1.304.593 1.134 1.045 1.262 1.431 1.678 2.856 5.654.729 11.238 2.273 16.728 3.778 2.11.835 4.524 1.55 6.5 2.637 3.724-.179 9.184.785 12.496 2.561 3.198 1.195 5.866 2.645 8.538 4.817 4.79 4.421 10.456 9.804 12.874 16.03 1.748 2.212 2.71 4.795 4.334 7.03.572.946 1.348 1.978 1.64 3.046 1.044 3.205 2.476 6.733 2.33 10.124.792 1.636 1.4 3.287 1.982 5.007l-.164.471c-.002 3.344 2.684 8.778.272 11.354 1.746 4.229 2.002 9.21 2.776 13.711.668 2.74 1.258 5.684 2.206 8.338.596 2.538 2.778 5.162 2.736 7.586a50.32 50.32 0 0 1-1.538 1.596c5.326 6.632 10.294 12.624 10.684 21.592 2.608 8.016-1.4 17.374.762 25.266-8.026 15.146-20.666 32.994-36.904 40.066-7.312 3.332-13.53 4.28-21.534 4.024 2.186 1.198 3.676 3.066 5.298 4.91-3.378 1.698-6.88 2.874-10.534 3.834-.974 1.048-1.498 2.032-3.07 2.046-.576.006-1.2-.146-1.764-.258.182 2.6-1.252 4.786-2.516 6.96 10.094-3.422 20.358-1.37 30.738-2.166 2.372-.18 4.684-1.75 6.982-1.712 4.666.078 12.07 2.068 16.374 3.812l.308.126 1.204-.514c1.356-1.65 1.67-4.218 2.16-6.26l.328.6c-.522 3.642-1.872 7.138-3.204 10.552-7.138 16.024-22.936 31.69-37.586 41.214-7.062 4.59-14.874 8.37-21.642 13.35l3.724.546c-.958.918-1.596 1.348-1.602 2.778-.026 5.186 2.258 10.194 1.856 15.51.912 10.042 2.284 23.62 10.574 30.58 1.31 1.1 2.902 2.13 4.532 2.682 2.132 1.002 5.32 2.07 6.964 3.766l-1.914 3.818 1.24.616.164.706.884.416c1.312-.908 2.672-3.088 3.726-4.384 1.846-.616 2.528-.364 4.406-.006.268-.614.574-.896 1.054-1.344 1.06.142 2.036.42 3.058.72 8.612 3.984 19.328 11.372 28.016 13.832 3.16 1.57 7.232 3.532 10.016 5.704-.998.814-1.186.96-1.596 2.166 2.43 1.812 4.97 3.562 7.216 5.6 4.544 4.004 9.002 8.09 12.766 12.858 1.4.096 2.024.416 3.144-.484l.048-2.494c2.516 3.718 5.058 7.432 7.094 11.446 1.4 2.4 2.692 4.758 3.798 7.312h-3.07-46.032-213.117-8.276c3.47-9.922 6.224-18.336 13.126-26.662 1.738-.518 12.946-12.308 16.512-14.828-2.454-2.438-4.726-4.948-6.944-7.602-3.2-3.744-6.807-7.156-10.095-10.83-7.319-8.178-12.657-16.802-17.276-26.72-2.395-1.89-6.167-6.886-9.153-6.712-1.534.74-2.433 2.8-2.956 4.338-.697 2.052-1.257 4.176-1.849 6.26-.021-1.89.107-3.802.169-5.692-1.537 1.22-3.078 1.638-4.953 2.138l-1.034-3.156c-3.691-7.23-6.544-26.358-7.939-34.904-1.833-16-2.656-32.848-1.398-48.93.528-6.748 1.84-13.408 2.444-20.138.356-3.97-.298-7.882.264-11.874-.674-5.484-.587-11.078-.529-16.594.433-1.58.426-3.318.523-4.95-.287-2.834.023-5.65-.459-8.488-1.307-.414-2.063-.662-2.891-1.82-.06-.086-.116-.174-.174-.26.554-2.338.032-3.702-.21-5.992-.233-2.2-.269-3.65 1.17-5.432.779-.966 1.091-1.45 1.131-2.734-1.437.91-1.171 1.432-3.005 1.482l-.621-.934c.011-.572.045-1.194.265-1.732.383-.938 1.234-2.366 2.151-2.822l-.202.644.621.452c.829-.37 1.639-.666 2.51-.92l.849-.492c1.193-7.64-.089-15.47.388-23.146-.632-18.266-1.136-36.704 1.038-54.894l.73-4.301c.79.117 3.773-1.511 4.801-1.838 2.942-4.405 4.769-10.004 6.833-14.879l7.431-17.604c6.594-14.129 28.96-39.753 44.465-44.025 4.063-1.119 12.454.647 15.366-.865.068-.036.133-.078.2-.116-1.125-.816-2.256-1.649-3.25-2.623-2.041-1.999-3.864-4.486-3.826-7.471.058-4.497 3.702-7.621 6.632-10.543 7.864-8.034 21.913-14.259 32.955-16.17 7.296-2.749 15.132-4.23 22.728-5.897zm52.77 369.393c-13.508 9.83-29.458 15.044-46.174 12.4-8.142-1.288-10.766-3.4-17.89-5.96.334 5.186 1.066 15.102-1.92 19.546l-3.742 3.236c-3.458 1.836-6.984 3.428-10.768 4.478-.448-1.188-.734-1.956-1.824-2.718-2.752 1.16-5.238 1.854-8.147 2.528.419.91.989 1.894 1.169 2.88l-1.613 1.112-1.3-.57c-8.081.768-24.116 7.788-30.725 12.768-.981-.226-1.391-.776-2.046-1.506q-2.353.57-4.69 1.2c-3.566 2.52-14.774 14.31-16.512 14.828-6.902 8.326-9.656 16.74-13.126 26.662h8.276 213.117 46.032 3.07c-1.106-2.554-2.398-4.912-3.798-7.312-2.036-4.014-4.578-7.728-7.094-11.446l-.048 2.494c-1.12.9-1.744.58-3.144.484-3.764-4.768-8.222-8.854-12.766-12.858-2.246-2.038-4.786-3.788-7.216-5.6.41-1.206.598-1.352 1.596-2.166-2.784-2.172-6.856-4.134-10.016-5.704-8.688-2.46-19.404-9.848-28.016-13.832-1.022-.3-1.998-.578-3.058-.72-.48.448-.786.73-1.054 1.344-1.878-.358-2.56-.61-4.406.006-1.054 1.296-2.414 3.476-3.726 4.384l-.884-.416-.164-.706-1.24-.616 1.914-3.818c-1.644-1.696-4.832-2.764-6.964-3.766-1.63-.552-3.222-1.582-4.532-2.682-8.29-6.96-9.662-20.538-10.574-30.58l-.746-.92c-1.94.07-3.864 2.294-5.25 3.546zM98.58 248.418c-.04 1.284-.352 1.768-1.131 2.734-1.439 1.782-1.403 3.232-1.17 5.432.242 2.29.763 3.654.21 5.992l.174.26c.829 1.158 1.584 1.406 2.891 1.82.482 2.838.172 5.654.459 8.488 1.694-8.394 2.224-17.902 1.938-26.452-.768 2.764-1.075 5.608-1.449 8.446-.553-2.838-1.041-5.706-1.751-8.51l-.172 1.79zm2.956-27.468c-.477 7.676.805 15.506-.388 23.146l-.849.492c-.871.254-1.681.55-2.51.92l-.621-.452.202-.644c-.917.456-1.768 1.884-2.151 2.822-.22.538-.253 1.16-.265 1.732l.621.934c1.833-.05 1.567-.572 3.005-1.482l.172-1.79c.711 2.804 1.198 5.672 1.751 8.51.374-2.838.68-5.682 1.449-8.446.14-8.348.858-17.466-.416-25.742z" class="Q"/><path d="M151.345 344.334l.335.216c1.24.812 1.86 1.592 2.603 2.858.936-.252 1.13-.794 1.709-1.55.683 1.328 1.724 2.936 1.294 4.478-.204.732-.614 1.462-.965 2.134-1.985-2.542-3.546-5.254-4.975-8.136z" class="P"/><path d="M121.744 318.468c2.037-.444 3.405-.196 5.168.956.884.576 1.48 1.19 1.892 2.18-.95 1.542-2.815 1.274-3.552 3.204-.959 2.51-.155 16.096-.346 19.924l-.366-2.14c.384-5.972-.373-11.91.341-17.904l-3.137-6.22zM248.82 43.349c7.362 1.084 10.95 3.189 15.906 8.662-.652.106-1.304.202-1.964.247-1.76.119-6.078-1.325-7.416-2.473 1.646-.097 3.13-.077 4.558-.997-1.83-.658-4.35-.529-6.282-.508.89-.516 1.81-.995 2.596-1.665-1.312-1.463-5.464-2.023-7.398-3.265z" class="E"/><path fill-opacity=".2" d="M101.536 220.95c1.274 8.276.555 17.394.416 25.742-.768 2.764-1.075 5.608-1.449 8.446-.553-2.838-1.041-5.706-1.751-8.51l-.172 1.79c-1.437.91-1.171 1.432-3.005 1.482l-.621-.934c.011-.572.045-1.194.265-1.732.383-.938 1.234-2.366 2.151-2.822l-.202.644.621.452c.829-.37 1.639-.666 2.51-.92l.849-.492c1.193-7.64-.089-15.47.388-23.146z" class="K"/><path d="M103.427 286.838l1.394 3.91c1.061-.55 1.687-2.626 2.209-3.756.689.554 1.37 1.176 2.168 1.564l.315.528.007 1.536a88.03 88.03 0 0 1 .491 10.742q-.357-.356-.699-.724c-3.805-4.092-6.112-8.078-5.886-13.8z" class="B"/><path d="M109.521 290.62c1.595 3.258 10.412 16.698 10.322 18.878-.014.336-.013.654-.041.99-3.637-2.338-7.218-5.656-9.791-9.126a88.03 88.03 0 0 0-.491-10.742z" class="G"/><path fill-opacity=".329" d="M98.58 248.418l.172-1.79 1.751 8.51c.374-2.838.68-5.682 1.449-8.446.286 8.55-.244 18.058-1.938 26.452-.287-2.834.023-5.65-.459-8.488-1.307-.414-2.063-.662-2.891-1.82-.06-.086-.116-.174-.174-.26.554-2.338.032-3.702-.21-5.992-.233-2.2-.269-3.65 1.17-5.432.779-.966 1.091-1.45 1.131-2.734z" class="K"/><path d="M165.428 457.31c13.127-5.528 19.172-12.036 34.515-14.684.419.91.989 1.894 1.169 2.88l-1.613 1.112-1.3-.57c-8.081.768-24.116 7.788-30.725 12.768-.981-.226-1.391-.776-2.046-1.506z" class="R"/><path d="M149.315 174.554c-1.543-6.107 7.243-13.669 8.718-19.657-.726.217-1.051.307-1.813.112.006-.46.052-.913.203-1.351 2.041-5.93 18.865-20.599 24.802-23.75l.89.393c-2.564 1.922-5.1 3.954-7.762 5.736-3.053 6.408-8.179 10.899-12.623 16.313-5.037 6.564-10.135 14.167-12.415 22.204z" class="D"/><path d="M161.73 152.35q-.143-1.206.046-2.405c.811-5.165 8.565-11.056 12.577-13.908-3.053 6.408-8.179 10.899-12.623 16.313z" class="E"/><path d="M279.266 69.121c8.318 13.145 11.24 26.063 7.69 41.483-.658 2.855-2.028 6.506-4.698 8.075-.414.244-.854.427-1.304.593l-1.09-.087c-.888-1.369 1.27-5.826 1.874-7.553 3.462-9.904 3.546-17.511-.748-27.162-1.696-3.809-3.36-7.272-4.128-11.404 2.184 2.855 6.54 14.014 7.224 17.592.954 5.005.794 10.038 2.728 14.833l.294-.19c.292-6.728 1.108-14.192-.976-20.718-1.098-3.437-7.128-13.42-6.866-15.462z" class="J"/><path d="M181.955 61.79c7.864-8.034 21.913-14.259 32.955-16.17l-.308.848c-4.27 1.436-8.648 2.696-12.81 4.422.038.926-.12 1.496.644 2.143 1.792 1.517 5.126.996 6.586 3.008-.394 1.166-2.064 2.387-1.78 3.375 2.79.926 5.858 1.671 8.544 2.822 7.256 3.109 12.71 6.429 20.928 6.333 1.292 1.174 2.676 2.315 3.894 3.56l-.018.356c-2.954-1.489-4.466-2.984-7.904-2.849-6.41.253-17.514-6.647-23.716-8.929-3.198-1.177-6.964-.079-10.067-1.243l-.191-1.035 1.118-.064.31-.615-1.531.011-.113-.366c-.324-1.029-.64-1.929-1.654-2.475-1.188-.639-2.502-.428-3.714.008-2.615.94-6.903 3.442-8.364 5.852-.145.24-.139.314-.178.556 4.225 1.62 19.28 5.488 22.036 7.619-1.03.437-4.074-.94-5.22-1.34-4.253-1.487-8.439-3.034-12.793-4.227-1.962-.538-4.308-.641-6.151-1.379-.17-.068-.338-.142-.504-.219z" class="G"/><path d="M103.427 286.838c-.633-9.872.829-20.382 4.58-29.564-.346 2.672-.252 4.264 1.447 6.424 1.493 1.896 3.527 2.918 5.741 3.736-2.43 3.57-4.075 6.698-5.182 10.91l.253 4.476c1.01-.208 1.75-1.48 2.479-2.22q-1.67 4.024-3.547 7.956c-.798-.388-1.479-1.01-2.168-1.564-.522 1.13-1.148 3.206-2.209 3.756l-1.394-3.91z" class="C"/><path d="M110.013 278.344l.253 4.476c1.01-.208 1.75-1.48 2.479-2.22q-1.67 4.024-3.547 7.956c-.798-.388-1.479-1.01-2.168-1.564l2.983-8.648z" class="E"/><path d="M108.007 257.274c.907-2.542 1.817-5.112 3.52-7.25 1.651-2.072 3.421-3.05 6.032-3.336 2.454 1.464 4.197 2.494 4.973 5.364.705 2.606-.024 5.904-1.205 8.266-2.266 2.144-4.165 4.7-6.131 7.116-2.214-.818-4.249-1.84-5.741-3.736-1.699-2.16-1.793-3.752-1.447-6.424z" class="H"/><path d="M208.09 440.098c4.71-2.034 10.774-4.076 12.99-9.132.722-1.654 1.016-3.434 1.128-5.224.154-2.454-.214-20.86-.674-22.016-.388-.978-.786-2.036-.982-3.074-.246-1.304.044-2.332.774-3.43.686-.128 1.042-.35 1.652.066 4.032 2.742 2.426 13.6 3.3 17.966.02.102.044.202.066.302.334 5.186 1.066 15.102-1.92 19.546l-3.742 3.236c-3.458 1.836-6.984 3.428-10.768 4.478-.448-1.188-.734-1.956-1.824-2.718z" class="J"/><path d="M121.397 357.866c-3.352-8.044-3.888-17.194-3.671-25.898.064-2.582.219-5.96 2.197-7.842 1.137-.294 1.739-.45 2.807.278 2.29 1.56.832 14.112 1.7 17.742l.11.446.366 2.14c-.011 4.988.071 11.894 3.78 15.664 2.475 2.516 6.105 3.232 9.509 3.176 6.07-.1 11.909-2.25 17.911-2.824-5.958 4.042-15.09 8.688-22.517 7.342-5.579-1.012-9.006-5.972-12.193-10.224z" class="C"/><path d="M182.115 130.301c4.335-1.86 7.875-3.284 12.669-3.185-15.645 11.907-37.187 37.228-46.44 54.524l.971-7.086c2.28-8.037 7.379-15.64 12.415-22.204 4.444-5.414 9.57-9.905 12.623-16.313 2.661-1.781 5.198-3.814 7.762-5.736z" class="G"/><path d="M116.147 354.814l.088.322c1.025 3.944.066 8.214 1.184 12.198 2.823 10.06 8.048 19.52 11.96 29.182 3.568 8.814 6.234 18.012 9.979 26.766 4.004 9.362 12.798 17.61 14.436 27.626-3.2-3.744-6.807-7.156-10.095-10.83-7.319-8.178-12.657-16.802-17.276-26.72l-.758-1.762c-.938-3.546-1.462-7.246-2.11-10.856-.561-1.53-1.029-3.108-1.535-4.658l-.092-7.676-.496-1.316-.086-.214c-1.293-3.376-1.124-6.356-1.579-9.876-2.762-7.176-4.81-14.454-3.619-22.186z" class="B"/><path d="M119.766 377c1.71 3.89 2.397 5.76 1.665 10.09l-.086-.214c-1.293-3.376-1.124-6.356-1.579-9.876zm2.162 11.406c1.758 4.466 2.049 7.578 1.628 12.334-.561-1.53-1.029-3.108-1.535-4.658l-.092-7.676z" class="L"/><path d="M138.976 118.096c11.24-8.549 27.877-12.306 41.779-10.43 3.9.526 8.329 1.126 12.017 2.521-2.892.577-5.951 1.048-8.726 2.05-7.294 2.633-21.171 10.33-25.524 16.837-1.883 2.815-5.118 10.413-8.08 11.613.052-3.947 8.909-9.606 3.71-15.079-.595-.627-1.083-.561-1.906-.691-4.399.924-5.772 8.784-11.142 5.146-2.41-1.633-4.015-4.291-5.585-6.684l-.213.102c-1.89.887-2.908 1.09-4.945.716-1.183-.217-2.395-.331-3.588-.493 1.683.076 3.531.284 5.206.079 3.222-.394 5.13-3.357 6.997-5.686z" class="G"/><defs><linearGradient id="R" x1="68.068" y1="139.512" x2="60.255" y2="148.372" href="#B"><stop offset="0" stop-color="#c35634"/><stop offset="1" stop-color="#d96c3b"/></linearGradient></defs><path fill="url(#R)" transform="matrix(2 0 0 2 .000061 0)" d="M60.663 130.159c.195.755.376 1.247 1.051 1.717 1.375 4.863 2.939 9.212 6.035 13.271.098.864.233 1.74.259 2.608.182 2.207.995 10.446.592 12.179-.633-.041-.945-.327-1.409-.712-2.535-1.16-4.917-2.523-7.292-3.978.014-.168.014-.327.02-.495.045-1.09-4.364-7.81-5.161-9.439l-.004-.768-.158-.264q.939-1.966 1.774-3.978c-.364.37-.735 1.006-1.239 1.11l-.127-2.238c.553-2.106 1.376-3.67 2.591-5.455.983-1.208 1.933-2.486 3.066-3.558z"/><path d="M111.952 289.68c3.484-.134 5.488 1.206 8.012 3.568q1.069.982 1.919 2.16.85 1.176 1.448 2.5l-.091.518-.24-.146c-.01.444.081 1.092-.143 1.468-4.536-2.564-7.573-6.154-10.906-10.068zm11.477-25.928c2.75 9.726 5.878 18.424 12.07 26.542.196 1.728.466 3.48.519 5.216-4.339-4.028-9.025-10.71-10.56-16.548-.372-1.414.144-2.882-.182-4.218-.332-1.36-1.581-.636-1.944-1.982-.485-1.796.4-3.748-.583-5.39l-2.238-.428c.639-1.31 1.852-2.234 2.919-3.192z" class="B"/><path d="M121.326 260.318c.39 1.51.752 2.494 2.103 3.434-1.067.958-2.28 1.882-2.919 3.192-3.081 4.202-5.517 8.968-7.765 13.656-.728.74-1.469 2.012-2.479 2.22l-.253-4.476c1.106-4.212 2.752-7.34 5.182-10.91 1.967-2.416 3.865-4.972 6.131-7.116z" class="D"/><path d="M109.513 289.084c.748.19 1.682.554 2.439.596 3.333 3.914 6.37 7.504 10.906 10.068l.192.172c1.533 1.322 3.41 2.138 5.05 3.314 3.228 2.316 8.363 7.572 8.84 11.596.128 1.078-.296 1.876-.829 2.776-.569.306-1.113.632-1.727.838-5.071-2.32-9.834-5.046-14.583-7.956.028-.336.027-.654.041-.99.09-2.18-8.727-15.62-10.322-18.878l-.007-1.536z" class="F"/><defs><linearGradient id="S" x1="93.384" y1="62.039" x2="87.189" y2="40.946" href="#B"><stop offset="0" stop-color="#b35124"/><stop offset="1" stop-color="#ec7d34"/></linearGradient></defs><path fill="url(#S)" transform="matrix(2 0 0 2 .000061 0)" d="M91.2 41.214c2.861 1.306 5.776 4.834 9.056 6.594 4.021 2.158 13.932 4.402 16.714 7.067l.161.532c-.436.37-.809.225-1.369.179-13.769-1.127-30.566-7.348-43.688-.897-1.442.709-2.561 1.765-3.874 2.659l-2.255.026c-1.064 1.178-1.942 2.405-2.815 3.729.518.309 2.773.273 3.383.108 1.159-.313 1.693-1.813 2.975-2.163-.934 1.165-1.887 2.646-3.498 2.843-.838.102-1.761-.001-2.603-.039l-.379-.284c-2.066 1.623-5.991 14.761-8.564 18.412-.879 1.247-2.032 2.052-3.157 3.048l.365-2.15c.395.058 1.886-.755 2.401-.919 1.471-2.202 2.384-5.002 3.416-7.439l3.715-8.802c3.297-7.064 14.48-19.876 22.232-22.012 2.031-.56 6.227.324 7.683-.433.034-.018.067-.039.1-.058z"/><defs><linearGradient id="T" x1="65.452" y1="167.161" x2="42.737" y2="181.574" href="#B"><stop offset="0" stop-color="#ae4e24"/><stop offset="1" stop-color="#c98257"/></linearGradient></defs><path fill="url(#T)" transform="matrix(2 0 0 2 .000061 0)" d="M50.01 147.344c.866.784.444 2.409 1.065 3.268.302.418 2.501 1.451 3.172 2.027 2.342 2.009 4.186 4.741 6.625 6.595l1.568 3.11c-.357 2.997.022 5.966-.17 8.952l-.055-.223c-.434-1.815.295-8.091-.85-8.871-.534-.364-.835-.286-1.404-.139-.989.941-1.066 2.63-1.099 3.921-.108 4.352.16 8.927 1.836 12.949-1.008-.492-1.211-1.661-2.079-2.338l-.409.092-.137.72c-.595 3.866.428 7.505 1.81 11.093.228 1.76.143 3.25.79 4.938.014.036.029.071.043.107l.248.658.046 3.838c.253.775.487 1.564.768 2.329.324 1.805.586 3.655 1.055 5.428l.379.881c-1.197-.945-3.083-3.443-4.576-3.356-.767.37-1.217 1.4-1.478 2.169-.349 1.026-.628 2.088-.925 3.13-.011-.945.053-1.901.084-2.846-.769.61-1.539.819-2.476 1.069l-.517-1.578c-1.846-3.615-3.272-13.179-3.97-17.452-.916-8-1.328-16.424-.699-24.465.264-3.374.92-6.704 1.222-10.069.178-1.985-.149-3.941.132-5.937z"/><path d="M98.709 375.63c.859-.838 1.62-1.306 1.592-2.64-.026-1.252-.838-2.51-.401-3.744.343.096.778.092.964.412 1.158 1.99 3.016 22.564 4.685 27.644.368-.3.589-.614.854-1.006l.319-.106c1.298-.454 2.366-1.074 3.525-1.804l.097.374c.144.536.364 1.032.588 1.538 1.014 3.906 1.738 9.538-.313 13.186-.344.612-.871 1.114-1.392 1.576l-.84.204-.428-1.008-1.312.278c-3.691-7.23-6.544-26.358-7.939-34.904z" class="C"/><defs><linearGradient id="U" x1="59.673" y1="190.8" x2="56.188" y2="200.332" href="#B"><stop offset="0" stop-color="#c87c4e"/><stop offset="1" stop-color="#d7996f"/></linearGradient></defs><path fill="url(#U)" transform="matrix(2 0 0 2 .000061 0)" d="M55.466 198.149c.251-3.192-1.271-6.593-.89-9.676.259.262.424.589.607.906.326.122.667.248.967.426 2.474 1.47 4.135 5.644 4.86 8.236l.768 2.329 1.055 5.428.379.881c-1.197-.945-3.083-3.443-4.576-3.356-.767.37-1.217 1.4-1.478 2.169l-.925 3.13.084-2.846c-.769.61-1.539.819-2.476 1.069l-.517-1.578.656-.139.214.504.42-.102c.26-.231.524-.482.696-.788 1.025-1.824.663-4.64.156-6.593z"/><path d="M112.634 411.552c.133-3.288-.096-6.72 1.446-9.708.599-.446.936-.93 1.715-.816 2.986.44 8.032 7.972 9.871 10.568l.758 1.762c-2.395-1.89-6.167-6.886-9.153-6.712-1.534.74-2.433 2.8-2.956 4.338-.697 2.052-1.257 4.176-1.849 6.26-.021-1.89.107-3.802.169-5.692z" class="N"/><defs><linearGradient id="V" x1="123.461" y1="146.595" x2="126.739" y2="199.797" href="#B"><stop offset="0" stop-color="#faa77b"/><stop offset="1" stop-color="#fbca8e"/></linearGradient></defs><path fill="url(#V)" transform="matrix(2 0 0 2 .000061 0)" d="M70.117 147.01c4.523 3.909 12.605 8.832 18.845 8.457.331-.02.62-.089.916-.241.009.384-.07 1.044.032 1.393.386 1.323 3.578 5.08 4.666 6.127.396.381.782.598 1.331.692.353-.162.518-.162.684-.523 1.389-.54 2.616-.343 4.057-.119l2.342.29c9.875 2.066 21.805 1.09 31.778-.272 4.172-.58 8.023-1.577 11.992-2.99.758-.27 1.424-.591 2.245-.495l.635 1.518c.091 1.3-.626 2.393-1.258 3.48 5.047-1.711 10.179-.685 15.369-1.083 1.186-.09 2.342-.875 3.491-.856 2.333.039 6.035 1.034 8.187 1.906l.154.063.602-.257c.678-.825.835-2.109 1.08-3.13l.164.3c-.261 1.821-.936 3.569-1.602 5.276-3.569 8.012-11.468 15.845-18.793 20.607-3.531 2.295-7.437 4.185-10.821 6.675q-.233.165-.476.314c-8.743 5.312-19.252 7.593-29.249 5.053-8.033-2.042-16.733-6.004-23.654-10.541-2.588-1.697-4.953-3.648-7.403-5.529-2.62-2.013-5.554-3.988-7.271-6.89.176-.336.381-.701.483-1.067.215-.771-.305-1.575-.647-2.239-.289.378-.386.649-.854.775-.371-.633-.682-1.023-1.302-1.429l-.167-.108c-3.299-5.822-5.018-12.435-5.436-19.069-.287-1.98-.417-4.104-.119-6.088z"/><path d="M284.726 338.972c2.718-.63 4.99-1.966 7.814-2.394-2.28 4.824-7.864 18.004-12.118 20.484-.1-1.122.198-1.444.708-2.428-1.148.876-2.272 1.638-3.538 2.334 3.374-3.844 7.904-10.228 8.304-15.428.106-1.37-.298-1.564-1.17-2.568z" class="E"/><defs><linearGradient id="W" x1="75.074" y1="161.768" x2="71.992" y2="162.434" href="#B"><stop offset="0" stop-color="#fbd7b6"/><stop offset="1" stop-color="#f8fdec"/></linearGradient></defs><path fill="url(#W)" transform="matrix(2 0 0 2 .000061 0)" d="M70.236 153.098c.021-1.161-.195-3.22.382-4.182.459.109.564.083.821.516 1.226 2.064 1.238 7.028 1.727 9.554.59 3.05 3.104 11.328 4.829 13.943-.289.378-.386.649-.854.775-.371-.633-.682-1.023-1.302-1.429l-.167-.108c-3.299-5.822-5.018-12.435-5.436-19.069z"/><defs><linearGradient id="X" x1="124.149" y1="173.983" x2="121.904" y2="186.148" href="#B"><stop offset="0" stop-color="#9e2108"/><stop offset="1" stop-color="#d34831"/></linearGradient></defs><path fill="url(#X)" transform="matrix(2 0 0 2 .000061 0)" d="M138.796 178.484c.633-.348 1.195-.729 1.769-1.167-.255.492-.404.653-.354 1.214-.973 1.429-2.315 2.675-3.7 3.7-4.536 3.359-10.572 5.038-16.165 4.165-5.88-.917-11.055-3.991-14.548-8.793l.222.056c2.415.63 4.217 2.816 6.298 4.117 6.346 3.969 15.336 3.759 21.752.127 1.652-.935 3.088-2.604 4.726-3.419z"/><path d="M193.182 325.83c2.778-1.08 5.231-.686 8.114-.238 1.554 1.72 3.068 3.604 4.822 5.12 5.188 7.574 9.232 12.03 17.674 15.944-1.694.462-3.556 1.15-5.304 1.226l4.828 2.076c-3.716.374-11.97-.378-14.558.41q-5.052-9.152-9.939-18.392c-1.452-2.314-3.8-4.124-5.637-6.146z" class="O"/><path d="M198.819 331.976c6.765 2.602 12.357 12.184 19.669 15.906l4.828 2.076c-3.716.374-11.97-.378-14.558.41q-5.052-9.152-9.939-18.392z" class="E"/><defs><linearGradient id="Y" x1="124.177" y1="168.986" x2="123.098" y2="184.202" href="#B"><stop offset="0" stop-color="#c73a27"/><stop offset="1" stop-color="#eb6449"/></linearGradient></defs><path fill="url(#Y)" transform="matrix(2 0 0 2 .000061 0)" d="M133.701 174.38c3.184-1.163 5.875-3.002 8.662-4.894.436.502.638.599.585 1.284-.2 2.6-2.465 5.792-4.152 7.714-1.638.815-3.074 2.484-4.726 3.419-6.416 3.632-15.406 3.842-21.752-.127-2.081-1.301-3.883-3.487-6.298-4.117l-.222-.056c-.59-.702-.99-1.608-1.419-2.419 1.294-.394 5.421-.018 7.279-.205l-2.414-1.038c.874-.038 1.805-.382 2.652-.613l2.685.764c4.928.785 9.767 1.029 14.684.06 1.253.531 3.083.263 4.436.228z"/><path d="M223.792 346.656l5.37 1.528c9.856 1.57 19.534 2.058 29.368.12 2.506 1.062 6.166.526 8.872.456-11.106 3.244-21.184 4.804-32.802 3.436-2.454-.288-5.392-.56-7.69-1.51l-3.594-.728-4.828-2.076c1.748-.076 3.61-.764 5.304-1.226z" class="D"/><path d="M223.792 346.656l5.37 1.528c-.922.278-1.79.61-2.766.516l-.514 1.082c.042.004.086.002.128.012.38.094.764.256 1.136.384l-.236.508-3.594-.728-4.828-2.076c1.748-.076 3.61-.764 5.304-1.226z" class="J"/><path d="M269.536 325.628c8.344-1.16 16.046-3.154 23.984-5.98 1.516-.54 2.848-1.182 4.49-.99l1.27 3.036c.182 2.6-1.252 4.786-2.516 6.96-1.47 2.6-3.042 5.178-4.224 7.924-2.824.428-5.096 1.764-7.814 2.394-5.574 3.784-10.956 7.462-17.324 9.788-2.706.07-6.366.606-8.872-.456-9.834 1.938-19.512 1.45-29.368-.12l-5.37-1.528c-8.442-3.914-12.486-8.37-17.674-15.944-1.754-1.516-3.268-3.4-4.822-5.12l4.684.58c19.75 4.132 43.61 2.18 63.556-.544z" class="K"/><path d="M269.536 325.628c8.344-1.16 16.046-3.154 23.984-5.98 1.516-.54 2.848-1.182 4.49-.99l1.27 3.036c.182 2.6-1.252 4.786-2.516 6.96-1.47 2.6-3.042 5.178-4.224 7.924-2.824.428-5.096 1.764-7.814 2.394-5.574 3.784-10.956 7.462-17.324 9.788-2.706.07-6.366.606-8.872-.456 15.346-3.302 22.618-8.146 31.332-20.868q-30.586 4.812-61.544 5.24c-4.792.048-9.414-.152-14.166-.866-1.636-.244-5.764-1.69-7.164-1.43-.304.056-.58.22-.87.332-1.754-1.516-3.268-3.4-4.822-5.12l4.684.58c19.75 4.132 43.61 2.18 63.556-.544z" class="J"/><path fill="#70bf3f" d="M290.408 409.116c1.386-1.252 3.31-3.476 5.25-3.546l.746.92c.912 10.042 2.284 23.62 10.574 30.58 1.31 1.1 2.902 2.13 4.532 2.682 2.132 1.002 5.32 2.07 6.964 3.766l-1.914 3.818 1.24.616.164.706.884.416c1.312-.908 2.672-3.088 3.726-4.384 1.846-.616 2.528-.364 4.406-.006.268-.614.574-.896 1.054-1.344 1.06.142 2.036.42 3.058.72 8.612 3.984 19.328 11.372 28.016 13.832 3.16 1.57 7.232 3.532 10.016 5.704-.998.814-1.186.96-1.596 2.166 2.43 1.812 4.97 3.562 7.216 5.6 4.544 4.004 9.002 8.09 12.766 12.858 1.4.096 2.024.416 3.144-.484l.048-2.494c2.516 3.718 5.058 7.432 7.094 11.446 1.4 2.4 2.692 4.758 3.798 7.312h-3.07-46.032-213.117-8.276c3.47-9.922 6.224-18.336 13.126-26.662 1.738-.518 12.946-12.308 16.512-14.828q2.337-.63 4.69-1.2c.655.73 1.065 1.28 2.046 1.506 6.609-4.98 22.645-12 30.725-12.768l1.3.57 1.613-1.112c-.18-.986-.75-1.97-1.169-2.88 2.909-.674 5.395-1.368 8.147-2.528 1.09.762 1.376 1.53 1.824 2.718 3.784-1.05 7.31-2.642 10.768-4.478l3.742-3.236c2.986-4.444 2.254-14.36 1.92-19.546 7.124 2.56 9.748 4.672 17.89 5.96 16.716 2.644 32.666-2.57 46.174-12.4zm-129.67 49.394c-3.566 2.52-14.774 14.31-16.512 14.828-6.902 8.326-9.656 16.74-13.126 26.662h8.276c2.327-4.73 3.642-10.25 6.448-14.748 2.294-3.68 7.094-7.672 7.593-11.916.247-.434.946-.814 1.354-1.118l.782.144c-.112 1.372-.675 1.812-1.504 2.886 2.708-1.866 11.158-10.186 11.845-12.974l-1.003-1.186 2.583-2.272c-.981-.226-1.391-.776-2.046-1.506q-2.353.57-4.69 1.2z"/><path fill="#151800" d="M326.98 444.684c.268-.614.574-.896 1.054-1.344 1.06.142 2.036.42 3.058.72 8.612 3.984 19.328 11.372 28.016 13.832 3.16 1.57 7.232 3.532 10.016 5.704-.998.814-1.186.96-1.596 2.166-13.292-7.156-26.676-15.15-40.548-21.078z"/><path fill="#545737" d="M160.738 458.51q2.337-.63 4.69-1.2c.655.73 1.065 1.28 2.046 1.506l-2.583 2.272 1.003 1.186c-.687 2.788-9.137 11.108-11.845 12.974.829-1.074 1.392-1.514 1.504-2.886l-.782-.144c-.409.304-1.108.684-1.354 1.118-.5 4.244-5.3 8.236-7.593 11.916-2.805 4.498-4.121 10.018-6.448 14.748h-8.276c3.47-9.922 6.224-18.336 13.126-26.662 1.738-.518 12.946-12.308 16.512-14.828zm4.153 2.578c-5.438 3.832-16.131 13.2-18.562 19.448 2.242-2.408 4.489-5.194 7.088-7.2.247-.434.946-.814 1.354-1.118l.782.144c-.112 1.372-.675 1.812-1.504 2.886 2.708-1.866 11.158-10.186 11.845-12.974l-1.003-1.186z"/><path fill="#cbf5af" fill-opacity=".976" d="M164.891 461.088l1.003 1.186c-.687 2.788-9.137 11.108-11.845 12.974.829-1.074 1.392-1.514 1.504-2.886l-.782-.144c-.409.304-1.108.684-1.354 1.118-2.599 2.006-4.846 4.792-7.088 7.2 2.431-6.248 13.124-15.616 18.562-19.448z"/><path fill="#4aa52c" d="M374.744 471.362c4.544 4.004 9.002 8.09 12.766 12.858 1.4.096 2.024.416 3.144-.484l.048-2.494c2.516 3.718 5.058 7.432 7.094 11.446 1.4 2.4 2.692 4.758 3.798 7.312h-3.07-46.032c7.568-7 14.888-14.512 22.26-21.746l-.008-6.892z"/><path fill="#174109" d="M393.186 491.042l.342.25c1.214.894 2.048 1.814 2.944 3.02l.794.05.53-1.674 3.798 7.312h-3.07c-1.374-3.076-3.568-6.074-5.338-8.958z"/><path fill="#062201" d="M390.702 481.242c2.516 3.718 5.058 7.432 7.094 11.446l-.53 1.674-.794-.05c-.896-1.206-1.73-2.126-2.944-3.02l-.342-.25c-1.928-1.168-4.228-4.994-5.676-6.822 1.4.096 2.024.416 3.144-.484l.048-2.494z"/><path fill="#4aa52c" d="M203.656 466.318c3.434.416 5.81 3.372 9.26 1.55 5.426 2.982 11.002 5.76 16.946 7.548 22.634 6.802 48.248 1.446 68.616-9.582-.518 1.798-2.51 2.022-2.628 3.422 1.458.438 2.854.796 4.36 1.016 1.458-1.446 2.76-2.854 4.7-3.642-8.906 11.086-22.946 18.85-36.892 21.176-17.032 2.838-41.896 1.452-56.354-9.11-4.026-2.942-7.278-7.368-8.008-12.378z"/><defs><linearGradient id="Z" x1="128.676" y1="204.393" x2="130.768" y2="238.391" href="#B"><stop offset="0" stop-color="#ef7b4c"/><stop offset="1" stop-color="#fabf87"/></linearGradient></defs><path fill="url(#Z)" transform="matrix(2 0 0 2 .000061 0)" d="M145.204 204.558c.693-.626 1.655-1.738 2.625-1.773l.373.46c.456 5.021 1.142 11.81 5.287 15.29.655.55 1.451 1.065 2.266 1.341 1.066.501 2.66 1.035 3.482 1.883l-.957 1.909.62.308.082.353.442.208c-.996 1.599-2.16 3.426-3.5 4.744-.911 1.501-2.262 2.765-3.469 4.034-.97.394-1.621 1.098-2.35 1.821-.753-.11-1.451-.289-2.18-.508.059-.7 1.055-.812 1.314-1.711-10.184 5.514-22.991 8.192-34.308 4.791-2.972-.894-5.76-2.283-8.473-3.774-1.725.911-2.913-.567-4.63-.775l-.42-1.73-.514-1.137-.345-1.693c-.591-1.802-.941-3.737-1.449-5.575l.65.285.806-.556c-.09-.493-.375-.985-.584-1.44 1.454-.337 2.697-.684 4.073-1.264.545.381.688.765.912 1.359 1.892-.525 3.655-1.321 5.384-2.239l1.871-1.618c1.493-2.222 1.127-7.18.96-9.773 3.562 1.28 4.874 2.336 8.945 2.98 8.358 1.322 16.333-1.285 23.087-6.2z"/><path fill="#335e09" d="M202.846 454.62l1.96 4.994-3.018.97-.69-3.386c1.102-.944 1.256-1.208 1.748-2.578z"/><path d="M224.424 435.102c1.62 1.116 1.508 2.19 2.374 3.738-2.736.168-3.52 1.014-6.116-.502l3.742-3.236z" class="C"/><path d="M199.943 442.626c2.909-.674 5.395-1.368 8.147-2.528 1.09.762 1.376 1.53 1.824 2.718-2.452.668-6.412 1.248-8.482 2.584l-.32.106c-.18-.986-.75-1.97-1.169-2.88z" class="J"/><path d="M201.112 445.506l.32-.106c.116 3.172.598 6.15 1.414 9.22-.492 1.37-.646 1.634-1.748 2.578-1.183-3.604-1.882-7.474-2.899-11.15l1.3.57 1.613-1.112zm107.548 11.798c2.768-3.166 5.442-6.558 7.9-9.968l1.24.616.164.706.884.416c-1.992 3.198-4.32 6.852-7 9.488l-.518-.49c.42-.596.374-1.026.352-1.716-1.21.71-1.628 1.296-3.022.948z" fill="#174109"/><path d="M204.806 459.614l2.078 3.246c1.932 1.808 3.786 3.586 6.032 5.008-3.45 1.822-5.826-1.134-9.26-1.55l-.84-3.46-1.028-2.274 3.018-.97zm103.854-2.31c1.394.348 1.812-.238 3.022-.948.022.69.068 1.12-.352 1.716l.518.49c-1.822 3.002-4.524 5.53-6.938 8.068-1.94.788-3.242 2.196-4.7 3.642-1.506-.22-2.902-.578-4.36-1.016.118-1.4 2.11-1.624 2.628-3.422 3.516-2.658 6.912-5.574 10.182-8.53z" fill="#3d7e1a"/><defs><linearGradient id="a" x1="123.415" y1="203.422" x2="130.135" y2="216.213" href="#B"><stop offset="0" stop-color="#c64e2f"/><stop offset="1" stop-color="#e87546"/></linearGradient></defs><path fill="url(#a)" transform="matrix(2 0 0 2 .000061 0)" d="M113.172 207.778c3.562 1.28 4.874 2.336 8.945 2.98 8.358 1.322 16.333-1.285 23.087-6.2-.956 1.567-2.131 3.314-3.55 4.474-1.7 1.39-3.938 2.177-5.852 3.25-3.055 1.712-5.884 3.773-8.882 5.558-1.312.781-3.535 1.489-4.621 2.442-.15.132-.311.473-.427.65 1.568.901 6.638.71 8.412.232 1.076-.29 1.975-1.031 2.988-1.472.638-.277 1.422-.315 2.017-.65.88-.497 2.349-1.909 3.385-1.886-1.127 1.434-7.656 4.323-9.463 4.539-2.952.351-13.537-.487-15.812-2.275-.433-.774-.377-1.311-1.187-1.869 1.493-2.222 1.127-7.18.96-9.773z"/><defs><linearGradient id="b" x1="63.011" y1="111.163" x2="179.477" y2="143.527" href="#B"><stop offset="0"/><stop offset="1" stop-color="#240605"/></linearGradient></defs><path fill="url(#b)" transform="matrix(2 0 0 2 .000061 0)" d="M97.392 63.558c2.43-1.181 5.345-1.984 7.958-2.62 10.381-2.524 16.136-1.183 26.361-.343 3.203.263 6.404.082 9.605.468 2.827.365 5.619 1.136 8.364 1.889 1.055.418 2.262.775 3.25 1.319 1.862-.09 4.592.392 6.248 1.281 1.599.597 2.933 1.322 4.269 2.409 2.395 2.21 5.228 4.902 6.437 8.015.874 1.106 1.355 2.398 2.167 3.515.286.473.674.989.82 1.523.522 1.602 1.238 3.367 1.165 5.062.396.818.7 1.643.991 2.503l-.082.236c-.001 1.672 1.342 4.389.136 5.677.873 2.115 1.001 4.605 1.388 6.855.334 1.37.629 2.842 1.103 4.169.298 1.269 1.389 2.581 1.368 3.793a25.16 25.16 0 0 1-.769.798c2.663 3.316 5.147 6.312 5.342 10.796 1.304 4.008-.7 8.687.381 12.633-4.013 7.573-10.333 16.497-18.452 20.033-3.656 1.666-6.765 2.14-10.767 2.012 1.093.599 1.838 1.533 2.649 2.455-1.689.849-3.44 1.437-5.267 1.917-.487.524-.749 1.016-1.535 1.023-.288.003-.6-.073-.882-.129l-.635-1.518c-.821-.096-1.487.225-2.245.495-3.969 1.413-7.82 2.41-11.992 2.99-9.973 1.362-21.903 2.338-31.778.272l-2.342-.29c-1.441-.224-2.668-.421-4.057.119-.166.361-.331.361-.684.523-.549-.094-.935-.311-1.331-.692-1.088-1.047-4.28-4.804-4.666-6.127-.102-.349-.023-1.009-.032-1.393-.296.152-.585.221-.916.241-6.24.375-14.323-4.548-18.845-8.457-.849-.561-1.602-1.194-2.367-1.863-3.096-4.059-4.66-8.408-6.035-13.271-.675-.47-.857-.962-1.051-1.717.59-1.181.955-2.83.602-4.133-.388-1.435-1.26-1.95-2.487-2.682 1.518-2.865 4.152-5.111 5.832-7.979-.028-.319-.057-.639-.069-.959-.099-2.636 1.826-2.166 3.291-3.751l.112-.124c1.081-1.17.81-2.32 1.551-3.358.773-1.082 1.309.145 2.197.024-.024-.04-.054-.076-.073-.118-.92-1.994 1.839-13.588 2.552-16.259 4.626-8.648 15.397-21.308 23.22-27.262z"/><path d="M295.41 212.252c9.054-5.426 20.804-5.456 30.802-2.968 9.342 2.326 18.316 8.994 23.614 17.016-.412.082-1.002.286-1.408.198-.88-.986-1.452-1.69-2.802-1.994-4.614-1.036-3.992-4.64-6.62-7.64-6.41-7.318-19.068-7.786-27.976-8.276-4.24.538-13.47 3.666-15.61 3.664z" class="L"/><path d="M367.026 241.806c2.608 8.016-1.4 17.374.762 25.266-8.026 15.146-20.666 32.994-36.904 40.066 2.628-3.938 8.97-7.204 12.636-10.358 3.774-3.25 7.468-6.96 10.476-10.938 3.458-4.578 11.118-18.632 12.064-24.134 1.12-6.514.486-13.314.966-19.902z" class="O"/><path d="M295.41 212.252c2.14.002 11.37-3.126 15.61-3.664l-4.976 3.61.084.41c-2.036.98-2.384 2.58-4.262 3.508-3.172 1.57-7.96 1.97-10.428 4.64-5.664 2.094-8.718 5.678-13.64 8.596-2.018-.402-4.748 5.42-6.668 6.696-.032-2.796 4.174-8.3 5.966-10.634l-.286-.674c3.152-4.872 13.274-10.75 18.6-12.488z" class="M"/><path d="M349.826 226.3c7.074 8.094 11.59 21.434 10.858 32.144-.218 3.17-.894 6.262-2.388 9.088-1.97-6.18-1.4-12.982-3.408-19.22-1.756-5.45-6.262-10.09-7.578-15.542l.476-.672-.458.174c.336-1.198.856-2.568.726-3.818-.08-.778.068-1.24.364-1.956.406.088.996-.116 1.408-.198z" class="B"/><defs><linearGradient id="c" x1="104.977" y1="124.054" x2="112.008" y2="124.46" href="#B"><stop offset="0" stop-color="#e1a97d"/><stop offset="1" stop-color="#f9e0c7"/></linearGradient></defs><path fill="url(#c)" transform="matrix(2 0 0 2 .000061 0)" d="M104.443 115.617c.325-1.025.876-1.882 1.437-2.789.65.777 1.314 1.536 1.827 2.415 3.444 5.478 5.81 11.983 4.31 18.508-.551 2.398-1.592 4.685-2.926 6.746l-.272-.368c.179-.889 1.154-3.265 1.819-3.869a2.16 2.16 0 0 0 .54-.728c.1-.198-.078-.498-.15-.706a11.84 11.84 0 0 1-1.371-1.381c-.525 2.016-1.123 4.016-1.694 6.019l-.388-.004-.115-.155.065.703.145.103c-.757-.611.886-3.575.502-5.522 1.544-2.571 1.659-5.668 1.457-8.569l-.241-1.208c-.461-1.81-1.236-3.498-2.213-5.084-.925-1.489-1.962-2.787-3.108-4.11l.376-.001z"/><path d="M208.886 231.234c.65-2.05 1.752-3.764 2.874-5.578 1.3 1.554 2.628 3.072 3.654 4.83-1.34-.644-1.904-1.204-3.38-.864-.616.79-1.158 1.578-1.666 2.442l-1.482-.83z" class="H"/><defs><linearGradient id="d" x1="81.148" y1="106.66" x2="90.623" y2="123.199" href="#B"><stop offset="0" stop-color="#b5674d"/><stop offset="1" stop-color="#dd9872"/></linearGradient></defs><path fill="url(#d)" transform="matrix(2 0 0 2 .000061 0)" d="M67.83 119.255a28.97 28.97 0 0 1 7.816-9.569c5.183-4.069 10.5-4.593 16.847-3.793 5.148.648 10.131 2.738 13.388 6.935-.561.907-1.112 1.764-1.437 2.789l-.376.001c-2.973-2.662-6.137-4.397-9.757-6.035-5.355-.461-9.874.136-14.118 3.687-3.368 2.819-6.17 7.224-6.852 11.589-.153-.756-.254-1.197-.813-1.763-.522-.186-.66-.3-1.195-.059-.99.445-1.775 1.991-2.151 2.977-.023.06-.035.124-.053.186l-.647 1.366c-.872 1.308-1.48 2.538-2.036 4.014-1.375-4.613-.753-8.089 1.384-12.325z"/><path d="M135.659 238.51c.249 1.278.282 1.938 1.142 2.954.981-.212 1.191-.39 1.876-1.066 1.853-1.832 3.247-4.28 4.875-6.324 2.811-3.53 6.392-7.296 9.813-10.266q1.969-1.702 4.188-3.062 2.219-1.36 4.628-2.342c8.886-3.624 17.732-2.888 26.44.762-10.71-.922-19.748.272-28.237 7.374-6.736 5.638-12.34 14.448-13.704 23.178-.306-1.512-.508-2.394-1.626-3.526-1.045-.372-1.321-.6-2.39-.118-1.98.89-3.55 3.982-4.302 5.954-.046.12-.071.248-.106.372l-1.294 2.732c-1.744 2.616-2.96 5.076-4.072 8.028-2.751-9.226-1.506-16.178 2.768-24.65z" class="E"/><path d="M138.256 252.4l.106-.372c.753-1.972 2.322-5.064 4.302-5.954 1.069-.482 1.345-.254 2.39.118 1.118 1.132 1.32 2.014 1.626 3.526-.102.968-.334 2.298-.027 3.23.46 1.392 1.87 2.596 2.477 4.068 1.591 3.854 2.327 8.02 4.027 11.782l2.379-.178c.229-.912.321-1.838.432-2.77 1.681 5.684 3.78 9.75 9.225 12.724 6.891 3.764 16.025 5.06 23.771 4.316 5.62-2.352 7.792-1.332 13.009-5.68 1.266-.908 2.364-2.296 3.432-3.436l.542-.356 1.544-.956c-.742-1.416-1.318-2.96-1.952-4.43-1.598-.982-2.994-.55-4.824-.718l-.338-.034c3.61-4.756 10.344-7.606 11.6-14.088 1.584-3.016 3.666-2.52 6.498-3.466l.3-.102.482 2.416c.404 5.802.174 11.996-2.914 17.138.768 3.894-2.518 9.822-1.004 11.044l-.29-.206-.13-1.406.23.31.776.008 3.388-12.038c.862 1.014 1.726 1.896 2.742 2.762.144.416.5 1.016.3 1.412-.314.626-.564.988-1.08 1.456-1.33 1.208-3.28 5.96-3.638 7.738l.544.736c-2.944 7.414-14.456 17.55-21.735 20.69-10.465 4.512-22.426 2.496-32.681-1.628-7.4-2.976-15.708-8.106-19.869-15.168-3.157-3.228-5.23-7.992-7.213-11.984l-1.259-2.634-2.534-7.11c1.111-2.952 2.328-5.412 4.072-8.028l1.294-2.732z" class="F"/><path d="M211.554 274.22c-.744 1.828-1.45 4.64-3.398 5.458-1.546.648-3.366.138-4.988.312l6.5-4.548 1.886-1.222z" class="H"/><path d="M218.776 249.624l.482 2.416c.404 5.802.174 11.996-2.914 17.138l-4.79 5.042-1.886 1.222-6.5 4.548c-3.902 2.064-7.791 3.658-12.168 4.402-10.806 1.838-22.795-1.15-31.694-7.456-2.766-2.484-4.639-4.714-6.148-8.138l2.379-.178c.229-.912.321-1.838.432-2.77 1.681 5.684 3.78 9.75 9.225 12.724 6.891 3.764 16.025 5.06 23.771 4.316 5.62-2.352 7.792-1.332 13.009-5.68 1.266-.908 2.364-2.296 3.432-3.436l.542-.356 1.544-.956c-.742-1.416-1.318-2.96-1.952-4.43-1.598-.982-2.994-.55-4.824-.718l-.338-.034c3.61-4.756 10.344-7.606 11.6-14.088 1.584-3.016 3.666-2.52 6.498-3.466l.3-.102z" class="D"/><path d="M219.258 252.04c.404 5.802.174 11.996-2.914 17.138l-4.79 5.042-1.886 1.222-1.094-3.848-.27-.458c.264-2.316 1.488-4.386 2.14-6.608.986-3.364 1.506-6.882 2.592-10.22.39-1.2 1.136-1.68 2.216-2.25 1.494.188 2.248 1.08 3.422 1.996l.584-2.014z" class="Q"/><path d="M138.256 252.4l.106-.372c.753-1.972 2.322-5.064 4.302-5.954 1.069-.482 1.345-.254 2.39.118 1.118 1.132 1.32 2.014 1.626 3.526-.102.968-.334 2.298-.027 3.23.46 1.392 1.87 2.596 2.477 4.068 1.591 3.854 2.327 8.02 4.027 11.782 1.509 3.424 3.382 5.654 6.148 8.138-1.577-.22-2.594-.434-3.583-1.79-.925-1.27-1.65-2.622-2.637-3.86l-.44.212c-.22-.114-.416-.3-.661-.344-1.317-.236-4.564 1.02-6.007 1.24-1.742.266-3.809-.05-5.466.51-.812.276-1.128.528-1.655 1.194 1.279 3.682 4.43 7.018 5.039 10.79-3.157-3.228-5.23-7.992-7.213-11.984l-1.259-2.634-2.534-7.11c1.111-2.952 2.328-5.412 4.072-8.028l1.294-2.732z" class="G"/><path d="M132.891 263.16c1.111-2.952 2.328-5.412 4.072-8.028.276 3.456.624 6.862-.185 10.274-.39 1.644-1.081 3.194-1.352 4.864l-2.534-7.11z" class="B"/><path d="M146.681 249.718c1.364-8.73 6.967-17.54 13.704-23.178 8.488-7.102 17.526-8.296 28.237-7.374 7.24 3.276 13.567 6.746 19.513 12.07 2.292 2.646 4.366 5.242 6.216 8.22 1.954 3.172 3.504 6.548 4.426 10.168l-.3.102c-2.832.946-4.914.45-6.498 3.466-1.256 6.482-7.99 9.332-11.6 14.088l.338.034c1.83.168 3.226-.264 4.824.718.634 1.47 1.21 3.014 1.952 4.43l-1.544.956-.542.356c-1.068 1.14-2.166 2.528-3.432 3.436-5.217 4.348-7.388 3.328-13.009 5.68-7.745.744-16.879-.552-23.771-4.316-5.445-2.974-7.545-7.04-9.225-12.724-.111.932-.203 1.858-.432 2.77l-2.379.178c-1.7-3.762-2.436-7.928-4.027-11.782-.608-1.472-2.018-2.676-2.477-4.068-.307-.932-.076-2.262.027-3.23z" class="S"/><path d="M159.597 242.56l-.502-.03-.289-.766.873-.898-.045-1.036c.046-4.534 5.734-7.01 8.671-9.88l.315.808c-3.596 3.622-6.467 7.388-9.022 11.802z" class="R"/><path d="M214.35 239.456c1.954 3.172 3.504 6.548 4.426 10.168l-.3.102c-2.832.946-4.914.45-6.498 3.466-.33-5.406-.022-8.898 2.372-13.736z" class="J"/><path d="M168.619 230.758c2.986-1.762 5.907-3.54 9.523-2.614 1.702.436 3.174 1.454 4.51 2.568 1.05.524 1.197.586 1.762 1.602-1.06 2.15-2.071 3.874-2.509 6.276.231 2.39.348 4.774-.063 7.152-.97 5.614-5.631 15.752-.2 20.248 2.564 2.122 12.224 2.874 15.577 2.44 1.15-.148 2.146-.608 3.159-1.15l.338.034c1.83.168 3.226-.264 4.824.718.634 1.47 1.21 3.014 1.952 4.43l-1.544.956-.542.356c-1.068 1.14-2.166 2.528-3.432 3.436-5.217 4.348-7.388 3.328-13.009 5.68-7.745.744-16.879-.552-23.771-4.316-5.445-2.974-7.545-7.04-9.225-12.724-.776-8.714.104-15.264 3.627-23.29 2.556-4.414 5.427-8.18 9.022-11.802z" class="K"/><path d="M168.321 246.042c2.503 2.792 3.889 4.846 4.704 8.594.307 1.556.758 2.562 1.642 3.876-.162.392-.3.838-.529 1.196l-1.473.898-3.217-.256c-.898-4.814-1.219-9.414-1.128-14.308z" class="D"/><path d="M169.449 260.35l3.217.256c-.013 2.866.927 5.314 2.983 7.356.942.936 1.97 1.84 3.046 2.618l.19.348c.897 1.61 3.269 3.172 3.424 4.772l-2.156 1.53c-6.204-4.648-8.902-9.424-10.704-16.88z" class="B"/><path d="M182.651 230.712c1.05.524 1.197.586 1.762 1.602-1.06 2.15-2.071 3.874-2.509 6.276-1.837-.37-3.984-.244-5.866-.316-3.287 1.144-5.371 3.144-7.917 5.43 3.578-6.268 7.508-10.572 14.53-12.992z" class="O"/><path d="M176.039 238.274c1.882.072 4.029-.054 5.866.316.231 2.39.348 4.774-.063 7.152-.97 5.614-5.631 15.752-.2 20.248 2.564 2.122 12.224 2.874 15.577 2.44 1.15-.148 2.146-.608 3.159-1.15l.338.034c1.83.168 3.226-.264 4.824.718.634 1.47 1.21 3.014 1.952 4.43l-1.544.956-.542.356c-1.068 1.14-2.166 2.528-3.432 3.436-5.217 4.348-7.388 3.328-13.009 5.68-.03-.12-.045-.246-.089-.36-.534-1.4-3.727-2.456-5.067-3.08l-3.656-2.22c.76-.47 1.453-.98 2.156-1.53-.155-1.6-2.527-3.162-3.424-4.772l-.19-.348c-1.076-.778-2.105-1.682-3.046-2.618-2.057-2.042-2.996-4.49-2.983-7.356l1.473-.898c.229-.358.367-.804.529-1.196-.884-1.314-1.335-2.32-1.642-3.876l1.475-.766c1.163-1.94 2.805-3.578 3.904-5.548s1.768-4.586 1.069-6.786c-.587-1.848-1.821-2.448-3.435-3.262z" class="B"/><path d="M174.139 259.708c1.66.234 2.761.074 3.848 1.542 1.602 2.162.93 5.746 2.114 8.218l-1.405 1.112c-1.076-.778-2.105-1.682-3.046-2.618-2.057-2.042-2.996-4.49-2.983-7.356l1.473-.898z" class="F"/><path d="M180.101 269.468c.736.148 1.8.216 2.296.804 4.758 1.822 21.671-.162 23.447 2.298l.104.848-.542.356c-1.068 1.14-2.166 2.528-3.432 3.436-5.217 4.348-7.388 3.328-13.009 5.68-.03-.12-.045-.246-.089-.36-.534-1.4-3.727-2.456-5.067-3.08l-3.656-2.22c.76-.47 1.453-.98 2.156-1.53-.155-1.6-2.527-3.162-3.424-4.772l-.19-.348 1.405-1.112z" class="L"/><path d="M183.809 279.45c-.083-1.354-.29-2.752.277-4.026 1.764-.968 3.821-.538 5.817-.472 3.523.308 9.382.078 12.071 2.258-5.217 4.348-7.388 3.328-13.009 5.68-.03-.12-.045-.246-.089-.36-.534-1.4-3.727-2.456-5.067-3.08z" class="M"/><defs><linearGradient id="e" x1="116.083" y1="126.071" x2="125.02" y2="165.481" href="#B"><stop offset="0" stop-color="#f79a70"/><stop offset="1" stop-color="#f8c08e"/></linearGradient></defs><path fill="url(#e)" transform="matrix(2 0 0 2 .000061 0)" d="M116.502 125.525q4.98-.379 9.967-.094c.443 7.844 3.012 17.354 9.059 22.733 5.676 5.049 11.728 7.021 19.147 7.417 1.093.599 1.838 1.533 2.649 2.455-1.689.849-3.44 1.437-5.267 1.917-.487.524-.749 1.016-1.535 1.023-.288.003-.6-.073-.882-.129l-.635-1.518c-.821-.096-1.487.225-2.245.495-3.969 1.413-7.82 2.41-11.992 2.99-9.973 1.362-21.903 2.338-31.778.272l-2.342-.29c-1.441-.224-2.668-.421-4.057.119-.166.361-.331.361-.684.523-.549-.094-.935-.311-1.331-.692-1.088-1.047-4.28-4.804-4.666-6.127-.102-.349-.023-1.009-.032-1.393l.235-.049c1.467-.297 2.246.568 3.439.501.779-.043 2.067-.652 2.841-.902 6.108-1.975 10.848-5.449 14.463-10.799 3.86-5.713 5.779-11.55 5.645-18.452z"/><path d="M183.93 314.29c.38-.084.811-.032 1.201-.024l-.773 1.042-.5-.144.072-.874z" class="P"/><path d="M298.01 318.658c2.968-.722 3.532-.298 6.104 1.248-.974 1.048-1.498 2.032-3.07 2.046-.576.006-1.2-.146-1.764-.258l-1.27-3.036zm-92.03 7.514l.832-.34.44-.156c3.698-1.34 14.33-1.36 17.966-.018-.49.38-.798.57-1.018 1.172.916-.008 1.974-.098 2.864.116 4.518 1.086 24.644.404 29.172-1.05l.156-.744c-2.892.11-6.49.146-9.29-.566 7.512-.278 15.068-.676 22.434 1.042-19.946 2.724-43.806 4.676-63.556.544z" class="N"/><path d="M240.918 284.27c-2.452-.13-5.488-2.806-7.152-4.67-.256-.286-.472-.614-.672-.942l.368-.212c.854.53 1.448 1.172 2.48.94 3.236-.728 7.384-2.618 10.728-2.038 3.924 3.268 3.306 5.914 9.03 8.638 1.406.878 2.01 1.118 2.466 2.748-.448 1.358-1 2.35-2.276 3.09-3.172 1.842-16.306-1.044-20.052-2.274-1.246-.408-1.424-1.084-1.916-2.192.038-1.178.104-1.898.812-2.874.256-.354.474-.264.884-.32l.354.752c-.466.956-.808 1.716-.876 2.786 1.322 1.002 2.896.508 4.466.964 3.82 1.108 9.896 2.196 13.864 2.072l.354-.49c-3.912-3.28-8.778-3.494-12.862-5.978z" class="F"/><path d="M223.126 303.926c-1.28-2.146-1.682-6.054-1.676-8.538.004-1.238.082-2.284.996-3.214l.46.136c-.536 1.928-.984 3.354-.014 5.172 1.956 1.166 4.33.664 6.502.992 3.766.568 7.242 1.77 11.122 2.112 5.15.452 10.478.856 15.642.942 3.144.052 5.972-.268 9.158.078-.284 3.356-1.246 5.566-3.85 7.788-1.236 1.056-2.568 2.054-3.918 2.964-4.464 4.042-10.436 5.538-16.424 5.288-2.182-.092-4.418-.636-6.494-1.3-5.782-2.504-8.738-7.04-11.504-12.42z" class="G"/><path d="M265.316 301.606c-.284 3.356-1.246 5.566-3.85 7.788-1.236 1.056-2.568 2.054-3.918 2.964-.94-.19-1.348-.402-1.978-1.13-.034-1.43.13-2.062.978-3.242 1.634-2.266 5.976-5.978 8.768-6.38z" class="I"/><path d="M223.126 303.926c.662-.558.82-.868 1.74-.72 2.26.366 4.864 2.114 7.176 2.794.578 3.512 1.686 6.25 3.642 9.236-.346.474-.55.784-1.054 1.11-5.782-2.504-8.738-7.04-11.504-12.42z" class="D"/><path d="M311.02 208.588c8.908.49 21.566.958 27.976 8.276 2.628 3 2.006 6.604 6.62 7.64 1.35.304 1.922 1.008 2.802 1.994-.296.716-.444 1.178-.364 1.956.13 1.25-.39 2.62-.726 3.818l.458-.174-.476.672c1.316 5.452 5.822 10.092 7.578 15.542 2.008 6.238 1.438 13.04 3.408 19.22-3.588 8.11-8.204 15.448-14.416 21.826-8.492 8.716-18.162 15.298-30.658 15.42q-1.268.022-2.536-.02-1.266-.04-2.53-.144-1.264-.104-2.522-.27-1.256-.164-2.504-.392-1.248-.228-2.482-.518-1.234-.288-2.454-.638-1.218-.35-2.418-.758-1.2-.41-2.38-.878-1.178-.468-2.332-.994-1.154-.526-2.28-1.108-1.126-.582-2.222-1.218-1.098-.636-2.162-1.328-1.062-.69-2.092-1.432-1.028-.742-2.018-1.534-.99-.79-1.94-1.63-.95-.84-1.858-1.726-.812-.784-1.586-1.608-.772-.824-1.502-1.684-.73-.862-1.418-1.758-.686-.898-1.326-1.826-.642-.93-1.236-1.89-.594-.962-1.14-1.95-.544-.988-1.04-2.004-.496-1.014-.94-2.052-.444-1.038-.836-2.098-.392-1.058-.732-2.136-.338-1.078-.624-2.17-.284-1.092-.514-2.198-.23-1.106-.404-2.222-.174-1.116-.294-2.238-.118-1.124-.18-2.252-.064-1.126-.07-2.256c-.054-10.842 6.594-25.436 14.16-33.108l.286.674c-1.792 2.334-5.998 7.838-5.966 10.634 1.92-1.276 4.65-7.098 6.668-6.696 4.922-2.918 7.976-6.502 13.64-8.596 2.468-2.67 7.256-3.07 10.428-4.64 1.878-.928 2.226-2.528 4.262-3.508l-.084-.41 4.976-3.61z" class="C"/><path d="M351.132 244.862q1.586 5.258 3.3 10.476c-1.018 4.422-1.536 8.974-2.18 13.466-3.964 2.898-6.34 3.816-11.288 4.266q1.298-.738 2.544-1.558c4.844-3.216 6.296-6.114 7.446-11.592 1.496-4.562.41-10.33.178-15.058z" class="G"/><defs><linearGradient id="f" x1="144.985" y1="110.391" x2="139.658" y2="118.034" href="#B"><stop offset="0" stop-color="#9a4b28"/><stop offset="1" stop-color="#bc6e41"/></linearGradient></defs><path fill="url(#f)" transform="matrix(2 0 0 2 .000061 0)" d="M145.719 110.378l1.711-.293c.353.789.712 1.092 1.439 1.546.72-.52 1.581-.881 2.379-1.27.638.182 1.059.152 1.417.739l-.172.815c-1.2.599-2.086 1.254-3.06 2.172-.462.509-1.114 1.436-1.703 1.747-.547-.502-1.196-.756-1.867-1.051l-2.602 3.612c-1.421-.203-2.814.382-4.244.128-.681-.122-.971-.369-1.365-.911l.968.118.297-.235c-.135-.496-.205-.748-.619-1.068-1.804.533-2.278 3.923-3.196 5.274l-.274-.318c.193-2.154 2.661-5.137 4.071-6.707 2.461-1.459 3.988-3.251 6.82-4.298z"/><path d="M297.738 223.262c1.44-1.04 3.162-1.762 4.758-2.54 1.276.364 2.118.304 2.834 1.478l-.344 1.63c-2.4 1.198-4.172 2.508-6.12 4.344-.924 1.018-2.228 2.872-3.406 3.494-1.094-1.004-2.392-1.512-3.734-2.102 1.356-2.524 3.874-4.454 6.012-6.304z" class="M"/><path d="M291.726 229.566c1.342.59 2.64 1.098 3.734 2.102-3.094 4.372-4.98 9.226-6.35 14.38l-.476 2.782c-2.336 6.374-2.886 11.892.118 18.258 2.35 4.978 6.414 8.778 11.614 10.616 3.738 1.32 8.152 1.734 12.046 1.076l2.026 2.266c-2.428.508-4.81 1.142-7.226 1.682-6.298 1.408-15.506 1.834-21.104-1.836-4.32-2.834-6.742-7.784-7.794-12.71-2.722-12.738 1.506-20.99 8.208-31.392 1.598-2.468 3.54-4.778 5.204-7.224z" class="K"/><path d="M306.128 212.608c6.784-1.636 16.794 1.848 22.53 5.382.292.18.566.386.836.596l.182.162c2.766 2.402 5.826 2.566 8.702 4.404 3.424 2.188 10.792 17.236 12.754 21.71.232 4.728 1.318 10.496-.178 15.058-1.15 5.478-2.602 8.376-7.446 11.592q-1.246.82-2.544 1.558c-.826.142-.976.116-1.766-.17l-.558-1.5c.62-.574 1.222-1.166 1.736-1.838 3.702-4.85 2.902-11.88 2.166-17.54-.91-4.328-2.53-8.22-4.586-12.118l-1.93-3.43-.206-.632-5.126-4.868c-6.888-6.27-14.254-7.636-22.914-9.882-1.85-.692-3.354-.632-5.284-.37-1.596.778-3.318 1.5-4.758 2.54-1.454-.908-2.172-1.514-2.878-3.092l-3.422.586c2.468-2.67 7.256-3.07 10.428-4.64 1.878-.928 2.226-2.528 4.262-3.508z" class="L"/><path d="M294.86 220.17c1.866-.842 3.794-1.914 5.754-2.472 5.316-1.512 13.672-1.238 19.116-.256-3.346.038-9.18-1.024-11.874.964l-.076 2.686c-1.85-.692-3.354-.632-5.284-.37-1.596.778-3.318 1.5-4.758 2.54-1.454-.908-2.172-1.514-2.878-3.092z" class="S"/><path d="M319.73 217.442c2.264.252 4.322.78 6.502 1.406 5.216 2.298 10.776 5.162 14.194 9.906-1.778-.596-2.014-1.938-3.802-1.496l.232-.018c-1.236 1.632-2.34 3.114-3.072 5.038.736.838 2.546 2.056 2.24 3.208-.036.132-.136.238-.204.356l-5.126-4.868c-6.888-6.27-14.254-7.636-22.914-9.882.004-.898.038-1.79.076-2.686 2.694-1.988 8.528-.926 11.874-.964z" class="R"/><path d="M335.82 235.842c.068-.118.168-.224.204-.356.306-1.152-1.504-2.37-2.24-3.208.732-1.924 1.836-3.406 3.072-5.038l-.232.018c1.788-.442 2.024.9 3.802 1.496 6.458 6.232 9.238 15.158 9.98 23.852.19 2.244-.084 5.192.548 7.314-1.15 5.478-2.602 8.376-7.446 11.592q-1.246.82-2.544 1.558c-.826.142-.976.116-1.766-.17l-.558-1.5c.62-.574 1.222-1.166 1.736-1.838 3.702-4.85 2.902-11.88 2.166-17.54-.91-4.328-2.53-8.22-4.586-12.118l-1.93-3.43-.206-.632z" class="S"/><defs><linearGradient id="g" x1="147.599" y1="119.071" x2="167.99" y2="130.984" href="#B"><stop offset="0" stop-color="#140303"/><stop offset="1" stop-color="#302725"/></linearGradient></defs><path fill="url(#g)" transform="matrix(2 0 0 2 .000061 0)" d="M151.248 110.361c.965-.131 1.717-.161 2.642.185 4.33 1.123 8.013 1.806 11.457 4.941l2.563 2.434.103.316.965 1.715c1.028 1.949 1.838 3.895 2.293 6.059.368 2.83.768 6.345-1.083 8.77-.257.336-.558.632-.868.919-3.537 2.07-8.12 3.941-12.101 4.823l-1.013-1.133c-1.947.329-4.154.122-6.023-.538-2.6-.919-4.632-2.819-5.807-5.308-1.502-3.183-1.227-5.942-.059-9.129l.238-1.391c.685-2.577 1.628-5.004 3.175-7.19.589-.311 1.241-1.238 1.703-1.747.974-.918 1.86-1.573 3.06-2.172l.172-.815c-.358-.587-.779-.557-1.417-.739z"/><g class="C"><path d="M336.026 236.474l1.93 3.43c-1.148.582-2.148.834-2.796 1.976l-2.088-3.766c.858-.72 1.952-1.154 2.954-1.64z"/><path d="M328.13 232.682c.538-.956 1.606-1.268 2.564-1.708l5.126 4.868.206.632c-1.002.486-2.096.92-2.954 1.64-1.56-1.946-3.138-3.702-4.942-5.432z"/></g><path d="M302.496 220.722c1.93-.262 3.434-.322 5.284.37 8.66 2.246 16.026 3.612 22.914 9.882-.958.44-2.026.752-2.564 1.708-7.414-5.28-14.266-7.352-23.144-8.852l.344-1.63c-.716-1.174-1.558-1.114-2.834-1.478z" class="B"/><path d="M295.46 231.668c1.178-.622 2.482-2.476 3.406-3.494 3.098 5.44 2.072 13.562.48 19.374-.774 2.828-1.6 5.476-2.058 8.386-.398-.874-1.05-1.688-1.588-2.484-.416.546-.96.93-1.49 1.362l-.756-.254c-.198-1.542-.57-2.962-1.008-4.45-1.244-1.17-2.148-1.042-3.812-1.278l.476-2.782c1.37-5.154 3.256-10.008 6.35-14.38z" class="E"/><path d="M289.11 246.048c2.774.726 6.704-2.452 9.402-3.572-1.022 3.576-1.588 7.504-2.812 10.974-.416.546-.96.93-1.49 1.362l-.756-.254c-.198-1.542-.57-2.962-1.008-4.45-1.244-1.17-2.148-1.042-3.812-1.278l.476-2.782z" class="P"/><path d="M337.956 239.904c2.056 3.898 3.676 7.79 4.586 12.118.736 5.66 1.536 12.69-2.166 17.54-.514.672-1.116 1.264-1.736 1.838-7.074 4.14-16.24 7.882-24.202 9.646l-2.026-2.266c6.63-2.624 12.94-3.166 18.74-7.88 4.418-4.184 5.496-7.782 6.416-13.604-.052-5.454-.516-10.27-2.408-15.416.648-1.142 1.648-1.394 2.796-1.976z" class="N"/><path d="M337.956 239.904c2.056 3.898 3.676 7.79 4.586 12.118-1.362-2.11-2.5-4.534-4.194-6.386l-.186.268.002-.422.4.528c-.054.084-.122.162-.164.254-.48 1.056-.096 8.438-.832 11.032-.052-5.454-.516-10.27-2.408-15.416.648-1.142 1.648-1.394 2.796-1.976z" class="F"/><path d="M288.634 248.83c1.664.236 2.568.108 3.812 1.278.438 1.488.81 2.908 1.008 4.45l.756.254c.53-.432 1.074-.816 1.49-1.362.538.796 1.19 1.61 1.588 2.484l-1.096 6.578c6.52 5.632 12.062 8.944 20.976 8.312 2.724-.192 9.83-2.184 12.062-1.29.598.24 1.374.976 1.922 1.366-5.8 4.714-12.11 5.256-18.74 7.88-3.894.658-8.308.244-12.046-1.076-5.2-1.838-9.264-5.638-11.614-10.616-3.004-6.366-2.454-11.884-.118-18.258z" class="B"/><path d="M194.784 127.116c4.859-2.363 10.69-3.969 15.916-5.24 20.762-5.048 32.272-2.365 52.722-.686 6.406.526 12.808.163 19.21.937 5.654.729 11.238 2.273 16.728 3.778 2.11.835 4.524 1.55 6.5 2.637 3.724-.179 9.184.785 12.496 2.561 3.198 1.195 5.866 2.645 8.538 4.817 4.79 4.421 10.456 9.804 12.874 16.03 1.748 2.212 2.71 4.795 4.334 7.03.572.946 1.348 1.978 1.64 3.046 1.044 3.205 2.476 6.733 2.33 10.124.792 1.636 1.4 3.287 1.982 5.007l-.164.471c-.002 3.344 2.684 8.778.272 11.354 1.746 4.229 2.002 9.21 2.776 13.711.668 2.74 1.258 5.684 2.206 8.338.596 2.538 2.778 5.162 2.736 7.586a50.32 50.32 0 0 1-1.538 1.596c-5.456-6.012-14.032-11.696-21.588-14.642-17.152-6.686-31.66-5.402-48.156 1.794-14.406 6.954-25.146 20.124-30.652 35.08-6.024-.924-18.086-.814-23.852.782-3.54-13.134-12.606-25.818-24.496-32.66-13.933-8.014-30.129-8.4-45.298-4.254-6.903 1.888-12.785 4.43-18.914 8.08-.049-.08-.108-.152-.146-.236-1.839-3.988 3.678-27.176 5.104-32.518 9.253-17.296 30.795-42.617 46.44-54.524z" class="N"/><path d="M279.826 198.89c10.512-1.484 20.814-3.979 31.504-3.606 3.952.138 7.974.517 11.89 1.085 4.654.675 12.99 3.393 17.196 2.658l.484-1.463.228 1.694c-.674.824-.998 1.306-2.156 1.43-3.108.336-8.094-1.536-11.308-2.201-12.24-2.532-23.294-2.959-35.602-.496-2.834.567-6.094.369-8.706 1.628-.198.296-.616.714-.538 1.066.412 1.862 3.246 3.91 4.814 4.96l.288-.268c3.138-2.85 20.496-5.697 25.494-5.356 10.944.75 21.018 4.494 31.65 6.782 3.014 6.282 5.804 4.504 7.434 7.158l.454.03-.276.328 1.084 2.056 1.078-.094c-.654-4.772-2.376-8.652-1.9-13.588.668 2.74 1.258 5.684 2.206 8.338.596 2.538 2.778 5.162 2.736 7.586a50.32 50.32 0 0 1-1.538 1.596c-5.456-6.012-14.032-11.696-21.588-14.642-17.152-6.686-31.66-5.402-48.156 1.794-2.486-2.626-4.158-5.8-6.772-8.476zm26.034-70.347c3.724-.179 9.184.785 12.496 2.561 3.198 1.195 5.866 2.645 8.538 4.817 4.79 4.421 10.456 9.804 12.874 16.03 1.748 2.212 2.71 4.795 4.334 7.03.572.946 1.348 1.978 1.64 3.046 1.044 3.205 2.476 6.733 2.33 10.124.792 1.636 1.4 3.287 1.982 5.007l-.164.471c-.002 3.344 2.684 8.778.272 11.354-6.198-13.533-14.474-26.751-23-38.919-2.434-1.611-6.454-7.827-8.686-10.352-3.822-4.326-7.896-7.855-12.616-11.169z" class="C"/><path d="M339.768 151.952c1.748 2.212 2.71 4.795 4.334 7.03.048 2.145-.072 4.197-.31 6.329l-3.15-5.731.502-.293c.538-2.313-.87-5.031-1.376-7.336z" class="I"/><path d="M344.102 158.982c.572.946 1.348 1.978 1.64 3.046 1.044 3.205 2.476 6.733 2.33 10.124-1.666-1.957-2.908-4.629-4.28-6.841.238-2.132.358-4.184.31-6.329z" class="B"/><path d="M305.86 128.543c3.724-.179 9.184.785 12.496 2.561 7.58 9.198 15.736 18.159 21.526 28.64l-.186.295c-1.802-1.268-2.61-4.166-3.94-5.937-.746-.993-1.02-.996-2.182-1.183l-.614.549c.016 1.506 4.204 6.502 5.196 8.156-4.322-2.333-5.888-8.72-9.908-11.787l-1.086.227c-2.434-1.611-6.454-7.827-8.686-10.352-3.822-4.326-7.896-7.855-12.616-11.169z" class="F"/><path d="M181.939 178.662c3.292-.501 7.013-.481 10.338-.266 7.414.48 15.619 3.027 20.615 8.811 2.006 2.322 3.912 5.657 3.582 8.846-.13 1.267-.716 2.516-1.752 3.291-4.496 3.366-21.39-1.35-27.16-2.183-11.469-1.757-24.04-.641-34.306 5.098.14-4.298.574-7.918 3.125-11.519 5.192-7.328 17.16-10.693 25.557-12.078zm97.887 20.228c-.772-.209-1.58-.542-2.236-1.017a5.83 5.83 0 0 1-2.256-3.63c-.432-2.59.842-5.649 2.332-7.702 3.846-5.293 11.654-8.268 17.96-9.189 11.91-1.739 28.766 1.582 38.474 8.911 4.142 3.127 6.084 6.198 6.8 11.302l-.484 1.463c-4.206.735-12.542-1.983-17.196-2.658-3.916-.568-7.938-.947-11.89-1.085-10.69-.373-20.992 2.122-31.504 3.606z" class="O"/></svg>