<?xml version="1.0" encoding="UTF-8" standalone="no"?>
<svg
   width="500"
   height="500"
   version="1.1"
   id="svg154"
   sodipodi:docname="avatarf2.svg"
   inkscape:version="1.3.2 (091e20e, 2023-11-25, custom)"
   xmlns:inkscape="http://www.inkscape.org/namespaces/inkscape"
   xmlns:sodipodi="http://sodipodi.sourceforge.net/DTD/sodipodi-0.dtd"
   xmlns="http://www.w3.org/2000/svg"
   xmlns:svg="http://www.w3.org/2000/svg">
  <sodipodi:namedview
     id="namedview154"
     pagecolor="#ffffff"
     bordercolor="#666666"
     borderopacity="1.0"
     inkscape:showpageshadow="2"
     inkscape:pageopacity="0.0"
     inkscape:pagecheckerboard="0"
     inkscape:deskcolor="#d1d1d1"
     inkscape:zoom="0.3337544"
     inkscape:cx="370.03257"
     inkscape:cy="212.73128"
     inkscape:window-width="1280"
     inkscape:window-height="650"
     inkscape:window-x="-6"
     inkscape:window-y="-6"
     inkscape:window-maximized="1"
     inkscape:current-layer="svg154" />
  <style
     id="style1"><![CDATA[.B{fill:#f64767}.C{fill:#d5363f}.D{fill:#fa768e}.E{fill:#ba152e}.F{fill:#fcfafb}.G{fill:#f5a788}.H{fill:#8a022f}.I{fill:#c02b1e}.J{fill:#e36b44}.K{fill:#f3d6c6}.L{fill:#fcd3a1}.M{fill:#f38876}.N{fill:#c64d68}.O{fill:#cc2856}.P{fill:#f9b3b5}.Q{fill:#4a100d}.R{fill:#f7c5b5}.S{fill:#8f0606}.T{fill:#befbfd}.U{fill:#052a5b}.V{fill:#1578a7}.W{fill:#0c5288}]]></style>
  <defs
     id="defs2">
    <linearGradient
       id="A"
       x1="144.566"
       y1="10.672"
       x2="152.861"
       y2="74.492"
       href="#B">
      <stop
         offset="0"
         stop-color="#bb3150"
         id="stop1" />
      <stop
         offset="1"
         stop-color="#ff5f6c"
         id="stop2" />
    </linearGradient>
    <linearGradient
       id="B"
       gradientUnits="userSpaceOnUse" />
  </defs>
  <path
     fill="url(#A)"
     transform="matrix(2 0 0 2 -.000244 0)"
     d="M95.949 22.185c4.332-1.902 9.214-2.277 13.705-3.693 5.316-1.677 10.435-4.014 15.86-5.339 12.869-3.142 28.817-1.239 41.086 3.525 17.96 6.975 33.379 22.679 41.096 40.277 2.558 5.834 4.048 11.62 5.173 17.87-.073.167-.195.316-.298.466-.637-2.047-.976-6.404-2.064-7.97-.576-.829-1.66-1.227-2.261-2.078-.414-.585-.366-1.582-.874-2.084-.628-.621-1.229-.049-1.788-.298-.399-.178-.958-.816-1.337-1.102-.778-.589-1.248-.404-2.146-.285-.595-.396-.602-.696-.823-1.352-.64.101-1.365.271-2.011.277-.675.007-.884-.404-1.289-.857-1.653-.207-1.218 1.005-2.325 1.254-.789.177-1.775.09-2.457-.351-.048-.031-.094-.067-.141-.1l-.154.551-.054-.44 2.155 3.252c-.514-.266-.872-.618-1.238-1.056-1.874-2.239-3.495-4.78-5.253-7.118-2.159-2.871-4.483-5.616-6.677-8.461-.231-.887-.626-1.619-.509-2.563 1.065-1.887 3.472-1.251 5.252-2.21l.186-.104-2.111.025c-.375.131-.763.279-1.152.364-.615.134-.894.123-1.423-.203-.209-.75.219-1.452.519-2.123-2.412-1.865-3.764-5.858-5.694-8.264-1.177-2.507-2.833-4.738-4.425-6.992.845-.029.701.928 1.497 1.127.205-.178.508-.403.639-.644a1.67 1.67 0 0 0 .143-1.343c-.291-1.088-2.628-1.824-3.63-2.369l.209-.14c-2.372-2.398-18.264-6.844-21.95-7.084-3.915-.909-12.368-.733-16.458-.245-5.542.661-18.425 3.74-22.964 6.48-.042.025-.082.055-.122.082-4.283 1.48-8.694 1.963-13.057 3.113-2.374-.809-5.95 1.98-8.687 1.706 1.714-.853 6.981-2.404 7.852-3.5z"
     id="path2" />
  <path
     d="M342.67 43.266c11.736 4.327 28.588 18.916 37.39 28.109 3.154 3.295 5.774 6.992 8.828 10.344-5.1 1.152-10.248 1.681-15.362 2.671l-4.222.049c-.75.262-1.526.558-2.304.728-1.23.268-1.788.247-2.846-.406-.418-1.5.438-2.904 1.038-4.247-4.824-3.731-7.528-11.715-11.388-16.527-2.354-5.015-5.666-9.476-8.85-13.984 1.69-.057 1.402 1.857 2.994 2.255.41-.356 1.016-.806 1.278-1.288.494-.904.548-1.712.286-2.686-.582-2.175-5.256-3.649-7.26-4.738l.418-.28z"
     class="D"
     id="path3" />
  <defs
     id="defs4">
    <linearGradient
       id="C"
       x1="69.155"
       y1="203.134"
       x2="46.641"
       y2="209.747"
       href="#B"
       gradientTransform="matrix(2,0,0,2,20.973262,0)">
      <stop
         offset="0"
         stop-color="#f4cae8"
         id="stop3" />
      <stop
         offset="1"
         stop-color="#fff8f1"
         id="stop4" />
    </linearGradient>
  </defs>
  <path
     d="M112.4 311.858c1.537 2.002 2.559 3.394 2.622 6.012-1.36.936-1.575 1.206-1.895 2.816-2.081 10.486-1.758 21.554-4.287 31.924-1.983-1.334-2.986-4.834-3.917-6.966.372-2.57-.657-5.114-1.394-7.55 2.994-8.722 6.361-17.36 8.87-26.236z"
     class="N"
     id="path5" />
  <defs
     id="defs7">
    <linearGradient
       id="D"
       x1="45.816"
       y1="212.009"
       x2="56.749"
       y2="211.067"
       href="#B">
      <stop
         offset="0"
         stop-color="#cc395a"
         id="stop6" />
      <stop
         offset="1"
         stop-color="#d36879"
         id="stop7" />
    </linearGradient>
  </defs>
  <path
     fill="url(#D)"
     d="M51.765 169.047c.368 1.218.883 2.49.697 3.775.465 1.066.967 2.816 1.959 3.483-4.286 20.955-6.099 34.262-1.622 55.69 1.173 4.816 2.474 12.911 5.701 16.693a3.31 3.31 0 0 0 .583 1.312H57.78c-2.114-1.528-3.698-3.479-5.025-5.708-9.718-16.323-7.877-44.184-3.274-62.2.449-2.635 1.409-5.78.645-8.409q.856-2.305 1.639-4.636z"
     id="path7"
     transform="matrix(2 0 0 2 -.000244 0)" />
  <path
     d="M103.529 338.094c.737 2.436 1.766 4.98 1.394 7.55-2.611 5.466-2.206 13.95-5.962 18.54.898-5.27 2.818-11.56 1.291-16.818q1.713-4.61 3.277-9.272z"
     class="B"
     id="path8" />
  <path
     d="M193.568 47.958c8.725-2.298 17.547-3.265 26.113-6.225-2.22 1.743-3.882 2.313-4.64 5.282-8.442 3.495-18.346 3.15-26.579 7.309.087.015.174.034.262.046 2.498.34 6.523-1.309 9.021-2.016 2.001 2.793-.465 7.64.292 10.972-.334 2.885-.724 5.638-.246 8.533l-.617 3.267c-1.545 1.743-3.647 1.698-4.893 3.483l-.403 1.401c1.695 2.756 4.365 4.666 4.056 8.133-1.007 1.521-2.441 3.011-2.652 4.814.754.177 1.335.138 2.101.05.804.568 1.197.661 1.394 1.673.224 1.152-.702 3.552-1.026 4.739-9.069 9.636-20.183 17.433-29.086 27.117-4.824 6.417-9.737 13.076-13.999 19.878-4.338 6.923-16.104 29.049-16.998 36.435-2.596 7.337-4.22 15.566-.903 23.012-6.221 6.31-13.777 11.306-19.781 17.808-5.429 8.14-3.615 20.73-3.549 30.102 1.386 19.612 9.136 39.916 24.332 52.994 2.048 1.762 4.716 3.064 6.597 4.912l.804-.156.597-1.728c1.659.324 3.313.62 4.923 1.142l.104.412c1.07 4.178 7.945 21.034 7.543 24.096-.042.32-.467 1.04-.646 1.314-.509.78-1.057 1.284-1.477 2.156 6.779 12.11 20.093 23.724 31.997 30.812 4.959 2.952 10.351 5.248 15.426 8.028 6.654 3.646 13.876 8.07 21.188 10.182q.33.096.662.178c3.048 2.012 5.95 4.06 9.526 5.026 1.214 4.822.164 10.118.398 15.034-.428 7.39-.75 14.97-2.928 22.094-4.786-.47-8.846 1.598-12.86 3.956l-3.788 1.51c-1.918.422-3.794.762-5.746.976-3.02.432-6.318.63-9.141 1.834-2.202.94-4.042 2.146-5.991 3.506-2.566 5.754-3.315 10.332-3.899 16.53.178 1.606.71 3.606-.287 4.99-.038.054-.085.1-.127.15-.254-1.28-.403-2.5-1.237-3.554-1.182.62-1.72 2.308-2.293 3.468l-.369 3.348q-1.907 12.82-4.104 25.592l-1.42 7.428h-3.152-23.226-1.119-4.672-17.512c-4.128-14.294-8.719-28.768-11.208-43.446-2.855-16.836-2.888-33.828-3.116-50.848l-.378-39.764c.107-14.89 2.304-33.756.183-48.072-.063-2.618-1.085-4.01-2.622-6.012-4.417-8.402-11.733-29.068-13.312-38.3-2.233-13.064 1.103-19.972.544-31.3-.382-7.732-2.206-15.48-3.189-23.164-2.499-19.555-4.01-40.756-1.244-60.337 4.984-35.291 21.938-69.484 50.748-91.187 5.751-7.905 35.782-20.389 45.951-23.199-1.741 2.193-12.276 5.295-15.704 7 5.474.547 12.626-5.03 17.375-3.413z"
     class="O"
     id="path10" />
  <path
     d="M104.117 140.7q1.361-4.197 2.596-8.433l2.831 2.145-2.78 8.077c-.724-1.135-1.441-1.375-2.647-1.79z"
     class="D"
     id="path11" />
  <path
     d="M106.764 142.49c-.092 2.081-2.999 13.538-4.003 14.997l-.567-.204c-1.215-5.068.756-11.624 1.924-16.582 1.205.414 1.922.654 2.647 1.79z"
     class="B"
     id="path12" />
  <path
     d="M151.143 84.362c1.017.907 1.826 1.908 2.672 2.97 1.696 1.423 4.459 4.443 6.775 4.315 2.765-.153 3.891-2.563 5.919-3.951 1.242-.273 2.101-1.637 2.904-2.568-.172 2.023-.379 3.266-1.669 4.854l-.221.276c-2.186 2.691-6.272 5.681-9.402 7.149-2.772.107-6.085-1.488-8.566-2.693-2.062-1.002-2.742-1.582-3.486-3.756l-.87-1.565c.009-.785.064-1.547.165-2.325.102-.787.022-.766.639-1.242l2.19.944c1.42-.267 1.668-.605 2.664-1.582l.288-.826z"
     class="D"
     id="path13" />
  <path
     d="M196.533 70.654l.641 4.472c-1.545 1.743-3.647 1.698-4.893 3.483-1.548.333-3.255.413-4.747.878-10.039 3.125-23.046 13.766-31.209 20.603-6.197 3.369-11.825 7.385-17.785 11.104-1.768.418-3.818 2.702-5.434 3.76 3.028-4.336 11.415-6.91 13.031-10.422-2.477.282-4.633 1.933-7.129 2.124l.197-.826c1.18-.957 2.046-1.206 3.54-1.42.901-.129 1.872-1.459 2.755-2.004.83.407 1.535.889 2.282 1.431 3.872-.914 6.688-5.26 10.337-6.43 3.13-1.468 7.216-4.458 9.402-7.149l.221-.276c1.29-1.588 1.497-2.831 1.669-4.854l.8-1.354c3.392-2.006 5.734-4.932 9.539-6.425 4.834-1.896 10.772-.451 15.581-2.445 1.103-1.054 1.049-2.815 1.202-4.25z"
     class="B"
     id="path14" />
  <path
     d="M156.325 100.09c8.163-6.837 21.17-17.478 31.209-20.603 1.493-.465 3.199-.545 4.747-.878l-.403 1.401c-1.722.57-3.227 1.998-4.791 2.937-9.51 5.711-19.195 11.487-26.932 19.567-5.575 5.148-8.889 12.675-13.725 18.538-2.212 3.043-4.542 7.186-7.271 9.701l-.864-1.162c1.861-3.901 4.816-7.629 6.895-11.506.871-1.624 2.12-3.944 1.477-5.814-.246-.714-.732-1.195-1.443-1.476-1.163-.459-2.994-.894-4.181-.422-.815.325-1.668.553-2.505.82 5.96-3.719 11.587-7.735 17.785-11.104z"
     class="C"
     id="path15" />
  <path
     d="M114.262 171.679l.597.503c.694-1.215 1.26-2.44 1.814-3.723l.57-.118c-.188 1.698-.902 4.082-.437 5.697l-.029.295c-.407 3.561-1.856 7.253-2.682 10.778-2.347 10.018-4.307 19.64-4.574 29.978-.082 3.176-.436 6.862 1.47 9.58 1.012.438 1.128.612 2.191.18.672-.274 1.235-.738 1.802-1.18-5.429 8.14-3.615 20.73-3.549 30.102-.501-4.164-1.818-8.066-2.419-12.212-1.146-7.91-1.6-15.878-2.709-23.79l-.105 1.248c-.052-.096-.121-.186-.155-.29-3.501-10.838 2.858-36.986 8.213-47.047z"
     class="H"
     id="path16" />
  <path
     d="M193.568 47.958c8.725-2.298 17.547-3.265 26.113-6.225-2.22 1.743-3.882 2.313-4.64 5.282-8.442 3.495-18.346 3.15-26.579 7.309.087.015.174.034.262.046 2.498.34 6.523-1.309 9.021-2.016 2.001 2.793-.465 7.64.292 10.972-.334 2.885-.724 5.638-.246 8.533l-.617 3.267c-.102-1.514-.369-2.98-.641-4.472-.153 1.435-.099 3.196-1.202 4.25-4.808 1.994-10.747.549-15.581 2.445-3.805 1.493-6.147 4.419-9.539 6.425l-.8 1.354c-.803.931-1.661 2.294-2.904 2.568-2.028 1.389-3.154 3.798-5.919 3.951-2.315.128-5.079-2.893-6.775-4.315-.845-1.062-1.654-2.063-2.672-2.97l-.288.826c-1.695-1.268-3.282-2.974-5.422-3.04-6.617 3.934-18.332 17.696-22.126 24.423-2.605 4.618-5.754 15.697-9.585 18.59-1.48 3.045-3.016 6.068-4.178 9.252l-2.831-2.145c2.127-4.413 2.771-9.918 4.611-14.556 8.019-20.222 18.69-33.378 34.933-47.516.359-1.398.395-1.374-.311-2.626 5.751-7.905 35.782-20.389 45.951-23.199-1.741 2.193-12.276 5.295-15.704 7 5.474.547 12.626-5.03 17.375-3.413z"
     class="D"
     id="path17" />
  <path
     d="M151.143 84.362c-.868-1.526-.935-1.762-.576-3.48 1.872-2.572 5.298-3.143 8.242-3.595 2.995-.46 5.644.343 8.511 1.095.979 1.626 2.464 3.55 2.892 5.393l-.8 1.354c-.803.931-1.661 2.294-2.904 2.568-2.028 1.389-3.154 3.798-5.919 3.951-2.315.128-5.079-2.893-6.775-4.315-.845-1.062-1.654-2.063-2.672-2.97z"
     class="P"
     id="path18" />
  <path
     d="M188.463 54.324l.262.046c2.498.34 6.523-1.309 9.021-2.016 2.001 2.793-.465 7.64.292 10.972-.334 2.885-.724 5.638-.246 8.533l-.617 3.267c-.102-1.514-.369-2.98-.641-4.472-8.238-.735-27.194-.038-34.862 2.569-3.063 1.041-6.263 3.489-9.005 5.233-1.384.881-4.255 3.341-5.737 2.326 2.207-2.365 8.702-6.852 9.487-9.676 4.304-4.195 26.227-16.054 32.048-16.782z"
     class="B"
     id="path19" />
  <defs
     id="defs20">
    <linearGradient
       id="E"
       x1="83.107"
       y1="45.73"
       x2="73.215"
       y2="35.223"
       href="#B">
      <stop
         offset="0"
         stop-color="#fba0c4"
         id="stop19" />
      <stop
         offset="1"
         stop-color="#f4edeb"
         id="stop20" />
    </linearGradient>
  </defs>
  <path
     fill="url(#E)"
     transform="matrix(2 0 0 2 -.000244 0)"
     d="M96.784 23.979c4.363-1.149 8.774-1.633 13.057-3.113-1.11.872-1.941 1.156-2.32 2.641-4.221 1.747-9.173 1.575-13.29 3.654-2.91.364-13.872 6.294-16.024 8.391-2.074 1.288-3.965 3.184-5.764 4.833-7.119 6.526-12.438 12.866-15.583 22.195-.74 1.523-1.508 3.034-2.089 4.626l-1.415-1.073c1.063-2.207 1.386-4.959 2.305-7.278 4.01-10.111 9.345-16.689 17.467-23.758.18-.699.197-.687-.155-1.313 2.876-3.952 17.891-10.195 22.975-11.6-.87 1.096-6.138 2.647-7.852 3.5 2.737.274 6.313-2.515 8.687-1.706z"
     id="path20" />
  <path
     d="M145.946 67.569c5.751-7.905 35.782-20.389 45.951-23.199-1.741 2.193-12.276 5.295-15.704 7 5.474.547 12.626-5.03 17.375-3.413-17.25 5.291-33.069 10.495-47.312 22.238.359-1.398.395-1.374-.311-2.626z"
     class="N"
     id="path21" />
  <path
     d="M160.156 102.513c7.737-8.081 17.422-13.856 26.932-19.567 1.563-.939 3.069-2.367 4.791-2.937 1.695 2.756 4.365 4.666 4.056 8.133-1.007 1.521-2.441 3.011-2.652 4.814.754.177 1.335.138 2.101.05.804.568 1.197.661 1.394 1.673.224 1.152-.702 3.552-1.026 4.739-9.069 9.636-20.183 17.433-29.086 27.117-4.824 6.417-9.737 13.076-13.999 19.878-4.338 6.923-16.104 29.049-16.998 36.435-2.596 7.337-4.22 15.566-.903 23.012-6.221 6.31-13.777 11.306-19.781 17.808-.567.442-1.13.906-1.802 1.18-1.063.432-1.179.258-2.191-.18-1.906-2.718-1.552-6.404-1.47-9.58.266-10.338 2.227-19.961 4.574-29.978.826-3.524 2.275-7.217 2.682-10.778.011-.098.019-.196.029-.295-.465-1.615.249-3.998.437-5.697l-.57.118c-.554 1.282-1.121 2.507-1.814 3.723l-.597-.503c5.752-14.826 14.583-29.365 24.034-42.087l.864 1.162c2.729-2.515 5.059-6.658 7.271-9.701 4.836-5.863 8.15-13.391 13.725-18.538z"
     class="B"
     id="path22" />
  <path
     d="M138.296 129.591l.864 1.162c-9.517 13.011-16.829 28.216-22.354 43.285-.465-1.615.249-3.998.437-5.697l-.57.118c-.554 1.282-1.121 2.507-1.814 3.723l-.597-.503c5.752-14.826 14.583-29.365 24.034-42.087z"
     class="Q"
     id="path23" />
  <path
     d="M187.093 94.117c2.988-1.927 5.906-3.97 8.842-5.975-1.007 1.521-2.441 3.011-2.652 4.814.754.177 1.335.138 2.101.05.804.568 1.197.661 1.394 1.673.224 1.152-.702 3.552-1.026 4.739-9.069 9.636-20.183 17.433-29.086 27.117.74-1.778 1.66-3.331 2.976-4.752 2.735-2.953 6.265-5.35 9.307-7.996 4.057-3.529 7.85-7.402 11.751-11.102 1.38-1.309 3.256-2.433 4.322-3.983.264-1.249.495-2.148.007-3.39-.354-.154-.635-.269-1.021-.312-1.815-.203-4.55 1.106-5.923 2.24-.545.449-.937.712-1.604.958-.069.025-.139.048-.208.072-1.763 1.087-3.205 2.353-4.715 3.765-1.117.591-2.053.94-3.281 1.242-1.078-.924-1.22-2.091-1.661-3.417 3.53-1.885 6.746-4.221 10.478-5.741z"
     class="C"
     id="path24" />
  <path
     d="M160.156 102.513c7.737-8.081 17.422-13.856 26.932-19.567 1.563-.939 3.069-2.367 4.791-2.937 1.695 2.756 4.365 4.666 4.056 8.133l-8.842 5.975c-3.732 1.52-6.948 3.857-10.478 5.741-4.497 2.883-7.794 5.99-11.27 10.012-1.461-.288-3.664.929-5.058 1.487l-.935-.885.78-.374c-.033-2.544.167-5.027.024-7.585z"
     class="D"
     id="path25" />
  <path
     d="M143.766 309.792l4.923 1.142.104.412c1.07 4.178 7.945 21.034 7.543 24.096-.042.32-.467 1.04-.646 1.314-.509.78-1.057 1.284-1.477 2.156 6.779 12.11 20.093 23.724 31.997 30.812 4.959 2.952 10.351 5.248 15.426 8.028 6.654 3.646 13.876 8.07 21.188 10.182q.33.096.662.178c3.048 2.012 5.95 4.06 9.526 5.026 1.214 4.822.164 10.118.398 15.034-.428 7.39-.75 14.97-2.928 22.094-4.786-.47-8.846 1.598-12.86 3.956l-3.788 1.51c-1.918.422-3.794.762-5.746.976-3.02.432-6.318.63-9.141 1.834-2.202.94-4.042 2.146-5.991 3.506-2.566 5.754-3.315 10.332-3.899 16.53.178 1.606.71 3.606-.287 4.99-.038.054-.085.1-.127.15-.254-1.28-.403-2.5-1.237-3.554-1.182.62-1.72 2.308-2.293 3.468l-.369 3.348q-1.907 12.82-4.104 25.592l-1.42 7.428h-3.152-23.226-1.119-4.672c3.6-8.884 7.404-17.46 11.628-26.058-.783-.598-1.468-1.558-1.927-2.43-1.51-2.87-2.385-6.366-3.399-9.444-7.856-23.85-10.818-50.614-11.325-75.678-.259-12.786.62-25.58.324-38.348-.191-8.228-2.169-29.714.012-36.366l.804-.156.597-1.728z"
     class="H"
     id="path26" />
  <path
     d="M185.4 446.724c1.281-.974 2.46-2.244 4.073-2.4.71 3.702-1.824 7.908-.415 14.254.178 1.606.71 3.606-.287 4.99-.038.054-.085.1-.127.15-.254-1.28-.403-2.5-1.237-3.554-1.182.62-1.72 2.308-2.293 3.468.403-3.468.427-6.852.292-10.336l-.006-6.572z"
     class="R"
     id="path27" />
  <path
     d="M143.766 309.792l4.923 1.142.104.412c1.07 4.178 7.945 21.034 7.543 24.096-.042.32-.467 1.04-.646 1.314-.509.78-1.057 1.284-1.477 2.156-4.408-8.016-8.9-20.084-10.448-29.12z"
     class="K"
     id="path28" />
  <path
     d="M178.959 451.844c1.203-1.058 2.692-2.726 4.291-2.988l.349 1.134 1.091-.14c.327 1.14.523 2.28.716 3.446.135 3.484.111 6.868-.292 10.336l-.369 3.348q-1.907 12.82-4.104 25.592l-1.42 7.428h-3.152-23.226-1.119-4.672c3.6-8.884 7.404-17.46 11.628-26.058l2.2-2.566c2.827-3.716 5.457-7.392 8.683-10.796 2.02-2.128 3.602-6.54 6.365-7.498 1.029-.356 2.025-.818 3.03-1.238z"
     class="L"
     id="path29" />
  <path
     fill="#241502"
     d="M183.599 449.99l1.091-.14c.327 1.14.523 2.28.716 3.446.135 3.484.111 6.868-.292 10.336l-.369 3.348c-.509-1.82-.603-2.222-2.044-3.45.55-4.486.677-9.03.898-13.54z"
     id="path30" />
  <path
     d="M169.564 460.58c2.02-2.128 3.602-6.54 6.365-7.498 1.029-.356 2.025-.818 3.03-1.238-.524 3.68-3.196 9.538-5.238 12.646l-.869.448c-.877-1.492-1.733-3.52-3.287-4.358zm-7.116 12.388l.871-1.544.439.168c-.281 5.594-7.745 23.364-10.914 28.408h-1.119c.611-7.738 7.808-19.312 10.723-27.032z"
     class="G"
     id="path31" />
  <path
     d="M182.701 463.53c1.441 1.228 1.535 1.63 2.044 3.45q-1.907 12.82-4.104 25.592l-1.42 7.428h-3.152q1.252-6.008 2.647-11.986c1.583-8.134 3.066-16.246 3.986-24.484z"
     id="path32" />
  <path
     d="M160.881 471.376l1.567 1.592c-2.915 7.72-10.112 19.294-10.723 27.032h-4.672c3.6-8.884 7.404-17.46 11.628-26.058l2.2-2.566z"
     class="K"
     id="path33" />
  <path
     d="M219.682 41.733l.244-.165c9.078-5.48 34.844-11.638 45.928-12.96 8.18-.976 25.086-1.327 32.916.49 7.372.479 39.156 9.371 43.9 14.167l-.418.28c2.004 1.089 6.678 2.563 7.26 4.738.262.974.208 1.782-.286 2.686-.262.482-.868.932-1.278 1.288-1.592-.398-1.304-2.312-2.994-2.255 3.184 4.508 6.496 8.969 8.85 13.984 3.86 4.812 6.564 12.797 11.388 16.527-.6 1.343-1.456 2.747-1.038 4.247 1.058.653 1.616.675 2.846.406.778-.17 1.554-.466 2.304-.728l4.222-.049-.372.208c-3.56 1.917-8.374.645-10.504 4.42-.234 1.889.556 3.352 1.018 5.126l13.354 16.922c3.516 4.677 6.758 9.76 10.506 14.237.732.874 1.448 1.579 2.476 2.111l-4.31-6.503.108.879.308-1.101c.094.066.186.137.282.199 1.364.883 3.336 1.056 4.914.702 2.214-.496 1.344-2.921 4.65-2.507.81.906 1.228 1.727 2.578 1.714 1.292-.013 2.742-.352 4.022-.554.442 1.313.456 1.911 1.646 2.704 1.796-.238 2.736-.608 4.292.571.758.573 1.876 1.848 2.674 2.204 1.118.5 2.32-.646 3.576.597 1.016 1.003.92 2.998 1.748 4.167 1.202 1.701 3.37 2.497 4.522 4.156 2.176 3.132 2.854 11.846 4.128 15.94.206-.301.45-.598.596-.932q5.058 41.319 7.528 82.874l2.6 58.116c1.046 14.894 2.054 29.81 4.228 44.588 2.138 14.514 5.49 28.522 6.566 43.228 1.134 15.488-.876 31.004-2.4 46.392l-3.502 40.456c-.882 11.552.118 23.262-1.892 34.696H426.49h-4.87-12.952-4.056-4.724-49.374-2.47-11.726H184.25h-5.029l1.42-7.428q2.197-12.772 4.104-25.592l.369-3.348c.573-1.16 1.111-2.848 2.293-3.468.833 1.054.983 2.274 1.237 3.554.042-.05.089-.096.127-.15.997-1.384.465-3.384.287-4.99.584-6.198 1.333-10.776 3.899-16.53 1.949-1.36 3.789-2.566 5.991-3.506 2.823-1.204 6.121-1.402 9.141-1.834 1.952-.214 3.828-.554 5.746-.976l3.788-1.51c4.014-2.358 8.074-4.426 12.86-3.956 2.178-7.124 2.5-14.704 2.928-22.094-.234-4.916.816-10.212-.398-15.034-3.576-.966-6.478-3.014-9.526-5.026q-.332-.082-.662-.178c-7.312-2.112-14.534-6.536-21.188-10.182-5.074-2.78-10.467-5.076-15.426-8.028-11.904-7.088-25.218-18.702-31.997-30.812.42-.872.967-1.376 1.477-2.156.179-.274.604-.994.646-1.314.402-3.062-6.474-19.918-7.543-24.096l-.104-.412c-1.61-.522-3.264-.818-4.923-1.142l-.597 1.728-.804.156c-1.88-1.848-4.549-3.15-6.597-4.912-15.196-13.078-22.946-33.382-24.332-52.994-.066-9.372-1.88-21.962 3.549-30.102 6.004-6.502 13.56-11.498 19.781-17.808-3.317-7.446-1.694-15.675.903-23.012.894-7.386 12.66-29.511 16.998-36.435 4.262-6.802 9.175-13.461 13.999-19.878 8.903-9.684 20.018-17.482 29.086-27.117.324-1.188 1.25-3.587 1.026-4.739-.197-1.012-.59-1.106-1.394-1.673-.765.088-1.347.128-2.101-.05.211-1.803 1.645-3.293 2.652-4.814.309-3.467-2.361-5.377-4.056-8.133l.403-1.401c1.246-1.785 3.347-1.74 4.893-3.483l.617-3.267c-.477-2.895-.088-5.648.246-8.533-.757-3.332 1.709-8.179-.292-10.972-2.499.707-6.523 2.356-9.021 2.016-.088-.012-.174-.031-.262-.046 8.233-4.159 18.137-3.814 26.579-7.309.758-2.969 2.42-3.539 4.64-5.282z"
     class="O"
     id="path34" />
  <path
     d="M274.8 108.193c5.286 3.485 10.54 6.976 15.652 10.71-2.32 2.284-11.582 1.724-15.028 1.687q-1.616-.024-3.23-.119l2.834-.748c2.254-3.458-1.822-7.366-.228-11.529z"
     class="P"
     id="path35" />
  <path
     d="M387.696 139.34l.288.101c4.092 1.536 6.652 5.81 11.506 3.86l.612-.92c2.598 4.778 6.25 9.534 7.962 14.673q-.746-.175-1.498-.327c-.248 1.544-.338 3.93-1.52 5.019-3.136-.377-5-4.435-6.868-6.721-2.666-3.262-2.794-7.864-5.746-11.18-.424-.476-.38-.353-.966-.389-.142 1.837 10.528 22.982 12.036 26.923 1.014 2.652.648 4.6 1.208 7.115.762 3.419 2.76 7.205 3.99 10.531-4.074-4.771-4.4-12.812-6.536-18.572-3.878-10.462-10.474-19.65-14.468-30.113z"
     class="B"
     id="path36" />
  <defs
     id="defs37">
    <linearGradient
       id="F"
       x1="176.714"
       y1="64.964"
       x2="184.15"
       y2="42.186"
       href="#B">
      <stop
         offset="0"
         stop-color="#f84b5e"
         id="stop36" />
      <stop
         offset="1"
         stop-color="#ffa6b1"
         id="stop37" />
    </linearGradient>
  </defs>
  <path
     fill="url(#F)"
     transform="matrix(2 0 0 2 -.000244 0)"
     d="M160.721 36.414c.284-.559.625-.766 1.15-1.067 2.927-.614 12.367 3.558 15.014 5.336 2.473 1.661 3.118 4.295 4.949 6.389l6.677 8.461c1.758 2.339 3.379 4.88 5.253 7.118.366.437.724.79 1.238 1.056 1.385.924 4.192 5.854 5.049 7.483l-.306.46c-2.427.975-3.707-1.162-5.753-1.93-.048-.018-.096-.034-.144-.05-.909-1.016-1.399-2.906-2.209-4.102-2.454-3.627-5.548-7.533-8.594-10.686-4.032-4.173-10.075-7.752-14.773-11.413-2.712-2.113-5.047-4.703-7.551-7.055z"
     id="path37" />
  <path
     d="M323.534 80.732l7.354 6.062.668-.343c3.042 3.453 4.838 7.648 7.766 11.05 5.64 6.55 12.264 12.079 17.836 18.791 14.534 17.504 28.188 37.044 38.828 57.182 4.01 7.587 7.098 15.652 11.108 23.243 2.254 4.266 10.062 16.696 10.344 20.502l-.264.038c-1.076-2.5-1.862-5.276-3.928-7.132-.89 1.044.362 6-1.936 9.422-1.038 1.548-6.038 4.626-5.892 5.334.408 1.996 4.45 6.796 5.56 9.24l-.274.274c-1.568-2.228-2.624-4.65-4.076-6.93-3.916-6.15-7.71-12.35-12.042-18.226-13.974-18.947-30.294-35.122-47.028-51.54-6.14-6.025-12.03-12.25-18.352-18.098-7.766-7.186-17.578-12.883-24.884-19.86-9.922-7.701-19.694-16.075-30.242-22.891l-1.59-1.152c.176-.234.234-.332.476-.545 1.282-1.129 5.072-.299 6.848-.194 14.09.837 33.106-4.784 43.72-14.229z"
     class="B"
     id="path38" />
  <defs
     id="defs39">
    <linearGradient
       id="G"
       x1="151.438"
       y1="58.686"
       x2="155.3"
       y2="39.874"
       href="#B">
      <stop
         offset="0"
         stop-color="#fc7f7f"
         id="stop38" />
      <stop
         offset="1"
         stop-color="#f7dcc2"
         id="stop39" />
    </linearGradient>
  </defs>
  <path
     fill="url(#G)"
     transform="matrix(2 0 0 2 -.000244 0)"
     d="M161.767 40.366l3.677 3.031c1.524 2.385 3.256 4.534 4.454 7.125-3.601 2.744-5.49 3.068-9.826 3.596-.738 1.221-3.288 4.987-4.635 5.357-.947.26-2.539-.755-3.156.182-.045.068-.08.143-.12.215-4.961-3.851-9.847-8.037-15.121-11.445l-.795-.576c.088-.117.117-.166.238-.272.641-.564 2.536-.15 3.424-.097 7.045.419 16.553-2.392 21.86-7.115z"
     id="path39" />
  <defs
     id="defs41">
    <linearGradient
       id="H"
       x1="155.416"
       y1="110.09"
       x2="167.026"
       y2="66.042"
       href="#B">
      <stop
         offset="0"
         stop-color="#ef2d59"
         id="stop40" />
      <stop
         offset="1"
         stop-color="#ff677c"
         id="stop41" />
    </linearGradient>
  </defs>
  <path
     fill="url(#H)"
     transform="matrix(2 0 0 2 -.000244 0)"
     d="M113.581 56.738c2.187 1.323 4.803 3.536 7.21 4.302.765.243 11.125-.01 12.538-.364q.269-.066.53-.161c.723-.157 1.502-.197 2.238-.28q.807.048 1.615.06c1.723.019 6.354.299 7.514-.843 4.92 2.583 15.689 13.561 20.413 17.972 6.147 5.738 12.543 11.267 18.361 17.348 3.54 3.701 16.684 18.615 17.98 22.409.026.076.043.192.056.265.301 1.256 1.913 5.3 1.47 6.253-1.989-1.311-4.432-2-6.515-3.219-2.732-1.599-5.233-4.151-7.71-6.141l-.206.525-.093-.167-.128.183c-.419.586-.696.862-1.38 1.134-.465-.043-.917-.168-1.341.039l-.193-.392c-1.202-1.483-2.733-2.583-4.247-3.723l-2.621-1.517c-2.908-.967-5.879-3.154-8.469-4.789.149-.097.079-.066.258-.118.349-.1.638-.191.958-.363l.002-.854c-.82-1.44-3.005-2.952-4.278-4.067l-3.674-2.483c-1.484-1.064-8.175-5.795-8.649-6.881-.084-.192-.092-.556-.128-.772-.537-.918-7.067-4.5-8.383-5.295-11.655-7.046-25.2-16.804-33.128-28.059z"
     id="path41" />
  <path
     d="M310.184 180.185c9.5 5.878 19.31 11.805 27.786 19.113-.944.578-1.734 1.208-2.884 1.16l-7.348-4.967c-2.968-2.129-16.35-11.591-17.298-13.762-.168-.383-.184-1.111-.256-1.544z"
     class="S"
     id="path42" />
  <path
     d="M337.97 199.298c4.846 3.822 9.644 7.806 14.664 11.398 4.606 3.298 23.762 14.504 25.928 17.98l-.412 1.05-.186-.334-.256.366c-.838 1.172-1.392 1.724-2.76 2.268-.93-.086-1.834-.336-2.682.078l-.386-.784c-2.404-2.966-5.466-5.166-8.494-7.446l-5.242-3.034c-5.816-1.934-11.758-6.308-16.938-9.578.298-.194.158-.132.516-.236.698-.2 1.276-.382 1.916-.726l.004-1.708c-1.64-2.88-6.01-5.904-8.556-8.134 1.15.048 1.94-.582 2.884-1.16z"
     class="H"
     id="path43" />
  <path
     d="M363.838 221.234c2.896 1.956 7.668 4.614 8.456 8.234.116.536-.256 1.32-.414 1.852-2.404-2.966-5.466-5.166-8.494-7.446.574-.828.462-1.672.452-2.64z"
     class="E"
     id="path44" />
  <path
     d="M343.642 208.592q7.122 5.37 14.95 9.648l5.246 2.994c.01.968.122 1.812-.452 2.64l-5.242-3.034c-5.816-1.934-11.758-6.308-16.938-9.578.298-.194.158-.132.516-.236.698-.2 1.276-.382 1.916-.726l.004-1.708z"
     class="N"
     id="path45" />
  <defs
     id="defs46">
    <linearGradient
       id="I"
       x1="126.868"
       y1="10.855"
       x2="156.751"
       y2="58.42"
       href="#B">
      <stop
         offset="0"
         stop-color="#f72945"
         id="stop45" />
      <stop
         offset="1"
         stop-color="#ff6977"
         id="stop46" />
    </linearGradient>
  </defs>
  <path
     fill="url(#I)"
     transform="matrix(2 0 0 2 -.000244 0)"
     d="M109.841 20.866l.122-.082c4.539-2.74 17.422-5.819 22.964-6.48 4.09-.488 12.543-.664 16.458.245 3.686.239 19.578 4.686 21.95 7.084l-.209.14c1.002.545 3.339 1.281 3.63 2.369a1.67 1.67 0 0 1-.143 1.343c-.131.241-.434.466-.639.644-.796-.199-.652-1.156-1.497-1.127 1.592 2.254 3.248 4.484 4.425 6.992 1.93 2.406 3.282 6.398 5.694 8.264-.3.672-.728 1.373-.519 2.123.529.326.808.337 1.423.203.389-.085.777-.233 1.152-.364l2.111-.025-.186.104c-1.78.959-4.187.323-5.252 2.21-.117.944.278 1.676.509 2.563-1.831-2.094-2.476-4.728-4.949-6.389-2.647-1.778-12.087-5.951-15.014-5.336-.525.301-.866.508-1.15 1.067-.175-.042-.119-.01-.257-.109-2.113-1.511-3.978-2.824-6.476-3.626l-.59.78c2.097 1.017 3.804 2.494 5.683 3.808.067.047.146.075.218.113-.573.108-1.148-.218-1.623-.545q-.374-.263-.736-.541c-.047 1.712-.188 4.163 1.027 5.508.159.175.419.162.647.201 1.014-.592 1.838-1.844 3.153-1.636-5.307 4.723-14.815 7.533-21.86 7.115-.888-.053-2.783-.468-3.424.097-.121.106-.15.155-.238.272l.795.576c-.011.128-.094.229-.158.338q-1.613-.941-3.29-1.76c.621.78 1.585 1.423 2.358 2.058-2.554-1.582-5.007-3.559-8.141-3.489.648.759 1.635 1.729 1.89 2.701 1.88 2.246 5.265 4.162 7.701 5.822-.797 2.082 1.241 4.035.114 5.765l-1.417.374c-.736.084-1.515.124-2.238.28q-.261.095-.53.161c-1.413.354-11.773.607-12.538.364-2.407-.766-5.023-2.979-7.21-4.302-1.741-2.005-3.186-4.245-4.674-6.439-2.474-2.128-4.661-5.161-6.796-7.648-.228-1.389-.219-2.715-.19-4.117l-.323-.061c-.51-.64-.58-3.057-.783-3.979l-.205-.144c-.014.036-.028.073-.044.109-.247.547-.966 1.213-1.535 1.432-.044.017-.09.025-.136.037-.239-1.447-.044-2.824.123-4.266-.379-1.666.855-4.09-.146-5.486-1.249.353-3.262 1.178-4.511 1.008-.044-.006-.087-.015-.131-.023 4.117-2.079 9.069-1.907 13.29-3.654.379-1.485 1.21-1.769 2.32-2.641z"
     id="path46" />
  <path
     d="M344.954 50.003c3.184 4.508 6.496 8.969 8.85 13.984-.21 1.275.518 2.585 1 3.747-3.752-2.819-9.006-8.422-11.362-12.47-.228-1.713.87-3.691 1.512-5.261z"
     class="B"
     id="path47" />
  <path
     d="M306.796 66.917c-6.778-3.059-15.232-4.514-22.456-6.464-12.734-3.438-25.682-7.782-38.73-9.719 3.39-1.324 20.634 5.1 23.682 4.529l.158-.656c-1.546-1.726-22.082-5.636-24.25-7.049 6.248-.353 54.386 14.346 62.776 17.799l-1.18 1.56zm-91.754-19.902l1.624.138c-2.718 2.642-8.586 1.344-8.718 7.05-.07 2.974.402 5.582-.218 8.551l-.952 1.59-.718 1.11c-.736-.299-.948-.647-1.248-1.407-.304-.773-.176-2.733-.806-3.064-.6 1.736-1.85 3.779-1.466 5.54l1.06.564-1.97 1.906-.41-.288c-.028.072-.056.146-.088.217-.494 1.094-1.931 2.427-3.069 2.864-.088.034-.181.049-.271.074-.477-2.895-.088-5.648.246-8.533-.757-3.332 1.709-8.179-.292-10.972-2.499.707-6.523 2.356-9.021 2.016-.088-.012-.174-.031-.262-.046 8.233-4.159 18.137-3.814 26.579-7.309z"
     class="C"
     id="path48" />
  <path
     d="M204.678 54.166l1.69-.983c.708.36.79.299 1.038 1.052.734 2.218.21 6.034.324 8.518l-.952 1.59-.848-.807c.012-3.46-2.276-5.679-1.252-9.37z"
     class="E"
     id="path49" />
  <path
     d="M212.648 68.643c10.356 1.665 21.88 5.922 31.202 10.572 3.83 1.912 28.068 16.411 28.64 16.485l1.59 1.152c-.022.257-.188.457-.316.677q-3.226-1.881-6.58-3.52c1.242 1.56 3.17 2.847 4.716 4.116-5.108-3.164-10.014-7.118-16.282-6.979-9.658-7.093-21.246-12.225-32.532-16.146-4.22-1.466-9.122-2.433-13.074-4.462l-.556-1.186c1.092-.152 2.13-.426 3.192-.708z"
     class="I"
     id="path50" />
  <defs
     id="defs51">
    <linearGradient
       id="J"
       x1="123.485"
       y1="20.68"
       x2="121.848"
       y2="16.382"
       href="#B">
      <stop
         offset="0"
         stop-color="#ff719c"
         id="stop50" />
      <stop
         offset="1"
         stop-color="#f9a9ca"
         id="stop51" />
    </linearGradient>
  </defs>
  <path
     fill="url(#J)"
     transform="matrix(2 0 0 2 -.000244 0)"
     d="M109.841 20.866l.122-.082c4.539-2.74 17.422-5.819 22.964-6.48 4.09-.488 12.543-.664 16.458.245-2.77.664-9.275-1.044-11.388.402 1.324 1.157 8.947-.326 10.694 1.166-2.458.44-5.483-.505-8.071-.383-4.41.207-8.701.421-13.019 1.461-4.362 1.051-8.613 2.812-12.89 4.172-1.842.586-4.851 1.088-6.378 2.209l-.812-.069c.379-1.485 1.21-1.769 2.32-2.641z"
     id="path51" />
  <path
     d="M203.6 67.086c2.84.552 6.39.601 9.048 1.557l-3.192.708.556 1.186c3.952 2.029 8.854 2.996 13.074 4.462 11.286 3.921 22.874 9.053 32.532 16.146 1.296 1.519 3.27 3.459 3.78 5.403 3.76 4.492 10.53 8.324 15.402 11.644-1.594 4.164 2.482 8.071.228 11.529l-2.834.748c-1.472.167-3.03.248-4.476.561q-.522.19-1.06.321c-2.826.707-23.546 1.214-25.076.728-4.814-1.532-10.046-5.957-14.42-8.604-3.482-4.01-6.372-8.489-9.348-12.877-4.948-4.255-9.322-10.322-13.592-15.295-.456-2.778-.438-5.431-.38-8.234l-.646-.121c-1.02-1.28-1.16-6.114-1.566-7.958l1.97-1.906z"
     class="B"
     id="path52" />
  <path
     d="M203.6 67.086c2.84.552 6.39.601 9.048 1.557l-3.192.708.556 1.186c-1.88-.002-2.778-.167-4.446.755-1.22 1.56-1.378 3.872-1.724 5.779l-.646-.121c-1.02-1.28-1.16-6.114-1.566-7.958l1.97-1.906z"
     class="E"
     id="path53" />
  <path
     d="M217.814 100.6l.722-.182c2.396 3.16 7.156 11.861 10.704 12.887l.504-.379c-2.104-2.139-2.43-4.739-4.224-6.921-.304-2.811-1.366-3.64-3.528-5.379l-.196-.157c2.142 1.108 4.088 2.555 6.214 3.629 3.744 1.892 8.106 2.879 12.148 3.948-3.646 1.02-6.522-1.222-10.12-1.365 4.522 6.033 16.448 7.175 19.96 13.298l.99.412c5.592.417 11.152.329 16.73.64q-.522.19-1.06.321c-2.826.707-23.546 1.214-25.076.728-4.814-1.532-10.046-5.957-14.42-8.604-3.482-4.01-6.372-8.489-9.348-12.877z"
     class="D"
     id="path54" />
  <path
     d="M232.124 110.569c-1.152-1-2.064-1.814-2.772-3.192l.686-.696c4.522 6.033 16.448 7.175 19.96 13.298l.99.412c-4.858.19-9.116-.878-13.312-3.421-2.784-1.688-4.748-3.131-5.552-6.401z"
     class="M"
     id="path55" />
  <path
     d="M240.158 108.045c8.206 3.651 11.484-9.351 19.24-11.497 3.76 4.492 10.53 8.324 15.402 11.644-1.594 4.164 2.482 8.071.228 11.529l-2.834.748c-1.472.167-3.03.248-4.476.561-5.578-.311-11.138-.223-16.73-.64l-.99-.412c-3.512-6.123-15.438-7.266-19.96-13.298 3.598.143 6.474 2.385 10.12 1.365z"
     class="R"
     id="path56" />
  <path
     d="M407.084 296.992l2.174.24c.616 3.948-.286 7.508.704 11.558 1.35 5.524 4.464 10.49 5.562 15.98l-.374.326c-1.066-3.17-2.028-6.304-3.284-9.412-.704-1.744-1.76-3.002-2.276-4.904-.894-3.312-.096-9.088-1.604-11.776-.29.084-.624.076-.868.252-1.734 1.25-2.916 4.504-4.682 6.112-3.132 2.854-7.098 3.642-10.538 5.846 2.652.138 6.036-.22 8.36 1.104 1.486 2.006 2.356 4.382 2.238 6.874-.364-.264-.208-.072-.324-.654-.482-2.424-1.342-4.668-3.61-5.966-1.386-.794-5.736-.05-7.424.064 4.42 17.726 6.842 35.736 10.798 53.532l8.11 37.354c2.414 10.034 5.548 19.73 7.34 29.926q1.808 10.174 2.842 20.454c.914 8.77 2.1 40.068 6.262 46.098h-4.87-12.952-4.056-4.724-49.374-2.47-11.726H184.25h-5.029l1.42-7.428q2.197-12.772 4.104-25.592l.369-3.348c.573-1.16 1.111-2.848 2.293-3.468.833 1.054.983 2.274 1.237 3.554.042-.05.089-.096.127-.15.997-1.384.465-3.384.287-4.99.584-6.198 1.333-10.776 3.899-16.53 1.949-1.36 3.789-2.566 5.991-3.506 2.823-1.204 6.121-1.402 9.141-1.834 1.952-.214 3.828-.554 5.746-.976l3.788-1.51c4.014-2.358 8.074-4.426 12.86-3.956 2.178-7.124 2.5-14.704 2.928-22.094 9.63-.094 16.518 4.756 28.048 2.814 8.524-1.434 16.896-5.28 24.25-9.714 6.524-3.934 12.62-11.636 20.714-11.514-.018-3.888-.116-11.176-2.51-14.154 6.51-2.506 13.386-7.574 19.22-11.432 13.936-9.216 22.736-18.12 30.714-32.738 3.222-5.906 5.882-11.894 7.238-18.51l.576-1.338c2.28-.79 8.02 2.038 10.926 2.292 9.446.826 23.602-4.48 30.784-10.546 1.124-2.228 2.228-4.322 3.714-6.34z"
     class="H"
     id="path57" />
  <path
     d="M317.946 429.062c3.54-.824 5.11.082 8.104 1.974 2.02 1.274 4.766 2.908 6.378 4.654-.684.408-1.174.514-1.452 1.278-.774-.398-1.458-.146-2.262.026-3.224-2.896-7.306-5.236-10.768-7.932z"
     class="M"
     id="path58" />
  <path
     d="M384.926 462.196c1.006-.212 3.18-.896 4.088-.356 5.052 2.998 14.1 28.908 15.298 35.696.142.812.256 1.642.3 2.464h-4.724c-4.808-12.79-7.1-26.382-14.962-37.804z"
     class="C"
     id="path59" />
  <path
     d="M408.668 500q-5.394-35.39-6.352-71.174c-.04-1.654-.716-4.834.008-6.244 1.102 1.86 1.336 4.028 1.702 6.124l1.368-.234-.906 1.002-.246-.266.882-.182 1.006-1.768c1.458-.216 2.73.884 3.792.172.172-2.252-.426-4.45-.896-6.638l.66-.54-.804-.752.12.19c2.344 3.92 12.532 71.416 12.618 80.31h-12.952z"
     class="O"
     id="path60" />
  <path
     d="M352.912 441.758c9.63 5.824 25.404 11.26 32.014 20.438 7.862 11.422 10.154 25.014 14.962 37.804h-49.374-2.47c-.1-8.678-.53-17.594.366-26.236-.052-8.466 1.838-16.744 3.736-24.94q.42-3.53.766-7.066z"
     class="L"
     id="path61" />
  <path
     fill="#cfb077"
     d="M352.146 448.824l.99.49c-.076 4.56-1.428 9.242-2.05 13.77-.968 7.048-1.196 14.246-1.146 21.352-.742 2.388-.798 5.242-1.078 7.732-.352-6.114-.342-12.28-.452-18.404-.052-8.466 1.838-16.744 3.736-24.94z"
     id="path62" />
  <path
     d="M233.41 408.172c9.63-.094 16.518 4.756 28.048 2.814 8.524-1.434 16.896-5.28 24.25-9.714 6.524-3.934 12.62-11.636 20.714-11.514.528 7.668 1.826 15.24 2.68 22.872.812 7.064 3.614 11.72 8.844 16.432 3.462 2.696 7.544 5.036 10.768 7.932.804-.172 1.488-.424 2.262-.026.278-.764.768-.87 1.452-1.278 3.078 1.32 6.458 2.518 9.164 4.504l2.542.256c.188-.438.46-1.468.884-1.64 1.284-.52 2.63-.216 3.858.328 1.484.658 2.894 1.452 4.036 2.62q-.346 3.536-.766 7.066c-1.898 8.196-3.788 16.474-3.736 24.94-.896 8.642-.466 17.558-.366 26.236h-11.726H184.25h-5.029l1.42-7.428q2.197-12.772 4.104-25.592l.369-3.348c.573-1.16 1.111-2.848 2.293-3.468.833 1.054.983 2.274 1.237 3.554.042-.05.089-.096.127-.15.997-1.384.465-3.384.287-4.99.584-6.198 1.333-10.776 3.899-16.53 1.949-1.36 3.789-2.566 5.991-3.506 2.823-1.204 6.121-1.402 9.141-1.834 1.952-.214 3.828-.554 5.746-.976l3.788-1.51c4.014-2.358 8.074-4.426 12.86-3.956 2.178-7.124 2.5-14.704 2.928-22.094z"
     class="D"
     id="path63" />
  <path
     d="M208.088 436.708c1.952-.214 3.828-.554 5.746-.976.47 8.096 2.444 16.316 8.73 21.956 1.558 1.4 3.52 2.75 5.418 3.62-.276 1.18-.322 1.304-1.218 2.114-.726-.07-1.246-.038-1.878-.43-5.648-3.512-12.246-11.396-14.066-17.856-.728-2.586-.534-5.246-1.14-7.832l-1.592-.596zm96.518 23.186l-.092.18c-.726 1.24-2.966 2.022-4.254 2.636 1.81.156 3.904-2.098 5.344-.988-13.246 8.042-39.098 11.714-54.056 8.04-1.634-.402-4.244-.97-5.28-2.364 14.468 2.578 31.54 2.458 45.594-2.228 4.236-1.412 8.14-3.98 12.426-5.19l.318-.086z"
     class="B"
     id="path64" />
  <defs
     id="defs65">
    <linearGradient
       id="K"
       x1="95.238"
       y1="225.15"
       x2="98.445"
       y2="225.362"
       href="#B">
      <stop
         offset="0"
         stop-color="#fae4d0"
         id="stop64" />
      <stop
         offset="1"
         stop-color="#f1ecc2"
         id="stop65" />
    </linearGradient>
  </defs>
  <path
     fill="url(#K)"
     transform="matrix(2 0 0 2 -.000244 0)"
     d="M96.478 221.024c.975-.68 1.894-1.283 2.995-1.753.438 2.701-3.366 11.426-4.472 14.532-.422-.679-.609-1.147-.68-1.944.021-.025.044-.048.064-.075.498-.692.233-1.692.143-2.495.292-3.099.666-5.388 1.949-8.265z"
     id="path65" />
  <path
     d="M329.626 441.842c1.28-.088 1.902-.322 3 .416.352 4-1.902 9.382-4.376 12.38-3.378 4.094-9.736 7.53-15.036 8.046-.7.068-1.36-.03-2.034-.218-.744-1.054-.618-1.302-.56-2.616q2.054-.688 3.996-1.65c7.066-3.452 12.428-8.82 15.01-16.358z"
     class="P"
     id="path66" />
  <path
     d="M328.714 436.994c.804-.172 1.488-.424 2.262-.026l-1.35 4.874c-2.582 7.538-7.944 12.906-15.01 16.358q-1.942.962-3.996 1.65l-5.016 1.872c-1.44-1.11-3.534 1.144-5.344.988 1.288-.614 3.528-1.396 4.254-2.636.034-.058.062-.12.092-.18 9.712-6.248 18.242-12.776 24.108-22.9z"
     class="C"
     id="path67" />
  <path
     fill="#e9e4d3"
     d="M185.114 463.632c.573-1.16 1.111-2.848 2.293-3.468.833 1.054.983 2.274 1.237 3.554.142 1.594.517 2.53 1.36 3.888q-1.845 16.38-5.754 32.394h-5.029l1.42-7.428q2.197-12.772 4.104-25.592l.369-3.348z"
     id="path68" />
  <path
     d="M344.134 440.45c.188-.438.46-1.468.884-1.64 1.284-.52 2.63-.216 3.858.328 1.484.658 2.894 1.452 4.036 2.62q-.346 3.536-.766 7.066c-1.898 8.196-3.788 16.474-3.736 24.94-.896 8.642-.466 17.558-.366 26.236h-11.726c.712-11.14 2.38-22.214 3.068-33.334-.054-.072-.112-.142-.16-.218-1.942-3.13-.028-12.368.924-15.884.75-3.428 1.084-6.882 1.442-10.37l2.542.256z"
     class="F"
     id="path69" />
  <path
     d="M341.592 440.194l2.542.256-2.052 11.806-1.932-1.692c.75-3.428 1.084-6.882 1.442-10.37z"
     class="E"
     id="path70" />
  <path
     d="M339.386 466.666l-.16-.218c-1.942-3.13-.028-12.368.924-15.884l1.932 1.692q-1.416 7.192-2.696 14.41z"
     class="C"
     id="path71" />
  <path
     d="M233.41 408.172c9.63-.094 16.518 4.756 28.048 2.814 8.524-1.434 16.896-5.28 24.25-9.714 6.524-3.934 12.62-11.636 20.714-11.514.528 7.668 1.826 15.24 2.68 22.872.812 7.064 3.614 11.72 8.844 16.432 3.462 2.696 7.544 5.036 10.768 7.932-5.866 10.124-14.396 16.652-24.108 22.9l-.318.086c-4.286 1.21-8.19 3.778-12.426 5.19-14.054 4.686-31.126 4.806-45.594 2.228-5.43-2.422-12.486-3.87-18.286-6.09-1.898-.87-3.86-2.22-5.418-3.62-6.286-5.64-8.26-13.86-8.73-21.956l3.788-1.51c4.014-2.358 8.074-4.426 12.86-3.956 2.178-7.124 2.5-14.704 2.928-22.094z"
     class="L"
     id="path72" />
  <path
     d="M233.41 408.172c9.63-.094 16.518 4.756 28.048 2.814 8.524-1.434 16.896-5.28 24.25-9.714 6.524-3.934 12.62-11.636 20.714-11.514.528 7.668 1.826 15.24 2.68 22.872l-.46.062c-2.71.316-6.1-2.292-8.18-1.652-4 1.23-7.256 6.678-11.156 8.72-18.768 9.818-39.27 14.468-60.34 15.058-3.526.098-8.098.902-11.344-.596 4.014-2.358 8.074-4.426 12.86-3.956 2.178-7.124 2.5-14.704 2.928-22.094z"
     class="J"
     id="path73" />
  <path
     d="m 197.791,71.859 c 0.09,-0.025 0.184,-0.04 0.271,-0.074 1.138,-0.437 2.575,-1.77 3.069,-2.864 l 0.088,-0.217 0.41,0.288 c 0.406,1.844 0.546,6.677 1.566,7.958 l 0.646,0.121 c -0.058,2.803 -0.076,5.455 0.38,8.234 4.27,4.973 8.644,11.04 13.592,15.295 2.976,4.388 5.866,8.867 9.348,12.877 15.856,22.509 42.946,42.025 66.256,56.118 2.632,1.591 15.692,8.754 16.766,10.59 0.072,0.433 0.088,1.161 0.256,1.544 0.948,2.172 14.33,11.634 17.298,13.762 2.4,1.722 4.878,3.347 7.348,4.967 2.546,2.23 6.916,5.254 8.556,8.134 l -0.004,1.708 c -0.64,0.344 -1.218,0.526 -1.916,0.726 -0.358,0.104 -0.218,0.042 -0.516,0.236 5.18,3.27 11.122,7.644 16.938,9.578 l 5.242,3.034 c 3.028,2.28 6.09,4.48 8.494,7.446 l 0.386,0.784 c 0.848,-0.414 1.752,-0.164 2.682,-0.078 1.368,-0.544 1.922,-1.096 2.76,-2.268 l 0.256,-0.366 0.186,0.334 0.412,-1.05 c 4.954,3.98 9.956,9.084 15.42,12.282 4.166,2.438 9.052,3.816 13.03,6.438 0.886,-1.906 -2.338,-9.994 -2.94,-12.506 8.358,10.088 16.402,27.952 15.172,41.258 -0.242,2.602 -0.514,6.132 -1.386,8.566 -1.148,3.212 -9.404,8.878 -8.322,12.394 l -0.278,0.124 -2.174,-0.24 c -1.486,2.018 -2.59,4.112 -3.714,6.34 -7.182,6.066 -21.338,11.372 -30.784,10.546 -2.906,-0.254 -8.646,-3.082 -10.926,-2.292 l -0.576,1.338 c -1.356,6.616 -4.016,12.604 -7.238,18.51 -7.978,14.618 -16.778,23.522 -30.714,32.738 -5.834,3.858 -12.71,8.926 -19.22,11.432 2.394,2.978 2.492,10.266 2.51,14.154 -8.094,-0.122 -14.19,7.58 -20.714,11.514 -7.354,4.434 -15.726,8.28 -24.25,9.714 -11.53,1.942 -18.418,-2.908 -28.048,-2.814 -0.234,-4.916 0.816,-10.212 -0.398,-15.034 -3.576,-0.966 -6.478,-3.014 -9.526,-5.026 -0.22133,-0.0547 -0.442,-0.114 -0.662,-0.178 -7.312,-2.112 -14.534,-6.536 -21.188,-10.182 -5.074,-2.78 -10.467,-5.076 -15.426,-8.028 -11.904,-7.088 -25.218,-18.702 -31.997,-30.812 -2.85621,-7.16681 -0.73861,-0.9866 -0.49869,-2.81458 0.402,-3.062 -3.85231,-20.57342 -4.92131,-24.75142 l -3.47474,-0.412 -9.55026,-4.17 c -15.196,-13.078 -22.946,-33.382 -24.332,-52.994 -0.066,-9.372 -1.88,-21.962 3.549,-30.102 6.004,-6.502 13.56,-11.498 19.781,-17.808 -3.317,-7.446 -1.694,-15.675 0.903,-23.012 0.894,-7.386 12.66,-29.511 16.998,-36.435 4.262,-6.802 9.175,-13.461 13.999,-19.878 8.903,-9.684 20.018,-17.482 29.086,-27.117 0.324,-1.188 1.25,-3.587 1.026,-4.739 -0.197,-1.012 -0.59,-1.106 -1.394,-1.673 -0.765,0.088 -1.347,0.128 -2.101,-0.05 0.211,-1.803 1.645,-3.293 2.652,-4.814 0.309,-3.467 -2.361,-5.377 -4.056,-8.133 l 0.403,-1.401 c 1.246,-1.785 3.347,-1.74 4.893,-3.483 l 0.617,-3.267 z"
     id="path74"
     sodipodi:nodetypes="cccccccccccccccccccccccccccccccccccccccccsccccccccccccccccccccccccccccccc" />
  <path
     fill="#a69c9e"
     d="M333.944 219.268l5.632 3.69c-.128 2.232.38 4.77 1.334 6.808l-2.258.76q-2.246-5.674-4.708-11.258z"
     id="path75" />
  <path
     fill="#b1887b"
     d="M347.942 240.858q.652 4.414.588 8.878-.064 4.462-.844 8.856c-.23-3.714-2.312-6.79-2.594-10.684 1.988-1.954 1.106-4.682 2.85-7.05z"
     id="path76" />
  <path
     d="M210.218 242.02c2.384 10.074 2.67 18.462-.35 28.46-.98-1.45-1.854-2.502-3.27-3.536l-.212-.862c1.03-1.906 1.278-4.334 1.69-6.446.298-1.706.87-3.432 1.314-5.11.634-3.676-.658-9.528.828-12.506z"
     class="T"
     id="path77" />
  <path
     fill="#967576"
     d="M339.576 222.958c4.484 3.01 6.526 6.844 7.532 12.046q.146.762.238 1.532c.246 1.336.728 2.984.596 4.322-1.744 2.368-.862 5.096-2.85 7.05l.032-1.25c-1.708-5.874-1.434-11.1-4.214-16.892-.954-2.038-1.462-4.576-1.334-6.808z"
     id="path78" />
  <path
     d="m 206.598,266.944 c 1.416,1.034 2.29,2.086 3.27,3.536 -1.802,5.192 -5.34848,9.03805 -8.57248,13.52405 -2.628,-2.158 -4.75752,-1.28605 -7.42752,-3.40405 2.563,-0.638 4.792,-1.554 7.18,-2.658 1.16,-1.668 2.186,-3.426 3.234,-5.168 1.37,-1.334 1.826,-4.016 2.316,-5.83 z"
     class="F"
     id="path79"
     sodipodi:nodetypes="ccccccc" />
  <path
     d="M338.652 230.526l2.258-.76c2.78 5.792 2.506 11.018 4.214 16.892l-.032 1.25c.282 3.894 2.364 6.97 2.594 10.684-1.884 9.716-3.91 19.246-9.306 27.716l-1.588-.84c-.75-3.02 2.494-9.528 3.204-12.822.5-2.324 1.336-6.752-.006-8.824 3.46-10.628 1.816-22.796-1.338-33.296z"
     class="R"
     id="path80" />
  <path
     d="M280.508 217.492q-2.704 2.71-5.454 5.372c.792 1.61 1.194 1.696 2.712 2.556-1.824 2.89-3.804 5.77-5.418 8.78-.888 2.446-1.558 4.726-2.014 7.296l-1.67 2.132-.814.05-.65-1.966-.338 4.444c.504 7.172 2.106 14.048 3.934 20.98.658 2.494 2.076 5.728 2.256 8.18l-.046.686-.44-.25c-1.114-2.348-5.562-15.74-5.864-18.018-.444-3.336-.146-6.964-.412-10.38-.184-.798-.384-1.59-.476-2.406-.352 2.516-1.596 5.288-.804 7.756 1.834 5.714-8.47 11.898 3.134 29.414l-.298.412-.458.018c-1.182-1.462-2.152-3.402-2.968-5.094-5.656-11.714-6.252-27.054-1.94-39.268 3.318-9.396 9.012-16.358 18.028-20.694z"
     class="K"
     id="path81" />
  <path
     fill="#544e38"
     d="M267.2 241.712c.45-3.838 1.68-7.38 2.994-10.992.514 1.476 1.106 2.338 2.154 3.48-.888 2.446-1.558 4.726-2.014 7.296l-1.67 2.132-.814.05-.65-1.966z"
     id="path82" />
  <path
     fill="#34141e"
     d="M275.054 222.864c.792 1.61 1.194 1.696 2.712 2.556-1.824 2.89-3.804 5.77-5.418 8.78-1.048-1.142-1.64-2.004-2.154-3.48 1.3-2.872 2.642-5.574 4.86-7.856z"
     id="path83" />
  <defs
     id="defs84">
    <linearGradient
       id="L"
       x1="62.874"
       y1="125.866"
       x2="79.317"
       y2="125.079"
       href="#B">
      <stop
         offset="0"
         stop-color="#c40c24"
         id="stop83" />
      <stop
         offset="1"
         stop-color="#f53743"
         id="stop84" />
    </linearGradient>
  </defs>
  <path
     fill="url(#L)"
     transform="matrix(2 0 0 2 -.000244 0)"
     d="M69.745 145.575c-3.868-4.492-6.245-10.424-6.97-16.297-.708-5.74 1.301-11.54 4.84-16.03 3.671-4.659 6.944-6.321 12.85-7.016-4.574 8.276-7.372 13.823-5.797 23.463-1.663.984-2.156 4.038-2.636 5.885-.058.224-.039.138-.073.346-.612 3.265-.726 6.61-2.213 9.649z"
     id="path84" />
  <path
     d="m 143.914,271.852 c 0.068,-0.416 0.03,-0.244 0.147,-0.692 0.959,-3.694 1.945,-9.802 5.271,-11.77 l 1.747,3.61 1.087,-0.478 c 1.204,0.24 2.026,0.484 3.201,-0.038 3.731,7.212 8.872,15.566 17.067,18.108 6.329,1.962 13.798,1.166 20.134,-0.32 4.389,-1.76 8.087,-4.524 11.713,-7.498 -1.048,1.742 -2.074,3.5 -3.234,5.168 -2.387,1.104 -4.617,2.02 -7.18,2.658 2.669,2.118 13.61925,-9.11171 16.24725,-6.95371 -6.329,9.106 -23.07925,27.28771 -34.11325,29.31371 -9.955,1.828 -21.739,-0.256 -30.138,-6.002 -2.345,-1.636 -4.339,-3.81 -6.376,-5.808 2.974,-6.078 3.202,-12.768 4.426,-19.298 z"
     class="G"
     id="path85"
     sodipodi:nodetypes="ccccccccccccccccc" />
  <path
     d="M143.914 271.852c.474 6.226 2.963 19.782 1.95 25.106-2.345-1.636-4.339-3.81-6.376-5.808 2.974-6.078 3.202-12.768 4.426-19.298z"
     class="B"
     id="path86" />
  <path
     fill="#34141e"
     d="M155.367 262.484c3.731 7.212 8.872 15.566 17.067 18.108 6.329 1.962 13.798 1.166 20.134-.32 4.389-1.76 8.087-4.524 11.713-7.498-1.048 1.742-2.074 3.5-3.234 5.168-2.387 1.104-4.617 2.02-7.18 2.658-8.452 3.164-17.738 4.172-26.351.88-8.047-3.078-13.086-10.94-16.438-18.48l1.087-.478c1.204.24 2.026.484 3.201-.038z"
     id="path87" />
  <path
     d="M267.388 282.548l.458-.018.298-.412c-11.604-17.516-1.3-23.7-3.134-29.414-.792-2.468.452-5.24.804-7.756.092.816.292 1.608.476 2.406.266 3.416-.032 7.044.412 10.38.302 2.278 4.75 15.67 5.864 18.018l.44.25.046-.686c7.376 6.8 15.58 8.498 25.43 8.064 2.588-.114 5.398-.168 7.94-.636-1.152-.176-2.082-.346-3.124-.918.4-.008.798-.04 1.198-.048.736-.018 1.512.024 2.218-.23 1.188-.428 2.682-1.162 3.254-2.282-1.926-.59-3.396-.05-5.148.71l-2.17-.486 1.656-2.074c7.212.226 13.398-1.414 20.174-3.562.446.62.904 1.426 1.442 1.96 6.176-2.632 10.49-6.364 14.068-11.992 1.342 2.072.506 6.5.006 8.824-.71 3.294-3.954 9.802-3.204 12.822l1.588.84q-1.074 1.578-2.302 3.038-1.23 1.458-2.604 2.784-1.374 1.324-2.876 2.502-1.502 1.176-3.118 2.192c-9.604 6.082-21.784 7.81-32.794 5.298-11.62-2.65-20.978-9.506-27.298-19.574z"
     class="G"
     id="path88" />
  <path
     d="M304.306 277.416c7.212.226 13.398-1.414 20.174-3.562.446.62.904 1.426 1.442 1.96-5.808 4.026-13.328 3.896-19.5 6.93-1.152-.176-2.082-.346-3.124-.918.4-.008.798-.04 1.198-.048.736-.018 1.512.024 2.218-.23 1.188-.428 2.682-1.162 3.254-2.282-1.926-.59-3.396-.05-5.148.71l-2.17-.486 1.656-2.074z"
     class="U"
     id="path89" />
  <path
     d="M170.378 217.064c2.383-1.954 5.292-2.476 8.32-2.186 7.096.676 13.683 5.29 19.239 9.39 5.657 3.906 11.549 10.28 12.285 17.422.012.11-.002.22-.004.33-1.486 2.978-.194 8.83-.828 12.506-.444 1.678-1.016 3.404-1.314 5.11-.412 2.112-.66 4.54-1.69 6.446l.212.862c-.49 1.814-.946 4.496-2.316 5.83-3.626 2.974-7.324 5.738-11.713 7.498-6.337 1.486-13.805 2.282-20.134.32-8.195-2.542-13.336-10.896-17.067-18.108-1.293-4.018-2.081-8.076-2.188-12.302-.272-10.706 4.145-20.112 11.419-27.782 1.619-2.1 3.608-3.836 5.779-5.336z"
     class="F"
     id="path90" />
  <path
     d="M170.378 217.064c2.424 2.362 2.065 7.85 2.095 11.166.007.792-.061 1.578-.156 2.364-.498 1.758-.882 3.006-.322 4.796l.136.412q-.241.266-.488.524c-1.019 1.062-1.685 1.714-3.172 1.742-3.07-4.772 1.55-10.872 2.241-15.53.239-1.608.025-3.488-.03-5.12-1.836 2.306-3.152 4.168-6.082 4.982 1.619-2.1 3.608-3.836 5.779-5.336z"
     class="K"
     id="path91" />
  <path
     d="M166.73 253.434c2.42.004 4.997.494 7.367.33-1.407.462-2.136.39-2.861 1.72.231 1.434.697 1.898 1.827 2.786.478.376 5.091 10.43 5.301 11.488.158.792-.097 1.068-.459 1.704q-.829-.578-1.61-1.22c-4.874-4.002-8.921-10.468-9.564-16.808z"
     class="V"
     id="path92" />
  <path
     d="M166.617 252.574c-.149-1.86-.097-3.604.356-5.424.533-2.142 1.11-4.316 3.072-5.476l.959.4c1.248 1.522 1.529 3.36 1.944 5.23l1.336.24c.638 5.484 4.794 11.318 9.154 14.722 2.468 1.926 8.592 3.168 11.702 3.148 4.591-3.768 9.953-6.832 14.249-10.888-.444 1.678-1.016 3.404-1.314 5.11-.412 2.112-.66 4.54-1.69 6.446l.212.862c-.49 1.814-.946 4.496-2.316 5.83-3.626 2.974-7.324 5.738-11.713 7.498l-1.689-1.604c-3.324-.186-6.961-.166-9.798-2.114l-1.458-3.788c-.659-.332-1.171-.822-1.72-1.304.362-.636.617-.912.459-1.704-.21-1.058-4.823-11.112-5.301-11.488-1.13-.888-1.596-1.352-1.827-2.786.725-1.33 1.454-1.258 2.861-1.72-2.37.164-4.946-.326-7.367-.33l-.113-.86z"
     class="W"
     id="path93" />
  <path
     fill="#2fbfd7"
     d="M177.904 271.462c.362-.636.617-.912.459-1.704-.21-1.058-4.823-11.112-5.301-11.488-1.13-.888-1.596-1.352-1.827-2.786.725-1.33 1.454-1.258 2.861-1.72.694 2.356 1.466 4.714 1.894 7.136 1.636 1.81 3.71 4.162 5.964 5.172 5.231 1.326 10.872.662 16.213.398 2.936-1.802 6.606-6.496 9.908-6.834-.412 2.112-.66 4.54-1.69 6.446-1.982.918-3.862 1.948-5.752 3.034-3.09.304-6.184.654-9.285.828l-1.176.02q-2.506 1.124-5.161 1.83-2.655.704-5.388.972c-.659-.332-1.171-.822-1.72-1.304z"
     id="path94" />
  <path
     fill="#43e2f6"
     d="M200.634 269.116l5.752-3.034.212.862c-.49 1.814-.946 4.496-2.316 5.83-3.626 2.974-7.324 5.738-11.713 7.498l-1.689-1.604c-3.324-.186-6.961-.166-9.798-2.114l-1.458-3.788q2.734-.268 5.388-.972 2.655-.706 5.161-1.83l1.176-.02c3.101-.174 6.194-.524 9.285-.828z"
     id="path95" />
  <path
     fill="#2fbfd7"
     d="M193.744 274.372c.511-1.286.649-1.276 1.877-1.954l.985.338c.538 1.18.253 1.502-.129 2.69-2.434.728-3.903 1.242-5.597 3.222-3.324-.186-6.961-.166-9.798-2.114 4.279-.634 8.453-1.138 12.662-2.182z"
     id="path96" />
  <path
     d="M190.173 269.964l1.176-.02c1.053 1.166 2.105 2.112 2.32 3.728l.062.434c.009.088.008.178.012.266-4.209 1.044-8.383 1.548-12.662 2.182l-1.458-3.788q2.734-.268 5.388-.972 2.655-.706 5.161-1.83z"
     class="T"
     id="path97" />
  <path
     d="M170.378 217.064c2.383-1.954 5.292-2.476 8.32-2.186 7.096.676 13.683 5.29 19.239 9.39 5.657 3.906 11.549 10.28 12.285 17.422.012.11-.002.22-.004.33-1.486 2.978-.194 8.83-.828 12.506-4.296 4.056-9.658 7.12-14.249 10.888-3.111.02-9.235-1.222-11.702-3.148-4.36-3.404-8.516-9.238-9.154-14.722.824-2.598 1.478-5.184 2.074-7.842-.119-.452-.277-.838-.549-1.224-.832-1.178-2.19-2.536-3.68-2.676l-.136-.412c-.559-1.79-.176-3.038.322-4.796.096-.786.163-1.572.156-2.364-.03-3.316.329-8.804-2.095-11.166z"
     class="U"
     id="path98" />
  <path
     d="M176.925 224.294l.022 9.362c-.149 1.98-.724 4.09-.589 6.046-.119-.452-.277-.838-.549-1.224-.832-1.178-2.19-2.536-3.68-2.676l-.136-.412c2.348-3.22 3.034-7.566 4.931-11.096zm-6.547-7.23c2.383-1.954 5.292-2.476 8.32-2.186 7.096.676 13.683 5.29 19.239 9.39l-.567 1.222c-5.147-3.188-9.587-6.956-16.038-5.462-2.983.69-4.651 2.73-6.151 5.24-1.026 1.716-2.108 3.47-2.864 5.326.096-.786.163-1.572.156-2.364-.03-3.316.329-8.804-2.095-11.166z"
     fill="#e9e4d3"
     id="path99" />
  <path
     d="M277.766 225.42c2.762-3.462 5.734-6.15 9.836-7.93 10.838-4.704 20.524-1.802 30.92 2.298 1.6.192 4.634 1.812 5.544 3.168.048.07.082.15.124.226 8.556 7.78 10.518 20.084 11.038 31.188.23 4.926.13 11.026-3.332 14.902-1.814 2.028-4.926 3.558-7.416 4.582-6.776 2.148-12.962 3.788-20.174 3.562l-1.656 2.074 2.17.486c1.752-.76 3.222-1.3 5.148-.71-.572 1.12-2.066 1.854-3.254 2.282-.706.254-1.482.212-2.218.23-.4.008-.798.04-1.198.048 1.042.572 1.972.742 3.124.918-2.542.468-5.352.522-7.94.636-9.85.434-18.054-1.264-25.43-8.064-.18-2.452-1.598-5.686-2.256-8.18-1.828-6.932-3.43-13.808-3.934-20.98l.338-4.444.65 1.966.814-.05 1.67-2.132c.456-2.57 1.126-4.85 2.014-7.296 1.614-3.01 3.594-5.89 5.418-8.78z"
     class="U"
     id="path100" />
  <path
     d="M285.014 251.814c1.87-.478 3.824-.33 5.57.686l.364.222c.63 1.17 1.168 2.196 1.442 3.514-1.17.238-2.446.194-3.638.238-.892-2.186-1.252-2.886-3.32-3.904l-.418-.756z"
     class="W"
     id="path101" />
  <path
     d="M324.19 223.182c8.556 7.78 10.518 20.084 11.038 31.188.23 4.926.13 11.026-3.332 14.902-1.814 2.028-4.926 3.558-7.416 4.582-6.776 2.148-12.962 3.788-20.174 3.562-2.492-.494-5.26-.124-7.596-1.294l-.22-.114c-2.282-1.142-5.006-6.672-6.714-8.912-2.188-4.812-3.432-9.318-4.344-14.526 2.068 1.018 2.428 1.718 3.32 3.904 1.192-.044 2.468 0 3.638-.238-.274-1.318-.812-2.344-1.442-3.514 3.766 2.274 10.064 3.28 14.348 4.708 6.432-1.498 12.958-3.972 19.218-6.106l1.486.814c2.628-.346 4.796-.548 6.52-2.618-.124-8.882-2.632-18.686-8.804-25.276l.474-1.062z"
     class="T"
     id="path102" />
  <path
     d="M288.752 256.474c1.192-.044 2.468 0 3.638-.238l.204 1.358c3.11 4.21 9.126 6.886 13.26 10.216 3.13.43 6.106 1.406 9.176 1.852-3.44.698-7.042 1.668-10.56 1.106-5.664-.902-9.96-5.662-13.132-10.132-1.084-1.252-1.808-2.712-2.586-4.162z"
     class="V"
     id="path103" />
  <defs
     id="defs104">
    <linearGradient
       id="M"
       x1="154.566"
       y1="125.093"
       x2="157.31"
       y2="134.002"
       href="#B">
      <stop
         offset="0"
         stop-color="#003087"
         id="stop103" />
      <stop
         offset="1"
         stop-color="#0652b0"
         id="stop104" />
    </linearGradient>
  </defs>
  <path
     fill="url(#M)"
     transform="matrix(2 0 0 2 -.000244 0)"
     d="M166.26 124.76c-.028 2.581-1.615 5.594-3.438 7.341-1.538 1.474-3.277 2.193-5.307 2.73-1.535-.223-3.023-.711-4.588-.926-2.067-1.665-5.075-3.003-6.63-5.108l-.102-.679c-.137-.659-.406-1.172-.721-1.757 1.883 1.137 5.032 1.64 7.174 2.354 3.216-.749 6.479-1.986 9.609-3.053l.743.407c1.314-.173 2.398-.274 3.26-1.309z"
     id="path104" />
  <path
     d="M277.766 225.42c2.762-3.462 5.734-6.15 9.836-7.93 10.838-4.704 20.524-1.802 30.92 2.298l-1.016 1.026c-8.062-2.656-16.412-4.098-24.368-.078-2.46 1.242-4.256 3.052-6.008 5.148l.818 2.296c2.77 1.36 7.736 3.234 8.68 6.496.322 1.112.066 2.274-.558 3.234-.044.066-.096.124-.144.186-1.308 1.654-2.638 2.868-4.334 4.118-4.134 1.014-7.88 1.846-12.168 1.818.43 3.524 1.152 6.862 2.034 10.298l2.886-1.798.226.12.444-.838.418.756c.912 5.208 2.156 9.714 4.344 14.526 1.708 2.24 4.432 7.77 6.714 8.912l.22.114c2.336 1.17 5.104.8 7.596 1.294l-1.656 2.074 2.17.486c1.752-.76 3.222-1.3 5.148-.71-.572 1.12-2.066 1.854-3.254 2.282-.706.254-1.482.212-2.218.23-.4.008-.798.04-1.198.048 1.042.572 1.972.742 3.124.918-2.542.468-5.352.522-7.94.636-9.85.434-18.054-1.264-25.43-8.064-.18-2.452-1.598-5.686-2.256-8.18-1.828-6.932-3.43-13.808-3.934-20.98l.338-4.444.65 1.966.814-.05 1.67-2.132c.456-2.57 1.126-4.85 2.014-7.296 1.614-3.01 3.594-5.89 5.418-8.78z"
     class="F"
     id="path105" />
  <path
     fill="#546f6d"
     d="M287.13 225.884l.818 2.296c-1.578 2.096-1.006 4.944-.756 7.45l-.266.14c-1.668.656-3.562-2.27-5.29-3.05 1.562-2.718 3.176-4.75 5.494-6.836z"
     id="path106" />
  <path
     fill="#8c9ba0"
     d="M278.478 240.428l3.158-7.708c1.728.78 3.622 3.706 5.29 3.05.092-.038.178-.094.266-.14l.802 2.72c-3.306-.064-6.418 1.072-9.516 2.078z"
     id="path107" />
  <path
     d="M289.776 267.096c1.708 2.24 4.432 7.77 6.714 8.912l.22.114c2.336 1.17 5.104.8 7.596 1.294l-1.656 2.074c-1.342-.122-2.672-.334-3.966-.716-5.47-1.614-9.662-6.87-12.344-11.648 1.428.51 2.046.406 3.436-.03z"
     class="V"
     id="path108" />
  <path
     d="M281.458 254.33l2.886-1.798.226.12.444-.838.418.756c.912 5.208 2.156 9.714 4.344 14.526-1.39.436-2.008.54-3.436.03-2.066-4.14-3.532-8.378-4.882-12.796z"
     class="W"
     id="path109" />
  <path
     fill="#c8d3e0"
     d="M287.948 228.18c2.77 1.36 7.736 3.234 8.68 6.496.322 1.112.066 2.274-.558 3.234-.044.066-.096.124-.144.186-.34-.572-.904-.868-1.494-1.14-1.856-.854-4.654.71-6.438 1.394-.184-.92-.518-1.824-.802-2.72-.25-2.506-.822-5.354.756-7.45z"
     id="path110" />
  <path
     fill="#7c7462"
     d="M267.2 241.712l.65 1.966.814-.05 1.67-2.132c-.698 9.432-1.524 26.41 5.088 34.046 2.99 3.452 7.242 4.674 11.656 4.92 2.724.15 16.324 1.172 17.868-.024l-.126-.462c1.752-.76 3.222-1.3 5.148-.71-.572 1.12-2.066 1.854-3.254 2.282-.706.254-1.482.212-2.218.23-.4.008-.798.04-1.198.048 1.042.572 1.972.742 3.124.918-2.542.468-5.352.522-7.94.636-9.85.434-18.054-1.264-25.43-8.064-.18-2.452-1.598-5.686-2.256-8.18-1.828-6.932-3.43-13.808-3.934-20.98l.338-4.444z"
     id="path111" />
  <path
     d="M197.791 71.859c.09-.025.184-.04.271-.074 1.138-.437 2.575-1.77 3.069-2.864l.088-.217.41.288c.406 1.844.546 6.677 1.566 7.958l.646.121c-.058 2.803-.076 5.455.38 8.234 4.27 4.973 8.644 11.04 13.592 15.295 2.976 4.388 5.866 8.867 9.348 12.877 15.856 22.509 42.946 42.025 66.256 56.118 2.632 1.591 15.692 8.754 16.766 10.59.072.433.088 1.161.256 1.544.948 2.172 14.33 11.634 17.298 13.762 2.4 1.722 4.878 3.347 7.348 4.967 2.546 2.23 6.916 5.254 8.556 8.134l-.004 1.708c-.64.344-1.218.526-1.916.726-.358.104-.218.042-.516.236-7.516-4.396-15.35-7.786-23.562-10.64q-5.624-.71-11.266-1.252c-6.124.167-12.13.652-18.218 1.372-1.37.386-2.736.858-4.034 1.444-13.316 6.012-26.91 17.928-32.234 31.838-10.244-.438-23.788-1.128-33.812.68-1.71-3.96-4.318-7.664-6.876-11.116-9.188-12.398-19.458-20.784-34.959-23.07-4.201-.118-8.398-.254-12.586.192-5.162.548-17.6 4.172-21.929 2.994-.995-.872-1.185-1.078-2.473-1.29-1.785.906-2.862 2.392-4.491 3.446-3.317-7.446-1.694-15.675.903-23.012.894-7.386 12.66-29.511 16.998-36.435 4.262-6.802 9.175-13.461 13.999-19.878 8.903-9.684 20.018-17.482 29.086-27.117.324-1.188 1.25-3.587 1.026-4.739-.197-1.012-.59-1.106-1.394-1.673-.765.088-1.347.128-2.101-.05.211-1.803 1.645-3.293 2.652-4.814.309-3.467-2.361-5.377-4.056-8.133l.403-1.401c1.246-1.785 3.347-1.74 4.893-3.483l.617-3.267z"
     class="L"
     id="path112" />
  <path
     d="M261.802 193.388c1.136-.706 2.022-1.511 3.458-.99 1.688.612 3.21 2.056 4.768 2.953 2.326 1.858 4.69 2.728 7.246 4.124-1.482.699-2.922 1.583-4.362 2.373l-6.16-1.72-4.95-6.74zm-112.945-9.201l3.393 3.616-3.282 6.061c10.328-2.593 26.469-4.705 36.751-1.866-7.825.747-15.757-.365-23.567.294-4.946.417-9.615 2.947-14.562 3.065-.588-1.424.394-3.125-.246-4.288l-.672.785.734-.768-.162.171c-.393.421-.695.742-.901 1.293l.359.396-.608.184c-.97 2.418-3.283 6.226-3.257 8.674l.591.868c7.71.666 27.092-7.033 32.816-2.154-4.201-.118-8.398-.254-12.586.192-5.162.548-17.6 4.172-21.929 2.994.094-1.434.351-2.888.535-4.316 1.73-1.934 5.154-12.138 6.592-15.202z"
     class="G"
     id="path113" />
  <path
     d="M226.244 153.44c-.42-.912-.97-1.876-1.152-2.866 2.242.589 7.126 12.029 9.242 11.114l-.546-1.148.392-.804c4.014 5.066 8.544 10.529 13.85 14.302l-.676 1.966c2.958 2.938 6.758 5.163 9.41 8.336l.524.874c-.446.607-.902 1.365-1.434 1.889-10.918-10.657-20.502-18.11-30.072-30.475l.628-.284.79.886.68-.151c-.48-1.082-1.004-1.876-1.798-2.755l-.2-.219.362-.664z"
     class="E"
     id="path114" />
  <path
     d="M226.244 153.44c-.42-.912-.97-1.876-1.152-2.866 2.242.589 7.126 12.029 9.242 11.114l-.546-1.148.392-.804c4.014 5.066 8.544 10.529 13.85 14.302l-.676 1.966c-9.364-6.634-14.394-13.438-21.11-22.563z"
     class="M"
     id="path115" />
  <defs
     id="defs116">
    <linearGradient
       id="N"
       x1="111.14"
       y1="70.047"
       x2="108.638"
       y2="71.444"
       href="#B">
      <stop
         offset="0"
         stop-color="#f47b7a"
         id="stop115" />
      <stop
         offset="1"
         stop-color="#d65669"
         id="stop116" />
    </linearGradient>
  </defs>
  <path
     fill="url(#N)"
     transform="matrix(2 0 0 2 -.000244 0)"
     d="M104.661 63.812c-.033-1.025-.232-2.522.091-3.484.216-.644.389-.622.983-.904 1.707 3.736 3.279 7.708 5.297 11.28 1.804 3.195 4.025 6.117 6.058 9.163l-.196.402.273.574c-1.058.457-3.5-5.262-4.621-5.557.091.495.366.977.576 1.433l-.181.332.1.11c.397.44.659.837.899 1.377l-.34.076-.395-.443-.314.142c-3.081-2.52-6.671-10.708-8.23-14.502z"
     id="path116" />
  <path
     d="M152.25 187.803c5.994-8.006 13.224-13.624 23.357-15.059 7.938-1.125 17.647-.313 24.202 4.698 3.746 2.863 6.774 7.645 7.384 12.363.226 1.743.472 4.248-.672 5.729-.32.415-1.382.584-1.91.636-6.135.613-12.715-4.288-18.891-4.173-10.282-2.838-26.423-.727-36.751 1.866l3.282-6.061z"
     class="Q"
     id="path117" />
  <defs
     id="defs118">
    <linearGradient
       id="O"
       x1="89.479"
       y1="120.5"
       x2="136.789"
       y2="69.249"
       href="#B">
      <stop
         offset="0"
         stop-color="#930005"
         id="stop117" />
      <stop
         offset="1"
         stop-color="#cb1c3c"
         id="stop118" />
    </linearGradient>
  </defs>
  <path
     fill="url(#O)"
     transform="matrix(2 0 0 2 -.000244 0)"
     d="M98.896 35.93c.045-.012.092-.02.136-.037.569-.219 1.288-.885 1.535-1.432l.044-.109.205.144c.203.922.273 3.339.783 3.979l.323.061c-.029 1.402-.038 2.728.19 4.117 2.135 2.486 4.322 5.52 6.796 7.648 1.488 2.194 2.933 4.434 4.674 6.439 7.928 11.255 21.473 21.013 33.128 28.059 1.316.795 7.846 4.377 8.383 5.295.036.216.044.581.128.772.474 1.086 7.165 5.817 8.649 6.881 1.2.861 2.439 1.674 3.674 2.483 1.273 1.115 3.458 2.627 4.278 4.067l-.002.854c-.32.172-.609.263-.958.363-.179.052-.109.021-.258.118-3.758-2.198-7.675-3.893-11.781-5.32q-2.812-.355-5.633-.626c-3.062.084-6.065.326-9.109.686-1.096-.753-3.986-.255-5.443-.634-1.278-.698-2.46-1.133-3.623-2.062-.779-.448-1.54-1.17-2.384-1.476-.718-.261-1.161.142-1.729.495-.905-1.097-1.988-2.113-2.974-3.143.266-.262.494-.641.717-.944l-.262-.437c-1.326-1.587-3.226-2.699-4.705-4.168l.338-.983c-2.653-1.887-4.918-4.618-6.925-7.151-2.033-3.046-4.254-5.968-6.058-9.163-2.018-3.572-3.59-7.545-5.297-11.28-.594.282-.767.259-.983.904-.323.962-.124 2.459-.091 3.484l-.839-1.745c-.037-.019-.076-.037-.113-.058-1.078-.62-2.582-4.005-2.98-5.216l-.179-.558c-.819.194-1.474.855-2.204 1.261-4.542 2.525-8.164 5.266-10.938 9.737-1.106 1.782-4.67 9.996-5.341 10.654-.386-.609-.478-1.314-.623-2.011-.645.057-.899.366-1.302.85-.277.332-.54.676-.804 1.018l-1.059 3.006c-1.038 3.306-2.06 6.599-3.312 9.832l-.538 1.512c-.719 1.532-2.431 6.634-3.296 7.601-.092.714-.221 1.441-.268 2.158-.498-.436-.593-.539-1.236-.645-.892.453-1.431 1.196-2.245 1.723-1.659-3.723-.847-7.838.451-11.506.447-3.693 6.33-14.756 8.499-18.217 2.131-3.401 4.587-6.73 7-9.939 4.452-4.842 10.009-8.741 14.543-13.559.162-.594.625-1.794.513-2.37-.099-.506-.295-.553-.697-.837-.383.044-.673.064-1.05-.025.105-.901.822-1.646 1.326-2.407.154-1.734-1.181-2.688-2.028-4.066l.201-.7c.623-.892 1.674-.87 2.446-1.741l.309-1.633z"
     id="path118" />
  <path
     d="M135.669 182.848c1.074 3.875-3.556 13.875-1.458 17.025.016.023.023.051.034.077 1.824-5.089 1.283-10.585 3.532-15.6-.252 1.937-.507 3.866-.863 5.788-.214 2.569-1.342 7.843.366 9.938.3.368 1 .53 1.443.71 1.25-.34 2.372-.856 3.541-1.398-.184 1.428-.441 2.882-.535 4.316-.995-.872-1.185-1.078-2.473-1.29-1.785.906-2.862 2.392-4.491 3.446-3.317-7.446-1.694-15.675.903-23.012z"
     class="Q"
     id="path119" />
  <path
     d="M248.03 174.038q4.392 3.436 8.7 6.977l8.11 7.852c1.364 1.174 4.584 4.947 5.188 6.485-1.558-.897-3.08-2.34-4.768-2.953-1.436-.521-2.322.284-3.458.99-1.81-2.194-3.976-4.226-5.948-6.285.532-.524.988-1.282 1.434-1.889l-.524-.874c-2.652-3.173-6.452-5.398-9.41-8.336l.676-1.966z"
     class="B"
     id="path120" />
  <path
     d="M257.288 185.214c1.76 1.563 4.036 4.379 6.27 5.07l.892-.241.39-1.177c1.364 1.174 4.584 4.947 5.188 6.485-1.558-.897-3.08-2.34-4.768-2.953-1.436-.521-2.322.284-3.458.99-1.81-2.194-3.976-4.226-5.948-6.285.532-.524.988-1.282 1.434-1.889z"
     class="C"
     id="path121" />
  <path
     d="M199.837 101.992l2.221-3.016.756.23c1.59 6.714 6.076 13.164 8.656 19.641-1.188.563-1.534.519-1.966 1.807-.646 1.924-.248 4.919-.182 6.968l-1.678-3.49c-.712-2.116-4.712-10.838-5.956-12.056q-.66-.748-1.06-1.662c-.785-1.834.22-3.895.864-5.628.106-.763.114-1.308 0-2.069l-1.655-.726z"
     class="M"
     id="path122" />
  <path
     d="M201.492 104.787c.998 1.322 2.03 2.666 1.856 4.428-.106 1.069-.616 2.077-1.472 2.742-.058.045-.124.08-.188.119q-.66-.748-1.06-1.662c-.785-1.834.22-3.895.864-5.628z"
     class="J"
     id="path123" />
  <path
     d="M162.525 143.997c-.779 4.05-2.701 7.581-3.851 11.488l-2.118 6.012c-2.076 6.613-4.12 13.199-6.623 19.665l-1.076 3.025c-1.438 3.064-4.861 13.268-6.592 15.202-1.169.542-2.292 1.058-3.541 1.398-.443-.18-1.143-.342-1.443-.71-1.709-2.095-.58-7.369-.366-9.938 1.655-2.788 2.389-5.766 3.527-8.756 1.804-4.74 4.368-8.514 7.371-12.573 2.33-4.942 4.48-9.964 7.518-14.523 2.027-3.91 3.812-7.356 7.195-10.289z"
     class="E"
     id="path124" />
  <path
     d="M162.525 143.997c-.779 4.05-2.701 7.581-3.851 11.488l-2.118 6.012c-2.076 6.613-4.12 13.199-6.623 19.665-1.122-3.762 2.481-9.236 3.641-12.857.511-1.595.581-3.225 1.203-4.827.863-2.221.28-3.753-.343-5.95-2.11 1.215-4.416 8.897-5.904 11.375l-.719-.094c2.33-4.942 4.48-9.964 7.518-14.523 2.027-3.91 3.812-7.356 7.195-10.289z"
     class="C"
     id="path125" />
  <defs
     id="defs126">
    <linearGradient
       id="P"
       x1="86.818"
       y1="61.451"
       x2="94.738"
       y2="65.23"
       href="#B">
      <stop
         offset="0"
         stop-color="#ff8f64"
         id="stop125" />
      <stop
         offset="1"
         stop-color="#fbaf88"
         id="stop126" />
    </linearGradient>
  </defs>
  <path
     fill="url(#P)"
     transform="matrix(2 0 0 2 -.000244 0)"
     d="M99.919 50.996l.828.363c.057.381.053.653 0 1.034-.322.867-.825 1.897-.432 2.814q.2.457.53.831c.622.609 2.622 4.97 2.978 6.028l-.113-.058c-1.078-.62-2.582-4.005-2.98-5.216l-.179-.558c-.819.194-1.474.855-2.204 1.261-4.542 2.525-8.164 5.266-10.938 9.737-1.106 1.782-4.67 9.996-5.341 10.654-.386-.609-.478-1.314-.623-2.011-.645.057-.899.366-1.302.85-.277.332-.54.676-.804 1.018.575-1.954 1.536-3.719 1.925-5.744 2.534-5.054 6.479-10.195 10.637-13.996 2.623-2.397 5.451-4.541 8.018-7.006z"
     id="path126" />
  <defs
     id="defs128">
    <linearGradient
       id="Q"
       x1="128.212"
       y1="70.05"
       x2="120.606"
       y2="78.198"
       href="#B">
      <stop
         offset="0"
         stop-color="#db334d"
         id="stop127" />
      <stop
         offset="1"
         stop-color="#f86d85"
         id="stop128" />
    </linearGradient>
  </defs>
  <path
     fill="url(#Q)"
     transform="matrix(2 0 0 2 -.000244 0)"
     d="M153.189 99.685c1.532-.42 2.868-.085 4.415-.031l-.167-.51-.1-.005c-.19-.024-.136-.018-.307-.096-1.116-.513-2.584-.379-3.802-.69-4.678-1.195-9.184-2.438-13.572-4.497-12.893-6.049-24.421-21.615-30.908-34.083-1.245-2.392-2.135-4.955-3.249-7.409-.841-1.853-2.031-3.656-2.737-5.537-.171-.454-.527-1.21-.406-1.67l.071.139c.684 1.232 2.149 1.706 2.901 2.829 1.425 2.127 2.054 4.965 3.395 7.217 2.214 3.717 6.05 8.353 8.651 12.054 3.549 5.05 6.018 10.603 10.589 14.886 4.672 4.377 10.812 7.565 16.337 10.776 2.749 1.597 5.687 3.144 8.632 4.355 1.371.564 4.505 1.284 5.506 2.309.165.17.282.378.384.589q-2.812-.355-5.633-.626z"
     id="path128" />
  <defs
     id="defs130">
    <linearGradient
       id="R"
       x1="142.84"
       y1="119.996"
       x2="132.865"
       y2="196.239"
       href="#B">
      <stop
         offset="0"
         stop-color="#fca977"
         id="stop129" />
      <stop
         offset="1"
         stop-color="#fcddaf"
         id="stop130" />
    </linearGradient>
  </defs>
  <path
     fill="url(#R)"
     transform="matrix(2,0,0,2,-2.44e-4,0)"
     d="m 189.281,114.338 c 2.477,1.99 4.978,4.542 7.71,6.141 2.083,1.219 4.526,1.908 6.515,3.219 0.443,-0.953 -1.169,-4.997 -1.47,-6.253 4.179,5.044 8.201,13.976 7.586,20.629 -0.121,1.301 -0.257,3.066 -0.693,4.283 -0.574,1.606 -4.702,4.439 -4.161,6.197 l -0.139,0.062 -1.087,-0.12 c -0.743,1.009 -1.295,2.056 -1.857,3.17 -3.591,3.033 -10.669,5.686 -15.392,5.273 -1.453,-0.127 -4.323,-1.541 -5.463,-1.146 l -0.288,0.669 c -0.678,3.308 -2.008,6.302 -3.619,9.255 -3.989,7.309 -8.389,11.761 -15.357,16.369 -2.917,1.929 -6.355,4.463 -9.61,5.716 1.197,1.489 1.246,5.133 1.255,7.077 -4.047,-0.061 -7.095,3.79 -10.357,5.757 -3.677,2.217 -7.863,4.14 -12.125,4.857 -5.765,0.971 -9.209,-1.454 -14.024,-1.407 -0.117,-2.458 0.408,-5.106 -0.199,-7.517 -1.788,-0.483 -3.239,-1.507 -4.763,-2.513 -0.11067,-0.0273 -0.221,-0.057 -0.331,-0.089 -3.656,-1.056 -7.267,-3.268 -10.594,-5.091 -2.537,-1.39 -5.233,-2.538 -7.713,-4.014 -5.952,-3.544 -12.609,-9.351 -15.998,-15.406 0,0 -1.888437,-3.56539 -2.791454,-5.96894 -0.903016,-2.40354 -2.447603,-8.46948 -2.447603,-8.46948 l -0.707422,0.26216 c 4.793,1.362 13.132479,2.33726 18.058479,1.20026 7.43,-1.713 12.761,-5.914 16.74,-12.265 3.861,-6.897 4.916,-13.447 5.41,-21.217 3.726,-0.496 7.412,-0.486 11.158,-0.393 0.447,6.035 2.26,11.695 4.318,17.344 3.677,7.286 7.825,12.771 15.862,15.449 1.912,0.637 3.924,0.989 5.911,1.305 4.62,0.164 8.55,-0.26 13.041,-1.415 1.17728,-0.49272 2.34041,-1.0186 3.488,-1.577 9.586,-4.725 11.52,-12.158 14.751,-21.628 0.52267,-2.96667 0.85267,-5.95433 0.99,-8.963 l 3.073,-0.524 c 0.84,-0.202 1.728,-0.29 2.584,-0.417 l 0.182,-0.844 c -0.113,-1.787 -0.288,-3.519 -0.594,-5.283 0.424,-0.207 0.876,-0.082 1.341,-0.039 0.684,-0.272 0.961,-0.548 1.38,-1.134 l 0.128,-0.183 0.093,0.167 z"
     id="path130"
     sodipodi:nodetypes="ccccccccccccccsccccccccccczcccccccccccccccccccccc" />
  <path
     d="M283.654 323.378c.83-2.252.544-5.162 1.858-6.886 1.446.444 2.75 1.882 3.444 3.202.502.956.622 1.808.626 2.882-.638 1.894-2.88 3.458-4.336 4.778l-1.592-3.976z"
     class="S"
     id="path131" />
  <path
     d="M228.69 307.48c1.144-.724 1.748-.894 3.114-.634 2.32.44 4.646 1.826 6.992 1.204.202-.052.41-.082.616-.124l.436-.092c.026-.004.052.008.078.014l1.876 2.188c-.398.332-.838.634-1.342.78-3.766 1.082-9.008 1.05-12.452-.878l.682-2.458z"
     class="G"
     id="path132" />
  <path
     d="M239.926 307.848c1.288-2.826 4.658-4.63 7.436-5.746 1.646-.662 4.272-1.834 6.002-1.1-2.32 3.752-5.084 7.658-9.658 8.698-.63.142-1.264.244-1.904.336l-1.876-2.188z"
     class="I"
     id="path133" />
  <path
     d="M225.448 341.816q.624-.464 1.348-.75.724-.286 1.496-.374c3.132-.368 6.566-.008 9.736-.034 8.494-.068 18.676-.802 26.604-4.06l1.26 1.408c-12.906 4.548-26.922 6.822-40.444 3.81z"
     class="C"
     id="path134" />
  <path
     d="M297.236 313.406c9.24.328 17.1-.52 26.082-2.83-2.742 4.118-6.562 5.672-11.344 6.608-3.764.736-10.492 1.686-13.724-.722-.984-.732-.886-1.952-1.014-3.056z"
     class="G"
     id="path135" />
  <path
     d="M214.638 298.92c1.016-1.034 2.764-1.182 4.154-1.184 2.588-.006 4.72 1.936 6.37 3.708 1.66 1.784 2.644 3.792 3.528 6.036l-.682 2.458c-1.582.11-3.162.264-4.65-.392-4.532-1.998-7.048-6.184-8.72-10.626z"
     class="S"
     id="path136" />
  <path
     d="M367.922 245.192c1.68-.404 3.456-.58 5.168-.834 2.244.736 3.466 1.828 5.172 3.35.346.308.204.202.656.404 2.416 2.53 3.436 5.872 3.388 9.358-.008.696-.168 1.38-.374 2.042.99 1.83 1.3 3.09.862 5.2-.424-3.424-3.438-6.398-5.78-8.828-2.48-2.574-3.4-3.338-6.98-3.386-1.676-.022-2.702-.946-3.992-1.91-1.236.212-2.39.074-3.118 1.202-2.34 3.634.2 8.744-3.128 12.376q1.568-8.9 1.98-17.926l6.146-1.048z"
     class="J"
     id="path137" />
  <path
     d="M367.922 245.192c1.68-.404 3.456-.58 5.168-.834 2.244.736 3.466 1.828 5.172 3.35.346.308.204.202.656.404 2.416 2.53 3.436 5.872 3.388 9.358-.008.696-.168 1.38-.374 2.042-3.31-3.958-7.138-7.576-10.952-11.04-1.094-.96-2.07-2.202-3.058-3.28z"
     class="I"
     id="path138" />
  <defs
     id="defs139">
    <linearGradient
       id="S"
       x1="160.099"
       y1="170.404"
       x2="170.237"
       y2="176.18"
       href="#B">
      <stop
         offset="0"
         stop-color="#d38e55"
         id="stop138" />
      <stop
         offset="1"
         stop-color="#e3776c"
         id="stop139" />
    </linearGradient>
  </defs>
  <path
     fill="url(#S)"
     transform="matrix(2 0 0 2 -.000244 0)"
     d="M149.996 187.057c7.199-4.343 14.838-8.784 20.094-15.51 2.877-3.681 4.912-7.863 7.529-11.712.883-1.299 2.014-2.156 2.923-3.373-.678 3.308-2.008 6.302-3.619 9.255-3.989 7.309-8.389 11.761-15.357 16.369-2.917 1.929-6.355 4.463-9.61 5.716l-.174-.03c-.8-.051-1.159-.233-1.786-.715z"
     id="path139" />
  <defs
     id="defs141">
    <linearGradient
       id="T"
       x1="119.839"
       y1="161.489"
       x2="119.989"
       y2="167.744"
       href="#B">
      <stop
         offset="0"
         stop-color="#a52508"
         id="stop140" />
      <stop
         offset="1"
         stop-color="#e1452a"
         id="stop141" />
    </linearGradient>
  </defs>
  <path
     fill="url(#T)"
     transform="matrix(2 0 0 2 -.000244 0)"
     d="M103.623 166.867c-1.613-.853-3.194-1.753-4.547-2.993-.718-.659-1.86-1.788-1.909-2.815.128-.062.242-.191.384-.186.371.012 4.673 2.347 5.718 2.696 9.401 3.133 29.473 2.701 38.558-1.88.26.661.5 1.343.796 1.988a40.96 40.96 0 0 1-9.677 5.326l-.63-.704c-3.964 1.629-9.055 1.996-13.302 2.03-1.585.013-3.302-.167-4.868.017q-.386.044-.748.187-.362.143-.674.375c-3.092-.349-6.516-2.416-9.101-4.041z"
     id="path141" />
  <defs
     id="defs143">
    <linearGradient
       id="U"
       x1="119.561"
       y1="164.948"
       x2="120.092"
       y2="170.014"
       href="#B">
      <stop
         offset="0"
         stop-color="#df5c43"
         id="stop142" />
      <stop
         offset="1"
         stop-color="#fd7c60"
         id="stop143" />
    </linearGradient>
  </defs>
  <path
     fill="url(#U)"
     transform="matrix(2 0 0 2 -.000244 0)"
     d="M103.623 166.867c1.391-.897 2.697-.546 4.246-.213l6.757 1.446c7.398.888 15.675-.978 22.945-2.346-1.679 1.032-3.358 1.97-5.255 2.545-3.964 1.629-9.055 1.996-13.302 2.03-1.585.013-3.302-.167-4.868.017q-.386.044-.748.187-.362.143-.674.375c-3.092-.349-6.516-2.416-9.101-4.041z"
     id="path143" />
  <path
     d="M299.992 374.114c1.254.964 1.972 1.328 3.572 1.43l.348.06c2.394 2.978 2.492 10.266 2.51 14.154-8.094-.122-14.19 7.58-20.714 11.514-7.354 4.434-15.726 8.28-24.25 9.714-11.53 1.942-18.418-2.908-28.048-2.814-.234-4.916.816-10.212-.398-15.034-3.576-.966-6.478-3.014-9.526-5.026q10.308 1.21 20.65 2.088c3.666.026 7.442-.364 11.094-.714 15.582-3.21 30.108-9.308 44.762-15.372z"
     class="I"
     id="path144" />
  <path
     d="M255.23 389.486c3.312-.106 5.934-.052 9.058 1.23-2.7.514-6.42.512-8.856 1.514-2.97-1.868-5.39-1.632-8.748-1.432-1.036.008-1.65-.064-2.548-.598 3.666.026 7.442-.364 11.094-.714z"
     class="C"
     id="path145" />
  <path
     d="M299.992 374.114c1.254.964 1.972 1.328 3.572 1.43-12.266 6.65-25.792 11.6-39.276 15.172-3.124-1.282-5.746-1.336-9.058-1.23 15.582-3.21 30.108-9.308 44.762-15.372z"
     class="J"
     id="path146" />
  <defs
     id="defs147">
    <linearGradient
       id="V"
       x1="111.584"
       y1="151.437"
       x2="124.788"
       y2="124.619"
       href="#B">
      <stop
         offset="0"
         stop-color="#ff8152"
         id="stop146" />
      <stop
         offset="1"
         stop-color="#f1a173"
         id="stop147" />
    </linearGradient>
  </defs>
  <path
     fill="url(#V)"
     transform="matrix(2 0 0 2 -.000244 0)"
     d="M111.369 122.998c3.726-.496 7.412-.486 11.158-.393.447 6.035 2.26 11.695 4.318 17.344l-.41.132c.306.746 1.111 1.933 1.247 2.646.202 1.061-.396 2.986-.401 4.193l-.22.246c-1.129-1.645.467-4.075-1.26-5.422-.339.505-.046 1.451.072 2.06.276 1.417 1.575 5.427.809 6.697-.865-.367-2.178.219-3.001.55-1.389.558-3.074 1.46-3.718 2.873-.013-.003-.026-.009-.039-.007-.073.011-.145.031-.218.046-.103.021-.207.036-.308.062-1.173.311-2.336-.382-3.496-.602-.683-.13-.985-.045-1.557.317-.442-1.122-.934-2.126-1.764-3.018-.825-.886-1.891-1.857-3.185-1.854-.695.001-1.569.075-2.077.592-.563-1.664-.174-3.196-.616-4.751-.059-.208-.544-.386-.744-.494 3.861-6.897 4.916-13.447 5.41-21.217z"
     id="path147" />
  <defs
     id="defs149">
    <linearGradient
       id="W"
       x1="184.654"
       y1="127.854"
       x2="203.567"
       y2="147.761"
       href="#B">
      <stop
         offset="0"
         stop-color="#9f151d"
         id="stop148" />
      <stop
         offset="1"
         stop-color="#f0643b"
         id="stop149" />
    </linearGradient>
  </defs>
  <path
     fill="url(#W)"
     transform="matrix(2 0 0 2 -.000244 0)"
     d="M189.281 114.338c2.477 1.99 4.978 4.542 7.71 6.141 2.083 1.219 4.526 1.908 6.515 3.219.443-.953-1.169-4.997-1.47-6.253 4.179 5.044 8.201 13.976 7.586 20.629-.121 1.301-.257 3.066-.693 4.283-.574 1.606-4.702 4.439-4.161 6.197l-.139.062-1.087-.12c-.743 1.009-1.295 2.056-1.857 3.17l-.537-1.44c-.644-.891-1.398-1.839-1.846-2.844-.442-.991-.58-2.925-1.343-3.613-1.213-.314-2.848-.058-4.011.373-.715.67-1.492 1.767-1.514 2.777-.004.165.743.695.926.897-.946.634-4.387.019-5.451-.384-.794-.301-1.153-.779-2.057-.942-.092-.152-.101-.154-.174-.35-1.402-3.813 4.21-10.284 5.719-13.784.219-1.055.064-1.685-.431-2.6.103-.331.183-.673.187-1.021.024-1.743-.486-3.414-1.694-4.679-.226-.101-.155-.048-.328-.202-.853-.761-1.464-1.307-2.586-1.675l.182-.844c-.113-1.787-.288-3.519-.594-5.283.424-.207.876-.082 1.341-.039.684-.272.961-.548 1.38-1.134l.128-.183.093.167.206-.525z"
     id="path149" />
  <path
     d="M400.59 255.056c4.134 2.992 7.324 6.862 9.856 11.286-.81.724-2.164 1.888-3.192 2.204-.958.294-1.06.14-1.88-.326-1.178-3.144-4.92-6.894-5.382-8.8-.414-1.702-.21-2.864.598-4.364z"
     class="I"
     id="path150" />
  <path
     d="M371.704 292.98c5.62-1.344 6.722-4.706 11.216-6.656l1.086.984c4.938-2.956 9.692-6.624 15.752-6.368.956 3.834-2.592 6.17-1.61 9.902.686 2.598 4.928 7.52 4.148 9.61-1.288-1.782-2.796-3.678-3.692-5.688-.884-1.982-1.16-5.85-2.686-7.226-2.426-.628-5.696-.116-8.022.746-1.43 1.34-2.984 3.534-3.028 5.554-.008.33 1.486 1.39 1.852 1.794-1.892 1.268-8.774.038-10.902-.768-1.588-.602-2.306-1.558-4.114-1.884z"
     class="J"
     id="path151" />
  <path
     d="M378.562 228.676c4.954 3.98 9.956 9.084 15.42 12.282 4.166 2.438 9.052 3.816 13.03 6.438.886-1.906-2.338-9.994-2.94-12.506 8.358 10.088 16.402 27.952 15.172 41.258-.242 2.602-.514 6.132-1.386 8.566-1.148 3.212-9.404 8.878-8.322 12.394l-.278.124-2.174-.24c-.358-.314-.248-.282-.59-.414-.602-.232-.922-.382-1.412-.844-2.136-7.322 5.016-15.808 6.304-23.052.384-2.16.36-4.49-.94-6.34-2.532-4.424-5.722-8.294-9.856-11.286-.734-.462-1.486-.914-2.274-1.282-2.922-1.36-6.612-1.06-9.654-2.208-2.098-.792-3.496-2.746-5.53-3.648-.068-.03-.136-.056-.204-.084q-1.604-.51-3.198-1.054c-.57.526-.626.584-.812 1.332-.452-.202-.31-.096-.656-.404-1.706-1.522-2.928-2.614-5.172-3.35l.364-1.688c-.226-3.574-.576-7.038-1.188-10.566.848-.414 1.752-.164 2.682-.078 1.368-.544 1.922-1.096 2.76-2.268l.256-.366.186.334.412-1.05z"
     class="C"
     id="path152" />
  <path
     d="M378.562 228.676c4.954 3.98 9.956 9.084 15.42 12.282 4.166 2.438 9.052 3.816 13.03 6.438.346.51.728 1.042.996 1.602.51 1.054.67 1.6.286 2.696-5.622 1.394-22.56-9.498-27.576-13.19-1.642-1.208-2.932-2.762-4.648-3.904-.606-.404-1.174-.588-1.904-.606l-.692.75c-.918 7.054 4.16 6.58 6.576 10.642l2.878 2.448q-1.604-.51-3.198-1.054c-.57.526-.626.584-.812 1.332-.452-.202-.31-.096-.656-.404-1.706-1.522-2.928-2.614-5.172-3.35l.364-1.688c-.226-3.574-.576-7.038-1.188-10.566.848-.414 1.752-.164 2.682-.078 1.368-.544 1.922-1.096 2.76-2.268l.256-.366.186.334.412-1.05z"
     class="E"
     id="path153" />
  <path
     d="M373.454 242.67c2.566.56 4.47 1.048 6.596 2.716l2.878 2.448q-1.604-.51-3.198-1.054c-.57.526-.626.584-.812 1.332-.452-.202-.31-.096-.656-.404-1.706-1.522-2.928-2.614-5.172-3.35l.364-1.688z"
     class="H"
     id="path154" />
</svg>
