<svg xmlns="http://www.w3.org/2000/svg" width="500" height="500" xmlns:v="https://vecta.io/nano"><style><![CDATA[.B{fill:#f19363}.C{fill:#ea774b}.D{fill:#ce7049}.E{fill:#c04932}.F{fill:#c35731}.G{fill:#a82218}.H{fill:#0e060a}.I{fill:#f49f94}.J{fill:#240e0d}.K{fill:#eb4137}.L{fill:#f2776a}.M{fill:#efb590}.N{fill:#f1ece9}.O{fill:#9a1f19}.P{fill:#4f1a0a}.Q{fill:#f24b49}.R{fill:#a14118}.S{fill:#b17f53}.T{fill:#e2322c}.U{fill:#3e2d2b}.V{fill:#976c52}.W{fill:#4e312c}.X{fill:#644028}.Y{fill:#844a26}.Z{fill:#631811}.a{fill:#f2dec5}]]></style><path d="M110.671 136.012c1.78-1.091 3.01-2.385 5.122-1.996q-1.873 9.397-4.028 18.734l1.75.034c-3.636 16.809-5.016 33.989-5.841 51.129l-2.737 1.756c-.422 5.024-1.102 10.17-1 15.21-1.065 8.248-.499 17.114-.463 25.442q.009 20.478 1.27 40.916l4.289 54.042c.729 11.878.16 23.468.226 35.33.072 13.024 1 26.064.788 39.086-.178 10.946-1.413 21.932-2.115 32.86-1.442 17.128-2.848 34.644-6.627 51.446h-4.909q4.271-24.512 5.838-49.344c.471-8.328.359-16.712.708-25.058.822-19.686 1.575-39.892.925-59.582-2.499-75.692-12.779-155.784 6.805-230.004z" class="H"/><path fill="#c4bfc5" d="M111.766 152.749l1.75.034c-3.636 16.809-5.016 33.989-5.841 51.129l-2.737 1.756c.344-17.52 3.872-35.645 6.828-52.919z"/><path d="M114.143 123.405c8.422-31.219 34.57-60.225 62.184-76.107 6.801-3.912 14.132-6.738 21.528-9.295 23.3-8.056 45.45-10.066 69.934-10.226 16.43-.107 32.806.603 48.742 4.946 7.92 2.158 14.948 5.709 22.21 9.442 5.016 2.579 10.23 5.061 14.996 8.075 18.614 11.772 35.092 29.118 45.948 48.266 10.926 19.268 16.682 44.575 20.262 66.284l-2.456.275c-.912-7.954-3.364-16.801-5.606-24.494l-1.42.748-1.034-.445c-1.558-2.358-2.016-5.529-2.788-8.238-.792-3.022-2.332-6.094-3.522-8.989l-2.11-4.687c-1.29-3.164-2.882-6.262-4.324-9.364-9.262-15.006-20.84-31.854-34.502-43.058-7.664-6.286-16.662-11.579-24.878-17.178-20.142-10.643-41.572-13.771-64.094-13.405-6.634.108-13.462 1.017-20.074.569l-.454-.033c-7.996.248-16.13.247-24.074 1.217-29.902 3.651-52.795 17.696-73.1 39.308-10.57 11.251-22.798 24.544-29.358 38.624-3.007 6.455-4.972 13.52-7.196 20.285-1.831 5.57-4.049 11.163-5.441 16.857l-1.75-.034q2.154-9.337 4.028-18.734c-2.112-.389-3.342.905-5.122 1.996.644-4.22 2.078-8.571 3.472-12.607zm0 0c-1.394 4.036-2.828 8.387-3.472 12.607 1.78-1.091 3.01-2.385 5.122-1.996 1.175-3.861 2.169-7.785 3.219-11.682-.077.057-.158.109-.232.17-2.193 1.794-1.635 5.363-3.498 7.471-.637-.346-.744-.355-.978-1.076-.63-1.945.008-3.584-.162-5.493z" class="H"/><path fill="#aaa7a6" d="M403.288 116.738l2 4.815-2.168 2.094-2.11-4.687 2.278-2.223z"/><path fill="#c4bfc5" d="M399.322 107.874c1.496 2.887 2.728 5.859 3.966 8.863l-2.278 2.223c-1.29-3.164-2.882-6.262-4.324-9.364 1.134.655 1.768 1.727 2.514 2.77.704-1.331.258-2.998.122-4.493z"/><path fill="#938f8e" d="M405.288 121.552c1.112 3.054 2.048 6.539 3.524 9.415l-2.17 1.668c-.792-3.022-2.332-6.094-3.522-8.989.662-.74 1.446-1.409 2.168-2.094z"/><path fill="#534a45" d="M408.812 130.968q1.656 4.764 3.072 9.603l-1.42.748-1.034-.445c-1.558-2.358-2.016-5.529-2.788-8.238l2.17-1.668z"/><path fill-opacity=".988" d="M114.143 123.405c.17 1.908-.468 3.547.162 5.493.234.722.341.731.978 1.076 1.863-2.107 1.305-5.676 3.498-7.471.074-.061.154-.113.232-.17l-3.219 11.682c-2.112-.389-3.342.905-5.122 1.996.644-4.22 2.078-8.571 3.472-12.607z" class="H"/><defs><linearGradient id="A" x1="149.586" y1="16.719" x2="148.206" y2="21.927" href="#B"><stop offset="0" stop-color="#d8bdb5"/><stop offset="1" stop-color="#cfb69a"/></linearGradient><linearGradient id="B" gradientUnits="userSpaceOnUse"/></defs><path fill="url(#A)" transform="scale(2)" d="M117.419 16.472c3.985-.43 8.153-.364 12.164-.424 11.705-.174 22.616-.062 33.688 4.422 2.002.811 4.278 1.702 6.1 2.857-.248.447-.504.889-.718 1.353-10.071-5.322-20.786-6.885-32.047-6.703-3.317.054-6.731.508-10.037.284l-.227-.017c.898-1.013 3.741-.198 5.052-.589-.045-.054-.088-.11-.135-.162-1.09-1.183-11.482-.821-13.84-1.023z"/><defs><linearGradient id="C" x1="187.323" y1="37.305" x2="183.461" y2="41.505" href="#B"><stop offset="0" stop-color="#e6cbbb"/><stop offset="1" stop-color="#f1eee6"/></linearGradient></defs><path fill="url(#C)" transform="scale(2)" d="M169.371 23.327c2.577 1.343 4.937 3.022 7.313 4.687 7.953 5.574 14.196 11.762 19.567 19.869 1.117 1.686 2.751 3.917 3.349 5.843l.061.211c.068.747.291 1.581-.061 2.246-.373-.522-.69-1.058-1.257-1.385-4.631-7.503-10.42-15.927-17.251-21.529-3.832-3.143-8.331-5.789-12.439-8.589.214-.464.47-.907.718-1.353z"/><path d="M119.012 122.333c6.666-19.428 15.958-35.43 30.464-50.124 22.169-22.455 53.389-39.043 85.361-39.265 4.716.402 25.5-.321 27.68 2.045.094.103.18.216.27.324-2.622.782-8.308-.849-10.104 1.178-7.996.248-16.13.247-24.074 1.217-29.902 3.651-52.795 17.696-73.1 39.308-10.57 11.251-22.798 24.544-29.358 38.624-3.007 6.455-4.972 13.52-7.196 20.285-1.831 5.57-4.049 11.163-5.441 16.857l-1.75-.034q2.154-9.337 4.028-18.734c1.175-3.861 2.169-7.785 3.219-11.682z" class="N"/><defs><linearGradient id="D" x1="51.016" y1="239.488" x2="217.462" y2="69.44" href="#B"><stop offset="0" stop-color="#291c1c"/><stop offset="1" stop-color="#47312f"/></linearGradient></defs><path fill="url(#D)" transform="scale(2)" d="M126.342 18.245l.227.017c3.306.224 6.72-.23 10.037-.284 11.261-.183 21.976 1.381 32.047 6.703 4.108 2.8 8.607 5.446 12.439 8.589 6.831 5.602 12.62 14.026 17.251 21.529.721 1.551 1.517 3.1 2.162 4.682l1.055 2.343c.595 1.447 1.365 2.984 1.761 4.495.386 1.354.615 2.94 1.394 4.119l.517.222.71-.374c1.121 3.847 2.347 8.27 2.803 12.247l1.228-.137q.508 2.704.932 5.423c4.252 29.265 3.617 58.899 3.708 88.398l.319 21.516q-.337 17.709-1.961 35.347c-.479 5.531-.655 11.492-1.786 16.92h-7.604-4.017-3.214c-1.046-5.55-2.611-8.98-6.623-13.014l.015-.126c.296-.111.417-.271.622-.502.676-3.943.065-8.863.194-12.944q.882-25.992-1.352-51.903c-.506-5.956-1.371-11.885-1.981-17.832-1.123-10.952-2.1-22.137-4.092-32.965-.617-3.354-1.726-6.617-2.446-9.952-1.11-5.143-1.99-10.17-3.578-15.211q-1.731-5.397-3.953-10.612-2.222-5.214-4.916-10.201c-1.49-2.701-5.642-7.165-5.983-10.065-.248-2.108 2.015-1.473 2.964-2.734-.785-.648-1.744-1.11-2.56-1.735-1.957-1.502-3.615-3.263-5.267-5.088l-1.206-1.295c-1.636-1.248-2.842-3.261-4.413-4.646-4.922-4.34-13.273-7.558-19.901-6.931-.725.069-.885.216-1.361.759-1.204 1.531-5.251.931-7.232 4.848l.325.632-.285-.084-.105-.594.063.558.33.211c-1.123.919-2.393 1.825-3.4 2.862.5.465.884.89 1.596.983-2.017.713-3.98 1.211-6.114 1.424-.666.162-1.952.628-2.559.261-.034-.02-.064-.045-.097-.068q-1.499-.135-2.996-.294c-6.346-1.721-13.424-1.018-19.155 2.253-9.147 5.221-15.566 15.827-18.278 25.829l-.046.172-.199.647c-2.331 6.387-5.372 13.565-5.338 20.472-.797 4.899-1.084 16.075-.728 21.053l-.126 11.654c-.022 5.344-.142 10.707.508 16.021.374 3.354.982 6.643 1.715 9.937 1.334 3.749 2.817 7.167 4.728 10.666 2.93 4.404 7.113 9.128 11.793 11.748 1.864 2.034 6.04 4.679 8.549 5.715 1.085.232 1.939.471 2.998-.014l1.246.762c.805.952 1.343 2.047 2.115 2.997 1.273.732 2.599 1.651 3.932 2.244 1.983 1.221 7.991 4.498 10.149 4.824 1.112 4.069.322 7.921.011 12.034-.403 2.053-.913 4.353-2.763 5.603-.224.151-.454.29-.688.426 3.052 4.426 7.716 7.205 12.346 9.734 1.15.628 2.527 1.173 3.597 1.893l-.252.785c.366.118.956.222 1.257.443q.877 1.973 2.059 3.78 1.182 1.808 2.637 3.403c1.222 1.717 2.602 3.843 4.385 5.017l-.044.149c.516.346 1.173.92 1.779 1.047l.06.159.545.193c.543.437 1.219.851 1.37 1.572-.187 1.122-1.271 1.764-1.51 3.039h-.162-3.905-12.351-2.208-3.925-15.756-3.926-.455-12.959-2.116-5.538-4.771-10.152-9.812c1.889-8.401 2.593-17.159 3.313-25.723.351-5.464.968-10.957 1.058-16.43.106-6.511-.358-13.031-.394-19.543-.033-5.931.252-11.726-.113-17.665-.554-9.024-1.546-18.004-2.145-27.021q-.631-10.219-.635-20.458c-.018-4.164-.301-8.597.232-12.721-.051-2.52.289-5.093.5-7.605l1.369-.878c.413-8.57 1.103-17.16 2.92-25.565.696-2.847 1.805-5.643 2.72-8.428 1.112-3.382 2.094-6.915 3.598-10.143 3.28-7.04 9.394-13.687 14.679-19.312 10.152-10.806 21.599-17.828 36.55-19.654 3.972-.485 8.039-.485 12.037-.609z"/><path d="M156.82 129.868l.706.107-.412.717-.556-.149.262-.675zm-1.777 1.985l.198.268c.44.704.343 1.276.15 2.036l-.189.717c-.205 1.197-.969 1.916-1.725 2.836l-.863.626-.744-.189c.048-2.402 1.744-4.499 3.173-6.294z" class="J"/><path d="M417.49 165.065l2.456-.275q1.016 5.409 1.864 10.847c-.82-.303-1.494-.65-2.222-1.136-1.452-3.071-1.712-6.117-2.098-9.436z" class="U"/><path fill="#785b50" d="M207.558 95.103c.31-.277.772-.865 1.186-.854 4.044.106 8.658 5.378 12.454 6.866l.162.325c-.968.308-1.65.51-2.372 1.243-4.05-2.088-7.358-5.414-11.43-7.579z"/><path d="M221.198 101.115l1.484-.34c-.34-.573-.634-.968-1.122-1.435l.53-.227c6.06 3.302 10.192 6.131 17.408 4.045q.462-.134.92-.28c1 .93 1.768 1.78 3.192 1.966-4.034 1.426-7.96 2.422-12.228 2.847-1.332.324-3.904 1.256-5.118.522-.068-.041-.128-.09-.194-.136.12-.379.022-.674-.036-1.06-2.008-1.906-4.616-3.06-7.046-4.334.722-.733 1.404-.935 2.372-1.243l-.162-.325z" class="P"/><path d="M221.36 101.439c3.42 1.751 7.416 3.35 10.022 6.25-1.332.324-3.904 1.256-5.118.522-.068-.041-.128-.09-.194-.136.12-.379.022-.674-.036-1.06-2.008-1.906-4.616-3.06-7.046-4.334.722-.733 1.404-.935 2.372-1.243z" class="S"/><path d="M347.642 99.137c2.642-2.029 10.206-.971 13.708-1.502 6.116-.928 12.92-5.121 19.17-4.361.56.068.894.416 1.346.737.048 1.119.17 1.384-.6 2.274-2.648 3.065-19.236 6.008-23.554 6.119-2.156.055-4.224-.728-6.324-.075-1.314-.884-2.542-2.149-3.746-3.192z" class="D"/><defs><linearGradient id="E" x1="151.843" y1="36.106" x2="148.193" y2="47.21" href="#B"><stop offset="0"/><stop offset="1" stop-color="#3b1e21"/></linearGradient></defs><path fill="url(#E)" transform="scale(2)" d="M125.459 40.373l-.556-.552c.014-.268-.04-.36.148-.564.745-.804 1.24-1.792 1.992-2.576 2.493-2.602 6.368-2.763 9.741-2.919 13.002-.598 25.451 5.265 34.935 13.928.605.553 1.248 1.093 1.753 1.741-.476.368-.982.933-1.581.988-.17-.757-.226-.897-.753-1.462-3.321-3.241-7.722-5.709-11.811-7.882-7.296-3.876-14.95-7.232-23.413-6.132-1.602.208-3.285.461-4.761 1.142-1.753.81-4.82 4.059-5.569 4.259-.041.011-.083.018-.125.027z"/><path d="M131.749 167.637c1.845-9.43 15.854-51.269 20.922-58.744 4.476-6.602 11.312-12.05 17.864-16.469 9.697-6.541 22.568-13.07 34.661-10.694 2.154.423 4.292 1.03 6.412 1.602-4.13.209-8.412-1.537-12.604-1.565-10.621-.071-26.557 9.331-34.566 16.18l.406 1.349.146-.002-1.165-.75-.194.542.354.498c3.714.534 14.398-7.954 17.987-10.08 1.963-1.163 4.256-1.638 6.217-2.837s8.925-2.681 11.056-2.07c.066.019.13.043.194.065l-.432.541-.272-.937-.187 1.078c-2.675.449-5.873.731-8.426 1.6-3.755 1.278-7.658 3.806-11.095 5.796-9.197 5.325-17.56 9.944-23.851 18.768-5.99 8.402-7.487 17.513-10.621 27.081-1.32 4.03-3.231 7.954-4.447 11.969-1.077 3.555-.146 5.432-2.841 8.54-1.858 2.142-4.662 5.994-5.224 8.751l-.293-.21z" class="J"/><path d="M132.042 167.847c.264 1.772-.256 4.205-.273 6.07l1.211-.305c.809.325 3.46.986 3.982 1.468.811.748.3 3.14 1.722 4.322l.683-.217c1.075-5.199 2.749-9.971 4.718-14.903l.639 1.005c-4.663 12.774-10.744 27.129-10.677 40.945-1.595 9.798-2.167 32.15-1.456 42.106l-.252 23.308c-1.064 1.12-.612 4.396-.587 5.906l-.223-.188c-.145-6.796.088-13.586-.12-20.386l-1.518-.784c-2.195-3.71-.603-28.836-.646-35.082-.03-4.372-.571-8.776-.575-13.208-.075 1.774.264 4.086-.913 5.414-.092-.134-.191-.262-.276-.4-2.575-4.178 2.758-38.872 4.268-45.281l.293.21z" class="H"/><path d="M144.085 164.282q2.088-6.171 4.396-12.264c6.337-16.522 18.725-34.735 35.39-42.137l-.35-.71a3.42 3.42 0 0 0-.979-.439c-.413-.114-.85-.205-1.248-.365-1.204-.484-1.339-.727-1.776-1.867.462-1.527 1.219-1.897 2.42-2.915l-.203-.565c-1.234-.237-2.137.097-3.205.691-6.684 3.721-18.501 17.648-22.854 24.33-3.87 5.94-7.347 12.609-9.426 19.381-.462 1.503-4.01 9.733-5.183 10.393.122-2.487 2.326-5.68 3.34-8.006 3.096-7.098 4.785-12.446 8.884-19.331 6.907-11.599 19.993-26.763 32.385-32.334 5.461-2.455 11.585-3.628 17.371-5.096 1.484.812 2.884 1.573 4.512 2.054 4.072 2.165 7.38 5.491 11.43 7.579 2.43 1.274 5.038 2.428 7.046 4.334.058.386.156.681.036 1.06q-2.998-.27-5.992-.589c-12.692-3.442-26.848-2.036-38.309 4.505-18.295 10.441-31.131 31.655-36.555 51.657l-.091.344-.399 1.293-.639-1.005z" class="J"/><g class="N"><path d="M107.931 448.554c.388.704 1.015 1.166 1.613 1.684 1.395.066 2.801.112 4.189-.07 9.137-1.198 3.311-4.254 6.013-7.75l.855.302c1.038 19.02.452 38.234.327 57.28h-19.624c3.779-16.802 5.185-34.318 6.627-51.446z"/><path d="M104.938 205.668l2.737-1.756-.337 14.22c.187 26.89-.468 54.038 1.967 80.848 3.412 37.582 8.245 74.954 10.122 112.664.505 10.148 1.686 20.946 1.175 31.076l-.855-.302c-2.703 3.496 3.124 6.552-6.013 7.75-1.388.182-2.794.136-4.189.07-.598-.518-1.224-.98-1.613-1.684.703-10.928 1.937-21.914 2.115-32.86.212-13.022-.716-26.062-.788-39.086-.066-11.862.504-23.452-.226-35.33-1.109-18.048-3.091-36.008-4.289-54.042q-1.261-20.438-1.27-40.916c-.036-8.328-.602-17.194.463-25.442-.102-5.04.579-10.186 1-15.21z"/></g><path d="M250.918 80.747l.25-.053c1.498-.401 7.632-6.899 11.138-8.518 2.952-1.363 6.318-1.869 9.522-2.285 16.926-2.198 32.234 4.512 46.826 12.265 8.178 4.345 16.98 9.281 23.622 15.763 1.054 1.129 1.166 1.41 1.506 2.923 1.198-.11 2.21-1.239 3.162-1.976l.698.271c1.204 1.043 2.432 2.308 3.746 3.192l.304.942-2.468.86-3.044-2.072c-.086 1.447-.074 1.64-.96 2.768l-1.682 1.325c1.302 5.464 8.25 14.819 11.784 19.28-1.682 2.022-7.74 2.555-10.346 2.803-1.598.152-3.302.345-4.896.168-.702-.084-1.414-.158-2.112-.284-1.506-.275-1.624-.413-2.494-1.64l-2.99-.877-2.042-1.722c-1.57-1.295-3.488-2.219-5.12-3.47-3.914-3.004-7.23-6.527-10.534-10.175l-2.412-2.591c-3.272-2.495-5.684-6.522-8.826-9.292-9.844-8.681-26.546-15.117-39.802-13.861-1.45.137-1.77.433-2.722 1.518-.08-.457-.17-.986-.62-1.256-3.142-1.889-6.364-1.141-9.488-4.005z" class="U"/><path d="M342.276 97.918c1.054 1.129 1.166 1.41 1.506 2.923 1.198-.11 2.21-1.239 3.162-1.976l.698.271c1.204 1.043 2.432 2.308 3.746 3.192l.304.942-2.468.86-3.044-2.072c-.086 1.447-.074 1.64-.96 2.768l-1.682 1.325c-6.166 1.726-13.136 4.301-19.5 2.738-1.508.154-3.166.191-4.592.702-1.502.477-3.096.519-4.658.642l-2.412-2.591c3.284-2.862 19.776-2.886 25.686-4.974l-.228-.443c1.092-.448 3.018-.87 3.842-1.572.792-.677.572-1.759.6-2.735z" class="V"/><path d="M342.276 97.918c1.054 1.129 1.166 1.41 1.506 2.923 1.198-.11 2.21-1.239 3.162-1.976l.698.271c1.204 1.043 2.432 2.308 3.746 3.192l.304.942-2.468.86-3.044-2.072c-2.868-.169-5.292.016-8.118.611l-.228-.443c1.092-.448 3.018-.87 3.842-1.572.792-.677.572-1.759.6-2.735z" class="J"/><defs><linearGradient id="F" x1="171.89" y1="64.413" x2="167.482" y2="53.148" href="#B"><stop offset="0" stop-color="#623f32"/><stop offset="1" stop-color="#845745"/></linearGradient></defs><path fill="url(#F)" transform="scale(2)" d="M162.019 54.445c3.182.782 6.667-.506 9.75-1.369.651 2.732 4.125 7.409 5.892 9.64-.841 1.011-3.87 1.278-5.173 1.402-.799.076-1.651.172-2.448.084-.351-.042-.707-.079-1.056-.142-.753-.137-.812-.207-1.247-.82l-1.495-.438-1.021-.861c-.785-.648-1.744-1.11-2.56-1.735-1.957-1.502-3.615-3.263-5.267-5.088.781-.061 1.578-.083 2.329-.321.713-.256 1.542-.274 2.296-.351z"/><path fill="#785b50" d="M319.446 109.592c1.426-.511 3.084-.548 4.592-.702l1.432 3.011c.654.975 1.3 2.181 2.19 2.948 2.132 1.345 4.28 2.601 6.038 4.433.044.68.054.973-.316 1.555 1.256 1.237 2.266 1.915 2.778 3.62-.206.68-.378 1.38-.686 2.021l-2.99-.877-2.042-1.722c-1.57-1.295-3.488-2.219-5.12-3.47-3.914-3.004-7.23-6.527-10.534-10.175 1.562-.123 3.156-.165 4.658-.642z"/><path d="M327.66 114.849c2.132 1.345 4.28 2.601 6.038 4.433.044.68.054.973-.316 1.555q-.316-.073-.63-.151c-3.768-.934-4.528-2.172-6.442-5.349l1.35-.488z" class="W"/><path d="M319.446 109.592c1.426-.511 3.084-.548 4.592-.702l1.432 3.011c.654.975 1.3 2.181 2.19 2.948l-1.35.488c-1.856-.77-3.11-1.781-4.588-3.129-.81-.802-1.53-1.751-2.276-2.617z" class="X"/><path d="M346.18 102.058l3.044 2.072 2.468-.86c7.928 6.97 13.926 16.031 19.328 25.034 16.368 27.28 22.69 48.903 28.046 79.854 1.982 11.456 3.856 23.082 4.608 34.696.878 13.528 1.002 27.086 1.43 40.632l2.094 67.824 2.82 90.71c.076 19.376-3.558 38.606-2.856 57.98h-8.034c1.176-11.086 2.872-22.09 3.704-33.218 1.314-17.576 1.276-35.568 1.118-53.182-.19-21.274-2.66-42.252-3.978-63.448l-1.694-33.066q-3.538-50.834-11.962-101.09c-2.134-12.198-3.964-24.58-7.368-36.502-3.36-11.768-8.346-23.749-13.244-34.962-2.68-6.136-5.556-14.362-10.382-19.101-3.534-4.462-10.482-13.816-11.784-19.28l1.682-1.325c.886-1.128.874-1.321.96-2.768z" class="H"/><path d="M346.18 102.058l3.044 2.072 2.176 3.28c-.798.726-1.554 1.182-2.526 1.646-1.092-1.685-2.078-2.978-3.654-4.23.886-1.128.874-1.321.96-2.768z" class="X"/><path d="M351.4 107.411c5.244 5.535 8.95 12.25 13.332 18.426-2.908-2.768-4.508-6.27-7.382-9.038l-1.14 1.068c.026 3.593 5.576 7.044 5.646 10.61-1.198-1.205-12.024-17.356-12.982-19.42.972-.464 1.728-.919 2.526-1.646z" class="W"/><path d="M330.442 123.88l2.042 1.722 2.99.877c.87 1.227.988 1.365 2.494 1.64l2.112.284c1.594.177 3.298-.016 4.896-.168 2.606-.248 8.664-.781 10.346-2.803 4.826 4.739 7.702 12.965 10.382 19.101 4.898 11.213 9.884 23.194 13.244 34.962 3.404 11.921 5.234 24.304 7.368 36.502q8.424 50.256 11.962 101.09c.78 11.006 1.01 22.054 1.694 33.066 1.318 21.196 3.788 42.174 3.978 63.448.158 17.614.196 35.606-1.118 53.182-.832 11.128-2.528 22.132-3.704 33.218H392.7c-2.092-11.1-5.222-17.96-13.246-26.028l.03-.252c.592-.222.834-.542 1.244-1.004 1.352-7.886.13-17.726.388-25.888q1.764-51.984-2.704-103.806c-1.012-11.912-2.742-23.77-3.962-35.664-2.246-21.904-4.2-44.274-8.184-65.93-1.234-6.708-3.452-13.234-4.892-19.904-2.22-10.286-3.98-20.34-7.156-30.422q-3.462-10.794-7.906-21.223-4.444-10.429-9.832-20.402c-2.98-5.402-11.284-14.331-11.966-20.129-.496-4.215 4.03-2.947 5.928-5.467z" class="U"/><path d="M332.484 125.602l2.99.877c.87 1.227.988 1.365 2.494 1.64l2.112.284c-1.396.325-2.74.603-4.182.577-1.454-.026-3.556-.097-4.604-1.19.236-.193.536-.486.802-.648.078-.047.164-.078.246-.117l.142-1.423z" class="W"/><path d="M136.784 323.562c2.668 7.498 5.635 14.334 9.455 21.332 5.86 8.808 14.225 18.256 23.585 23.496 3.728 4.068 12.08 9.358 17.097 11.43 2.171.464 3.877.942 5.995-.028l2.492 1.524c1.611 1.904 2.686 4.094 4.23 5.994 2.545 1.464 5.197 3.302 7.863 4.488 3.966 2.442 15.982 8.996 20.298 9.648 2.224 8.138.644 15.842.022 24.068-.806 4.106-1.826 8.706-5.526 11.206-.448.302-.908.58-1.376.852 6.104 8.852 15.432 14.41 24.692 19.468 2.3 1.256 5.054 2.346 7.194 3.786l-.504 1.57c.732.236 1.912.444 2.514.886q1.754 3.946 4.118 7.56 2.364 3.616 5.274 6.806c2.444 3.434 5.204 7.686 8.77 10.034l-.088.298c1.032.692 2.346 1.84 3.558 2.094l.12.318 1.09.386c1.086.874 2.438 1.702 2.74 3.144-.374 2.244-2.542 3.528-3.02 6.078h-.324-7.81-24.702-4.416-7.85-31.512-7.852-.91-25.918-4.231-11.077-9.543q4.036-9.02 8.333-17.92l-.616-.122c-.007-.166-.035-.476.001-.662.323-1.668 3.976-6.74 5.27-7.694.06-.044.124-.084.186-.126l-.074-1.008c-1.698.126-2.896 1.714-4.28 2.602-1.288.826-2.439.71-3.86.342l-.423-.114c-.593 1.126-.251 2.94-.195 4.194l-.289-.06c-1.439-7.668-.481-19.42-1.175-27.872-1.814-22.066-4.63-44.134-7.259-66.124l-4.882-46.584c-.278-3.116-1.478-7.102-1.018-10.108.81 1.826.864 3.832 1.03 5.796.706-.658 1.301-.634 2.234-.818l-.612.43c.706-1.576 3.019-2.088 4.133-3.768.258-1.726-1.17-4.438-1.666-6.192l.712-.63z" class="H"/><path d="M186.921 379.82c2.171.464 3.877.942 5.995-.028l2.492 1.524c1.611 1.904 2.686 4.094 4.23 5.994-4.424-2.09-8.652-4.778-12.717-7.49z" class="E"/><path d="M220.92 437.572c6.104 8.852 15.432 14.41 24.692 19.468 2.3 1.256 5.054 2.346 7.194 3.786l-.504 1.57c.732.236 1.912.444 2.514.886q1.754 3.946 4.118 7.56 2.364 3.616 5.274 6.806c2.444 3.434 5.204 7.686 8.77 10.034l-.088.298c1.032.692 2.346 1.84 3.558 2.094l.12.318 1.09.386c1.086.874 2.438 1.702 2.74 3.144-.374 2.244-2.542 3.528-3.02 6.078h-.324-7.81-24.702-4.416-7.85-31.512-7.852-.91-25.918-4.231-11.077-9.543q4.036-9.02 8.333-17.92c3.616-6.066 7.885-11.47 12.753-16.572 2.68-4.276 8.955-7.858 13.58-9.512 2.725-1.426 5.47-2.464 8.371-3.472l3.587-1.264c4.231-1.114 8.194-3.16 12.477-4.232 1.416-.414 2.918-.344 4.332-.818 3.242-1.088 6.232-3.8 9.75-3.558 2.11-1.79 4.26-3.46 6.504-5.08z" class="N"/><path d="M252.302 462.396c.732.236 1.912.444 2.514.886-.784.854-1.774 1.696-2.06 2.846l-3.058 4.424-1.16-.292-.49-.864-1.958-.068 6.212-6.932zm-40.638 10.072l-.726-3.018c-.284-1.682.558-2.77 1.476-4.062 1.138 4.948 3.134 7.254 7.008 10.416l-.388 1.036-1.682.678c-2.146-1.322-4.618-2.658-5.688-5.05z" fill="#8f372c"/><path d="M246.09 469.328l1.958.068.49.864 1.16.292c-1.96 4.004-4.54 7.662-7.292 11.158l-1.758 2.08-1.36.09c-.082-.042-.162-.086-.244-.124-3.236-1.536-7.352-1.266-10.658-.152-1.242-.396-2.148-.64-2.984-1.722 1.134-.7 1.642-1.628 2.308-2.736q1.404.154 2.814.218c6.306.226 11.346-6.066 15.566-10.036z" class="E"/><path d="M200.334 447.028c1.416-.414 2.918-.344 4.332-.818 3.242-1.088 6.232-3.8 9.75-3.558-3.474 6.408-2.738 15.726-2.002 22.736-.918 1.292-1.76 2.38-1.476 4.062.172 1.018.45 2.024.726 3.018-.32-.53-.646-1.054-1.004-1.558-1.462-2.052-4.312-3.37-6.744-3.774l.028-1.606-.89-3.086c.298-.352.224-.198.366-.604a20.52 20.52 0 0 1 1.314-2.972c1.486-2.606 3.746-8.008 3.082-11.026-.148-.68-.39-.674-.976-1.034l-1.448.444c-1.676.022-3.384-.138-5.058-.224z" class="O"/><path d="M203.916 467.136c2.432.404 5.282 1.722 6.744 3.774l1.004 1.558c1.07 2.392 3.542 3.728 5.688 5.05l1.682-.678.388-1.036c2.71 1.416 5.29 2.63 8.288 3.342-.666 1.108-1.174 2.036-2.308 2.736.836 1.082 1.742 1.326 2.984 1.722-1.394.782-2.592 1.3-3.174 2.884l.09 1.664c-.714.948-1.044 1.496-2.294 1.732-.562.104-1.344-.052-1.91-.124l-9.796-9.3-.756-.346c-2.536 2.404-4.524 5.044-7.286 7.288.956-3.474 3.174-6.836 3.906-10.264.24-1.12-3.014-7.428-3.224-9.668-.012-.112-.018-.224-.026-.334z" class="E"/><path d="M219.422 475.804c2.71 1.416 5.29 2.63 8.288 3.342-.666 1.108-1.174 2.036-2.308 2.736-2.68-1.302-5.722-2.49-8.05-4.364l1.682-.678.388-1.036z" class="O"/><path d="M211.302 480.46l9.796 9.3c.566.072 1.348.228 1.91.124 1.25-.236 1.58-.784 2.294-1.732l-.09-1.664c.582-1.584 1.78-2.102 3.174-2.884 3.306-1.114 7.422-1.384 10.658.152.082.038.162.082.244.124l1.36-.09 1.758-2.08 1.55.982c-.076 3.75.326 6.374 2.146 9.748-1.588 2.716-1.684 4.468-1.56 7.56h-4.416-7.85-31.512-7.852-.91c1.701-3.26 6.128-4.054 8.682-6.51 1.97-1.894 2.278-4.348 4.664-6.18 2.066-2.188 4.296-4.326 5.954-6.85z" class="K"/><path d="M192.912 500c1.073-1.156 1.871-2.002 3.385-2.564 1.951.252 3.139 1.08 4.467 2.564h-7.852z" class="Q"/><path d="M236.872 487.008c1.088 3.424-1.344 4.534-1.61 7.632l-.968 1.364c-.172-.402-.244-.686-.228-1.126.02-.536.088-1.074-.044-1.602-.31-1.246-.482-1.486-1.568-2.11-1.3.118-1.962-.02-2.934.908.282 1.242 1.786 2.17 2.728 2.972-1.346-.51-2.59-1.028-3.84-1.75l-.15-.996c.724-1.182 1.372-1.486 2.602-2.004 2.162-.852 4.052-2.06 6.012-3.288z" class="T"/><path d="M228.386 483.604c3.306-1.114 7.422-1.384 10.658.152.082.038.162.082.244.124-.79 1.046-1.546 2.148-2.416 3.128-1.96 1.228-3.85 2.436-6.012 3.288-1.768-.866-3.706-1.47-5.558-2.144l-.09-1.664c.582-1.584 1.78-2.102 3.174-2.884z" class="L"/><path d="M239.288 483.88l1.36-.09c-1.256 5.036.658 5.422.516 8.882-.014.344-.94 1.468-1.202 1.72l.164 5.608h-7.85l2.018-3.996.968-1.364c.266-3.098 2.698-4.208 1.61-7.632.87-.98 1.626-2.082 2.416-3.128z" class="Q"/><path d="M242.406 481.71l1.55.982c-.076 3.75.326 6.374 2.146 9.748-1.588 2.716-1.684 4.468-1.56 7.56h-4.416l-.164-5.608c.262-.252 1.188-1.376 1.202-1.72.142-3.46-1.772-3.846-.516-8.882l1.758-2.08z" class="L"/><path d="M211.302 480.46l9.796 9.3c-.29.294-.51.504-.868.718-2.566 1.532-6.246 1.838-9.09 1.078-2.296-.614-4.62-2.152-5.792-4.246 2.066-2.188 4.296-4.326 5.954-6.85z" class="I"/><path d="M252.756 466.128c.286-1.15 1.276-1.992 2.06-2.846q1.754 3.946 4.118 7.56 2.364 3.616 5.274 6.806c2.444 3.434 5.204 7.686 8.77 10.034l-.088.298c1.032.692 2.346 1.84 3.558 2.094l.12.318 1.09.386c1.086.874 2.438 1.702 2.74 3.144-.374 2.244-2.542 3.528-3.02 6.078h-.324-7.81-24.702c-.124-3.092-.028-4.844 1.56-7.56-1.82-3.374-2.222-5.998-2.146-9.748l-1.55-.982c2.752-3.496 5.332-7.154 7.292-11.158.962-1.506 2.036-2.958 3.058-4.424z" class="T"/><path d="M252.756 466.128c1.466 2.806-.688 7.968-1.484 10.844-2.432 1.796-5.208 3.562-7.316 5.72l-1.55-.982c2.752-3.496 5.332-7.154 7.292-11.158.962-1.506 2.036-2.958 3.058-4.424z" class="B"/><path d="M246.102 492.44c3.582-.684 10.568-5.704 15.132-7.464 3.752 2.568 6.094 3.696 10.686 3.938l.97-.934c1.032.692 2.346 1.84 3.558 2.094l.12.318 1.09.386c1.086.874 2.438 1.702 2.74 3.144-.374 2.244-2.542 3.528-3.02 6.078h-.324-7.81-24.702c-.124-3.092-.028-4.844 1.56-7.56z" class="K"/><path d="M271.92 488.914l.97-.934c1.032.692 2.346 1.84 3.558 2.094l.12.318c-1.518.412-1.902.498-2.66 1.882-.596 1.09-.936 2.428-1.31 3.612l-.486.418c-.378-2.686-2.736-3.468-3.194-5.956.942-1.11 1.616-1.078 3.002-1.434z" class="Q"/><path d="M272.598 495.886c.374-1.184.714-2.522 1.31-3.612.758-1.384 1.142-1.47 2.66-1.882l1.09.386c1.086.874 2.438 1.702 2.74 3.144-.374 2.244-2.542 3.528-3.02 6.078h-.324-7.81l2.868-3.696.486-.418z" class="L"/><path d="M272.598 495.886c1.608.594 3.218 1.144 4.008 2.814q.29.628.448 1.3h-7.81l2.868-3.696.486-.418z" class="I"/><path d="M205.392 447.252l1.448-.444c.586.36.828.354.976 1.034.664 3.018-1.596 8.42-3.082 11.026a20.52 20.52 0 0 0-1.314 2.972c-.142.406-.068.252-.366.604l.89 3.086-.028 1.606.026.334c.21 2.24 3.464 8.548 3.224 9.668-.732 3.428-2.95 6.79-3.906 10.264 2.762-2.244 4.75-4.884 7.286-7.288l.756.346c-1.658 2.524-3.888 4.662-5.954 6.85-2.386 1.832-2.694 4.286-4.664 6.18-2.554 2.456-6.98 3.25-8.682 6.51h-25.918-4.231-11.077-9.543q4.036-9.02 8.333-17.92c3.616-6.066 7.885-11.47 12.753-16.572 2.68-4.276 8.955-7.858 13.58-9.512 2.725-1.426 5.47-2.464 8.371-3.472l3.587-1.264c4.231-1.114 8.194-3.16 12.477-4.232 1.674.086 3.382.246 5.058.224z" class="T"/><path d="M169.802 488.128c1.519-.714 2.384-1.016 4.072-.766 1.102.672 1.257.79 1.818 1.944-.312 1.406-.391 1.444-1.516 2.356-1.687.412-3.042.386-4.72-.118l.347-3.416z" class="M"/><path d="M183.814 485.158c1.149.27 1.469.334 2.333 1.114 1.079 2.686.776 4.714-.287 7.35-1.271-.3-1.488-.448-2.441-1.35-.932-2.468-.436-4.69.395-7.114z" class="I"/><path d="M169.802 488.128l-.347 3.416c-1.34.708-1.763 1.238-2.253 2.7-.606 1.806-.892 3.862-1.118 5.756h-4.231c2.017-4.48 3.552-9.216 7.949-11.872zm33.252-25.684l.89 3.086-.772 1.354q-4.315 1.098-8.39 2.89-4.075 1.794-7.799 4.234c.166-1.788.067-5.664 1.08-7.114 4.976-1.462 9.784-3.922 14.991-4.45z" class="L"/><path d="M175.9 455.996c2.725-1.426 5.47-2.464 8.371-3.472 1.463.102 4.256-.044 5.426.764-2.172 2.37-4.157 4.486-4.007 7.886l.223 3.446c-.353.806-.458.9-1.179 1.414-3.62-.184-3.582-4.922-6.392-6.396l-1.129.496c-3.484 4.534-2.775 12.092-4.536 17.398-.562 1.694-1.215 3.464-2.858 4.284-3.132-4.616 5.86-20.194 6.075-25.606l.007-.214z" class="K"/><path d="M162.32 465.508l1.405.944c-1.525 4.736-4.38 9.348-6.42 13.916-2.827 6.328-4.785 12.94-6.528 19.632h-9.543q4.036-9.02 8.333-17.92c3.616-6.066 7.885-11.47 12.753-16.572z" class="I"/><path d="M205.392 447.252l1.448-.444c.586.36.828.354.976 1.034.664 3.018-1.596 8.42-3.082 11.026a20.52 20.52 0 0 0-1.314 2.972c-.142.406-.068.252-.366.604-5.207.528-10.015 2.988-14.991 4.45-1.264-.544-1.333-.626-2.026-1.818q.744-.686 1.294-1.534c1.136-1.728 5.125-9.422 4.78-11.196-1.298-.932-2.715-.946-4.255-1.086 4.231-1.114 8.194-3.16 12.477-4.232 1.674.086 3.382.246 5.058.224z" class="G"/><path d="M205.392 447.252l1.448-.444c.586.36.828.354.976 1.034.664 3.018-1.596 8.42-3.082 11.026-2.218-1.256-3.058-3.434-4.14-5.604.246-1.234.538-2.694 1.088-3.824.604-1.238 2.492-1.752 3.71-2.188z" class="Q"/><path fill="#f8ae79" d="M261.026 86.008c.952-1.086 1.272-1.381 2.722-1.518 13.256-1.256 29.958 5.18 39.802 13.861 3.142 2.77 5.554 6.797 8.826 9.292l2.412 2.591c3.304 3.649 6.62 7.171 10.534 10.175 1.632 1.251 3.55 2.175 5.12 3.47-1.898 2.521-6.424 1.252-5.928 5.467.682 5.798 8.986 14.728 11.966 20.129q5.388 9.974 9.832 20.402 4.444 10.429 7.906 21.223c3.176 10.082 4.936 20.136 7.156 30.422 1.44 6.67 3.658 13.196 4.892 19.904 3.984 21.656 5.938 44.026 8.184 65.93l3.962 35.664q4.468 51.822 2.704 103.806c-.258 8.162.964 18.002-.388 25.888-.41.462-.652.782-1.244 1.004l-.03.252C387.478 482.04 390.608 488.9 392.7 500h-26.95-4.782-3.382-24.966-4.946-18.648-5.186-.574-11.02-4.286-10.582c.478-2.55 2.646-3.834 3.02-6.078-.302-1.442-1.654-2.27-2.74-3.144l-1.09-.386-.12-.318c-1.212-.254-2.526-1.402-3.558-2.094l.088-.298c-3.566-2.348-6.326-6.6-8.77-10.034q-2.91-3.19-5.274-6.806-2.364-3.614-4.118-7.56c-.602-.442-1.782-.65-2.514-.886l.504-1.57c-2.14-1.44-4.894-2.53-7.194-3.786-9.26-5.058-18.588-10.616-24.692-19.468.468-.272.928-.55 1.376-.852 3.7-2.5 4.72-7.1 5.526-11.206.622-8.226 2.202-15.93-.022-24.068-4.316-.652-16.332-7.206-20.298-9.648-2.666-1.186-5.318-3.024-7.863-4.488-1.544-1.9-2.619-4.09-4.23-5.994l-2.492-1.524c-2.118.97-3.824.492-5.995.028-5.017-2.072-13.369-7.362-17.097-11.43-9.36-5.24-17.725-14.688-23.585-23.496-3.82-6.998-6.787-13.834-9.455-21.332-1.464-6.588-2.681-13.166-3.429-19.874-1.3-10.628-1.059-21.354-1.016-32.042.278-7.752.102-15.546.252-23.308-.711-9.956-.139-32.308 1.456-42.106-.067-13.816 6.014-28.17 10.677-40.945l.399-1.293.091-.344c5.424-20.003 18.261-41.216 36.555-51.657 11.461-6.541 25.617-7.948 38.309-4.505q2.994.319 5.992.589c.066.045.126.095.194.136 1.214.734 3.786-.198 5.118-.522 4.268-.426 8.194-1.421 12.228-2.847-1.424-.186-2.192-1.036-3.192-1.966 2.014-2.076 4.554-3.888 6.8-5.725l-.66-.421-.126-1.117.21 1.189.57.167-.65-1.265c3.962-7.834 12.056-6.635 14.464-9.697z"/><path d="M243.608 255.764l1.056.418.398 1.07c-.468 1.338-1.51 2.03-2.582 2.87-.628-.256-1.122-.628-1.664-1.026.26-1.554 1.632-2.306 2.792-3.332z" class="C"/><path d="M245.852 266.762c1.18.312 1.788.588 2.602 1.512.068 1.346-.226 1.644-.916 2.748-1.086-.498-1.922-.946-2.822-1.752-.04-1.348.304-1.516 1.136-2.508zm27.954 7.108l1.176-.276c1.13.782 1.33.966 1.91 2.206l-.264 1.262c-1.232.782-1.438.716-2.916.634l.094-3.826zm-35.496-11.196c.414.04.82.098 1.216.23 1.284.432 1.74.918 2.344 2.094l-.546 1.416-1.446.294c-1.22.132-1.526.108-2.446-.606-.238-1.334.318-2.266.878-3.428z" class="B"/><path d="M211.892 250.306c.052-.966.05-1.958.432-2.862.32-.752 1.048-.81 1.778-1.1.756 4.594-1.664 7.37-2.064 11.796l-.146-7.834zm-17.837 54.658c-.439-.866-.845-1.654-1.014-2.622-.135-.772-.005-.774.447-1.424 1.471.044 2.279.798 3.377 1.662l.238.97 2.08 1.62c-.567.326-1.317.844-1.95 1-1.272.312-2.17-.57-3.178-1.206z" class="C"/><path d="M276.708 264.508l2.21 4.904c-.91.704-1.942 1.308-3.086 1.492-.408.066-.666-.28-.99-.512-.444-1.908.146-3.842.552-5.714l1.314-.17z" class="B"/><path d="M282.592 292.58c1.166-.62 2.054-.826 3.38-.464 1.31.36 1.756 1.342 2.4 2.394.086 1.292-.262 1.972-.898 3.05-1.954-1.44-3.36-3.118-4.882-4.98zm-35.86-18.126l1.224.224.346.716c-.376 1.81-2.168 3.444-3.36 4.824-.294-.096-.408-.114-.698-.312-1.15-.782-1.312-1.212-1.412-2.486.938-1.636 2.252-2.176 3.9-2.966zm-22.712 8.316c.722-1.136 1.22-2.196 2.562-2.65 1.624.114 3.124 1.848 4.292 2.91l-.342 1.038-1.524.736-2.102-.472c-1.196-.282-1.924-.846-2.886-1.562zm64.266-.964c1.116.538 1.92.92 2.652 1.976-1.432 1.484-2.998 3.168-5.22 3.186-.978.008-1.868-.522-2.644-1.07l.932-1.032c1.346-1.182 2.758-2.118 4.28-3.06z" class="C"/><path d="M251.03 285.568c1.884.152 3.694-.042 5.572.31 1.214 1.41 1.028 2.576 1.216 4.4-1.524-.36-3.416-.696-4.798-1.422-1.464-.768-1.584-1.832-1.99-3.288z" class="F"/><path d="M265.514 280.842c1.226-.996 1.862-1.478 3.504-1.48l.824.618c-.078 1.01-.226 1.522-.872 2.31-2.494.342-2.556 1.696-4.604 2.562-1.092.462-1.214.312-2.252-.12l-.346-.986c.682-1.388 2.44-2.138 3.746-2.904z" class="B"/><path d="M291.218 301.628q.158-.828.394-1.638c.544-1.864 1.476-3.428 3.194-4.394 1.4.016 1.48.068 2.588.93l-.262.382c-1.172 1.73-1.89 4.53-3.47 5.774-1.26-.07-1.424-.274-2.444-1.054z" class="F"/><path d="M275.676 238.634c.832.936.986 1.026 2.194 1.36l-1.754 9.758-2.21.688c.318-3.964 1.008-7.906 1.77-11.806z" class="V"/><path d="M336.506 295.28c.732-.014 1.456.086 2.184.158 1.116.766 1.174.754 1.508 2.054-.324 1.788-1.214 2.588-2.496 3.8-.69-.026-1.5-.176-2.112-.498-.908-.48-.914-.656-1.238-1.576.198-1.722 1.08-2.658 2.154-3.938z" class="C"/><path d="M274.064 296.396c.954.028 1.588.064 2.442.512.67 1.512.998 2.786.504 4.42-.362 1.202-.504 1.256-1.572 1.834-1.368-1.3-3.63-2.926-3.808-4.896.674-1.244 1.184-1.31 2.434-1.87z" class="F"/><path d="M286.4 206.53c.344 3.098-3.83 6.85-1.184 9.374-1.438 1.842-2.884 3.166-4.776 4.534.848-4.804 2.704-10.192 5.96-13.908z" class="S"/><path d="M314.85 301.226l1.13.99c-2.17 1.464-3.02 3.932-4.932 5.61-1.008.886-1.272.986-2.6.908l.314-.742-.384.694-.42-.422c-.08-.322-.154-.456-.076-.788.734-3.11 4.456-4.708 6.968-6.25zm34.004-21.81c3.888-.402 5.008.52 8.156 2.442l-.652.6-2.758 1.068c-1.58.48-2.618.158-4.018-.576-.756-1.434-.756-1.966-.728-3.534z" class="C"/><path d="M213.17 294.404c3.674-11.408 4.548-5.044 10.674-11.448l.176-.186c.962.716 1.69 1.28 2.886 1.562-2.118.436-4.306 1.436-6.352 2.164-2.296 2.888-4.702 5.37-7.384 7.908z" class="B"/><path d="M181.409 302.95l1.586.084.528 2.636c.467 3.222.292 4.932-1.648 7.592-.448.614-.931 1.012-1.63 1.316l-.766-.364c-.375-1.246-.191-2.072.099-3.288l.477-.304c1.352-2.226 1.356-5.138 1.353-7.672z" class="C"/><path d="M230.874 283.03c.914-.868 1.024-.974 1.03-2.29.008-1.174-.472-1.73.386-2.686 1.364-.134 1.492-.16 2.662.534.552 1.22.63 1.502.512 2.83l-2.726 3.284c.314.912.7 1.694 1.188 2.526l-.464.574c-1.892-.402-2.882-2.072-4.454-2.998l1.524-.736.342-1.038z" class="B"/><path d="M276.116 249.752c-.066 4.94-.202 9.858.592 14.756l-1.314.17c-1.26-4.57-2.592-9.51-1.488-14.238l2.21-.688z" class="S"/><path d="M280.108 279.32c1.314.084 2.494.464 3.616 1.15-.56 2.262-5.222 1.738-6.788 3.492-.638.714-1.096 1.044-1.962 1.446l-1.426 1.152c-1.118.81-1.648.706-2.918.482l-.052-.784c2.106-3.03 6.77-4.284 9.53-6.938zm6.292-72.79c.322.1.564.138.902.1 2.092-.222 3.744-.278 5.826.09-1.62 1.56-3.036 2.998-4.262 4.904l-3.65 4.28c-2.646-2.524 1.528-6.276 1.184-9.374zm-120.114 98.126l1.187-.854.166.464c1.449 3.802 5.77 6.138 4.488 11.204l-.842.566c-.583-1.712.696-3.166-.136-4.91-1.632-.49-2.195.298-3.636.192-1.568-.114-1.177-1.622-2.67-1.916-.873.726-1.714 1.396-2.698 1.974l.159-.94c.138-.076.28-.148.415-.23 1.735-1.06 2.655-3.82 3.567-5.55z" class="B"/><path d="M306.29 290.484c.142-.906.182-.994.794-1.676.97.44 1.478.874 1.912 1.932.334.816.332 1.804-.134 2.564-.716 1.168-2.168 1.894-2.904 2.982-1.018 1.508.074 3.886-1.306 5.514l-1.028-.052c-1.146-1.296-1.764-4.054-1.664-5.752l.038-.468c1.638-1.574 3.22-3.006 4.292-5.044zM196.864 302.58l.166-.158c1.95-2.042.883-7.904 7.191-8.152.724-.028 1.222.184 1.686.782.26.336.418.822.566 1.218l-.302.926c-1.88.794-3.502.792-4.78 2.438-.364 2.652-.312 3.538-2.209 5.536l-2.08-1.62-.238-.97z" class="C"/><path d="M286.508 274.662c8.924 4.078 9.922 3.454 19.1 4.678l-.292.062c-1.912.372-4.454-.29-6.07.736l-.1 1.052c1.788 1.644 3.808.834 5.858 1.622l-1.546.456c-1.66.084-2.918.16-4.41-.634-2.654-1.414-5.454-1.778-8.338-2.49-1.908-2.004-3.634-2.566-4.202-5.482z" class="F"/><path d="M349.646 292.8c.542.08 1.01.154 1.522.36 1.004.404 1.004.444 1.42 1.392-.106.348-.222.692-.392 1.016-1.354 2.572-5.51 3.924-8.114 4.752-.64-.044-1.314-.206-1.948-.314-.846-1.014-.882-1.262-1.072-2.582 1.524-2.768 5.874-3.06 8.584-4.624z" class="D"/><path d="M324.664 189.62c5.636.587 10.256.96 14.624 4.979 1.578 2.645 3.282 5.285 4.668 8.033l-.11.614c-2.076-1.406-2.674-4.575-4.69-6.176-.492-.39-1.918-.658-2.588-.905-4.172-1.538-8.92-3.13-11.904-6.545z" class="B"/><path d="M195.409 381.316q10.637 5.304 21.167 10.816c-3.042.246-6.054.04-9.074-.334-2.666-1.186-5.318-3.024-7.863-4.488-1.544-1.9-2.619-4.09-4.23-5.994z" class="F"/><path d="M239.412 296.26l.762.736c-.024 2.288-.656 9.078.962 10.664.848.83 2.184 1.402 3.388 1.356 1.026-.04 1.668-.338 2.376-1.1 1.738-1.87 1.44-5.154 1.356-7.458 1.204-.018 2.708-.218 3.866.098-.93.324-2.052.448-2.472 1.438-1.302 3.07.912 5.408-3.292 7.496-1.21.602-2.494.446-3.794.334l-.724.402c-.07.74-.232.988.266 1.59.978 1.18 2.38 1.804 3.886 1.886.33.018.656.022.984.022l-1.508.284c-2.612.212-4.062 1.458-6.774.764.346-.414.462-.7.57-1.218.34-1.638-1.298-3.81-2.164-5.104l.384-.45c.676.096.954 0 1.566-.294 1.27-3.428-.864-7.75.362-11.446z" class="C"/><path d="M234.844 300.62c-.584-1.418-1.306-2.812-1.226-4.378 1.212-1.09 2.412-.958 4.006-1.17l1.788 1.188c-1.226 3.696.908 8.018-.362 11.446-.612.294-.89.39-1.566.294l-.384.45-1.808-.788-3.788-4.654c1.43-.582 2.568-.94 3.34-2.388z" class="F"/><path d="M234.844 300.62c1.302 2.12 2.308 4.904 2.64 7.38l-.384.45-1.808-.788-3.788-4.654c1.43-.582 2.568-.94 3.34-2.388z" class="B"/><path d="M169.824 368.39l.68-.47c1.852 1.272 3.563 2.334 5.678 3.15l-.209.994 1.391-1.476.443.648c-.052-.264-1.498-1.4-1.724-1.544-.534-.34-.725-.468-1.123-.99-.805-1.058-2.592-1.874-2.965-3.152 3.285 1.736 5.855 4.784 8.926 6.898 3.864 2.658 8.129 4.7 11.994 7.344-2.118.97-3.824.492-5.995.028-5.017-2.072-13.369-7.362-17.097-11.43z" class="D"/><path d="M252.122 300.556l2.426 1.744c.546 2.242 1.228 4.892-.04 7.026-1.384 2.328-5.142 3.48-7.532 4.398-.328 0-.654-.004-.984-.022-1.506-.082-2.908-.706-3.886-1.886-.498-.602-.336-.85-.266-1.59l.724-.402c1.3.112 2.584.268 3.794-.334 4.204-2.088 1.99-4.426 3.292-7.496.42-.99 1.542-1.114 2.472-1.438z" class="O"/><path d="M222.422 296.438c4.952-.788 10.222-2.086 15.202-1.366-1.594.212-2.794.08-4.006 1.17-.08 1.566.642 2.96 1.226 4.378-.772 1.448-1.91 1.806-3.34 2.388a41.79 41.79 0 0 1-4.882-1.176l-.726 1.768c-1.446-.454-2.84-1.948-4.352-2.622l.284-.418c.068-1.436-.228-1.818-.916-3.03l1.51-1.092z" class="B"/><path d="M222.422 296.438l.39.27c1.404.96 2.38 1.25 4.062 1.364.494 1.242.03 2.502-.252 3.76l-.726 1.768c-1.446-.454-2.84-1.948-4.352-2.622l.284-.418c.068-1.436-.228-1.818-.916-3.03l1.51-1.092z" class="F"/><path d="M288.866 211.624l.87.886-.04 1.44-.146.28c-4.618 8.658-9.842 15.408-11.55 25.398l-.13.366c-1.208-.334-1.362-.424-2.194-1.36 1.22-6.166 2.66-12.266 4.764-18.196 1.892-1.368 3.338-2.692 4.776-4.534l3.65-4.28z" class="Y"/><path d="M328.244 209.562c3.88-.926 7.972.648 11.268 2.682 2.546 1.57 6.998 5.908 9.806 5.824.518 1.328.984 2.75 1.622 4.02l-1.37.724c-5.612-3.45-11.684-6.336-17.654-9.106-.814-1.648-2.352-2.894-3.672-4.144z" class="D"/><path d="M203.436 217.926c4.048 3.064 9.42 15.626 10.032 20.672a17.48 17.48 0 0 1 .078.794c.408 2.05.542 3.93.514 6.018l.042.934c-.73.29-1.458.348-1.778 1.1-.382.904-.38 1.896-.432 2.862-.44-1.974-.778-3.982-1.162-5.97-.578-1.886-1.276-3.72-1.976-5.562-.462-1.62-1.332-3.218-2.032-4.754l-.61-1.468c.604-.316 1.22-1.004 1.738-1.468-1.894-3.856-4.354-7.444-6.378-11.244 2.908.378 5.516 9.856 8.412 11.942l.474-.308c-.934-4.27-6.956-10.1-6.922-13.548z" class="E"/><path d="M207.85 231.084c1.378 2.034 2.096 4.358 2.908 6.656l-2.004 1.034c-.462-1.62-1.332-3.218-2.032-4.754l-.61-1.468c.604-.316 1.22-1.004 1.738-1.468z" class="B"/><path d="M208.754 238.774l2.004-1.034 2.138 5.408.516.134c.14-1.318.166-2.568.134-3.89.408 2.05.542 3.93.514 6.018l.042.934c-.73.29-1.458.348-1.778 1.1-.382.904-.38 1.896-.432 2.862l-1.162-5.97-1.976-5.562zm141.614 15.684l.752.256c.232 2.186-1.332 4.6-.708 6.51.54-1.394.512-1.804 1.904-2.504 1.508.262 2.646.74 4.004 1.424.066 1.03-.16 1.26-.644 2.144-1.472-.464-1.694-2.102-3.218-1.824-1.02 1.756-.774 4.242-.728 6.218-1.384.382-2.908.094-4.148.432-1.426.39-4.276 4.26-5.68 5.384-8.126 6.512-22.092 11.536-32.452 11.888-1.326-.996-4.206-.716-5.992-1.118l1.546-.456c7.666 1.148 18.28-1.638 25.118-5.014 2.42-.744 4.786-1.948 6.96-3.244 7.76-4.622 11.17-11.658 13.286-20.096z" class="D"/><path d="M179.578 310.926c.691-3.466 1.627-8.042.623-11.45-1.233-1.338-2.432-.968-4.185-1.106-.921-.99-.823-2.832-.951-4.136.664-1.588 1.522-1.626 2.994-2.42-.823-1.912-3.011-1.59-4.238-3.168-.451-.58-.264-.9-.18-1.596 2.171.266 5.214 3.49 6.857 4.992l.515-.032.267-1.006c-.564-1.126-1.049-1.93-.928-3.234.761-1.222 1.264-2.166 2.67-2.73 1.194.368 1.204.47 1.908 1.518.133 1.764.45 2.836-.346 4.436l-1.906 1.302.047.262c.99 5.114 3.125 7.664.797 13.112l-.528-2.636-1.586-.084c.003 2.534-.001 5.446-1.353 7.672l-.477.304z" class="B"/><path d="M176.495 292.852l.961.732c.962 1.546.828 3.028.801 4.782-1.051-.416-1.245-.612-1.971-1.49-.409-1.496-.138-2.552.209-4.024zm6.184-.556c-.708-1.904-1.397-3.716-.554-5.65 1.255-.522 1.46-.4 2.806-.088.133 1.764.45 2.836-.346 4.436l-1.906 1.302z" class="C"/><path d="M181.409 302.95c-.084-2.964-1.156-6.494-.533-9.28l.553-.342c1.468 1.296 2.286 4.226 2.467 6.226.098 1.09-.509 2.466-.901 3.48l-1.586-.084z" class="D"/><path d="M324.076 270.696c1.376.454 2.314 1.188 3.342 2.192l.738.052-.26.31c-3.476 4.018-15.26 3.776-16.698 6.988.796.862 1.086.98 2.29 1.006 3.974.09 14.264-4.462 16.634-3.446-6.838 3.376-17.452 6.162-25.118 5.014-2.05-.788-4.07.022-5.858-1.622l.1-1.052c1.616-1.026 4.158-.364 6.07-.736.098-.018.194-.04.292-.062l7.776-1.792.814-1.198-.774-1.542q5.374-1.934 10.652-4.112z" class="Z"/><path d="M324.076 270.696c1.376.454 2.314 1.188 3.342 2.192-4.54 2.23-9.142 3.476-14.034 4.66l.814-1.198-.774-1.542q5.374-1.934 10.652-4.112z" class="B"/><path d="M341.952 285.768c-.118-.742-.27-1.446-.468-2.172-3.788-1.072-8.92 3.154-12.632 4.27-2.166.65-4.598.638-6.842.992l-.472-.524c1.662-2.316 5.694-.342 7.686-1.392.258-.136 1.486-4.38 2.44-5.288.222-.212.716-.456.99-.586 2.924-1.38 2.2 1.434 3.814 1.656 2.352.326 3.874-1.458 7.244-.438l.794-.544c1.03.29 1.076.404 1.74 1.262 1.654 2.482 2.432 3.614 5.458 4.326.54.128.906.308 1.38.588.91.778 1.52 1.128 1.928 2.304-1.274 1.1-2.512 1.152-4.16 1.036-1.718-.122-3.106-.642-4.654-1.384l-.524-.632c-1.482-.362-2.606-.668-3.868-1.564-1.132.496-2.426.656-3.632.896l-.542.974c1.17 1.274 3.094.638 4.562 1.774l-.292 1.138c-1.558-.404-2.49-.94-4.182-.878l.184.394-.254.398-1.19-.076-.558-.76.476-1.436-1.046.002c-.844.66-1.146 1.082-1.418 2.122.824.6 1.626.98 2.562 1.376l-.084.926-.718.478c-.554-.036-1.192-.06-1.716-.27-1.188-.48-1.736-1.144-2.258-2.26 1.94-4.848 6.15-4.276 9.962-6.532.096-.056.192-.116.29-.176z" class="C"/><path d="M293.128 206.72c11.094-2.904 24.666-1.902 35.116 2.842 1.32 1.25 2.858 2.496 3.672 4.144-1.756-.16-3.256-.434-4.92-1.02l.164-.876c-1.68-1.766-4.066-2.488-6.398-2.908-.28.762-.422 1.766-1.172 2.134-1.92.938-4.718.2-6.876.854l-3.348.152 1.424-1.102c.966.224 1.666.37 2.652.194l.28-.528-1.25-.718c-2.548.08-5.098-.718-7.666-.928-5.982.252-10.73.386-15.11 4.99l.04-1.44-.87-.886c1.226-1.906 2.642-3.344 4.262-4.904z" class="R"/><path d="M304.806 208.96c4.98-.852 10.948-.764 15.956-.058-.28.762-.422 1.766-1.172 2.134-1.92.938-4.718.2-6.876.854l-3.348.152 1.424-1.102c.966.224 1.666.37 2.652.194l.28-.528-1.25-.718c-2.548.08-5.098-.718-7.666-.928z" class="B"/><path d="M207.502 391.798c3.02.374 6.032.58 9.074.334 12.538 3.78 24.294 7.566 37.582 7.26-8.328 5.42-17.232 1.33-26.358 2.054-4.316-.652-16.332-7.206-20.298-9.648z" class="E"/><defs><linearGradient id="G" x1="71.573" y1="162.3" x2="69.146" y2="162.958" href="#B"><stop offset="0" stop-color="#f4c3aa"/><stop offset="1" stop-color="#fcdad3"/></linearGradient></defs><path fill="url(#G)" transform="scale(2)" d="M66.677 151.844l.831-.586.383.1c1.346 4.036 2.051 8.239 3.466 12.268.56 1.594 3.577 7.801 3.649 8.743l-.9-.76c-.323.287-.654.563-.987.838-1.91-3.499-3.394-6.917-4.728-10.666-.732-3.294-1.341-6.583-1.715-9.937z"/><path d="M312.538 293.426c.684-1.646 1.776-2.766 2.54-4.28.384-.762.318-1.832.872-2.462-1.802.584-2.256 2.188-4.104 2.654l-1.334-1.404c-.406-.454-.74-.538-1.302-.738l-.368-.958c.626-.784.588-.76 1.578-.924l.652 1.276c3.06.904 4.496-2.694 8.438-.074-.438.83-1.078 1.23-1.828 1.768l.002.738.328.216.122-.37.222.048c1.438.222 1.554-.386 2.612.886.198.24.236.308.39.538 2.48.16 6.864-.072 8.664 1.846.234.25.172.378.196.704l-1.948-.152c-1.148 1.416-2.064 2.582-3.734 3.382-.174.802-.32 1.458-.206 2.278l.86.284c1.4-.778 2.79-1.79 4.452-1.626 1.156.41 2.196 1.186 2.774 2.302.15.288.14.388.172.672-.638 1.086-1.228 1.448-2.464 1.788-2.51.694-6.816.594-9.062-.892-.996-.656-1.05-.936-1.454-2.014.24-2.24 1.816-5.184 1.34-7.29-.81-.818-1.15-.674-2.268-.772-.882.602-1.224.764-1.448 1.886-.564 2.822 1.414 7.234-.686 9.15-.212.192-.33.226-.566.33l-1.13-.99-.64-1.706c-.572-.566-1.248-1.186-1.686-1.864-.808-1.246-.292-2.886.014-4.23z" class="B"/><path d="M322.388 290.912c1.094.064 2.368.038 3.416.356.948.288.952.338 1.45 1.214l-.644 1.488c-1.19.556-2.158 1.11-3.518.9-.85-1.344-.658-2.388-.704-3.958zm7.01 6.48c.508.28.984.536 1.296 1.046.48.788.438.888.19 1.768-1.3 1.138-2.634 1.312-4.282 1.618-.598-.3-1.046-.768-1.53-1.22.42-1.406 3.028-2.448 4.326-3.212z" class="C"/><path d="M312.538 293.426c2.098-1.68 3.732-3.816 5.878-5.428-1.24 3.278-2.85 6.908-3.032 10.438-.372.362-.744.796-1.174 1.084-.572-.566-1.248-1.186-1.686-1.864-.808-1.246-.292-2.886.014-4.23z" class="D"/><path d="M166.286 304.656c-1.306-1.274-3.197-2.626-4.141-4.152-1.244-2.01-2.323-6.994-4.165-8.13-1.972 3.308-.211 4.476.339 7.612-.597 1.224-.801 1.31-1.993 2.004-1.453-.102-1.58-.142-2.7-1.068-.745-2.32-1.545-6.072-1.379-8.482.086-1.252.483-1.596 1.392-2.32 4.714-1.192 12.116 1.444 16.452 3.32 2.135.924 2.876 1.194 3.733 3.342-.786 1.078-1.153 1.306-2.429 1.692-1.078 1.974-2.483 3.614-3.921 5.328l-1.187.854z" class="C"/><path d="M168.962 295.756c.814-.98.847-1.016 2.094-1.262 1.155.502 1.101.558 1.607 1.724-.236.996-.579 1.51-1.27 2.256-.628-.084-1.255-.262-1.873-.404l-.648-1.286.09-1.028zm-14.19-6.01c.552.274.828.592 1.247 1.028-.249 3.26 1.901 7.698.98 10.43l-1.993-.372c-.944-.952-1.342-2.434-1.574-3.732-.472-2.64-.266-5.184 1.339-7.354z" class="D"/><path d="M158.404 209.714c10.812-5.378 19.906-6.128 31.433-2.358 5.235 1.952 10.739 5.586 13.599 10.57-.034 3.448 5.988 9.278 6.922 13.548l-.474.308c-2.896-2.086-5.504-11.564-8.412-11.942-4.026-4.458-8.664-6.834-14.082-9.19-6.087-1.512-12.876-2.666-19.141-1.648-3.088.5-6.264 1.572-9.394 1.532l-.451-.82z" class="R"/><path d="M158.404 209.714c10.812-5.378 19.906-6.128 31.433-2.358-2.275.726-5.515-.914-7.925-1.238-1.322-.178-11.313-.398-11.95-.094-.279.134-.901 1.052-1.14 1.33l.055.164c2.953 1.072 6.655-.25 9.712.056 2.977.296 6.055 1.53 8.856 2.526l-.055.55c-6.087-1.512-12.876-2.666-19.141-1.648-3.088.5-6.264 1.572-9.394 1.532l-.451-.82z" class="O"/><path d="M158.404 209.714l.451.82c3.13.04 6.306-1.032 9.394-1.532 6.265-1.018 13.053.136 19.141 1.648 5.418 2.356 10.056 4.732 14.082 9.19 2.024 3.8 4.484 7.388 6.378 11.244-.518.464-1.134 1.152-1.738 1.468-4.722-8.152-10.727-14.428-19.716-17.694-9.6-3.486-19.956-3.492-29.245.816l-1.377-.606c1.051-1.09 3.826-1.744 5.282-2.294l-.264-.258 1.664-.238-.04-.158c-2.243-.852-5.573.154-7.903.578l.349-.874c1.234-.984 1.972-1.846 3.544-2.11z" class="M"/><path d="M220.912 297.53c.688 1.212.984 1.594.916 3.03l-.284.418c1.512.674 2.906 2.168 4.352 2.622l.726-1.768a41.79 41.79 0 0 0 4.882 1.176l3.788 4.654 1.808.788c.866 1.294 2.504 3.466 2.164 5.104-.108.518-.224.804-.57 1.218l-3.698 1.352-.186.274c-1.104.324-2.372.758-3.532.632-3.704-.404-7.988-3.74-10.344-6.448-1.93-2.218-3.676-5.19-3.378-8.248.232-2.386 1.614-3.384 3.356-4.804z" class="R"/><path d="M225.896 303.6l.726-1.768a41.79 41.79 0 0 0 4.882 1.176l3.788 4.654-.494 2.854.266 1.82c-1.984.63-3.766 1.206-5.776.252-3.948-1.876-6.946-5.664-8.416-9.704-.16-.44.46-1.446.672-1.906 1.512.674 2.906 2.168 4.352 2.622z" class="C"/><path d="M225.896 303.6l.726-1.768a41.79 41.79 0 0 0 4.882 1.176l3.788 4.654-.494 2.854c-1.504-1.304-3.454-2.258-5.04-3.522-1.376-1.098-2.372-2.392-3.862-3.394z" class="F"/><path d="M289.696 213.95c4.38-4.604 9.128-4.738 15.11-4.99 2.568.21 5.118 1.008 7.666.928l1.25.718-.28.528c-.986.176-1.686.03-2.652-.194l-1.424 1.102c-6.49 1.382-11.826 3.01-16.752 7.732l1.734 1.764c-1.21 1.674-2.784 3.492-2.34 5.704.176.872.492 1.448 1.066 2.114-1.2 1.198-2.75 1.942-4.076 2.982l-1.272.654-.482 1.24-.61-1.828-.876-.422c-1.952.94-2.668 2.938-3.358 4.906a3.99 3.99 0 0 0-.194.774c-1.382.668-2.776 1.418-4.206 1.966 1.708-9.99 6.932-16.74 11.55-25.398l.146-.28z" class="M"/><path d="M287.726 232.992c-.122-.626-.224-1.254-.244-1.892-.12-3.864 2.504-8.63 5.132-11.326l1.734 1.764c-1.21 1.674-2.784 3.492-2.34 5.704.176.872.492 1.448 1.066 2.114-1.2 1.198-2.75 1.942-4.076 2.982l-1.272.654z" class="Y"/><path d="M352.736 237.358l9.006-2.342c.388 5.294 1.582 10.7 2.454 15.942 1.29 9.938 7.54 61.44 4.756 68.592-1.854 1.9-4.688 1.556-7.128 1.928l-2.078 4.694-1.724-.802c-.55.558-1.05 1.392-1.798 1.616a5.59 5.59 0 0 1 .112-.838c.5-2.146 1.772-2.77 3.504-3.862 3.558-8.458 1.132-41.786-1.524-50.768-.874-2.952-1.906-3.334-4.44-4.74 1.344-.606 2.754.618 4.004.052.29-.132.768-3.86 1.062-4.7l.602-.146c.026.052 3.194 42.168 3.212 45.05.028 4.048-.906 8.178-1.068 12.248.7.86.798 1.096 1.972 1.228 1.192.136 2.544-.524 3.408-1.318.878-.81 1.356-2.064 1.442-3.242.082-1.122-.224-2.28-.444-3.374-1.034-5.096-1.24-10.482-1.044-15.686.064-1.744.498-3.59.384-5.316-.1-1.53-.79-3.24-.97-4.864-.73-6.586-1.122-13.224-1.78-19.822-.536-5.368-1.532-10.724-1.34-16.122l-.09-.226c-.488-1.26-.798-2.57-1.128-3.88l-.37.082c-2.038.424-7.656-.266-8.672 1.526-.986 1.742-1.23 4.502-1.936 6.446l-.752-.256c1.122-5.618 2.562-11.34 2.368-17.1z" class="E"/><path d="M145.122 163.994l.091-.344c5.424-20.003 18.261-41.216 36.555-51.657 11.461-6.541 25.617-7.948 38.309-4.505-22.892 2.971-36.231 6.397-50.722 25.141-6.751 8.732-11.241 17.577-14.635 28.054-1.925 5.943-3.582 11.905-6.195 17.598-.56-6.923-.278-18.241 4.178-23.937.186-.237.377-.376.618-.552.066 5.042-6.415 16.874-4.019 21.117.487-.737.344-.896.229-1.745l.356.69c4.136-11.872 5.904-22.043 12.746-33.007 2.638-4.227 5.798-8.632 9.109-12.366 2.278-2.569 4.964-4.956 6.92-7.784.705-1.018 1.349-2.156 1.456-3.413l-.934-.959c-6.067.926-12.854 9.471-16.31 14.176q-4.315 5.819-7.671 12.239c-1.821 3.474-7.76 19.568-10.082 21.254z" class="F"/><path d="M282.206 237.662a3.99 3.99 0 0 1 .194-.774c.69-1.968 1.406-3.966 3.358-4.906l.876.422.61 1.828c-.34 3.178-.236 6.258-.1 9.444l.286-.136.346 1.944c1.082.52 1.662.368 2.826.092-.07 1.852.212 3.538.552 5.354.184.926.276 2.076.602 2.95l.312 3.016.32-.006c1.08 3.448 2.682 6.288 4.802 9.212 2.566 2.832 5.524 5.794 9.424 6.558-.314.754-.592 1.616-1.072 2.276 2.378.246 4.574.52 6.948.06l.934-.188.774 1.542-.814 1.198-7.776 1.792c-9.178-1.224-10.176-.6-19.1-4.678-1.172-1.032-2.94-1.812-4.308-2.6-1.254-.516-2.296-1.734-3.282-2.65-.822-1.572-1.486-3.28-2.21-4.904-.794-4.898-.658-9.816-.592-14.756.298-3.254 1.12-6.548 1.754-9.758l.13-.366c1.43-.548 2.824-1.298 4.206-1.966z" class="N"/><path d="M287.144 243.676l.286-.136.346 1.944c1.082.52 1.662.368 2.826.092-.07 1.852.212 3.538.552 5.354.184.926.276 2.076.602 2.95l.312 3.016c-.19-.002-.396.006-.586-.022-1.624-.226-2.178-1.32-3.092-2.5-1.162-3.518-1.418-7.02-1.246-10.698z" class="Z"/><path d="M288.39 254.374c.914 1.18 1.468 2.274 3.092 2.5.19.028.396.02.586.022l.32-.006c1.08 3.448 2.682 6.288 4.802 9.212 2.566 2.832 5.524 5.794 9.424 6.558-.314.754-.592 1.616-1.072 2.276-4.3-.842-7.062-3.22-10.028-6.232-3.65-4.538-5.636-8.744-7.124-14.33z" class="P"/><path d="M278 239.628c1.43-.548 2.824-1.298 4.206-1.966-4.722 14.356 1.412 21.874-.006 34.4-1.254-.516-2.296-1.734-3.282-2.65-.822-1.572-1.486-3.28-2.21-4.904-.794-4.898-.658-9.816-.592-14.756.298-3.254 1.12-6.548 1.754-9.758l.13-.366z" class="a"/><path d="M134.047 206.232c1.961 3.76-.617 21.612-.282 27.412 6.859-6.678 13.58-13.858 22.008-18.576l1.377.606c-4.37 2.502-19.816 13.604-21.24 18.37-.367 1.228.148 2.75.807 3.798.83 1.318 1.859 2.328 3.039 3.328 1.312 1.558 2.329 4.026 2.436 6.064l.413.152c1.572.588 3.376 2.29 4.872 2.322l.905-.828c.504 2.834 1.156 5.548 1.97 8.31l2.01 4.432c2.78 4.638 8.218 14.396 13.902 16 .066.018.134.032.201.048l2.567 1.56c4.322 1.098 8.031 1.128 12.448.72l3.092.018c1.189-.568 2.911-.746 4.215-1.162 4.5-1.436 8.05-3.208 11.812-6.056.66-.246 1.422-.916 2.024-1.318.284 1.096.784 1.6 1.6 2.36 1.656-1.498 3.45-2.802 5.24-4.128-.566 3.22-3.894 3.99-5.708 6.286-1.028 1.298-1.574 4.85-2.272 6.548-.64 2.042-1.499 3.368-2.854 5.016-1.39 2.488-4.96 9.686-7.553 10.56-1.184-.864-1.39-1.488-1.993-2.784-.732 1.132-1.366 2.284-2.563 2.982l-.854-.256c-2.035-4.53 3.091-9.624 1.429-13.85-1.897-1.338-13.377-.394-16.769-.854l-.307 1.022c.357.546.888 1.234 1.091 1.852.524 1.592-1.083 3.414-1.884 4.766l-.295-.47c.116-.984.292-1.718.746-2.608.167-.328.148-.444.108-.82-.068-.642-.281-1.162-.579-1.724q-.163-.306-.341-.602c-.53-.88-1.184-1.678-2.068-2.226-1.374-.85-3.489-1.2-5.023-1.924-3.881-1.832-7.299-4.818-10.463-7.664-2.821-2.54-6.478-5.586-8.481-8.854-1.083-1.768-.891-4.654-2.435-5.986-.703 1.718 1.802 3.844 1.288 5.824-1.257-.666-1.683-1.604-2.308-2.886-1.175-2.41-2.696-10.546-2.201-13.238.195-1.062.9-2.35 1.276-3.408-.376-2.42-1.925-2.378-2.863-4.434-.87-1.904-.243-4.246-1.613-5.932-1.763 3.298 1.774 10.814-1.101 14.05-.089.1-.188.192-.281.288-.711-9.956-.139-32.308 1.456-42.106z" class="B"/><path d="M189.879 292.716c.695.056 1.286.286 1.935.52.875 1.316.859 1.898.958 3.428-.582.136-1.167.13-1.762.156-1.157-1.288-.961-2.408-1.131-4.104zm8.751-5.202c-.224-.24-.351-.354-.53-.654-.567-.954-.328-2.368.086-3.352.475-1.13 1.142-1.402 2.2-1.754l1.098.744c-.64 2.042-1.499 3.368-2.854 5.016z" class="C"/><path d="M187.92 290.538c.982.884 1.041.952 1.288 2.246-.662 1.424-1.16 2.804-2.519 3.7l-.674-.426q-.03-.37-.044-.742c-.072-2.312.456-3.142 1.949-4.778z" class="D"/><path d="M186.975 282.212l3.053-.394c-.223 3.482-.799 7.45-.316 10.904l-.503.062c-.247-1.294-.306-1.362-1.288-2.246.138-1.83.542-4.848-.496-6.406-1.746-2.622-12.274-.674-15.544-1.262l-.368-.07c5.059-.666 10.345-.072 15.463-.588z" class="C"/><path fill="#8f372c" d="M169.033 279.23c4.322 1.098 8.031 1.128 12.448.72l3.092.018-.331.236c-1.65 1.124-3.232 1.002-5.155.94l.049.234c2.64.134 5.261.192 7.838.834-5.117.516-10.404-.078-15.463.588-1.231-.374-2.519-.602-3.777-.872.488-.88.9-1.774 1.298-2.698z"/><path d="M200.6 272.75c.66-.246 1.422-.916 2.024-1.318.284 1.096.784 1.6 1.6 2.36-3.236 2.904-6.504 4.834-10.498 6.53-1.162.494-2.686.772-3.699 1.496l-3.053.394c-2.577-.642-5.198-.7-7.838-.834l-.049-.234c1.923.062 3.505.184 5.155-.94l.331-.236c1.189-.568 2.911-.746 4.215-1.162 4.5-1.436 8.05-3.208 11.812-6.056z" class="G"/><path d="M152.364 261.622c2.78 4.638 8.218 14.396 13.902 16 .066.018.134.032.201.048l2.567 1.56c-.398.924-.81 1.818-1.298 2.698-8.366-3.246-13.732-7.448-19.77-14.062l.124-5.538c1.506.12 2.878-.178 4.274-.706z" class="Z"/><path d="M139.757 241.17c1.312 1.558 2.329 4.026 2.436 6.064l.413.152c1.572.588 3.376 2.29 4.872 2.322l.905-.828c.504 2.834 1.156 5.548 1.97 8.31l2.01 4.432c-1.396.528-2.768.826-4.274.706l-.124 5.538-1.748-1.84c-5.293-7.704-6.093-15.8-6.46-24.856z" class="G"/><path d="M143.979 254.338c1.233.972 3.14 3.356 4.689 3.16.565-.072 1.128-.194 1.686-.308l2.01 4.432c-1.396.528-2.768.826-4.274.706-.5-1.528-1.514-3.024-2.307-4.426-.076-.55.015-.37-.279-.798-.635-.928-1.103-1.704-1.525-2.766z" class="P"/><path d="M142.193 247.234l.413.152c1.572.588 3.376 2.29 4.872 2.322l.905-.828c.504 2.834 1.156 5.548 1.97 8.31l-1.686.308c-1.549.196-3.456-2.188-4.689-3.16l-1.786-7.104z" class="J"/><path d="M282.178 328.804c2.404-.962 5.044-1.862 7.224-3.272 2.136-1.384 2.868-4.064 5.464-4.518 1.106.804 1.164.92 1.598 2.22-.488 2.26-2.19 3.506-4.05 4.708-4.44 2.872-10.556 4.716-14.514 8.084-4.304-.8-10.132 1.134-14.454 1.888-14.974 2.62-33.57 5.958-48.408 1.91-1.876-.402-3.654-1.186-5.59-1.554l-.592-1.314c-2.742-4.308-9.461-3.322-13.664-5.834-.948-.568-1.736-1.232-1.966-2.364-.222-1.098-.158-1.248.405-2.126 1.299-.038 8.368 3.986 13.4 4.208 13.756.61 27.576-2.516 41.324-2.9 11.33-.316 22.602 2.436 33.822.864z" class="E"/><path d="M208.856 336.956c.696-.616 1.458-1.278 2.314-1.658 3.68-1.636 42.144-4.966 46.99-4.842 3.158.08 6.164 1.646 9.296 1.808 2.362.124 5.43-1.1 7.626-.276-7.336 1.606-14.998 1.898-22.422 2.992-5.062.744-10.018 2.236-15.108 2.79-4.512.49-19.648-.004-22.514 2.054-1.876-.402-3.654-1.186-5.59-1.554l-.592-1.314z" class="K"/><defs><linearGradient id="H" x1="128.124" y1="161.614" x2="128.387" y2="169.719" href="#B"><stop offset="0" stop-color="#872612"/><stop offset="1" stop-color="#d03520"/></linearGradient></defs><path fill="url(#H)" transform="scale(2)" d="M141.089 164.402c1.202-.481 2.522-.931 3.612-1.636 1.068-.692 1.434-2.032 2.732-2.259.553.402.582.46.799 1.11-.244 1.13-1.095 1.753-2.025 2.354-2.22 1.436-5.278 2.358-7.257 4.042-2.152-.4-5.066.567-7.227.944-7.487 1.31-16.785 2.979-24.204.955 1.433-1.029 9.001-.782 11.257-1.027 2.545-.277 5.023-1.023 7.554-1.395 3.712-.547 7.543-.693 11.211-1.496 1.101-.014 2.666-.965 3.548-1.592z"/><path d="M215.038 339.824c14.838 4.048 33.434.71 48.408-1.91 4.322-.754 10.15-2.688 14.454-1.888-8.556 11.458-18.072 24.42-33.288 26.686-8.016 1.194-17.816-.34-24.378-5.33-6.07-4.618-8.65-12.078-10.786-19.112 1.936.368 3.714 1.152 5.59 1.554z" class="C"/><path d="M178.823 171.702c5.331-.821 11.39-.128 16.442 1.733 6.367 2.346 12.171 6.842 14.997 13.146 1.166 2.603 2.65 7.052 1.608 9.768-2.396 1.417-29.306-5.544-34.746-6.251-12.322-.927-26.576.703-38.242 4.952 1.554-2.189 3.102-4.406 4.791-6.493 9.559-11.817 20.387-15.336 35.151-16.855z" class="H"/><path d="M324.664 189.62c-8.862-.433-17.782-.446-26.61.518-5.292.578-27.898 6.137-30.562 4.754-1.034-.538-1.396-1.095-1.704-2.177-.7-2.465 1.358-6.659 2.51-8.764 3.258-5.951 8.438-9.744 14.888-11.573q1.638-.462 3.298-.842 1.66-.38 3.336-.677 1.676-.297 3.364-.51 1.69-.213 3.386-.342 1.698-.129 3.4-.173 1.702-.044 3.404-.004 1.702.04 3.4.165 1.698.125 3.386.334 1.69.209 3.366.502 1.678.293 3.338.669 1.66.376 3.3.834 1.64.458 3.254.997 1.616.539 3.202 1.157 1.586.618 3.138 1.315 1.554.696 3.07 1.469 1.518.773 2.994 1.62c3.248 3.091 7.076 5.826 10.596 8.611-.064 1.74-.312 3.395-1.64 4.655-.416.393-.848.682-1.36.926l-4.13 1.519c-4.368-4.019-8.988-4.392-14.624-4.979z" class="J"/><path d="M157.15 215.674c9.289-4.308 19.646-4.302 29.245-.816 8.99 3.266 14.994 9.542 19.716 17.694l.61 1.468c.7 1.536 1.57 3.134 2.032 4.754.7 1.842 1.398 3.676 1.976 5.562l1.162 5.97.146 7.834c-.302 3.524-.062 8.774-2.574 11.524-1.79 1.326-3.584 2.63-5.24 4.128-.816-.76-1.316-1.264-1.6-2.36-.602.402-1.364 1.072-2.024 1.318-3.763 2.848-7.312 4.62-11.812 6.056-1.304.416-3.026.594-4.215 1.162l-3.092-.018c-4.417.408-8.126.378-12.448-.72l-2.567-1.56c-.067-.016-.135-.03-.201-.048-5.683-1.604-11.122-11.362-13.902-16l-2.01-4.432c-.814-2.762-1.466-5.476-1.97-8.31l-.905.828c-1.496-.032-3.301-1.734-4.872-2.322l-.413-.152c-.107-2.038-1.124-4.506-2.436-6.064-1.18-1-2.21-2.01-3.039-3.328-.659-1.048-1.174-2.57-.807-3.798 1.424-4.766 16.87-15.868 21.24-18.37z" class="H"/><path d="M168.337 235.352c2.112-1.02 3.23-1.332 5.51-.71 1.201 1.964 2.338 4.058 3.831 5.816-2.778 2.214-5.775 4.17-8.527 6.382l-.835.376c-1.057-1.004-1.002-2.41-1.262-3.822l-.204-5.542 1.486-2.5z" class="M"/><defs><linearGradient id="I" x1="98.581" y1="120.907" x2="106.351" y2="133.385" href="#B"><stop offset="0" stop-color="#130000"/><stop offset="1" stop-color="#65120d"/></linearGradient></defs><path fill="url(#I)" transform="scale(2)" d="M88.085 129.253c2.249.556 3.892 3.793 8.776 4.039.81.041 1.623-.102 2.219-.7 2.126-2.131.386-7.195.287-9.9-.017-.47-.086-.704.246-1.063.493.042.829-.127 1.242-.369 1.985-1.166 1.888-2.01 2.441-4.019l.064-.231c.35.768.785 1.567 1.016 2.377l.988 2.781.581 2.985.073 3.917c-.151 1.762-.031 4.387-1.287 5.762l-2.62 2.064c-.408-.38-.658-.632-.8-1.18-.301.201-.682.536-1.012.659l-.193-.11c-.6-.29-.786-.129-1.372.111-.085.007-.222.025-.314.019-1.693-.099-4.35-1.262-5.52-2.474-2.027-1.231-3.575-2.63-4.817-4.668z"/><path d="M207.228 253.132q.244 6.37.29 12.746c-1.48 2.172-2.844 3.862-4.894 5.554-.602.402-1.364 1.072-2.024 1.318l-.386-.22c-1.2-.58-1.573-.258-2.743.222-.169.014-.444.05-.628.038-3.386-.198-8.699-2.524-11.039-4.948 4.952.648 9.566.406 14.266 2.31 5.264-5.88 5.782-9.396 7.158-17.02z" class="E"/><path d="M162.285 240.658q.057-.588.139-1.172c.656-4.68 3.033-10.66 6.858-13.532 1.005 2.882 3.884 4.656 4.332 7.532.036.232.1.458.146.686l.087.47c-2.28-.622-3.398-.31-5.51.71l-1.486 2.5.204 5.542c.26 1.412.205 2.818 1.262 3.822l.835-.376.301.09a10.04 10.04 0 0 0 2.944.388c.705.5 1.032.54 1.146 1.476.248 2.038-.126 4.224.106 6.354.755 1.026 1.594 2.526 2.521 3.358 2.484 4.076 5.579 6.874 9.634 9.336 2.34 2.424 7.654 4.75 11.039 4.948.184.012.459-.024.628-.038 1.171-.48 1.544-.802 2.743-.222.134.064.258.148.386.22-3.763 2.848-7.312 4.62-11.812 6.056-1.304.416-3.026.594-4.215 1.162l-3.092-.018c-.127-.306-.272-.868-.463-1.112-.495-.638-2.143-1.474-2.842-2.034-2.411-1.93-4.051-4.128-5.743-6.688-3.243-3.45-5.892-6.756-8.036-10.998l-.483-.392c-.983-6.502-3.051-11.194-1.631-18.068z" class="F"/><path d="M172.435 270.116c4.677.118 11.922 4.636 17.467 5.78 2.309-.74 5.851-1.388 7.57-3.144 1.171-.48 1.544-.802 2.743-.222.134.064.258.148.386.22-3.763 2.848-7.312 4.62-11.812 6.056-1.304.416-3.026.594-4.215 1.162l-3.092-.018c-.127-.306-.272-.868-.463-1.112-.495-.638-2.143-1.474-2.842-2.034-2.411-1.93-4.051-4.128-5.743-6.688z" class="B"/><path d="M162.285 240.658q.057-.588.139-1.172c.656-4.68 3.033-10.66 6.858-13.532 1.005 2.882 3.884 4.656 4.332 7.532.036.232.1.458.146.686l.087.47c-2.28-.622-3.398-.31-5.51.71l-1.486 2.5.204 5.542c.414 4.692-.803 9.322-.187 13.976l.038.312c.461 3.494 5.374 8.028 7.71 10.728-.089-.062-.177-.128-.268-.186-1.115-.722-2.333-.278-3.478-1.234-2.559-2.136-3.206-6.57-6.471-7.872l-.483-.392c-.983-6.502-3.051-11.194-1.631-18.068z" class="R"/><path d="M162.285 240.658q.057-.588.139-1.172c.656-4.68 3.033-10.66 6.858-13.532 1.005 2.882 3.884 4.656 4.332 7.532.036.232.1.458.146.686l.087.47c-2.28-.622-3.398-.31-5.51.71l-1.486 2.5-.575 2.92.086-.502-.743-.208c.071-1.462.198-2.776.558-4.198.718-.426 1.169-.806 1.71-1.446l.165-.198c-.373-.814-.463-1.378-1.245-1.84-2.029 1.156-2.907 6.47-3.833 8.708-.371-.13-.463-.09-.69-.43z" class="Y"/><path d="M148.384 248.88c.647-6.172 2.62-11.582 6.454-16.49 3.412-4.368 8.446-8.298 14.116-8.894 1.034-.11 1.655-.198 2.493.458-.337.928-1.007 1.256-1.801 1.768l-.363.232c-3.825 2.872-6.202 8.852-6.858 13.532q-.082.584-.139 1.172c-1.42 6.874.648 11.566 1.631 18.068l.483.392c2.144 4.242 4.793 7.548 8.036 10.998 1.692 2.56 3.331 4.758 5.743 6.688.699.56 2.347 1.396 2.842 2.034.191.244.336.806.463 1.112-4.417.408-8.126.378-12.448-.72l-2.567-1.56c-.067-.016-.135-.03-.201-.048-5.683-1.604-11.122-11.362-13.902-16l-2.01-4.432c-.814-2.762-1.466-5.476-1.97-8.31z" class="N"/><path d="M163.916 258.726l.483.392c2.144 4.242 4.793 7.548 8.036 10.998 1.692 2.56 3.331 4.758 5.743 6.688.699.56 2.347 1.396 2.842 2.034.191.244.336.806.463 1.112-4.417.408-8.126.378-12.448-.72l-2.567-1.56c1.867-.544 6.597 1.896 9.788 1.714-.525-3.142-4.771-2.844-6.227-4.894-.897-1.262-1.314-4.14-1.825-5.712l-1.138.7-.892-.278c-1.57-2.708-1.549-7.314-2.257-10.474z" class="a"/><defs><linearGradient id="J" x1="129.255" y1="204.126" x2="134.654" y2="227.563" href="#B"><stop offset="0" stop-color="#d66740"/><stop offset="1" stop-color="#e88b54"/></linearGradient></defs><path fill="url(#J)" transform="scale(2)" d="M127.079 199.696c8.301-.903 15.243-4.077 22.282-8.322-.144.788-.211 1.491-.179 2.292l.213.275.162-.17.203.371-.03 5.334c.537 4.628 1.458 12.857 4.818 16.316-4.512 1.284-9.484 5.749-13.583 8.184-4.003 2.378-8.32 4.211-12.649 5.902-.639-.178-.757-.244-1.35.114-.198.12-.383.276-.563.421-1.07-.72-2.447-1.265-3.597-1.893-4.63-2.529-9.294-5.308-12.346-9.734.234-.136.464-.275.688-.426 1.85-1.25 2.36-3.55 2.763-5.603.311-4.113 1.101-7.965-.011-12.034 4.563-.362 9.015 1.683 13.179-1.027z"/><path d="M254.158 399.392c16.602-1.806 30.486-8.154 44.564-16.644-.288 1.576-.422 2.982-.358 4.584l.426.55.324-.34.406.742-.06 10.668c-1.058-.214-2.308-.72-3.292-.1-3.784 2.392-7.326 6.27-10.998 8.992-26.47 19.616-25.112 17.318-57.348 17.67.622-8.226 2.202-15.93-.022-24.068 9.126-.724 18.03 3.366 26.358-2.054z" class="G"/><path d="M261.026 86.008c.952-1.086 1.272-1.381 2.722-1.518 13.256-1.256 29.958 5.18 39.802 13.861 3.142 2.77 5.554 6.797 8.826 9.292l2.412 2.591c3.304 3.649 6.62 7.171 10.534 10.175 1.632 1.251 3.55 2.175 5.12 3.47-1.898 2.521-6.424 1.252-5.928 5.467.682 5.798 8.986 14.728 11.966 20.129q5.388 9.974 9.832 20.402 4.444 10.429 7.906 21.223c3.176 10.082 4.936 20.136 7.156 30.422 1.44 6.67 3.658 13.196 4.892 19.904 3.984 21.656 5.938 44.026 8.184 65.93l3.962 35.664q4.468 51.822 2.704 103.806c-.258 8.162.964 18.002-.388 25.888-.41.462-.652.782-1.244 1.004l-.03.252C387.478 482.04 390.608 488.9 392.7 500h-26.95-4.782-3.382-24.966-4.946-18.648-5.186-.574-11.02-4.286-10.582c.478-2.55 2.646-3.834 3.02-6.078-.302-1.442-1.654-2.27-2.74-3.144l-1.09-.386-.12-.318c-1.212-.254-2.526-1.402-3.558-2.094l.088-.298c-3.566-2.348-6.326-6.6-8.77-10.034q-2.91-3.19-5.274-6.806-2.364-3.614-4.118-7.56c-.602-.442-1.782-.65-2.514-.886l.504-1.57c.36-.29.73-.602 1.126-.842 1.186-.716 1.422-.584 2.7-.228 8.658-3.382 17.292-7.048 25.298-11.804 8.198-4.87 18.142-13.8 27.166-16.368-6.72-6.918-8.562-23.376-9.636-32.632l.06-10.668-.406-.742-.324.34-.426-.55c-.064-1.602.07-3.008.358-4.584 18.91-9.708 37.69-23.886 49.686-41.668 3.004-4.456 5.024-9.506 7.816-14.094.748-.224 1.248-1.058 1.798-1.616l1.724.802 2.078-4.694c2.44-.372 5.274-.028 7.128-1.928 2.784-7.152-3.466-58.654-4.756-68.592-.872-5.242-2.066-10.648-2.454-15.942l-9.006 2.342c.194 5.76-1.246 11.482-2.368 17.1-2.116 8.438-5.526 15.474-13.286 20.096-2.174 1.296-4.54 2.5-6.96 3.244-2.37-1.016-12.66 3.536-16.634 3.446-1.204-.026-1.494-.144-2.29-1.006 1.438-3.212 13.222-2.97 16.698-6.988l.26-.31-.738-.052c-1.028-1.004-1.966-1.738-3.342-2.192q-5.278 2.178-10.652 4.112c-.312.07-.62.128-.934.188-2.374.46-4.57.186-6.948-.06.48-.66.758-1.522 1.072-2.276-3.9-.764-6.858-3.726-9.424-6.558-2.12-2.924-3.722-5.764-4.802-9.212l-.32.006-.312-3.016c-.326-.874-.418-2.024-.602-2.95-.34-1.816-.622-3.502-.552-5.354-1.164.276-1.744.428-2.826-.092l-.346-1.944-.286.136c-.136-3.186-.24-6.266.1-9.444l.482-1.24 1.272-.654c1.326-1.04 2.876-1.784 4.076-2.982-.574-.666-.89-1.242-1.066-2.114-.444-2.212 1.13-4.03 2.34-5.704l-1.734-1.764c4.926-4.722 10.262-6.35 16.752-7.732l3.348-.152c2.158-.654 4.956.084 6.876-.854.75-.368.892-1.372 1.172-2.134 2.332.42 4.718 1.142 6.398 2.908l-.164.876c1.664.586 3.164.86 4.92 1.02 5.97 2.77 12.042 5.656 17.654 9.106l1.37-.724c-.638-1.27-1.104-2.692-1.622-4.02l-2.624-7.998c-.834-2.35-1.638-4.634-2.848-6.824l.11-.614c-1.386-2.748-3.09-5.388-4.668-8.033l4.13-1.519c.512-.244.944-.533 1.36-.926 1.328-1.26 1.576-2.915 1.64-4.655-3.52-2.785-7.348-5.52-10.596-8.611.032-.284.04-.287.034-.611-.002-.168-19.722-33.853-21.482-36.378-2.58-3.702-5.564-7.029-8.776-10.191-13.786-13.572-23.962-17.832-42.696-21.117-3.95-.693-8.038-2.047-12.018-2.018-.824-.068-1.274-.131-1.95-.624.914-1.579 3.986-2.721 5.612-3.581-.016-.307-.012-.685-.136-.977-.516-1.227-1.5-1.308-2.634-1.684-2.686 1.184-5.392 2.183-8.166 3.135-1.424-.186-2.192-1.036-3.192-1.966 2.014-2.076 4.554-3.888 6.8-5.725l-.66-.421-.126-1.117.21 1.189.57.167-.65-1.265c3.962-7.834 12.056-6.635 14.464-9.697z" class="H"/><path d="M320.762 208.902c2.332.42 4.718 1.142 6.398 2.908l-.164.876c-4.784-.586-9.47-.766-14.282-.796 2.158-.654 4.956.084 6.876-.854.75-.368.892-1.372 1.172-2.134z" class="S"/><path d="M294.348 221.538l1.908-.744c.678.358.982.354 1.198 1.142.354 1.29-.264 3.272-.984 4.366-.376.572-.794.798-1.408 1.06l-1.988 1.994c-.574-.666-.89-1.242-1.066-2.114-.444-2.212 1.13-4.03 2.34-5.704z" class="M"/><path d="M338.636 237.56l-5.942-6.386c-1.018-1.22-2.766-3.12-2.62-4.782l.634-.024c3.946 1.972 7.33 7.01 9.276 10.886l-1.348.306z" class="J"/><path d="M251.776 101.707c6.124-2.647 11.58-4.515 18.226-5.55-3.79 2.17-11.534 7.181-15.456 8.212-.016-.307-.012-.685-.136-.977-.516-1.227-1.5-1.308-2.634-1.684z" class="V"/><path d="M339.984 237.254c3.302 5.132 4.444 9.756 3.086 15.874-1.894 8.534-7.674 15.232-14.914 19.812l-.738-.052c-1.028-1.004-1.966-1.738-3.342-2.192.886-.888 2.606-1.624 3.716-2.274 3.994-2.314 6.754-5.144 8.88-9.234 3.532-6.79 4.248-14.32 1.964-21.628l1.348-.306z" class="D"/><path d="M293.074 229.356l1.988-1.994c.17 1.884.302 3.446-.27 5.27 2.86 3.378 5.906 6.476 8.13 10.35-1.9 1.442-3.412 1.598-5.738 1.266-2.04-.292-4.076-.858-6.074-1.35-1.236.29-2.416.502-3.68.642l-.286.136c-.136-3.186-.24-6.266.1-9.444l.482-1.24 1.272-.654c1.326-1.04 2.876-1.784 4.076-2.982z" class="N"/><path d="M293.074 229.356l1.988-1.994c.17 1.884.302 3.446-.27 5.27-1.23.16-1.292.258-2.184 1.136-1.51 1.358-2.954 2.676-3.16 4.826-.136 1.418.512 3.094 1.47 4.112l.192.192c-1.236.29-2.416.502-3.68.642l-.286.136c-.136-3.186-.24-6.266.1-9.444l.482-1.24 1.272-.654c1.326-1.04 2.876-1.784 4.076-2.982z" class="X"/><path d="M302.922 242.982c1.134 1.126 2.032 2.346 2.826 3.728.464.81 1.074 1.138 1.882 1.556-2.442 2.978-7.716 5.774-8.544 9.444-1.144-.228-3.126-3.192-3.868-4.128-1.492-.342-1.882-.552-3.32.208-.05.026-.094.06-.142.09-.326-.874-.418-2.024-.602-2.95-.34-1.816-.622-3.502-.552-5.354-1.164.276-1.744.428-2.826-.092l-.346-1.944c1.264-.14 2.444-.352 3.68-.642 1.998.492 4.034 1.058 6.074 1.35 2.326.332 3.838.176 5.738-1.266z" class="G"/><path d="M291.154 250.93c.642-1.166.71-1.284 1.902-1.862 1.3.42 1.372.582 2.192 1.694.104 1.002.152 1.826-.03 2.82-1.492-.342-1.882-.552-3.32.208-.05.026-.094.06-.142.09-.326-.874-.418-2.024-.602-2.95z" class="E"/><path d="M302.922 242.982c1.134 1.126 2.032 2.346 2.826 3.728.464.81 1.074 1.138 1.882 1.556-6.22-1.116-11.68 1.906-17.028-2.69-1.164.276-1.744.428-2.826-.092l-.346-1.944c1.264-.14 2.444-.352 3.68-.642 1.998.492 4.034 1.058 6.074 1.35 2.326.332 3.838.176 5.738-1.266z" class="P"/><path d="M291.756 253.88l.142-.09c1.438-.76 1.828-.55 3.32-.208.742.936 2.724 3.9 3.868 4.128 2.914 3.334 5.758 6.808 9.062 9.766 3.302 1.18 6.392 1.988 9.946 1.936 2.326-1.212 7.064-.872 9.698-.99-1.11.65-2.83 1.386-3.716 2.274q-5.278 2.178-10.652 4.112c-.312.07-.62.128-.934.188-2.374.46-4.57.186-6.948-.06.48-.66.758-1.522 1.072-2.276-3.9-.764-6.858-3.726-9.424-6.558-2.12-2.924-3.722-5.764-4.802-9.212l-.32.006-.312-3.016z" class="D"/><path d="M318.094 269.412c2.326-1.212 7.064-.872 9.698-.99-1.11.65-2.83 1.386-3.716 2.274q-5.278 2.178-10.652 4.112l-.934.188c-2.374.46-4.57.186-6.948-.06.48-.66.758-1.522 1.072-2.276 2.822-.416 6.106.922 8.87-.268 1.586-.682 1.978-1.486 2.61-2.98z" class="E"/><path d="M291.756 253.88l.142-.09c1.438-.76 1.828-.55 3.32-.208.742.936 2.724 3.9 3.868 4.128 2.914 3.334 5.758 6.808 9.062 9.766-10.294.538-10.002-10.686-14.186-12.77l-1.022.5-.552 1.684-.32.006-.312-3.016z" class="F"/><path d="M346.766 187.24c6.158 9.419 8.462 28.636 10.978 39.87l-8.174-4.298 1.37-.724c-.638-1.27-1.104-2.692-1.622-4.02l-2.624-7.998c-.834-2.35-1.638-4.634-2.848-6.824l.11-.614c-1.386-2.748-3.09-5.388-4.668-8.033l4.13-1.519c.512-.244.944-.533 1.36-.926 1.328-1.26 1.576-2.915 1.64-4.655l.348-.26z" class="D"/><path d="M345.884 201.956l3.474 8.644c-.886-.1-1.788-.346-2.664-.53-.834-2.35-1.638-4.634-2.848-6.824l.11-.614 1.928-.676z" class="O"/><path d="M346.694 210.07l2.664.53c1.588 3.582 2.3 6.928 2.512 10.844l-.446.746-.484-.102c-.638-1.27-1.104-2.692-1.622-4.02l-2.624-7.998z" class="G"/><path d="M339.288 194.599l4.13-1.519c.608 3.071 1.414 5.927 2.466 8.876l-1.928.676c-1.386-2.748-3.09-5.388-4.668-8.033z" class="P"/><defs><linearGradient id="K" x1="162.511" y1="176.703" x2="167.778" y2="181.344" href="#B"><stop offset="0" stop-color="#a13e13"/><stop offset="1" stop-color="#bf7452"/></linearGradient></defs><path fill="url(#K)" transform="scale(2)" d="M178.112 163.493c.374-.112.624-.529.899-.808l.862.401c-.925 3.218-1.915 6.397-3.705 9.256-3.581 5.722-13.774 14.16-19.75 17.452-.053.03-.106.059-.162.082-1.937 1.482-4.977 2.392-6.496 4.266l-.203-.371-.162.17-.213-.275c-.032-.801.035-1.504.179-2.292 9.455-4.854 18.845-11.943 24.843-20.834 1.502-2.228 2.512-4.753 3.908-7.047z"/><path d="M299.114 387.542c.204-.754.414-1.784.876-2.418 1.33-1.826 10.36-4.9 12.522-5.372-3.874 2.964-9.954 4.784-12.992 8.532l-.406-.742z" class="G"/><path d="M250.884 108.573c15.86-3.542 35.472-4.973 49.798 4.187 19.388 12.395 31.768 35.079 39.748 56.1 2.302 6.059 3.778 12.416 6.336 18.38l-.348.26c-3.52-2.785-7.348-5.52-10.596-8.611.032-.284.04-.287.034-.611-.002-.168-19.722-33.853-21.482-36.378-2.58-3.702-5.564-7.029-8.776-10.191-13.786-13.572-23.962-17.832-42.696-21.117-3.95-.693-8.038-2.047-12.018-2.018z" class="D"/><defs><linearGradient id="L" x1="159.127" y1="220.875" x2="172.537" y2="252.096" href="#B"><stop offset="0" stop-color="#c9271b"/><stop offset="1" stop-color="#f33d3c"/></linearGradient></defs><path fill="url(#L)" transform="scale(2)" d="M128.316 229.878c4.329-1.691 8.646-3.524 12.649-5.902 4.099-2.435 9.071-6.9 13.583-8.184 1.813 1.029 3.159 2.388 4.561 3.907 2.386.872 4.687 2.062 7 3.115 5.565 2.531 10.88 4.917 15.942 8.41.814.39 1.698.744 2.364 1.366 1.83 1.323 3.787 2.606 5.327 4.27l-.015.126c4.012 4.034 5.577 7.464 6.623 13.014h-13.475-2.391-1.691-12.483-2.473-9.324-2.593-.287-5.51-2.143-5.291c.239-1.275 1.323-1.917 1.51-3.039-.151-.721-.827-1.135-1.37-1.572l-.545-.193-.06-.159c-.606-.127-1.263-.701-1.779-1.047l.044-.149c-1.783-1.174-3.163-3.3-4.385-5.017q-1.455-1.595-2.637-3.403-1.182-1.807-2.059-3.78c-.301-.221-.891-.325-1.257-.443l.252-.785c.18-.145.365-.301.563-.421.593-.358.711-.292 1.35-.114z"/><path d="M358.408 483.676c-.292-2.002-.512-3.852.058-5.832.48-1.668 1.246-3.18 2.816-4.04l1.014.558-1.678 7.794-2.21 1.52z" class="E"/><path d="M326.12 492.278l3.802.73c1.152 2.196 2.66 3.68 2.686 6.24l.014.47-.002.282h-4.946l-1.554-7.722z" class="Q"/><path d="M323.468 447.326c.398.094.758.186 1.136.35 2.164.938 3.958 2.652 4.782 4.866-.118 1.392-.222 1.412-1.216 2.414-1.51-.078-3.818-.068-5.118-.934-.796-.532-1.232-1-1.398-1.946-.29-1.63.992-3.432 1.814-4.75z" class="M"/><path fill="#f8ae79" d="M312.95 461.766c1.474 2.502 3.596 5.394 2.8 8.436-.302 1.158-.866 1.974-1.944 2.536-1.36.708-3.032.488-4.51.398l-1.23-.838 1.31-4.778c1.086-2.032 2.178-3.91 3.574-5.754z"/><path d="M303.894 493.01c1.544-2.396 3.952-3.542 6.686-4.124 2.424-.516 5.26-.75 7.586.244l.084.692c-.434.262-1.374.99-1.826.902-.88-.17-1.846-.288-2.618.246-2.33 1.614-3.482 4.938-4.734 7.414l-2.024-2.312c-1.086-1.522-1.426-2.28-3.154-3.062z" class="K"/><path d="M343.712 462.258c.308.032.472.03.752.122 1.266.418 2.54 2.132 3.068 3.318.602 1.354.504 3.396-.168 4.728-.566 1.118-2.37 1.676-3.474 2.12-.882.04-2.038.19-2.858-.172-.928-.412-1.03-.942-1.426-1.806.014-3.158 2.354-5.852 4.106-8.31z" class="a"/><path d="M326.12 492.278c-1.512-.762-2.622-1.374-3.7-2.706l-.254-1.09c.978-1.564 2.064-2.11 3.87-2.512 2.114-.47 5.558-.71 7.466.546.996.656 1.024.964 1.394 2.05-.286 1.172-.788 2.384-1.86 3.046-.946.584-2.08.99-3.114 1.396-1.26-.152-2.554-.484-3.802-.73z" class="I"/><path d="M364.102 462.448c1.628.78 3.396 1.488 4.728 2.732 3.66 2.646 7.574 5.212 10.654 8.54l-.03.252-.472.124c-3.064.79-6.218.104-8.712 2.324-3.634 7.372-3.806 15.524-4.52 23.58h-4.782-3.382c.166-3.214-.458-14.302.822-16.324l2.21-1.52c.344-2.608 1.09-5.228 1.678-7.794.464-.742 1.188-1.404 1.78-2.056.244-.372.502-.804.612-1.24.484-1.95.452-6.882-.586-8.618z" class="G"/><path d="M366.57 467.924c1.074 1.038 2.156 2.134 2.206 3.728.042 1.268-.174 2.574-.318 3.834-.054.468-.044.284.016.802-.39.544-.804.952-1.298 1.394l-.76-.482c-.826-2.638-.744-6.67.154-9.276z" class="I"/><path d="M362.296 474.362c.464-.742 1.188-1.404 1.78-2.056.01 2.986.222 7.88-.848 10.576-1.094-.892-1.18-.788-2.61-.726.344-2.608 1.09-5.228 1.678-7.794z" class="L"/><path d="M368.83 465.18c3.66 2.646 7.574 5.212 10.654 8.54l-.03.252-.472.124c-3.064.79-6.218.104-8.712 2.324-.862-.448-.896-.35-1.796-.132-.06-.518-.07-.334-.016-.802.144-1.26.36-2.566.318-3.834-.05-1.594-1.132-2.69-2.206-3.728l2.26-2.744z" class="K"/><path d="M360.618 482.156c1.43-.062 1.516-.166 2.61.726-.802 5.696-1.68 11.394-2.26 17.118h-3.382c.166-3.214-.458-14.302.822-16.324l2.21-1.52z" class="I"/><path d="M295.618 480.304c1.068-1.156 1.6-1.938 3.166-2.236.204 3.912 3.008 7.274 3.176 10.972.626.762 1.246 1.474 1.972 2.142-.63 1.004-1.374 2.02-1.844 3.106l1.806-1.278c1.728.782 2.068 1.54 3.154 3.062l2.024 2.312-.046 1.616h-5.186-.574-11.02-4.286-10.582c.478-2.55 2.646-3.834 3.02-6.078-.302-1.442-1.654-2.27-2.74-3.144l-1.09-.386-.12-.318c2.452-2.174 5.536-.96 8.406-3.33 1.89-.466 3.766-1.11 5.632-1.67 1.892-1.172 3.552-3.194 5.132-4.77z" class="T"/><path d="M287.96 500q-.72-1-1.398-2.03c-.912-1.412-1.494-2.624-1.144-4.274.882-.34 1.3-.254 2.198.004 1.136 1.892 2.442 3.62 4.044 5.148l.586 1.152h-4.286z" class="L"/><path d="M291.66 498.848c.764-1.088 1.53-2.264 2.74-2.898 1.536-.806 2.92-.406 4.448.102-.088 1.322-.2 1.754.486 2.938 1.194.236 2.242.318 3.456.302l.476.708h-11.02l-.586-1.152z" class="K"/><path d="M284.854 486.744l5.632-1.67c-1.352 1.89-2.136 3.704-2.92 5.868-4.324.646-4.9-1.786-9.908-.164l-1.09-.386-.12-.318c2.452-2.174 5.536-.96 8.406-3.33z" class="E"/><path d="M303.894 493.01c1.728.782 2.068 1.54 3.154 3.062l2.024 2.312-.046 1.616h-5.186-.574l-.476-.708c-1.214.016-2.262-.066-3.456-.302-.686-1.184-.574-1.616-.486-2.938 1.124-.394 2.208-1.162 3.24-1.764l1.806-1.278z" class="L"/><path d="M303.84 500l.08-.42c.396-1.674 1.782-2.64 3.128-3.508l2.024 2.312-.046 1.616h-5.186z" class="I"/><path d="M295.618 480.304c1.068-1.156 1.6-1.938 3.166-2.236.204 3.912 3.008 7.274 3.176 10.972-3.838-.21-9.582.808-13.024 2.574l-1.37-.672c.784-2.164 1.568-3.978 2.92-5.868 1.892-1.172 3.552-3.194 5.132-4.77z" class="B"/><path d="M379.454 473.972C387.478 482.04 390.608 488.9 392.7 500h-26.95c.714-8.056.886-16.208 4.52-23.58 2.494-2.22 5.648-1.534 8.712-2.324l.472-.124z" class="M"/><defs><linearGradient id="M" x1="146.945" y1="214.238" x2="138.782" y2="242.404" href="#B"><stop offset="0" stop-color="#ecd8cc"/><stop offset="1" stop-color="#faf8ef"/></linearGradient></defs><path fill="url(#M)" transform="scale(2)" d="M128.316 229.878c4.329-1.691 8.646-3.524 12.649-5.902 4.099-2.435 9.071-6.9 13.583-8.184 1.813 1.029 3.159 2.388 4.561 3.907-.627 3.164-2.05 6.802-3.479 9.716.249.449.506 1.095.845 1.468-.698.922-1.244 1.861-1.787 2.877l-.655 2.389c-.499-.004-1.002-.043-1.486.091-.601.657-1.257.991-2.045 1.386-.318.461-.65 1.086-1.11 1.408-.783.149-1.049.54-1.583 1.118-.79.788-1.62 1.799-2.566 2.385-.933.28-1.871.602-2.816.835-1.435 1.185-2.977.578-4.203 1.665-.606-.127-1.263-.701-1.779-1.047l.044-.149c-1.783-1.174-3.163-3.3-4.385-5.017q-1.455-1.595-2.637-3.403-1.182-1.807-2.059-3.78c-.301-.221-.891-.325-1.257-.443l.252-.785c.18-.145.365-.301.563-.421.593-.358.711-.292 1.35-.114z"/><path d="M303.89 469.028c.47 1.146.86 2.262 1.204 3.452-1.202 1.314-2.514 1.982-4.09 2.772l-2.08-1.482 4.966-4.742z" class="G"/><path d="M306.732 465.652c.914 1.414 1.112 1.416 2.644 1.868l-1.31 4.778c-.998-.008-2.004-.086-2.972.182-.344-1.19-.734-2.306-1.204-3.452l2.842-3.376zm-12.852 11.532l5.044-3.414 2.08 1.482c-.636.922-1.3 2.172-2.22 2.816-1.566.298-2.098 1.08-3.166 2.236l-1.738-3.12z" class="R"/><path d="M311.26 458.83c.498.898 1.012 2.19 1.69 2.936-1.396 1.844-2.488 3.722-3.574 5.754-1.532-.452-1.73-.454-2.644-1.868l4.528-6.822z" class="F"/><path d="M284.118 483.154c3.148-2.146 6.486-4.03 9.762-5.97l1.738 3.12c-1.58 1.576-3.24 3.598-5.132 4.77-1.866.56-3.742 1.204-5.632 1.67.24-1.042.4-1.834.248-2.898l-.984-.692zm-31.312-22.328l1.126-.842c1.186-.716 1.422-.584 2.7-.228 2.776 5.228 5.34 10.834 8.74 15.67l-1.164 2.222q-2.91-3.19-5.274-6.806-2.364-3.614-4.118-7.56c-.602-.442-1.782-.65-2.514-.886l.504-1.57z" class="G"/><path d="M265.372 475.426c3.326 4.004 6.77 7.688 11.158 10.546 2.75-.532 5.078-1.632 7.588-2.818l.984.692c.152 1.064-.008 1.856-.248 2.898-2.87 2.37-5.954 1.156-8.406 3.33-1.212-.254-2.526-1.402-3.558-2.094l.088-.298c-3.566-2.348-6.326-6.6-8.77-10.034l1.164-2.222z" class="O"/></svg>