<?xml version="1.0" encoding="utf-8" ?>
<svg xmlns="http://www.w3.org/2000/svg" xmlns:xlink="http://www.w3.org/1999/xlink" width="571" height="571">
	<path fill="#3A3C38" transform="scale(2.284 2.284)" d="M212.082 113.042L214.104 111.765L213.633 116.201L212.082 113.042Z"/>
	<path fill="#3C2420" transform="scale(2.284 2.284)" d="M209.525 119.023L210.251 118.963C211.562 117.956 210.988 116.326 211.331 114.869L211.381 114.666C211.491 116.205 212.778 119.649 212.572 120.552C211.982 120.659 211.671 120.575 211.157 120.242C210.589 119.875 210.111 119.354 209.525 119.023Z"/>
	<path fill="#32100D" transform="scale(2.284 2.284)" d="M84.4637 186.602L86.2675 186.517C87.213 187.845 88.3346 189.899 90.1119 190.166C90.5561 190.233 91.0141 190.244 91.4627 190.253C91.9361 190.507 92.4054 190.788 92.9117 190.971C92.644 191.264 92.3698 191.592 92.0615 191.842C91.5607 192.249 91.0369 192.285 90.4215 192.185C87.926 191.779 85.9142 188.493 84.4637 186.602Z"/>
	<defs>
		<linearGradient id="gradient_0" gradientUnits="userSpaceOnUse" x1="59.684162" y1="155.17595" x2="51.315838" y2="153.57405">
			<stop offset="0" stop-color="#9F4427"/>
			<stop offset="1" stop-color="#743D34"/>
		</linearGradient>
	</defs>
	<path fill="url(#gradient_0)" transform="scale(2.284 2.284)" d="M50.461 147.787C51.5295 148.322 51.9491 149.296 52.8151 150.057L53.1188 149.926L53.6503 150.401C54.783 152.514 56.0734 154.087 58.2185 155.244C58.1771 155.985 58.1375 156.562 58.6569 157.166C59.3597 157.982 60.5052 158.339 61.3227 159.033L59.7243 159.17L59.8544 159.311C60.2614 159.756 60.4518 160.054 60.5491 160.67C59.748 160.291 58.9893 159.68 58.2973 159.125C55.3003 156.721 50.9105 151.753 50.461 147.787Z"/>
	<path fill="#0F0808" transform="scale(2.284 2.284)" d="M153.098 193.367C154.413 193.036 155.963 192.03 157.204 191.422C156.899 192.008 156.617 192.277 156.756 192.946L157.831 193.779C157.052 193.899 156.118 193.906 155.557 194.52C154.644 197.03 155.441 202.253 155.594 205.068C155.095 205.517 154.781 205.371 154.133 205.336C153.909 205.324 153.691 205.298 153.469 205.267C153.136 201.285 152.93 197.363 153.098 193.367Z"/>
	<path fill="#591A12" transform="scale(2.284 2.284)" d="M155.594 205.068C156.098 208.433 156.162 211.905 157.751 214.999C157.427 216.357 157.469 217.344 158.289 218.533C158.405 218.701 158.396 218.684 158.513 218.808L158.539 218.951C157.977 219.53 157.49 220.041 156.799 220.461C156.569 220.601 156.494 220.766 156.379 221.001C156.572 218.556 154.61 214.596 154.102 211.986C153.895 209.729 153.538 207.544 153.469 205.267C153.691 205.298 153.909 205.324 154.133 205.336C154.781 205.371 155.095 205.517 155.594 205.068Z"/>
	<path fill="#67382E" transform="scale(2.284 2.284)" d="M54.4111 123.648L55.0817 123.463C55.0197 125.012 53.8559 126.932 53.2249 128.362C49.7772 136.175 49.9853 141.978 53.1188 149.926L52.8151 150.057C51.9491 149.296 51.5295 148.322 50.461 147.787C50.2378 147.257 50.0429 146.708 49.91 146.148C47.8095 137.3 49.9125 131.109 54.4111 123.648Z"/>
	<defs>
		<linearGradient id="gradient_1" gradientUnits="userSpaceOnUse" x1="96.949959" y1="197.74135" x2="107.1459" y2="191.80736">
			<stop offset="0" stop-color="#3D0003"/>
			<stop offset="1" stop-color="#620603"/>
		</linearGradient>
	</defs>
	<path fill="url(#gradient_1)" transform="scale(2.284 2.284)" d="M93.0904 189.124C96.0104 190.724 99.0452 192.04 102.036 193.496C105.094 194.984 108.072 196.655 111.332 197.675C110.639 199.185 111.768 200.122 110.787 200.938C105.416 200.061 99.4094 197.481 94.2251 195.692C94.2599 193.867 94.2072 192.351 92.9117 190.971C92.4054 190.788 91.9361 190.507 91.4627 190.253C92.2626 190.018 92.5916 189.791 93.0904 189.124Z"/>
	<path fill="#0F0808" transform="scale(2.284 2.284)" d="M168.404 183.316C169.047 183.664 169.133 183.67 169.423 184.33C168.884 188.354 168.625 193.639 165.118 196.335C164.425 196.867 163.576 197.168 162.767 197.475C160.848 196.554 158.992 195.68 157.831 193.779L156.756 192.946C156.617 192.277 156.899 192.008 157.204 191.422C161.315 189.335 165.2 186.636 168.404 183.316Z"/>
	<path fill="#446F77" transform="scale(2.284 2.284)" d="M184.755 230.078C193.305 234.145 201.378 241.644 205.749 250L202.416 250L191.429 250L190.145 250C192.277 247.404 194.437 244.832 196.38 242.089C194.002 239.994 190.88 238.404 188.722 236.166C190.378 235.967 192.473 238.826 193.952 239.51C193.996 239.531 194.041 239.549 194.086 239.568L194.1 239.618C194.167 238.97 194.103 238.141 193.867 237.531C193.102 235.551 188.999 233.676 187.167 232.823C186.042 232.3 185.166 231.235 184.755 230.078Z"/>
	<path fill="#AED9DC" transform="scale(2.284 2.284)" d="M191.429 250C193.221 247.54 194.922 244.866 197.047 242.689C199.398 244.866 200.758 247.294 202.416 250L191.429 250Z"/>
	<path fill="#305257" transform="scale(2.284 2.284)" d="M63.0609 250C71.1409 234.858 82.5989 228.887 97.5082 222.024C101.422 220.222 104.929 218.214 109.053 216.828C109.071 217.237 109.175 217.822 109.052 218.205C108.985 219.58 109.029 220.804 109.352 222.158C106.975 223.237 104.027 222.582 101.876 223.697L101.699 222.58C101.118 222.824 100.5 223.044 99.9517 223.354C84.0228 231.194 75.8719 233.625 66.2368 250L63.0609 250Z"/>
	<path fill="#AED9DC" transform="scale(2.284 2.284)" d="M101.699 222.58C103.692 220.635 106.573 219.41 109.052 218.205C108.985 219.58 109.029 220.804 109.352 222.158C106.975 223.237 104.027 222.582 101.876 223.697L101.699 222.58Z"/>
	<path fill="#0F0808" transform="scale(2.284 2.284)" d="M183.003 160.483C183.157 160.255 183.348 160.08 183.543 159.887L184.188 160.131C184.775 160.892 185.832 161.317 186.672 161.761C187.123 162.231 187.673 162.946 188.242 163.241C188.346 163.812 188.436 164.404 188.353 164.983C187.886 168.223 183.081 183.877 181.291 186.422C180.248 187.907 178.615 189.417 176.757 189.71C175.59 189.894 174.297 189.407 173.366 188.719C171.67 187.467 171.068 185.651 169.742 184.209L169.423 184.33C169.133 183.67 169.047 183.664 168.404 183.316C169.414 181.741 170.73 180.316 171.93 178.881C172.746 177.109 174.417 175.355 175.449 173.638C178.028 169.344 179.488 164.686 182.905 160.914L183.003 160.483Z"/>
	<path fill="#B54323" transform="scale(2.284 2.284)" d="M171.93 178.881C172.746 177.109 174.417 175.355 175.449 173.638C178.028 169.344 179.488 164.686 182.905 160.914C181.902 166.925 178.897 174.153 174.945 178.784C173.424 180.981 170.514 182.691 169.878 183.6C169.81 183.698 169.772 184.074 169.742 184.209L169.423 184.33C169.133 183.67 169.047 183.664 168.404 183.316C169.414 181.741 170.73 180.316 171.93 178.881Z"/>
	<path fill="#8E2B18" transform="scale(2.284 2.284)" d="M171.93 178.881L172.053 179.295C171.559 180.005 170.885 180.69 170.812 181.555C171.313 181.652 171.457 181.463 171.862 181.189C172.945 180.454 173.745 179.328 174.945 178.784C173.424 180.981 170.514 182.691 169.878 183.6C169.81 183.698 169.772 184.074 169.742 184.209L169.423 184.33C169.133 183.67 169.047 183.664 168.404 183.316C169.414 181.741 170.73 180.316 171.93 178.881Z"/>
	<defs>
		<linearGradient id="gradient_2" gradientUnits="userSpaceOnUse" x1="75.687546" y1="155.96085" x2="61.234142" y2="162.71239">
			<stop offset="0" stop-color="#540303"/>
			<stop offset="1" stop-color="#B13B1F"/>
		</linearGradient>
	</defs>
	<path fill="url(#gradient_2)" transform="scale(2.284 2.284)" d="M56.7391 119.981C58.4826 120.996 60.1053 123.902 60.9322 125.693C62.6959 128.172 63.9637 131.469 65.381 134.197C67.7675 137.245 67.0764 139.534 68.5767 142.397C68.9165 143.045 69.4598 143.648 70.1742 143.863C70.338 142.6 69.7971 141.432 69.654 140.19C69.3559 137.605 69.2352 134.716 69.5439 132.136C70.411 142.689 72.0689 160.398 76.1706 170.055Q77.0121 172.063 78.08 173.96Q79.1478 175.857 80.4278 177.619Q81.7077 179.38 83.1825 180.981Q84.6574 182.583 86.3074 184.003Q86.5945 184.249 86.8901 184.484C86.7266 184.989 86.5195 185.511 86.4206 186.032L86.2675 186.517L84.4637 186.602C81.9467 183.863 79.1774 180.271 77.2955 177.058C75.1883 174.709 71.7008 163.499 71.4843 163.358C70.8215 162.928 64.4014 163.153 60.5491 160.67C60.4518 160.054 60.2614 159.756 59.8544 159.311L59.7243 159.17L61.3227 159.033C60.5052 158.339 59.3597 157.982 58.6569 157.166C58.1375 156.562 58.1771 155.985 58.2185 155.244C56.0734 154.087 54.783 152.514 53.6503 150.401L53.1188 149.926C49.9853 141.978 49.7772 136.175 53.2249 128.362C53.8559 126.932 55.0197 125.012 55.0817 123.463L54.4111 123.648C55.216 122.483 56.1899 121.29 56.7391 119.981Z"/>
	<path fill="#591A12" transform="scale(2.284 2.284)" d="M77.2955 177.058C77.4898 177.122 77.8541 177.188 78.0139 177.295C78.9346 177.915 82.6578 184.215 83.8938 184.757C84.4484 185 85.3101 184.679 85.9915 184.997L86.4206 186.032L86.2675 186.517L84.4637 186.602C81.9467 183.863 79.1774 180.271 77.2955 177.058Z"/>
	<path fill="#8E2B18" transform="scale(2.284 2.284)" d="M60.9322 125.693C62.6959 128.172 63.9637 131.469 65.381 134.197C65.8491 135.471 66.3483 137.171 66.2879 138.533C65.4962 138.56 61.5849 131.099 59.0924 129.686C59.5402 129.091 59.494 127.732 59.7288 126.983C59.9571 126.253 60.2949 126.054 60.9322 125.693Z"/>
	<path fill="#DE956A" transform="scale(2.284 2.284)" d="M53.6503 150.401C53.6759 149.618 53.6545 148.95 54.0848 148.267L54.5213 148.074C57.7553 150.268 60.2748 151.65 64.161 152.325C66.3857 152.012 67.7431 150.049 69.5069 149.809C69.7478 151.491 70.0245 153.148 70.378 154.81C70.6154 155.88 70.8075 156.992 71.1897 158.02C71.6112 158.925 71.8582 159.361 71.6486 160.372C70.9993 161.035 70.5021 161.237 69.5596 161.255C66.3728 161.314 64.1849 160.064 61.3227 159.033C60.5052 158.339 59.3597 157.982 58.6569 157.166C58.1375 156.562 58.1771 155.985 58.2185 155.244C56.0734 154.087 54.783 152.514 53.6503 150.401Z"/>
	<path fill="#D25D33" transform="scale(2.284 2.284)" d="M64.161 152.325C66.3857 152.012 67.7431 150.049 69.5069 149.809C69.7478 151.491 70.0245 153.148 70.378 154.81C68.2403 154.136 66.3988 152.837 64.161 152.325Z"/>
	<path fill="#B54323" transform="scale(2.284 2.284)" d="M58.2185 155.244C60.7778 156.338 68.2988 159.272 70.8272 158.641L71.1897 158.02C71.6112 158.925 71.8582 159.361 71.6486 160.372C70.9993 161.035 70.5021 161.237 69.5596 161.255C66.3728 161.314 64.1849 160.064 61.3227 159.033C60.5052 158.339 59.3597 157.982 58.6569 157.166C58.1375 156.562 58.1771 155.985 58.2185 155.244Z"/>
	<defs>
		<linearGradient id="gradient_3" gradientUnits="userSpaceOnUse" x1="70.592911" y1="138.20848" x2="51.490376" y2="135.09073">
			<stop offset="0" stop-color="#A41808"/>
			<stop offset="1" stop-color="#C95C3F"/>
		</linearGradient>
	</defs>
	<path fill="url(#gradient_3)" transform="scale(2.284 2.284)" d="M56.7391 119.981C58.4826 120.996 60.1053 123.902 60.9322 125.693C60.2949 126.054 59.9571 126.253 59.7288 126.983C59.494 127.732 59.5402 129.091 59.0924 129.686C57.3797 132.037 56.2451 134.178 55.6779 137.057C56.927 136.638 59.5068 135.432 60.7801 136.014C61.6117 136.395 68.8125 147.494 69.3189 149.086C69.3949 149.325 69.454 149.564 69.5069 149.809C67.7431 150.049 66.3857 152.012 64.161 152.325C60.2748 151.65 57.7553 150.268 54.5213 148.074L54.0848 148.267C53.6545 148.95 53.6759 149.618 53.6503 150.401L53.1188 149.926C49.9853 141.978 49.7772 136.175 53.2249 128.362C53.8559 126.932 55.0197 125.012 55.0817 123.463L54.4111 123.648C55.216 122.483 56.1899 121.29 56.7391 119.981Z"/>
	<path fill="#E6EDE5" transform="scale(2.284 2.284)" d="M157.751 214.999C159.991 217.355 164.12 218.277 167.024 219.761C172.51 222.565 179.909 226.317 184.755 230.078C185.166 231.235 186.042 232.3 187.167 232.823C188.999 233.676 193.102 235.551 193.867 237.531C194.103 238.141 194.167 238.97 194.1 239.618L194.086 239.568C194.041 239.549 193.996 239.531 193.952 239.51C192.473 238.826 190.378 235.967 188.722 236.166C190.88 238.404 194.002 239.994 196.38 242.089C194.437 244.832 192.277 247.404 190.145 250L66.2368 250C75.8719 233.625 84.0228 231.194 99.9517 223.354C100.5 223.044 101.118 222.824 101.699 222.58L101.876 223.697C102.367 228.855 104.01 232.643 108.062 235.983C112.001 239.229 117.103 241.481 122.227 241.808C127.609 241.838 133.041 241.658 138.423 241.527C146.395 241.334 156.148 237.242 161.65 231.416C163.296 229.672 165.757 226.215 165.616 223.754C165.561 222.79 165.038 222.463 164.392 221.856C162.7 220.686 160.861 219.685 159.09 218.636L158.513 218.808C158.396 218.684 158.405 218.701 158.289 218.533C157.469 217.344 157.427 216.357 157.751 214.999Z"/>
	<defs>
		<linearGradient id="gradient_4" gradientUnits="userSpaceOnUse" x1="104.11986" y1="227.82964" x2="99.541855" y2="226.21257">
			<stop offset="0" stop-color="#3B5454"/>
			<stop offset="1" stop-color="#336870"/>
		</linearGradient>
	</defs>
	<path fill="url(#gradient_4)" transform="scale(2.284 2.284)" d="M99.9517 223.354C100.5 223.044 101.118 222.824 101.699 222.58L101.876 223.697C102.367 228.855 104.01 232.643 108.062 235.983C112.001 239.229 117.103 241.481 122.227 241.808L122.327 242.149C121.789 242.566 120.798 242.483 120.125 242.515C115.567 242.4 110.316 239.187 106.95 236.336C102.872 232.882 100.41 228.703 99.9517 223.354Z"/>
	<path fill="#305257" transform="scale(2.284 2.284)" d="M157.751 214.999C159.991 217.355 164.12 218.277 167.024 219.761C172.51 222.565 179.909 226.317 184.755 230.078C185.166 231.235 186.042 232.3 187.167 232.823C188.999 233.676 193.102 235.551 193.867 237.531C194.103 238.141 194.167 238.97 194.1 239.618L194.086 239.568C194.041 239.549 193.996 239.531 193.952 239.51C192.473 238.826 190.378 235.967 188.722 236.166C185.527 234.509 182.491 232.217 179.394 230.356C175.995 228.314 172.107 226.511 168.937 224.16L167.722 223.653C166.864 224.03 165.919 227.132 165.354 228.096C160.769 235.933 150.084 241.368 141.284 242.419C137.776 242.837 134.204 242.492 130.688 242.346C127.194 242.2 123.521 243.406 120.125 242.515C120.798 242.483 121.789 242.566 122.327 242.149L122.227 241.808C127.609 241.838 133.041 241.658 138.423 241.527C146.395 241.334 156.148 237.242 161.65 231.416C163.296 229.672 165.757 226.215 165.616 223.754C165.561 222.79 165.038 222.463 164.392 221.856C162.7 220.686 160.861 219.685 159.09 218.636L158.513 218.808C158.396 218.684 158.405 218.701 158.289 218.533C157.469 217.344 157.427 216.357 157.751 214.999Z"/>
	<path fill="#E6EDE5" transform="scale(2.284 2.284)" d="M111.332 197.675C111.37 197.689 111.407 197.703 111.445 197.716C122.158 201.18 133.661 201.441 144.292 197.498C147.339 196.368 150.213 194.85 153.098 193.367C152.93 197.363 153.136 201.285 153.469 205.267C153.538 207.544 153.895 209.729 154.102 211.986C154.61 214.596 156.572 218.556 156.379 221.001C156.494 220.766 156.569 220.601 156.799 220.461C157.49 220.041 157.977 219.53 158.539 218.951L158.513 218.808L159.09 218.636C160.861 219.685 162.7 220.686 164.392 221.856C165.038 222.463 165.561 222.79 165.616 223.754C165.757 226.215 163.296 229.672 161.65 231.416C156.148 237.242 146.395 241.334 138.423 241.527C133.041 241.658 127.609 241.838 122.227 241.808C117.103 241.481 112.001 239.229 108.062 235.983C104.01 232.643 102.367 228.855 101.876 223.697C104.027 222.582 106.975 223.237 109.352 222.158C109.029 220.804 108.985 219.58 109.052 218.205C109.175 217.822 109.071 217.237 109.053 216.828C110.166 216.398 111.175 215.673 112.181 215.039C112.462 214.823 112.576 214.579 112.674 214.246C113.256 212.275 112.743 202.853 111.676 201.123L110.787 200.938C111.768 200.122 110.639 199.185 111.332 197.675Z"/>
	<path fill="#32100D" transform="scale(2.284 2.284)" d="M156.379 221.001C156.494 220.766 156.569 220.601 156.799 220.461C157.49 220.041 157.977 219.53 158.539 218.951C158.817 219.602 159.007 220.151 158.72 220.853C158.536 221.302 158.285 221.734 158.044 222.154L156.543 221.285L156.379 221.001Z"/>
	<path fill="#3A3C38" transform="scale(2.284 2.284)" d="M123.563 231.025C128.209 232.296 132.226 232.783 136.99 231.839C137.106 232.133 137.188 232.46 137.451 232.655C132.274 234.685 126.545 233.22 121.509 231.524C122.124 231.602 122.624 231.63 123.244 231.52L123.563 231.025Z"/>
	<path fill="#0F0808" transform="scale(2.284 2.284)" d="M156.543 221.285L158.044 222.154C153.505 227.478 144.107 230.718 137.451 232.655C137.188 232.46 137.106 232.133 136.99 231.839C142.971 230.063 153.176 226.684 156.543 221.285Z"/>
	<defs>
		<linearGradient id="gradient_5" gradientUnits="userSpaceOnUse" x1="136.26488" y1="206.91997" x2="130.33585" y2="232.15137">
			<stop offset="0" stop-color="#C85F3C"/>
			<stop offset="1" stop-color="#D8885E"/>
		</linearGradient>
	</defs>
	<path fill="url(#gradient_5)" transform="scale(2.284 2.284)" d="M111.757 217.089C114 217.432 116.282 218.545 118.481 219.183C126.61 221.542 134.85 219.478 142.059 215.438C145.139 213.711 148 211.633 151.107 209.924L151.236 209.964C152.753 210.437 153.358 210.572 154.102 211.986C154.61 214.596 156.572 218.556 156.379 221.001L156.543 221.285C153.176 226.684 142.971 230.063 136.99 231.839C132.226 232.783 128.209 232.296 123.563 231.025L123.244 231.52C122.624 231.63 122.124 231.602 121.509 231.524C116.488 229.429 111.83 227.298 109.352 222.158C109.029 220.804 108.985 219.58 109.052 218.205C109.175 217.822 109.071 217.237 109.053 216.828C110.166 216.398 111.175 215.673 112.181 215.039C112.386 215.344 112.646 215.55 112.562 215.926C112.455 216.4 112.077 216.743 111.757 217.089Z"/>
	<path fill="#0F0808" transform="scale(2.284 2.284)" d="M109.053 216.828C110.166 216.398 111.175 215.673 112.181 215.039C112.386 215.344 112.646 215.55 112.562 215.926C112.455 216.4 112.077 216.743 111.757 217.089C110.849 217.698 110.377 218.466 110.147 219.54C109.887 220.753 110.402 221.874 111.067 222.858C113.783 226.881 118.972 229.766 123.563 231.025L123.244 231.52C122.624 231.63 122.124 231.602 121.509 231.524C116.488 229.429 111.83 227.298 109.352 222.158C109.029 220.804 108.985 219.58 109.052 218.205C109.175 217.822 109.071 217.237 109.053 216.828Z"/>
	<defs>
		<linearGradient id="gradient_6" gradientUnits="userSpaceOnUse" x1="129.53273" y1="193.06741" x2="136.1124" y2="217.78854">
			<stop offset="0" stop-color="#780603"/>
			<stop offset="1" stop-color="#B73C20"/>
		</linearGradient>
	</defs>
	<path fill="url(#gradient_6)" transform="scale(2.284 2.284)" d="M111.332 197.675C111.37 197.689 111.407 197.703 111.445 197.716C122.158 201.18 133.661 201.441 144.292 197.498C147.339 196.368 150.213 194.85 153.098 193.367C152.93 197.363 153.136 201.285 153.469 205.267C153.538 207.544 153.895 209.729 154.102 211.986C153.358 210.572 152.753 210.437 151.236 209.964L151.107 209.924C148 211.633 145.139 213.711 142.059 215.438C134.85 219.478 126.61 221.542 118.481 219.183C116.282 218.545 114 217.432 111.757 217.089C112.077 216.743 112.455 216.4 112.562 215.926C112.646 215.55 112.386 215.344 112.181 215.039C112.462 214.823 112.576 214.579 112.674 214.246C113.256 212.275 112.743 202.853 111.676 201.123L110.787 200.938C111.768 200.122 110.639 199.185 111.332 197.675Z"/>
	<defs>
		<linearGradient id="gradient_7" gradientUnits="userSpaceOnUse" x1="123.35662" y1="147.1713" x2="132.33212" y2="7.1942053">
			<stop offset="0" stop-color="#0C0C12"/>
			<stop offset="1" stop-color="#4F2A23"/>
		</linearGradient>
	</defs>
	<path fill="url(#gradient_7)" transform="scale(2.284 2.284)" d="M142.7 17.4404C140.986 15.0239 139.152 12.0559 138.878 9.03514C138.809 8.27313 138.903 7.73069 139.402 7.11903C142.082 6.59203 158.688 13.2232 161.735 14.8522C171.111 19.8655 177.781 25.8067 180.926 36.2288C190.085 33.0424 200.22 33.2293 209.484 36.0515C208.747 37.6628 207.974 38.8925 206.721 40.1676C202.683 44.2773 198.474 46.1877 192.731 46.2455C199.209 48.8508 204.165 53.1077 208.12 58.8115C214.25 67.6529 215.464 78.3198 214.628 88.8296C214.411 91.5584 213.69 94.2759 213.678 97.017C213.656 102.042 215.023 106.686 214.104 111.765L212.082 113.042C211.645 112.14 211.237 111.2 210.741 110.331C210.892 111.796 211.043 113.229 211.381 114.666L211.331 114.869C210.988 116.326 211.562 117.956 210.251 118.963L209.525 119.023C208.528 118.912 207.843 119.365 207.094 119.975C206.436 120.51 205.664 121.253 205.554 122.128C205.548 122.171 205.546 122.214 205.542 122.258C210.132 129.771 213.068 135.935 210.916 144.98C210.489 146.775 209.889 148.758 209.077 150.413C205.989 156.693 199.805 161.05 193.225 163.275C190.884 164.066 190.463 163.983 188.242 163.241C187.673 162.946 187.123 162.231 186.672 161.761C185.832 161.317 184.775 160.892 184.188 160.131L183.543 159.887C183.348 160.08 183.157 160.255 183.003 160.483L182.905 160.914C179.488 164.686 178.028 169.344 175.449 173.638C174.417 175.355 172.746 177.109 171.93 178.881C170.73 180.316 169.414 181.741 168.404 183.316C165.2 186.636 161.315 189.335 157.204 191.422C155.963 192.03 154.413 193.036 153.098 193.367C150.213 194.85 147.339 196.368 144.292 197.498C133.661 201.441 122.158 201.18 111.445 197.716C111.407 197.703 111.37 197.689 111.332 197.675C108.072 196.655 105.094 194.984 102.036 193.496C99.0452 192.04 96.0104 190.724 93.0904 189.124C92.5916 189.791 92.2626 190.018 91.4627 190.253C91.0141 190.244 90.5561 190.233 90.1119 190.166C88.3346 189.899 87.213 187.845 86.2675 186.517L86.4206 186.032C86.5195 185.511 86.7266 184.989 86.8901 184.484Q86.5945 184.249 86.3074 184.003Q84.6574 182.583 83.1825 180.981Q81.7077 179.38 80.4278 177.619Q79.1478 175.857 78.08 173.96Q77.0121 172.063 76.1706 170.055C72.0689 160.398 70.411 142.689 69.5439 132.136C69.2352 134.716 69.3559 137.605 69.654 140.19C69.7971 141.432 70.338 142.6 70.1742 143.863C69.4598 143.648 68.9165 143.045 68.5767 142.397C67.0764 139.534 67.7675 137.245 65.381 134.197C63.9637 131.469 62.6959 128.172 60.9322 125.693C60.1053 123.902 58.4826 120.996 56.7391 119.981C55.4729 117.932 54.313 111.759 52.9252 110.639C51.2779 112.936 50.4607 115.334 47.7114 116.73C47.0672 117.057 46.6589 116.985 45.9996 116.774C45.3743 116.192 45.1915 115.603 45.068 114.786C44.6889 112.279 45.0716 109.32 45.1729 106.759C45.6776 94.0042 47.3815 90.7768 54.7913 80.6954C50.5755 81.8277 45.4976 82.7976 41.145 81.9332C40.3263 81.7707 39.3411 81.4678 38.8906 80.702C38.4186 79.8995 38.5564 78.8863 38.7977 78.0343C40.3607 72.5152 48.9691 63.3808 53.9665 60.5947C49.8812 59.5645 44.2464 56.8725 41.2499 53.8646C40.5984 53.2107 40.3586 52.7409 40.3625 51.8293C41.4139 50.1662 61.7021 44.723 64.8141 43.9947Q64.3828 43.8805 63.954 43.7576C58.3401 42.1485 53.2289 39.1068 50.3514 33.8814C49.9146 33.088 49.3284 32.0407 49.5977 31.1125C51.1868 30.2012 77.5719 30.9132 80.9188 31.3573C76.7031 26.9141 74.711 20.1808 74.9351 14.1275C74.957 13.5336 74.9729 13.4233 75.4054 13.025C87.7188 18.1727 95.7106 19.4824 108.609 21.8046C107.711 21.0731 106.847 20.3416 106.026 19.5218C105.469 17.5759 105.476 15.6054 105.429 13.5986C114.535 12.0967 122.905 13.226 131.876 14.8874C135.543 15.5667 139.166 16.2165 142.7 17.4404Z"/>
	<path fill="#32100D" transform="scale(2.284 2.284)" d="M119.786 43.8697C119.966 43.3713 122.085 42.228 122.629 41.9258C123.732 41.3126 124.236 41.015 125.482 41.371C123.769 42.6713 121.96 43.9358 120.04 44.9121L120.329 44.1761L119.786 43.8697Z"/>
	<path fill="#3C2420" transform="scale(2.284 2.284)" d="M157.344 55.4551C157.355 55.1978 157.371 54.9207 157.453 54.6751C157.732 53.8477 158.435 53.0524 158.814 52.2487C159.206 51.4191 159.393 49.841 160.051 49.2305C160.212 49.0812 160.519 48.951 160.714 48.8345C161.587 48.7264 162.081 49.0023 162.831 49.3989C161.612 50.5037 160.388 51.5934 159.344 52.8698C158.655 53.7122 158.108 54.6827 157.344 55.4551Z"/>
	<path fill="#67382E" transform="scale(2.284 2.284)" d="M167.906 50.9225C167.95 50.9558 167.995 50.9882 168.038 51.0225C168.821 51.6406 169.131 52.7896 169.985 53.1869C170.448 52.8355 170.534 52.457 170.654 51.8949C170.667 51.8305 170.671 51.7645 170.68 51.6993C171.398 52.6247 172.225 53.4374 172.048 54.698C172.041 54.7483 172.032 54.7983 172.024 54.8485C171.816 54.9295 171.68 55.0573 171.467 54.9615C169.803 54.2122 168.719 52.4876 167.541 51.1922C167.569 52.3774 167.605 53.5298 167.429 54.7075L167.795 55.4091C168.329 55.4488 168.918 55.4006 169.33 55.7792L169.362 56.1222C169.021 56.0976 168.733 56.0481 168.404 55.9489C168.041 55.8391 167.905 55.8828 167.544 55.8989C167.455 55.9029 167.366 55.8815 167.279 55.8644C167.247 55.8946 167.216 55.9261 167.182 55.9549C166.323 56.6955 164.073 57.1816 162.923 57.082C164.074 56.2567 166.039 56.4093 166.922 55.4904C167.236 54.8221 167.161 54.1906 167.143 53.4765C167.113 52.3326 167.079 51.7926 167.906 50.9225Z"/>
	<path fill="#0F0808" transform="scale(2.284 2.284)" d="M76.0937 100.016C75.9514 99.9737 75.8252 99.8573 75.7042 99.7721C76.564 98.4862 77.3981 97.2135 78.4372 96.0622C77.635 96.8657 76.8156 97.8507 75.8723 98.4785C77.1853 96.2994 78.9375 94.1396 80.4881 92.1035C80.9165 91.541 81.5119 91.0382 81.8787 90.4485L81.9619 90.3119C82.0678 90.6577 82.0591 90.676 82.3529 90.8809C82.8221 90.2455 83.2765 89.7176 83.8751 89.2012L84.3618 89.3256C81.3909 92.7386 78.9042 96.4845 76.0937 100.016Z"/>
	<path fill="#67382E" transform="scale(2.284 2.284)" d="M155.9 47.1797C156.492 46.1748 156.957 45.4229 157.116 44.2514C157.169 43.8625 157.26 43.3181 157.563 43.0365C157.675 42.9331 157.798 42.8807 157.93 42.8142C159.138 45.8526 156.347 52.8564 155.144 55.6661C154.87 56.3059 154.581 56.8884 154.159 57.4466L153.753 57.5724C153.088 57.0364 152.77 56.4375 152.38 55.6907C152.979 52.5983 155.234 50.1659 155.9 47.1797Z"/>
	<path fill="#996A52" transform="scale(2.284 2.284)" d="M167.573 80.1693C168.523 81.2937 168.698 90.5166 169.024 92.6277L166.314 91.375C165.39 90.9051 164.399 90.5488 163.437 90.1644C164.923 86.8916 166.197 83.4927 167.573 80.1693Z"/>
	<path fill="#3C2420" transform="scale(2.284 2.284)" d="M119.786 43.8697L120.329 44.1761L120.04 44.9121C117.427 46.5468 114.712 47.9358 111.969 49.3343C110.037 49.6678 107.661 51.3486 105.963 52.3393C103.384 54.7751 100.644 57.0291 98.0753 59.4762C98.3469 60.8781 100.388 61.8652 100.266 63.2848L99.808 63.6448C99.2488 63.7104 98.8446 63.7554 98.298 63.5765C97.8282 62.615 97.4674 61.6405 97.1152 60.6326C96.0951 61.6868 94.9973 62.8789 93.7443 63.6467C94.6192 62.3417 97.2209 60.5831 97.4775 59.1059C96.1834 59.662 95.2111 60.7309 94.0909 61.5583C92.4134 62.7972 90.5645 64.0635 88.7322 65.0544C91.5733 62.5854 94.761 60.4851 97.7235 58.1448C100.036 56.1945 102.319 54.187 104.823 52.4803C105.262 51.9141 105.725 51.2511 106.311 50.8324C107.534 49.9574 109.12 49.4077 110.499 48.806C113.675 47.4208 117.038 46.0063 119.786 43.8697Z"/>
	<path fill="#DA7958" transform="scale(2.284 2.284)" d="M147.078 72.9289C147.474 72.0154 147.857 71.0945 148.326 70.2153C148.432 75.6642 149.161 80.9419 149.905 86.3279C149.258 86.2146 148.644 86.0038 148.022 85.8011C144.969 83.5733 146.681 78.4536 144.305 75.7547C145.324 74.8612 146.223 73.9853 147.078 72.9289Z"/>
	<path fill="#B54323" transform="scale(2.284 2.284)" d="M147.078 72.9289C147.007 75.557 147.045 78.1145 147.356 80.73C147.553 82.3854 147.977 84.1438 148.022 85.8011C144.969 83.5733 146.681 78.4536 144.305 75.7547C145.324 74.8612 146.223 73.9853 147.078 72.9289Z"/>
	<path fill="#3C2420" transform="scale(2.284 2.284)" d="M152.38 55.6907C152.282 55.3492 152.099 55.0959 151.903 54.8062L151.492 54.7749C149.81 56.1454 148.995 59.2223 147.516 60.9606C146.577 62.0635 145.228 62.8837 143.745 62.9339C143.12 62.955 142.384 62.5988 141.957 62.1496C141.49 61.6583 141.53 61.2759 141.587 60.6634C143.365 57.8002 146.353 56.5679 148.698 54.3154C150.363 52.7163 151.332 50.5002 153.064 48.9407C153.935 48.1559 154.84 47.6618 155.9 47.1797C155.234 50.1659 152.979 52.5983 152.38 55.6907Z"/>
	<path fill="#8E2B18" transform="scale(2.284 2.284)" d="M162.831 49.3989C164.14 48.4715 166.084 46.7379 167.734 46.6418C168.313 46.9666 168.362 47.1013 168.682 47.6947C169.384 49.0157 170.082 50.3272 170.68 51.6993C170.671 51.7645 170.667 51.8305 170.654 51.8949C170.534 52.457 170.448 52.8355 169.985 53.1869C169.131 52.7896 168.821 51.6406 168.038 51.0225C167.995 50.9882 167.95 50.9558 167.906 50.9225C167.079 51.7926 167.113 52.3326 167.143 53.4765C167.161 54.1906 167.236 54.8221 166.922 55.4904C166.039 56.4093 164.074 56.2567 162.923 57.082C160.866 58.2149 158.074 58.2031 155.8 58.1748C156.297 57.2573 156.876 56.3902 157.344 55.4551C158.108 54.6827 158.655 53.7122 159.344 52.8698C160.388 51.5934 161.612 50.5037 162.831 49.3989Z"/>
	<path fill="#67382E" transform="scale(2.284 2.284)" d="M125.482 41.371C126.293 41.0921 127.611 40.7715 128.414 41.1599C129.573 41.7203 129.411 43.6492 131.307 43.1966C132.005 43.03 132.866 42.3002 133.467 41.8932L135.945 41.843C136.897 42.6438 138.855 44.8716 139.997 44.999C140.741 44.7805 141.173 44.5208 141.55 43.8267C141.676 43.5948 141.786 43.3557 141.907 43.1214C141.988 42.9636 142.094 42.8525 142.224 42.7349C142.772 42.4039 143.07 42.218 143.738 42.4196C144.265 42.5788 144.791 42.8629 145.287 43.1023C147.064 42.8904 148.528 42.7712 150.285 43.2475C151.152 43.4825 151.902 43.8093 152.817 43.8536L153.238 44.0677C153.722 43.6326 153.778 43.4867 153.99 42.8646L153.74 42.0524C153.974 42.2585 154.179 42.3467 154.208 42.676C154.327 44.0502 151.781 46.5465 150.873 47.507C149.01 49.4774 146.901 50.9506 144.683 52.4816C143.681 51.438 142.891 50.1465 141.358 50.0871C141.692 48.5547 145.949 46.5663 145.194 45.1834C144.897 45.0915 144.599 44.9738 144.289 44.9469L144.091 45.0431C142.933 45.6167 140.181 48.7222 139.633 48.8442C137.836 49.2447 134.71 47.657 132.385 47.9969C132.138 48.0331 131.902 48.0161 131.654 48.0048C131.979 47.4203 132.504 46.7705 133.154 46.5252L132.883 45.3274C132.235 45.3621 131.874 45.288 131.403 45.82C131.177 46.0753 130.997 46.4416 130.826 46.7371C130.092 47.2339 125.787 48.0025 124.867 47.845C124.713 47.8187 124.569 47.776 124.422 47.7248C125.579 46.9258 128.147 47.1195 129.65 46.533C127.69 45.5246 124.039 45.9453 122.741 44.47L122.789 43.8773C119.758 44.7068 114.779 49.4019 111.969 49.3343C114.712 47.9358 117.427 46.5468 120.04 44.9121C121.96 43.9358 123.769 42.6713 125.482 41.371Z"/>
	<path fill="#591A12" transform="scale(2.284 2.284)" d="M132.883 45.3274C132.986 44.6545 133.029 44.2001 133.562 43.7141L134.186 43.5663L134.556 43.8779C134.592 44.7137 134.448 45.1512 133.877 45.7796Q133.524 46.1608 133.154 46.5252L132.883 45.3274Z"/>
	<path fill="#591A12" transform="scale(2.284 2.284)" d="M145.287 43.1023C147.064 42.8904 148.528 42.7712 150.285 43.2475C151.152 43.4825 151.902 43.8093 152.817 43.8536C150.894 44.0071 148.805 44.8107 146.887 44.3938C145.999 44.2009 145.747 43.8178 145.287 43.1023Z"/>
	<path fill="#B54323" transform="scale(2.284 2.284)" d="M84.3618 89.3256C85.0813 88.6721 85.8464 87.9291 86.7253 87.5008C89.0442 86.3709 91.7371 85.7891 94.216 85.0972C100.528 83.3353 107.196 81.9599 113.215 79.3502C112.037 82.1454 107.758 88.5381 107.574 90.9483C102.834 89.3887 95.3167 88.5376 90.6767 90.8724C85.7635 93.3447 79.4165 98.9387 77.1147 104.011C77.1628 104.265 77.1919 104.482 77.3108 104.715C76.2773 106.463 73.8022 109.476 72.4312 111.118C72.4824 107.124 74.1666 103.419 76.0937 100.016C78.9042 96.4845 81.3909 92.7386 84.3618 89.3256Z"/>
	<path fill="#DD774A" transform="scale(2.284 2.284)" d="M109.419 91.6675C110.5 91.0587 115.447 90.3822 117.206 89.831C127.167 86.7098 136.142 82.2678 144.305 75.7547C146.681 78.4536 144.969 83.5733 148.022 85.8011C148.644 86.0038 149.258 86.2146 149.905 86.3279L150.265 87.6656C150.17 87.7944 150.106 87.9549 149.979 88.0521C149.398 88.4941 146.582 88.6008 145.734 88.7809C141.579 89.6639 136.996 92.6698 137.651 97.4645C137.787 98.4566 138.088 99.4667 138.895 100.121C139.785 100.843 141.161 100.88 142.24 100.712C143.622 100.497 145.064 100.02 146.458 99.9946C150.174 99.2731 167.013 100.238 170.557 101.269C172.649 103.655 175.992 107.661 176.904 110.674C177.85 110.741 178.652 110.716 179.375 111.397C181.962 113.133 183.738 114.092 184.655 117.248C185.834 120.577 186.759 123.89 187.129 127.413C187.365 129.659 187.348 132.052 187.858 134.249C187.943 134.612 187.914 134.593 188.237 134.756C188.317 134.637 188.484 134.441 188.528 134.297C190.576 129.845 192.637 124.691 197.05 122.083C198.832 121.963 201.08 121.741 202.751 122.467C203.565 122.82 204.055 123.628 204.94 123.703C205.413 123.275 205.449 122.853 205.542 122.258C210.132 129.771 213.068 135.935 210.916 144.98C210.489 146.775 209.889 148.758 209.077 150.413C205.989 156.693 199.805 161.05 193.225 163.275C190.884 164.066 190.463 163.983 188.242 163.241C187.673 162.946 187.123 162.231 186.672 161.761C185.832 161.317 184.775 160.892 184.188 160.131L183.543 159.887C183.348 160.08 183.157 160.255 183.003 160.483L182.905 160.914C179.488 164.686 178.028 169.344 175.449 173.638C174.417 175.355 172.746 177.109 171.93 178.881C170.73 180.316 169.414 181.741 168.404 183.316C165.2 186.636 161.315 189.335 157.204 191.422C155.963 192.03 154.413 193.036 153.098 193.367C150.213 194.85 147.339 196.368 144.292 197.498C133.661 201.441 122.158 201.18 111.445 197.716C111.407 197.703 111.37 197.689 111.332 197.675C108.072 196.655 105.094 194.984 102.036 193.496C99.0452 192.04 96.0104 190.724 93.0904 189.124C92.5916 189.791 92.2626 190.018 91.4627 190.253C91.0141 190.244 90.5561 190.233 90.1119 190.166C88.3346 189.899 87.213 187.845 86.2675 186.517L86.4206 186.032C86.5195 185.511 86.7266 184.989 86.8901 184.484Q86.5945 184.249 86.3074 184.003Q84.6574 182.583 83.1825 180.981Q81.7077 179.38 80.4278 177.619Q79.1478 175.857 78.08 173.96Q77.0121 172.063 76.1706 170.055C72.0689 160.398 70.411 142.689 69.5439 132.136Q70.2148 121.521 72.4312 111.118C73.8022 109.476 76.2773 106.463 77.3108 104.715C77.1919 104.482 77.1628 104.265 77.1147 104.011C79.4165 98.9387 85.7635 93.3447 90.6767 90.8724C95.3167 88.5376 102.834 89.3887 107.574 90.9483C108.215 91.4321 108.63 91.5728 109.419 91.6675Z"/>
	<path fill="#D25D33" transform="scale(2.284 2.284)" d="M133.552 137.943C133.924 137.966 134.291 138.062 134.655 138.139C135.022 138.696 134.949 138.967 134.933 139.615C134.722 139.545 134.484 139.474 134.294 139.356C133.672 138.973 133.685 138.591 133.552 137.943Z"/>
	<path fill="#D25D33" transform="scale(2.284 2.284)" d="M157.478 150.897C157.28 150.538 157.05 150.152 156.928 149.76C156.746 149.179 156.7 148.664 156.958 148.119C157.649 148.159 157.83 148.458 158.348 148.9C158.133 149.592 157.97 150.345 157.478 150.897Z"/>
	<path fill="#D25D33" transform="scale(2.284 2.284)" d="M149.734 151.449C150.363 151.725 150.903 151.97 151.433 152.418C151.409 152.464 151.385 152.512 151.361 152.558C150.946 153.347 150.664 153.651 149.83 153.902L149.431 153.54C149.214 152.765 149.477 152.177 149.734 151.449Z"/>
	<path fill="#D25D33" transform="scale(2.284 2.284)" d="M100.233 148.109C100.756 148.479 101.119 148.865 101.326 149.481C101.562 150.185 101.374 150.667 101.043 151.284C100.461 150.851 100.073 150.481 99.6686 149.874C99.6231 149.044 99.8345 148.821 100.233 148.109Z"/>
	<path fill="#B54323" transform="scale(2.284 2.284)" d="M186.755 148.049L186.886 148.871C185.985 149.837 185.647 151.654 185.334 152.912C185.178 152.38 185.051 152.333 184.635 151.99C185.023 150.136 185.363 149.376 186.755 148.049Z"/>
	<path fill="#D25D33" transform="scale(2.284 2.284)" d="M96.5297 148.764C96.888 148.184 96.9582 147.847 97.634 147.646C98.2718 148.097 98.7025 148.713 99.3019 149.184L99.3149 149.615C98.7454 150.088 98.5414 150.332 97.8016 150.467C97.2747 149.988 96.9141 149.357 96.5297 148.764Z"/>
	<path fill="#B54323" transform="scale(2.284 2.284)" d="M129.799 139.554C129.946 139.604 130.127 139.652 130.258 139.743C130.582 139.971 130.693 140.2 130.787 140.571C131.052 141.621 130.593 142.478 130.071 143.36C129.66 143.103 129.311 142.836 129.165 142.366C128.845 141.338 129.352 140.457 129.799 139.554Z"/>
	<path fill="#D25D33" transform="scale(2.284 2.284)" d="M82.4124 148.303C83.0155 148.413 83.5569 148.516 84.0134 148.955C84.7379 149.651 84.8089 150.573 84.8433 151.52C84.084 151.409 83.4298 151.372 82.8475 150.823C82.3332 150.059 82.4179 149.188 82.4124 148.303Z"/>
	<path fill="#D25D33" transform="scale(2.284 2.284)" d="M98.5455 152.244C98.8978 152.273 99.2533 152.303 99.6003 152.373C100.149 152.484 100.732 152.858 101.001 153.357C101.372 154.047 101.292 154.811 101.076 155.529C100.751 155.433 100.424 155.328 100.126 155.165C99.1843 154.65 98.8303 153.201 98.5455 152.244Z"/>
	<path fill="#D25D33" transform="scale(2.284 2.284)" d="M162.494 146.852C163.172 147.089 163.451 147.51 163.772 148.131C164.339 149.229 164.462 150.186 164.081 151.361C163.231 150.657 162.132 149.764 161.922 148.627C161.784 147.883 162.097 147.433 162.494 146.852Z"/>
	<path fill="#B54323" transform="scale(2.284 2.284)" d="M123.75 140.828C122.594 140.082 120.849 139.223 120.502 137.771C120.473 137.649 120.47 137.602 120.457 137.488C120.963 137.358 121.471 137.688 121.914 137.952C123.017 138.61 124.24 139.97 124.939 141.042C124.826 141.237 124.714 141.309 124.538 141.444L123.75 140.828Z"/>
	<path fill="#D25D33" transform="scale(2.284 2.284)" d="M123.75 140.828L124.538 141.444C124.714 141.309 124.826 141.237 124.939 141.042L125.108 141.717C124.112 143.207 120.873 143.085 119.407 144.028L119.434 143.811C119.558 142.798 119.694 142.14 119.041 141.307L119.502 141.179C119.962 141.724 119.648 142.361 120.03 143.02C121.148 142.996 122.035 141.958 123.098 141.578C123.41 141.466 123.564 141.1 123.75 140.828Z"/>
	<path fill="#591A12" transform="scale(2.284 2.284)" d="M86.598 138.588C87.8405 139.531 89.0185 140.439 90.5826 140.772C90.399 140.946 90.1082 141.32 89.8689 141.374C88.1493 141.761 86.3788 140.686 85.009 139.787C85.5562 139.442 86.0814 138.982 86.598 138.588Z"/>
	<path fill="#B54323" transform="scale(2.284 2.284)" d="M119.041 141.307C119.694 142.14 119.558 142.798 119.434 143.811L119.407 144.028C118.037 144.526 116.518 144.672 115.083 144.9C116.296 143.501 117.459 142.289 119.041 141.307Z"/>
	<path fill="#B13619" transform="scale(2.284 2.284)" d="M184.635 151.99C185.051 152.333 185.178 152.38 185.334 152.912L185.142 154.297C184.956 156.299 184.634 158.173 184.188 160.131L183.543 159.887C183.348 160.08 183.157 160.255 183.003 160.483C183.246 157.647 184.243 154.832 184.635 151.99Z"/>
	<path fill="#B54323" transform="scale(2.284 2.284)" d="M126.168 135.598C126.628 135.772 126.951 135.885 127.23 136.31C127.92 137.362 127.41 141.204 127.136 142.422L126.563 142.426C126.541 142.4 126.517 142.375 126.496 142.348C125.594 141.177 125.95 137.051 126.168 135.598Z"/>
	<path fill="#DA7958" transform="scale(2.284 2.284)" d="M95.7219 144.142C95.7889 144.113 95.8575 144.087 95.923 144.055C96.3087 143.866 96.5486 143.333 96.7568 142.974C97.3586 142.733 97.4341 142.736 98.0687 142.876C98.455 143.494 98.4917 143.877 98.3181 144.597C98.113 145.447 97.8582 146.339 97.3653 147.067C96.7604 147.006 96.482 146.867 96.0242 146.47C95.6122 145.762 95.7126 144.933 95.7219 144.142Z"/>
	<path fill="#DE956A" transform="scale(2.284 2.284)" d="M72.988 147.67C73.3804 148.936 73.5335 150.364 73.8206 151.671L75.978 161.771C76.55 164.531 77.5091 167.399 77.7181 170.205C76.4233 167.248 72.9211 150.888 72.988 147.67Z"/>
	<path fill="#8E2B18" transform="scale(2.284 2.284)" d="M206.169 139.255C206.543 141.35 207.061 143.536 206.994 145.67L206.969 146.066L206.338 146.604L205.79 146.486C205.59 144.881 205.419 143.275 205.021 141.704L205.058 140.808L206.169 139.255Z"/>
	<path fill="#D25D33" transform="scale(2.284 2.284)" d="M91.8755 148.782C90.6685 147.804 89.1709 148.05 87.9074 147.102C87.674 146.608 87.6581 146.616 87.8264 146.1C89.4797 145.459 90.7682 146.94 92.5202 146.993L92.6277 146.996C92.9416 147.698 93.2359 148.579 92.9654 149.346C92.9137 149.492 92.8608 149.557 92.775 149.696C92.247 149.502 92.1662 149.231 91.8755 148.782Z"/>
	<path fill="#591A12" transform="scale(2.284 2.284)" d="M140.636 121.546C141.315 121.391 141.994 121.154 142.663 120.957C141.809 123.466 141.263 125.93 141.592 128.597L141.334 129.476L140.976 129.157C140.311 126.906 140.204 123.855 140.636 121.546Z"/>
	<path fill="#591A12" transform="scale(2.284 2.284)" d="M111.196 118.899C111.673 121.363 113.022 126.554 112.258 128.791L111.772 129.042L111.757 128.653C112.027 126.127 110.454 122.429 109.52 120.093L109.606 119.925C110.292 119.7 110.674 119.377 111.196 118.899Z"/>
	<path fill="#591A12" transform="scale(2.284 2.284)" d="M83.0558 134.811C84.172 136.169 85.2908 137.411 86.598 138.588C86.0814 138.982 85.5562 139.442 85.009 139.787C83.606 138.769 82.2983 137.739 81.1272 136.457C81.8345 135.962 82.4383 135.413 83.0558 134.811Z"/>
	<path fill="#D25D33" transform="scale(2.284 2.284)" d="M101.872 147.08C102.074 147.12 102.269 147.177 102.469 147.223C103.461 147.451 104.074 148.201 104.745 148.923C105.968 150.237 107.098 151.44 107.031 153.283C106.735 153.262 106.41 153.172 106.151 153.023C103.735 151.632 102.676 149.629 101.872 147.08Z"/>
	<path fill="#D25D33" transform="scale(2.284 2.284)" d="M84.8867 146.094C85.2106 146.146 85.5154 146.293 85.8186 146.414C86.8269 148.065 89.8588 149.545 90.2714 151.1C90.1489 151.834 90.1475 151.937 89.6331 152.463C88.8483 152.05 88.0181 151.447 87.2471 150.974C86.0923 150.267 84.5294 148.58 84.3223 147.222C84.247 146.728 84.6031 146.453 84.8867 146.094Z"/>
	<path fill="#DA7958" transform="scale(2.284 2.284)" d="M149.734 151.449C150.351 151.495 150.909 151.563 151.51 151.733C151.804 151.259 151.967 150.991 152.56 150.867C153.24 150.725 153.754 150.967 154.25 150.432C153.348 149.391 152.237 148.322 151.685 147.048L151.717 146.636C152.315 146.39 152.59 146.493 153.211 146.599C154.238 147.285 155.633 149.239 155.907 150.455C156.039 151.041 155.946 151.23 155.718 151.756C155.09 152.267 154.512 152.547 153.681 152.472C152.912 152.403 152.185 152.152 151.433 152.418C150.903 151.97 150.363 151.725 149.734 151.449Z"/>
	<path fill="#D25D33" transform="scale(2.284 2.284)" d="M152.065 146.697C152.572 146.801 153.114 146.988 153.535 147.299C154.584 148.072 154.866 149.124 155.073 150.352C155.027 150.334 154.978 150.32 154.933 150.296C153.949 149.781 152.401 147.738 152.065 146.697Z"/>
	<path fill="#D25D33" transform="scale(2.284 2.284)" d="M131.174 144.97C132.121 144.095 132.8 143.01 133.638 142.037L134.291 141.989C134.192 143.327 133.873 144.677 134.832 145.778C134.897 145.854 134.968 145.926 135.038 145.998C135.433 146.47 136.084 147.119 136.288 147.69C136.471 148.201 136.399 148.292 136.207 148.768C134.846 149.283 132.079 145.975 130.569 145.383C129.56 144.987 128.214 145.086 127.135 145.062L131.174 144.97Z"/>
	<path fill="#591A12" transform="scale(2.284 2.284)" d="M86.8901 184.484C88.9142 186.077 90.8794 187.794 93.0904 189.124C92.5916 189.791 92.2626 190.018 91.4627 190.253C91.0141 190.244 90.5561 190.233 90.1119 190.166C88.3346 189.899 87.213 187.845 86.2675 186.517L86.4206 186.032C86.5195 185.511 86.7266 184.989 86.8901 184.484Z"/>
	<path fill="#D25D33" transform="scale(2.284 2.284)" d="M158.348 148.9L158.671 149.653C159.319 149.333 159.691 149.331 160.387 149.407C160.968 149.809 161.292 150.048 161.413 150.793C161.629 152.126 161.16 153.007 160.58 154.167C159.623 154.227 158.149 154.524 157.311 154.008C156.87 153.07 157.157 152.229 157.377 151.249L157.478 150.897C157.97 150.345 158.133 149.592 158.348 148.9Z"/>
	<path fill="#DA7958" transform="scale(2.284 2.284)" d="M158.348 148.9L158.671 149.653L158.915 149.817C159.295 150.927 160.184 151.697 160.696 152.731C160.056 152.968 159.547 153.151 158.848 153.124C158.12 152.811 157.754 151.908 157.377 151.249L157.478 150.897C157.97 150.345 158.133 149.592 158.348 148.9Z"/>
	<path fill="#D25D33" transform="scale(2.284 2.284)" d="M93.5901 149.393C94.349 147.897 93.7261 146.504 94.3007 145.031C94.7425 144.486 95.0445 144.316 95.7219 144.142C95.7126 144.933 95.6122 145.762 96.0242 146.47C96.482 146.867 96.7604 147.006 97.3653 147.067C98.1527 147.313 98.5774 147.718 98.9493 148.433C99.0771 148.679 99.1903 148.931 99.3019 149.184C98.7025 148.713 98.2718 148.097 97.634 147.646C96.9582 147.847 96.888 148.184 96.5297 148.764L96.0844 149.001L95.9903 149.345C96.1905 152.964 98.4662 154.588 98.3823 157.14C98.3648 157.088 98.3495 157.036 98.3296 156.985C97.9077 155.908 96.3134 154.692 95.2578 154.253C94.9616 154.129 94.6557 154.038 94.3459 153.955C94.1805 154.11 94.0114 154.259 93.8169 154.376C93.2281 154.732 92.9419 154.733 92.3137 154.526C91.9326 154.043 91.7219 153.589 91.7411 152.959C91.7605 152.319 91.9689 151.889 92.4222 151.454C93.0661 151.536 93.7886 152.645 94.3169 153.141L94.5675 152.985C94.9896 150.477 93.6315 151.031 93.5901 149.393Z"/>
	<path fill="#B54323" transform="scale(2.284 2.284)" d="M146.458 99.9946C150.174 99.2731 167.013 100.238 170.557 101.269C172.649 103.655 175.992 107.661 176.904 110.674C177.85 110.741 178.652 110.716 179.375 111.397C181.962 113.133 183.738 114.092 184.655 117.248C183.559 116.2 183.145 114.342 181.673 113.691L181.179 114.148L181.284 115.197L180.954 115.563C179.384 115.433 172.515 108.455 171.604 107.071C170.875 105.965 169.428 102 168.649 101.447C167.562 100.675 161.961 100.667 160.439 100.648C159.475 101.411 159.729 103.207 159.015 104.214C158.662 104.713 158.437 104.716 157.877 104.827L157.723 104.612C158.143 104.14 158.774 103.561 158.951 102.946C159.159 102.228 159.534 101.378 159.414 100.63C156.265 100.547 149.171 100.857 146.648 100.058C146.584 100.038 146.521 100.016 146.458 99.9946Z"/>
	<path fill="#591A12" transform="scale(2.284 2.284)" d="M176.904 110.674C177.85 110.741 178.652 110.716 179.375 111.397C179.295 112.028 180.271 113.202 180.512 113.853C180.702 114.367 180.697 114.439 180.484 114.92L179.98 114.817C178.774 113.847 177.427 112.135 176.904 110.674Z"/>
	<path fill="#B54323" transform="scale(2.284 2.284)" d="M197.05 122.083C198.832 121.963 201.08 121.741 202.751 122.467C203.565 122.82 204.055 123.628 204.94 123.703C205.413 123.275 205.449 122.853 205.542 122.258C210.132 129.771 213.068 135.935 210.916 144.98C210.489 146.775 209.889 148.758 209.077 150.413C208.361 149.087 209.468 147.916 209.722 146.684C209.772 146.438 209.803 146.316 209.955 146.115C210.005 146.049 210.056 145.986 210.107 145.921C209.957 145.891 209.803 145.852 209.648 145.877C207.864 146.167 208.975 147.638 208.206 148.59L207.752 148.564L207.995 147.993L207.749 147.883L206.924 148.385C206.988 147.6 207.022 146.853 206.969 146.066L206.994 145.67C207.355 146.021 207.388 146.006 207.861 146.067C208.423 145.537 208.517 144.709 208.627 143.974C208.9 142.146 208.782 140.22 208.732 138.379C208.553 131.689 207.294 128.607 203.298 123.292C201.247 122.399 199.32 122.585 197.124 122.61C192.085 125.993 191.125 132.567 188.528 134.297C190.576 129.845 192.637 124.691 197.05 122.083Z"/>
	<path fill="#591A12" transform="scale(2.284 2.284)" d="M186.755 148.049C188.964 142.702 191.541 135.537 195.096 130.999C195.844 130.045 197.056 128.695 198.361 128.599C199.829 128.492 201.015 129.526 202.066 130.404C204.508 132.802 205.446 136.001 206.169 139.255L205.058 140.808C204.275 137.163 203.092 133.589 200.543 130.764C199.846 130.245 199.639 129.988 198.756 129.925C197.564 130.47 196.985 131.625 196.545 132.805C195.192 136.434 194.619 140.299 192.923 143.819C191.649 145.175 190.154 147.284 189.714 149.104L188.608 150.066C187.985 149.723 187.445 149.307 186.886 148.871L186.755 148.049Z"/>
	<path fill="#B54323" transform="scale(2.284 2.284)" d="M116.174 149.456C118.287 149.058 120.515 148.299 122.656 148.23C124.32 148.176 132.491 150.094 133.685 150.937C134.048 151.194 134.254 151.52 134.449 151.916C134.454 152.685 134.367 153.126 133.808 153.688C132.661 154.84 124.445 158.855 122.681 159.244C121.395 158.904 119.969 158.625 118.902 157.782L117.714 156.912C116.905 156.304 116.085 155.649 115.342 154.962C114.546 154.227 113.775 153.279 113.787 152.137C113.798 151.149 114.433 150.623 115.104 150.005L116.174 149.456Z"/>
	<path fill="#B13619" transform="scale(2.284 2.284)" d="M115.104 150.005L116.174 149.456C117.278 149.491 118.113 149.451 118.909 150.322C119.882 151.388 120.29 152.779 121.332 153.876C120.282 155.131 119.745 156.411 118.902 157.782L117.714 156.912C116.905 156.304 116.085 155.649 115.342 154.962C114.546 154.227 113.775 153.279 113.787 152.137C113.798 151.149 114.433 150.623 115.104 150.005Z"/>
	<path fill="#8E2B18" transform="scale(2.284 2.284)" d="M115.104 150.005C116.123 151.267 115.969 152.627 116.758 153.795C117.385 154.723 118.933 155.458 119.236 156.487C118.807 156.931 118.644 156.931 117.997 156.937C117.874 156.938 117.825 156.928 117.714 156.912C116.905 156.304 116.085 155.649 115.342 154.962C114.546 154.227 113.775 153.279 113.787 152.137C113.798 151.149 114.433 150.623 115.104 150.005Z"/>
	<defs>
		<linearGradient id="gradient_8" gradientUnits="userSpaceOnUse" x1="128.63799" y1="157.27716" x2="124.72955" y2="172.73552">
			<stop offset="0" stop-color="#830E04"/>
			<stop offset="1" stop-color="#CB321E"/>
		</linearGradient>
	</defs>
	<path fill="url(#gradient_8)" transform="scale(2.284 2.284)" d="M129.898 166.067C135.201 165.933 140.724 165.855 145.962 165.017C148.379 164.63 151.057 163.125 153.399 163.138C153.984 163.415 154.085 163.507 154.458 164.038L154.332 164.584C153.395 165.612 151.432 166.384 150.139 166.89C143.878 169.341 133.027 170.367 126.268 170.289C122.268 170.243 118.201 169.753 114.211 169.442C110.717 169.169 106.792 169.221 103.549 167.739C102.183 167.114 99.9141 165.68 99.3833 164.238L99.6104 163.848C100.187 163.758 100.622 163.858 101.173 164.006L101.384 164.064C104.444 164.221 107.483 164.858 110.536 165.161Q120.19 166.196 129.898 166.067Z"/>
	<path fill="#B54323" transform="scale(2.284 2.284)" d="M101.384 164.064C104.444 164.221 107.483 164.858 110.536 165.161Q120.19 166.196 129.898 166.067C126.289 167.304 116.211 166.17 112.329 165.809C110.494 165.638 107.859 165.034 106.106 165.624C105.944 165.678 105.796 165.729 105.628 165.764C103.817 166.136 102.828 165.037 101.384 164.064Z"/>
	<path fill="#0F0808" transform="scale(2.284 2.284)" d="M81.1272 136.457Q79.7286 134.854 78.8435 132.919C77.0502 129.047 75.8557 123.584 77.4194 119.481C79.121 115.017 83.6907 110.448 88.0538 108.549C92.373 106.669 97.7671 106.939 102.091 108.682C106.805 110.582 109.292 114.399 111.196 118.899C110.674 119.377 110.292 119.7 109.606 119.925L109.52 120.093C109.067 120.061 108.732 120.003 108.331 120.242C107.24 118.551 106.219 116.964 104.875 115.454C103.559 114.504 102.285 113.804 100.8 113.167C98.5742 112.718 96.449 112.978 94.256 112.625C93.9679 112.381 93.6067 112.238 93.269 112.075C88.6613 113.458 84.8172 115.838 82.442 120.161C80.5897 123.531 80.2721 127.434 81.3657 131.099C81.7577 132.413 82.3601 133.633 83.0558 134.811C82.4383 135.413 81.8345 135.962 81.1272 136.457Z"/>
	<path fill="#695242" transform="scale(2.284 2.284)" d="M101.566 112.333C103.238 112.799 105.036 113.875 106.149 115.231C105.68 115.049 105.214 114.864 104.738 114.702L104.875 115.454C103.559 114.504 102.285 113.804 100.8 113.167L101.566 112.333Z"/>
	<path fill="#996A52" transform="scale(2.284 2.284)" d="M93.269 112.075C95.5116 111.289 99.3382 111.537 101.566 112.333L100.8 113.167C98.5742 112.718 96.449 112.978 94.256 112.625C93.9679 112.381 93.6067 112.238 93.269 112.075Z"/>
	<path fill="#67382E" transform="scale(2.284 2.284)" d="M104.875 115.454L104.738 114.702C105.214 114.864 105.68 115.049 106.149 115.231C107.613 116.24 108.942 118.28 109.606 119.925L109.52 120.093C109.067 120.061 108.732 120.003 108.331 120.242C107.24 118.551 106.219 116.964 104.875 115.454Z"/>
	<path fill="#0F0808" transform="scale(2.284 2.284)" d="M140.636 121.546C141.113 117.168 142.637 113.183 146.182 110.364C150.255 107.125 155.659 106.132 160.741 106.749C165.45 107.321 170.305 109.936 173.238 113.686C176.522 117.883 177.223 123.219 176.562 128.381C176.046 132.412 174.36 136.15 171.08 138.674C169.884 139.595 167.854 140.822 166.262 140.567C166.087 140.539 165.945 140.476 165.796 140.383C166.38 140.168 166.976 139.923 167.522 139.625C170.131 138.205 171.875 135.27 172.721 132.494C174.136 127.844 173.195 123.37 170.945 119.17C170.414 119.142 169.527 118.974 169.071 119.256C167.96 117.487 166.763 115.873 165.215 114.463C161.197 112.075 157.306 111.641 152.769 112.61C152.537 112.239 152.121 112.031 151.759 111.801C149.298 112.904 147.382 114.14 145.686 116.28C144.786 117.425 143.989 118.506 143.337 119.814C143.11 120.193 142.874 120.569 142.663 120.957C141.994 121.154 141.315 121.391 140.636 121.546Z"/>
	<path fill="#E6EDE5" transform="scale(2.284 2.284)" d="M166.062 113.816C167.992 115.404 169.699 116.971 170.945 119.17C170.414 119.142 169.527 118.974 169.071 119.256C167.96 117.487 166.763 115.873 165.215 114.463L166.062 113.816Z"/>
	<path fill="#90867F" transform="scale(2.284 2.284)" d="M151.759 111.801C155.144 110.413 159.686 110.654 163.049 112.033C164.104 112.465 165.19 113.086 166.062 113.816L165.215 114.463C161.197 112.075 157.306 111.641 152.769 112.61C152.537 112.239 152.121 112.031 151.759 111.801Z"/>
	<path fill="#0F0808" transform="scale(2.284 2.284)" d="M77.3108 104.715C77.1919 104.482 77.1628 104.265 77.1147 104.011C79.4165 98.9387 85.7635 93.3447 90.6767 90.8724C95.3167 88.5376 102.834 89.3887 107.574 90.9483C108.215 91.4321 108.63 91.5728 109.419 91.6675C111.48 92.7473 114.65 94.4881 115.428 96.8252C115.731 97.7333 115.548 98.5972 115.113 99.4255C114.808 100.005 114.391 100.641 113.74 100.861C110.144 102.076 101.596 99.735 97.354 99.5476C93.2329 99.3655 89.0418 99.938 85.0671 101.02C82.4113 101.744 79.3866 102.842 77.3108 104.715Z"/>
	<path fill="#D25D33" transform="scale(2.284 2.284)" d="M192.923 143.819C194.619 140.299 195.192 136.434 196.545 132.805C196.985 131.625 197.564 130.47 198.756 129.925C199.639 129.988 199.846 130.245 200.543 130.764C203.092 133.589 204.275 137.163 205.058 140.808L205.021 141.704C205.419 143.275 205.59 144.881 205.79 146.486L206.338 146.604L206.969 146.066C207.022 146.853 206.988 147.6 206.924 148.385L207.749 147.883L207.995 147.993L207.752 148.564L208.206 148.59C208.975 147.638 207.864 146.167 209.648 145.877C209.803 145.852 209.957 145.891 210.107 145.921C210.056 145.986 210.005 146.049 209.955 146.115C209.803 146.316 209.772 146.438 209.722 146.684C209.468 147.916 208.361 149.087 209.077 150.413C205.989 156.693 199.805 161.05 193.225 163.275C190.884 164.066 190.463 163.983 188.242 163.241C187.673 162.946 187.123 162.231 186.672 161.761C185.832 161.317 184.775 160.892 184.188 160.131C184.634 158.173 184.956 156.299 185.142 154.297L185.334 152.912C185.647 151.654 185.985 149.837 186.886 148.871C187.445 149.307 187.985 149.723 188.608 150.066L189.714 149.104C190.154 147.284 191.649 145.175 192.923 143.819Z"/>
	<path fill="#B54323" transform="scale(2.284 2.284)" d="M185.142 154.297C185.239 159.302 186.563 157.895 188.056 161.174L186.672 161.761C185.832 161.317 184.775 160.892 184.188 160.131C184.634 158.173 184.956 156.299 185.142 154.297Z"/>
	<path fill="#8E2B18" transform="scale(2.284 2.284)" d="M189.714 149.104C190.185 149.299 190.665 149.538 191.161 149.655C194.55 150.787 196.953 149.564 199.62 150.105C199.824 150.147 200.144 150.426 200.241 150.602C200.118 150.663 199.995 150.721 199.869 150.776C196.56 152.205 191.808 151.374 188.608 150.066L189.714 149.104Z"/>
	<path fill="#8E2B18" transform="scale(2.284 2.284)" d="M206.969 146.066C207.022 146.853 206.988 147.6 206.924 148.385L207.749 147.883L207.995 147.993L207.752 148.564L208.206 148.59C208.975 147.638 207.864 146.167 209.648 145.877C209.803 145.852 209.957 145.891 210.107 145.921C210.056 145.986 210.005 146.049 209.955 146.115C209.803 146.316 209.772 146.438 209.722 146.684C209.468 147.916 208.361 149.087 209.077 150.413C205.989 156.693 199.805 161.05 193.225 163.275C190.884 164.066 190.463 163.983 188.242 163.241C187.673 162.946 187.123 162.231 186.672 161.761L188.056 161.174C194.388 159.725 202.088 156.416 205.732 150.761C205.894 149.349 205.851 147.904 205.79 146.486L206.338 146.604L206.969 146.066Z"/>
	<path fill="#B13619" transform="scale(2.284 2.284)" d="M192.923 143.819C194.619 140.299 195.192 136.434 196.545 132.805C196.985 131.625 197.564 130.47 198.756 129.925C199.639 129.988 199.846 130.245 200.543 130.764C203.092 133.589 204.275 137.163 205.058 140.808L205.021 141.704C204.99 141.665 204.956 141.626 204.927 141.586C203.82 140.078 204.31 137.545 202.902 136.147C201.851 136.232 201.26 136.749 200.6 137.535C197.843 140.818 198.075 142.895 194.221 146.506C193.322 147.349 192.294 148.043 192.374 149.376L192.681 149.73L192.861 149.706C194.195 149.537 199.53 149.165 200.409 149.851C200.388 150.152 200.428 150.357 200.241 150.602C200.144 150.426 199.824 150.147 199.62 150.105C196.953 149.564 194.55 150.787 191.161 149.655C190.665 149.538 190.185 149.299 189.714 149.104C190.154 147.284 191.649 145.175 192.923 143.819Z"/>
	<path fill="#E6EDE5" transform="scale(2.284 2.284)" d="M93.269 112.075C93.6067 112.238 93.9679 112.381 94.256 112.625C96.449 112.978 98.5742 112.718 100.8 113.167C102.285 113.804 103.559 114.504 104.875 115.454C106.219 116.964 107.24 118.551 108.331 120.242C108.732 120.003 109.067 120.061 109.52 120.093C110.454 122.429 112.027 126.127 111.757 128.653L111.772 129.042C111.754 131.84 111.605 133.958 109.484 136.057C105.612 139.886 98.6148 141.026 93.4043 140.93Q91.9912 140.892 90.5826 140.772C89.0185 140.439 87.8405 139.531 86.598 138.588C85.2908 137.411 84.172 136.169 83.0558 134.811C82.3601 133.633 81.7577 132.413 81.3657 131.099C80.2721 127.434 80.5897 123.531 82.442 120.161C84.8172 115.838 88.6613 113.458 93.269 112.075Z"/>
	<path fill="#591A12" transform="scale(2.284 2.284)" d="M87.5002 123.218C87.5156 123.951 87.4238 124.91 87.6016 125.61L87.6492 125.157L87.6244 125.655L88.2198 125.336C90.1091 126.582 92.1819 127.42 93.7944 129.057C96.2671 129.307 98.8415 129.402 101.327 129.304C102.945 129.24 104.739 128.925 106.346 129.085C107.001 129.15 107.253 129.284 107.761 129.695C108 130.302 108.175 131.255 108.835 131.511C109.16 131.637 109.63 131.65 109.977 131.691C108.896 133.105 107.743 134.331 106.254 135.329C103.363 137.265 99.6876 138.358 96.2302 137.637Q95.6682 137.519 95.1203 137.347Q94.5724 137.175 94.0438 136.95Q93.5152 136.726 93.0108 136.451Q92.5064 136.177 92.031 135.855Q91.5556 135.533 91.1136 135.166Q90.6717 134.799 90.2674 134.391Q89.8631 133.983 89.5003 133.538Q89.1374 133.093 88.8194 132.615C86.9328 129.722 86.7865 126.497 87.5002 123.218Z"/>
	<path fill="#0F0808" transform="scale(2.284 2.284)" d="M94.256 112.625C96.449 112.978 98.5742 112.718 100.8 113.167C102.285 113.804 103.559 114.504 104.875 115.454C106.219 116.964 107.24 118.551 108.331 120.242C108.732 120.003 109.067 120.061 109.52 120.093C110.454 122.429 112.027 126.127 111.757 128.653L111.116 128.437C110.856 128.842 110.831 129.296 110.767 129.762C110.531 130.409 110.328 131.097 109.977 131.691C109.63 131.65 109.16 131.637 108.835 131.511C108.175 131.255 108 130.302 107.761 129.695C107.253 129.284 107.001 129.15 106.346 129.085C104.739 128.925 102.945 129.24 101.327 129.304C98.8415 129.402 96.2671 129.307 93.7944 129.057C92.1819 127.42 90.1091 126.582 88.2198 125.336L87.6244 125.655L87.6492 125.157L87.6016 125.61C87.4238 124.91 87.5156 123.951 87.5002 123.218L87.606 122.013C87.9815 120.606 88.4189 119.322 89.0222 117.995C90.203 115.679 91.7402 113.559 94.256 112.625Z"/>
	<path fill="#3C2420" transform="scale(2.284 2.284)" d="M87.606 122.013C87.9815 120.606 88.4189 119.322 89.0222 117.995L90.2682 118.744C89.7813 120.123 89.6917 121.157 89.9711 122.588C89.3517 122.163 89.2149 121.58 88.4285 121.418L87.606 122.013Z"/>
	<path fill="#B17E86" transform="scale(2.284 2.284)" d="M108.331 120.242C108.732 120.003 109.067 120.061 109.52 120.093C110.454 122.429 112.027 126.127 111.757 128.653L111.116 128.437C110.856 128.842 110.831 129.296 110.767 129.762C110.527 126.395 109.647 123.34 108.331 120.242Z"/>
	<path fill="#E6EDE5" transform="scale(2.284 2.284)" d="M90.2682 118.744C91.3816 118.5 92.889 118.21 93.9277 118.834C94.5063 119.181 94.8444 119.746 94.9667 120.398C95.1434 121.341 94.8237 122.42 94.2716 123.189C93.8101 123.832 93.1683 124.303 92.3629 124.392C91.8599 124.448 91.3397 124.311 90.9679 123.975C90.5297 123.577 90.2643 123.094 89.9711 122.588C89.6917 121.157 89.7813 120.123 90.2682 118.744Z"/>
	<path fill="#0F0808" transform="scale(2.284 2.284)" d="M145.686 116.28C147.382 114.14 149.298 112.904 151.759 111.801C152.121 112.031 152.537 112.239 152.769 112.61C157.306 111.641 161.197 112.075 165.215 114.463C166.763 115.873 167.96 117.487 169.071 119.256C169.527 118.974 170.414 119.142 170.945 119.17C173.195 123.37 174.136 127.844 172.721 132.494C171.875 135.27 170.131 138.205 167.522 139.625C166.976 139.923 166.38 140.168 165.796 140.383Q164.996 140.566 164.189 140.711C158.511 141.746 151.304 141.778 146.375 138.296C143.007 135.918 142.259 132.393 141.592 128.597C141.263 125.93 141.809 123.466 142.663 120.957C142.874 120.569 143.11 120.193 143.337 119.814C143.989 118.506 144.786 117.425 145.686 116.28Z"/>
	<path fill="#F7D4AF" transform="scale(2.284 2.284)" d="M145.686 116.28C147.382 114.14 149.298 112.904 151.759 111.801C152.121 112.031 152.537 112.239 152.769 112.61C150.349 114.035 148.744 116.28 147.206 118.573L147.076 118.523L147.041 117.504C146.73 116.818 146.316 116.616 145.686 116.28Z"/>
	<path fill="#E6EDE5" transform="scale(2.284 2.284)" d="M148.877 120.253C149.542 120.323 150.071 120.276 150.552 120.831C151.413 121.826 151.539 124.223 151.322 125.468C151.21 126.107 151.035 126.498 150.559 126.953C149.991 127.063 149.714 127.101 149.206 126.74C148.546 126.272 147.99 125.532 147.515 124.885C147.447 124.57 147.39 124.249 147.382 123.926C147.349 122.398 147.865 121.352 148.877 120.253Z"/>
	<path fill="#67382E" transform="scale(2.284 2.284)" d="M146.956 132.503C147.825 131.543 148.313 130.878 149.674 130.805C151.931 130.683 153.928 132.152 156.089 132.206C156.937 132.227 158.698 131.518 159.339 131.846C158.704 132.087 157.25 132.278 156.907 132.728C157.827 133.963 159.718 134.867 160.406 136.301C160.445 136.384 160.322 136.776 160.365 136.835C160.372 136.844 160.603 136.879 160.637 136.883C162.676 137.091 164.147 134.274 165.9 134.291C165.685 134.571 165.442 134.797 165.18 135.032Q164.742 135.423 164.267 135.769Q163.792 136.114 163.286 136.411Q162.779 136.707 162.245 136.952Q161.711 137.196 161.156 137.387Q160.6 137.577 160.029 137.711Q159.457 137.845 158.875 137.921Q158.293 137.997 157.706 138.015Q157.119 138.033 156.533 137.993C152.544 137.738 149.467 135.401 146.956 132.503Z"/>
	<path fill="#E6EDE5" transform="scale(2.284 2.284)" d="M145.686 116.28C146.316 116.616 146.73 116.818 147.041 117.504L147.076 118.523L147.206 118.573C147.425 119.21 147.624 119.669 148.249 120.016C148.445 120.125 148.662 120.193 148.877 120.253C147.865 121.352 147.349 122.398 147.382 123.926C147.39 124.249 147.447 124.57 147.515 124.885C146.773 125.098 145.942 125.223 145.417 125.822C145.067 126.769 145.275 127.637 145.232 128.609C145.413 130.103 146.123 131.278 146.956 132.503C149.467 135.401 152.544 137.738 156.533 137.993Q157.119 138.033 157.706 138.015Q158.293 137.997 158.875 137.921Q159.457 137.845 160.029 137.711Q160.6 137.577 161.156 137.387Q161.711 137.196 162.245 136.952Q162.779 136.707 163.286 136.411Q163.792 136.114 164.267 135.769Q164.742 135.423 165.18 135.032C165.442 134.797 165.685 134.571 165.9 134.291C166.915 133.237 167.82 132.137 168.497 130.831C170.381 127.196 170.282 123.07 169.071 119.256C169.527 118.974 170.414 119.142 170.945 119.17C173.195 123.37 174.136 127.844 172.721 132.494C171.875 135.27 170.131 138.205 167.522 139.625C166.976 139.923 166.38 140.168 165.796 140.383Q164.996 140.566 164.189 140.711C158.511 141.746 151.304 141.778 146.375 138.296C143.007 135.918 142.259 132.393 141.592 128.597C141.263 125.93 141.809 123.466 142.663 120.957C142.874 120.569 143.11 120.193 143.337 119.814C143.989 118.506 144.786 117.425 145.686 116.28Z"/>
	<path fill="#FAEAC9" transform="scale(2.284 2.284)" d="M145.686 116.28C146.316 116.616 146.73 116.818 147.041 117.504L147.076 118.523C146.482 119.578 145.839 120.619 145.47 121.778C145.092 120.867 145.439 119.829 145.228 118.862L144.814 118.808C144.277 119.094 143.817 119.444 143.337 119.814C143.989 118.506 144.786 117.425 145.686 116.28Z"/>
	<path fill="#591A12" transform="scale(2.284 2.284)" d="M147.076 118.523L147.206 118.573C147.425 119.21 147.624 119.669 148.249 120.016C148.445 120.125 148.662 120.193 148.877 120.253C147.865 121.352 147.349 122.398 147.382 123.926C147.39 124.249 147.447 124.57 147.515 124.885C146.773 125.098 145.942 125.223 145.417 125.822C145.067 126.769 145.275 127.637 145.232 128.609C144.671 126.432 145.001 123.94 145.47 121.778C145.839 120.619 146.482 119.578 147.076 118.523Z"/>
</svg>
