<?xml version="1.0" encoding="utf-8" ?>
<svg xmlns="http://www.w3.org/2000/svg" xmlns:xlink="http://www.w3.org/1999/xlink" width="500" height="500">
	<path fill="#BC726C" transform="scale(2 2)" d="M106.214 11.1808C106.352 8.98541 107.037 6.97405 107.721 4.9013C107.651 7.88763 108.655 10.8831 108.455 13.9489C107.552 13.1015 106.898 12.2006 106.214 11.1808Z"/>
	<path fill="#B12511" transform="scale(2 2)" d="M121.632 203.735L121.989 204.012C122.153 206.018 121.991 208.106 122.253 210.09C122.341 211.841 122.552 214.207 122.155 215.888C122.003 215.403 121.703 214.948 121.456 214.505L121.102 214.583L120.807 215.613C120.913 211.928 120.714 208.267 120.56 204.588L121.632 203.735Z"/>
	<path transform="scale(2 2)" d="M120.807 215.613L121.102 214.583L121.456 214.505C121.703 214.948 122.003 215.403 122.155 215.888C121.233 218.997 118.841 220.628 118.321 222.632L118.088 223.042L117.567 223.065C117.28 222.699 116.967 222.289 116.571 222.036C115.309 221.226 114.163 221.637 112.82 221.979C112.082 222.466 110.633 223.708 109.805 223.809C95.3536 229.36 84.6289 235.398 77.6475 250L75.096 250C82.525 236.556 91.7132 229.209 105.83 223.548C108.344 222.54 110.857 221.46 113.433 220.624C115.127 219.954 117.022 219.482 118.605 218.572C119.989 217.777 120.397 217.138 120.807 215.613Z"/>
	<defs>
		<linearGradient id="gradient_0" gradientUnits="userSpaceOnUse" x1="91.910057" y1="188.65126" x2="97.614037" y2="181.43176">
			<stop offset="0" stop-color="#9E2E08"/>
			<stop offset="1" stop-color="#791813"/>
		</linearGradient>
	</defs>
	<path fill="url(#gradient_0)" transform="scale(2 2)" d="M74.442 164.888C74.6509 164.443 74.9364 164.178 75.2909 163.842C75.9539 164.084 76.579 164.309 77.2807 164.412C80.2441 176.797 92.5292 187.613 102.979 194.037C108.729 197.572 114.893 200.418 121.422 202.141C121.383 202.745 121.352 203.173 121.632 203.735L120.56 204.588C120.501 204.249 120.46 203.772 120.312 203.462C119.712 202.208 116.022 202.26 114.717 201.824C101.765 197.506 87.5107 188.387 80.5073 176.51C78.4697 173.054 77.7932 169.055 75.8664 165.664C75.5535 165.113 74.9953 165.049 74.442 164.888Z"/>
	<path transform="scale(2 2)" d="M176.422 222.499C191.75 229.791 201.557 235.82 211.744 250L209.274 250L196.002 250C198.28 247.846 200.928 245.004 202.593 242.356C199.965 237.624 183.48 228.435 178.161 225.159C177.368 224.305 176.794 223.633 176.422 222.499Z"/>
	<path fill="#BEC7CC" transform="scale(2 2)" d="M202.593 242.356C202.62 242.386 202.648 242.418 202.676 242.448C202.925 242.717 203.142 242.891 203.449 243.089C205.519 244.429 207.577 248.048 209.274 250L196.002 250C198.28 247.846 200.928 245.004 202.593 242.356Z"/>
	<path fill="#B12511" transform="scale(2 2)" d="M215.409 130.205C218.609 135.284 219.024 141.339 217.735 147.101C216.323 153.408 212.884 158.008 207.443 161.43C201.016 165.472 198.363 165.293 191.022 164.539C189.775 167.384 188.672 170.366 187.224 173.112C184.735 177.83 180.365 183.391 176.121 186.683C176.169 185.64 183.274 178.612 184.551 176.563C186.134 174.024 191.109 165.242 190.288 162.25C190.201 161.93 190.15 161.948 189.862 161.799C189.068 162.326 188.385 165.492 187.981 166.487C186.237 170.793 178.996 182.664 174.647 184.385C174.594 184.406 174.54 184.425 174.487 184.445C175.563 183.147 176.896 181.977 178.041 180.725C181.121 177.355 184.233 173.335 186.238 169.213C187.634 166.343 188.442 163.201 189.823 160.313L190.129 160.302C190.453 160.757 190.627 161.428 191.015 161.791C192.099 162.805 194.59 162.927 196.008 162.801L196.226 162.78C197.057 162.806 197.914 162.665 198.729 162.508C204.254 161.449 208.95 158.015 212.088 153.434L212.167 153.342C215.563 149.317 215.937 142.093 215.505 137.074C215.665 134.543 214.822 133.001 215.409 130.205Z"/>
	<defs>
		<linearGradient id="gradient_1" gradientUnits="userSpaceOnUse" x1="70.251434" y1="134.04176" x2="62.524158" y2="161.0022">
			<stop offset="0" stop-color="#C64320"/>
			<stop offset="1" stop-color="#E4633F"/>
		</linearGradient>
	</defs>
	<path fill="url(#gradient_1)" transform="scale(2 2)" d="M71.2063 124.116C71.9913 125.107 71.8729 127.544 71.8615 128.797C72.2762 129.967 72.5983 131.125 72.8916 132.33C72.8615 134.197 74.1048 136.603 72.9116 138.231C73.8424 139.749 74.7939 141.205 75.3907 142.892C75.6402 144.017 75.8122 145.01 75.7839 146.172C75.5924 148.142 76.1174 150.354 75.6608 152.228L75.6749 152.17L74.9678 151.964L75.2978 151.414L74.7709 150.463L74.4576 150.615C74.3594 151.101 74.2991 151.549 74.295 152.045C74.5328 154.162 74.9357 161.051 76.1184 162.496C76.5029 162.386 76.6241 162.414 76.8514 162.072C77.0653 162.861 77.2298 163.594 77.2807 164.412C76.579 164.309 75.9539 164.084 75.2909 163.842C74.9364 164.178 74.6509 164.443 74.442 164.888C72.6291 164.7 70.7811 164.206 69.0548 163.632Q67.9369 163.163 66.8671 162.592C61.6623 159.811 58.2846 155.107 56.6091 149.496C55.2596 144.978 55.0822 138.451 57.3751 134.201Q57.4906 133.892 57.6279 133.592C59.9248 128.634 63.2866 126.389 68.2561 124.508C69.2105 124.542 70.2614 124.269 71.2063 124.116Z"/>
	<path fill="#B12511" transform="scale(2 2)" d="M62.3463 139.824L62.6292 140.406L62.9345 140.5C62.6002 143.427 63.3016 146.326 62.9479 149.201C62.9157 149.169 62.8787 149.14 62.8514 149.104C61.7632 147.638 61.956 141.606 62.3463 139.824Z"/>
	<path fill="#B12511" transform="scale(2 2)" d="M69.0548 163.632C69.5586 163.005 69.7773 162.475 70.6471 162.397C71.9108 162.283 74.2388 162.801 75.1836 163.718C75.2229 163.756 75.2551 163.801 75.2909 163.842C74.9364 164.178 74.6509 164.443 74.442 164.888C72.6291 164.7 70.7811 164.206 69.0548 163.632Z"/>
	<path fill="#7A0806" transform="scale(2 2)" d="M65.065 132.673C65.5622 132.182 66.0328 131.922 66.7447 131.926C67.8628 131.932 68.7726 132.75 69.5012 133.514C70.8185 134.895 71.8881 136.624 72.9116 138.231C73.8424 139.749 74.7939 141.205 75.3907 142.892C75.6402 144.017 75.8122 145.01 75.7839 146.172C75.5924 148.142 76.1174 150.354 75.6608 152.228L75.6749 152.17L74.9678 151.964L75.2978 151.414L74.7709 150.463L74.4576 150.615C74.3594 151.101 74.2991 151.549 74.295 152.045C72.7648 149.63 73.6825 144.487 72.1799 141.264C71.0749 138.893 69.0481 134.834 66.462 133.895C66.2316 133.909 65.8835 133.878 65.6858 133.993C64.0415 134.948 63.3734 138.793 62.9345 140.5L62.6292 140.406L62.3463 139.824C62.8449 137.131 64.1434 135.177 65.065 132.673Z"/>
	<path fill="#E67243" transform="scale(2 2)" d="M71.2063 124.116C71.9913 125.107 71.8729 127.544 71.8615 128.797C72.2762 129.967 72.5983 131.125 72.8916 132.33C72.8615 134.197 74.1048 136.603 72.9116 138.231C71.8881 136.624 70.8185 134.895 69.5012 133.514C68.7726 132.75 67.8628 131.932 66.7447 131.926C66.0328 131.922 65.5622 132.182 65.065 132.673C62.9195 131.996 59.8507 134.121 59.4438 133.897C58.9899 133.647 59.2676 133.14 58.5878 133.295C58.5515 133.34 58.5158 133.386 58.4788 133.431C58.1288 133.855 57.9082 134.058 57.3751 134.201Q57.4906 133.892 57.6279 133.592C59.9248 128.634 63.2866 126.389 68.2561 124.508C69.2105 124.542 70.2614 124.269 71.2063 124.116Z"/>
	<path fill="#CF3918" transform="scale(2 2)" d="M71.2063 124.116C71.9913 125.107 71.8729 127.544 71.8615 128.797C70.9381 127.305 69.5738 125.661 68.2561 124.508C69.2105 124.542 70.2614 124.269 71.2063 124.116Z"/>
	<path fill="#7A0806" transform="scale(2 2)" d="M174.487 184.445C174.54 184.425 174.594 184.406 174.647 184.385C178.996 182.664 186.237 170.793 187.981 166.487C188.385 165.492 189.068 162.326 189.862 161.799C190.15 161.948 190.201 161.93 190.288 162.25C191.109 165.242 186.134 174.024 184.551 176.563C183.274 178.612 176.169 185.64 176.121 186.683L175.991 186.829C173.937 189.079 162.364 195.843 162.103 196.384C161.585 197.455 161.662 199.18 161.698 200.358C161.865 205.784 161.687 213.018 164.247 217.869L166.381 218.502C168.808 219.183 171.206 219.964 173.487 221.047C174.457 221.536 175.424 222.071 176.422 222.499C176.794 223.633 177.368 224.305 178.161 225.159C183.48 228.435 199.965 237.624 202.593 242.356C200.928 245.004 198.28 247.846 196.002 250L77.6475 250C84.6289 235.398 95.3536 229.36 109.805 223.809C110.633 223.708 112.082 222.466 112.82 221.979C114.163 221.637 115.309 221.226 116.571 222.036C116.967 222.289 117.28 222.699 117.567 223.065L118.088 223.042L118.321 222.632C118.841 220.628 121.233 218.997 122.155 215.888C122.552 214.207 122.341 211.841 122.253 210.09C121.991 208.106 122.153 206.018 121.989 204.012L121.632 203.735C121.352 203.173 121.383 202.745 121.422 202.141C137.996 204.245 143.742 201.74 158.34 194.539C164.578 192.175 169.254 188.395 174.487 184.445Z"/>
	<path fill="#4C100C" transform="scale(2 2)" d="M166.381 218.502C168.808 219.183 171.206 219.964 173.487 221.047C174.457 221.536 175.424 222.071 176.422 222.499C176.794 223.633 177.368 224.305 178.161 225.159L177.254 226.192C176.781 227.174 175.89 228.139 175.097 228.886L174.922 228.55C175.22 228.066 175.541 227.629 175.892 227.185C175.659 224.908 170.962 221.92 169.393 219.996C168.314 219.665 167.208 219.296 166.381 218.502Z"/>
	<path fill="#270804" transform="scale(2 2)" d="M173.487 221.047C174.457 221.536 175.424 222.071 176.422 222.499C176.794 223.633 177.368 224.305 178.161 225.159L177.254 226.192C175.756 224.101 173.741 223.933 173.487 221.047Z"/>
	<defs>
		<linearGradient id="gradient_2" gradientUnits="userSpaceOnUse" x1="142.12314" y1="218.00414" x2="142.12799" y2="233.99974">
			<stop offset="0" stop-color="#E6885E"/>
			<stop offset="1" stop-color="#F3AD7B"/>
		</linearGradient>
	</defs>
	<path fill="url(#gradient_2)" transform="scale(2 2)" d="M130.111 226.28C135.944 226.75 142.211 224.843 147.345 222.187C149.572 221.034 151.694 219.625 153.957 218.551C157.118 217.051 159.126 217.521 162.262 218.639L164.994 221.551C161.78 227.739 154.209 231.181 147.861 233.178C140.98 235.342 131.894 235.542 125.375 232.102C123.252 230.981 121.327 229.354 120.001 227.341C120.148 226.979 120.335 226.773 120.607 226.496C121.525 226.35 122.617 226.918 123.474 227.24C124.611 226.853 125.683 226.558 126.876 226.37C127.968 226.444 129.023 226.366 130.111 226.28Z"/>
	<defs>
		<linearGradient id="gradient_3" gradientUnits="userSpaceOnUse" x1="136.65816" y1="204.23895" x2="141.83479" y2="224.00769">
			<stop offset="0" stop-color="#BB2611"/>
			<stop offset="1" stop-color="#E25F3E"/>
		</linearGradient>
	</defs>
	<path fill="url(#gradient_3)" transform="scale(2 2)" d="M121.422 202.141C137.996 204.245 143.742 201.74 158.34 194.539C158.568 195.194 158.861 195.681 158.589 196.38C158.488 196.639 158.305 196.891 158.152 197.122C158.306 197.97 158.566 198.928 158.488 199.787C159.78 206 159.767 212.753 162.262 218.639C159.126 217.521 157.118 217.051 153.957 218.551C151.694 219.625 149.572 221.034 147.345 222.187C142.211 224.843 135.944 226.75 130.111 226.28C129.023 226.366 127.968 226.444 126.876 226.37C125.683 226.558 124.611 226.853 123.474 227.24C122.617 226.918 121.525 226.35 120.607 226.496C120.335 226.773 120.148 226.979 120.001 227.341C118.987 226.226 118.572 224.415 118.452 222.962L118.321 222.632C118.841 220.628 121.233 218.997 122.155 215.888C122.552 214.207 122.341 211.841 122.253 210.09C121.991 208.106 122.153 206.018 121.989 204.012L121.632 203.735C121.352 203.173 121.383 202.745 121.422 202.141Z"/>
	<path fill="#EF5A44" transform="scale(2 2)" d="M118.452 222.962L120.29 223.606C123.522 225.636 126.419 225.94 130.111 226.28C129.023 226.366 127.968 226.444 126.876 226.37C125.683 226.558 124.611 226.853 123.474 227.24C122.617 226.918 121.525 226.35 120.607 226.496C120.335 226.773 120.148 226.979 120.001 227.341C118.987 226.226 118.572 224.415 118.452 222.962Z"/>
	<path fill="#B12511" transform="scale(2 2)" d="M121.422 202.141C137.996 204.245 143.742 201.74 158.34 194.539C158.568 195.194 158.861 195.681 158.589 196.38C158.488 196.639 158.305 196.891 158.152 197.122C158.306 197.97 158.566 198.928 158.488 199.787C158.168 199.937 158.031 199.927 157.906 200.275C157.594 201.138 157.747 202.451 157.744 203.375C156.803 204.279 155.881 205.119 154.818 205.883C153.126 207.067 151.417 208.653 149.5 209.415L149.284 209.315C149.59 208.882 149.751 208.856 150.227 208.653L150.192 208.554C147.116 209.106 133.643 208.132 129.867 207.903C127.736 207.774 124.665 207.171 122.663 207.879Q122.446 208.982 122.253 210.09C121.991 208.106 122.153 206.018 121.989 204.012L121.632 203.735C121.352 203.173 121.383 202.745 121.422 202.141Z"/>
	<path fill="#91160B" transform="scale(2 2)" d="M154.818 205.883C154.591 205.708 154.242 205.488 154.064 205.267C153.716 204.837 154.878 203.701 155.163 203.255C155.752 202.338 155.79 200.783 156.059 199.716C156.409 198.326 156.946 197.851 158.152 197.122C158.306 197.97 158.566 198.928 158.488 199.787C158.168 199.937 158.031 199.927 157.906 200.275C157.594 201.138 157.747 202.451 157.744 203.375C156.803 204.279 155.881 205.119 154.818 205.883Z"/>
	<path fill="#EAEFE6" transform="scale(2 2)" d="M109.805 223.809C109.817 223.843 109.829 223.877 109.84 223.912C110.206 225.169 109.545 227.238 109.66 228.689C110.075 233.951 115.465 239.046 119.771 241.559C129.215 247.072 140.547 246.563 150.807 243.821C158.498 241.765 164.726 238.167 170.802 233.107C172.215 231.931 174.096 230.442 175.097 228.886C175.89 228.139 176.781 227.174 177.254 226.192L178.161 225.159C183.48 228.435 199.965 237.624 202.593 242.356C200.928 245.004 198.28 247.846 196.002 250L77.6475 250C84.6289 235.398 95.3536 229.36 109.805 223.809Z"/>
	<defs>
		<linearGradient id="gradient_4" gradientUnits="userSpaceOnUse" x1="123.715" y1="144.58618" x2="149.33932" y2="7.4509625">
			<stop offset="0" stop-color="#78060D"/>
			<stop offset="1" stop-color="#AD1C11"/>
		</linearGradient>
	</defs>
	<path fill="url(#gradient_4)" transform="scale(2 2)" d="M107.721 4.9013C108.17 4.55944 108.236 4.44279 108.824 4.50059C110.506 4.66577 119.701 9.40657 121.939 10.3694C127.364 12.7024 132.984 14.4505 138.433 16.6878C142.309 18.2794 146.057 20.3396 149.872 22.096C148.695 16.0767 143.908 11.8491 143.115 5.57364C146.77 6.86541 150.38 10.0885 153.718 12.1649C158.44 15.1025 163.565 17.6258 168.009 20.9751C170.67 22.9802 172.854 25.5754 175.627 27.4579C175.946 26.942 176.023 26.1777 176.152 25.5857C176.132 21.2259 174.425 18.7785 171.776 15.5935C179.984 19.7787 187.213 25.5988 190.119 34.6435C191.008 37.4094 191.587 40.3845 192.086 43.2452C194.156 38.4675 194.417 33.8362 194.235 28.6881C194.201 27.7504 193.831 25.7277 194.661 25.1325C197.574 27.5156 199.429 32.1812 199.787 35.8428C200.343 41.5403 198.403 45.7272 195.878 50.6856C198.377 50.7569 207.737 50.6939 209.333 52.2448C209.51 52.4167 209.51 52.4088 209.491 52.6807C209.44 53.4347 208.526 54.6002 208.132 55.2785C214.616 60.4919 220.226 69.8833 221.156 78.2239C221.732 83.3985 219.017 84.0227 217.82 88.2227C215.033 97.994 214.045 108.295 210.951 117.938C210.418 119.598 209.537 121.547 209.697 123.302L208.707 123.828C206.147 123.506 203.318 123.61 201.208 125.288C198.538 127.411 196.693 135.04 195.891 135.18C194.408 131.574 194.129 127.614 192.547 124.063C191.432 121.558 190.05 119.159 188.819 116.709C187.04 113.172 185.432 109.534 183.78 105.936C179.837 97.3515 177.005 90.6854 177.318 80.985C177.398 78.5218 177.543 75.8768 178.064 73.4683C172.329 73.2359 162.023 76.7912 156.328 78.3997Q150.961 79.8718 145.511 81.0014C129.193 84.3148 112.769 83.4578 96.2906 82.1059C91.7456 81.7331 85.5808 82.8649 81.3925 81.3778C79.3042 88.6649 76.8614 95.8156 75.6264 103.319C74.6965 108.97 74.5467 114.797 74.264 120.51C74.0969 123.887 73.5414 127.945 74.3633 131.249C73.9407 132.601 74.2613 134.149 73.8338 135.326C73.5202 134.414 73.3566 133.332 73.2229 132.377L72.8916 132.33C72.5983 131.125 72.2762 129.967 71.8615 128.797C71.8729 127.544 71.9913 125.107 71.2063 124.116C70.9993 120.94 69.748 117.678 68.924 114.607C66.627 106.046 61.7038 92.8493 63.3942 84.3376C64.1688 80.437 65.9277 76.6962 67.487 73.0572C63.9379 71.3673 57.5341 68.1278 56.1493 64.1197C54.8547 60.3725 59.5799 59.1473 60.6909 56.4473C61.0492 55.5764 60.8225 55.0997 60.4651 54.294C60.4164 54.261 60.3649 54.232 60.3191 54.1951C57.8477 52.2019 57.1337 49.0409 56.9506 46.0617C60.6777 47.7839 63.9564 50.1999 67.6343 51.9653C71.5117 53.8265 75.9231 54.7679 80.0635 55.9033C77.615 53.9312 74.8619 52.3943 72.3722 50.4822C66.8631 46.251 63.1768 39.1248 61.6205 32.4235C60.2379 29.79 60.1845 26.0346 59.9802 23.1141C62.272 24.0663 64.9237 24.4937 67.3485 25.0704C78.7006 27.77 90.502 29.8009 102.166 30.446C103.148 30.5003 104.44 30.4277 105.199 29.7417C105.154 28.6894 98.3732 22.7437 97.3011 21.2861C105.28 22.2109 112.742 25.5833 120.874 25.8599C118.568 22.3375 111.877 17.6333 108.455 13.9489C108.655 10.8831 107.651 7.88763 107.721 4.9013Z"/>
	<path fill="#B12511" transform="scale(2 2)" d="M181.392 74.9799C181.834 73.0098 181.586 70.6224 182.338 68.739L182.597 68.6399C182.774 70.0013 182.639 71.8162 183.096 73.0815L181.392 74.9799Z"/>
	<path fill="#91160B" transform="scale(2 2)" d="M182.597 68.6399C183.058 68.1895 183.401 67.8424 184.04 67.6554C184.501 68.002 184.546 68.1348 184.623 68.7107C184.716 69.4131 184.307 70.0312 184.376 70.771C184.09 71.6079 183.568 72.3404 183.096 73.0815C182.639 71.8162 182.774 70.0013 182.597 68.6399Z"/>
	<path fill="#B12511" transform="scale(2 2)" d="M183.428 96.1933C183.537 96.295 183.611 96.3503 183.69 96.4709C184.077 97.0636 185.694 104.245 185.549 105.003L185.048 105.113C184.858 104.935 184.669 104.747 184.512 104.538C183.414 103.072 181.684 99.9761 182.004 98.1245C182.171 97.1526 182.687 96.7506 183.428 96.1933Z"/>
	<path fill="#B12511" transform="scale(2 2)" d="M176.152 25.5857C176.504 26.4046 176.774 27.3248 177.192 28.1037C178.873 31.2302 183.182 37.244 182.763 40.7833C181.131 39.8453 176.271 29.9056 175.664 27.6509C175.627 27.5135 175.633 27.5566 175.627 27.4579C175.946 26.942 176.023 26.1777 176.152 25.5857Z"/>
	<path fill="#CF3918" transform="scale(2 2)" d="M91.2409 43.5157C93.933 43.8687 95.2563 46.6059 97.6827 47.7198C101.428 49.439 105.189 50.4014 109.041 51.7432C110.572 52.2766 111.992 53.0564 113.506 53.6227C114.482 53.988 116.44 54.3096 117.212 54.841C117.345 54.9321 117.509 55.1986 117.618 55.3304C117.983 55.3966 118.118 55.4841 118.379 55.7558C118.547 55.9308 118.718 56.1036 118.884 56.2799C119.518 56.9507 124.715 58.2096 126.127 58.8506C126.728 59.1231 127.234 59.3613 127.469 59.9877C126.403 60.1937 124.313 58.8418 123.359 58.3244C123.104 58.2774 122.861 58.2348 122.62 58.1356C120.058 57.082 117.061 57.0024 114.355 56.4109C108.225 55.071 99.4033 51.6639 94.327 48.0947L94.5551 48.0072C95.6547 48.5539 96.7271 49.1347 97.8027 49.7262L98.1931 49.0399C98.1653 48.9445 98.1023 48.6026 98.0486 48.5441C97.7167 48.1827 96.6662 47.8518 96.1961 47.5061C94.4996 46.2587 93.2255 44.5903 91.3407 43.5688L91.2409 43.5157Z"/>
	<path fill="#B12511" transform="scale(2 2)" d="M186.481 68.5147C188.193 68.4099 190.995 68.197 192.364 69.393C193.151 70.0794 193.4 71.1326 193.431 72.1393C193.459 73.0847 193.195 74.0783 192.995 74.9989L192.792 74.9758C192.658 73.5484 193.222 70.8102 192.034 69.8427C191.042 69.0344 189.364 69.0021 188.161 69.1781C187.069 69.3378 185.623 69.8387 184.955 70.7796C183.694 72.5556 184.194 76.6854 184.654 78.7315C185.059 80.5279 186.204 83.3235 187.812 84.375C189.618 85.5562 193.489 86.0871 195.576 85.5132C197.2 85.0665 199.074 83.7228 199.826 82.2006C201.052 79.7174 200.319 75.2713 199.409 72.7263C198.986 71.5439 198.452 70.3907 197.918 69.2554L197.271 69.3611L197.857 69.0085L197.741 68.7069C198.447 69.0377 198.687 69.8233 198.936 70.5073C200.301 74.2571 200.78 78.2261 200.701 82.2062C198.6 84.3394 196.602 86.0592 193.43 86.1197C191.347 86.1594 189.463 85.5191 187.5 84.9098C186.352 83.3989 185.211 81.9128 184.535 80.1188C183.998 82.9516 182.964 90.1125 180.93 92.0579L180.547 92.0144C178.642 88.9387 180.725 78.6166 181.392 74.9799L183.096 73.0815C183.568 72.3404 184.09 71.6079 184.376 70.771C185.075 70.0186 185.76 69.2454 186.481 68.5147Z"/>
	<path fill="#7A0806" transform="scale(2 2)" d="M61.6205 32.4235C62.7008 33.2624 65.6422 42.0968 67.0061 44.1641C69.5425 48.0084 73.3229 50.7277 77.1256 53.1721C78.7824 54.2372 81.4135 56.0152 83.4868 55.6884C83.7416 55.6483 83.9638 55.5647 84.1931 55.4512C84.4059 54.9854 84.4578 54.944 84.2553 54.4385C82.7212 50.6085 72.2418 47.759 72.5182 44.2559L72.84 44.1888C73.1694 44.6167 73.5332 45.0345 73.8023 45.5028C74.3877 46.5217 75.9037 47.2104 76.8945 47.816C82.6054 51.3066 87.1253 52.9266 93.5508 54.5748C96.9338 55.4426 100.382 55.8548 103.811 56.4752C105.36 56.7556 106.871 57.2194 108.414 57.5085C109.157 57.6478 110.578 58.3639 111.114 58.8951C110.719 59.3081 110.393 59.3099 109.833 59.332C106.698 59.4559 102.019 58.9251 98.7218 58.7471C88.8088 58.2119 78.9719 57.5554 69.1169 56.3024C66.23 55.9353 63.293 54.4373 60.4651 54.294C60.4164 54.261 60.3649 54.232 60.3191 54.1951C57.8477 52.2019 57.1337 49.0409 56.9506 46.0617C60.6777 47.7839 63.9564 50.1999 67.6343 51.9653C71.5117 53.8265 75.9231 54.7679 80.0635 55.9033C77.615 53.9312 74.8619 52.3943 72.3722 50.4822C66.8631 46.251 63.1768 39.1248 61.6205 32.4235Z"/>
	<defs>
		<linearGradient id="gradient_5" gradientUnits="userSpaceOnUse" x1="103.15099" y1="27.216999" x2="121.77383" y2="49.395721">
			<stop offset="0" stop-color="#C72811"/>
			<stop offset="1" stop-color="#ED4F23"/>
		</linearGradient>
	</defs>
	<path fill="url(#gradient_5)" transform="scale(2 2)" d="M106.497 46.3366C101.305 44.2918 95.0366 43.2775 90.3277 40.2323C89.0785 39.4244 88.1483 37.9753 87.0208 36.9847C86.2127 36.2747 85.2919 35.9292 84.4328 35.3273C84.6276 35.2741 84.8215 35.2342 85.0247 35.2344C86.5507 35.2357 88.7307 37.8627 89.7788 38.8972C93.6795 34.8563 95.7601 36.5646 100.547 35.6103C102.177 35.2853 103.562 34.3888 105.211 34.0331L105.326 33.4451L105.425 33.682C104.865 33.3186 97.5348 32.0305 96.0951 31.6533C98.6813 31.7875 100.973 32.4366 103.503 32.8181C108.176 33.5226 113.444 33.624 117.792 35.7092C118.135 36.2084 118.584 36.3854 119.156 36.5008C120.952 36.8637 122.734 36.9218 124.527 37.3989C126.941 36.9645 129.008 36.6432 131.468 36.8946C132.305 36.4556 133.103 36.1521 134.011 35.8905C134.763 36.6902 135.5 37.514 136.295 38.2709C133.637 39.8945 126.09 43.7557 124.344 45.3823C119.523 46.0974 114.575 47.0923 109.686 47.0839C108.598 47.082 107.571 46.308 106.497 46.3366Z"/>
	<path fill="#EF5A44" transform="scale(2 2)" d="M124.527 37.3989C126.941 36.9645 129.008 36.6432 131.468 36.8946C130.621 37.7729 128.735 39.5697 127.481 39.6167C126.989 39.6351 126.271 39.4946 125.898 39.1625C125.291 38.6231 125.315 37.8553 124.527 37.3989Z"/>
	<defs>
		<linearGradient id="gradient_6" gradientUnits="userSpaceOnUse" x1="129.95497" y1="71.043297" x2="130.48463" y2="82.590157">
			<stop offset="0" stop-color="#EA6344"/>
			<stop offset="1" stop-color="#F69462"/>
		</linearGradient>
	</defs>
	<path fill="url(#gradient_6)" transform="scale(2 2)" d="M83.6702 75.9932C92.0546 76.0926 100.478 77.0103 108.883 77.1962C120.338 77.4495 130.52 76.5069 141.842 75.0602Q149.394 74.0749 156.831 72.4338C164.191 70.7776 171.197 68.8067 178.784 68.51C178.701 70.1074 178.601 71.9551 178.064 73.4683C172.329 73.2359 162.023 76.7912 156.328 78.3997Q150.961 79.8718 145.511 81.0014C129.193 84.3148 112.769 83.4578 96.2906 82.1059C91.7456 81.7331 85.5808 82.8649 81.3925 81.3778C82.04 79.5557 82.722 77.6824 83.6702 75.9932Z"/>
	<path fill="#CF3918" transform="scale(2 2)" d="M128.422 31.5135C128.746 30.6739 129.23 30.0495 130.104 29.7195C130.649 29.5133 132.479 29.6161 132.994 29.883C133.054 29.9142 133.112 29.9495 133.171 29.9828L133.23 30.1998C132.702 30.4102 132.178 30.2941 131.628 30.2329C131.46 31.4338 133.575 33.2922 133.944 34.5975L135.462 34.5219L135.494 34.9538L135.574 34.5105L135.674 34.5615C135.99 34.7191 136.277 34.8255 136.617 34.9174C138.63 34.2042 140.753 33.0612 142.881 32.8414L143.109 32.5675C141.903 32.1196 137 31.0136 136.554 30.0489C137.518 30.3292 138.779 30.8725 139.719 30.3469C140.436 29.9461 142.405 27.5984 142.622 26.8208C142.65 26.7177 142.65 26.554 142.654 26.4567C141.996 26.0691 141.067 26.2987 140.534 25.8297L140.839 25.7218L140.968 25.8353C141.004 25.8289 141.039 25.8213 141.074 25.816C142.1 25.6629 143.696 26.3403 144.695 26.6229C146.979 27.2691 149.375 27.839 151.585 28.6963C156.143 30.4649 160.416 33.0694 164.716 35.3787C165.466 35.782 166.735 36.1054 167.369 36.585C167.421 36.6247 167.518 36.7316 167.555 36.7713C166.553 36.9253 165.892 36.3197 164.946 36.7516C164.569 37.3432 164.094 37.9223 164.063 38.6416C164.746 39.1337 166.723 38.7381 167.003 39.1698C164.834 39.0117 163.147 39.3852 161.175 40.2893C161.454 42.6558 162.289 45.6094 161.603 47.9281C160.205 49.49 143.908 50.1323 141.075 50.2886C131.69 50.8061 117.313 52.0419 108.886 47.7111C108.279 47.3993 107.17 47.0494 106.702 46.6044C106.614 46.5213 106.566 46.4375 106.497 46.3366C107.571 46.308 108.598 47.082 109.686 47.0839C114.575 47.0923 119.523 46.0974 124.344 45.3823C126.09 43.7557 133.637 39.8945 136.295 38.2709C135.5 37.514 134.763 36.6902 134.011 35.8905C133.103 36.1521 132.305 36.4556 131.468 36.8946C129.008 36.6432 126.941 36.9645 124.527 37.3989C122.734 36.9218 120.952 36.8637 119.156 36.5008C118.584 36.3854 118.135 36.2084 117.792 35.7092C118.739 35.9553 121.121 36.5428 121.96 36.1724C121.552 35.3006 120.819 35.471 120.411 34.2296C120.374 34.2436 120.337 34.2612 120.298 34.2718C119.449 34.5031 116.987 34.1801 116.25 33.6921C115.56 33.2348 114.811 33.1518 114.153 32.5978C113.99 32.0586 113.89 31.9238 114.066 31.3742C114.352 31.2473 114.641 31.1496 114.947 31.0877C115.968 30.8812 125.526 30.5596 126.49 30.6832C127.236 30.7787 127.804 31.1066 128.422 31.5135Z"/>
	<defs>
		<linearGradient id="gradient_7" gradientUnits="userSpaceOnUse" x1="157.5701" y1="194.91487" x2="108.14222" y2="71.573395">
			<stop offset="0" stop-color="#FAAD78"/>
			<stop offset="1" stop-color="#FFD09E"/>
		</linearGradient>
	</defs>
	<path fill="url(#gradient_7)" transform="scale(2 2)" d="M81.3925 81.3778C85.5808 82.8649 91.7456 81.7331 96.2906 82.1059C112.769 83.4578 129.193 84.3148 145.511 81.0014Q150.961 79.8718 156.328 78.3997C162.023 76.7912 172.329 73.2359 178.064 73.4683C177.543 75.8768 177.398 78.5218 177.318 80.985C177.005 90.6854 179.837 97.3515 183.78 105.936C185.432 109.534 187.04 113.172 188.819 116.709C190.05 119.159 191.432 121.558 192.547 124.063C194.129 127.614 194.408 131.574 195.891 135.18C196.693 135.04 198.538 127.411 201.208 125.288C203.318 123.61 206.147 123.506 208.707 123.828L209.697 123.302C211.884 125.002 213.838 127.928 215.409 130.205C214.822 133.001 215.665 134.543 215.505 137.074C215.937 142.093 215.563 149.317 212.167 153.342L212.088 153.434C208.95 158.015 204.254 161.449 198.729 162.508C197.914 162.665 197.057 162.806 196.226 162.78L196.008 162.801C194.59 162.927 192.099 162.805 191.015 161.791C190.627 161.428 190.453 160.757 190.129 160.302L189.823 160.313C188.442 163.201 187.634 166.343 186.238 169.213C184.233 173.335 181.121 177.355 178.041 180.725C176.896 181.977 175.563 183.147 174.487 184.445C169.254 188.395 164.578 192.175 158.34 194.539C143.742 201.74 137.996 204.245 121.422 202.141C114.893 200.418 108.729 197.572 102.979 194.037C92.5292 187.613 80.2441 176.797 77.2807 164.412C77.2298 163.594 77.0653 162.861 76.8514 162.072C76.6241 162.414 76.5029 162.386 76.1184 162.496C74.9357 161.051 74.5328 154.162 74.295 152.045C74.2991 151.549 74.3594 151.101 74.4576 150.615L74.7709 150.463L75.2978 151.414L74.9678 151.964L75.6749 152.17L75.6608 152.228C76.1174 150.354 75.5924 148.142 75.7839 146.172C75.8122 145.01 75.6402 144.017 75.3907 142.892C74.7939 141.205 73.8424 139.749 72.9116 138.231C74.1048 136.603 72.8615 134.197 72.8916 132.33L73.2229 132.377C73.3566 133.332 73.5202 134.414 73.8338 135.326C74.2613 134.149 73.9407 132.601 74.3633 131.249C73.5414 127.945 74.0969 123.887 74.264 120.51C74.5467 114.797 74.6965 108.97 75.6264 103.319C76.8614 95.8156 79.3042 88.6649 81.3925 81.3778Z"/>
	<path fill="#F68754" transform="scale(2 2)" d="M150.642 150.418C151.238 150.257 151.532 150.083 152.135 150.319C152.217 150.894 152.085 151.142 151.807 151.642C151.331 151.98 150.991 152.303 150.404 152.21C150.191 151.585 150.453 151.022 150.642 150.418Z"/>
	<path fill="#FA9360" transform="scale(2 2)" d="M137.18 146.444L138.061 146.379C138.319 146.777 138.709 147.156 138.573 147.65C138.305 148.624 137.735 148.761 137.693 149.916C137.501 149.509 137.219 149.152 136.957 148.788L137.18 146.444Z"/>
	<path fill="#FA9360" transform="scale(2 2)" d="M128.893 139.757C128.946 139.239 129.194 138.047 129.054 137.57C128.858 136.903 128.54 136.85 128.57 136.042C128.951 135.578 128.94 135.567 129.532 135.485L129.954 135.888C130.234 136.736 129.817 137.494 129.507 138.279L128.893 139.757Z"/>
	<path fill="#FAB890" transform="scale(2 2)" d="M132.886 162.696C135.323 161.986 136.915 162.06 139.368 162.609L137.847 162.999C136.187 163.082 134.535 162.863 132.886 162.696Z"/>
	<path fill="#FBA46E" transform="scale(2 2)" d="M134.329 144.889C134.397 144.649 134.356 144.704 134.479 144.533C135.097 143.67 136.381 144.911 137.502 144.713L137.987 144.778L138.061 146.379L137.18 146.444C136.16 145.372 135.817 145.085 134.329 144.889Z"/>
	<path fill="#FA9360" transform="scale(2 2)" d="M142.38 138.199C143.383 139.194 143.668 140.263 143.634 141.665C143.63 141.809 143.612 141.93 143.586 142.071C143.229 141.95 142.878 141.804 142.527 141.668C142.326 141.292 142.086 140.878 141.976 140.465C141.723 139.511 141.94 139.018 142.38 138.199Z"/>
	<path fill="#FBA46E" transform="scale(2 2)" d="M136.426 138.106C136.648 138.049 136.738 138.147 136.942 138.238C137.166 138.899 137.265 139.063 137.051 139.756C136.224 140.02 135.769 140.473 135.166 141.077C134.665 140.624 134.292 140.295 134.068 139.632C134.501 138.903 135.672 138.586 136.426 138.106Z"/>
	<path fill="#FA9360" transform="scale(2 2)" d="M132.536 136.984C132.835 136.319 133.179 135.197 133.924 134.944C134.197 134.85 134.478 134.798 134.762 134.753L135.155 134.983C135.209 135.54 135.234 135.786 134.843 136.25C134.63 136.503 134.271 136.716 134.004 136.913C133.897 136.991 133.81 137.076 133.721 137.174C133.524 137.604 133.168 137.742 132.768 137.962C132.669 138.212 132.537 138.476 132.484 138.738L131.317 138.128L131.55 137.385C131.968 137.029 131.99 137.005 132.536 136.984Z"/>
	<path fill="#FBA46E" transform="scale(2 2)" d="M131.317 138.128L132.484 138.738L132.733 139.38C132.273 140.228 130.926 140.759 130.039 141.013C129.431 141.187 128.889 141.254 128.259 141.194L127.982 140.908C128.128 140.325 128.447 140.108 128.893 139.757L129.507 138.279C129.78 138.781 129.956 139.119 130.486 139.372C131.021 139.032 131.078 138.686 131.317 138.128Z"/>
	<path fill="#F68754" transform="scale(2 2)" d="M184.469 142.264C185.151 142.161 185.222 142.144 185.83 142.456C186.477 143.38 186.21 144.595 186.07 145.648L185.731 145.877C185.011 145.548 184.621 145.139 184.103 144.56C183.584 144.42 183.15 144.311 182.608 144.331C183.32 143.687 183.897 143.034 184.469 142.264Z"/>
	<path fill="#FAB890" transform="scale(2 2)" d="M134.329 144.889C135.817 145.085 136.16 145.372 137.18 146.444L136.957 148.788L136.011 148.66C135.157 148.147 134.46 147.655 133.771 146.934L134.242 146.84C134.617 146.179 134.41 145.633 134.329 144.889Z"/>
	<path fill="#F68754" transform="scale(2 2)" d="M134.763 149.446C133.757 149.116 132.562 148.722 131.836 147.927L131.906 147.494C132.443 147.078 133.12 147.034 133.771 146.934C134.46 147.655 135.157 148.147 136.011 148.66L136.957 148.788C137.219 149.152 137.501 149.509 137.693 149.916L137.1 150.308C136.208 150.384 135.506 149.872 134.763 149.446Z"/>
	<path fill="#F68754" transform="scale(2 2)" d="M125.018 157.29C125.775 157.736 126.651 157.466 127.471 157.334C127.884 157.534 128.313 157.786 128.745 157.936C125.864 159.006 123.126 159.228 120.092 158.886C121.244 158.39 122.329 157.795 123.425 157.189L125.018 157.29Z"/>
	<path fill="#FA9360" transform="scale(2 2)" d="M137.502 144.713C137.393 143.626 136.757 141.884 137.079 140.885L137.502 140.64C137.871 140.752 138.048 140.72 138.23 141.077C138.666 141.929 138.434 143.136 139.221 143.759C139.783 143.669 140.106 143.266 140.501 142.888C140.985 143.69 140.761 144.874 140.552 145.756L140.251 146.068C139.07 145.83 139.327 144.685 137.987 144.778L137.502 144.713Z"/>
	<path fill="#FA9360" transform="scale(2 2)" d="M132.886 162.696C134.535 162.863 136.187 163.082 137.847 162.999L134.163 164.023C131.876 164.466 129.504 165.061 127.17 165.104C128.833 163.582 130.775 163.237 132.886 162.696Z"/>
	<path fill="#270804" transform="scale(2 2)" d="M112.935 117.953C114.918 122.659 115.1 126.831 115.628 131.809C115.41 132.043 115.398 132.159 115.069 132.196C115.002 130.534 114.765 128.887 114.554 127.239C114.228 124.69 112.924 122.203 111.691 119.994C111.823 119.941 111.857 119.936 111.968 119.867C112.622 119.459 112.76 118.645 112.935 117.953Z"/>
	<path fill="#F68754" transform="scale(2 2)" d="M74.3633 131.249C74.8519 133.816 75.959 140.574 75.3907 142.892C74.7939 141.205 73.8424 139.749 72.9116 138.231C74.1048 136.603 72.8615 134.197 72.8916 132.33L73.2229 132.377C73.3566 133.332 73.5202 134.414 73.8338 135.326C74.2613 134.149 73.9407 132.601 74.3633 131.249Z"/>
	<path fill="#B12511" transform="scale(2 2)" d="M75.7839 146.172C76.3302 151.473 76.1198 156.757 76.8514 162.072C76.6241 162.414 76.5029 162.386 76.1184 162.496C74.9357 161.051 74.5328 154.162 74.295 152.045C74.2991 151.549 74.3594 151.101 74.4576 150.615L74.7709 150.463L75.2978 151.414L74.9678 151.964L75.6749 152.17L75.6608 152.228C76.1174 150.354 75.5924 148.142 75.7839 146.172Z"/>
	<path fill="#B12511" transform="scale(2 2)" d="M131.673 152.739C132.327 152.965 132.86 153.11 133.203 153.784C133.522 154.41 133.371 154.955 133.165 155.577C132.906 155.853 132.658 156.153 132.349 156.374C131.185 157.058 130.012 157.494 128.745 157.936C128.313 157.786 127.884 157.534 127.471 157.334L128.731 156.158L127.615 155.103C127.962 154.363 128.532 153.947 129.152 153.443L129.134 153.004C129.754 152.61 130.934 152.745 131.673 152.739Z"/>
	<path fill="#EF5A44" transform="scale(2 2)" d="M129.152 153.443C129.624 154.003 130.125 154.554 130.568 155.136C129.965 155.509 129.377 155.861 128.731 156.158L127.615 155.103C127.962 154.363 128.532 153.947 129.152 153.443Z"/>
	<path fill="#B12511" transform="scale(2 2)" d="M114.151 151.792C117.443 152.641 118.746 158.824 122.559 156.555C122.594 156.534 122.629 156.511 122.664 156.488L123.425 157.189C122.329 157.795 121.244 158.39 120.092 158.886C116.856 157.721 115.033 155.463 113.612 152.467L114.151 151.792Z"/>
	<path fill="#CF3918" transform="scale(2 2)" d="M118.583 187.232C119.821 188.778 122.386 189.663 124.274 189.874C127.324 190.215 130.234 189.447 133.091 188.464C133.051 188.507 133.011 188.551 132.97 188.593C131.91 189.684 129.919 189.407 129.063 190.521C129.529 190.831 129.862 190.953 130.438 190.856C131.908 190.61 133.062 189.775 134.605 189.952C132.415 190.984 129.786 191.753 127.355 191.868C123.776 192.037 120.778 190.657 118.176 188.301L118.583 187.232Z"/>
	<path fill="#FAB890" transform="scale(2 2)" d="M142.993 133.044C143.943 135.676 144.885 139.82 146.816 141.895C147.368 142.095 147.692 142.147 148.268 142.02C148.46 142.284 148.699 142.533 148.724 142.87C147.263 143.054 147.394 143.842 145.811 142.751C145.125 142.824 144.592 143.249 144.035 143.622C143.705 143.303 143.553 143.017 143.364 142.6L143.586 142.071C143.612 141.93 143.63 141.809 143.634 141.665C143.668 140.263 143.383 139.194 142.38 138.199C141.933 137.172 141.899 134.832 142.18 133.771C142.292 133.346 142.632 133.264 142.993 133.044Z"/>
	<path fill="#B12511" transform="scale(2 2)" d="M133.091 188.464C137.645 186.795 140.523 185.311 143.483 181.375C143.978 182.001 144.445 182.472 145.088 182.945C142.579 185.851 138.466 189.173 134.605 189.952C133.062 189.775 131.908 190.61 130.438 190.856C129.862 190.953 129.529 190.831 129.063 190.521C129.919 189.407 131.91 189.684 132.97 188.593C133.011 188.551 133.051 188.507 133.091 188.464Z"/>
	<path fill="#CF3918" transform="scale(2 2)" d="M123.043 150.817C125.253 150.784 126.973 151.619 128.965 152.41L131.146 152.504L131.673 152.739C130.934 152.745 129.754 152.61 129.134 153.004L129.152 153.443C128.532 153.947 127.962 154.363 127.615 155.103L128.731 156.158L127.471 157.334C126.651 157.466 125.775 157.736 125.018 157.29L123.425 157.189L122.664 156.488C123.005 155.008 123.293 154.152 124.442 153.122C124.062 152.237 123.663 151.556 123.043 150.817Z"/>
	<path fill="#EF5A44" transform="scale(2 2)" d="M127.615 155.103L128.731 156.158L127.471 157.334C126.651 157.466 125.775 157.736 125.018 157.29C125.904 156.587 126.755 155.837 127.615 155.103Z"/>
	<path fill="#F68754" transform="scale(2 2)" d="M123.043 150.817C125.253 150.784 126.973 151.619 128.965 152.41C128.927 152.422 128.888 152.431 128.85 152.445C127.084 153.073 126.258 155.919 124.328 156.399L124.132 156.075L124.215 155.858C124.565 154.925 124.591 154.1 124.442 153.122C124.062 152.237 123.663 151.556 123.043 150.817Z"/>
	<path fill="#F68754" transform="scale(2 2)" d="M192.236 151.742L192.987 152.055L194.552 152.627C196.71 154.439 200.543 154.256 203.196 154.023C205.527 153.817 209.124 152.917 211.328 153.614L211.763 153.25L212.088 153.434C208.95 158.015 204.254 161.449 198.729 162.508C197.914 162.665 197.057 162.806 196.226 162.78C197.487 161.426 203.883 161.504 206.252 158.594C206.236 157.896 205.606 157.373 205.175 156.831C205.125 156.128 205.901 155.468 206.354 154.918L206.297 154.485L205.891 154.234C205.799 154.261 205.707 154.288 205.614 154.31C204.725 154.528 203.635 154.472 202.715 154.504C198.899 154.639 196.121 154.396 192.802 152.327C192.136 152.862 190.73 155.293 190.493 156.158C190.476 156.22 190.46 156.283 190.444 156.345L189.562 155.493C189.409 154.708 189.86 153.304 190.209 152.568C190.487 151.982 190.647 151.927 191.216 151.723L192.236 151.742Z"/>
	<path fill="#EF5A44" transform="scale(2 2)" d="M117.663 149.059C119.499 149.282 120.793 149.696 122.391 150.593L123.043 150.817C123.663 151.556 124.062 152.237 124.442 153.122C123.293 154.152 123.005 155.008 122.664 156.488C122.629 156.511 122.594 156.534 122.559 156.555C118.746 158.824 117.443 152.641 114.151 151.792C114.531 151.572 114.909 151.119 115.236 150.814C115.59 150.074 116.955 149.483 117.663 149.059Z"/>
	<path fill="#F68754" transform="scale(2 2)" d="M117.663 149.059C119.499 149.282 120.793 149.696 122.391 150.593L121.523 150.806C121.289 151.264 121.175 151.68 121.076 152.183C120.094 152.652 117.565 151.91 116.534 151.504C116.113 151.338 115.806 151.073 115.419 150.876C115.361 150.847 115.297 150.834 115.236 150.814C115.59 150.074 116.955 149.483 117.663 149.059Z"/>
	<path fill="#FBA46E" transform="scale(2 2)" d="M113.612 152.467C113.582 152.418 113.545 152.373 113.522 152.321C113.02 151.19 113.264 149.915 113.801 148.847C114.472 147.515 118.091 142.585 119.314 142.023C119.924 141.742 120.497 142.226 121.145 142.019C120.803 141.45 120.065 140.979 119.508 140.644C119.374 140.791 119.233 140.934 119.099 141.081C118.959 141.235 118.828 141.398 118.668 141.533C118.195 141.928 117.439 142.05 116.847 141.982L117.274 141.778L117.311 141.576C118.487 140.921 119.607 140.23 120.72 139.475C121.433 139.614 122.202 139.705 122.878 139.973C123.375 140.301 123.864 140.612 124.393 140.887C124.407 140.935 124.422 140.984 124.435 141.033C124.612 141.727 124.507 142.252 124.371 142.939L124.603 143.337C125.948 143.254 126.757 142.446 128.029 143.244C128.033 143.634 128.08 143.654 127.805 143.936C127.185 144.573 126.155 145.474 125.227 145.511C123.863 145.565 122.737 143.959 121.457 144.247C118.494 144.912 116.915 149.153 114.015 149.728C113.773 150.214 113.789 150.236 113.911 150.77C115.408 150.218 116.345 149.056 118.058 148.871C118.731 148.798 119.434 148.884 120.09 149.041C121.486 149.374 122.714 150.194 124.078 150.526C126.098 151.019 128.901 151.148 130.707 152.142C130.874 152.234 131.011 152.375 131.146 152.504L128.965 152.41C126.973 151.619 125.253 150.784 123.043 150.817L122.391 150.593C120.793 149.696 119.499 149.282 117.663 149.059C116.955 149.483 115.59 150.074 115.236 150.814C114.909 151.119 114.531 151.572 114.151 151.792L113.612 152.467Z"/>
	<path fill="#F68754" transform="scale(2 2)" d="M120.72 139.475C121.433 139.614 122.202 139.705 122.878 139.973C122.719 140.457 122.534 140.942 122.424 141.44C121.837 141.536 121.518 141.546 120.981 141.273C120.588 140.679 120.673 140.148 120.72 139.475Z"/>
	<path fill="#E67243" transform="scale(2 2)" d="M123.972 144.046C124.874 143.893 126.287 143.257 127.088 143.488C127.001 144.032 126.856 144.27 126.384 144.587C125.875 144.928 125.109 145.097 124.516 144.964C124.102 144.871 123.672 144.666 123.302 144.461L123.972 144.046Z"/>
	<path fill="#F68754" transform="scale(2 2)" d="M117.819 144.464C118.076 144.828 118.32 145.233 118.613 145.567C117.436 146.645 116.118 147.991 114.654 148.653L114.571 148.454C115.356 147.04 116.758 145.698 117.819 144.464Z"/>
	<path fill="#E67243" transform="scale(2 2)" d="M117.819 144.464C118.796 143.483 119.489 142.607 120.99 142.563L121.258 142.885C120.986 144.203 119.651 144.862 118.613 145.567C118.32 145.233 118.076 144.828 117.819 144.464Z"/>
	<path fill="#FBA46E" transform="scale(2 2)" d="M144.035 143.622C144.592 143.249 145.125 142.824 145.811 142.751C147.394 143.842 147.263 143.054 148.724 142.87C149.426 143.652 150.322 143.787 151.299 144.015C153.127 144.392 154.943 144.809 156.82 144.812C157.575 144.962 158.341 145.151 159.102 145.258L160.774 145.229C162.152 145.469 163.453 145.422 164.841 145.362C164.415 145.944 164.289 146.116 164.216 146.862C162.876 147.282 161.133 146.765 159.692 147.076L159.184 147.862C158.21 147.596 158.041 146.84 156.93 146.904L156.029 147.018C155.14 148.881 153.738 151.051 153.96 153.22C153.465 152.267 154.023 151.473 153.67 150.757C152.903 150.688 152.378 151.204 151.807 151.642C152.085 151.142 152.217 150.894 152.135 150.319C151.532 150.083 151.238 150.257 150.642 150.418C150.268 149.775 149.879 149.275 149.36 148.743C148.197 148.37 147.994 144.905 146.838 143.957L146.383 144.056C145.822 144.878 146.116 146.336 146.206 147.307C146.492 147.702 146.787 147.912 147.204 148.164L147.352 148.253C147.499 148.767 147.555 149.054 147.359 149.561C147.223 149.329 147.086 149.095 146.937 148.871C146.584 148.338 146.381 148.048 145.748 147.916C145.373 148.505 145.031 149.064 144.509 149.536L144.075 149.435C143.999 148.612 144.388 148.049 144.718 147.3L144.664 144.694C144.407 144.405 144.223 143.962 144.035 143.622Z"/>
	<path fill="#F68754" transform="scale(2 2)" d="M148.776 146.593C148.417 146.152 147.997 145.48 147.891 144.917C147.806 144.468 147.857 144.41 148.112 144.038C149.079 143.649 150.283 143.911 151.299 144.015C153.127 144.392 154.943 144.809 156.82 144.812C157.575 144.962 158.341 145.151 159.102 145.258L160.774 145.229C162.152 145.469 163.453 145.422 164.841 145.362C164.415 145.944 164.289 146.116 164.216 146.862C162.876 147.282 161.133 146.765 159.692 147.076L159.184 147.862C158.21 147.596 158.041 146.84 156.93 146.904L156.029 147.018L155.524 146.428C154.243 145.98 152.671 145.271 151.316 145.24C150.066 145.211 149.622 145.793 148.776 146.593Z"/>
	<path fill="#FBA46E" transform="scale(2 2)" d="M113.385 127.697C113.704 127.428 114.157 127.35 114.554 127.239C114.765 128.887 115.002 130.534 115.069 132.196C115.398 132.159 115.41 132.043 115.628 131.809C116.274 133.261 115.889 136.188 115.858 137.817C113.019 142.837 110.565 143.739 105.701 146.407C105.907 147.032 106.262 147.447 106.847 147.76C107.512 148.117 107.769 148.109 108.459 147.877C109.331 146.947 110.458 145.596 111.653 145.137C111.8 145.56 111.632 145.736 111.442 146.12C111.017 146.98 110.369 147.67 109.901 148.495C110.438 149.213 111.061 149.712 111.084 150.622C110.425 151.685 109.201 152.137 108.469 153.17L108.355 153.268C108.047 153.528 107.755 153.735 107.407 153.94C107.042 154.155 106.885 154.318 106.722 154.706C106.77 155.301 106.877 155.949 106.79 156.541C106.776 156.606 106.764 156.672 106.747 156.737C106.592 157.335 105.731 158.209 105.184 158.479C104.736 158.7 104.138 158.682 103.682 158.476C102.98 158.161 101.963 156.818 101.709 156.123C101.023 156.03 100.801 155.946 100.21 156.381C99.6596 156.785 99.3203 157.773 99.249 158.421C99.2434 158.473 99.2402 158.525 99.2359 158.576L99.0172 158.254C98.9305 157.879 98.8812 157.839 98.605 157.564L98.4756 157.624C97.8858 156.572 97.4124 155.362 96.2552 154.851C96.2302 153.555 96.1572 152.469 95.7533 151.221C96.2747 151.191 96.6455 151.173 97.0162 150.777C97.7629 149.978 99.153 148.229 99.1206 147.132C98.7882 146.708 98.5687 146.509 98.0539 146.338L96.2359 145.775C97.6125 145.943 99.0914 145.593 100.472 145.467L100.16 144.045L100.78 143.988Q101.289 143.989 101.798 143.985C103.755 143.967 105.609 143.958 107.068 142.475C106.331 142.287 105.555 142.17 104.99 141.625C104.952 140.89 105.171 140.658 105.525 140.027L106.2 139.655C109.544 138.471 110.62 134.805 113.618 133.639C113.719 132.189 113.823 130.828 113.566 129.386L113.385 127.697Z"/>
	<path fill="#BEC7CC" transform="scale(2 2)" d="M107.068 142.475L107.444 142.275C107.138 142.84 107.076 143.14 107.181 143.775C107.444 144.171 107.448 144.27 107.915 144.423C106.11 145.429 102.492 145.776 100.472 145.467L100.16 144.045L100.78 143.988Q101.289 143.989 101.798 143.985C103.755 143.967 105.609 143.958 107.068 142.475Z"/>
	<path fill="#FA9360" transform="scale(2 2)" d="M101.709 156.123C102.348 155.579 102.349 155.25 102.41 154.43Q102.432 154.098 102.436 153.765C103.072 153.61 103.584 153.608 104.165 153.95C105.249 154.588 105.745 156.053 106.79 156.541C106.776 156.606 106.764 156.672 106.747 156.737C106.592 157.335 105.731 158.209 105.184 158.479C104.736 158.7 104.138 158.682 103.682 158.476C102.98 158.161 101.963 156.818 101.709 156.123Z"/>
	<path fill="#EAEFE6" transform="scale(2 2)" d="M113.385 127.697C113.704 127.428 114.157 127.35 114.554 127.239C114.765 128.887 115.002 130.534 115.069 132.196C114.982 135.57 115.383 138.542 112.692 141.165C111.372 142.452 109.546 143.572 107.915 144.423C107.448 144.27 107.444 144.171 107.181 143.775C107.076 143.14 107.138 142.84 107.444 142.275L107.068 142.475C106.331 142.287 105.555 142.17 104.99 141.625C104.952 140.89 105.171 140.658 105.525 140.027L106.2 139.655C109.544 138.471 110.62 134.805 113.618 133.639C113.719 132.189 113.823 130.828 113.566 129.386L113.385 127.697Z"/>
	<path fill="#BDF8FD" transform="scale(2 2)" d="M113.618 133.639C113.971 134.52 113.649 135.724 113.301 136.566C112.403 138.737 110.216 141.181 108.031 142.089C107.831 142.171 107.653 142.223 107.444 142.275L107.068 142.475C106.331 142.287 105.555 142.17 104.99 141.625C104.952 140.89 105.171 140.658 105.525 140.027L106.2 139.655C109.544 138.471 110.62 134.805 113.618 133.639Z"/>
	<path fill="#4C100C" transform="scale(2 2)" d="M97.0348 89.8326C97.5164 89.7592 97.9954 89.7384 98.4818 89.7321C102.45 89.6808 107.513 91.0077 110.385 93.8844C111.595 95.0961 112.339 96.6848 112.292 98.4139C112.271 99.1824 112.083 99.7738 111.511 100.316C109.158 101.112 103.37 99.6467 100.688 99.3861C98.7881 99.2014 96.871 99.1454 94.9638 99.0791C89.9681 99.3678 85.4157 100.53 80.6248 101.877C81.0255 100.047 81.5939 98.4898 82.7182 96.9697C85.9428 92.6099 91.8879 90.6293 97.0348 89.8326Z"/>
	<path fill="#4C100C" transform="scale(2 2)" d="M153.474 89.0962C156.754 88.8724 160.148 89.4134 163.272 90.4063C169.529 92.3948 173.217 95.3841 176.222 101.198C172.072 100.554 167.976 99.6568 163.808 99.0736Q160.525 98.6876 157.219 98.693Q153.913 98.6983 150.631 99.0949C147.391 99.5054 144.123 100.159 140.859 100.274C140.842 97.9125 141.326 95.8095 142.812 93.9205C145.392 90.6404 149.527 89.5491 153.474 89.0962Z"/>
	<path fill="#F68754" transform="scale(2 2)" d="M80.6342 144.814L81.068 144.574L81.1702 143.622C81.7239 143.296 82.1209 143.159 82.7713 143.314C83.9322 143.592 86.6416 145.299 87.2196 146.397C87.2469 146.449 87.2708 146.502 87.2963 146.555C88.0481 147.083 88.7623 147.602 89.4233 148.242C90.2339 149.287 90.3241 150.163 90.4014 151.454L90.9036 152.036C90.7438 152.668 91.0939 153.861 91.4215 154.465C91.5077 154.624 91.6379 154.768 91.7632 154.897C91.9921 154.747 92.1269 154.661 92.2958 154.44C92.3919 154.888 92.4385 155.312 92.4598 155.77C92.9286 156.447 93.335 156.824 93.1781 157.712C93.1451 157.899 93.0963 158.085 93.0488 158.269L92.6826 158.494L92.8095 158.827C92.9805 159.525 93.0661 160.109 93.7312 160.528C94.4569 160.984 95.5272 161.019 96.3563 161.108C94.4466 163.852 92.8459 166.76 89.3195 167.726C87.8691 168.123 83.011 167.251 81.7144 166.49C81.6731 166.465 81.6336 166.438 81.5933 166.413C80.9767 166.405 80.6578 166.441 80.1597 166.818C80.1838 167.073 80.1691 167.335 80.1667 167.591C79.0927 165.109 78.7378 162.05 78.4939 159.38C78.1626 155.752 77.9467 150.113 79.3188 146.681C79.5851 146.015 80.1797 145.361 80.6342 144.814Z"/>
	<path fill="#E67243" transform="scale(2 2)" d="M92.4598 155.77C92.9286 156.447 93.335 156.824 93.1781 157.712C93.1451 157.899 93.0963 158.085 93.0488 158.269C92.442 158.064 92.1731 158.059 91.8123 157.504C91.8293 156.827 92.1409 156.346 92.4598 155.77Z"/>
	<path fill="#E67243" transform="scale(2 2)" d="M85.6002 154.306C87.2682 154.468 88.2854 156.945 89.6995 157.563C90.1087 157.742 90.8632 157.781 91.3232 157.906L91.2361 159.018C91.0444 159.025 90.862 159.019 90.671 159.018C90.6101 159.018 90.5492 159.023 90.4884 159.021C89.0928 158.993 86.7341 157.223 85.8231 156.184C85.314 155.603 85.5264 155 85.6002 154.306Z"/>
	<path fill="#E67243" transform="scale(2 2)" d="M84.6761 144.784C85.5023 145.47 86.3769 146.008 87.2963 146.555C88.0481 147.083 88.7623 147.602 89.4233 148.242C90.2339 149.287 90.3241 150.163 90.4014 151.454C90.2417 151.798 90.1983 151.816 89.8721 152.015C87.9536 151.301 88.3311 152.954 86.8861 153.047C86.5013 151.796 86.2813 150.491 85.9854 149.216C85.4764 147.718 85.012 146.337 84.6761 144.784Z"/>
	<path fill="#F68754" transform="scale(2 2)" d="M86.5757 148.708L87.0808 148.094C87.952 148.035 88.3554 148.367 89.1234 148.76C88.9319 149.414 88.7603 149.925 88.3611 150.488L87.8698 150.646C87.0837 150.108 86.9652 149.555 86.5757 148.708Z"/>
	<defs>
		<linearGradient id="gradient_8" gradientUnits="userSpaceOnUse" x1="88.782448" y1="109.40187" x2="102.56475" y2="139.46986">
			<stop offset="0" stop-color="black"/>
			<stop offset="1" stop-color="#1F0704"/>
		</linearGradient>
	</defs>
	<path fill="url(#gradient_8)" transform="scale(2 2)" d="M80.178 118.259C82.7845 114.299 84.7713 111.174 89.098 108.857C93.0751 106.728 97.6786 106.096 102.022 107.413C107.363 109.033 110.41 113.258 112.935 117.953C112.76 118.645 112.622 119.459 111.968 119.867C111.857 119.936 111.823 119.941 111.691 119.994C109.037 116.278 106.182 112.953 101.403 112.182C97.6987 111.584 93.885 112.369 90.8366 114.589C86.7877 117.537 83.8777 122.841 83.1167 127.748C82.3844 132.469 83.8007 136.677 86.6279 140.467C87.1278 141.137 87.7108 141.741 88.2349 142.393C89.6687 143.252 91.0578 144.072 92.6148 144.69L96.2359 145.775L98.0539 146.338C98.5687 146.509 98.7882 146.708 99.1206 147.132C99.153 148.229 97.7629 149.978 97.0162 150.777C96.6455 151.173 96.2747 151.191 95.7533 151.221C96.1572 152.469 96.2302 153.555 96.2552 154.851C97.4124 155.362 97.8858 156.572 98.4756 157.624L98.605 157.564C98.8812 157.839 98.9305 157.879 99.0172 158.254L99.2359 158.576C98.9147 159.637 98.4293 160.023 97.4743 160.537Q96.9205 160.833 96.3563 161.108C95.5272 161.019 94.4569 160.984 93.7312 160.528C93.0661 160.109 92.9805 159.525 92.8095 158.827L92.6826 158.494L93.0488 158.269C93.0963 158.085 93.1451 157.899 93.1781 157.712C93.335 156.824 92.9286 156.447 92.4598 155.77C92.4385 155.312 92.3919 154.888 92.2958 154.44C92.1269 154.661 91.9921 154.747 91.7632 154.897C91.6379 154.768 91.5077 154.624 91.4215 154.465C91.0939 153.861 90.7438 152.668 90.9036 152.036L90.4014 151.454C90.3241 150.163 90.2339 149.287 89.4233 148.242C88.7623 147.602 88.0481 147.083 87.2963 146.555C87.2708 146.502 87.2469 146.449 87.2196 146.397C86.6416 145.299 83.9322 143.592 82.7713 143.314C82.1209 143.159 81.7239 143.296 81.1702 143.622L81.068 144.574L80.6342 144.814C80.6433 144.137 80.5982 143.805 80.9496 143.208C81.7529 142.76 82.5925 142.83 83.4845 142.832C83.5828 142.75 83.7229 142.702 83.7796 142.587C83.8634 142.417 80.4984 136.43 80.0959 135.588C77.4472 130.052 77.807 126.481 78.7792 120.566C78.9605 119.463 79.2728 118.909 80.178 118.259Z"/>
	<path fill="#4C100C" transform="scale(2 2)" d="M88.2349 142.393C89.6687 143.252 91.0578 144.072 92.6148 144.69C92.4489 145.203 92.2636 145.694 92.2342 146.237C90.1265 145.714 87.989 144.956 86.2647 143.609C87.6333 143.929 89.0972 144.895 90.3721 145.085C90.7483 145.142 90.8283 145.168 91.1313 144.951C91.075 144.52 90.9334 144.435 90.6504 144.116C89.6554 143.795 88.8099 143.536 88.3109 142.552C88.2842 142.5 88.2602 142.446 88.2349 142.393Z"/>
	<path fill="#FA9360" transform="scale(2 2)" d="M80.6342 144.814C80.6433 144.137 80.5982 143.805 80.9496 143.208C81.7529 142.76 82.5925 142.83 83.4845 142.832C83.5828 142.75 83.7229 142.702 83.7796 142.587C83.8634 142.417 80.4984 136.43 80.0959 135.588C77.4472 130.052 77.807 126.481 78.7792 120.566C78.9605 119.463 79.2728 118.909 80.178 118.259C77.6784 125.659 78.6086 131.495 82.0278 138.385C82.8858 140.114 84.4515 142.814 86.2647 143.609C87.989 144.956 90.1265 145.714 92.2342 146.237C92.2636 145.694 92.4489 145.203 92.6148 144.69L96.2359 145.775L98.0539 146.338C98.5687 146.509 98.7882 146.708 99.1206 147.132C99.153 148.229 97.7629 149.978 97.0162 150.777C96.6455 151.173 96.2747 151.191 95.7533 151.221C96.1572 152.469 96.2302 153.555 96.2552 154.851C97.4124 155.362 97.8858 156.572 98.4756 157.624L98.605 157.564C98.8812 157.839 98.9305 157.879 99.0172 158.254L99.2359 158.576C98.9147 159.637 98.4293 160.023 97.4743 160.537Q96.9205 160.833 96.3563 161.108C95.5272 161.019 94.4569 160.984 93.7312 160.528C93.0661 160.109 92.9805 159.525 92.8095 158.827L92.6826 158.494L93.0488 158.269C93.0963 158.085 93.1451 157.899 93.1781 157.712C93.335 156.824 92.9286 156.447 92.4598 155.77C92.4385 155.312 92.3919 154.888 92.2958 154.44C92.1269 154.661 91.9921 154.747 91.7632 154.897C91.6379 154.768 91.5077 154.624 91.4215 154.465C91.0939 153.861 90.7438 152.668 90.9036 152.036L90.4014 151.454C90.3241 150.163 90.2339 149.287 89.4233 148.242C88.7623 147.602 88.0481 147.083 87.2963 146.555C87.2708 146.502 87.2469 146.449 87.2196 146.397C86.6416 145.299 83.9322 143.592 82.7713 143.314C82.1209 143.159 81.7239 143.296 81.1702 143.622L81.068 144.574L80.6342 144.814Z"/>
	<path fill="#EF5A44" transform="scale(2 2)" d="M90.9036 152.036C91.4839 151.75 92.0919 151.263 92.7248 151.426C92.8558 152.426 92.3167 153.428 92.2958 154.44C92.1269 154.661 91.9921 154.747 91.7632 154.897C91.6379 154.768 91.5077 154.624 91.4215 154.465C91.0939 153.861 90.7438 152.668 90.9036 152.036Z"/>
	<path fill="#CF3918" transform="scale(2 2)" d="M96.2552 154.851C95.8466 154.975 95.5769 154.948 95.1585 154.882C95.0001 154.739 94.8381 154.581 94.7353 154.392C94.4718 153.905 94.4851 153.277 94.6039 152.75C94.7726 152.001 95.1189 151.604 95.7533 151.221C96.1572 152.469 96.2302 153.555 96.2552 154.851Z"/>
	<path fill="#7A0806" transform="scale(2 2)" d="M92.6148 144.69L96.2359 145.775L98.0539 146.338L97.5006 146.836C95.8252 147.408 93.8715 146.669 92.2342 146.237C92.2636 145.694 92.4489 145.203 92.6148 144.69Z"/>
	<path fill="#E67243" transform="scale(2 2)" d="M92.8095 158.827C93.5336 159.253 94.4237 159.822 95.2788 159.901C96.7521 160.036 97.0713 159.257 98.0472 158.514C98.4932 158.175 98.485 158.181 99.0172 158.254L99.2359 158.576C98.9147 159.637 98.4293 160.023 97.4743 160.537Q96.9205 160.833 96.3563 161.108C95.5272 161.019 94.4569 160.984 93.7312 160.528C93.0661 160.109 92.9805 159.525 92.8095 158.827Z"/>
	<path fill="#FA9360" transform="scale(2 2)" d="M181.5 131.698C181.969 133.072 181.422 134.59 180.797 135.831C179.741 137.928 176.346 139.883 177.174 142.403C177.551 143.553 178.189 144.984 179.153 145.74L179.703 145.905C181.408 144.917 182.723 143.079 184.469 142.264C183.897 143.034 183.32 143.687 182.608 144.331C182.687 144.594 182.661 144.716 182.895 144.876C182.414 146.343 180.561 146.627 180.459 148.313C181.204 149.03 182.261 149.121 182.753 150.075L182.753 150.738C182.246 151.187 180.827 151.73 180.633 152.221C181.302 153.663 183.114 153.919 183.973 155.342C183.6 155.466 183.337 155.302 182.983 155.19C182.73 155.11 182.833 155.125 182.565 155.174C182.283 155.734 182.436 156.38 181.858 156.636C181.048 156.291 180.443 155.495 179.854 154.859C179.844 156.081 178.48 156.56 178.568 157.138C178.618 157.467 179.463 157.89 179.57 158.385C179.645 158.729 179.503 158.816 179.328 159.103C178.627 159.377 177.943 159.341 177.203 159.335C177.147 159.949 178.025 160.762 177.592 161.113C177.208 161.424 176.361 161.564 175.876 161.703C175.607 161.427 175.393 161.138 175.172 160.823C174.529 160.835 174.474 160.894 173.953 161.283C173.722 162.125 173.569 162.4 173.825 163.254C174.42 163.841 175.006 163.968 175.813 163.97C177.617 163.975 180.431 163.25 182.07 163.852C178.338 164.429 171.414 164.753 167.771 163.842C165.935 163.383 163.908 162.362 162.09 162.103C160.113 160.474 155.834 159.201 154.653 157.55L154.842 157.144C155.207 157.082 155.494 157.033 155.786 156.793C156.121 156.517 156.476 156.325 156.854 156.117C158.625 156.186 158.375 157.611 159.538 158.55C159.647 158.434 159.769 158.317 159.868 158.192C159.974 158.059 160.059 157.914 160.177 157.789C160.461 157.491 160.954 157.268 161.365 157.269C161.905 157.271 161.99 157.404 162.362 157.75C162.76 159.493 161.11 159.048 160.763 160.356C161.322 160.924 161.504 160.882 162.264 160.965C162.655 160.33 163.53 158.686 163.612 157.965C163.683 157.336 163.46 157.001 163.086 156.538C162.667 156.566 162.287 156.445 161.885 156.342C161.831 156.332 158.837 155.1 158.703 155.031C157.851 154.593 157.839 153.631 157.595 152.768L157.361 152.796C157.194 153.314 157.038 153.858 156.817 154.356C156.552 154.954 156.354 155.136 155.755 155.356L155.163 155.08C154.998 154.225 154.98 153.866 154.271 153.33L153.96 153.22C153.738 151.051 155.14 148.881 156.029 147.018L156.93 146.904C158.041 146.84 158.21 147.596 159.184 147.862L159.692 147.076C161.133 146.765 162.876 147.282 164.216 146.862C164.289 146.116 164.415 145.944 164.841 145.362C166.616 144.634 168.375 143.915 170.073 143.018L171.523 142.173C172.642 141.364 173.657 140.41 174.688 139.495C175.813 138.053 176.633 136.627 177.189 134.88C177.19 135.786 177.056 136.535 177.526 137.332L178.245 137.556C178.88 137.064 178.926 136.457 179.77 136.28C180.738 135.057 181.102 133.178 181.5 131.698Z"/>
	<path fill="#F68754" transform="scale(2 2)" d="M175.131 144.966L175.178 146.276C174.757 146.842 174.401 146.815 173.731 146.993C173.522 146.49 173.493 146.149 173.539 145.608C174.098 145.108 174.407 145.111 175.131 144.966Z"/>
	<path fill="#F68754" transform="scale(2 2)" d="M155.163 155.08C155.277 153.84 155.471 152.928 156.47 152.111C156.699 151.924 156.76 151.894 157.045 151.854C156.854 152.779 156.688 154.357 155.824 154.891C155.623 155.015 155.394 155.055 155.163 155.08Z"/>
	<path fill="#E67243" transform="scale(2 2)" d="M175.113 152.055C175.502 152.141 176.016 152.345 176.328 152.61C176.878 153.077 176.956 153.667 177.034 154.336C176.358 154.314 175.874 154.268 175.248 153.968C174.898 153.246 175.035 152.843 175.113 152.055Z"/>
	<path fill="#E67243" transform="scale(2 2)" d="M158.294 152.18C158.545 152.267 158.83 152.402 159.091 152.439L159.87 153.26C160.006 153.862 160.043 153.88 159.748 154.413C159.142 154.596 159.158 154.595 158.595 154.306C158.159 153.49 158.258 153.091 158.294 152.18Z"/>
	<path fill="#E67243" transform="scale(2 2)" d="M178.173 151.791C178.786 151.891 179.296 152.043 179.868 152.27C180.319 152.948 180.279 153.235 180.323 154.032C179.721 154.082 179.404 154.078 178.895 153.733C178.402 153.102 178.309 152.561 178.173 151.791Z"/>
	<path fill="#E67243" transform="scale(2 2)" d="M169.805 158.133C170.509 158.207 170.703 158.332 171.142 158.843C171.088 159.575 171.011 159.606 170.509 160.156C169.879 160.031 169.329 159.954 168.812 159.538C168.88 158.818 169.299 158.618 169.805 158.133Z"/>
	<path fill="#E67243" transform="scale(2 2)" d="M164.948 149.051C165.396 149.111 165.658 149.209 166.027 149.47C166.141 150.261 165.439 151.177 165.048 151.854C164.92 151.848 164.863 151.853 164.732 151.805C164.256 151.632 164.227 151.305 164.094 150.88C164.198 150.079 164.475 149.678 164.948 149.051Z"/>
	<path fill="#E67243" transform="scale(2 2)" d="M171.606 151.58C171.388 151.417 171.177 151.244 170.958 151.084C170.804 150.972 170.657 150.879 170.517 150.746C169.99 150.246 169.419 149.086 169.425 148.35C169.731 147.903 169.756 147.918 170.285 147.781C170.849 148.189 170.891 148.942 171.12 149.564C171.405 150.341 171.531 150.457 172.291 150.786L171.606 151.58Z"/>
	<path fill="#E67243" transform="scale(2 2)" d="M165.173 153.505Q165.443 153.559 165.699 153.658Q165.955 153.757 166.191 153.898Q166.427 154.039 166.635 154.218Q166.843 154.398 167.018 154.61C167.529 155.225 167.64 155.638 167.599 156.416C167.543 156.408 167.486 156.4 167.43 156.39C166.433 156.218 165.618 155.85 165.021 155.008C164.885 154.292 164.904 154.183 165.173 153.505Z"/>
	<path fill="#E67243" transform="scale(2 2)" d="M172.291 150.786C172.845 150.863 173.09 150.806 173.443 151.281C174.03 152.072 174.029 153.725 174.123 154.697C173.069 153.728 172.129 152.965 171.606 151.58L172.291 150.786Z"/>
	<path fill="#F68754" transform="scale(2 2)" d="M171.766 156.53C172.599 156.724 173.336 156.957 174.063 157.422C174.905 157.96 175.437 158.541 175.648 159.528C174.91 159.567 173.992 159.305 173.362 158.923C172.41 158.344 172.039 157.572 171.766 156.53Z"/>
	<path fill="#F68754" transform="scale(2 2)" d="M156.029 147.018L156.93 146.904C156.154 148.833 155.211 150.918 154.82 152.963L154.271 153.33L153.96 153.22C153.738 151.051 155.14 148.881 156.029 147.018Z"/>
	<path fill="#91160B" transform="scale(2 2)" d="M171.523 142.173C172.642 141.364 173.657 140.41 174.688 139.495Q174.527 140.535 174.389 141.578L174.699 141.628L174.799 140.833C175.206 140.837 175.617 140.854 176.024 140.837C174.898 141.951 173.57 142.791 172.263 143.673C171.77 143.19 171.664 142.818 171.523 142.173Z"/>
	<path fill="#E67243" transform="scale(2 2)" d="M167.395 150.614C167.716 150.611 168.057 150.608 168.374 150.673C170.328 151.076 170.467 154.296 171.295 155.698L171.416 155.9L170.63 155.993C168.534 154.974 168.125 152.654 167.395 150.614Z"/>
	<path fill="#7A0806" transform="scale(2 2)" d="M177.189 134.88C177.19 135.786 177.056 136.535 177.526 137.332L178.245 137.556C178.88 137.064 178.926 136.457 179.77 136.28C178.991 137.888 177.461 139.758 176.024 140.837C175.617 140.854 175.206 140.837 174.799 140.833L174.699 141.628L174.389 141.578Q174.527 140.535 174.688 139.495C175.813 138.053 176.633 136.627 177.189 134.88Z"/>
	<path fill="#F68754" transform="scale(2 2)" d="M160.03 149.523L160.605 149.767L161.373 149.162C161.911 149.341 162.066 149.443 162.32 149.975C163.094 151.596 162.882 153.913 162.883 155.699C162.579 156.064 162.433 156.016 161.976 156.096C161.683 155.949 161.463 155.724 161.225 155.504C161.252 154.685 161.96 154.767 162.15 153.883C162.308 153.144 162 151.869 161.554 151.271C161.236 150.845 161.195 150.81 160.674 150.716L159.091 152.439C158.83 152.402 158.545 152.267 158.294 152.18C158.478 151.582 158.641 150.893 158.94 150.343C159.249 149.772 159.429 149.702 160.03 149.523Z"/>
	<path fill="#CF3918" transform="scale(2 2)" d="M171.523 142.173C171.664 142.818 171.77 143.19 172.263 143.673C169.994 145.414 167.055 146.516 164.216 146.862C164.289 146.116 164.415 145.944 164.841 145.362C166.616 144.634 168.375 143.915 170.073 143.018L171.523 142.173Z"/>
	<defs>
		<linearGradient id="gradient_9" gradientUnits="userSpaceOnUse" x1="215.48486" y1="139.75348" x2="196.15495" y2="136.57875">
			<stop offset="0" stop-color="#F2643D"/>
			<stop offset="1" stop-color="#FF8B5D"/>
		</linearGradient>
	</defs>
	<path fill="url(#gradient_9)" transform="scale(2 2)" d="M209.697 123.302C211.884 125.002 213.838 127.928 215.409 130.205C214.822 133.001 215.665 134.543 215.505 137.074C215.937 142.093 215.563 149.317 212.167 153.342L212.088 153.434L211.763 153.25L211.328 153.614C209.124 152.917 205.527 153.817 203.196 154.023C200.543 154.256 196.71 154.439 194.552 152.627L192.987 152.055L192.236 151.742L191.216 151.723C191.434 151.593 191.64 151.45 191.81 151.26C192.721 150.242 194.938 144.759 195.855 143.122C196.349 142.238 197.898 140.122 197.876 139.17L197.24 138.583C196.897 138.666 196.553 138.722 196.204 138.779C195.696 139.475 196.181 140.626 195.853 141.467C195.776 141.664 195.72 141.718 195.76 141.941C195.767 141.983 195.787 142.021 195.8 142.061C195.362 142.183 195.162 142.297 194.836 142.616C194.805 142.647 194.774 142.679 194.743 142.71C195.634 140.394 195.312 137.704 195.852 135.344L195.891 135.18C196.693 135.04 198.538 127.411 201.208 125.288C203.318 123.61 206.147 123.506 208.707 123.828L209.697 123.302Z"/>
	<path fill="#CF3918" transform="scale(2 2)" d="M209.697 123.302C211.884 125.002 213.838 127.928 215.409 130.205C214.822 133.001 215.665 134.543 215.505 137.074C214.713 134.193 213.915 130.559 212.059 128.159C210.961 126.738 209.509 125.439 208.707 123.828L209.697 123.302Z"/>
	<path fill="#7A0806" transform="scale(2 2)" d="M192.794 150.732C194.431 146.384 199.783 136.046 203.6 133.209C204.45 132.577 205.552 132.057 206.637 132.247C207.69 132.43 208.465 133.238 209.037 134.09C211.935 138.412 212.423 145.204 211.476 150.187C211.313 150.6 211.065 150.986 210.843 151.372C210.652 151.156 210.694 151.284 210.731 150.985C211.055 148.348 211.009 146.311 210.574 143.672C210.163 141.185 208.999 136.492 206.769 135.034C206.266 134.705 205.853 134.586 205.259 134.712C203.413 135.103 200.556 143.811 199.193 145.892L199.125 145.996C198.111 147.128 195.686 151.244 194.53 151.503C193.762 151.404 193.393 151.208 192.794 150.732Z"/>
	<defs>
		<linearGradient id="gradient_10" gradientUnits="userSpaceOnUse" x1="198.87968" y1="142.19534" x2="210.18651" y2="151.99644">
			<stop offset="0" stop-color="#DA5530"/>
			<stop offset="1" stop-color="#F17044"/>
		</linearGradient>
	</defs>
	<path fill="url(#gradient_10)" transform="scale(2 2)" d="M199.125 145.996L199.193 145.892C200.556 143.811 203.413 135.103 205.259 134.712C205.853 134.586 206.266 134.705 206.769 135.034C208.999 136.492 210.163 141.185 210.574 143.672C211.009 146.311 211.055 148.348 210.731 150.985C210.694 151.284 210.652 151.156 210.843 151.372C211.065 150.986 211.313 150.6 211.476 150.187C211.668 150.706 211.823 150.982 211.54 151.521C211.205 152.161 210.697 152.22 210.677 153.01L211.328 153.614C209.124 152.917 205.527 153.817 203.196 154.023C200.543 154.256 196.71 154.439 194.552 152.627L192.987 152.055L192.236 151.742L192.794 150.732C193.393 151.208 193.762 151.404 194.53 151.503C195.686 151.244 198.111 147.128 199.125 145.996Z"/>
	<path fill="#CF3918" transform="scale(2 2)" d="M192.794 150.732C193.393 151.208 193.762 151.404 194.53 151.503C195.686 151.244 198.111 147.128 199.125 145.996Q199.102 147.606 199.026 149.215C198.468 150.179 197.844 151.703 196.699 152.01C195.858 152.236 195.354 152.146 194.552 152.627L192.987 152.055L192.236 151.742L192.794 150.732Z"/>
	<defs>
		<linearGradient id="gradient_11" gradientUnits="userSpaceOnUse" x1="168.40132" y1="108.56651" x2="159.09618" y2="133.08354">
			<stop offset="0" stop-color="black"/>
			<stop offset="1" stop-color="#2C0201"/>
		</linearGradient>
	</defs>
	<path fill="url(#gradient_11)" transform="scale(2 2)" d="M142.214 129.731C141.754 129.434 141.736 129.204 141.626 128.685C140.667 124.144 142.269 118.571 144.802 114.795C147.385 110.943 151.253 107.639 155.893 106.726Q156.385 106.631 156.88 106.561Q157.376 106.49 157.875 106.444Q158.374 106.398 158.874 106.377Q159.374 106.355 159.875 106.358Q160.376 106.362 160.876 106.39Q161.376 106.418 161.874 106.47Q162.372 106.523 162.867 106.6Q163.361 106.677 163.852 106.778Q164.342 106.879 164.827 107.005Q165.312 107.13 165.79 107.279Q166.268 107.428 166.738 107.6Q167.208 107.773 167.669 107.968Q168.13 108.164 168.581 108.381Q169.032 108.599 169.472 108.839Q169.912 109.079 170.339 109.34Q170.766 109.601 171.18 109.883C176.228 113.307 180.13 118 181.268 124.107C181.736 126.615 181.736 129.166 181.5 131.698C181.102 133.178 180.738 135.057 179.77 136.28C178.926 136.457 178.88 137.064 178.245 137.556L177.526 137.332C177.056 136.535 177.19 135.786 177.189 134.88C176.633 136.627 175.813 138.053 174.688 139.495C173.657 140.41 172.642 141.364 171.523 142.173L170.073 143.018C168.375 143.915 166.616 144.634 164.841 145.362C163.453 145.422 162.152 145.469 160.774 145.229L160.67 144.701L161.141 144.015C162.135 143.104 163.453 142.372 164.58 141.621L165.579 141.185C167.707 140.277 169.575 138.984 170.878 137.033C170.828 136.891 170.676 136.595 170.675 136.458C170.667 135.623 171.059 134.494 171.183 133.639C171.58 130.921 171.672 128.347 171.286 125.63C171.211 124.512 171.164 123.473 171.687 122.449C172.243 122.325 172.999 124.837 173.817 125.225C173.283 121.928 171.344 118.487 168.727 116.395C165.668 113.951 161.623 113.262 157.82 113.666C153.281 115.475 148.942 120.592 147.079 125.032C146.902 125.453 146.857 125.729 146.991 126.182C147.024 126.292 147.051 126.325 147.106 126.412L147.162 126.641C146.66 127.19 146.617 128.038 146.641 128.751C146.663 129.393 146.747 130.123 146.909 130.746C146.964 132.578 147.358 134.188 147.65 135.978C147.881 137.869 148.431 139.787 148.619 141.641L148.268 142.02C147.692 142.147 147.368 142.095 146.816 141.895C144.885 139.82 143.943 135.676 142.993 133.044C142.8 131.967 142.695 130.719 142.214 129.731Z"/>
	<path fill="#F9F8F6" transform="scale(2 2)" d="M142.214 129.731C142.196 128.561 142.384 127.465 142.715 126.346C144.321 120.922 148.135 116.021 153.132 113.329C156.106 111.727 159.458 111.298 162.709 112.274C162.728 112.305 162.746 112.337 162.766 112.367C163.188 112.971 164.333 113.214 165.02 113.442C163.754 113.439 158.643 112.649 157.841 113.429L157.82 113.666C153.281 115.475 148.942 120.592 147.079 125.032C146.902 125.453 146.857 125.729 146.991 126.182C147.024 126.292 147.051 126.325 147.106 126.412L147.162 126.641C146.66 127.19 146.617 128.038 146.641 128.751C146.663 129.393 146.747 130.123 146.909 130.746C146.964 132.578 147.358 134.188 147.65 135.978C147.881 137.869 148.431 139.787 148.619 141.641L148.268 142.02C147.692 142.147 147.368 142.095 146.816 141.895C144.885 139.82 143.943 135.676 142.993 133.044C142.8 131.967 142.695 130.719 142.214 129.731Z"/>
	<path fill="#EAEFE6" transform="scale(2 2)" d="M162.709 112.274C167.061 112.937 170.719 115.503 173.291 119.015C176.265 123.073 178.218 128.807 177.439 133.857C177.384 134.21 177.313 134.545 177.189 134.88C176.633 136.627 175.813 138.053 174.688 139.495C173.657 140.41 172.642 141.364 171.523 142.173L170.073 143.018C168.375 143.915 166.616 144.634 164.841 145.362C163.453 145.422 162.152 145.469 160.774 145.229L160.67 144.701L161.141 144.015C162.135 143.104 163.453 142.372 164.58 141.621L165.579 141.185C167.707 140.277 169.575 138.984 170.878 137.033C170.828 136.891 170.676 136.595 170.675 136.458C170.667 135.623 171.059 134.494 171.183 133.639C171.58 130.921 171.672 128.347 171.286 125.63C171.211 124.512 171.164 123.473 171.687 122.449C172.243 122.325 172.999 124.837 173.817 125.225C173.283 121.928 171.344 118.487 168.727 116.395C165.668 113.951 161.623 113.262 157.82 113.666L157.841 113.429C158.643 112.649 163.754 113.439 165.02 113.442C164.333 113.214 163.188 112.971 162.766 112.367C162.746 112.337 162.728 112.305 162.709 112.274Z"/>
	<path fill="#F2D9B7" transform="scale(2 2)" d="M161.141 144.015C163.65 144.397 167.053 142.92 170.073 143.018C168.375 143.915 166.616 144.634 164.841 145.362C163.453 145.422 162.152 145.469 160.774 145.229L160.67 144.701L161.141 144.015Z"/>
	<path fill="#006E9F" transform="scale(2 2)" d="M171.286 125.63C171.211 124.512 171.164 123.473 171.687 122.449C172.243 122.325 172.999 124.837 173.817 125.225C174.763 127.978 174.08 131.343 172.831 133.913C172.294 135.018 171.672 136.091 170.878 137.033C170.828 136.891 170.676 136.595 170.675 136.458C170.667 135.623 171.059 134.494 171.183 133.639C171.58 130.921 171.672 128.347 171.286 125.63Z"/>
	<path fill="#045B94" transform="scale(2 2)" d="M157.82 113.666C161.623 113.262 165.668 113.951 168.727 116.395C171.344 118.487 173.283 121.928 173.817 125.225C172.999 124.837 172.243 122.325 171.687 122.449C171.164 123.473 171.211 124.512 171.286 125.63C171.672 128.347 171.58 130.921 171.183 133.639C171.059 134.494 170.667 135.623 170.675 136.458C170.676 136.595 170.828 136.891 170.878 137.033C169.575 138.984 167.707 140.277 165.579 141.185L164.58 141.621C163.453 142.372 162.135 143.104 161.141 144.015L160.67 144.701L160.774 145.229L159.102 145.258C158.341 145.151 157.575 144.962 156.82 144.812C154.943 144.809 153.127 144.392 151.299 144.015C150.322 143.787 149.426 143.652 148.724 142.87C148.699 142.533 148.46 142.284 148.268 142.02L148.619 141.641C148.431 139.787 147.881 137.869 147.65 135.978C147.358 134.188 146.964 132.578 146.909 130.746C146.747 130.123 146.663 129.393 146.641 128.751C146.617 128.038 146.66 127.19 147.162 126.641L147.106 126.412C147.051 126.325 147.024 126.292 146.991 126.182C146.857 125.729 146.902 125.453 147.079 125.032C148.942 120.592 153.281 115.475 157.82 113.666Z"/>
	<path fill="#F9F8F6" transform="scale(2 2)" d="M147.106 126.412C147.239 125.858 147.418 125.385 147.712 124.899C148.392 123.777 149.646 122.679 150.957 122.401C151.847 122.212 153.431 122.07 154.213 122.556C153.117 125.714 151.595 127.951 148.828 129.856C148.013 129.271 147.561 127.559 147.162 126.641L147.106 126.412Z"/>
	<path fill="#052660" transform="scale(2 2)" d="M157.601 120.433C160.066 120.465 162.603 120.381 164.991 121.069C166.46 122.418 167.748 123.423 167.86 125.56C167.956 127.402 166.909 129.101 165.7 130.405C164.574 131.621 161.662 134.235 159.988 134.271C156.221 134.353 152.463 132.204 149.239 130.525L148.828 129.856C151.595 127.951 153.117 125.714 154.213 122.556C154.509 122.49 154.659 122.498 154.888 122.285C155.708 121.517 156.626 120.977 157.601 120.433Z"/>
	<path fill="#0A91BD" transform="scale(2 2)" d="M151.095 134.012C152.195 134.444 153.187 135.133 154.24 135.67C156.413 136.778 159.049 137.5 161.431 136.684C163.869 135.848 166.897 132.891 168.074 130.617C168.876 129.067 169.354 127.371 170.141 125.807L170.399 125.773C170.693 126.684 169.345 128.834 169.289 130.065C169.635 130.019 169.964 129.92 170.299 129.826L170.662 130.213L170.975 130.208C171.389 128.816 171.257 127.088 171.286 125.63C171.672 128.347 171.58 130.921 171.183 133.639C171.059 134.494 170.667 135.623 170.675 136.458C170.676 136.595 170.828 136.891 170.878 137.033C169.575 138.984 167.707 140.277 165.579 141.185L164.58 141.621C163.453 142.372 162.135 143.104 161.141 144.015L160.67 144.701L160.774 145.229L159.102 145.258C158.341 145.151 157.575 144.962 156.82 144.812C154.943 144.809 153.127 144.392 151.299 144.015C150.322 143.787 149.426 143.652 148.724 142.87C148.699 142.533 148.46 142.284 148.268 142.02L148.619 141.641C148.431 139.787 147.881 137.869 147.65 135.978C147.358 134.188 146.964 132.578 146.909 130.746C148.487 131.315 149.876 132.878 151.095 134.012Z"/>
	<path fill="#BEC7CC" transform="scale(2 2)" d="M146.909 130.746C148.487 131.315 149.876 132.878 151.095 134.012C154.032 137.488 156.486 141.105 161.439 141.524C162.802 141.639 164.23 141.37 165.579 141.185L164.58 141.621C163.453 142.372 162.135 143.104 161.141 144.015L160.67 144.701L160.774 145.229L159.102 145.258C158.341 145.151 157.575 144.962 156.82 144.812C154.943 144.809 153.127 144.392 151.299 144.015C150.322 143.787 149.426 143.652 148.724 142.87C148.699 142.533 148.46 142.284 148.268 142.02L148.619 141.641C148.431 139.787 147.881 137.869 147.65 135.978C147.358 134.188 146.964 132.578 146.909 130.746Z"/>
	<path fill="#C9C0BE" transform="scale(2 2)" d="M148.619 141.641C152.096 143.815 157.789 141.424 160.67 144.701L160.774 145.229L159.102 145.258C158.341 145.151 157.575 144.962 156.82 144.812C154.943 144.809 153.127 144.392 151.299 144.015C150.322 143.787 149.426 143.652 148.724 142.87C148.699 142.533 148.46 142.284 148.268 142.02L148.619 141.641Z"/>
	<path fill="#7BD7EF" transform="scale(2 2)" d="M146.909 130.746C148.487 131.315 149.876 132.878 151.095 134.012C154.032 137.488 156.486 141.105 161.439 141.524C162.802 141.639 164.23 141.37 165.579 141.185L164.58 141.621C157.632 143.35 156.17 140.333 150.381 139.509C149.604 138.169 148.802 137.024 147.65 135.978C147.358 134.188 146.964 132.578 146.909 130.746Z"/>
	<defs>
		<linearGradient id="gradient_12" gradientUnits="userSpaceOnUse" x1="107.74674" y1="116.67159" x2="85.815834" y2="139.12218">
			<stop offset="0" stop-color="#DFD8C5"/>
			<stop offset="1" stop-color="white"/>
		</linearGradient>
	</defs>
	<path fill="url(#gradient_12)" transform="scale(2 2)" d="M88.2349 142.393C87.7108 141.741 87.1278 141.137 86.6279 140.467C83.8007 136.677 82.3844 132.469 83.1167 127.748C83.8777 122.841 86.7877 117.537 90.8366 114.589C93.885 112.369 97.6987 111.584 101.403 112.182C106.182 112.953 109.037 116.278 111.691 119.994C112.924 122.203 114.228 124.69 114.554 127.239C114.157 127.35 113.704 127.428 113.385 127.697L113.566 129.386C113.823 130.828 113.719 132.189 113.618 133.639C110.62 134.805 109.544 138.471 106.2 139.655L105.525 140.027C105.171 140.658 104.952 140.89 104.99 141.625C105.555 142.17 106.331 142.287 107.068 142.475C105.609 143.958 103.755 143.967 101.798 143.985Q101.289 143.989 100.78 143.988L100.16 144.045L100.472 145.467C99.0914 145.593 97.6125 145.943 96.2359 145.775L92.6148 144.69C91.0578 144.072 89.6687 143.252 88.2349 142.393Z"/>
	<path fill="#014B5A" transform="scale(2 2)" d="M93.3942 117.907Q93.756 117.484 94.1254 117.068C95.9167 115.055 97.9198 113.692 100.687 113.559C102.836 113.456 104.835 114.201 106.421 115.629C103.851 115.249 101.096 114.78 98.8442 116.474C98.2939 116.888 97.9443 117.375 97.589 117.957L93.9696 119.185C93.7088 118.816 93.5624 118.326 93.3942 117.907Z"/>
	<path fill="#0A91BD" transform="scale(2 2)" d="M97.589 117.957C97.9443 117.375 98.2939 116.888 98.8442 116.474C101.096 114.78 103.851 115.249 106.421 115.629L107.123 116.262C107.747 116.981 108.533 117.727 109.038 118.528C108.477 118.851 107.92 119.202 107.325 119.46C103.506 119.639 98.0576 119.132 95.2826 122.183C94.878 122.627 94.5231 123.075 94.0551 123.457C93.9305 122.117 94.0159 120.709 94.0219 119.361L93.9696 119.185L97.589 117.957Z"/>
	<path fill="#054C8D" transform="scale(2 2)" d="M107.123 116.262C107.747 116.981 108.533 117.727 109.038 118.528C108.477 118.851 107.92 119.202 107.325 119.46C106.415 118.395 104.741 118.042 103.43 117.749C104.458 117.124 104.98 117.529 106.03 117.322C106.669 117.195 106.804 116.764 107.123 116.262Z"/>
	<path fill="#045B94" transform="scale(2 2)" d="M97.589 117.957C97.9443 117.375 98.2939 116.888 98.8442 116.474C101.096 114.78 103.851 115.249 106.421 115.629L107.123 116.262C106.804 116.764 106.669 117.195 106.03 117.322C104.98 117.529 104.458 117.124 103.43 117.749C101.487 117.708 99.4741 117.418 97.589 117.957Z"/>
	<defs>
		<linearGradient id="gradient_13" gradientUnits="userSpaceOnUse" x1="91.871941" y1="132.89891" x2="89.318047" y2="133.92726">
			<stop offset="0" stop-color="#26849D"/>
			<stop offset="1" stop-color="#1A76A5"/>
		</linearGradient>
	</defs>
	<path fill="url(#gradient_13)" transform="scale(2 2)" d="M93.3942 117.907C93.5624 118.326 93.7088 118.816 93.9696 119.185L94.0219 119.361C94.0159 120.709 93.9305 122.117 94.0551 123.457C93.7591 124.488 93.5179 125.597 93.0855 126.578C92.4988 127.672 91.836 128.766 91.4754 129.958L90.7528 129.79C90.3546 130.653 90.4463 131.817 90.4146 132.757C91.3211 134.137 94.3502 139.335 94.2025 140.72C93.2536 140.063 92.4085 139.373 91.6272 138.524C89.1481 135.828 88.0707 132.365 88.2306 128.74C88.4255 124.325 90.1477 120.871 93.3942 117.907Z"/>
	<path fill="#BDF8FD" transform="scale(2 2)" d="M90.7528 129.79C90.6926 127.174 89.9795 125.146 91.1863 122.566C91.7671 121.324 92.6712 119.833 94.0219 119.361C94.0159 120.709 93.9305 122.117 94.0551 123.457C93.7591 124.488 93.5179 125.597 93.0855 126.578C92.4988 127.672 91.836 128.766 91.4754 129.958L90.7528 129.79Z"/>
	<path fill="#39B7D8" transform="scale(2 2)" d="M90.7528 129.79L91.4754 129.958C91.5151 130.267 91.516 130.811 91.6211 131.089C92.0935 132.34 95.1393 135.244 96.1118 136.339C96.8131 136.826 97.7134 137.639 98.5059 137.913C100.603 139.268 103.712 140.169 106.2 139.655L105.525 140.027C105.171 140.658 104.952 140.89 104.99 141.625C105.555 142.17 106.331 142.287 107.068 142.475C105.609 143.958 103.755 143.967 101.798 143.985Q101.289 143.989 100.78 143.988L100.16 144.045C98.2222 143.159 95.6936 142.261 94.2025 140.72C94.3502 139.335 91.3211 134.137 90.4146 132.757C90.4463 131.817 90.3546 130.653 90.7528 129.79Z"/>
	<path fill="#0A91BD" transform="scale(2 2)" d="M96.1118 136.339C96.8131 136.826 97.7134 137.639 98.5059 137.913C100.603 139.268 103.712 140.169 106.2 139.655L105.525 140.027Q103.551 140.676 101.544 141.211C101.458 141.207 101.372 141.205 101.287 141.2C100.904 141.182 100.519 141.191 100.138 141.164C99.0374 141.087 97.6971 140.378 96.987 139.529C96.0886 138.456 95.9715 137.711 96.1118 136.339Z"/>
	<path fill="#7BD7EF" transform="scale(2 2)" d="M101.544 141.211Q103.551 140.676 105.525 140.027C105.171 140.658 104.952 140.89 104.99 141.625C105.555 142.17 106.331 142.287 107.068 142.475C105.609 143.958 103.755 143.967 101.798 143.985Q101.289 143.989 100.78 143.988C101.04 143.882 101.29 143.735 101.539 143.605C100.966 142.86 99.307 142.801 98.4613 142.168C99.062 141.548 100.69 141.382 101.544 141.211Z"/>
	<path fill="#052660" transform="scale(2 2)" d="M107.325 119.46C107.92 119.202 108.477 118.851 109.038 118.528C111.614 121.56 112.318 123.969 113.385 127.697L113.566 129.386C113.823 130.828 113.719 132.189 113.618 133.639C110.62 134.805 109.544 138.471 106.2 139.655C103.712 140.169 100.603 139.268 98.5059 137.913C97.7134 137.639 96.8131 136.826 96.1118 136.339C95.1393 135.244 92.0935 132.34 91.6211 131.089C91.516 130.811 91.5151 130.267 91.4754 129.958C91.836 128.766 92.4988 127.672 93.0855 126.578C93.5179 125.597 93.7591 124.488 94.0551 123.457C94.5231 123.075 94.878 122.627 95.2826 122.183C98.0576 119.132 103.506 119.639 107.325 119.46Z"/>
	<path fill="#045B94" transform="scale(2 2)" d="M93.0855 126.578C93.3239 126.799 93.7177 127.13 93.8423 127.434C93.9436 127.682 93.9037 128.279 93.9349 128.585C94.1065 130.267 94.7141 131.52 95.6739 132.895C97.8233 135.976 100.367 136.794 102.051 138.854C100.798 138.86 99.7013 138.235 98.5059 137.913C97.7134 137.639 96.8131 136.826 96.1118 136.339C95.1393 135.244 92.0935 132.34 91.6211 131.089C91.516 130.811 91.5151 130.267 91.4754 129.958C91.836 128.766 92.4988 127.672 93.0855 126.578Z"/>
	<path fill="#054C8D" transform="scale(2 2)" d="M108.399 126.751C109.383 128.167 110.432 130.904 111.844 131.746C112.528 131.656 112.549 131.558 113.03 131.048L112.968 131.363C113.291 130.728 113.419 130.078 113.566 129.386C113.823 130.828 113.719 132.189 113.618 133.639C110.62 134.805 109.544 138.471 106.2 139.655C103.712 140.169 100.603 139.268 98.5059 137.913C99.7013 138.235 100.798 138.86 102.051 138.854C103.867 139.148 106.108 137.916 107.627 137.002C107.831 133.571 108.296 130.2 108.399 126.751Z"/>
	<path fill="#4C100C" transform="scale(2 2)" d="M139.368 162.609C141.657 161.894 150.144 159.831 152.297 159.832C152.831 159.832 153.348 160.09 153.818 160.319C154.657 160.936 155.113 161.584 155.27 162.634C155.911 166.927 151.596 174.759 149.022 178.124Q147.107 180.577 145.088 182.945C144.445 182.472 143.978 182.001 143.483 181.375C140.523 185.311 137.645 186.795 133.091 188.464C130.234 189.447 127.324 190.215 124.274 189.874C122.386 189.663 119.821 188.778 118.583 187.232L118.176 188.301C110.414 182.001 105.826 175.514 103.705 165.583C106.087 165.201 108.586 165.436 110.984 165.549C116.219 165.797 122.031 166.244 127.17 165.104C129.504 165.061 131.876 164.466 134.163 164.023L137.847 162.999L139.368 162.609Z"/>
	<path fill="#7A0806" transform="scale(2 2)" d="M139.368 162.609C141.657 161.894 150.144 159.831 152.297 159.832C152.831 159.832 153.348 160.09 153.818 160.319C152.188 160.502 150.717 160.589 149.115 161.026C142.359 162.866 142.056 164.703 134.163 164.023L137.847 162.999L139.368 162.609Z"/>
	<path fill="#EF5A44" transform="scale(2 2)" d="M121.555 181.223C125.8 179.671 131.112 178.392 135.606 177.876C138.736 177.517 141.007 178.208 143.456 180.156C143.704 180.754 143.693 180.76 143.483 181.375C140.523 185.311 137.645 186.795 133.091 188.464C130.234 189.447 127.324 190.215 124.274 189.874C122.386 189.663 119.821 188.778 118.583 187.232C120.249 185.323 120.871 183.613 121.555 181.223Z"/>
	<path fill="#F9F8F6" transform="scale(2 2)" d="M147.899 164.354C148.347 164.265 148.816 164.299 149.271 164.308L149.46 164.6C149.428 164.74 149.392 164.884 149.339 165.018C148.26 167.755 145.533 169.757 142.962 170.953C134.289 174.988 124.266 177.876 114.881 174.459C112.722 173.127 111.839 171.571 111.019 169.255C116.5 167.566 122.648 168.521 128.317 167.756C134.832 166.877 141.384 164.827 147.899 164.354Z"/>
</svg>
