<?xml version="1.0" encoding="utf-8" ?>
<svg xmlns="http://www.w3.org/2000/svg" xmlns:xlink="http://www.w3.org/1999/xlink" width="500" height="500">
	<path fill="#8B230E" transform="matrix(2 0 0 2 -0.00012207 -0.00012207)" d="M108.681 208.668C109.739 209.88 109.949 212.419 109.878 214.005C109.164 216.759 108.258 218.139 106.087 219.96L105.355 220.39L105.192 220.011C104.56 219.897 104.212 219.764 103.725 219.341C104.826 218.734 106.222 218.114 107.09 217.197C109.307 214.854 108.755 211.633 108.681 208.668Z"/>
	<path fill="#8B230E" transform="matrix(2 0 0 2 -0.00012207 -0.00012207)" d="M94.2213 223.067Q99.0986 221.524 103.725 219.341C104.212 219.764 104.56 219.897 105.192 220.011L105.355 220.39C104.706 220.925 104.007 221.443 103.398 222.022L101.693 223.173C100.764 222.654 98.8645 223.161 97.8196 223.295C97.1383 223.503 96.4012 223.668 95.7831 224.027C95.1517 223.834 94.7247 223.473 94.2213 223.067Z"/>
	<path fill="#AF8A5D" transform="matrix(2 0 0 2 -0.00012207 -0.00012207)" d="M64.441 34.1012C64.8064 34.5788 65.3186 34.805 65.9109 34.8555C67.1204 34.9586 69.5932 33.4989 70.4469 34.1202C68.4773 34.9171 66.3465 35.3981 64.2982 35.959L59.2079 37.0723C57.8432 37.2585 56.2167 37.3088 54.9679 37.9123C54.0148 37.8494 53.5053 37.2394 52.8495 36.6156Q48.8333 36.6158 44.876 35.9305L44.8371 35.7273L45.6824 35.5838C50.8109 36.2439 56.4597 36.4079 61.4777 35.0024L64.441 34.1012Z"/>
	<path fill="#EE9E86" transform="matrix(2 0 0 2 -0.00012207 -0.00012207)" d="M43.3703 138.047C43.587 134.199 44.695 130.277 47.0905 127.217C47.8704 129.025 47.6782 134.103 47.1845 135.961C45.8226 136.408 45.0582 138.823 43.5665 138.561L43.3703 138.047Z"/>
	<path fill="#D48444" transform="matrix(2 0 0 2 -0.00012207 -0.00012207)" d="M154.735 12.659C160.447 12.9777 165.238 14.7723 169.721 18.4133C168.6 18.4773 167.753 17.6809 166.501 17.7307C164.523 16.1566 161.4 14.9228 159.023 14.0636C158.371 13.8281 157.717 13.6158 157.058 13.9247L156.998 14.4105C158.049 15.3431 159.032 16.3139 160.004 17.3294C161.135 18.5664 162.643 18.838 163.869 20.0575C163.798 21.8356 164.835 23.603 164.605 25.0463C163.217 22.3559 161.714 20.0921 159.694 17.8303C157.991 16.173 156.18 14.5513 154.735 12.659Z"/>
	<path fill="#9C512D" transform="matrix(2 0 0 2 -0.00012207 -0.00012207)" d="M63.0785 250C63.3866 248.339 64.496 246.41 65.2716 244.888C70.906 233.834 82.7518 226.802 94.2213 223.067C94.7247 223.473 95.1517 223.834 95.7831 224.027L95.5434 224.432L94.916 225.448L94.5245 225.129C92.2848 225.912 90.1085 227.188 87.9711 228.224C80.7782 231.711 73.8399 235.204 70.064 242.695C68.3283 244.872 67.0945 247.447 66.0182 250L63.0785 250Z"/>
	<path fill="#8B230E" transform="matrix(2 0 0 2 -0.00012207 -0.00012207)" d="M179.213 160.467C180.504 161.057 182.413 161.967 183.244 163.149L183.154 163.307C182.404 164.656 182.005 166.285 181.511 167.743C179.706 173.066 177.828 178.495 172.564 181.318C171.767 181.745 170.811 182.376 169.938 182.597C169.192 182.787 168.539 182.547 167.873 182.221C167.843 181.397 167.477 180.541 167.645 179.712C168.47 175.649 172.512 171.637 174.559 168.061C175.82 165.858 176.705 163.289 177.417 160.86C177.93 160.429 178.556 160.519 179.213 160.467Z"/>
	<path fill="#DD6039" transform="matrix(2 0 0 2 -0.00012207 -0.00012207)" d="M204.63 131.574C206.148 138.867 205.939 146.358 201.761 152.762C198.463 157.815 192.607 161.758 186.699 162.991C185.547 163.232 184.413 163.344 183.244 163.149C182.413 161.967 180.504 161.057 179.213 160.467C178.319 159.876 176.7 159.311 175.632 159.303C175.773 158.459 176.115 157.577 176.36 156.752L176.521 156.635L176.868 156.733C176.898 157.189 176.913 157.67 177 158.12C177.125 158.767 177.308 158.932 177.818 159.285C180.006 159.335 182.052 160.199 184.261 160.086C188.198 159.885 192.017 158.181 194.654 155.221C198.615 150.772 199.01 144.905 198.693 139.248C199.092 139 199.22 138.646 199.419 138.234C200.319 139.699 200.06 143.199 201.364 144.126L201.593 143.781L201.166 143.718C201.236 143.686 201.652 143.519 201.673 143.482C201.843 143.185 201.882 142.225 201.943 141.858C202.504 138.49 202.57 134.362 204.63 131.574Z"/>
	<path fill="#8B230E" transform="matrix(2 0 0 2 -0.00012207 -0.00012207)" d="M161.591 221.567C166.337 223.909 170.883 226.388 175.434 229.082C185.633 235.119 190.708 239.477 196.565 250L192.195 250L178.441 250L177.561 250C180.75 246.167 182.06 243.746 186.344 240.737C185.98 236.811 166.172 227.224 162.521 223.726C162.142 223.034 161.873 222.302 161.591 221.567Z"/>
	<path fill="#EA873A" transform="matrix(2 0 0 2 -0.00012207 -0.00012207)" d="M186.559 240.884C188.097 241.808 190.892 248.035 192.195 250L178.441 250C178.756 249.75 186.324 241.678 186.331 241.664C186.439 241.453 186.49 241.118 186.559 240.884Z"/>
	<defs>
		<linearGradient id="gradient_0" gradientUnits="userSpaceOnUse" x1="110.27902" y1="36.681602" x2="96.737236" y2="14.749634">
			<stop offset="0" stop-color="#715622"/>
			<stop offset="1" stop-color="#B2794B"/>
		</linearGradient>
	</defs>
	<path fill="url(#gradient_0)" transform="matrix(2 0 0 2 -0.00012207 -0.00012207)" d="M119.508 14.8151C124.403 14.5304 130.6 13.9151 135.365 14.9723C138.463 14.9242 143.769 15.4158 146.469 16.8815L146.628 16.9947C147.15 17.3602 148.368 17.727 148.686 18.1454C143.721 18.2108 138.666 17.2789 133.712 17.0206C125.002 16.5663 108.969 18.0039 101.398 22.0805C93.5114 24.0951 86.0174 28.279 78.4906 31.3493C75.9168 32.3991 73.1728 33.5629 70.4469 34.1202C69.5932 33.4989 67.1204 34.9586 65.9109 34.8555C65.3186 34.805 64.8064 34.5788 64.441 34.1012C68.3153 32.5727 72.3371 31.3227 76.1511 29.6617C80.6137 27.7183 84.883 25.3291 89.3351 23.3603C98.6779 19.2287 109.379 16.0489 119.508 14.8151Z"/>
	<path fill="#775939" transform="matrix(2 0 0 2 -0.00012207 -0.00012207)" d="M119.508 14.8151C124.403 14.5304 130.6 13.9151 135.365 14.9723C133.466 15.2872 122.755 15.8928 121.175 15.576C120.446 15.4299 119.936 15.4612 119.508 14.8151Z"/>
	<path fill="#EC7853" transform="matrix(2 0 0 2 -0.00012207 -0.00012207)" d="M43.3703 138.047L43.5665 138.561C45.0582 138.823 45.8226 136.408 47.1845 135.961C47.3723 137 47.4566 138.086 48.3601 138.769C49.1658 139.378 50.4842 139.449 51.455 139.363C53.8236 143.166 57.2377 148.133 60.8487 150.757C61.6652 151.275 62.6725 151.783 63.2911 152.534C62.7094 154.162 64.2539 158.178 64.6563 160.034C64.4615 161.742 63.2727 161.766 63.0013 162.951C61.0306 163.431 58.2227 162.629 56.4661 161.675C56.4243 161.673 56.382 161.674 56.3406 161.667C53.794 161.264 50.592 157.95 49.0133 156.052C44.7141 150.884 42.7444 144.755 43.3703 138.047Z"/>
	<path fill="#BA3219" transform="matrix(2 0 0 2 -0.00012207 -0.00012207)" d="M60.8487 150.757C61.6652 151.275 62.6725 151.783 63.2911 152.534C62.7094 154.162 64.2539 158.178 64.6563 160.034C64.4615 161.742 63.2727 161.766 63.0013 162.951C61.0306 163.431 58.2227 162.629 56.4661 161.675C57.7903 160.77 59.865 161.942 61.3103 161.955C61.5365 161.958 61.8919 161.916 62.0546 161.738C63.5769 160.066 60.8332 153.23 60.8456 150.936C60.8459 150.876 60.8476 150.816 60.8487 150.757Z"/>
	<defs>
		<linearGradient id="gradient_1" gradientUnits="userSpaceOnUse" x1="192.3026" y1="133.85233" x2="185.23792" y2="160.54776">
			<stop offset="0" stop-color="#D7603D"/>
			<stop offset="1" stop-color="#FFAF6C"/>
		</linearGradient>
	</defs>
	<path fill="url(#gradient_1)" transform="matrix(2 0 0 2 -0.00012207 -0.00012207)" d="M191.706 131.94C193.279 132.387 194.292 133.273 195.434 134.409C196.749 135.575 198.052 137.613 198.693 139.248C199.01 144.905 198.615 150.772 194.654 155.221C192.017 158.181 188.198 159.885 184.261 160.086C182.052 160.199 180.006 159.335 177.818 159.285C177.308 158.932 177.125 158.767 177 158.12C176.913 157.67 176.898 157.189 176.868 156.733L176.521 156.635L176.36 156.752C176.174 156.387 176.202 156.051 176.205 155.654C176.342 155.36 176.434 155.143 176.703 154.946C176.824 154.857 176.929 154.783 177.033 154.671C178.295 153.313 179.463 151.84 179.39 149.924L180.235 148.547L180.459 148.723L180.696 148.772C180.884 149.109 181.059 149.241 181.373 149.441C183.081 148.533 186.851 139.587 188.134 137.366C189.217 135.49 190.465 133.713 191.706 131.94Z"/>
	<path fill="#DD6039" transform="matrix(2 0 0 2 -0.00012207 -0.00012207)" d="M191.706 131.94C193.279 132.387 194.292 133.273 195.434 134.409C194.489 134.632 193.918 134.704 193.376 135.578C191.58 138.478 192.275 142.013 191.326 145.146C190.772 146.975 189.088 148.586 188.899 150.5C188.995 150.681 189.015 150.857 189.221 150.917C190.601 151.312 192.121 150.511 193.53 150.769C193.346 150.893 193.271 151 193.045 150.994C190.475 150.925 182.134 152.324 180.278 150.886C179.99 150.074 180.258 149.54 180.459 148.723L180.696 148.772C180.884 149.109 181.059 149.241 181.373 149.441C183.081 148.533 186.851 139.587 188.134 137.366C189.217 135.49 190.465 133.713 191.706 131.94Z"/>
	<path fill="#EC7853" transform="matrix(2 0 0 2 -0.00012207 -0.00012207)" d="M192.556 121.479C195.37 122.61 197.027 123.605 199.057 125.858C199.413 125.673 199.666 125.461 199.958 125.189C201.797 127.2 203.553 129.023 204.63 131.574C202.57 134.362 202.504 138.49 201.943 141.858C201.882 142.225 201.843 143.185 201.673 143.482C201.652 143.519 201.236 143.686 201.166 143.718L201.593 143.781L201.364 144.126C200.06 143.199 200.319 139.699 199.419 138.234C199.22 138.646 199.092 139 198.693 139.248C198.052 137.613 196.749 135.575 195.434 134.409C194.292 133.273 193.279 132.387 191.706 131.94C190.465 133.713 189.217 135.49 188.134 137.366C186.851 139.587 183.081 148.533 181.373 149.441C181.059 149.241 180.884 149.109 180.696 148.772L180.459 148.723L180.235 148.547L179.39 149.924C179.236 149.854 179.129 149.789 179.017 149.66C177.61 148.034 175.003 145.736 172.859 145.269C172.513 145.71 172.212 145.907 171.719 146.146C171.665 146.172 171.611 146.197 171.558 146.222C173.987 142.78 175.609 139.18 177.221 135.309C178.353 134.387 178.725 133.05 179.216 131.734C180.041 132.256 180.44 132.976 181.113 133.644C181.475 134.002 182.241 134.205 182.736 134.16C185.312 133.925 186.751 124.926 189.269 122.453C190.304 121.436 191.16 121.454 192.556 121.479Z"/>
	<path fill="#8B230E" transform="matrix(2 0 0 2 -0.00012207 -0.00012207)" d="M190.44 130.605C191.031 130.054 191.337 129.671 192.223 129.69C193.69 129.722 194.972 130.918 195.867 131.959C197.452 133.8 198.59 135.96 199.419 138.234C199.22 138.646 199.092 139 198.693 139.248C198.052 137.613 196.749 135.575 195.434 134.409C194.292 133.273 193.279 132.387 191.706 131.94C191.056 131.655 190.801 131.178 190.44 130.605Z"/>
	<path fill="#8B230E" transform="matrix(2 0 0 2 -0.00012207 -0.00012207)" d="M180.696 148.772C182.38 142.271 186.303 135.819 190.44 130.605C190.801 131.178 191.056 131.655 191.706 131.94C190.465 133.713 189.217 135.49 188.134 137.366C186.851 139.587 183.081 148.533 181.373 149.441C181.059 149.241 180.884 149.109 180.696 148.772Z"/>
	<path fill="#BA3219" transform="matrix(2 0 0 2 -0.00012207 -0.00012207)" d="M175.632 159.303C176.7 159.311 178.319 159.876 179.213 160.467C178.556 160.519 177.93 160.429 177.417 160.86C176.705 163.289 175.82 165.858 174.559 168.061C172.512 171.637 168.47 175.649 167.645 179.712C167.477 180.541 167.843 181.397 167.873 182.221C167.719 182.502 167.557 182.779 167.397 183.057C165.285 186.731 150.846 192.245 149.669 194.56C148.574 196.714 149.986 209.693 150.694 212.604C151.184 214.62 151.911 216.207 153.288 217.777C153.535 218.378 153.772 218.986 154.033 219.581L153.325 219.367L153.272 219.676C153.515 220.016 153.861 220.318 153.793 220.739C153.032 220.7 152.532 220.708 151.914 220.216C151.772 220.103 151.81 220.145 151.578 220.098C150.182 219.022 148.091 215.606 147.659 213.847C147.41 213.614 147.231 213.32 146.876 213.327C146.137 213.341 144.239 214.962 143.547 215.394C136.57 219.751 127.226 225.334 118.801 225.236C115.34 225.195 112.153 224.24 109.018 222.837C108.031 221.797 107.357 220.69 106.087 219.96C108.258 218.139 109.164 216.759 109.878 214.005C109.949 212.419 109.739 209.88 108.681 208.668C108.339 206.526 108.552 204.176 107.988 202.094L108.061 201.832C108.75 201.295 114.67 200.951 116.092 200.77Q118.785 200.749 121.46 200.438Q124.135 200.128 126.761 199.532Q129.387 198.935 131.933 198.06Q134.48 197.185 136.918 196.041C139.783 194.719 142.538 193.118 145.336 191.655C148.198 190.158 151.194 188.79 153.917 187.048C164.175 180.484 171.42 170.652 175.632 159.303Z"/>
	<path fill="#DD6039" transform="matrix(2 0 0 2 -0.00012207 -0.00012207)" d="M110.403 210.536C117.586 212.557 125.456 213.718 132.243 209.886C135.695 207.937 138.867 205.133 142.104 202.818C142.784 202.332 143.436 201.606 144.186 201.247C144.716 200.994 144.89 201.067 145.443 201.197C147.69 203.315 147.671 209.917 147.719 212.974C147.723 213.266 147.696 213.557 147.659 213.847C147.41 213.614 147.231 213.32 146.876 213.327C146.137 213.341 144.239 214.962 143.547 215.394C136.57 219.751 127.226 225.334 118.801 225.236C115.34 225.195 112.153 224.24 109.018 222.837C108.031 221.797 107.357 220.69 106.087 219.96C108.258 218.139 109.164 216.759 109.878 214.005C110.134 212.839 110.347 211.734 110.403 210.536Z"/>
	<path fill="#FAA034" transform="matrix(2 0 0 2 -0.00012207 -0.00012207)" d="M109.018 222.837C112.153 224.24 115.34 225.195 118.801 225.236C127.226 225.334 136.57 219.751 143.547 215.394C144.239 214.962 146.137 213.341 146.876 213.327C147.231 213.32 147.41 213.614 147.659 213.847C148.091 215.606 150.182 219.022 151.578 220.098C151.81 220.145 151.772 220.103 151.914 220.216C152.532 220.708 153.032 220.7 153.793 220.739C153.861 220.318 153.515 220.016 153.272 219.676L153.325 219.367L154.033 219.581C153.772 218.986 153.535 218.378 153.288 217.777C154.892 218.833 157.854 219.32 159.076 220.364C159.916 220.74 160.805 221.088 161.591 221.567C161.873 222.302 162.142 223.034 162.521 223.726C166.172 227.224 185.98 236.811 186.344 240.737C182.06 243.746 180.75 246.167 177.561 250L68.4736 250L66.0182 250C67.0945 247.447 68.3283 244.872 70.064 242.695C73.8399 235.204 80.7782 231.711 87.9711 228.224C90.1085 227.188 92.2848 225.912 94.5245 225.129L94.916 225.448L95.5434 224.432L95.7831 224.027C96.4012 223.668 97.1383 223.503 97.8196 223.295C98.8645 223.161 100.764 222.654 101.693 223.173L103.398 222.022C104.007 221.443 104.706 220.925 105.355 220.39L106.087 219.96C107.357 220.69 108.031 221.797 109.018 222.837ZM70.064 242.695C68.3283 244.872 67.0945 247.447 66.0182 250L68.4736 250C70.0272 247.271 71.2972 244.467 72.9739 241.779C73.0868 241.085 73.3204 240.446 73.0613 239.784C72.3974 240.622 71.6019 242.191 70.6552 242.655L70.064 242.695Z"/>
	<path fill="#F0D6AB" fill-opacity="0.98823529" transform="matrix(2 0 0 2 -0.00012207 -0.00012207)" d="M70.064 242.695L70.6552 242.655C71.6019 242.191 72.3974 240.622 73.0613 239.784C73.3204 240.446 73.0868 241.085 72.9739 241.779C71.2972 244.467 70.0272 247.271 68.4736 250L66.0182 250C67.0945 247.447 68.3283 244.872 70.064 242.695Z"/>
	<path fill="#FBCD94" transform="matrix(2 0 0 2 -0.00012207 -0.00012207)" d="M70.064 242.695C73.8399 235.204 80.7782 231.711 87.9711 228.224C90.1085 227.188 92.2848 225.912 94.5245 225.129L94.916 225.448L94.6173 226.86C86.8081 232.299 78.9801 233.68 72.9739 241.779C73.0868 241.085 73.3204 240.446 73.0613 239.784C72.3974 240.622 71.6019 242.191 70.6552 242.655L70.064 242.695Z"/>
	<path fill="#EA873A" transform="matrix(2 0 0 2 -0.00012207 -0.00012207)" d="M109.018 222.837C112.153 224.24 115.34 225.195 118.801 225.236C127.226 225.334 136.57 219.751 143.547 215.394C144.239 214.962 146.137 213.341 146.876 213.327C147.231 213.32 147.41 213.614 147.659 213.847C148.091 215.606 150.182 219.022 151.578 220.098C151.81 220.145 151.772 220.103 151.914 220.216C152.532 220.708 153.032 220.7 153.793 220.739C153.861 220.318 153.515 220.016 153.272 219.676L153.325 219.367L154.033 219.581C153.772 218.986 153.535 218.378 153.288 217.777C154.892 218.833 157.854 219.32 159.076 220.364C159.916 220.74 160.805 221.088 161.591 221.567C161.873 222.302 162.142 223.034 162.521 223.726L162.443 223.877C161.802 225.144 161.36 226.397 160.608 227.628C154.897 236.969 145.209 242.55 135.008 245.93C125.768 248.991 113.556 246.119 105.034 241.81C99.8172 239.173 96.9643 234.312 95.1874 228.89Q94.8679 227.885 94.6173 226.86L94.916 225.448L95.5434 224.432L95.7831 224.027C96.4012 223.668 97.1383 223.503 97.8196 223.295C98.8645 223.161 100.764 222.654 101.693 223.173L103.398 222.022C104.007 221.443 104.706 220.925 105.355 220.39L106.087 219.96C107.357 220.69 108.031 221.797 109.018 222.837Z"/>
	<path fill="#DD6039" transform="matrix(2 0 0 2 -0.00012207 -0.00012207)" d="M153.288 217.777C154.892 218.833 157.854 219.32 159.076 220.364L158.965 220.755C159.413 221.477 159.85 222.212 160.331 222.914C158.345 222.666 157.034 222.286 155.006 222.676C154.441 223.323 153.878 224.075 153.162 224.554L153.432 223.602C153.978 223.159 154.282 222.805 154.626 222.191C154.788 221.255 154.369 220.433 154.033 219.581C153.772 218.986 153.535 218.378 153.288 217.777Z"/>
	<defs>
		<linearGradient id="gradient_2" gradientUnits="userSpaceOnUse" x1="125.4736" y1="223.65161" x2="124.36578" y2="238.80098">
			<stop offset="0" stop-color="#9F2602"/>
			<stop offset="1" stop-color="#CE4004"/>
		</linearGradient>
	</defs>
	<path fill="url(#gradient_2)" transform="matrix(2 0 0 2 -0.00012207 -0.00012207)" d="M97.8196 223.295C98.8645 223.161 100.764 222.654 101.693 223.173C101.665 225.85 103.154 227.932 104.963 229.777C109.424 234.327 116.057 237.165 122.429 237.21C132.571 237.281 143.083 232.794 150.215 225.687L150.468 225.433C151.213 225.354 151.944 225.048 152.659 224.995C150.657 227.899 148.391 230.552 145.441 232.527C138.62 237.094 126.525 240.311 118.395 238.657C112.61 237.481 105.672 234.623 102.393 229.493C101.3 227.783 100.645 225.664 99.4721 224.042C98.9988 223.387 98.5539 223.435 97.8196 223.295Z"/>
	<path fill="#BA3219" transform="matrix(2 0 0 2 -0.00012207 -0.00012207)" d="M159.076 220.364C159.916 220.74 160.805 221.088 161.591 221.567C161.873 222.302 162.142 223.034 162.521 223.726L162.443 223.877C161.802 225.144 161.36 226.397 160.608 227.628C154.897 236.969 145.209 242.55 135.008 245.93C125.768 248.991 113.556 246.119 105.034 241.81C99.8172 239.173 96.9643 234.312 95.1874 228.89Q94.8679 227.885 94.6173 226.86L94.916 225.448L95.5434 224.432Q95.6736 225.452 95.8992 226.456Q96.1247 227.46 96.4436 228.438Q96.7624 229.416 97.1718 230.359Q97.5811 231.303 98.0773 232.204Q98.5735 233.105 99.1522 233.955Q99.7309 234.806 100.387 235.598Q101.043 236.39 101.771 237.117Q102.498 237.844 103.291 238.5C109.529 243.597 120.786 246.752 128.782 245.927C138.36 244.939 151.541 237.272 157.591 229.752C159.209 227.741 160.621 225.593 160.331 222.914C159.85 222.212 159.413 221.477 158.965 220.755L159.076 220.364Z"/>
	<path fill="#F6BA8B" transform="matrix(2 0 0 2 -0.00012207 -0.00012207)" d="M109.018 222.837C112.153 224.24 115.34 225.195 118.801 225.236C127.226 225.334 136.57 219.751 143.547 215.394C144.239 214.962 146.137 213.341 146.876 213.327C147.231 213.32 147.41 213.614 147.659 213.847C148.091 215.606 150.182 219.022 151.578 220.098C151.81 220.145 151.772 220.103 151.914 220.216C152.532 220.708 153.032 220.7 153.793 220.739C153.861 220.318 153.515 220.016 153.272 219.676L153.325 219.367L154.033 219.581C154.369 220.433 154.788 221.255 154.626 222.191C154.282 222.805 153.978 223.159 153.432 223.602L153.162 224.554L152.659 224.995C151.944 225.048 151.213 225.354 150.468 225.433L150.215 225.687C143.083 232.794 132.571 237.281 122.429 237.21C116.057 237.165 109.424 234.327 104.963 229.777C103.154 227.932 101.665 225.85 101.693 223.173L103.398 222.022C104.007 221.443 104.706 220.925 105.355 220.39L106.087 219.96C107.357 220.69 108.031 221.797 109.018 222.837Z"/>
	<path fill="#EA873A" transform="matrix(2 0 0 2 -0.00012207 -0.00012207)" d="M106.087 219.96C107.357 220.69 108.031 221.797 109.018 222.837C107.16 222.435 105.254 222.514 103.398 222.022C104.007 221.443 104.706 220.925 105.355 220.39L106.087 219.96Z"/>
	<path fill="#8B230E" transform="matrix(2 0 0 2 -0.00012207 -0.00012207)" d="M151.578 220.098C151.81 220.145 151.772 220.103 151.914 220.216C152.532 220.708 153.032 220.7 153.793 220.739C153.861 220.318 153.515 220.016 153.272 219.676L153.325 219.367L154.033 219.581C154.369 220.433 154.788 221.255 154.626 222.191C154.282 222.805 153.978 223.159 153.432 223.602L153.162 224.554L152.659 224.995C151.944 225.048 151.213 225.354 150.468 225.433L152.849 222.175C152.466 221.462 152.011 220.782 151.578 220.098Z"/>
	<defs>
		<linearGradient id="gradient_3" gradientUnits="userSpaceOnUse" x1="136.05412" y1="125.55657" x2="99.040222" y2="195.88937">
			<stop offset="0" stop-color="#FAA87E"/>
			<stop offset="1" stop-color="#FDCD9A"/>
		</linearGradient>
	</defs>
	<path fill="url(#gradient_3)" transform="matrix(2 0 0 2 -0.00012207 -0.00012207)" d="M108.612 124.814C112.212 124.323 116.161 124.137 119.772 124.615C120.439 127.904 120.845 131.303 121.712 134.541C123.625 141.678 128.199 148.776 134.388 152.901C139.911 156.583 147.971 157.933 154.45 156.624C159.968 155.509 164.263 153.003 168.394 149.252C169.311 148.42 170.548 146.823 171.558 146.222C171.611 146.197 171.665 146.172 171.719 146.146C172.212 145.907 172.513 145.71 172.859 145.269C175.003 145.736 177.61 148.034 179.017 149.66C179.129 149.789 179.236 149.854 179.39 149.924C179.463 151.84 178.295 153.313 177.033 154.671C176.929 154.783 176.824 154.857 176.703 154.946C176.434 155.143 176.342 155.36 176.205 155.654C176.202 156.051 176.174 156.387 176.36 156.752C176.115 157.577 175.773 158.459 175.632 159.303C171.42 170.652 164.175 180.484 153.917 187.048C151.194 188.79 148.198 190.158 145.336 191.655C142.538 193.118 139.783 194.719 136.918 196.041Q134.48 197.185 131.933 198.06Q129.387 198.935 126.761 199.532Q124.135 200.128 121.46 200.438Q118.785 200.749 116.092 200.77C114.67 200.951 108.75 201.295 108.061 201.832L107.988 202.094C107.677 202.128 107.376 202.138 107.063 202.124C104.3 202.005 101.313 200.695 98.786 199.649C87.816 195.11 74.1598 186.51 68.1604 175.951C66.5191 173.062 65.4282 169.881 64.3706 166.745C64.049 165.791 63.7164 163.68 63.0808 163.025C63.0555 162.999 63.0278 162.975 63.0013 162.951C63.2727 161.766 64.4615 161.742 64.6563 160.034C64.2539 158.178 62.7094 154.162 63.2911 152.534Q63.6371 152.785 63.9976 153.014C70.331 157.055 78.4441 158.01 85.7046 156.359C93.0659 154.685 97.9799 151.018 101.953 144.692C103.53 141.858 104.832 138.915 106.07 135.923Q107.521 130.41 108.612 124.814Z"/>
	<path fill="#EC7853" transform="matrix(2 0 0 2 -0.00012207 -0.00012207)" d="M109.879 135.968C110.581 135.947 110.869 135.916 111.413 136.428C112.295 137.257 112.555 138.526 112.548 139.686C111.562 138.699 110.041 137.378 109.879 135.968Z"/>
	<path fill="#8B230E" transform="matrix(2 0 0 2 -0.00012207 -0.00012207)" d="M97.1679 170.286C95.7122 169.121 91.9914 167.262 91.4611 165.448C91.4067 165.262 91.5754 165.056 91.6619 164.887C93.1293 164.276 95.616 165.536 97.015 166.04C97.3909 166.583 98.0055 167.755 98.547 168.062C99.1498 168.57 99.7447 169.163 100.487 169.456C99.3902 170.213 98.2832 169.659 97.1679 170.286Z"/>
	<path fill="#F6BA8B" transform="matrix(2 0 0 2 -0.00012207 -0.00012207)" d="M106.07 135.923L106.07 136.153C106.054 137.743 103.939 141.306 104.422 142.389L104.773 141.81L105.5 142.136C105.882 141.506 105.458 140.688 105.87 140.288C106.411 140.461 106.607 140.497 106.989 140.904L107.002 141.176C107.04 141.185 107.079 141.193 107.116 141.203C108.038 141.454 108.934 142.197 109.726 142.724L109.869 142.503C109.4 141.482 108.937 140.999 107.879 140.568C108.709 140.743 110.515 141.034 111.025 141.778C111.361 142.267 111.566 143.235 112.112 143.414C112.405 143.227 112.601 143.069 112.838 142.814C113.112 142.519 113.347 142.41 113.725 142.288C114.298 141.921 114.492 141.301 115.168 140.945C115.857 141.586 116.403 141.616 117.15 142.044C117.341 141.964 117.667 141.758 117.86 141.831C118.546 142.092 118.927 142.806 119.328 143.384C120.245 144.274 121.016 145.161 121.584 146.315C122.592 146.722 123.867 147.634 124.272 148.69C124.592 149.525 124.222 150.983 123.819 151.745C123.637 152.088 123.373 152.364 123.335 152.755C123.299 152.635 123.263 152.516 123.22 152.398L123.163 152.241C122.346 149.981 115.833 149.164 113.601 148.223C110.219 146.795 107.443 144.972 105.271 141.983Q104.523 143.282 103.682 144.524C102.968 144.374 102.637 144.367 101.953 144.692C103.53 141.858 104.832 138.915 106.07 135.923Z"/>
	<path fill="#DD6039" transform="matrix(2 0 0 2 -0.00012207 -0.00012207)" d="M117.15 142.044C117.341 141.964 117.667 141.758 117.86 141.831C118.546 142.092 118.927 142.806 119.328 143.384L117.986 145.086C117.298 144.972 117.133 144.947 116.599 144.51C116.897 143.737 117.002 142.859 117.15 142.044Z"/>
	<path fill="#EC7853" transform="matrix(2 0 0 2 -0.00012207 -0.00012207)" d="M113.725 142.288C114.298 141.921 114.492 141.301 115.168 140.945C115.11 142.374 114.687 143.644 114.753 145.107C114.389 145.077 113.991 145.06 113.637 144.967C113.057 144.816 112.859 144.636 112.586 144.144C112.641 143.349 113.217 142.849 113.725 142.288Z"/>
	<path fill="#EA873A" transform="matrix(2 0 0 2 -0.00012207 -0.00012207)" d="M119.328 143.384C120.245 144.274 121.016 145.161 121.584 146.315L121.453 147.298L121.143 147.525C120.072 147.389 118.737 145.842 117.986 145.086L119.328 143.384Z"/>
	<path fill="#BA3219" transform="matrix(2 0 0 2 -0.00012207 -0.00012207)" d="M122.907 166.796C127.134 166.581 131.714 166.316 135.856 165.431C137.819 165.012 139.323 163.127 141.4 163.775C141.509 163.949 141.736 164.193 141.695 164.395C141.434 165.685 139.681 166.849 138.639 167.542C137.715 166.941 136.91 166.978 135.856 167.2C135.357 167.305 134.747 167.393 134.307 167.639C132.805 167.839 130.718 167.855 129.332 168.394L129.884 168.802L130.01 169.757C126.623 170.465 123.375 170.974 119.903 171.069C115.127 171.22 110.266 171.446 105.544 170.569C103.775 170.474 102.205 169.768 100.487 169.456C99.7447 169.163 99.1498 168.57 98.547 168.062C98.0055 167.755 97.3909 166.583 97.015 166.04C105.512 167.155 114.354 167.154 122.907 166.796Z"/>
	<path fill="#EE9E86" transform="matrix(2 0 0 2 -0.00012207 -0.00012207)" d="M98.547 168.062C99.5685 167.462 103.153 168.491 104.336 168.785Q104.508 168.829 104.678 168.879L103.959 169.57L104.094 169.868C104.619 170.055 105.119 170.195 105.544 170.569C103.775 170.474 102.205 169.768 100.487 169.456C99.7447 169.163 99.1498 168.57 98.547 168.062Z"/>
	<defs>
		<linearGradient id="gradient_4" gradientUnits="userSpaceOnUse" x1="116.71641" y1="167.99086" x2="116.53496" y2="170.98666">
			<stop offset="0" stop-color="#FF9D84"/>
			<stop offset="1" stop-color="#F9CF9F"/>
		</linearGradient>
	</defs>
	<path fill="url(#gradient_4)" transform="matrix(2 0 0 2 -0.00012207 -0.00012207)" d="M121.826 168.993C124.282 169.049 126.883 168.628 129.332 168.394L129.884 168.802L130.01 169.757C126.623 170.465 123.375 170.974 119.903 171.069C115.127 171.22 110.266 171.446 105.544 170.569C105.119 170.195 104.619 170.055 104.094 169.868L103.959 169.57L104.678 168.879C109.494 169.383 117.156 170.038 121.826 168.993Z"/>
	<path fill="#8B230E" transform="matrix(2 0 0 2 -0.00012207 -0.00012207)" d="M122.907 166.796C127.134 166.581 131.714 166.316 135.856 165.431C137.819 165.012 139.323 163.127 141.4 163.775C141.509 163.949 141.736 164.193 141.695 164.395C141.434 165.685 139.681 166.849 138.639 167.542C137.715 166.941 136.91 166.978 135.856 167.2C135.357 167.305 134.747 167.393 134.307 167.639C132.805 167.839 130.718 167.855 129.332 168.394C126.883 168.628 124.282 169.049 121.826 168.993C119.2 167.749 114.448 168.644 111.539 168.625C115.281 167.14 119.298 168.111 122.907 166.796Z"/>
	<defs>
		<linearGradient id="gradient_5" gradientUnits="userSpaceOnUse" x1="109.90292" y1="156.4735" x2="112.91106" y2="145.45503">
			<stop offset="0" stop-color="#E54523"/>
			<stop offset="1" stop-color="#FFA26A"/>
		</linearGradient>
	</defs>
	<path fill="url(#gradient_5)" transform="matrix(2 0 0 2 -0.00012207 -0.00012207)" d="M105.271 141.983C107.443 144.972 110.219 146.795 113.601 148.223C115.833 149.164 122.346 149.981 123.163 152.241L123.22 152.398C123.263 152.516 123.299 152.635 123.335 152.755L123.007 153.28C121.934 155.267 120.73 156.144 118.578 156.79L118.471 156.822C116.417 157.603 114.045 157.99 112.111 158.932C111.808 158.861 111.507 158.814 111.231 158.667L109.804 158.412C109.771 158.402 109.737 158.391 109.704 158.38C108.519 157.986 107.494 157.567 106.45 156.865C104.568 155.598 103.059 154.02 102.611 151.748C102.742 149.252 102.925 146.918 103.682 144.524Q104.523 143.282 105.271 141.983Z"/>
	<path fill="#8B230E" transform="matrix(2 0 0 2 -0.00012207 -0.00012207)" d="M102.611 151.748C103.117 151.817 103.641 151.937 104.076 152.216C105.14 152.897 109.55 156.478 110.183 157.431C110.293 157.597 110.319 157.755 110.353 157.947C110.18 158.101 110.002 158.295 109.804 158.412C109.771 158.402 109.737 158.391 109.704 158.38C108.519 157.986 107.494 157.567 106.45 156.865C104.568 155.598 103.059 154.02 102.611 151.748Z"/>
	<path fill="#8B230E" transform="matrix(2 0 0 2 -0.00012207 -0.00012207)" d="M115.788 154.665L116.348 154.162C117.86 154.015 121.854 152.387 122.649 152.548L123.007 153.28C121.934 155.267 120.73 156.144 118.578 156.79L118.471 156.822C117.34 156.318 116.445 155.735 115.788 154.665Z"/>
	<path fill="#EE9E86" transform="matrix(2 0 0 2 -0.00012207 -0.00012207)" d="M112.666 153.198C113.358 153.051 113.88 153.038 114.504 153.44C114.918 153.706 115.328 154.054 115.666 154.412L115.788 154.665C116.445 155.735 117.34 156.318 118.471 156.822C116.417 157.603 114.045 157.99 112.111 158.932C111.808 158.861 111.507 158.814 111.231 158.667C112.111 157.848 112.552 154.389 112.666 153.198Z"/>
	<path fill="#F6BA8B" transform="matrix(2 0 0 2 -0.00012207 -0.00012207)" d="M112.666 153.198C113.358 153.051 113.88 153.038 114.504 153.44C114.918 153.706 115.328 154.054 115.666 154.412C115.428 155.056 115.069 155.533 114.607 156.031C114.285 156.083 114.121 156.178 113.838 155.984C112.936 155.368 112.812 154.187 112.666 153.198Z"/>
	<defs>
		<linearGradient id="gradient_6" gradientUnits="userSpaceOnUse" x1="81.550903" y1="189.22606" x2="88.602325" y2="179.82137">
			<stop offset="0" stop-color="#B2381C"/>
			<stop offset="1" stop-color="#D45E42"/>
		</linearGradient>
	</defs>
	<path fill="url(#gradient_6)" transform="matrix(2 0 0 2 -0.00012207 -0.00012207)" d="M64.6563 160.034C69.2394 177.564 77.7186 184.286 92.752 193.083C99.0455 196.765 108.776 200.618 116.092 200.77C114.67 200.951 108.75 201.295 108.061 201.832L107.988 202.094C107.677 202.128 107.376 202.138 107.063 202.124C104.3 202.005 101.313 200.695 98.786 199.649C87.816 195.11 74.1598 186.51 68.1604 175.951C66.5191 173.062 65.4282 169.881 64.3706 166.745C64.049 165.791 63.7164 163.68 63.0808 163.025C63.0555 162.999 63.0278 162.975 63.0013 162.951C63.2727 161.766 64.4615 161.742 64.6563 160.034Z"/>
	<path fill="#EC7853" transform="matrix(2 0 0 2 -0.00012207 -0.00012207)" d="M134.307 167.639C134.747 167.393 135.357 167.305 135.856 167.2C136.91 166.978 137.715 166.941 138.639 167.542C136.607 169.352 132.226 173.794 130.002 174.897C126.063 178.383 120.806 179.904 115.631 179.884C108.063 179.855 102.283 175.446 97.1679 170.286C98.2832 169.659 99.3902 170.213 100.487 169.456C102.205 169.768 103.775 170.474 105.544 170.569C110.266 171.446 115.127 171.22 119.903 171.069C123.375 170.974 126.623 170.465 130.01 169.757L129.884 168.802L129.332 168.394C130.718 167.855 132.805 167.839 134.307 167.639Z"/>
	<defs>
		<linearGradient id="gradient_7" gradientUnits="userSpaceOnUse" x1="127.70618" y1="165.68059" x2="126.10269" y2="174.92075">
			<stop offset="0" stop-color="#D43319"/>
			<stop offset="1" stop-color="#FF734F"/>
		</linearGradient>
	</defs>
	<path fill="url(#gradient_7)" transform="matrix(2 0 0 2 -0.00012207 -0.00012207)" d="M134.307 167.639C134.747 167.393 135.357 167.305 135.856 167.2C136.91 166.978 137.715 166.941 138.639 167.542C136.607 169.352 132.226 173.794 130.002 174.897L128.501 175.288C127.717 175.113 126.834 175.032 126.27 174.41C126.218 173.744 126.006 173.438 125.585 172.955L125.444 172.795L126.056 172.246L125.487 172.525L125.83 172.113C126.604 171.902 127.454 171.904 128.254 171.856C125.314 171.62 121.045 173.264 118.97 172.85C118.396 172.735 118.261 172.307 117.957 171.85L117.204 171.739L117.501 171.441C118.286 171.451 118.916 171.365 119.67 171.14L119.903 171.069C123.375 170.974 126.623 170.465 130.01 169.757L129.884 168.802L129.332 168.394C130.718 167.855 132.805 167.839 134.307 167.639Z"/>
	<path fill="#EE9E86" transform="matrix(2 0 0 2 -0.00012207 -0.00012207)" d="M134.307 167.639L134.463 168.101C133.524 168.984 131.272 169.413 130.01 169.757L129.884 168.802L129.332 168.394C130.718 167.855 132.805 167.839 134.307 167.639Z"/>
	<defs>
		<linearGradient id="gradient_8" gradientUnits="userSpaceOnUse" x1="45.848701" y1="62.871994" x2="154.22014" y2="44.627171">
			<stop offset="0" stop-color="#C16A31"/>
			<stop offset="1" stop-color="#E7AC59"/>
		</linearGradient>
	</defs>
	<path fill="url(#gradient_8)" transform="matrix(2 0 0 2 -0.00012207 -0.00012207)" d="M146.469 16.8815C149.446 17.622 152.454 18.6569 155.015 20.3956L154.658 20.9261C152.624 20.8415 148.5 18.5808 146.978 19.4228C148.408 21.2327 149.412 22.196 149.491 24.6246C149.872 24.5662 150.241 24.6991 150.553 24.946C151.053 25.3429 151.067 25.7104 151.111 26.2878C150.045 28.1828 145.664 29.4114 143.66 29.9756C141.339 30.6291 138.187 30.2399 135.725 30.3578C132.235 30.525 128.814 31.3848 125.313 31.4924C122.017 31.5936 111.045 31.0623 108.729 31.9821L108.688 32.2831C110.899 33.7553 131.587 32.9845 132.892 33.8998C133.011 33.9828 133.237 34.4931 133.325 34.6445L133.155 34.8058L132.442 34.7812L132.545 35.0745C135.319 34.633 143.082 34.0206 145.327 35.5132C145.372 35.911 145.306 36.1113 145.152 36.464L146.126 36.6105L145.404 36.689L145.721 36.5012L145.524 36.7984C145.462 36.781 145.401 36.7626 145.339 36.7461C143.874 36.355 141.922 36.4339 140.384 36.2797Q139.405 36.5535 138.411 36.7678C138.191 37.9308 139.248 38.5288 138.883 40.1948C140.245 40.5143 142.275 40.0983 143.73 40.1832C146.702 40.3566 149.474 41.5576 152.261 42.5014C150.902 42.6115 149.646 42.7571 148.346 43.1879C147.553 43.4505 146.657 43.9457 145.846 44.0482C144.685 44.3255 143.597 44.6738 142.479 45.0848L143.451 45.2061C143.792 46.1428 142.898 47.0525 143.733 47.493C145.2 47.2396 149.235 45.5685 150.383 46.1624L150.153 46.6193L149.921 46.654C147.941 46.9652 146.552 48.3432 144.875 49.3147C143.006 50.3975 141.063 51.3362 139.199 52.4573C135.901 54.4402 132.655 56.6363 129.27 58.4538C127.95 60.1987 119.885 64.1215 117.506 65.3769C112.894 67.8104 108.516 70.547 103.836 72.8928L88.2486 80.8495C85.0398 82.5155 81.8133 83.9246 78.8715 86.0624C78.0489 86.487 77.1379 87.0901 76.2745 87.393C75.3113 87.3714 74.4324 88.2257 73.7629 88.856C72.0828 90.4378 70.8721 92.4441 69.1225 93.9672C68.5111 95.3474 67.386 97.3852 67.9308 98.93C68.0486 99.264 68.2685 99.5763 68.471 99.8639C67.3786 100.447 66.2541 101.002 65.21 101.668C62.7706 103.447 59.8807 104.764 57.8924 107.088C56.4728 108.747 53.6245 114.264 52.1956 115.096C52.0999 115.152 51.9613 115.186 51.8614 115.217L51.3094 114.324C50.9959 114.511 50.8592 114.614 50.6617 114.936C48.9213 112.606 43.7949 99.7911 42.9989 97.0747C42.5635 95.5886 42.3166 94.0905 42.3095 92.5403C42.2811 86.325 45.3355 75.8379 49.7717 71.3763C47.3821 71.655 44.7441 71.7425 42.3431 71.5462C41.1534 71.4489 39.8346 71.2584 39.0355 70.2839C38.7806 69.973 38.7246 69.3893 38.7744 69.0047C39.3948 64.2121 52.5205 52.84 56.4375 49.7234C55.9896 49.0741 53.4595 48.7135 52.5936 48.323C49.8516 47.0862 46.8986 44.8996 45.0455 42.5277C43.0969 41.4235 41.5558 36.7353 40.894 34.7275C42.4754 35.0722 44.0866 35.3128 45.6824 35.5838L44.8371 35.7273L44.876 35.9305Q48.8333 36.6158 52.8495 36.6156C53.5053 37.2394 54.0148 37.8494 54.9679 37.9123C56.2167 37.3088 57.8432 37.2585 59.2079 37.0723L64.2982 35.959C66.3465 35.3981 68.4773 34.9171 70.4469 34.1202C73.1728 33.5629 75.9168 32.3991 78.4906 31.3493C86.0174 28.279 93.5114 24.0951 101.398 22.0805C108.969 18.0039 125.002 16.5663 133.712 17.0206C138.666 17.2789 143.721 18.2108 148.686 18.1454C148.368 17.727 147.15 17.3602 146.628 16.9947L146.469 16.8815Z"/>
	<path fill="#FBCD94" transform="matrix(2 0 0 2 -0.00012207 -0.00012207)" d="M54.9679 37.9123C56.2167 37.3088 57.8432 37.2585 59.2079 37.0723L59.2097 37.6722C59.9073 38.3377 60.5515 38.304 61.4931 38.2821C61.9993 38.2703 62.5158 38.2231 63.02 38.2627C60.674 38.7706 57.2026 38.8592 54.9679 37.9123Z"/>
	<defs>
		<linearGradient id="gradient_9" gradientUnits="userSpaceOnUse" x1="122.67196" y1="45.89809" x2="118.77639" y2="36.98373">
			<stop offset="0" stop-color="#CD8240"/>
			<stop offset="1" stop-color="#F9C276"/>
		</linearGradient>
	</defs>
	<path fill="url(#gradient_9)" transform="matrix(2 0 0 2 -0.00012207 -0.00012207)" d="M132.545 35.0745C135.319 34.633 143.082 34.0206 145.327 35.5132C145.372 35.911 145.306 36.1113 145.152 36.464L146.126 36.6105L145.404 36.689L145.721 36.5012L145.524 36.7984C145.462 36.781 145.401 36.7626 145.339 36.7461C143.874 36.355 141.922 36.4339 140.384 36.2797C134.925 35.7164 130.217 38.2534 125.194 39.8905L124.901 39.6194C123.544 40.3925 122.194 41.1397 120.794 41.8309L120.686 41.4926C121.098 40.7875 121.815 39.8501 121.796 39.0298L121.51 38.7977C119.405 40.0225 117.611 41.634 115.395 42.6729C113.855 43.3948 111.939 43.647 110.292 44.1106C108.461 44.626 106.667 45.2981 104.853 45.8745C103.481 46.3104 97.922 47.5074 97.2083 48.0408C96.7651 47.69 96.3901 47.1783 96.0152 46.7534C100.206 45.2675 104.452 43.8286 108.588 42.1986C112.764 40.5526 116.875 38.6622 121.179 37.3673C124.529 36.3591 129.631 36.7206 132.545 35.0745Z"/>
	<path fill="#F0D6AB" transform="matrix(2 0 0 2 -0.00012207 -0.00012207)" d="M101.398 22.0805C103.898 22.2313 108.943 19.938 111.747 19.2753C112.35 20.157 113.11 21.061 113.261 22.1432C113.123 22.6136 113.132 22.7711 112.663 23.0109C110.817 23.9542 104.883 22.3592 103.771 24.4061C99.6071 25.6098 95.4274 26.9134 91.4377 28.6187C88.313 29.9542 85.3441 31.6246 82.2533 33.0321C76.2771 35.7537 69.573 37.6491 63.02 38.2627C62.5158 38.2231 61.9993 38.2703 61.4931 38.2821C60.5515 38.304 59.9073 38.3377 59.2097 37.6722L59.2079 37.0723L64.2982 35.959C66.3465 35.3981 68.4773 34.9171 70.4469 34.1202C73.1728 33.5629 75.9168 32.3991 78.4906 31.3493C86.0174 28.279 93.5114 24.0951 101.398 22.0805Z"/>
	<path fill="#FBCD94" transform="matrix(2 0 0 2 -0.00012207 -0.00012207)" d="M125.194 39.8905C130.217 38.2534 134.925 35.7164 140.384 36.2797Q139.405 36.5535 138.411 36.7678C138.191 37.9308 139.248 38.5288 138.883 40.1948C140.245 40.5143 142.275 40.0983 143.73 40.1832C146.702 40.3566 149.474 41.5576 152.261 42.5014C150.902 42.6115 149.646 42.7571 148.346 43.1879C147.553 43.4505 146.657 43.9457 145.846 44.0482C144.685 44.3255 143.597 44.6738 142.479 45.0848C137.212 46.2523 131.456 50.65 126.388 51.9385C125.164 50.4722 125.51 46.8714 124.867 44.9538C124.568 44.0656 124.293 43.5342 123.456 43.1208L123.771 42.9512C123.617 42.4644 123.487 41.982 123.377 41.4837C123.774 40.6793 124.462 40.3783 125.194 39.8905Z"/>
	<path fill="#EA873A" transform="matrix(2 0 0 2 -0.00012207 -0.00012207)" d="M125.194 39.8905C130.217 38.2534 134.925 35.7164 140.384 36.2797Q139.405 36.5535 138.411 36.7678C138.191 37.9308 139.248 38.5288 138.883 40.1948C140.245 40.5143 142.275 40.0983 143.73 40.1832C146.702 40.3566 149.474 41.5576 152.261 42.5014C150.902 42.6115 149.646 42.7571 148.346 43.1879C147.553 43.4505 146.657 43.9457 145.846 44.0482C146.494 42.8622 147.732 42.9581 148.807 42.3509L148.726 41.9863C147.602 41.0801 146.317 40.8525 144.911 40.7388C144.904 40.9318 144.892 41.1226 144.877 41.3151C143.92 40.9981 142.78 40.5282 141.773 40.4911C139.536 40.4087 136.871 41.1511 134.647 41.5345C131.022 42.1596 127.451 42.7289 123.771 42.9512C123.617 42.4644 123.487 41.982 123.377 41.4837C123.774 40.6793 124.462 40.3783 125.194 39.8905Z"/>
	<defs>
		<linearGradient id="gradient_10" gradientUnits="userSpaceOnUse" x1="136.94556" y1="12.425749" x2="124.14229" y2="30.351244">
			<stop offset="0" stop-color="#C57E3F"/>
			<stop offset="1" stop-color="#F1BD72"/>
		</linearGradient>
	</defs>
	<path fill="url(#gradient_10)" transform="matrix(2 0 0 2 -0.00012207 -0.00012207)" d="M146.469 16.8815C149.446 17.622 152.454 18.6569 155.015 20.3956L154.658 20.9261C152.624 20.8415 148.5 18.5808 146.978 19.4228C148.408 21.2327 149.412 22.196 149.491 24.6246C146.148 24.9058 142.112 23.0774 138.874 22.2484C136.223 21.5697 133.549 21.2163 130.814 21.3152C130.03 21.3435 129.054 21.2819 128.358 21.6614C128.505 21.9287 128.608 22.1725 128.698 22.4635Q128.503 22.6615 128.313 22.8649C127.82 23.4029 127.659 23.561 127.69 24.2705C128.37 24.8593 129.186 24.529 129.985 24.7698C131.547 25.2411 133.341 24.7972 134.824 25.4356L134.791 25.635C122.512 24.6858 116.961 22.1438 103.771 24.4061C104.883 22.3592 110.817 23.9542 112.663 23.0109C113.132 22.7711 113.123 22.6136 113.261 22.1432C113.11 21.061 112.35 20.157 111.747 19.2753C108.943 19.938 103.898 22.2313 101.398 22.0805C108.969 18.0039 125.002 16.5663 133.712 17.0206C138.666 17.2789 143.721 18.2108 148.686 18.1454C148.368 17.727 147.15 17.3602 146.628 16.9947L146.469 16.8815Z"/>
	<defs>
		<linearGradient id="gradient_11" gradientUnits="userSpaceOnUse" x1="96.685143" y1="64.447609" x2="117.64431" y2="38.557228">
			<stop offset="0" stop-color="#EAA55B"/>
			<stop offset="1" stop-color="#FFE098"/>
		</linearGradient>
	</defs>
	<path fill="url(#gradient_11)" transform="matrix(2 0 0 2 -0.00012207 -0.00012207)" d="M97.2083 48.0408C97.922 47.5074 103.481 46.3104 104.853 45.8745C106.667 45.2981 108.461 44.626 110.292 44.1106C111.939 43.647 113.855 43.3948 115.395 42.6729C117.611 41.634 119.405 40.0225 121.51 38.7977L121.796 39.0298C121.815 39.8501 121.098 40.7875 120.686 41.4926L120.794 41.8309C122.194 41.1397 123.544 40.3925 124.901 39.6194L125.194 39.8905C124.462 40.3783 123.774 40.6793 123.377 41.4837C123.487 41.982 123.617 42.4644 123.771 42.9512L123.456 43.1208C124.293 43.5342 124.568 44.0656 124.867 44.9538C125.51 46.8714 125.164 50.4722 126.388 51.9385C122.578 52.9993 118.591 53.3701 114.811 54.4326C114.401 54.7748 113.928 55.1227 113.437 55.3379C110.263 56.7299 98.9821 56.3134 94.7717 56.6177C93.2677 56.7263 91.734 56.8112 90.2434 57.043C87.945 57.4003 82.9749 59.1773 80.8499 58.3155C80.654 58.236 80.601 57.9727 80.516 57.7846C80.5549 57.6134 80.6004 57.4478 80.6788 57.2893C81.5611 55.507 89.7352 52.2532 91.8527 51.6399C94.0838 50.6883 97.8121 50.9794 99.5954 49.3537C100.106 48.8883 100.103 48.5978 100.121 47.9553C99.1659 48.0901 98.3128 48.4174 97.3664 48.0988C97.3132 48.0809 97.261 48.0602 97.2083 48.0408Z"/>
	<path fill="#FAA034" transform="matrix(2 0 0 2 -0.00012207 -0.00012207)" d="M97.2083 48.0408C97.922 47.5074 103.481 46.3104 104.853 45.8745C106.667 45.2981 108.461 44.626 110.292 44.1106C111.939 43.647 113.855 43.3948 115.395 42.6729C117.611 41.634 119.405 40.0225 121.51 38.7977L121.796 39.0298C121.815 39.8501 121.098 40.7875 120.686 41.4926L120.794 41.8309C122.194 41.1397 123.544 40.3925 124.901 39.6194L125.194 39.8905C124.462 40.3783 123.774 40.6793 123.377 41.4837C123.487 41.982 123.617 42.4644 123.771 42.9512L123.456 43.1208C119.221 44.3672 114.771 44.0248 110.596 45.2455C107.818 46.0579 105.55 47.7259 103 49.0051C100.505 50.2569 94.9243 51.7448 92.0972 52.1241C90.2965 52.9677 87.1267 53.5523 85.9346 55.1583L85.8579 55.7289C86.5647 56.4714 87.3935 56.5719 88.4012 56.5956C91.0645 56.6583 93.8469 56.1705 96.5164 56.0462C102.995 55.7444 108.429 56.1341 114.811 54.4326C114.401 54.7748 113.928 55.1227 113.437 55.3379C110.263 56.7299 98.9821 56.3134 94.7717 56.6177C93.2677 56.7263 91.734 56.8112 90.2434 57.043C87.945 57.4003 82.9749 59.1773 80.8499 58.3155C80.654 58.236 80.601 57.9727 80.516 57.7846C80.5549 57.6134 80.6004 57.4478 80.6788 57.2893C81.5611 55.507 89.7352 52.2532 91.8527 51.6399C94.0838 50.6883 97.8121 50.9794 99.5954 49.3537C100.106 48.8883 100.103 48.5978 100.121 47.9553C99.1659 48.0901 98.3128 48.4174 97.3664 48.0988C97.3132 48.0809 97.261 48.0602 97.2083 48.0408Z"/>
	<defs>
		<linearGradient id="gradient_12" gradientUnits="userSpaceOnUse" x1="68.94635" y1="118.14773" x2="88.356079" y2="46.332745">
			<stop offset="0" stop-color="#8F3C23"/>
			<stop offset="1" stop-color="#BC692D"/>
		</linearGradient>
	</defs>
	<path fill="url(#gradient_12)" transform="matrix(2 0 0 2 -0.00012207 -0.00012207)" d="M70.8152 46.6273C71.9463 46.5757 73.1827 45.8234 74.2071 45.3713C76.0415 44.5618 77.9879 43.8909 79.7564 42.9476C81.7619 41.8778 88.2546 36.7335 90.0195 37.088C90.3497 37.4709 90.3921 37.506 90.3584 38.0124C90.292 39.0133 89.3623 40.2924 88.8495 41.125C86.3213 42.3086 79.7422 45.1973 78.1682 46.9298C79.5627 46.4427 80.8529 45.7826 82.1122 45.0129Q84.1755 46.0276 86.2854 46.9414L86.2931 47.2038L85.3801 47.7346C86.293 47.5019 87.461 47.0493 88.3955 47.1493C86.1124 49.5081 82.5813 51.1014 79.8767 53.0316C68.083 61.4487 53.9245 71.8596 51.1854 87.0129C50.9931 88.0765 50.6636 89.2887 50.614 90.361C50.6081 90.488 50.6211 90.528 50.6428 90.6391L51.0042 90.4377L50.9937 90.6456C51.0323 90.6059 51.0699 90.5651 51.1095 90.5264C51.8404 89.8137 57.079 87.7749 58.4443 87.0496C67.3184 82.3354 76.0228 76.9306 85.2193 72.8648C88.6906 71.3301 92.5516 70.0896 96.1503 68.8652C97.3013 68.4736 98.5662 68.2709 99.6764 67.7802C102.002 66.7522 104.157 65.1535 106.487 64.0583C112.305 61.3223 118.421 59.4287 124.587 57.6963C125.689 57.3866 128.033 57.738 129.022 58.2979C129.107 58.3461 129.189 58.4 129.27 58.4538C127.95 60.1987 119.885 64.1215 117.506 65.3769C112.894 67.8104 108.516 70.547 103.836 72.8928L88.2486 80.8495C85.0398 82.5155 81.8133 83.9246 78.8715 86.0624C78.0489 86.487 77.1379 87.0901 76.2745 87.393C75.3113 87.3714 74.4324 88.2257 73.7629 88.856C72.0828 90.4378 70.8721 92.4441 69.1225 93.9672C68.5111 95.3474 67.386 97.3852 67.9308 98.93C68.0486 99.264 68.2685 99.5763 68.471 99.8639C67.3786 100.447 66.2541 101.002 65.21 101.668C62.7706 103.447 59.8807 104.764 57.8924 107.088C56.4728 108.747 53.6245 114.264 52.1956 115.096C52.0999 115.152 51.9613 115.186 51.8614 115.217L51.3094 114.324C50.9959 114.511 50.8592 114.614 50.6617 114.936C48.9213 112.606 43.7949 99.7911 42.9989 97.0747C42.5635 95.5886 42.3166 94.0905 42.3095 92.5403C42.2811 86.325 45.3355 75.8379 49.7717 71.3763C47.3821 71.655 44.7441 71.7425 42.3431 71.5462C41.1534 71.4489 39.8346 71.2584 39.0355 70.2839C38.7806 69.973 38.7246 69.3893 38.7744 69.0047C39.3948 64.2121 52.5205 52.84 56.4375 49.7234C55.9896 49.0741 53.4595 48.7135 52.5936 48.323C49.8516 47.0862 46.8986 44.8996 45.0455 42.5277C45.0931 42.5399 45.1413 42.5503 45.1885 42.5644C47.3641 43.2137 49.7587 46.3535 52.1414 47.4367C54.8748 48.6795 56.7809 47.9264 58.102 48.3873L57.6121 48.9358C60.1304 48.641 68.3859 44.4888 70.3119 45.901C70.564 46.0859 70.6841 46.3525 70.8152 46.6273Z"/>
	<path fill="#D48444" transform="matrix(2 0 0 2 -0.00012207 -0.00012207)" d="M65.21 101.668C64.9961 101.531 64.8599 101.451 64.7714 101.191C64.3208 99.8663 65.3572 95.236 65.9098 93.9106C66.4055 92.7219 67.8898 90.5487 69.1379 90.0186C68.4157 90.9049 66.3605 92.9663 66.1712 93.9935C66.0184 94.8229 66.2382 95.826 65.9283 96.6074Q65.6324 97.3385 65.3702 98.0823C65.1412 98.7386 64.8899 99.5848 65.2364 100.24C65.3237 100.405 65.6729 100.446 65.8525 100.5C66.462 100.331 66.9454 100.234 67.365 99.7184C67.1701 98.6061 67.5419 97.8438 67.3869 96.6748Q68.0563 95.1938 69.1225 93.9672C68.5111 95.3474 67.386 97.3852 67.9308 98.93C68.0486 99.264 68.2685 99.5763 68.471 99.8639C67.3786 100.447 66.2541 101.002 65.21 101.668Z"/>
	<defs>
		<linearGradient id="gradient_13" gradientUnits="userSpaceOnUse" x1="68.665649" y1="45.260674" x2="89.578636" y2="45.739197">
			<stop offset="0" stop-color="#CE7C33"/>
			<stop offset="1" stop-color="#F0A351"/>
		</linearGradient>
	</defs>
	<path fill="url(#gradient_13)" transform="matrix(2 0 0 2 -0.00012207 -0.00012207)" d="M70.8152 46.6273C71.9463 46.5757 73.1827 45.8234 74.2071 45.3713C76.0415 44.5618 77.9879 43.8909 79.7564 42.9476C81.7619 41.8778 88.2546 36.7335 90.0195 37.088C90.3497 37.4709 90.3921 37.506 90.3584 38.0124C90.292 39.0133 89.3623 40.2924 88.8495 41.125C86.3213 42.3086 79.7422 45.1973 78.1682 46.9298C75.9453 48.4535 73.6242 49.923 71.5451 51.638C68.0525 54.5188 59.9952 63.1964 55.6036 63.4681C56.126 62.5429 58.4379 62.1564 59.389 61.4781C62.4523 59.2936 66.0438 56.8558 68.3836 53.8953C68.3678 52.9335 68.6497 52.234 68.9392 51.3432C68.5984 50.5209 68.3163 50.8951 67.6176 50.4737C68.6359 49.126 70.4073 48.7605 71.2357 47.2222L71.0718 47.0916C69.6603 47.2794 68.5425 48.2166 67.2175 48.4502C68.3951 47.7336 69.534 47.139 70.8152 46.6273Z"/>
	<defs>
		<linearGradient id="gradient_14" gradientUnits="userSpaceOnUse" x1="144.46356" y1="96.329834" x2="159.17813" y2="13.620645">
			<stop offset="0" stop-color="#8A360A"/>
			<stop offset="1" stop-color="#D28944"/>
		</linearGradient>
	</defs>
	<path fill="url(#gradient_14)" transform="matrix(2 0 0 2 -0.00012207 -0.00012207)" d="M160.004 17.3294C159.032 16.3139 158.049 15.3431 156.998 14.4105L157.058 13.9247C157.717 13.6158 158.371 13.8281 159.023 14.0636C161.4 14.9228 164.523 16.1566 166.501 17.7307C167.753 17.6809 168.6 18.4773 169.721 18.4133C174.42 22.0015 180.412 27.2437 181.222 33.4673C181.534 35.8676 181.186 38.2229 180.375 40.4873L180.33 40.5872C179.548 42.2841 178.196 43.5537 177.176 45.104C177.45 45.2042 177.472 45.2612 177.763 45.1805C182.305 43.9233 188.223 45.5741 192.173 47.8822C198.833 51.7741 202.444 57.7552 204.36 65.1144C207.741 78.1023 208.587 90.5481 208.781 103.865C208.8 105.198 209.235 108.596 208.675 109.627C208.116 109.606 207.94 109.433 207.567 109.03C205.274 106.556 204.891 104.098 203.687 101.219L203.001 102.645C201.72 107.097 200.934 116.306 199.235 119.729C198.972 120.768 198.64 121.83 198.486 122.891L199.958 125.189C199.666 125.461 199.413 125.673 199.057 125.858C197.027 123.605 195.37 122.61 192.556 121.479C191.16 121.454 190.304 121.436 189.269 122.453C186.751 124.926 185.312 133.925 182.736 134.16C182.241 134.205 181.475 134.002 181.113 133.644C180.44 132.976 180.041 132.256 179.216 131.734C178.725 133.05 178.353 134.387 177.221 135.309C178.619 130.919 181.369 126.938 182.485 122.47C180.717 119.982 178.063 118.296 176.113 115.951C174.373 113.86 173.092 111.349 171.569 109.097C168.508 104.57 163.526 99.6616 158.2 97.9795C158.35 97.2748 158.643 96.8431 159.053 96.2674C159.95 96.4996 160.945 96.6764 161.796 97.0332C162.387 97.1392 162.645 97.3054 163.17 96.9414C163.282 95.7281 162.239 94.3072 161.918 93.1114L161.876 92.9524L162.531 92.5966C162.919 91.4911 162.585 89.9934 162.579 88.8152C161.653 81.2815 161.365 73.6549 161.235 66.0722L160.74 65.6925C159.514 66.2581 157.828 70.2027 156.564 71.4981C154.115 74.0093 151.246 76.2214 148.33 78.1511C139.376 84.0764 131.986 84.9579 122.003 87.3506C117.332 89.041 112.885 90.7562 107.945 91.5563C106.378 91.8102 101.688 91.2217 100.751 91.7968C100.578 92.5315 100.569 93.2987 100.399 94.0147Q100.396 93.5629 100.375 93.1116C100.289 91.3412 99.5769 90.4673 98.2938 89.3148C96.5937 88.4204 95.4167 86.9386 93.4182 86.7269C91.2174 86.4128 89.0078 86.0419 86.7841 85.9541C84.2217 86.0728 81.4003 86.4989 78.8715 86.0624C81.8133 83.9246 85.0398 82.5155 88.2486 80.8495L103.836 72.8928C108.516 70.547 112.894 67.8104 117.506 65.3769C119.885 64.1215 127.95 60.1987 129.27 58.4538C132.655 56.6363 135.901 54.4402 139.199 52.4573C141.063 51.3362 143.006 50.3975 144.875 49.3147C146.552 48.3432 147.941 46.9652 149.921 46.654L150.153 46.6193L150.383 46.1624C149.235 45.5685 145.2 47.2396 143.733 47.493C142.898 47.0525 143.792 46.1428 143.451 45.2061L142.479 45.0848C143.597 44.6738 144.685 44.3255 145.846 44.0482C146.657 43.9457 147.553 43.4505 148.346 43.1879C149.646 42.7571 150.902 42.6115 152.261 42.5014C149.474 41.5576 146.702 40.3566 143.73 40.1832C142.275 40.0983 140.245 40.5143 138.883 40.1948C139.248 38.5288 138.191 37.9308 138.411 36.7678Q139.405 36.5535 140.384 36.2797C141.922 36.4339 143.874 36.355 145.339 36.7461C145.401 36.7626 145.462 36.781 145.524 36.7984L145.721 36.5012L145.404 36.689L146.126 36.6105L145.152 36.464C145.306 36.1113 145.372 35.911 145.327 35.5132C143.082 34.0206 135.319 34.633 132.545 35.0745L132.442 34.7812L133.155 34.8058L133.325 34.6445C133.237 34.4931 133.011 33.9828 132.892 33.8998C131.587 32.9845 110.899 33.7553 108.688 32.2831L108.729 31.9821C111.045 31.0623 122.017 31.5936 125.313 31.4924C128.814 31.3848 132.235 30.525 135.725 30.3578C138.187 30.2399 141.339 30.6291 143.66 29.9756C145.664 29.4114 150.045 28.1828 151.111 26.2878C151.067 25.7104 151.053 25.3429 150.553 24.946C150.241 24.6991 149.872 24.5662 149.491 24.6246C149.412 22.196 148.408 21.2327 146.978 19.4228C148.5 18.5808 152.624 20.8415 154.658 20.9261L155.015 20.3956C157.734 21.5568 160.561 23.2276 162.969 24.9299C163.437 25.261 164.304 26.1494 164.81 26.0958L164.605 25.0463C164.835 23.603 163.798 21.8356 163.869 20.0575C162.643 18.838 161.135 18.5664 160.004 17.3294Z"/>
	<path fill="#AF592B" transform="matrix(2 0 0 2 -0.00012207 -0.00012207)" d="M164.309 46.9034C164.464 48.6582 164.301 50.3767 164.315 52.1298C163.438 52.4065 162.907 52.704 162.225 53.3215Q162.496 51.9618 162.748 50.5984C163.365 49.3886 163.736 48.1204 164.309 46.9034Z"/>
	<path fill="#9C512D" transform="matrix(2 0 0 2 -0.00012207 -0.00012207)" d="M162.225 53.3215C162.907 52.704 163.438 52.4065 164.315 52.1298C164.468 53.9674 164.342 56.4892 163.252 58.061L163.219 57.7094C162.315 57.5805 161.321 57.8566 160.578 58.4312C160.369 58.593 160.18 58.7793 159.996 58.9685L159.824 56.3332C160.454 55.8795 160.925 55.0868 161.384 54.4585C161.566 54.0425 161.937 53.6746 162.225 53.3215Z"/>
	<path fill="#EA873A" transform="matrix(2 0 0 2 -0.00012207 -0.00012207)" d="M166.501 17.7307C167.753 17.6809 168.6 18.4773 169.721 18.4133C174.42 22.0015 180.412 27.2437 181.222 33.4673C181.534 35.8676 181.186 38.2229 180.375 40.4873C180.035 40.2505 179.757 40.1513 179.341 40.1111C177.359 39.9202 176.175 42.1784 174.837 43.2868C174.389 43.6582 174.237 43.728 173.672 43.665C173.175 42.6324 174.004 38.8719 173.523 36.8744C172.417 32.2832 169.558 28.2738 167.332 24.1628C166.397 22.4366 166.009 20.5027 166.602 18.5885C166.704 18.2601 166.588 18.0559 166.501 17.7307Z"/>
	<path fill="#D48444" transform="matrix(2 0 0 2 -0.00012207 -0.00012207)" d="M136.056 56.4244C138.423 53.5312 147.058 49.5886 150.849 48.8783C153.897 48.3074 157.06 48.4123 160.124 47.8904C161.025 48.7705 161.888 49.6791 162.748 50.5984Q162.496 51.9618 162.225 53.3215C161.937 53.6746 161.566 54.0425 161.384 54.4585C160.925 55.0868 160.454 55.8795 159.824 56.3332L159.996 58.9685C160.18 58.7793 160.369 58.593 160.578 58.4312C161.321 57.8566 162.315 57.5805 163.219 57.7094L163.252 58.061L163.265 59.8764C163.119 61.6954 163.012 63.4746 163.074 65.2997L161.253 65.4622L161.235 66.0722L160.74 65.6925C159.514 66.2581 157.828 70.2027 156.564 71.4981C154.115 74.0093 151.246 76.2214 148.33 78.1511C139.376 84.0764 131.986 84.9579 122.003 87.3506C117.332 89.041 112.885 90.7562 107.945 91.5563C106.378 91.8102 101.688 91.2217 100.751 91.7968C100.578 92.5315 100.569 93.2987 100.399 94.0147Q100.396 93.5629 100.375 93.1116C100.289 91.3412 99.5769 90.4673 98.2938 89.3148C96.5937 88.4204 95.4167 86.9386 93.4182 86.7269C91.2174 86.4128 89.0078 86.0419 86.7841 85.9541C85.634 85.6962 84.3364 85.7173 83.1574 85.638C88.5749 83.6938 93.6983 80.8695 98.8064 78.252C105.718 74.7103 112.721 71.1777 119.42 67.2457C122.809 65.2561 126.063 63.0029 129.388 60.9017C131.54 59.2999 133.731 57.7669 136.056 56.4244Z"/>
	<path fill="#FAA034" transform="matrix(2 0 0 2 -0.00012207 -0.00012207)" d="M150.044 49.7698C152.306 48.9841 154.699 48.8463 157.07 48.6423C156.533 49.7697 155.949 50.8936 155.489 52.0544C154.599 51.6224 153.482 51.6606 152.623 51.2049C152.115 50.9356 152.069 50.6151 151.904 50.1115C151.321 49.6745 150.757 49.7921 150.044 49.7698Z"/>
	<path fill="#AF592B" transform="matrix(2 0 0 2 -0.00012207 -0.00012207)" d="M96.4204 86.7586C97.5742 85.915 98.8064 85.6085 100.059 84.9864C101.809 84.117 103.54 82.9484 105.264 81.9908L105.419 82.2508L105.778 81.9372C103.406 83.8659 100.947 84.7745 98.4067 86.3391C101.52 87.3895 109.769 80.8973 112.775 79.5622C115.326 78.4291 118.084 77.8605 120.825 77.4014C116.667 80.6577 102.101 87.4192 96.8582 86.8222C96.7117 86.8055 96.5657 86.7834 96.4204 86.7586Z"/>
	<path fill="#FBCD94" transform="matrix(2 0 0 2 -0.00012207 -0.00012207)" d="M150.044 49.7698C150.757 49.7921 151.321 49.6745 151.904 50.1115C152.069 50.6151 152.115 50.9356 152.623 51.2049C153.482 51.6606 154.599 51.6224 155.489 52.0544C154.388 53.8044 152.75 55.1234 151.115 56.3539C149.172 57.8168 147.175 59.3505 144.96 60.3752C140.854 62.275 137.566 62.7546 133.692 65.4835C133.385 65.3128 133.473 65.0911 133.337 64.9922C133.3 64.9658 132.92 64.9559 132.868 64.9281C132.051 64.4969 131.533 61.3337 130.757 60.4312C130.297 60.7311 130.01 61.0712 129.438 60.9296C129.419 60.9249 129.404 60.911 129.388 60.9017C131.54 59.2999 133.731 57.7669 136.056 56.4244C139.382 55.0034 142.471 52.6083 145.808 51.0839C147.152 50.4703 148.548 50.2853 149.92 49.8135L150.044 49.7698Z"/>
	<defs>
		<linearGradient id="gradient_15" gradientUnits="userSpaceOnUse" x1="132.20845" y1="80.727974" x2="128.02789" y2="71.87529">
			<stop offset="0" stop-color="#821F19"/>
			<stop offset="1" stop-color="#AA5920"/>
		</linearGradient>
	</defs>
	<path fill="url(#gradient_15)" transform="matrix(2 0 0 2 -0.00012207 -0.00012207)" d="M120.825 77.4014C123.011 76.2771 127.908 75.4601 130.536 74.5343Q132.593 73.8311 134.608 73.0124Q136.622 72.1938 138.587 71.2623Q140.552 70.3309 142.46 69.2897Q144.369 68.2484 146.216 67.1008Q148.063 65.9531 149.842 64.7026Q151.62 63.4522 153.325 62.103Q155.031 60.7538 156.656 59.3102Q158.282 57.8666 159.824 56.3332L159.996 58.9685C160.18 58.7793 160.369 58.593 160.578 58.4312C161.321 57.8566 162.315 57.5805 163.219 57.7094L163.252 58.061L163.265 59.8764C163.119 61.6954 163.012 63.4746 163.074 65.2997L161.253 65.4622L161.235 66.0722L160.74 65.6925C159.514 66.2581 157.828 70.2027 156.564 71.4981C154.115 74.0093 151.246 76.2214 148.33 78.1511C139.376 84.0764 131.986 84.9579 122.003 87.3506C117.332 89.041 112.885 90.7562 107.945 91.5563C106.378 91.8102 101.688 91.2217 100.751 91.7968C100.578 92.5315 100.569 93.2987 100.399 94.0147Q100.396 93.5629 100.375 93.1116C100.289 91.3412 99.5769 90.4673 98.2938 89.3148C96.5937 88.4204 95.4167 86.9386 93.4182 86.7269C94.4266 86.6689 95.4181 86.5842 96.4204 86.7586C96.5657 86.7834 96.7117 86.8055 96.8582 86.8222C102.101 87.4192 116.667 80.6577 120.825 77.4014Z"/>
	<path fill="#8B230E" transform="matrix(2 0 0 2 -0.00012207 -0.00012207)" d="M159.996 58.9685C160.18 58.7793 160.369 58.593 160.578 58.4312C161.321 57.8566 162.315 57.5805 163.219 57.7094L163.252 58.061L163.265 59.8764C163.119 61.6954 163.012 63.4746 163.074 65.2997L161.253 65.4622C161.011 64.084 160.974 62.7719 160.97 61.378C158.074 64.6993 154.586 67.5135 151.064 70.1426C151.02 70.0018 150.929 69.868 150.931 69.7203C150.931 69.7163 151.091 69.5561 151.108 69.5395C154.177 66.4969 160.527 63.3418 161.381 58.7421L161.129 58.6092C159.767 59.3771 159.137 61.0968 158.076 62.2056C155.921 64.4556 150.672 68.7954 147.882 70.0755C151.744 66.04 156.885 63.9963 159.996 58.9685Z"/>
	<path fill="#EA873A" transform="matrix(2 0 0 2 -0.00012207 -0.00012207)" d="M151.064 70.1426C154.586 67.5135 158.074 64.6993 160.97 61.378C160.974 62.7719 161.011 64.084 161.253 65.4622L161.235 66.0722L160.74 65.6925C159.514 66.2581 157.828 70.2027 156.564 71.4981C154.115 74.0093 151.246 76.2214 148.33 78.1511C139.376 84.0764 131.986 84.9579 122.003 87.3506C117.332 89.041 112.885 90.7562 107.945 91.5563C106.378 91.8102 101.688 91.2217 100.751 91.7968C100.578 92.5315 100.569 93.2987 100.399 94.0147Q100.396 93.5629 100.375 93.1116C100.289 91.3412 99.5769 90.4673 98.2938 89.3148C99.1582 88.8091 107.293 88.17 109.146 87.8754C115.647 86.8418 121.399 84.312 127.712 82.7573C134.651 81.0151 145.845 75.1175 151.064 70.1426Z"/>
	<path fill="#AF592B" transform="matrix(2 0 0 2 -0.00012207 -0.00012207)" d="M177.16 59.8862C176.41 58.2825 171.882 52.7415 172.064 51.6763C174.029 50.4276 180.131 51.6565 182.351 52.1498C187.017 53.1867 191.487 55.4026 194.116 59.5498C194.398 59.9955 194.65 60.4616 194.891 60.9307C198.131 65.1667 203.004 79.1654 203.877 84.4416C204.411 87.6643 204.582 97.0535 204.145 100.244Q204.085 100.663 203.994 101.077L203.687 101.219L203.001 102.645C201.72 107.097 200.934 116.306 199.235 119.729C198.972 120.768 198.64 121.83 198.486 122.891L199.958 125.189C199.666 125.461 199.413 125.673 199.057 125.858C197.027 123.605 195.37 122.61 192.556 121.479C191.16 121.454 190.304 121.436 189.269 122.453C186.751 124.926 185.312 133.925 182.736 134.16C182.241 134.205 181.475 134.002 181.113 133.644C180.44 132.976 180.041 132.256 179.216 131.734C178.725 133.05 178.353 134.387 177.221 135.309C178.619 130.919 181.369 126.938 182.485 122.47C180.717 119.982 178.063 118.296 176.113 115.951C174.373 113.86 173.092 111.349 171.569 109.097C168.508 104.57 163.526 99.6616 158.2 97.9795C158.35 97.2748 158.643 96.8431 159.053 96.2674C159.95 96.4996 160.945 96.6764 161.796 97.0332C162.387 97.1392 162.645 97.3054 163.17 96.9414C163.282 95.7281 162.239 94.3072 161.918 93.1114L161.876 92.9524L162.531 92.5966C162.919 91.4911 162.585 89.9934 162.579 88.8152C161.653 81.2815 161.365 73.6549 161.235 66.0722L161.253 65.4622L163.074 65.2997C163.012 63.4746 163.119 61.6954 163.265 59.8764C163.391 59.4018 163.532 58.9344 163.681 58.4665C164.261 59.6488 162.883 62.5325 163.731 64.1352L164.047 63.9817C164.476 63.084 164.384 62.2119 164.422 61.2432C164.482 59.7129 164.793 55.4396 165.943 54.4817C166.582 53.9487 167.716 54.2038 168.468 54.2987L168.629 54.1211L167.886 53.3487L168.126 53.2611L168.614 53.5315L168.76 54.2424C169.197 55.2391 169.527 56.5689 170.503 57.1465L170.917 57.0989C171.313 56.109 170.104 54.5424 171.241 54.0307C171.939 54.2614 174.958 58.0163 175.368 58.8389C176.339 60.7867 177.093 65.4935 178.872 66.644C179.173 66.2051 179.111 65.743 179.024 65.225C178.713 63.3653 177.701 61.6766 177.16 59.8862Z"/>
	<path fill="#D48444" transform="matrix(2 0 0 2 -0.00012207 -0.00012207)" d="M162.579 88.8152C162.711 89.0941 162.815 89.347 162.901 89.6433C163.355 91.2203 168.217 98.0984 168.249 98.9477C167.69 98.4911 166.729 96.6091 166.125 96.6789C165.401 96.7627 164.885 97.0235 164.392 97.5246C164.617 97.7748 164.486 97.643 164.725 97.8556C165.395 98.4501 165.68 99.0984 166.022 99.9113L165.973 100.246C165.024 99.8309 165.028 98.8207 164.263 98.3222C163.643 97.9178 162.38 97.668 161.643 97.3917L161.594 97.2275L161.796 97.0332C162.387 97.1392 162.645 97.3054 163.17 96.9414C163.282 95.7281 162.239 94.3072 161.918 93.1114L161.876 92.9524L162.531 92.5966C162.919 91.4911 162.585 89.9934 162.579 88.8152Z"/>
	<defs>
		<linearGradient id="gradient_16" gradientUnits="userSpaceOnUse" x1="182.1662" y1="86.18779" x2="188.41121" y2="57.602207">
			<stop offset="0" stop-color="#CF8444"/>
			<stop offset="1" stop-color="#FBBA71"/>
		</linearGradient>
	</defs>
	<path fill="url(#gradient_16)" transform="matrix(2 0 0 2 -0.00012207 -0.00012207)" d="M177.355 59.413C176.833 58.2406 176.066 56.9995 176.568 55.7041C176.661 55.4631 176.992 55.3144 177.205 55.168C179.086 54.868 181.868 56.8312 183.346 57.9099C187.75 61.1228 189.911 67.6069 191.563 72.5955C191.979 73.8524 192.288 75.6251 192.931 76.7357C194.292 84.246 195.549 91.8071 196.086 99.4278C196.24 101.6 196.129 103.751 196.229 105.915L196.05 105.838C195.736 102.118 195.844 98.3678 195.457 94.6309C195.359 93.6835 195.007 92.802 194.89 91.8868C194.745 90.7487 194.914 89.5648 194.49 88.4772C193.578 88.6589 193.251 88.8669 192.308 88.6233C191.965 89.0036 191.968 89.0404 191.99 89.5542C192.013 90.0955 192.378 90.5942 192.463 91.1434C192.759 93.0668 193.084 96.3549 192.609 98.2532C192.39 96.1401 192.402 94.0136 192.169 91.9048C191.73 87.9168 190.56 84.0602 189.175 80.3077C189.141 77.3394 186.439 72.6781 185.544 69.4826C184.688 70.2776 183.797 71.036 182.928 71.8168C180.708 67.8176 179.245 63.5588 177.355 59.413Z"/>
	<path fill="#EA873A" transform="matrix(2 0 0 2 -0.00012207 -0.00012207)" d="M177.16 59.8862C176.41 58.2825 171.882 52.7415 172.064 51.6763C174.029 50.4276 180.131 51.6565 182.351 52.1498C187.017 53.1867 191.487 55.4026 194.116 59.5498C194.398 59.9955 194.65 60.4616 194.891 60.9307C198.131 65.1667 203.004 79.1654 203.877 84.4416C204.411 87.6643 204.582 97.0535 204.145 100.244Q204.085 100.663 203.994 101.077L203.687 101.219L203.001 102.645C202.964 99.8073 203.455 97.0084 203.402 94.1963C203.27 87.0511 199.36 80.6634 196.438 74.3054C196.398 74.2738 196.357 74.2438 196.318 74.2107C194.292 72.4693 194.241 68.3489 191.918 66.8541L191.448 66.9217C190.975 67.5825 190.989 68.1331 191.118 68.9276C191.538 71.5122 192.798 73.9335 193.104 76.5314L192.931 76.7357C192.288 75.6251 191.979 73.8524 191.563 72.5955C189.911 67.6069 187.75 61.1228 183.346 57.9099C181.868 56.8312 179.086 54.868 177.205 55.168C176.992 55.3144 176.661 55.4631 176.568 55.7041C176.066 56.9995 176.833 58.2406 177.355 59.413L177.16 59.8862Z"/>
	<defs>
		<linearGradient id="gradient_17" gradientUnits="userSpaceOnUse" x1="181.24228" y1="60.830097" x2="184.5061" y2="56.729691">
			<stop offset="0" stop-color="#D17B3F"/>
			<stop offset="1" stop-color="#D7944C"/>
		</linearGradient>
	</defs>
	<path fill="url(#gradient_17)" transform="matrix(2 0 0 2 -0.00012207 -0.00012207)" d="M177.16 59.8862C176.41 58.2825 171.882 52.7415 172.064 51.6763C174.029 50.4276 180.131 51.6565 182.351 52.1498C187.017 53.1867 191.487 55.4026 194.116 59.5498C194.398 59.9955 194.65 60.4616 194.891 60.9307C194.101 60.6931 192.438 58.1279 191.65 57.3613C188.508 54.3023 182.772 51.5371 178.291 52.1067C178.263 52.2789 178.165 52.5517 178.263 52.6973C178.905 53.6493 180.604 53.6611 181.549 54.235C182.849 55.0241 186.732 57.7623 187.646 58.7005C190.627 61.7612 195.545 70.1682 196.438 74.3054C196.398 74.2738 196.357 74.2438 196.318 74.2107C194.292 72.4693 194.241 68.3489 191.918 66.8541L191.448 66.9217C190.975 67.5825 190.989 68.1331 191.118 68.9276C191.538 71.5122 192.798 73.9335 193.104 76.5314L192.931 76.7357C192.288 75.6251 191.979 73.8524 191.563 72.5955C189.911 67.6069 187.75 61.1228 183.346 57.9099C181.868 56.8312 179.086 54.868 177.205 55.168C176.992 55.3144 176.661 55.4631 176.568 55.7041C176.066 56.9995 176.833 58.2406 177.355 59.413L177.16 59.8862Z"/>
	<path fill="#D48444" transform="matrix(2 0 0 2 -0.00012207 -0.00012207)" d="M163.265 59.8764C163.391 59.4018 163.532 58.9344 163.681 58.4665C164.261 59.6488 162.883 62.5325 163.731 64.1352L164.047 63.9817C164.476 63.084 164.384 62.2119 164.422 61.2432C164.482 59.7129 164.793 55.4396 165.943 54.4817C166.582 53.9487 167.716 54.2038 168.468 54.2987L168.629 54.1211L167.886 53.3487L168.126 53.2611L168.614 53.5315L168.76 54.2424C169.197 55.2391 169.527 56.5689 170.503 57.1465L170.917 57.0989C171.313 56.109 170.104 54.5424 171.241 54.0307C171.939 54.2614 174.958 58.0163 175.368 58.8389C176.339 60.7867 177.093 65.4935 178.872 66.644C179.173 66.2051 179.111 65.743 179.024 65.225C178.713 63.3653 177.701 61.6766 177.16 59.8862L177.355 59.413C179.245 63.5588 180.708 67.8176 182.928 71.8168C183.797 71.036 184.688 70.2776 185.544 69.4826C186.439 72.6781 189.141 77.3394 189.175 80.3077C186.077 77.4652 185.005 75.8561 182.913 72.2539C181.979 71.7194 182.12 70.5846 181.385 69.8977C181.009 69.5467 180.644 69.6897 180.175 69.7313C182.844 72.7836 184.271 84.5654 184.989 88.865L184.836 88.8766C184.622 87.3791 184.416 86.2127 183.831 84.8052C183.035 84.252 181.347 84.6657 180.326 84.6009C178.371 83.3216 176.275 82.2606 175.725 79.7894C175.351 78.1089 175.791 76.952 174.118 75.9049C173.755 75.6777 173.364 75.4897 172.979 75.3035C172.332 77.6182 171.67 80.8269 169.91 82.5879C169.762 83.0383 169.628 83.2933 169.278 83.6165C168.621 83.308 168.385 82.3673 168.086 81.7013C166.155 79.6462 167.351 74.5963 164.76 72.7447C164.37 72.4664 164.109 71.1356 163.632 70.6125C163.185 74.0382 164.384 78.2159 163.999 81.8712C162.868 77.3312 163.638 70.3844 163.096 65.495L163.074 65.2997C163.012 63.4746 163.119 61.6954 163.265 59.8764Z"/>
	<path fill="#EA873A" transform="matrix(2 0 0 2 -0.00012207 -0.00012207)" d="M165.603 65.7878C164.639 63.5943 164.742 60.2957 165.173 57.9582C165.371 56.8868 165.807 55.5486 166.752 54.9114C167.494 54.6709 167.961 54.785 168.696 54.9667C169.014 55.8936 169.277 56.8774 169.915 57.641C170.354 57.8299 170.467 57.9428 170.936 57.7572C171.258 57.6298 171.502 57.3541 171.741 57.1122L171.82 57.5482L171.088 58.3782C171.777 59.0688 172.511 59.6847 173.265 60.3031L173.174 60.8833C172.245 59.9439 171.564 59.2732 170.293 58.8106C169.98 58.6966 169.698 58.5103 169.42 58.3295C169.283 57.8774 169.163 57.0408 168.804 56.7579C167.702 57.6001 167.549 59.5309 167.374 60.8233Q167.315 61.2524 167.284 61.6845C166.565 62.9931 166.525 64.6289 165.603 65.7878Z"/>
	<path fill="#FBCD94" transform="matrix(2 0 0 2 -0.00012207 -0.00012207)" d="M167.284 61.6845Q167.315 61.2524 167.374 60.8233C167.549 59.5309 167.702 57.6001 168.804 56.7579C169.163 57.0408 169.283 57.8774 169.42 58.3295C169.698 58.5103 169.98 58.6966 170.293 58.8106C171.564 59.2732 172.245 59.9439 173.174 60.8833C174.789 63.4196 173.323 71.4524 172.699 74.2355C172.048 77.135 170.629 79.7653 169.91 82.5879C169.762 83.0383 169.628 83.2933 169.278 83.6165C168.621 83.308 168.385 82.3673 168.086 81.7013C168.029 79.7082 167.392 77.6581 167.253 75.6276C166.313 72.3845 166.208 69.0887 165.603 65.7878C166.525 64.6289 166.565 62.9931 167.284 61.6845Z"/>
	<path fill="#FAA034" transform="matrix(2 0 0 2 -0.00012207 -0.00012207)" d="M165.603 65.7878C166.525 64.6289 166.565 62.9931 167.284 61.6845C167.31 66.4028 167.761 70.9056 167.253 75.6276C166.313 72.3845 166.208 69.0887 165.603 65.7878Z"/>
	<path fill="#000001" transform="matrix(2 0 0 2 -0.00012207 -0.00012207)" d="M122.003 87.3506C131.986 84.9579 139.376 84.0764 148.33 78.1511C151.246 76.2214 154.115 74.0093 156.564 71.4981C157.828 70.2027 159.514 66.2581 160.74 65.6925L161.235 66.0722C161.365 73.6549 161.653 81.2815 162.579 88.8152C162.585 89.9934 162.919 91.4911 162.531 92.5966L161.876 92.9524L161.918 93.1114C162.239 94.3072 163.282 95.7281 163.17 96.9414C162.645 97.3054 162.387 97.1392 161.796 97.0332C160.945 96.6764 159.95 96.4996 159.053 96.2674C158.643 96.8431 158.35 97.2748 158.2 97.9795C163.526 99.6616 168.508 104.57 171.569 109.097C173.092 111.349 174.373 113.86 176.113 115.951C178.063 118.296 180.717 119.982 182.485 122.47C181.369 126.938 178.619 130.919 177.221 135.309C175.609 139.18 173.987 142.78 171.558 146.222C170.548 146.823 169.311 148.42 168.394 149.252C164.263 153.003 159.968 155.509 154.45 156.624C147.971 157.933 139.911 156.583 134.388 152.901C128.199 148.776 123.625 141.678 121.712 134.541C120.845 131.303 120.439 127.904 119.772 124.615C116.161 124.137 112.212 124.323 108.612 124.814Q107.521 130.41 106.07 135.923C104.832 138.915 103.53 141.858 101.953 144.692C97.9799 151.018 93.0659 154.685 85.7046 156.359C78.4441 158.01 70.331 157.055 63.9976 153.014Q63.6371 152.785 63.2911 152.534C62.6725 151.783 61.6652 151.275 60.8487 150.757C57.2377 148.133 53.8236 143.166 51.455 139.363C50.4842 139.449 49.1658 139.378 48.3601 138.769C47.4566 138.086 47.3723 137 47.1845 135.961C47.6782 134.103 47.8704 129.025 47.0905 127.217C47.9222 125.957 48.4219 124.327 48.9803 122.919C49.2369 121.988 49.5901 121.113 49.9422 120.216C50.6542 118.403 51.4918 116.839 50.6617 114.936C50.8592 114.614 50.9959 114.511 51.3094 114.324L51.8614 115.217C51.9613 115.186 52.0999 115.152 52.1956 115.096C53.6245 114.264 56.4728 108.747 57.8924 107.088C59.8807 104.764 62.7706 103.447 65.21 101.668C66.2541 101.002 67.3786 100.447 68.471 99.8639C68.2685 99.5763 68.0486 99.264 67.9308 98.93C67.386 97.3852 68.5111 95.3474 69.1225 93.9672C70.8721 92.4441 72.0828 90.4378 73.7629 88.856C74.4324 88.2257 75.3113 87.3714 76.2745 87.393C77.1379 87.0901 78.0489 86.487 78.8715 86.0624C81.4003 86.4989 84.2217 86.0728 86.7841 85.9541C89.0078 86.0419 91.2174 86.4128 93.4182 86.7269C95.4167 86.9386 96.5937 88.4204 98.2938 89.3148C99.5769 90.4673 100.289 91.3412 100.375 93.1116Q100.396 93.5629 100.399 94.0147C100.569 93.2987 100.578 92.5315 100.751 91.7968C101.688 91.2217 106.378 91.8102 107.945 91.5563C112.885 90.7562 117.332 89.041 122.003 87.3506Z"/>
	<path fill="#937956" transform="matrix(2 0 0 2 -0.00012207 -0.00012207)" d="M57.1008 116.037C57.4172 116.24 58.0652 116.518 58.1424 116.879C58.2234 117.258 58.0546 117.643 57.936 117.998L57.3717 119.666L55.9647 118.815C56.2978 117.879 56.7231 116.957 57.1008 116.037Z"/>
	<path fill="#C3AB8A" transform="matrix(2 0 0 2 -0.00012207 -0.00012207)" d="M87.1414 95.6392C89.197 96.0427 91.3529 96.3812 93.3552 97.0019L90.6082 97.1945L90.4341 97.4804C90.9932 97.8939 91.363 98.0109 91.5408 98.6967C89.3575 97.8368 87.1708 97.2224 84.8741 96.7502C85.6066 96.0691 86.1661 95.8302 87.1414 95.6392Z"/>
	<path fill="#23A8CF" transform="matrix(2 0 0 2 -0.00012207 -0.00012207)" d="M102.68 120.038C103.257 122.725 104.05 125.611 103.539 128.363Q103.435 127.299 103.301 126.238L103.108 126.273L102.21 128.051C102.219 127.111 102.167 126.183 102.102 125.246C101.929 123.82 101.67 122.403 101.438 120.986L102.68 120.038Z"/>
	<path fill="#66B3BD" transform="matrix(2 0 0 2 -0.00012207 -0.00012207)" d="M102.21 128.051L103.108 126.273L103.301 126.238Q103.435 127.299 103.539 128.363C103.463 130.154 102.311 132.913 102.607 134.533C102.159 134.057 101.763 133.526 101.075 133.439C100.098 133.689 99.7227 134.602 98.7935 134.906L99.6067 132.704C100.664 131.635 101.395 130.611 102.016 129.234L102.21 128.051Z"/>
	<path fill="#66B3BD" transform="matrix(2 0 0 2 -0.00012207 -0.00012207)" d="M97.0742 109.038C99.7994 112.492 101.594 115.761 102.68 120.038L101.438 120.986C100.6 117.887 99.2585 114.235 97.1821 111.741L95.8235 110.035C96.3143 110.193 96.7891 110.481 97.2492 110.715C97.1559 110.157 97.1162 109.601 97.0742 109.038Z"/>
	<path fill="#775939" transform="matrix(2 0 0 2 -0.00012207 -0.00012207)" d="M65.5381 106.322C65.0222 109.635 59.4557 113.887 58.4577 118.006L57.936 117.998C58.0546 117.643 58.2234 117.258 58.1424 116.879C58.0652 116.518 57.4172 116.24 57.1008 116.037Q57.4442 115.298 57.8386 114.584Q58.2329 113.871 58.6762 113.187Q59.1195 112.503 59.6096 111.851Q60.0998 111.2 60.6343 110.584Q61.1688 109.969 61.7451 109.392Q62.3214 108.816 62.9366 108.281Q63.5519 107.746 64.203 107.256Q64.8542 106.766 65.5381 106.322Z"/>
	<path fill="#C3AB8A" transform="matrix(2 0 0 2 -0.00012207 -0.00012207)" d="M47.0905 127.217C47.9222 125.957 48.4219 124.327 48.9803 122.919C48.7483 128.186 48.7629 134.673 51.455 139.363C50.4842 139.449 49.1658 139.378 48.3601 138.769C47.4566 138.086 47.3723 137 47.1845 135.961C47.6782 134.103 47.8704 129.025 47.0905 127.217Z"/>
	<path fill="#AF8A5D" transform="matrix(2 0 0 2 -0.00012207 -0.00012207)" d="M55.9647 118.815L57.3717 119.666C56.1948 126.893 56.7385 135.741 61.1988 141.889C61.8081 142.729 63.1832 144.301 64.2714 144.467C64.4909 144.501 64.7104 144.504 64.932 144.501C65.2582 145.305 65.2807 145.703 65.072 146.539L65.0256 146.732C64.994 146.859 64.9574 146.986 64.9204 147.112C62.4216 144.656 59.7572 142.263 57.9734 139.209C54.4431 133.166 54.239 125.442 55.9647 118.815Z"/>
	<path fill="#F6BA8B" transform="matrix(2 0 0 2 -0.00012207 -0.00012207)" d="M74.5835 102.412C79.5181 100.689 84.4627 100.624 89.2177 102.937Q90.3397 103.494 91.4007 104.16Q92.4616 104.826 93.4511 105.595Q94.4405 106.363 95.3485 107.226Q96.2566 108.089 97.0742 109.038C97.1162 109.601 97.1559 110.157 97.2492 110.715C96.7891 110.481 96.3143 110.193 95.8235 110.035C92.5033 106.927 88.6117 105.078 83.9885 105.231C79.0667 105.393 75.142 108.596 71.9557 112.068Q71.7521 112.29 71.5555 112.518C70.6178 112.625 69.4698 112.851 68.5364 112.73C68.0591 112.667 67.5575 112.455 67.2657 112.064C66.6074 111.182 66.8454 109.99 66.966 108.975C67.2763 107.571 68.3767 106.205 68.8815 104.804L70.9507 103.756C72.1489 103.213 73.3267 102.793 74.5835 102.412Z"/>
	<path fill="#EA873A" transform="matrix(2 0 0 2 -0.00012207 -0.00012207)" d="M70.9507 103.756C72.1489 103.213 73.3267 102.793 74.5835 102.412C73.7235 103.552 72.2398 103.193 72.4315 104.762C73.0477 104.737 73.4667 104.275 73.9219 103.898C73.3156 105.104 71.9423 105.866 70.8062 106.504Q68.9025 107.765 66.966 108.975C67.2763 107.571 68.3767 106.205 68.8815 104.804L70.9507 103.756Z"/>
	<path fill="#8B230E" transform="matrix(2 0 0 2 -0.00012207 -0.00012207)" d="M86.7841 85.9541C89.0078 86.0419 91.2174 86.4128 93.4182 86.7269C95.4167 86.9386 96.5937 88.4204 98.2938 89.3148C99.5769 90.4673 100.289 91.3412 100.375 93.1116Q100.396 93.5629 100.399 94.0147C99.8988 95.3843 99.3706 96.6203 98.4535 97.7789C96.6925 97.6933 95.0786 97.3293 93.3552 97.0019C91.3529 96.3812 89.197 96.0427 87.1414 95.6392C86.1661 95.8302 85.6066 96.0691 84.8741 96.7502Q82.4038 96.5292 79.9239 96.4914C75.734 97.0125 72.2773 98.0397 68.471 99.8639C68.2685 99.5763 68.0486 99.264 67.9308 98.93C67.386 97.3852 68.5111 95.3474 69.1225 93.9672C70.8721 92.4441 72.0828 90.4378 73.7629 88.856C74.4324 88.2257 75.3113 87.3714 76.2745 87.393C77.1379 87.0901 78.0489 86.487 78.8715 86.0624C81.4003 86.4989 84.2217 86.0728 86.7841 85.9541Z"/>
	<path fill="#AF592B" transform="matrix(2 0 0 2 -0.00012207 -0.00012207)" d="M69.1225 93.9672C70.8721 92.4441 72.0828 90.4378 73.7629 88.856C74.4324 88.2257 75.3113 87.3714 76.2745 87.393C74.6619 88.6361 71.7581 90.9726 71.2556 92.9941L71.437 93.3958C73.0033 93.6744 74.615 93.4138 76.1837 93.6442C78.0976 93.9253 79.7567 94.8453 81.7403 94.9151C83.527 95.1494 85.3749 95.2991 87.1414 95.6392C86.1661 95.8302 85.6066 96.0691 84.8741 96.7502Q82.4038 96.5292 79.9239 96.4914C75.734 97.0125 72.2773 98.0397 68.471 99.8639C68.2685 99.5763 68.0486 99.264 67.9308 98.93C67.386 97.3852 68.5111 95.3474 69.1225 93.9672Z"/>
	<path fill="#D48444" transform="matrix(2 0 0 2 -0.00012207 -0.00012207)" d="M81.7403 94.9151C83.527 95.1494 85.3749 95.2991 87.1414 95.6392C86.1661 95.8302 85.6066 96.0691 84.8741 96.7502Q82.4038 96.5292 79.9239 96.4914L79.7451 96.2197C80.183 95.794 81.4236 96.0849 82.1085 95.8887L81.9905 95.5929L80.1633 95.4161L81.7403 94.9151Z"/>
	<path fill="#9C512D" transform="matrix(2 0 0 2 -0.00012207 -0.00012207)" d="M65.5381 106.322C66.5329 105.58 67.7091 105.161 68.8815 104.804C68.3767 106.205 67.2763 107.571 66.966 108.975C66.8454 109.99 66.6074 111.182 67.2657 112.064C67.5575 112.455 68.0591 112.667 68.5364 112.73C69.4698 112.851 70.6178 112.625 71.5555 112.518C67.7472 116.952 66.5652 120.388 67.0203 126.234C67.4108 131.249 69.1758 135.833 73.0757 139.147C74.2025 140.105 75.4842 140.861 76.7748 141.574C73.522 141.161 72.1818 138.577 70.9628 138.315C70.8278 138.286 70.4103 138.415 70.2534 138.444C69.7617 138.873 69.6783 138.856 69.6262 139.496C70.1615 140.006 72.2278 140.227 72.292 140.472C71.1368 140.878 69.7206 140.56 68.6518 140.028C65.9329 138.676 66.843 136.006 64.6107 135.644C64.0664 136.308 64.3055 138.103 64.3905 138.977C64.5506 140.624 66.303 145.884 65.9293 146.91L65.1372 147.354L64.9204 147.112C64.9574 146.986 64.994 146.859 65.0256 146.732L65.072 146.539C65.2807 145.703 65.2582 145.305 64.932 144.501C64.7104 144.504 64.4909 144.501 64.2714 144.467C63.1832 144.301 61.8081 142.729 61.1988 141.889C56.7385 135.741 56.1948 126.893 57.3717 119.666L57.936 117.998L58.4577 118.006C59.4557 113.887 65.0222 109.635 65.5381 106.322Z"/>
	<path fill="#BA3219" transform="matrix(2 0 0 2 -0.00012207 -0.00012207)" d="M65.5381 106.322C66.5329 105.58 67.7091 105.161 68.8815 104.804C68.3767 106.205 67.2763 107.571 66.966 108.975C65.6576 111.048 65.055 113.551 64.3835 115.883C64.3654 115.84 64.3448 115.798 64.3291 115.755C63.942 114.676 65.1507 111.275 65.7072 110.209C66.0871 109.481 66.8615 108.579 66.762 107.742C66.1682 107.79 65.8885 108.083 65.4984 108.524C63.9278 110.297 59.5162 117.458 58.4577 118.006C59.4557 113.887 65.0222 109.635 65.5381 106.322Z"/>
	<defs>
		<linearGradient id="gradient_18" gradientUnits="userSpaceOnUse" x1="63.046284" y1="124.51997" x2="72.925789" y2="126.41665">
			<stop offset="0" stop-color="#EB8541"/>
			<stop offset="1" stop-color="#FA8E68"/>
		</linearGradient>
	</defs>
	<path fill="url(#gradient_18)" transform="matrix(2 0 0 2 -0.00012207 -0.00012207)" d="M64.3835 115.883C65.055 113.551 65.6576 111.048 66.966 108.975C66.8454 109.99 66.6074 111.182 67.2657 112.064C67.5575 112.455 68.0591 112.667 68.5364 112.73C69.4698 112.851 70.6178 112.625 71.5555 112.518C67.7472 116.952 66.5652 120.388 67.0203 126.234C67.4108 131.249 69.1758 135.833 73.0757 139.147C74.2025 140.105 75.4842 140.861 76.7748 141.574C73.522 141.161 72.1818 138.577 70.9628 138.315C70.8278 138.286 70.4103 138.415 70.2534 138.444C69.7617 138.873 69.6783 138.856 69.6262 139.496C70.1615 140.006 72.2278 140.227 72.292 140.472C71.1368 140.878 69.7206 140.56 68.6518 140.028C65.9329 138.676 66.843 136.006 64.6107 135.644C64.0664 136.308 64.3055 138.103 64.3905 138.977C64.5506 140.624 66.303 145.884 65.9293 146.91L65.1372 147.354L64.9204 147.112C64.9574 146.986 64.994 146.859 65.0256 146.732L65.072 146.539C65.2807 145.703 65.2582 145.305 64.932 144.501C62.7175 138.662 63.3573 122.171 64.3835 115.883Z"/>
	<path fill="#F6BA8B" transform="matrix(2 0 0 2 -0.00012207 -0.00012207)" d="M98.7935 134.906C99.7227 134.602 100.098 133.689 101.075 133.439C101.763 133.526 102.159 134.057 102.607 134.533L102.156 135.174C99.439 141.962 95.1581 147.616 88.2855 150.588C82.3388 153.159 75.9858 152.99 69.9926 150.608C68.1713 149.884 66.4551 148.82 65.1372 147.354L65.9293 146.91C66.303 145.884 64.5506 140.624 64.3905 138.977C64.3055 138.103 64.0664 136.308 64.6107 135.644C66.843 136.006 65.9329 138.676 68.6518 140.028C69.7206 140.56 71.1368 140.878 72.292 140.472C72.2278 140.227 70.1615 140.006 69.6262 139.496C69.6783 138.856 69.7617 138.873 70.2534 138.444C70.4103 138.415 70.8278 138.286 70.9628 138.315C72.1818 138.577 73.522 141.161 76.7748 141.574C80.7418 142.882 84.0067 142.731 88.1212 142.5C88.534 142.223 88.5058 142.205 88.6297 141.753C89.6585 141.087 92.8836 140.551 94.3777 139.849C96.5559 138.827 97.9746 137.164 98.7935 134.906Z"/>
	<path fill="#C3AB8A" transform="matrix(2 0 0 2 -0.00012207 -0.00012207)" d="M98.7935 134.906C99.7227 134.602 100.098 133.689 101.075 133.439C101.763 133.526 102.159 134.057 102.607 134.533L102.156 135.174C101.478 134.79 101.291 134.507 100.52 134.718C98.8868 136.29 98.6799 138.65 96.8847 140.285C94.2563 140.901 90.7853 142.869 88.1212 142.5C88.534 142.223 88.5058 142.205 88.6297 141.753C89.6585 141.087 92.8836 140.551 94.3777 139.849C96.5559 138.827 97.9746 137.164 98.7935 134.906Z"/>
	<path fill="#000001" transform="matrix(2 0 0 2 -0.00012207 -0.00012207)" d="M71.5555 112.518Q71.7521 112.29 71.9557 112.068C75.142 108.596 79.0667 105.393 83.9885 105.231C88.6117 105.078 92.5033 106.927 95.8235 110.035L97.1821 111.741C96.6883 112.175 96.6463 112.13 95.9789 112.127C92.7481 113.394 88.6314 109.541 84.0938 112.386C82.8107 113.524 81.6792 114.703 80.5683 116.009C79.6613 117.165 78.9596 118.359 78.254 119.644C77.243 121.555 76.4886 123.353 76.0765 125.485C76.0804 127.119 76.3206 128.679 76.5759 130.289C77.519 132.822 78.7445 134.443 80.9317 136.083C82.9524 138.121 85.1713 139.938 87.6378 141.413C87.7942 141.506 87.9199 141.617 88.0491 141.744L88.6297 141.753C88.5058 142.205 88.534 142.223 88.1212 142.5C84.0067 142.731 80.7418 142.882 76.7748 141.574C75.4842 140.861 74.2025 140.105 73.0757 139.147C69.1758 135.833 67.4108 131.249 67.0203 126.234C66.5652 120.388 67.7472 116.952 71.5555 112.518Z"/>
	<path fill="#CFEBF2" transform="matrix(2 0 0 2 -0.00012207 -0.00012207)" d="M83.1375 110.808C87.3211 109.399 91.4252 109.813 95.379 111.768C95.5889 111.871 95.7865 111.994 95.9789 112.127C92.7481 113.394 88.6314 109.541 84.0938 112.386C83.8293 111.838 83.4622 111.324 83.1375 110.808Z"/>
	<path fill="#F6F6F5" transform="matrix(2 0 0 2 -0.00012207 -0.00012207)" d="M88.0491 141.744C84.6996 141.926 81.2282 142.114 78.0443 140.855Q77.4719 140.626 76.9246 140.342Q76.3774 140.059 75.8605 139.722Q75.3437 139.386 74.8622 139.001Q74.3808 138.616 73.9393 138.186Q73.4978 137.756 73.1006 137.284Q72.7034 136.813 72.3542 136.305Q72.0051 135.797 71.7073 135.257Q71.4096 134.717 71.1661 134.151C69.5685 130.402 69.7845 125.491 71.2791 121.74C73.4062 116.403 78.0172 112.995 83.1375 110.808C83.4622 111.324 83.8293 111.838 84.0938 112.386C82.8107 113.524 81.6792 114.703 80.5683 116.009C79.6613 117.165 78.9596 118.359 78.254 119.644C77.243 121.555 76.4886 123.353 76.0765 125.485C76.0804 127.119 76.3206 128.679 76.5759 130.289C77.519 132.822 78.7445 134.443 80.9317 136.083C82.9524 138.121 85.1713 139.938 87.6378 141.413C87.7942 141.506 87.9199 141.617 88.0491 141.744Z"/>
	<defs>
		<linearGradient id="gradient_19" gradientUnits="userSpaceOnUse" x1="80.719551" y1="120.48335" x2="102.03688" y2="123.8219">
			<stop offset="0" stop-color="#003754"/>
			<stop offset="1" stop-color="#096A84"/>
		</linearGradient>
	</defs>
	<path fill="url(#gradient_19)" transform="matrix(2 0 0 2 -0.00012207 -0.00012207)" d="M84.0938 112.386C88.6314 109.541 92.7481 113.394 95.9789 112.127C96.6463 112.13 96.6883 112.175 97.1821 111.741C99.2585 114.235 100.6 117.887 101.438 120.986C101.67 122.403 101.929 123.82 102.102 125.246C102.167 126.183 102.219 127.111 102.21 128.051L102.016 129.234C101.395 130.611 100.664 131.635 99.6067 132.704L98.7935 134.906C97.9746 137.164 96.5559 138.827 94.3777 139.849C92.8836 140.551 89.6585 141.087 88.6297 141.753L88.0491 141.744C87.9199 141.617 87.7942 141.506 87.6378 141.413C85.1713 139.938 82.9524 138.121 80.9317 136.083C78.7445 134.443 77.519 132.822 76.5759 130.289C76.3206 128.679 76.0804 127.119 76.0765 125.485C76.4886 123.353 77.243 121.555 78.254 119.644C78.9596 118.359 79.6613 117.165 80.5683 116.009C81.6792 114.703 82.8107 113.524 84.0938 112.386Z"/>
	<path fill="#66B3BD" transform="matrix(2 0 0 2 -0.00012207 -0.00012207)" d="M78.254 119.644C78.9596 118.359 79.6613 117.165 80.5683 116.009C81.6421 117.172 81.3394 119.332 81.9171 120.819L80.9713 121.127C79.8829 120.984 79.0924 120.302 78.254 119.644Z"/>
	<path fill="#32B4C8" transform="matrix(2 0 0 2 -0.00012207 -0.00012207)" d="M76.0765 125.485C76.4886 123.353 77.243 121.555 78.254 119.644C79.0924 120.302 79.8829 120.984 80.9713 121.127L81.9171 120.819C82.2097 121.748 82.6069 122.979 82.4777 123.961C81.3724 123.492 80.1772 123.985 79.1104 124.375C78.036 124.65 77.0808 125.016 76.0765 125.485Z"/>
	<path fill="#CFEBF2" transform="matrix(2 0 0 2 -0.00012207 -0.00012207)" d="M79.1104 124.375C80.1772 123.985 81.3724 123.492 82.4777 123.961C82.6753 124.922 82.8556 125.873 83.2015 126.794C83.0113 127.335 82.832 127.642 82.4329 128.051C81.871 128.627 81.5021 129.59 80.6394 129.677C80.4618 129.695 80.3845 129.681 80.2192 129.665C79.4341 129.257 78.5469 128.701 77.6406 129.007C77.1075 129.186 76.826 129.809 76.5759 130.289C76.3206 128.679 76.0804 127.119 76.0765 125.485C77.0808 125.016 78.036 124.65 79.1104 124.375Z"/>
	<path fill="#66B3BD" transform="matrix(2 0 0 2 -0.00012207 -0.00012207)" d="M76.0765 125.485C77.0808 125.016 78.036 124.65 79.1104 124.375C78.9987 126.098 78.9222 128.197 80.1448 129.585C80.1687 129.613 80.1944 129.638 80.2192 129.665C79.4341 129.257 78.5469 128.701 77.6406 129.007C77.1075 129.186 76.826 129.809 76.5759 130.289C76.3206 128.679 76.0804 127.119 76.0765 125.485Z"/>
	<path fill="#32B4C8" transform="matrix(2 0 0 2 -0.00012207 -0.00012207)" d="M83.2015 126.794C83.4331 127.965 83.6188 129.171 83.9337 130.321L83.5953 130.854L83.1515 130.881C83.6251 132.094 84.3718 134.915 85.3418 135.681L86.3625 135.827C84.5392 136.111 82.749 135.925 80.9317 136.083C78.7445 134.443 77.519 132.822 76.5759 130.289C76.826 129.809 77.1075 129.186 77.6406 129.007C78.5469 128.701 79.4341 129.257 80.2192 129.665C80.3845 129.681 80.4618 129.695 80.6394 129.677C81.5021 129.59 81.871 128.627 82.4329 128.051C82.832 127.642 83.0113 127.335 83.2015 126.794Z"/>
	<path fill="#0888B3" transform="matrix(2 0 0 2 -0.00012207 -0.00012207)" d="M102.102 125.246C102.167 126.183 102.219 127.111 102.21 128.051L102.016 129.234C101.395 130.611 100.664 131.635 99.6067 132.704C97.2284 133.963 94.7202 134.222 92.0649 134.058C90.2142 135.029 88.4079 135.47 86.3625 135.827L85.3418 135.681C84.3718 134.915 83.6251 132.094 83.1515 130.881L83.5953 130.854L83.9337 130.321C83.9456 130.356 83.9537 130.393 83.9694 130.426C84.3873 131.312 85.7682 131.858 86.6123 132.268C90.451 134.133 93.593 133.129 96.6269 130.329C97.3854 129.629 98.1406 128.7 99.1341 128.356L99.2478 128.868L99.2114 128.497C99.6408 128.946 99.6162 128.968 100.232 128.985C101.464 128.146 101.593 126.542 102.102 125.246Z"/>
	<path fill="#32B4C8" transform="matrix(2 0 0 2 -0.00012207 -0.00012207)" d="M92.0649 134.058C94.6144 132.083 98.9014 129.933 102.016 129.234C101.395 130.611 100.664 131.635 99.6067 132.704C97.2284 133.963 94.7202 134.222 92.0649 134.058Z"/>
	<path fill="#4BDFEC" transform="matrix(2 0 0 2 -0.00012207 -0.00012207)" d="M99.6067 132.704L98.7935 134.906C97.9746 137.164 96.5559 138.827 94.3777 139.849C92.8836 140.551 89.6585 141.087 88.6297 141.753L88.0491 141.744C87.9199 141.617 87.7942 141.506 87.6378 141.413C85.1713 139.938 82.9524 138.121 80.9317 136.083C82.749 135.925 84.5392 136.111 86.3625 135.827C88.4079 135.47 90.2142 135.029 92.0649 134.058C94.7202 134.222 97.2284 133.963 99.6067 132.704Z"/>
	<path fill="#FBCD94" transform="matrix(2 0 0 2 -0.00012207 -0.00012207)" d="M122.003 87.3506C131.986 84.9579 139.376 84.0764 148.33 78.1511C151.246 76.2214 154.115 74.0093 156.564 71.4981C157.828 70.2027 159.514 66.2581 160.74 65.6925L161.235 66.0722C161.365 73.6549 161.653 81.2815 162.579 88.8152C162.585 89.9934 162.919 91.4911 162.531 92.5966L161.876 92.9524L161.918 93.1114C162.239 94.3072 163.282 95.7281 163.17 96.9414C162.645 97.3054 162.387 97.1392 161.796 97.0332C160.945 96.6764 159.95 96.4996 159.053 96.2674C158.643 96.8431 158.35 97.2748 158.2 97.9795C152.282 96.3752 146.59 96.5203 140.537 96.6814C134.709 97.9996 128.496 103.756 125.348 108.732C123.449 111.735 122.069 115.14 121.554 118.665C116.91 118.876 112.247 119.162 107.6 119.251C105.516 111.425 100.216 103.66 93.1672 99.5814Q92.3692 99.111 91.5408 98.6967C91.363 98.0109 90.9932 97.8939 90.4341 97.4804L90.6082 97.1945L93.3552 97.0019C95.0786 97.3293 96.6925 97.6933 98.4535 97.7789C99.3706 96.6203 99.8988 95.3843 100.399 94.0147C100.569 93.2987 100.578 92.5315 100.751 91.7968C101.688 91.2217 106.378 91.8102 107.945 91.5563C112.885 90.7562 117.332 89.041 122.003 87.3506Z"/>
	<path fill="#5D1410" transform="matrix(2 0 0 2 -0.00012207 -0.00012207)" d="M129.163 90.0712C129.418 89.8343 129.689 89.6161 129.965 89.404C134.329 86.0514 140.582 85.5859 145.851 86.2781C150.669 86.9111 158.784 88.9432 161.876 92.9524L161.918 93.1114C162.239 94.3072 163.282 95.7281 163.17 96.9414C162.645 97.3054 162.387 97.1392 161.796 97.0332C160.945 96.6764 159.95 96.4996 159.053 96.2674C158.643 96.8431 158.35 97.2748 158.2 97.9795C152.282 96.3752 146.59 96.5203 140.537 96.6814L139.808 96.1118C137.012 96.4128 133.279 97.821 130.564 97.0076C129.783 96.7736 129.116 96.2884 128.754 95.5461C127.955 93.9093 128.62 91.7057 129.163 90.0712Z"/>
	<path fill="#684035" transform="matrix(2 0 0 2 -0.00012207 -0.00012207)" d="M139.808 96.1118C140.924 95.6272 142.388 95.6137 143.591 95.4738C148.907 94.8558 153.838 94.6495 159.053 96.2674C158.643 96.8431 158.35 97.2748 158.2 97.9795C152.282 96.3752 146.59 96.5203 140.537 96.6814L139.808 96.1118Z"/>
	<path fill="#F6BA8B" transform="matrix(2 0 0 2 -0.00012207 -0.00012207)" d="M145.146 100.844C149.245 100.626 153.188 101.321 156.903 103.094C163.997 106.48 169.13 113.375 171.683 120.673C173.84 126.838 173.582 132.475 170.715 138.368C167.186 145.623 161.21 149.734 153.749 152.331C152.997 152.492 152.236 152.65 151.471 152.735C146.197 153.321 140.487 151.671 136.369 148.322Q135.83 147.886 135.313 147.424Q134.795 146.962 134.301 146.475Q133.808 145.988 133.338 145.478Q132.868 144.968 132.424 144.435Q131.98 143.902 131.563 143.349Q131.146 142.795 130.756 142.221Q130.366 141.648 130.005 141.056Q129.643 140.464 129.311 139.855Q128.98 139.246 128.678 138.622Q128.376 137.997 128.105 137.359Q127.835 136.72 127.595 136.069Q127.356 135.418 127.149 134.757Q126.942 134.095 126.768 133.424Q126.593 132.752 126.452 132.073Q126.31 131.395 126.202 130.71Q126.094 130.024 126.02 129.335C125.32 122.483 126.913 114.366 131.368 108.958C134.987 104.567 139.417 101.412 145.146 100.844Z"/>
	<path fill="#8B230E" transform="matrix(2 0 0 2 -0.00012207 -0.00012207)" d="M129.818 121.307C130.154 121.823 130.398 122.139 130.965 122.423Q130.694 123.591 130.444 124.763L129.715 124.667L129.371 124.069C129.46 123.146 129.658 122.221 129.818 121.307Z"/>
	<path fill="#5D1410" transform="matrix(2 0 0 2 -0.00012207 -0.00012207)" d="M130.545 118.797C130.863 119.51 131.189 119.787 131.811 120.223L130.965 122.423C130.398 122.139 130.154 121.823 129.818 121.307L130.545 118.797Z"/>
	<path fill="#684035" transform="matrix(2 0 0 2 -0.00012207 -0.00012207)" d="M129.371 124.069L129.715 124.667L130.444 124.763C130.179 128.184 129.983 132.283 131.575 135.451C131.176 135.34 131.028 135.356 130.77 135.014C129.049 132.725 128.915 126.788 129.371 124.069Z"/>
	<path fill="#440A0D" transform="matrix(2 0 0 2 -0.00012207 -0.00012207)" d="M133.369 113.054C133.439 113.74 133.398 114.277 133.956 114.785C134.175 114.984 134.586 115.124 134.859 115.239C134.172 116.218 133.424 117.189 132.827 118.225L131.811 120.223C131.189 119.787 130.863 119.51 130.545 118.797L131.576 116.177C132.099 115.07 132.702 114.075 133.369 113.054Z"/>
	<path fill="#FAA034" transform="matrix(2 0 0 2 -0.00012207 -0.00012207)" d="M161.75 110.106C164.308 110.825 166.061 113.284 167.305 115.518C170.22 120.751 171.534 130.861 169.81 136.62C169.521 137.585 169.049 138.842 168.112 139.345L167.937 139.071L168.211 138.149C168.17 138.173 168.13 138.199 168.089 138.222C166.101 139.314 163.059 138.938 160.886 139.463C158.922 139.937 157.102 141.1 155.13 141.663L154.817 141.385C159.263 138.885 162.106 138.808 165.842 134.491C168.37 131.57 169.548 128.083 169.243 124.214C168.773 118.244 166.214 113.946 161.75 110.106Z"/>
	<path fill="#F6F6F5" transform="matrix(2 0 0 2 -0.00012207 -0.00012207)" d="M134.859 115.239Q135.627 114.337 136.479 113.515C139.906 110.161 142.78 109.173 147.555 109.217L147.424 110.129C146.794 110.591 146.165 110.362 145.494 110.691C143.029 111.669 140.023 114.021 138.883 116.494L139.393 116.696C139.09 117.868 138.981 118.856 139.036 120.066C138.004 121.284 138.279 123.621 138.412 125.148C138.623 127.564 140.21 132.2 139.101 134.23C140.046 135.824 141.281 137.087 143.106 137.609C144.523 138.585 145.13 140.596 146.3 141.894C145.71 142.02 145.102 142.145 144.497 142.176C139.783 142.418 136.594 140.631 133.36 137.377C132.767 136.781 132.289 136.086 131.661 135.526C131.633 135.501 131.604 135.476 131.575 135.451C129.983 132.283 130.179 128.184 130.444 124.763Q130.694 123.591 130.965 122.423L131.811 120.223L132.827 118.225C133.424 117.189 134.172 116.218 134.859 115.239Z"/>
	<path fill="#32B4C8" transform="matrix(2 0 0 2 -0.00012207 -0.00012207)" d="M138.883 116.494L139.393 116.696C139.09 117.868 138.981 118.856 139.036 120.066C138.004 121.284 138.279 123.621 138.412 125.148C138.623 127.564 140.21 132.2 139.101 134.23C137.98 132.396 137.465 129.958 137.166 127.851C136.637 124.117 136.509 119.644 138.883 116.494Z"/>
	<path fill="#000001" transform="matrix(2 0 0 2 -0.00012207 -0.00012207)" d="M133.369 113.054C135.968 109.584 139.78 105.768 144.184 104.877C150.367 103.626 156.75 106.797 161.75 110.106C166.214 113.946 168.773 118.244 169.243 124.214C169.548 128.083 168.37 131.57 165.842 134.491C162.106 138.808 159.263 138.885 154.817 141.385C153.284 141.71 148.065 143.089 146.797 142.266C146.615 142.148 146.633 142.155 146.505 142.022C147.586 141.544 149.313 141.501 150.492 141.319C154.146 140.756 156.707 139.882 159.947 138.114C159.731 136.919 159.678 136.458 160.137 135.329C160.542 134.558 160.718 133.564 160.95 132.721C161.492 130.774 161.873 128.85 162.117 126.845C162.469 123.934 162.166 121.75 161.1 119.034C159.998 117.364 158.905 115.892 157.348 114.618C153.398 111.899 150.344 110.72 145.494 110.691C146.165 110.362 146.794 110.591 147.424 110.129L147.555 109.217C142.78 109.173 139.906 110.161 136.479 113.515Q135.627 114.337 134.859 115.239C134.586 115.124 134.175 114.984 133.956 114.785C133.398 114.277 133.439 113.74 133.369 113.054Z"/>
	<path fill="#CFEBF2" transform="matrix(2 0 0 2 -0.00012207 -0.00012207)" d="M158.972 114.184C160.684 115.985 162.039 117.804 163.12 120.049C162.449 119.517 161.981 119.124 161.1 119.034C159.998 117.364 158.905 115.892 157.348 114.618C157.86 114.4 158.43 114.307 158.972 114.184Z"/>
	<path fill="#66B3BD" transform="matrix(2 0 0 2 -0.00012207 -0.00012207)" d="M147.555 109.217C151.876 109.928 155.635 111.249 158.972 114.184C158.43 114.307 157.86 114.4 157.348 114.618C153.398 111.899 150.344 110.72 145.494 110.691C146.165 110.362 146.794 110.591 147.424 110.129L147.555 109.217Z"/>
	<path fill="#F6F6F5" transform="matrix(2 0 0 2 -0.00012207 -0.00012207)" d="M161.1 119.034C161.981 119.124 162.449 119.517 163.12 120.049C164.998 123.702 166.237 127.893 164.942 131.961C164.061 134.731 162.219 136.467 159.947 138.114C159.731 136.919 159.678 136.458 160.137 135.329C160.542 134.558 160.718 133.564 160.95 132.721C161.492 130.774 161.873 128.85 162.117 126.845C162.469 123.934 162.166 121.75 161.1 119.034Z"/>
	<path fill="#03587A" transform="matrix(2 0 0 2 -0.00012207 -0.00012207)" d="M145.494 110.691C150.344 110.72 153.398 111.899 157.348 114.618C158.905 115.892 159.998 117.364 161.1 119.034C162.166 121.75 162.469 123.934 162.117 126.845C161.873 128.85 161.492 130.774 160.95 132.721C160.718 133.564 160.542 134.558 160.137 135.329C159.678 136.458 159.731 136.919 159.947 138.114C156.707 139.882 154.146 140.756 150.492 141.319C149.313 141.501 147.586 141.544 146.505 142.022L146.3 141.894C145.13 140.596 144.523 138.585 143.106 137.609C141.281 137.087 140.046 135.824 139.101 134.23C140.21 132.2 138.623 127.564 138.412 125.148C138.279 123.621 138.004 121.284 139.036 120.066C138.981 118.856 139.09 117.868 139.393 116.696L138.883 116.494C140.023 114.021 143.029 111.669 145.494 110.691Z"/>
	<path fill="#F6F6F5" transform="matrix(2 0 0 2 -0.00012207 -0.00012207)" d="M139.393 116.696C139.868 116.083 140.01 115.838 140.758 115.557C142.071 115.806 143.18 117.218 144.108 118.13C143.286 119.078 142.075 120.104 141.421 121.126C141.254 121.166 141.12 121.19 140.949 121.197C140.175 121.229 139.576 120.546 139.036 120.066C138.981 118.856 139.09 117.868 139.393 116.696Z"/>
	<path fill="#23A8CF" transform="matrix(2 0 0 2 -0.00012207 -0.00012207)" d="M152.792 133.528C154.056 132.848 155.33 132.006 156.389 131.039C157.438 130.082 159.66 127.061 160.745 126.574C161.16 126.387 161.709 126.699 162.117 126.845C161.873 128.85 161.492 130.774 160.95 132.721C160.122 133.214 159.27 133.687 158.516 134.29C157.115 134.196 155.65 134.041 154.25 134.147C150.425 134.436 147.273 135.389 143.356 134.816C143.224 133.776 142.827 132.722 142.639 131.674C145.424 133.747 149.463 133.406 152.792 133.528Z"/>
	<path fill="#4BDFEC" transform="matrix(2 0 0 2 -0.00012207 -0.00012207)" d="M139.036 120.066C139.576 120.546 140.175 121.229 140.949 121.197C141.12 121.19 141.254 121.166 141.421 121.126C141.58 123.354 141.565 125.568 141.857 127.788C142.017 129.012 142.657 130.493 142.639 131.674C142.827 132.722 143.224 133.776 143.356 134.816C147.273 135.389 150.425 134.436 154.25 134.147C155.65 134.041 157.115 134.196 158.516 134.29C159.27 133.687 160.122 133.214 160.95 132.721C160.718 133.564 160.542 134.558 160.137 135.329C159.678 136.458 159.731 136.919 159.947 138.114C156.707 139.882 154.146 140.756 150.492 141.319C149.313 141.501 147.586 141.544 146.505 142.022L146.3 141.894C145.13 140.596 144.523 138.585 143.106 137.609C141.281 137.087 140.046 135.824 139.101 134.23C140.21 132.2 138.623 127.564 138.412 125.148C138.279 123.621 138.004 121.284 139.036 120.066Z"/>
	<path fill="#7BF8FC" transform="matrix(2 0 0 2 -0.00012207 -0.00012207)" d="M160.137 135.329C159.678 136.458 159.731 136.919 159.947 138.114C156.707 139.882 154.146 140.756 150.492 141.319C149.313 141.501 147.586 141.544 146.505 142.022L146.3 141.894C145.13 140.596 144.523 138.585 143.106 137.609C146.581 137.918 150.191 137.247 153.578 136.472C155.753 136.019 157.992 135.915 160.137 135.329Z"/>
</svg>
