<?xml version="1.0" encoding="utf-8" ?>
<svg xmlns="http://www.w3.org/2000/svg" xmlns:xlink="http://www.w3.org/1999/xlink" width="500" height="500">
	<path fill="#060203" transform="matrix(2 0 0 2 -0.00012207 0)" d="M91.7321 186.104C93.0251 187.276 94.2987 188.522 95.6727 189.597L95.4477 191.184C94.0544 190.092 92.709 188.992 91.428 187.769C91.68 187.57 91.8872 187.324 92.1033 187.088L91.7321 186.104Z"/>
	<path fill="#060203" transform="matrix(2 0 0 2 -0.00012207 0)" d="M85.761 181.359C86.246 181.623 86.7118 181.867 87.2348 182.051L87.9427 181.702C89.1672 183.188 90.3591 184.752 91.7321 186.104L92.1033 187.088C91.8872 187.324 91.68 187.57 91.428 187.769C89.3119 185.928 87.2731 183.728 85.761 181.359Z"/>
	<path fill="#530A06" transform="matrix(2 0 0 2 -0.00012207 0)" d="M95.6727 189.597C97.9434 191.067 102.627 193.586 104.343 195.248L104.173 196.618C101.168 194.939 98.293 193.117 95.4477 191.184L95.6727 189.597Z"/>
	<path fill="#042E2C" transform="matrix(2 0 0 2 -0.00012207 0)" d="M79.3206 240.836C80.012 241.261 80.2548 241.549 80.5352 242.311C78.6698 242.437 77.1962 243.8 76.0194 245.153C74.7266 246.638 73.59 248.357 72.5031 250L69.936 250C71.9897 245.471 76.1495 244.193 79.3206 240.836Z"/>
	<path fill="#D2F9EB" transform="matrix(2 0 0 2 -0.00012207 0)" d="M72.5031 250C73.59 248.357 74.7266 246.638 76.0194 245.153C77.1962 243.8 78.6698 242.437 80.5352 242.311L81.4493 242.839C80.9657 244.489 76.1871 248.542 74.7386 250L72.5031 250Z"/>
	<path fill="#7C1509" transform="matrix(2 0 0 2 -0.00012207 0)" d="M80.1254 169.312C80.3708 168.101 80.4534 167.758 80.0905 166.594C80.7141 167.13 80.6347 168.512 81.3764 168.741C82.9603 172.708 84.6444 176.764 87.1656 180.239Q87.5468 180.974 87.9427 181.702L87.2348 182.051C86.7118 181.867 86.246 181.623 85.761 181.359C83.069 178.809 80.9925 172.841 80.1254 169.312Z"/>
	<path fill="#013A02" transform="matrix(2 0 0 2 -0.00012207 0)" d="M108.245 199.285L108.986 199.519C110.014 200.24 110.816 201.14 112.018 201.567C110.254 201.752 107.497 200.949 105.979 201.874C103.579 202.421 101.17 203.293 99.084 204.621L97.8172 205.179C97.3233 205.129 96.7135 205.043 96.2283 205.156C95.1018 205.418 93.8474 206.244 92.7475 206.681C92.0069 206.975 91.2174 207.057 90.4749 207.34C90.1172 207.477 89.8696 207.481 89.4958 207.416C94.5332 203.242 101.993 200.906 108.245 199.285Z"/>
	<path fill="#9D2F1C" transform="matrix(2 0 0 2 -0.00012207 0)" d="M70.2969 125.891C72.3505 127.797 73.5541 130.851 75.1936 133.135C75.3334 131.985 75.4426 130.794 75.7472 129.674C75.7618 131.372 75.813 133.035 76.0896 134.714C76.5355 137.42 77.8693 141.126 77.5681 143.812C77.5124 144.308 77.2654 144.634 76.9471 145.001C78.0338 147.314 78.2679 149.93 78.651 152.426C78.8962 156.329 79.2397 160.362 80.0432 164.193C80.3581 165.694 81.2392 167.239 81.3764 168.741C80.6347 168.512 80.7141 167.13 80.0905 166.594C80.4534 167.758 80.3708 168.101 80.1254 169.312C79.7539 168.265 79.5088 167.148 79.2177 166.074C73.693 165.591 68.1937 164.285 64.2816 160.052C64.2148 160.009 64.1452 159.971 64.0812 159.924C60.6436 157.427 58.4812 152.343 57.6699 148.313C56.534 142.671 57.155 135.88 60.4335 131.009C62.9826 127.222 66.1861 126.701 70.2969 125.891Z"/>
	<path fill="#7C1509" transform="matrix(2 0 0 2 -0.00012207 0)" d="M69.897 138.53C72.8148 142.878 74.1409 146.945 75.6677 151.886C75.9527 152.809 76.5191 153.621 76.6949 154.572C76.0992 154.228 75.4134 154.015 74.85 153.617C71.8466 151.494 70.417 141.996 69.897 138.53Z"/>
	<defs>
		<linearGradient id="gradient_0" gradientUnits="userSpaceOnUse" x1="62.912937" y1="135.99045" x2="74.976097" y2="154.69972">
			<stop offset="0" stop-color="#240000"/>
			<stop offset="1" stop-color="#5A0807"/>
		</linearGradient>
	</defs>
	<path fill="url(#gradient_0)" transform="matrix(2 0 0 2 -0.00012207 0)" d="M66.1117 133.382C70.8511 134.952 74.4559 140.034 76.6169 144.331Q76.7847 144.665 76.9471 145.001C78.0338 147.314 78.2679 149.93 78.651 152.426C78.8962 156.329 79.2397 160.362 80.0432 164.193C80.3581 165.694 81.2392 167.239 81.3764 168.741C80.6347 168.512 80.7141 167.13 80.0905 166.594C80.4534 167.758 80.3708 168.101 80.1254 169.312C79.7539 168.265 79.5088 167.148 79.2177 166.074C73.693 165.591 68.1937 164.285 64.2816 160.052C65.3571 160.325 66.601 161.388 67.5569 161.985C71.9321 164.716 74.6097 164.944 79.6746 165.428C79.7097 165.184 79.4427 164.881 79.3466 164.587L79.6646 164.743C79.3129 162.408 78.9149 160.064 78.6489 157.719C78.5296 156.666 78.641 155.434 78.3503 154.425C78.1489 153.727 77.7584 153.08 77.0982 152.748L76.8248 152.98C76.6041 156.308 78.7124 160.362 78.5316 163.699C78.5204 163.906 78.5155 164.109 78.5153 164.317C78.2654 164.241 78.0212 164.169 77.7824 164.062C74.7026 162.678 70.668 162.631 67.8576 160.821C69.0036 160.755 75.3928 163.24 77.7567 163.43C78.5274 162.067 77.0812 156.218 76.6949 154.572C76.5191 153.621 75.9527 152.809 75.6677 151.886C74.1409 146.945 72.8148 142.878 69.897 138.53C69.2763 137.749 68.6397 136.734 67.7129 136.311C67.076 136.286 66.776 136.353 66.2869 136.795C63.6725 139.159 64.5686 146.839 62.9476 150.327L62.6915 150.312C62.0444 146.052 62.2959 138.257 64.9491 134.686Q65.4674 133.978 66.1117 133.382Z"/>
	<defs>
		<linearGradient id="gradient_1" gradientUnits="userSpaceOnUse" x1="218.07202" y1="152.12469" x2="196.17732" y2="134.76836">
			<stop offset="0" stop-color="#942110"/>
			<stop offset="1" stop-color="#B24222"/>
		</linearGradient>
	</defs>
	<path fill="url(#gradient_1)" transform="matrix(2 0 0 2 -0.00012207 0)" d="M197.5 132.441L197.955 134.711L198.112 134.771Q198.148 134.559 198.189 134.348C199.076 129.793 201.146 127.658 204.883 125.134C206.099 125.479 207.184 125.673 208.443 125.77C213.189 127.986 216.587 130.983 218.405 136.024C220.458 141.714 219.972 147.762 217.379 153.187C215.356 157.419 209.286 163.315 204.843 164.851C204.652 164.917 204.458 164.979 204.261 165.023C204.565 164.619 204.712 164.228 204.96 163.802C205.298 163.222 205.848 162.413 205.705 161.723L204.696 161.558C203.228 162.188 201.435 163.085 199.822 163.203C199.593 163.221 199.365 163.228 199.135 163.237C197.912 163.285 196.908 162.797 195.999 161.98C195.171 161.234 194.199 160.173 194.134 159.023L194.326 158.348L193.558 157.498C193.328 156.926 193.528 156.267 193.541 155.662C193.712 147.365 197.298 140.084 197.5 132.441Z"/>
	<path fill="#9D2F1C" transform="matrix(2 0 0 2 -0.00012207 0)" d="M212.993 152.312C213.317 153.199 213.42 154.643 213.063 155.525C212.379 157.213 209.714 159.388 208.01 160.013C207.339 160.259 206.652 160.479 205.974 160.709C207.984 158.388 211.087 155.675 211.64 152.497C212.248 152.201 212.322 152.207 212.993 152.312Z"/>
	<path fill="#350706" transform="matrix(2 0 0 2 -0.00012207 0)" d="M207.122 133.007C208.771 132.99 210.003 133.373 211.202 134.553C214.101 137.408 214.577 143.827 214.548 147.663C214.543 148.246 214.566 148.536 214.237 149.035L213.769 148.827C213.918 146.609 213.49 143.626 212.946 141.462C212.181 138.42 210.515 136.09 207.822 134.493C207.486 134.128 207.312 133.471 207.122 133.007Z"/>
	<defs>
		<linearGradient id="gradient_2" gradientUnits="userSpaceOnUse" x1="199.64789" y1="142.52271" x2="203.61809" y2="145.34395">
			<stop offset="0" stop-color="#450000"/>
			<stop offset="1" stop-color="#6A130D"/>
		</linearGradient>
	</defs>
	<path fill="url(#gradient_2)" transform="matrix(2 0 0 2 -0.00012207 0)" d="M207.122 133.007C207.312 133.471 207.486 134.128 207.822 134.493C206.52 134.91 205.593 136.556 204.995 137.723C203.945 139.773 203.215 142.6 203.082 144.898C202.995 146.417 199.002 153.101 198.085 154.962L197.506 155.185L196.565 154.701C196.123 154.373 195.453 154.208 194.936 154.016C196.148 148.932 202.743 135.758 207.122 133.007Z"/>
	<defs>
		<linearGradient id="gradient_3" gradientUnits="userSpaceOnUse" x1="200.37057" y1="139.44038" x2="209.14877" y2="153.04031">
			<stop offset="0" stop-color="#77160D"/>
			<stop offset="1" stop-color="#A23317"/>
		</linearGradient>
	</defs>
	<path fill="url(#gradient_3)" transform="matrix(2 0 0 2 -0.00012207 0)" d="M197.506 155.185L198.085 154.962C199.002 153.101 202.995 146.417 203.082 144.898C203.215 142.6 203.945 139.773 204.995 137.723C205.593 136.556 206.52 134.91 207.822 134.493C210.515 136.09 212.181 138.42 212.946 141.462C213.49 143.626 213.918 146.609 213.769 148.827C213.542 149.971 213.13 151.168 212.993 152.312C212.322 152.207 212.248 152.201 211.64 152.497C211.087 155.675 207.984 158.388 205.974 160.709C205.58 160.965 205.023 161.233 204.696 161.558C203.228 162.188 201.435 163.085 199.822 163.203C199.593 163.221 199.365 163.228 199.135 163.237C197.912 163.285 196.908 162.797 195.999 161.98C195.171 161.234 194.199 160.173 194.134 159.023L194.326 158.348C194.669 157.4 194.603 155.981 195.243 155.184C195.639 154.69 195.988 154.76 196.565 154.701L197.506 155.185Z"/>
	<defs>
		<linearGradient id="gradient_4" gradientUnits="userSpaceOnUse" x1="206.53973" y1="159.21181" x2="200.36211" y2="151.53741">
			<stop offset="0" stop-color="#BD4925"/>
			<stop offset="1" stop-color="#DA6D3F"/>
		</linearGradient>
	</defs>
	<path fill="url(#gradient_4)" transform="matrix(2 0 0 2 -0.00012207 0)" d="M197.506 155.185C199.204 155.863 201.397 156.203 203.228 156.114C207.03 155.929 208.914 153.942 211.32 151.301L210.967 150.801L211.786 150.883Q211.699 151.689 211.64 152.497C211.087 155.675 207.984 158.388 205.974 160.709C205.58 160.965 205.023 161.233 204.696 161.558C203.228 162.188 201.435 163.085 199.822 163.203C199.593 163.221 199.365 163.228 199.135 163.237C197.912 163.285 196.908 162.797 195.999 161.98C195.171 161.234 194.199 160.173 194.134 159.023L194.326 158.348C194.669 157.4 194.603 155.981 195.243 155.184C195.639 154.69 195.988 154.76 196.565 154.701L197.506 155.185Z"/>
	<path fill="#62C02A" transform="matrix(2 0 0 2 -0.00012207 0)" d="M167.145 198.331C172.682 198.872 180.125 200.669 185.048 203.368C187.252 204.191 189.277 205.567 191.24 206.843C198.075 212.012 200.066 216.17 202.304 224.36C203.036 227.041 203.871 229.79 204.258 232.546C204.6 234.98 204.39 237.219 202.889 239.236C202.786 239.374 202.681 239.505 202.568 239.634C201.969 240.561 201.433 241.207 201.71 242.359C201.958 243.391 203.136 244.599 203.779 245.436C205.339 246.728 206.923 248.291 208.023 250L200.087 250L164.23 250L150.127 250L126.129 250L125.779 250L123.15 250L120.489 250L76.3769 250L74.7386 250C76.1871 248.542 80.9657 244.489 81.4493 242.839L80.5352 242.311C80.2548 241.549 80.012 241.261 79.3206 240.836C78.2185 238.973 76.7362 236.874 76.2573 234.743C75.3504 230.707 80.1003 219.129 82.3196 215.587C82.6292 215.031 83.0041 214.495 83.3468 213.958C84.7474 211.631 87.1556 208.816 89.4958 207.416C89.8696 207.481 90.1172 207.477 90.4749 207.34C91.2174 207.057 92.0069 206.975 92.7475 206.681C93.8474 206.244 95.1018 205.418 96.2283 205.156C96.7135 205.043 97.3233 205.129 97.8172 205.179L99.084 204.621C101.17 203.293 103.579 202.421 105.979 201.874C107.497 200.949 110.254 201.752 112.018 201.567C113.795 201.701 116.572 201.911 117.829 203.316C118.261 203.798 118.477 204.593 118.63 205.207L119.2 205.164Q119.786 205.725 120.359 206.299C120.783 211.501 121.89 216.928 119.862 221.942C119.408 223.064 118.636 223.981 118.135 225.058C119.552 224.661 119.883 223.813 120.561 222.636C123.903 221.686 128.554 223.553 132.043 223.787C138.484 224.218 149.368 219.816 154.708 216.237C155.812 215.498 156.829 214.474 157.829 213.596L158.179 213.699C158.274 212.062 157.708 209.984 157.466 208.337Q157.578 207.061 157.647 205.781C158.142 205.776 158.552 205.834 159.031 205.961L159.184 206.003C159.966 205.132 159.806 203.391 160.522 202.212C160.64 201.801 160.755 201.339 160.95 200.958C161.642 199.606 165.703 198.864 167.145 198.331Z"/>
	<path fill="#9AEB84" transform="matrix(2 0 0 2 -0.00012207 0)" d="M90.3232 214.057L90.259 215.359C90.8711 217.019 91.5297 218.611 92.7174 219.958C92.3394 220.359 92.1126 220.592 91.5548 220.674C87.3488 222.576 89.201 220.63 86.0204 220.018C86.9207 217.514 89.1354 216.21 90.3232 214.057Z"/>
	<path fill="#022301" transform="matrix(2 0 0 2 -0.00012207 0)" d="M121.494 245.137C123.126 245.301 126.105 245.079 127.184 246.388C127.217 246.747 127.261 247.098 127.245 247.459C126.839 248.266 126.321 249.117 126.129 250L125.779 250L123.15 250L120.489 250L120.508 249.093C120.804 248.575 120.769 247.602 120.818 246.995L121.494 245.137Z"/>
	<path fill="#C7FBBD" transform="matrix(2 0 0 2 -0.00012207 0)" d="M123.15 250C123.223 249.316 123.212 248.587 123.751 248.091C124.145 248 124.192 247.937 124.542 248.143C125.199 248.528 125.505 249.321 125.779 250L123.15 250Z"/>
	<path fill="#013A02" transform="matrix(2 0 0 2 -0.00012207 0)" d="M127.245 247.459L127.39 248.031C132.684 247.066 138.055 246.956 143.385 246.372C145.7 246.118 147.927 245.486 150.226 245.161C150.174 246.773 150.103 248.387 150.127 250L126.129 250C126.321 249.117 126.839 248.266 127.245 247.459Z"/>
	<path fill="#060203" transform="matrix(2 0 0 2 -0.00012207 0)" d="M165.455 223.235C166.265 223.822 167.009 224.391 167.517 225.269C167.501 225.938 167.332 226.194 166.827 226.652C165.765 227.614 163.718 228.491 163.594 230.082C163.583 230.217 163.589 230.353 163.586 230.488C163.583 230.654 163.573 230.818 163.571 230.984C157.161 233.685 150.6 236.279 144.311 239.244C141.062 240.776 137.929 242.579 134.73 244.215C134.179 243.248 133.629 242.22 132.819 241.445C128.153 236.982 117.767 235.319 111.95 231.646C114.366 231.526 120.777 235.843 124.071 236.26C124.668 236.336 124.843 236.315 125.314 235.961C125.327 235.723 125.34 235.559 125.261 235.329C124.33 232.61 119.129 232.177 116.845 231.124L116.711 231.061L116.76 230.684C117.754 231.054 118.698 231.216 119.748 231.353C121.921 231.806 127.861 235.387 129.746 236.725C131.25 237.793 133.309 239.91 135.048 240.392C135.967 240.647 136.918 240.386 137.796 240.099C140.7 239.148 143.566 237.474 146.344 236.182C152.404 233.364 158.516 230.694 164.317 227.363C164.48 227.21 164.59 227.219 164.809 227.171C165.452 227.03 166.318 226.819 166.784 226.341C167.715 225.386 165.486 224.327 165.455 223.235Z"/>
	<path fill="#BB4923" transform="matrix(2 0 0 2 -0.00012207 0)" d="M118.135 225.058C119.552 224.661 119.883 223.813 120.561 222.636C123.903 221.686 128.554 223.553 132.043 223.787C138.484 224.218 149.368 219.816 154.708 216.237C155.812 215.498 156.829 214.474 157.829 213.596L158.179 213.699C159.095 218.887 160.603 223.49 164.317 227.363C158.516 230.694 152.404 233.364 146.344 236.182C143.566 237.474 140.7 239.148 137.796 240.099C136.918 240.386 135.967 240.647 135.048 240.392C133.309 239.91 131.25 237.793 129.746 236.725C127.861 235.387 121.921 231.806 119.748 231.353C118.827 229.777 117.732 229.023 116.272 227.975C116.897 227.118 117.556 226.283 117.967 225.298L118.135 225.058Z"/>
	<path fill="#156B16" transform="matrix(2 0 0 2 -0.00012207 0)" d="M105.979 201.874C107.497 200.949 110.254 201.752 112.018 201.567C113.795 201.701 116.572 201.911 117.829 203.316C118.261 203.798 118.477 204.593 118.63 205.207L119.2 205.164Q119.786 205.725 120.359 206.299C120.783 211.501 121.89 216.928 119.862 221.942C119.408 223.064 118.636 223.981 118.135 225.058L117.967 225.298C117.556 226.283 116.897 227.118 116.272 227.975C117.732 229.023 118.827 229.777 119.748 231.353C118.698 231.216 117.754 231.054 116.76 230.684L116.711 231.061L116.845 231.124C119.129 232.177 124.33 232.61 125.261 235.329C125.34 235.559 125.327 235.723 125.314 235.961C124.843 236.315 124.668 236.336 124.071 236.26C120.777 235.843 114.366 231.526 111.95 231.646C109.109 231.404 98.6425 225.163 96.0379 223.217C94.8227 222.309 93.7953 221.03 92.7174 219.958C91.5297 218.611 90.8711 217.019 90.259 215.359L90.3232 214.057L90.3977 213.806C90.5121 212.004 91.4868 211.072 92.4222 209.618L92.4476 209.8L92.3474 209.415C91.2088 210.284 90.6315 210.533 89.1979 210.55L89.0605 210.551C91.7713 208.049 94.4566 206.612 97.8172 205.179L99.084 204.621C101.17 203.293 103.579 202.421 105.979 201.874Z"/>
	<path fill="#013A02" transform="matrix(2 0 0 2 -0.00012207 0)" d="M109.188 224.629C112.031 224.324 114.884 222.962 117.563 222.001C117.162 223.023 116.769 224.047 116.307 225.043C114.142 225.808 111.35 225.18 109.188 224.629Z"/>
	<path fill="#060203" transform="matrix(2 0 0 2 -0.00012207 0)" d="M118.63 205.207L119.2 205.164Q119.786 205.725 120.359 206.299C120.783 211.501 121.89 216.928 119.862 221.942C119.408 223.064 118.636 223.981 118.135 225.058L117.967 225.298C117.286 225.447 116.923 225.418 116.263 225.216L116.307 225.043C116.769 224.047 117.162 223.023 117.563 222.001C120.34 216.601 119.32 210.993 118.63 205.207Z"/>
	<path fill="#0E500A" transform="matrix(2 0 0 2 -0.00012207 0)" d="M116.711 231.061C114.598 230.724 111.57 229.837 109.647 228.859C109.614 228.236 109.461 227.831 109.204 227.275C107.928 225.937 103.41 225.576 101.568 224.907C102.252 224.641 104.472 225.244 105.308 225.263C106.597 225.293 107.94 224.932 109.188 224.629C111.35 225.18 114.142 225.808 116.307 225.043L116.263 225.216C116.923 225.418 117.286 225.447 117.967 225.298C117.556 226.283 116.897 227.118 116.272 227.975C117.732 229.023 118.827 229.777 119.748 231.353C118.698 231.216 117.754 231.054 116.76 230.684L116.711 231.061Z"/>
	<path fill="#444518" transform="matrix(2 0 0 2 -0.00012207 0)" d="M116.263 225.216C116.923 225.418 117.286 225.447 117.967 225.298C117.556 226.283 116.897 227.118 116.272 227.975C117.732 229.023 118.827 229.777 119.748 231.353C118.698 231.216 117.754 231.054 116.76 230.684L113.807 229.609C114.434 228.059 115.066 226.413 116.263 225.216Z"/>
	<path fill="#4EAC1B" transform="matrix(2 0 0 2 -0.00012207 0)" d="M105.979 201.874C105.53 202.85 105.119 203.478 104.073 203.899C102.85 205.673 99.7147 205.322 99.0542 207.212C99.3854 208.037 100.075 208.72 100.649 209.389L101.525 209.607C99.1309 210.556 91.2471 213.455 90.259 215.359L90.3232 214.057L90.3977 213.806C90.5121 212.004 91.4868 211.072 92.4222 209.618L92.4476 209.8L92.3474 209.415C91.2088 210.284 90.6315 210.533 89.1979 210.55L89.0605 210.551C91.7713 208.049 94.4566 206.612 97.8172 205.179L99.084 204.621C101.17 203.293 103.579 202.421 105.979 201.874Z"/>
	<path fill="#9AEB84" transform="matrix(2 0 0 2 -0.00012207 0)" d="M99.084 204.621L100.131 205.433C95.8785 207.404 92.6621 209.59 90.3977 213.806C90.5121 212.004 91.4868 211.072 92.4222 209.618L92.4476 209.8L92.3474 209.415C91.2088 210.284 90.6315 210.533 89.1979 210.55L89.0605 210.551C91.7713 208.049 94.4566 206.612 97.8172 205.179L99.084 204.621Z"/>
	<path fill="#156B16" transform="matrix(2 0 0 2 -0.00012207 0)" d="M191.24 206.843C198.075 212.012 200.066 216.17 202.304 224.36C203.036 227.041 203.871 229.79 204.258 232.546C204.6 234.98 204.39 237.219 202.889 239.236C202.786 239.374 202.681 239.505 202.568 239.634C201.969 240.561 201.433 241.207 201.71 242.359C201.958 243.391 203.136 244.599 203.779 245.436C205.339 246.728 206.923 248.291 208.023 250L200.087 250L164.23 250L150.127 250C150.103 248.387 150.174 246.773 150.226 245.161C157.571 246.003 168.701 243.321 175.212 240.003C178.502 238.326 181.499 236.065 184.674 234.18C187.723 232.368 190.946 230.829 193.884 228.838C194.6 228.281 195.216 227.576 195.626 226.766C197.839 222.398 196.979 215.085 194.338 211.027C193.381 209.558 191.871 208.823 191.313 207.078L191.24 206.843Z"/>
	<path fill="#022301" transform="matrix(2 0 0 2 -0.00012207 0)" d="M202.568 239.634C201.969 240.561 201.433 241.207 201.71 242.359C201.958 243.391 203.136 244.599 203.779 245.436C205.339 246.728 206.923 248.291 208.023 250L200.087 250L164.23 250C165.102 249.344 169.658 249.063 171.122 248.809C174.165 248.281 177.279 247.653 180.208 246.671C179.955 246.633 179.822 246.53 179.617 246.383C180.767 246.04 182.622 245.997 183.476 245.323C183.16 244.646 183.019 243.944 182.662 243.259C180.835 242.135 174.803 244.246 172.313 244.284C175.549 242.862 181.568 242.72 185.117 242.295C188.505 241.888 191.8 241.054 195.166 240.538C197.636 240.16 200.117 240.186 202.568 239.634Z"/>
	<path fill="#156B16" transform="matrix(2 0 0 2 -0.00012207 0)" d="M195.702 245.681C196.587 245.732 197.954 244.801 199.038 244.735C200.673 244.636 202.096 245.757 203.779 245.436C205.339 246.728 206.923 248.291 208.023 250L200.087 250C198.707 248.441 197.289 247.03 195.702 245.681Z"/>
	<path fill="#62C02A" transform="matrix(2 0 0 2 -0.00012207 0)" d="M180.208 246.671C184.752 245.603 191.427 243.315 195.702 245.681C197.289 247.03 198.707 248.441 200.087 250L164.23 250C165.102 249.344 169.658 249.063 171.122 248.809C174.165 248.281 177.279 247.653 180.208 246.671Z"/>
	<path fill="#348E18" transform="matrix(2 0 0 2 -0.00012207 0)" d="M89.4958 207.416C89.8696 207.481 90.1172 207.477 90.4749 207.34C91.2174 207.057 92.0069 206.975 92.7475 206.681C93.8474 206.244 95.1018 205.418 96.2283 205.156C96.7135 205.043 97.3233 205.129 97.8172 205.179C94.4566 206.612 91.7713 208.049 89.0605 210.551L89.1979 210.55C90.6315 210.533 91.2088 210.284 92.3474 209.415L92.4476 209.8L92.4222 209.618C91.4868 211.072 90.5121 212.004 90.3977 213.806L90.3232 214.057C89.1354 216.21 86.9207 217.514 86.0204 220.018Q84.9761 222.39 83.8431 224.721C84.213 224.809 84.6269 224.926 85.0079 224.938C85.7221 224.96 86.1807 224.59 86.6978 224.163C87.2755 223.976 87.8287 223.785 88.434 223.708C93.2233 227.161 95.1076 231.695 99.0064 235.812C101.223 238.153 103.993 239.845 106.784 241.409C108.016 241.981 109.356 242.818 110.665 243.14C114.17 244.444 117.949 244.204 121.494 245.137L120.818 246.995C120.769 247.602 120.804 248.575 120.508 249.093L120.489 250L76.3769 250L74.7386 250C76.1871 248.542 80.9657 244.489 81.4493 242.839L80.5352 242.311C80.2548 241.549 80.012 241.261 79.3206 240.836C78.2185 238.973 76.7362 236.874 76.2573 234.743C75.3504 230.707 80.1003 219.129 82.3196 215.587C82.6292 215.031 83.0041 214.495 83.3468 213.958C84.7474 211.631 87.1556 208.816 89.4958 207.416Z"/>
	<path fill="#0E500A" transform="matrix(2 0 0 2 -0.00012207 0)" d="M89.4958 207.416C89.8696 207.481 90.1172 207.477 90.4749 207.34C91.2174 207.057 92.0069 206.975 92.7475 206.681C93.8474 206.244 95.1018 205.418 96.2283 205.156C96.7135 205.043 97.3233 205.129 97.8172 205.179C94.4566 206.612 91.7713 208.049 89.0605 210.551C87.9391 211.68 86.8736 212.807 85.8808 214.052L85.5711 214.02C85.5344 212.776 88.4441 210.591 89.2293 209.514C89.4142 209.261 89.3796 209.265 89.3312 208.949C87.8805 209.312 86.3669 211.45 85.4893 212.612C84.8056 213.517 84.4748 213.8 83.3468 213.958C84.7474 211.631 87.1556 208.816 89.4958 207.416Z"/>
	<path fill="#C7FBBD" transform="matrix(2 0 0 2 -0.00012207 0)" d="M89.0605 210.551L89.1979 210.55C90.6315 210.533 91.2088 210.284 92.3474 209.415L92.4476 209.8L92.4222 209.618C91.4868 211.072 90.5121 212.004 90.3977 213.806L90.3232 214.057C89.1354 216.21 86.9207 217.514 86.0204 220.018Q84.9761 222.39 83.8431 224.721C83.1961 226 82.5776 227.31 81.8709 228.556Q81.7939 228.718 81.7106 228.877C81.3795 229.509 80.9036 230.414 80.2194 230.623C80.1488 230.49 80.0892 230.358 80.0519 230.21C79.1566 226.67 84.0168 217.246 85.8808 214.052C86.8736 212.807 87.9391 211.68 89.0605 210.551Z"/>
	<path fill="#4EAC1B" transform="matrix(2 0 0 2 -0.00012207 0)" d="M86.6978 224.163C87.2755 223.976 87.8287 223.785 88.434 223.708C93.2233 227.161 95.1076 231.695 99.0064 235.812C101.223 238.153 103.993 239.845 106.784 241.409C106.22 241.348 105.7 241.252 105.184 241.002C103.481 240.176 101.926 238.874 100.281 237.915C98.7318 237.011 97.0444 236.364 95.4861 235.463C95.0246 235.196 94.4936 234.933 94.108 234.562C92.3067 232.829 91.2787 230.195 89.0109 228.947C87.3951 228.059 86.8082 229.324 85.3813 229.522C84.8285 229.599 84.6281 229.419 84.2373 229.095C84.1117 228.611 84.0346 228.259 83.689 227.886C82.9544 227.823 82.466 228.187 81.8709 228.556C82.5776 227.31 83.1961 226 83.8431 224.721C84.213 224.809 84.6269 224.926 85.0079 224.938C85.7221 224.96 86.1807 224.59 86.6978 224.163Z"/>
	<defs>
		<linearGradient id="gradient_5" gradientUnits="userSpaceOnUse" x1="97.180618" y1="245.79672" x2="98.718689" y2="238.89771">
			<stop offset="0" stop-color="#002F02"/>
			<stop offset="1" stop-color="#0B4D0C"/>
		</linearGradient>
	</defs>
	<path fill="url(#gradient_5)" transform="matrix(2 0 0 2 -0.00012207 0)" d="M82.3196 215.587L82.764 216.131C82.5091 217.3 81.6812 218.119 81.1907 219.186C80.116 221.523 77.7544 227.184 77.4342 229.693C77.2455 231.172 77.8861 234.473 78.6682 235.733C80.372 238.478 87.041 240.133 90.038 240.745C95.2771 241.814 100.608 242.481 105.899 243.238C107.594 243.446 108.974 243.414 110.665 243.14C114.17 244.444 117.949 244.204 121.494 245.137L120.818 246.995C120.769 247.602 120.804 248.575 120.508 249.093L120.489 250L76.3769 250L74.7386 250C76.1871 248.542 80.9657 244.489 81.4493 242.839L80.5352 242.311C80.2548 241.549 80.012 241.261 79.3206 240.836C78.2185 238.973 76.7362 236.874 76.2573 234.743C75.3504 230.707 80.1003 219.129 82.3196 215.587Z"/>
	<path fill="#0E500A" transform="matrix(2 0 0 2 -0.00012207 0)" d="M105.899 243.238C107.594 243.446 108.974 243.414 110.665 243.14C114.17 244.444 117.949 244.204 121.494 245.137L120.818 246.995C119.105 245.615 113.39 245.557 111.012 245.004C109.246 244.593 107.564 243.946 105.899 243.238Z"/>
	<path fill="#62C02A" transform="matrix(2 0 0 2 -0.00012207 0)" d="M81.4493 242.839C82.4873 242.725 83.4577 242.935 84.4059 243.372C87.3679 244.342 90.5405 244.852 93.5981 245.444C99.6552 246.617 105.667 247.626 111.797 248.339C114.256 248.625 118.405 248.476 120.508 249.093L120.489 250L76.3769 250L74.7386 250C76.1871 248.542 80.9657 244.489 81.4493 242.839Z"/>
	<path fill="#348E18" transform="matrix(2 0 0 2 -0.00012207 0)" d="M81.4493 242.839C82.4873 242.725 83.4577 242.935 84.4059 243.372C81.9835 245.821 78.6928 247.52 76.3769 250L74.7386 250C76.1871 248.542 80.9657 244.489 81.4493 242.839Z"/>
	<defs>
		<linearGradient id="gradient_6" gradientUnits="userSpaceOnUse" x1="159.39874" y1="206.22441" x2="196.86464" y2="220.90544">
			<stop offset="0" stop-color="#036F12"/>
			<stop offset="1" stop-color="#38A119"/>
		</linearGradient>
	</defs>
	<path fill="url(#gradient_6)" transform="matrix(2 0 0 2 -0.00012207 0)" d="M167.145 198.331C172.682 198.872 180.125 200.669 185.048 203.368C187.252 204.191 189.277 205.567 191.24 206.843L191.313 207.078C191.871 208.823 193.381 209.558 194.338 211.027C196.979 215.085 197.839 222.398 195.626 226.766C195.216 227.576 194.6 228.281 193.884 228.838C194.9 227.009 195.603 225.46 195.572 223.308C195.544 221.341 194.979 219.294 193.508 217.916C192.212 216.703 190.286 216.023 188.52 216.085C186.625 216.151 185.612 216.947 184.367 218.314C179.676 223.836 175.642 226.142 169.011 228.834C167.242 229.552 165.395 230.449 163.571 230.984C163.573 230.818 163.583 230.654 163.586 230.488C163.589 230.353 163.583 230.217 163.594 230.082C163.718 228.491 165.765 227.614 166.827 226.652C167.332 226.194 167.501 225.938 167.517 225.269C167.009 224.391 166.265 223.822 165.455 223.235C165.486 224.327 167.715 225.386 166.784 226.341C166.318 226.819 165.452 227.03 164.809 227.171C164.59 227.219 164.48 227.21 164.317 227.363C160.603 223.49 159.095 218.887 158.179 213.699C158.274 212.062 157.708 209.984 157.466 208.337Q157.578 207.061 157.647 205.781C158.142 205.776 158.552 205.834 159.031 205.961L159.184 206.003C159.966 205.132 159.806 203.391 160.522 202.212C160.64 201.801 160.755 201.339 160.95 200.958C161.642 199.606 165.703 198.864 167.145 198.331Z"/>
	<path fill="#156B16" transform="matrix(2 0 0 2 -0.00012207 0)" d="M167.145 198.331C172.682 198.872 180.125 200.669 185.048 203.368C182.499 203.368 178.589 201.424 175.958 200.708C172.699 202.421 168.512 203.698 164.854 202.527C163.8 202.19 162.9 201.866 162.373 200.839C162.354 200.801 162.335 200.762 162.316 200.723C160.724 201.895 161.524 203.673 160.388 204.762L160.522 202.212C160.64 201.801 160.755 201.339 160.95 200.958C161.642 199.606 165.703 198.864 167.145 198.331Z"/>
	<path fill="#060203" transform="matrix(2 0 0 2 -0.00012207 0)" d="M157.466 208.337Q157.578 207.061 157.647 205.781C158.142 205.776 158.552 205.834 159.031 205.961L159.184 206.003C159.966 205.132 159.806 203.391 160.522 202.212L160.388 204.762C159.903 209.62 159.851 216.348 163.076 220.385C163.402 220.792 163.779 221.156 164.16 221.51L164.467 221.704L165.455 223.235C165.486 224.327 167.715 225.386 166.784 226.341C166.318 226.819 165.452 227.03 164.809 227.171C164.59 227.219 164.48 227.21 164.317 227.363C160.603 223.49 159.095 218.887 158.179 213.699C158.274 212.062 157.708 209.984 157.466 208.337Z"/>
	<path fill="#0E500A" transform="matrix(2 0 0 2 -0.00012207 0)" d="M184.503 213.62C184.481 212.825 184.327 212.262 184.757 211.581C185.274 211.743 185.295 211.775 185.54 212.262C186.029 213.235 185.924 215.069 185.547 216.063C185.243 216.866 184.717 217.542 184.367 218.314C179.676 223.836 175.642 226.142 169.011 228.834C167.242 229.552 165.395 230.449 163.571 230.984C163.573 230.818 163.583 230.654 163.586 230.488C163.589 230.353 163.583 230.217 163.594 230.082C163.718 228.491 165.765 227.614 166.827 226.652C167.332 226.194 167.501 225.938 167.517 225.269C167.009 224.391 166.265 223.822 165.455 223.235L164.467 221.704L164.16 221.51C165.835 221.322 167.641 221.515 169.253 221.279C170.228 221.136 171.126 220.446 172.111 220.393C174.034 220.29 176.001 220.931 177.952 220.813C183.546 220.475 182.874 215.351 184.41 213.711C184.439 213.679 184.472 213.65 184.503 213.62Z"/>
	<path fill="#156B16" transform="matrix(2 0 0 2 -0.00012207 0)" d="M164.16 221.51C165.835 221.322 167.641 221.515 169.253 221.279C170.228 221.136 171.126 220.446 172.111 220.393C174.034 220.29 176.001 220.931 177.952 220.813C183.546 220.475 182.874 215.351 184.41 213.711C184.439 213.679 184.472 213.65 184.503 213.62C184.463 216.009 183.484 218.071 181.752 219.712C181.052 220.375 180.28 220.979 179.518 221.57C176.82 221.824 174.076 222.144 171.365 222.078C169.075 222.022 166.75 221.636 164.467 221.704L164.16 221.51Z"/>
	<defs>
		<linearGradient id="gradient_7" gradientUnits="userSpaceOnUse" x1="136.8791" y1="131.29037" x2="138.48621" y2="3.9430366">
			<stop offset="0" stop-color="#00060D"/>
			<stop offset="1" stop-color="#36221E"/>
		</linearGradient>
	</defs>
	<path fill="url(#gradient_7)" transform="matrix(2 0 0 2 -0.00012207 0)" d="M134.575 7.55844C135.725 5.70347 136.913 4.35753 139.136 3.86382C143.072 2.98957 147.63 4.26288 150.934 6.43171Q152.395 7.38201 153.647 8.59428Q154.899 9.80655 155.896 11.236C157.705 13.8001 160.246 21.2141 163.775 21.1343C164.389 20.7542 164.644 20.5032 164.838 19.7808C165.597 16.9519 165.179 13.7124 168.054 11.9016C169.795 10.8044 172.314 10.9171 174.233 11.3954C177.325 12.1664 179.744 13.6312 181.384 16.4479C182.203 17.8559 182.758 19.3859 183.113 20.9728C183.51 22.7461 183.518 28.2207 184.801 29.2709C186.822 29.2858 189.162 27.5983 191.071 26.9603C194.773 25.7237 200.1 26.958 202.793 29.7468C204.294 31.301 204.981 33.4013 204.897 35.5417C204.736 39.6361 200.523 43.1385 200.881 45.013C201.991 45.2897 203.27 44.2381 204.439 44.4377C206.404 44.7733 207.41 46.6347 209.09 47.2509C209.729 47.4851 210.143 46.9594 210.737 46.8981C213.774 46.5847 217.902 49.5978 219.405 52.0606C219.879 52.8367 220.162 53.7297 220.396 54.6042C219.131 58.3449 216.785 60.3125 213.331 62.0259Q211.165 63.1028 208.927 64.0231C211.887 66.3932 214.454 68.3929 214.902 72.4744C215.107 74.3359 214.767 76.2935 213.536 77.7603C212.09 79.4837 210.064 80.0582 208.019 80.7441C208.069 92.2991 207.862 103.563 206.812 115.075C206.651 116.847 205.479 123.516 206.461 124.519C207.005 125.075 207.758 125.424 208.443 125.77C207.184 125.673 206.099 125.479 204.883 125.134C201.146 127.658 199.076 129.793 198.189 134.348Q198.148 134.559 198.112 134.771L197.955 134.711L197.5 132.441C197.556 130.582 197.053 128.439 196.781 126.594C195.852 120.309 194.552 114.136 193.382 107.899C192.223 101.716 191.551 95.49 190.001 89.3778C189.444 87.1819 188.728 83.7781 187.199 82.024C184.975 79.4742 179.442 76.7673 176.206 75.6619C169.592 73.4024 155.481 70.9571 148.493 70.4332C139.795 69.7811 131.163 70.0428 122.463 70.4203C119.148 70.5641 115.75 70.5368 112.456 70.8843C108.394 71.3128 104.782 73.9152 100.815 74.2707C99.7739 74.364 98.6589 74.1432 97.6152 74.0831C93.7151 73.8587 88.3152 78.1487 85.5266 80.592C84.3174 81.6515 83.3512 82.7139 82.7271 84.2186C81.5189 87.132 81.116 90.4945 80.5452 93.5877C78.9241 102.372 77.8728 111.032 76.9104 119.906C76.5574 123.16 75.9739 126.412 75.7472 129.674C75.4426 130.794 75.3334 131.985 75.1936 133.135C73.5541 130.851 72.3505 127.797 70.2969 125.891C69.5835 115.019 69.5073 104.1 69.104 93.2106C68.9349 88.6428 69.2133 83.7178 68.2739 79.2354C67.3959 79.8262 66.343 80.7365 65.2828 80.8924L64.8928 80.7598C64.6381 80.1822 64.5958 79.9772 64.8452 79.3559C65.8056 76.9626 69.6509 75.3634 69.788 72.6492C69.4556 72.2219 69.347 72.0994 68.7634 72.0429C66.2914 71.8033 64.2207 72.795 62.2559 70.5219Q62.1086 70.3487 61.9796 70.1614Q61.8507 69.9742 61.7415 69.7747Q61.6323 69.5753 61.544 69.3658Q61.4557 69.1562 61.3891 68.9388Q61.3226 68.7214 61.2785 68.4984Q61.2344 68.2753 61.2133 68.0489Q61.1921 67.8225 61.1941 67.5951Q61.1962 67.3678 61.2213 67.1418C61.3633 65.7882 62.0822 64.6151 63.1481 63.7875C64.4763 62.7563 66.3877 62.6987 67.5723 61.5668C67.5945 61.3806 67.6878 61.1 67.5672 60.9528C65.0504 57.8811 55.2606 61.3191 55.9631 50.6155C56.0478 49.3252 56.5684 48.2045 57.5718 47.3748C62.0632 43.6606 75.8453 45.7104 76.8585 40.5593C74.738 37.2514 66.4801 38.08 68.1129 30.7277C68.5043 28.9654 69.792 27.6525 71.2908 26.733C74.8582 24.5444 80.1612 23.7798 84.2194 24.7759C86.6651 25.3762 88.4753 26.9052 90.5597 28.2186C91.051 25.8039 91.6849 23.1309 93.8796 21.6711C95.3053 20.7228 96.9609 20.9176 98.551 21.2606C100.837 21.7537 104.836 24.2028 106.736 23.6693C107.064 23.3454 107.216 23.2739 107.209 22.78C107.163 19.4025 98.9103 16.1357 102.713 11.6232C104.3 9.74009 107.265 8.91217 109.627 8.74385C114.776 8.37686 119.561 9.54937 123.67 12.6996C125.175 13.8536 126.584 15.2509 128.276 16.13C131.151 17.6235 133.586 17.4549 136.455 19.5226C135.678 15.5611 134.424 11.6173 134.575 7.55844Z"/>
	<path fill="#432D2A" transform="matrix(2 0 0 2 -0.00012207 0)" d="M118.089 27.4248C120.209 27.5623 121.457 29.3222 123.417 29.7595C124.736 30.0537 126.373 29.5331 127.56 30.335C128.006 30.6368 127.997 30.8468 128.119 31.3413L127.889 31.615C127.541 31.3357 127.337 31.0447 127.091 30.6722L126.994 30.5231C125.956 30.1707 124.817 30.2517 123.733 30.25C120.329 29.0851 118.859 31.1345 115.785 31.4053C115.328 31.4456 115.338 31.3756 115.003 31.0941C114.984 30.8488 114.972 30.5946 115.02 30.3515C115.284 29.0249 117.037 28.0931 118.089 27.4248Z"/>
	<path fill="#432D2A" transform="matrix(2 0 0 2 -0.00012207 0)" d="M99.4559 31.2698C100.794 31.2482 102.248 31.4115 103.57 31.6115C104.685 31.7802 105.969 32.1644 106.64 33.1443C106.959 33.61 107.065 34.1781 106.98 34.7285C106.457 35.1174 105.953 35.6004 105.26 35.5327C104.074 35.7252 103.021 35.9065 101.882 35.43C101.513 34.9714 101.232 34.5001 100.637 34.3433C100.476 34.4609 100.428 35.629 100.363 35.9246C100.183 34.3232 99.8698 32.8264 99.4559 31.2698Z"/>
	<path fill="#432D2A" transform="matrix(2 0 0 2 -0.00012207 0)" d="M151.232 32.3653L151.697 32.5402C150.965 33.6028 149.931 37.5832 149.882 38.861C149.878 38.9903 149.874 39.5778 149.94 39.6478C150.487 40.2304 152.983 40.7841 154.32 42.2863C154.871 42.9047 155.235 43.6448 155.158 44.4949C155 46.2391 153.795 46.9921 152.546 48.0085C151.345 45.9046 149.994 41.2322 147.627 40.2359C146.235 39.65 145.018 43.3119 143.565 43.9281C142.38 44.4301 140.783 43.966 139.66 43.4914C137.123 42.198 130.465 41.7996 128.897 39.9098L129.141 39.7748Q129.473 39.9444 129.812 40.1014C132.425 41.3124 135.122 41.6663 137.854 42.4611C139.133 42.8333 140.349 43.5379 141.673 43.7378C142.256 43.826 142.868 43.8004 143.417 43.5673C144.769 42.9934 145.346 41.3552 145.824 40.0848C146.846 39.9632 147.658 40.0338 148.665 40.2421C149.86 39.3897 150.561 34.0049 151.232 32.3653Z"/>
	<defs>
		<linearGradient id="gradient_8" gradientUnits="userSpaceOnUse" x1="157.48891" y1="200.20566" x2="118.33047" y2="67.750504">
			<stop offset="0" stop-color="#C15632"/>
			<stop offset="1" stop-color="#C87144"/>
		</linearGradient>
	</defs>
	<path fill="url(#gradient_8)" transform="matrix(2 0 0 2 -0.00012207 0)" d="M75.7472 129.674C75.9739 126.412 76.5574 123.16 76.9104 119.906C77.8728 111.032 78.9241 102.372 80.5452 93.5877C81.116 90.4945 81.5189 87.132 82.7271 84.2186C83.3512 82.7139 84.3174 81.6515 85.5266 80.592C88.3152 78.1487 93.7151 73.8587 97.6152 74.0831C98.6589 74.1432 99.7739 74.364 100.815 74.2707C104.782 73.9152 108.394 71.3128 112.456 70.8843C115.75 70.5368 119.148 70.5641 122.463 70.4203C131.163 70.0428 139.795 69.7811 148.493 70.4332C155.481 70.9571 169.592 73.4024 176.206 75.6619C179.442 76.7673 184.975 79.4742 187.199 82.024C188.728 83.7781 189.444 87.1819 190.001 89.3778C191.551 95.49 192.223 101.716 193.382 107.899C194.552 114.136 195.852 120.309 196.781 126.594C197.053 128.439 197.556 130.582 197.5 132.441C197.298 140.084 193.712 147.365 193.541 155.662C193.528 156.267 193.328 156.926 193.558 157.498L194.326 158.348L194.134 159.023C194.199 160.173 195.171 161.234 195.999 161.98C196.908 162.797 197.912 163.285 199.135 163.237C199.365 163.228 199.593 163.221 199.822 163.203C201.435 163.085 203.228 162.188 204.696 161.558L205.705 161.723C205.848 162.413 205.298 163.222 204.96 163.802C204.712 164.228 204.565 164.619 204.261 165.023L204.037 165.101C202.123 165.756 194.283 165.424 193.687 166.608C192.192 169.578 191.684 172.988 190.177 175.99C186.656 183.007 181.779 188.299 175.298 192.634C172.568 194.46 169.658 196.208 167.145 198.331C165.703 198.864 161.642 199.606 160.95 200.958C160.755 201.339 160.64 201.801 160.522 202.212C159.806 203.391 159.966 205.132 159.184 206.003L159.031 205.961C158.552 205.834 158.142 205.776 157.647 205.781Q157.578 207.061 157.466 208.337C157.708 209.984 158.274 212.062 158.179 213.699L157.829 213.596C156.829 214.474 155.812 215.498 154.708 216.237C149.368 219.816 138.484 224.218 132.043 223.787C128.554 223.553 123.903 221.686 120.561 222.636C119.883 223.813 119.552 224.661 118.135 225.058C118.636 223.981 119.408 223.064 119.862 221.942C121.89 216.928 120.783 211.501 120.359 206.299Q119.786 205.725 119.2 205.164L118.63 205.207C118.477 204.593 118.261 203.798 117.829 203.316C116.572 201.911 113.795 201.701 112.018 201.567C110.816 201.14 110.014 200.24 108.986 199.519L108.245 199.285C106.863 198.444 105.524 197.507 104.173 196.618L104.343 195.248C102.627 193.586 97.9434 191.067 95.6727 189.597C94.2987 188.522 93.0251 187.276 91.7321 186.104C90.3591 184.752 89.1672 183.188 87.9427 181.702Q87.5468 180.974 87.1656 180.239C84.6444 176.764 82.9603 172.708 81.3764 168.741C81.2392 167.239 80.3581 165.694 80.0432 164.193C79.2397 160.362 78.8962 156.329 78.651 152.426C78.2679 149.93 78.0338 147.314 76.9471 145.001C77.2654 144.634 77.5124 144.308 77.5681 143.812C77.8693 141.126 76.5355 137.42 76.0896 134.714C75.813 133.035 75.7618 131.372 75.7472 129.674Z"/>
	<path fill="#BB4923" transform="matrix(2 0 0 2 -0.00012207 0)" d="M139.084 141.303C139.92 141.447 140.217 141.369 140.727 142.107C141.236 142.842 141.527 144.142 141.376 145.015C141.337 145.24 141.244 145.447 141.134 145.644C140.446 145.312 140.054 144.845 139.648 144.215C139.018 143.238 138.829 142.437 139.084 141.303Z"/>
	<path fill="#C75733" transform="matrix(2 0 0 2 -0.00012207 0)" d="M132.052 160.875C134.892 160.511 137.515 159.811 140.281 159.095C139.722 159.899 138.999 161.199 137.97 161.4C136.494 161.689 134.209 160.959 132.54 161.011C132.346 161.017 132.219 160.966 132.052 160.875Z"/>
	<path fill="#BB4923" transform="matrix(2 0 0 2 -0.00012207 0)" d="M132.315 139.511C133.323 139.647 133.86 139.831 134.498 140.645C135.04 141.335 135.321 142.392 135.218 143.264C135.156 143.78 134.888 144.243 134.634 144.687L134.241 144.541C133.497 142.973 132.655 141.216 132.315 139.511Z"/>
	<path fill="#C75733" transform="matrix(2 0 0 2 -0.00012207 0)" d="M142.777 142.435L143.123 142.047C142.7 140.659 140.247 140.393 140.368 139.002C140.818 138.583 141.116 138.42 141.721 138.304C142.826 138.674 143.164 139.275 143.671 140.313C144.058 141.107 144.122 141.511 143.822 142.354C143.762 142.524 143.695 142.689 143.628 142.856L142.777 142.435Z"/>
	<path fill="#060203" transform="matrix(2 0 0 2 -0.00012207 0)" d="M104.343 195.248C106.396 196.544 108.416 197.719 110.592 198.803L108.986 199.519L108.245 199.285C106.863 198.444 105.524 197.507 104.173 196.618L104.343 195.248Z"/>
	<path fill="#BB4923" transform="matrix(2 0 0 2 -0.00012207 0)" d="M142.777 142.435L143.628 142.856C144.311 143.946 144.482 144.649 144.201 145.922C144 146.831 143.382 147.553 142.606 148.044C141.598 148.68 139.885 148.825 138.748 148.534C138.374 148.439 138.255 148.25 138.064 147.939C140.344 144.988 140.552 147.272 142.794 145.866C143.258 145.148 142.433 143.52 142.777 142.435Z"/>
	<path fill="#C75733" transform="matrix(2 0 0 2 -0.00012207 0)" d="M171.528 151.852L171.91 150.923C172.483 150.632 172.704 150.82 173.281 151C175.318 153.573 176.255 151.738 177.525 153.524C177.98 154.268 179.209 154.615 180 154.928L180.662 155.338L180.463 155.905C180.234 156.029 179.987 156.14 179.726 156.173C178.21 156.365 177.292 155.672 176.161 154.79C175.857 154.56 175.548 154.316 175.193 154.17C174.334 153.819 173.154 153.393 172.568 152.652C172.253 152.253 171.971 152.094 171.528 151.852Z"/>
	<path fill="#BB4923" transform="matrix(2 0 0 2 -0.00012207 0)" d="M173.281 151C174.358 150.562 176.216 149.842 177.336 150.293C178.706 150.844 179.674 152.396 180.517 153.55C180.55 154.249 180.387 154.375 180 154.928C179.209 154.615 177.98 154.268 177.525 153.524C176.255 151.738 175.318 153.573 173.281 151Z"/>
	<path fill="#C75733" transform="matrix(2 0 0 2 -0.00012207 0)" d="M174.705 157.873C173.044 157.029 170.524 157.14 169.489 155.302C169.225 154.834 169.216 154.413 169.405 153.925C169.826 152.837 170.49 152.308 171.528 151.852C170.701 154.672 175.295 154.671 175.823 156.755C175.551 157.417 175.292 157.501 174.705 157.873Z"/>
	<path fill="#350706" transform="matrix(2 0 0 2 -0.00012207 0)" d="M181.293 138.688L181.418 139.496C182.173 139.765 182.835 139.979 183.437 140.529C181.575 142.766 178.028 145.608 175.037 145.849C174.592 145.885 174.267 145.888 173.942 145.531C173.839 145.418 173.774 145.242 173.713 145.107C177.238 143.873 179.215 141.628 181.293 138.688Z"/>
	<path fill="#FBCCA8" transform="matrix(2 0 0 2 -0.00012207 0)" d="M163.181 143.107C164.959 143.19 166.479 143.398 168.226 142.918C169.368 142.604 170.335 142.205 171.541 142.091L171.359 142.318C171.163 143.173 171.019 143.389 171.373 144.215C171.991 144.688 172.565 144.93 173.32 145.106C172.545 145.277 171.77 145.463 170.991 145.612C169.491 145.633 167.879 145.903 166.396 145.718C165.085 144.288 165.226 145.62 163.962 145.64C163.568 145.647 162.846 145.335 162.44 145.223C163.181 145.218 163.818 145.221 164.518 144.948C164.414 144.242 163.667 143.641 163.181 143.107Z"/>
	<path fill="#FFE3D0" transform="matrix(2 0 0 2 -0.00012207 0)" d="M171.359 142.318C171.163 143.173 171.019 143.389 171.373 144.215C171.991 144.688 172.565 144.93 173.32 145.106C172.545 145.277 171.77 145.463 170.991 145.612C170.554 145.564 169.914 145.553 169.535 145.327C169.162 145.104 169.21 144.865 169.157 144.485C169.652 143.593 170.583 142.958 171.359 142.318Z"/>
	<path fill="#350706" transform="matrix(2 0 0 2 -0.00012207 0)" d="M110.592 198.803Q114.741 200.191 118.875 201.622C119.541 203.213 120.18 204.554 120.359 206.299Q119.786 205.725 119.2 205.164L118.63 205.207C118.477 204.593 118.261 203.798 117.829 203.316C116.572 201.911 113.795 201.701 112.018 201.567C110.816 201.14 110.014 200.24 108.986 199.519L110.592 198.803Z"/>
	<path fill="#530A06" transform="matrix(2 0 0 2 -0.00012207 0)" d="M140.423 169.92C144.638 169.525 149.485 169.204 153.38 167.461C155.177 166.656 156.846 165.191 158.739 164.683C159.422 164.5 159.911 164.643 160.452 165.116C160.711 165.342 160.889 165.68 161.05 165.977C161.036 166.579 161.054 166.694 160.602 167.13C158.932 168.742 156.26 169.47 154.366 170.964L153.817 170.34C153.737 169.414 154.392 168.775 154.74 167.957L154.506 167.816C149.51 169.883 144.515 170.466 139.184 170.822C139.552 170.436 139.971 170.194 140.423 169.92Z"/>
	<path fill="#BB4923" transform="matrix(2 0 0 2 -0.00012207 0)" d="M162.206 154.539C161.849 153.492 161.371 152.35 161.821 151.269C161.841 151.221 161.864 151.174 161.886 151.126L161.701 150.858C161.201 151.745 161.438 153.218 161.356 154.237C161.26 155.434 161.13 157.102 160.178 157.898L159.657 157.664C158.136 155.371 160.341 154.832 160.149 152.69C159.557 152.335 159.272 152.399 158.606 152.353C157.572 152.283 157.264 151.462 156.637 150.742C157.66 151.255 158.587 151.824 159.76 151.843C159.83 151.844 159.901 151.843 159.971 151.844C160.594 152.27 160.504 152.584 160.642 153.307C160.81 152.212 160.862 151.092 160.948 149.987C160.719 150.407 160.396 150.734 160.024 151.031C159.631 151.344 159.474 151.231 158.988 151.179C158.356 150.594 157.952 150.272 157.074 150.181C157.005 150.174 156.935 150.169 156.866 150.162L156.943 150C158.045 149.835 158.721 150.295 159.675 150.759C160.704 150.321 160.623 149.161 161.185 148.285C161.848 147.252 162.843 146.554 164.031 146.279C164.648 146.414 164.652 146.38 164.991 146.908C165.15 147.977 164.378 149.378 163.856 150.294C163.83 150.339 163.804 150.383 163.778 150.427C164.203 151.259 164.532 151.99 164.229 152.947C164.033 153.567 163.51 154.07 162.928 154.335C162.692 154.443 162.466 154.517 162.206 154.539Z"/>
	<path fill="#F69D79" transform="matrix(2 0 0 2 -0.00012207 0)" d="M78.651 152.426L78.9722 151.784L79.3574 151.805C80.3778 153.289 81.7775 164.441 82.717 167.512C83.4869 170.029 84.5624 172.45 85.7114 174.814C86.0744 175.561 88.0129 178.615 87.9146 179.204C87.847 179.61 87.4802 179.991 87.1656 180.239C84.6444 176.764 82.9603 172.708 81.3764 168.741C81.2392 167.239 80.3581 165.694 80.0432 164.193C79.2397 160.362 78.8962 156.329 78.651 152.426Z"/>
	<path fill="#7C1509" transform="matrix(2 0 0 2 -0.00012207 0)" d="M123.253 152.972C124.901 154.075 125.368 155.351 126.656 156.679C128.518 158.597 132.342 159.496 134.874 158.98C138.565 158.227 140.096 155.612 142.937 153.679C143.232 153.478 143.983 153.526 144.33 153.546C144.442 154.505 144.517 155.171 144.001 156.014C143.979 156.05 143.958 156.087 143.935 156.123C143.185 157.337 141.418 158.223 140.281 159.095C137.515 159.811 134.892 160.511 132.052 160.875C130.915 160.706 129.673 160.589 128.584 160.216C126.579 159.531 124.44 158.121 123.505 156.174C122.937 154.991 122.822 154.214 123.253 152.972Z"/>
	<path fill="#7C1509" transform="matrix(2 0 0 2 -0.00012207 0)" d="M117.744 173.377C115.994 172.621 107.831 169.293 107.18 168.006C108.265 167.042 110.416 167.78 111.691 168.097C121.772 170.61 130.162 170.569 140.423 169.92C139.971 170.194 139.552 170.436 139.184 170.822C134.466 172.313 119.702 170.528 117.336 171.489C117.271 171.515 117.07 171.805 117.01 171.876L117.227 171.982L116.861 171.65C117.263 172.191 117.736 172.675 117.744 173.377Z"/>
	<path fill="#C75733" transform="matrix(2 0 0 2 -0.00012207 0)" d="M137.006 141.71C136.138 140.83 135.1 139.821 134.493 138.744C134.697 138.154 134.765 138.093 135.261 137.708C136.817 137.766 137.85 140.123 138.931 141.159L139.084 141.303C138.829 142.437 139.018 143.238 139.648 144.215C140.054 144.845 140.446 145.312 141.134 145.644L141.5 146.111C141.946 146.063 142.361 145.981 142.794 145.866C140.552 147.272 140.344 144.988 138.064 147.939C137.374 147.65 136.921 147.474 136.157 147.557C135.551 148.453 134.077 148.738 133.057 148.938C132.238 149.098 131.481 149.2 130.646 149.068C128.638 148.978 125.414 151.093 123.743 150.431C123.278 149.623 123.547 148.662 123.683 147.788C123.678 147.748 123.661 147.709 123.667 147.67C123.745 147.166 123.744 146.636 123.834 146.143C124.232 143.966 128.747 139.96 130.601 138.662C131.303 138.692 131.739 139.128 132.315 139.511C132.655 141.216 133.497 142.973 134.241 144.541L134.634 144.687C135.025 145.064 135.261 145.253 135.807 145.329C135.985 144.027 136.659 142.959 137.006 141.71Z"/>
	<path fill="#9D2F1C" transform="matrix(2 0 0 2 -0.00012207 0)" d="M131.071 143.733C131.376 143.619 131.658 143.384 131.928 143.202C132.164 143.984 132.548 144.975 132.148 145.755C131.983 146.078 131.714 146.122 131.372 146.212C131.342 146.22 131.311 146.222 131.281 146.226C131.018 145.555 131.102 144.469 131.071 143.733Z"/>
	<path fill="#BB4923" transform="matrix(2 0 0 2 -0.00012207 0)" d="M128.394 145.794C128.436 145.732 128.473 145.667 128.52 145.609C129.088 144.911 130.149 143.789 131.071 143.733C131.102 144.469 131.018 145.555 131.281 146.226C130.865 146.352 130.393 146.533 129.964 146.582C129.221 146.666 128.923 146.232 128.394 145.794Z"/>
	<path fill="#BB4923" transform="matrix(2 0 0 2 -0.00012207 0)" d="M130.646 149.068C131.309 148.265 132.483 147.753 133.445 147.404C134.573 146.994 135.077 147.048 136.157 147.557C135.551 148.453 134.077 148.738 133.057 148.938C132.238 149.098 131.481 149.2 130.646 149.068Z"/>
	<path fill="#BB4923" transform="matrix(2 0 0 2 -0.00012207 0)" d="M137.006 141.71C137.646 141.962 137.784 142.071 138.065 142.699C138.351 143.34 138.219 144.063 137.959 144.688C137.678 145.362 137.342 145.721 136.661 145.995L136.091 145.909C136.002 145.739 135.841 145.513 135.807 145.329C135.985 144.027 136.659 142.959 137.006 141.71Z"/>
	<path fill="#BB4923" transform="matrix(2 0 0 2 -0.00012207 0)" d="M123.683 147.788C125.959 146.177 128.039 142.994 130.749 142.185C131.39 142.425 131.522 142.675 131.928 143.202C131.658 143.384 131.376 143.619 131.071 143.733C130.149 143.789 129.088 144.911 128.52 145.609C128.473 145.667 128.436 145.732 128.394 145.794C126.6 147.229 125.076 148.531 123.743 150.431C123.278 149.623 123.547 148.662 123.683 147.788Z"/>
	<path fill="#9D2F1C" transform="matrix(2 0 0 2 -0.00012207 0)" d="M123.253 152.972C125.187 152.283 127.092 151.152 129.077 150.664C131.998 149.945 139.63 149.953 142.479 151.329C143.174 151.665 143.93 152.203 144.198 152.957C144.267 153.149 144.303 153.345 144.33 153.546C143.983 153.526 143.232 153.478 142.937 153.679C140.096 155.612 138.565 158.227 134.874 158.98C132.342 159.496 128.518 158.597 126.656 156.679C125.368 155.351 124.901 154.075 123.253 152.972Z"/>
	<defs>
		<linearGradient id="gradient_9" gradientUnits="userSpaceOnUse" x1="174.92729" y1="178.78053" x2="185.83778" y2="187.61266">
			<stop offset="0" stop-color="#410000"/>
			<stop offset="1" stop-color="#8B3316"/>
		</linearGradient>
	</defs>
	<path fill="url(#gradient_9)" transform="matrix(2 0 0 2 -0.00012207 0)" d="M193.558 157.498L194.326 158.348L194.134 159.023C194.199 160.173 195.171 161.234 195.999 161.98C196.908 162.797 197.912 163.285 199.135 163.237C199.365 163.228 199.593 163.221 199.822 163.203C201.435 163.085 203.228 162.188 204.696 161.558L205.705 161.723C205.848 162.413 205.298 163.222 204.96 163.802C204.712 164.228 204.565 164.619 204.261 165.023L204.037 165.101C202.123 165.756 194.283 165.424 193.687 166.608C192.192 169.578 191.684 172.988 190.177 175.99C186.656 183.007 181.779 188.299 175.298 192.634C172.568 194.46 169.658 196.208 167.145 198.331C165.703 198.864 161.642 199.606 160.95 200.958C160.755 201.339 160.64 201.801 160.522 202.212C159.806 203.391 159.966 205.132 159.184 206.003L159.031 205.961C158.552 205.834 158.142 205.776 157.647 205.781Q157.578 207.061 157.466 208.337C156.811 205.583 157.321 202.289 157.855 199.559Q160.329 198.7 162.67 197.527Q165.011 196.353 167.179 194.884C171.474 191.946 176.12 188.901 179.895 185.322C187.429 178.178 191.686 167.534 193.558 157.498Z"/>
	<path fill="#9D2F1C" transform="matrix(2 0 0 2 -0.00012207 0)" d="M193.725 164.115C193.937 162.426 193.783 160.691 194.134 159.023C194.199 160.173 195.171 161.234 195.999 161.98C196.908 162.797 197.912 163.285 199.135 163.237C199.365 163.228 199.593 163.221 199.822 163.203C198.038 164.121 195.681 164.036 193.725 164.115Z"/>
	<path fill="#060203" transform="matrix(2 0 0 2 -0.00012207 0)" d="M101.909 145.559C103.071 145.872 104.304 145.828 105.501 145.852L105.426 146.014L105.256 145.47L105.157 146.031C105.021 146.14 105.011 146.163 104.82 146.232C101.92 147.276 91.9466 144.808 89.2812 143.279C86.5712 141.725 85.2748 138.261 84.4764 135.39C83.2433 130.955 82.9319 126.867 85.2679 122.74C87.9417 118.016 92.7234 113.869 98.0226 112.437C102.457 111.239 108.173 112.554 112.081 114.842C116.557 117.463 118.597 122.059 119.876 126.867C118.121 124.307 116.944 121.719 114.505 119.671C112.481 117.971 109.473 116.558 106.761 116.789C101.621 116.521 97.5306 116.945 93.5669 120.525C90.5498 123.25 88.1954 127.243 87.9845 131.366C87.8099 134.779 88.9943 138.356 91.3231 140.873C94.066 143.838 98.0375 144.99 101.909 145.559Z"/>
	<defs>
		<linearGradient id="gradient_10" gradientUnits="userSpaceOnUse" x1="135.21796" y1="169.47145" x2="135.67827" y2="180.65727">
			<stop offset="0" stop-color="#BB291E"/>
			<stop offset="1" stop-color="#D5432D"/>
		</linearGradient>
	</defs>
	<path fill="url(#gradient_10)" transform="matrix(2 0 0 2 -0.00012207 0)" d="M139.184 170.822C144.515 170.466 149.51 169.883 154.506 167.816L154.74 167.957C154.392 168.775 153.737 169.414 153.817 170.34L154.366 170.964C150.922 175.48 145.049 180.208 139.26 181.026C133.507 181.84 127.197 178.189 122.237 175.695C120.874 175.009 119.171 174.366 117.917 173.519C117.855 173.477 117.802 173.424 117.744 173.377C117.736 172.675 117.263 172.191 116.861 171.65L117.227 171.982L117.01 171.876C117.07 171.805 117.271 171.515 117.336 171.489C119.702 170.528 134.466 172.313 139.184 170.822Z"/>
	<path fill="#060203" transform="matrix(2 0 0 2 -0.00012207 0)" d="M103.887 93.1017C107.672 92.7428 112.981 93.0979 116.347 95.0855C117.729 95.9017 118.953 97.3225 119.324 98.9081C119.535 99.8142 119.444 100.755 118.921 101.541C118.369 102.371 117.461 102.891 116.503 103.098C114.239 103.587 111.541 103.272 109.232 103.222C104.46 103.118 99.7238 103.038 95.0205 103.983C90.822 105.026 87.1066 107.125 83.0115 108.429C83.308 105.713 84.3032 103.548 86.0511 101.475C90.463 96.2445 97.2236 93.6435 103.887 93.1017Z"/>
	<path fill="#060203" transform="matrix(2 0 0 2 -0.00012207 0)" d="M159.423 92.357C160.896 92.2201 162.464 92.2976 163.934 92.4461C171.159 93.176 179.153 96.4356 183.788 102.247C184.364 102.969 185.253 104.212 185.084 105.202C184.991 105.751 184.77 105.829 184.35 106.146C182.149 106.688 178.433 104.638 176.175 104.043C172.484 103.255 168.855 102.706 165.079 102.537C162.076 102.402 150.873 104.07 149.016 102.451C148.677 102.155 148.57 101.657 148.531 101.223C148.362 99.2832 148.786 97.3195 150.071 95.8162C152.328 93.1759 156.173 92.657 159.423 92.357Z"/>
	<path fill="#FDF6F2" transform="matrix(2 0 0 2 -0.00012207 0)" d="M101.909 145.559C98.0375 144.99 94.066 143.838 91.3231 140.873C88.9943 138.356 87.8099 134.779 87.9845 131.366C88.1954 127.243 90.5498 123.25 93.5669 120.525C97.5306 116.945 101.621 116.521 106.761 116.789C106.074 117.163 105.479 117.33 104.715 117.479C101.999 117.79 99.8576 119.118 98.1632 121.253C95.7389 124.306 94.3112 128.474 94.8166 132.383C94.9303 133.262 95.1702 134.11 95.4261 134.957C96.173 135.22 96.578 135.22 97.0057 135.904L99.691 137.349C105.827 137.024 107.759 138.177 113.626 134.863C114.562 132.456 118.063 128.359 118.434 126.679C118.664 128.64 118.579 130.455 118.605 132.412C119.024 132.844 119.187 132.961 119.197 133.602C119.238 136.13 117.17 139.833 115.47 141.507C111.794 145.125 106.789 145.546 101.909 145.559Z"/>
	<defs>
		<linearGradient id="gradient_11" gradientUnits="userSpaceOnUse" x1="118.75065" y1="129.27164" x2="100.79543" y2="142.46432">
			<stop offset="0" stop-color="#1E0505"/>
			<stop offset="1" stop-color="#4B201F"/>
		</linearGradient>
	</defs>
	<path fill="url(#gradient_11)" transform="matrix(2 0 0 2 -0.00012207 0)" d="M118.434 126.679C118.664 128.64 118.579 130.455 118.605 132.412C117.467 136.1 114.136 139.895 110.724 141.673C108.139 143.021 105.247 143.34 102.469 142.414Q101.945 142.242 101.44 142.018Q100.936 141.794 100.457 141.521Q99.9773 141.247 99.528 140.927Q99.0787 140.606 98.6639 140.242Q98.2492 139.878 97.8732 139.474Q97.4972 139.07 97.1639 138.631Q96.8305 138.191 96.5431 137.72Q96.2557 137.249 96.0172 136.751C95.7292 136.163 95.5316 135.603 95.4261 134.957C96.173 135.22 96.578 135.22 97.0057 135.904L99.691 137.349C105.827 137.024 107.759 138.177 113.626 134.863C114.562 132.456 118.063 128.359 118.434 126.679Z"/>
	<path fill="#65382A" transform="matrix(2 0 0 2 -0.00012207 0)" d="M97.0057 135.904L99.691 137.349C100.793 138.019 101.762 139.456 102.599 140.439C100.565 139.57 98.7675 138.631 97.3209 136.921C96.9367 136.467 96.9595 136.48 97.0057 135.904Z"/>
	<path fill="#060203" transform="matrix(2 0 0 2 -0.00012207 0)" d="M104.715 117.479C108.552 117.491 111.762 117.92 114.619 120.781C116.27 122.433 117.513 124.546 118.434 126.679C118.063 128.359 114.562 132.456 113.626 134.863C107.759 138.177 105.827 137.024 99.691 137.349L97.0057 135.904C96.578 135.22 96.173 135.22 95.4261 134.957C95.1702 134.11 94.9303 133.262 94.8166 132.383C94.3112 128.474 95.7389 124.306 98.1632 121.253C99.8576 119.118 101.999 117.79 104.715 117.479Z"/>
	<path fill="#FDF6F2" transform="matrix(2 0 0 2 -0.00012207 0)" d="M98.5662 123.24C99.366 123.271 99.9792 123.311 100.716 123.657C101.236 124.216 101.435 124.673 101.462 125.432C101.539 127.55 100.086 129.797 98.685 131.267C98.485 131.247 98.4572 131.257 98.2893 131.206C97.7567 131.044 97.4155 130.684 97.1546 130.209C96.3534 128.749 95.8896 126.492 96.4693 124.887C96.8185 123.921 97.699 123.608 98.5662 123.24Z"/>
	<path fill="#060203" transform="matrix(2 0 0 2 -0.00012207 0)" d="M151.289 134.582L150.718 134.513C149.431 131.503 150.168 125.496 151.382 122.441C153.038 118.275 156.782 114.188 160.939 112.425C165.197 110.619 171.479 110.672 175.738 112.447C180.373 114.38 183.867 118.627 185.737 123.195C187.517 127.545 187.715 131.99 185.884 136.359C185.246 137.882 184.402 139.196 183.437 140.529C182.835 139.979 182.173 139.765 181.418 139.496L181.293 138.688C179.215 141.628 177.238 143.873 173.713 145.107L173.32 145.106C172.565 144.93 171.991 144.688 171.373 144.215C171.019 143.389 171.163 143.173 171.359 142.318L171.541 142.091C171.589 142.07 171.638 142.049 171.686 142.026C175.503 140.235 177.293 136.59 178.7 132.867C179.182 130.622 179.482 128.315 179.079 126.032C178.392 122.129 175.897 119.973 172.834 117.818C168.813 116.843 164.926 115.618 161.063 117.991C159.552 118.919 158.261 120.135 157.062 121.431C157.094 121.187 157.131 120.945 157.199 120.708C157.417 119.942 158.058 119.328 158.738 118.957C159.053 118.786 159.344 118.585 159.642 118.387C158.095 118.247 157.322 119.783 155.945 120.181C155.898 120.195 155.851 120.205 155.804 120.217C152.788 122.897 151.414 127.325 151.188 131.257C151.124 132.357 151.176 133.487 151.289 134.582Z"/>
	<path fill="#D9D6DA" transform="matrix(2 0 0 2 -0.00012207 0)" d="M155.804 120.217C157.609 117.857 161.107 116.204 163.989 115.702C167.144 115.152 171.802 115.452 174.486 117.342C174.442 117.34 174.398 117.339 174.354 117.337C173.427 117.283 172.469 116.73 171.577 116.892C171.88 116.909 172.009 116.848 172.227 117.077C172.444 117.304 172.7 117.441 172.973 117.59L172.834 117.818C168.813 116.843 164.926 115.618 161.063 117.991C159.552 118.919 158.261 120.135 157.062 121.431C157.094 121.187 157.131 120.945 157.199 120.708C157.417 119.942 158.058 119.328 158.738 118.957C159.053 118.786 159.344 118.585 159.642 118.387C158.095 118.247 157.322 119.783 155.945 120.181C155.898 120.195 155.851 120.205 155.804 120.217Z"/>
	<path fill="#FDF6F2" transform="matrix(2 0 0 2 -0.00012207 0)" d="M172.834 117.818L172.973 117.59C172.7 117.441 172.444 117.304 172.227 117.077C172.009 116.848 171.88 116.909 171.577 116.892C172.469 116.73 173.427 117.283 174.354 117.337C174.398 117.339 174.442 117.34 174.486 117.342C177.607 118.468 180.34 121.942 181.72 124.863C183.339 128.288 184.018 132.287 182.686 135.924C182.336 136.877 181.844 137.838 181.293 138.688C179.215 141.628 177.238 143.873 173.713 145.107L173.32 145.106C172.565 144.93 171.991 144.688 171.373 144.215C171.019 143.389 171.163 143.173 171.359 142.318L171.541 142.091C171.589 142.07 171.638 142.049 171.686 142.026C175.503 140.235 177.293 136.59 178.7 132.867C179.182 130.622 179.482 128.315 179.079 126.032C178.392 122.129 175.897 119.973 172.834 117.818Z"/>
	<path fill="#060203" transform="matrix(2 0 0 2 -0.00012207 0)" d="M157.062 121.431C158.261 120.135 159.552 118.919 161.063 117.991C164.926 115.618 168.813 116.843 172.834 117.818C175.897 119.973 178.392 122.129 179.079 126.032C179.482 128.315 179.182 130.622 178.7 132.867C177.293 136.59 175.503 140.235 171.686 142.026C171.638 142.049 171.589 142.07 171.541 142.091C170.335 142.205 169.368 142.604 168.226 142.918C166.479 143.398 164.959 143.19 163.181 143.107C163.667 143.641 164.414 144.242 164.518 144.948C163.818 145.221 163.181 145.218 162.44 145.223C160.813 144.841 159.158 144.408 157.631 143.717C155.095 142.569 152.773 140.523 152.027 137.747C151.757 136.743 151.703 135.644 151.328 134.678C151.315 134.645 151.302 134.614 151.289 134.582C151.176 133.487 151.124 132.357 151.188 131.257C151.414 127.325 152.788 122.897 155.804 120.217C155.851 120.205 155.898 120.195 155.945 120.181C157.322 119.783 158.095 118.247 159.642 118.387C159.344 118.585 159.053 118.786 158.738 118.957C158.058 119.328 157.417 119.942 157.199 120.708C157.131 120.945 157.094 121.187 157.062 121.431Z"/>
	<path fill="#F69D79" transform="matrix(2 0 0 2 -0.00012207 0)" d="M157.052 129.531C156.632 129.163 156.156 128.777 155.815 128.334C155.429 127.831 155.191 126.948 155.309 126.311C155.516 125.188 156.735 124.495 157.624 123.968C157.155 125.947 158.646 127.962 157.052 129.531Z"/>
	<path fill="#350706" transform="matrix(2 0 0 2 -0.00012207 0)" d="M161.833 139.021C162.729 138.681 163.497 138.813 164.422 138.893C169.546 139.337 170.616 138.506 174.695 135.731C172.953 138.385 170.146 140.686 166.989 141.35C165.834 141.593 164.91 141.563 163.771 141.272C163.08 140.609 162.198 139.92 161.833 139.021Z"/>
	<path fill="#FBCCA8" transform="matrix(2 0 0 2 -0.00012207 0)" d="M157.624 123.968C158.448 123.8 159.18 123.609 160.015 123.817C160.61 124.264 160.795 124.793 160.908 125.504C161.285 127.891 160.239 130.918 159.183 133.015C158.508 132.085 157.258 130.66 157.052 129.531C158.646 127.962 157.155 125.947 157.624 123.968Z"/>
	<path fill="#65382A" transform="matrix(2 0 0 2 -0.00012207 0)" d="M174.695 135.731C175.958 134.19 176.89 133.589 178.7 132.867C177.293 136.59 175.503 140.235 171.686 142.026C171.638 142.049 171.589 142.07 171.541 142.091C170.335 142.205 169.368 142.604 168.226 142.918C166.479 143.398 164.959 143.19 163.181 143.107L161.172 141.362C161.921 141.043 162.499 140.729 163.31 141.054C163.469 141.118 163.62 141.193 163.771 141.272C164.91 141.563 165.834 141.593 166.989 141.35C170.146 140.686 172.953 138.385 174.695 135.731Z"/>
	<path fill="#FDF6F2" transform="matrix(2 0 0 2 -0.00012207 0)" d="M155.804 120.217C155.851 120.205 155.898 120.195 155.945 120.181C157.322 119.783 158.095 118.247 159.642 118.387C159.344 118.585 159.053 118.786 158.738 118.957C158.058 119.328 157.417 119.942 157.199 120.708C157.131 120.945 157.094 121.187 157.062 121.431C154.75 124.999 153.868 128.36 154.742 132.574Q155.005 133.842 155.523 135.029Q156.04 136.216 156.79 137.272C157.714 136.902 158.39 136.657 159.363 137.069C160.196 137.422 161.258 138.334 161.833 139.021C162.198 139.92 163.08 140.609 163.771 141.272C163.62 141.193 163.469 141.118 163.31 141.054C162.499 140.729 161.921 141.043 161.172 141.362L163.181 143.107C163.667 143.641 164.414 144.242 164.518 144.948C163.818 145.221 163.181 145.218 162.44 145.223C160.813 144.841 159.158 144.408 157.631 143.717C155.095 142.569 152.773 140.523 152.027 137.747C151.757 136.743 151.703 135.644 151.328 134.678C151.315 134.645 151.302 134.614 151.289 134.582C151.176 133.487 151.124 132.357 151.188 131.257C151.414 127.325 152.788 122.897 155.804 120.217Z"/>
	<path fill="#530A06" transform="matrix(2 0 0 2 -0.00012207 0)" d="M156.79 137.272C157.714 136.902 158.39 136.657 159.363 137.069C160.196 137.422 161.258 138.334 161.833 139.021C162.198 139.92 163.08 140.609 163.771 141.272C163.62 141.193 163.469 141.118 163.31 141.054C162.499 140.729 161.921 141.043 161.172 141.362C159.563 140.129 158.049 138.873 156.79 137.272Z"/>
	<defs>
		<linearGradient id="gradient_12" gradientUnits="userSpaceOnUse" x1="137.6116" y1="200.41716" x2="140.58134" y2="222.51878">
			<stop offset="0" stop-color="#540000"/>
			<stop offset="1" stop-color="#93140E"/>
		</linearGradient>
	</defs>
	<path fill="url(#gradient_12)" transform="matrix(2 0 0 2 -0.00012207 0)" d="M157.855 199.559C157.321 202.289 156.811 205.583 157.466 208.337C157.708 209.984 158.274 212.062 158.179 213.699L157.829 213.596C156.829 214.474 155.812 215.498 154.708 216.237C149.368 219.816 138.484 224.218 132.043 223.787C128.554 223.553 123.903 221.686 120.561 222.636C119.883 223.813 119.552 224.661 118.135 225.058C118.636 223.981 119.408 223.064 119.862 221.942C121.89 216.928 120.783 211.501 120.359 206.299C120.18 204.554 119.541 203.213 118.875 201.622C121.28 202.596 123.646 203.768 126.132 204.515C133.628 206.767 142.119 205.833 149.371 203.139C152.249 202.07 154.973 200.626 157.855 199.559Z"/>
</svg>
