<?xml version="1.0" encoding="utf-8" ?>
<svg xmlns="http://www.w3.org/2000/svg" xmlns:xlink="http://www.w3.org/1999/xlink" width="500" height="500">
	<path fill="#2B1C1A" transform="scale(2 2)" d="M146.993 212.604C146.994 211.905 147.025 211.451 147.368 210.813L147.076 212.198C147.852 210.317 148.521 208.342 148.952 206.352C148.979 210.551 149.114 214.63 149.643 218.803L149.232 219.335C148.69 218.573 149.166 216.863 148.649 215.834C148.644 215.836 148.639 215.84 148.633 215.842C148.424 215.926 148.343 215.889 148.251 216.109C147.18 218.643 148.988 219.985 148.595 222.011C148.556 222.209 148.532 222.41 148.493 222.609C147.456 219.33 147.218 216.012 146.993 212.604Z"/>
	<path transform="scale(2 2)" d="M63.1469 174.309L65.091 174.057L66.1327 176.521C67.9203 180.966 71.0842 185.318 74.8527 188.297C74.9192 189.435 76.0505 190.764 75.4222 191.691C69.6838 186.714 65.8253 181.385 63.1469 174.309Z"/>
	<path transform="scale(2 2)" d="M75.4307 35.3057C77.1307 35.1143 78.7814 35.2052 80.485 35.3009C81.54 36.0202 82.5602 36.6468 82.8131 37.9846C83.3112 40.6192 80.7029 43.6992 79.3018 45.7931C78.9487 46.5011 78.6545 46.9355 78.0379 47.4415C77.7427 47.517 77.367 47.6776 77.0682 47.6237C76.074 47.4445 75.4037 46.8137 74.8428 46C73.4255 43.9443 72.8498 40.8386 73.3372 38.4009C73.6498 36.8377 74.1133 36.1801 75.4307 35.3057Z"/>
	<path transform="scale(2 2)" d="M106.603 223.993L107.179 221.428C107.718 223.244 107.652 223.936 106.91 225.676C105.083 227.711 104.475 228.739 104.544 231.541C103.86 231.744 103.772 231.71 103.087 231.487C103.045 230.262 102.762 229.076 102.51 227.88C100.734 228.235 99.0982 228.595 97.5367 229.57C89.3533 232.384 79.6098 237.015 73.5316 243.371C71.6095 245.381 70.0779 247.692 68.5455 250L65.3606 250C73.3136 235.554 92.2365 229.707 106.603 223.993Z"/>
	<path fill="#D56C18" transform="scale(2 2)" d="M172.093 180.48L172.623 180.26C173.649 180.738 174.018 181.576 175.266 181.542L175.196 182.749C175.722 188.969 177.391 195.407 182.329 199.648C184.316 201.355 186.5 202.342 189.126 202.315C189.09 202.345 189.055 202.375 189.019 202.404C188.529 202.794 188.093 202.902 187.501 203.036C187.224 203.697 187.897 204.474 187.359 204.886C186.342 202.943 187.263 202.476 184.392 201.741C184.166 201.684 183.996 201.706 183.768 201.73C183.511 202.189 183.548 202.274 183.589 202.779C183.626 202.812 183.664 202.843 183.7 202.877C184.45 203.578 184.521 204.655 185.312 205.28C186.716 206.39 188.945 205.486 190.59 206.27L190.485 206.295C187.558 206.971 184.727 206.532 182.185 204.912C175.922 200.92 173.177 192.882 171.597 186.033C171.589 185.202 171.651 184.466 171.148 183.76C171.129 182.692 171.732 181.48 172.093 180.48Z"/>
	<path fill="#C74E2D" transform="scale(2 2)" d="M172.093 180.48L172.623 180.26C173.649 180.738 174.018 181.576 175.266 181.542L175.196 182.749C174.052 184.163 173.301 185.259 171.597 186.033C171.589 185.202 171.651 184.466 171.148 183.76C171.129 182.692 171.732 181.48 172.093 180.48Z"/>
	<path transform="scale(2 2)" d="M70.2741 52.9569C70.9275 52.1257 71.6811 51.4223 72.6101 50.9051C73.6764 50.3115 74.7092 49.8106 75.9358 50.1454C76.4597 50.6244 76.5444 50.7667 76.7752 51.4396C76.2999 51.934 75.8186 52.4387 75.3997 52.9829C72.4258 56.8463 69.8011 66.8877 69.5034 71.6686C69.39 73.4882 70.0361 75.2708 69.6361 77.0876C68.9718 80.1052 67.4048 83.0676 66.4766 86.0399C64.6435 91.9099 61.9702 105.276 62.7527 111.253Q62.5203 114.309 62.5128 117.374C62.401 118.752 62.4148 121.007 61.4656 122.075C61.077 111.836 61.1403 100.933 63.0855 90.8401C63.889 86.6704 65.4329 82.5939 66.4556 78.4578C67.3142 74.9857 67.6271 71.3995 68.1933 67.8734C68.996 62.8743 70.1239 58.0428 70.2741 52.9569Z"/>
	<path fill="#E89820" transform="scale(2 2)" d="M192.866 161.502L194.377 162.486C195.211 163.534 199.359 169.216 200.357 169.418C200.406 169.428 200.457 169.428 200.508 169.432C203.898 172.999 204.697 179.932 204.584 184.589C204.429 190.979 201.521 198.386 196.827 202.814C195.125 204.42 192.893 205.769 190.59 206.27C188.945 205.486 186.716 206.39 185.312 205.28C184.521 204.655 184.45 203.578 183.7 202.877C183.664 202.843 183.626 202.812 183.589 202.779C183.548 202.274 183.511 202.189 183.768 201.73C183.996 201.706 184.166 201.684 184.392 201.741C187.263 202.476 186.342 202.943 187.359 204.886C187.897 204.474 187.224 203.697 187.501 203.036C188.093 202.902 188.529 202.794 189.019 202.404C189.055 202.375 189.09 202.345 189.126 202.315C189.756 201.872 190.561 201.6 191.229 201.189C193.191 199.983 194.854 197.942 195.995 195.963C200.061 188.911 199.929 180.173 196.5 172.905C195.135 170.012 193.199 167.344 192.372 164.23C192.199 164.179 192.12 164.025 192.004 163.892C192.001 163.047 192.502 162.247 192.866 161.502Z"/>
	<path fill="#E6E7D1" transform="scale(2 2)" d="M97.5367 229.57L98.0069 229.938C97.2155 234.822 98.6988 241.714 101.597 245.763C102.751 247.376 104.203 248.721 105.71 250L76.2882 250L70.7343 250L68.5455 250C70.0779 247.692 71.6095 245.381 73.5316 243.371C79.6098 237.015 89.3533 232.384 97.5367 229.57Z"/>
	<defs>
		<linearGradient id="gradient_0" gradientUnits="userSpaceOnUse" x1="76.033997" y1="246.62878" x2="71.859833" y2="250.17371">
			<stop offset="0" stop-color="#967962"/>
			<stop offset="1" stop-color="#AA9473"/>
		</linearGradient>
	</defs>
	<path fill="url(#gradient_0)" transform="scale(2 2)" d="M76.1964 244.796C76.1648 246.535 76.2175 248.262 76.2882 250L70.7343 250C72.449 247.815 73.7155 246.146 76.1964 244.796Z"/>
	<path fill="#822216" transform="scale(2 2)" d="M62.5128 117.374C62.7884 119.209 62.7694 121.074 62.7952 122.927C63.3196 126.896 63.6433 134.739 63.4915 138.792Q63.6167 142.091 63.5525 145.392C63.3182 150.237 63.0005 155.108 63.0795 159.96C63.1265 162.853 63.5748 165.867 63.4981 168.734C63.1792 169.102 62.8734 169.496 62.4876 169.797L62.3546 169.694C62.0117 169.435 61.8027 169.26 61.3688 169.227L60.4782 168.43Q58.2068 167.234 56.1236 165.734C51.4443 162.328 48.9317 157.553 48.0699 151.892C47.1005 145.525 47.0076 138.71 50.9962 133.342C53.4886 129.989 57.0601 127.704 61.2202 127.105C61.5034 125.49 61.2471 123.734 61.4656 122.075C62.4148 121.007 62.401 118.752 62.5128 117.374Z"/>
	<path fill="#6E1108" transform="scale(2 2)" d="M62.5128 117.374C62.7884 119.209 62.7694 121.074 62.7952 122.927C63.3196 126.896 63.6433 134.739 63.4915 138.792C62.3875 138.3 61.9688 137.911 61.1819 137.054C59.9399 135.699 58.5491 135.81 56.7808 135.749C55.8767 135.718 55.5054 135.912 54.8655 136.514C54.7469 137.332 54.5296 137.914 54.8581 138.683C55.2616 138.868 55.5454 138.976 55.9914 138.988C55.3521 139.736 55.5226 141.067 54.8969 141.948L54.4645 141.924C54.2998 141.711 54.187 141.488 54.1194 141.226C53.8255 140.086 53.8206 137.608 54.4082 136.577C54.9322 135.687 55.7764 134.92 56.4778 134.164C57.2919 134.7 58.0591 135.326 58.8361 135.914C62.0426 132.989 60.3652 130.827 61.1814 127.258C61.1931 127.207 61.2073 127.156 61.2202 127.105C61.5034 125.49 61.2471 123.734 61.4656 122.075C62.4148 121.007 62.401 118.752 62.5128 117.374Z"/>
	<path fill="#4E130D" transform="scale(2 2)" d="M62.5128 117.374C62.7884 119.209 62.7694 121.074 62.7952 122.927C62.7271 124.24 63.0339 126.072 62.5113 127.233C62.0107 127.426 61.7155 127.249 61.2202 127.105C61.5034 125.49 61.2471 123.734 61.4656 122.075C62.4148 121.007 62.401 118.752 62.5128 117.374Z"/>
	<defs>
		<linearGradient id="gradient_1" gradientUnits="userSpaceOnUse" x1="68.127304" y1="145.70686" x2="52.815742" y2="157.98308">
			<stop offset="0" stop-color="#340805"/>
			<stop offset="1" stop-color="#74140E"/>
		</linearGradient>
	</defs>
	<path fill="url(#gradient_1)" transform="scale(2 2)" d="M54.8655 136.514C55.5054 135.912 55.8767 135.718 56.7808 135.749C58.5491 135.81 59.9399 135.699 61.1819 137.054C61.9688 137.911 62.3875 138.3 63.4915 138.792Q63.6167 142.091 63.5525 145.392C63.3182 150.237 63.0005 155.108 63.0795 159.96C63.1265 162.853 63.5748 165.867 63.4981 168.734C63.1792 169.102 62.8734 169.496 62.4876 169.797L62.3546 169.694C62.0117 169.435 61.8027 169.26 61.3688 169.227L60.4782 168.43C60.6193 168.37 60.6627 168.359 60.8031 168.257C61.2374 167.942 61.3581 167.71 61.4473 167.197C61.9034 164.577 60.9292 161.905 60.7675 159.311C60.4852 154.784 61.6603 144.712 58.8825 141.048C58.3206 140.307 56.9286 139.111 55.9914 138.988C55.5454 138.976 55.2616 138.868 54.8581 138.683C54.5296 137.914 54.7469 137.332 54.8655 136.514Z"/>
	<path fill="#D4B088" transform="scale(2 2)" d="M106.91 225.676C107.068 225.765 107.226 225.844 107.386 225.929C108.031 226.27 108.62 226.425 109.334 226.548C120.671 228.499 130.229 227.9 137.957 218.318C139.763 216.079 141.389 212.814 143.737 211.171C144.561 210.595 145.262 210.061 146.265 209.852C146.836 210.227 146.813 211.831 146.993 212.604C147.218 216.012 147.456 219.33 148.493 222.609C148.532 222.41 148.556 222.209 148.595 222.011C148.988 219.985 147.18 218.643 148.251 216.109C148.343 215.889 148.424 215.926 148.633 215.842C148.639 215.84 148.644 215.836 148.649 215.834C149.166 216.863 148.69 218.573 149.232 219.335L149.643 218.803C150.245 220.759 150.938 222.12 152.378 223.611C169.352 228.005 187.08 236.2 198.485 250L195.075 250L185.86 250L184.521 250L142.911 250L140.242 250L107.496 250L105.71 250C104.203 248.721 102.751 247.376 101.597 245.763C98.6988 241.714 97.2155 234.822 98.0069 229.938L97.5367 229.57C99.0982 228.595 100.734 228.235 102.51 227.88C102.762 229.076 103.045 230.262 103.087 231.487C103.772 231.71 103.86 231.744 104.544 231.541C104.475 228.739 105.083 227.711 106.91 225.676Z"/>
	<path fill="#544832" transform="scale(2 2)" d="M98.0069 229.938C100.968 233.234 96.1112 241.498 107.496 250L105.71 250C104.203 248.721 102.751 247.376 101.597 245.763C98.6988 241.714 97.2155 234.822 98.0069 229.938Z"/>
	<path transform="scale(2 2)" d="M148.493 222.609C148.532 222.41 148.556 222.209 148.595 222.011C148.988 219.985 147.18 218.643 148.251 216.109C148.343 215.889 148.424 215.926 148.633 215.842C148.639 215.84 148.644 215.836 148.649 215.834C149.166 216.863 148.69 218.573 149.232 219.335L149.643 218.803C150.245 220.759 150.938 222.12 152.378 223.611C169.352 228.005 187.08 236.2 198.485 250L195.075 250L185.86 250L184.521 250C186.49 248.399 188.435 246.78 190.555 245.38C180.568 237.197 174.058 234.506 162.46 229.32C159.414 241.227 152.069 243.646 142.911 250L140.242 250C145.777 247.095 151.228 244.599 155.815 240.177C159.029 237.078 161.184 233.483 161.263 228.938C159.121 227.865 156.682 226.445 154.306 226.026C154.197 226.09 154.047 226.112 153.979 226.218C153.837 226.441 153.397 230.641 152.676 232.097C149.94 237.624 140.546 242.426 134.855 244.302C127.629 246.685 118.441 247.349 111.48 243.845C111.842 243.362 112.165 243.286 112.697 243.056C118.989 245.924 128.404 244.539 134.713 242.409C141.411 240.147 148.581 236.245 151.824 229.725C150.539 227.38 149.4 225.136 148.493 222.609Z"/>
	<path fill="#D4B088" transform="scale(2 2)" d="M185.86 250C187.135 248.945 189.57 246.401 191.302 246.602C192.961 246.795 194.134 248.799 195.075 250L185.86 250Z"/>
	<path fill="#E6E7D1" transform="scale(2 2)" d="M162.46 229.32C174.058 234.506 180.568 237.197 190.555 245.38C188.435 246.78 186.49 248.399 184.521 250L142.911 250C152.069 243.646 159.414 241.227 162.46 229.32Z"/>
	<defs>
		<linearGradient id="gradient_2" gradientUnits="userSpaceOnUse" x1="125.83907" y1="212.62369" x2="129.48955" y2="243.24458">
			<stop offset="0" stop-color="#83291A"/>
			<stop offset="1" stop-color="#9B4529"/>
		</linearGradient>
	</defs>
	<path fill="url(#gradient_2)" transform="scale(2 2)" d="M106.91 225.676C107.068 225.765 107.226 225.844 107.386 225.929C108.031 226.27 108.62 226.425 109.334 226.548C120.671 228.499 130.229 227.9 137.957 218.318C139.763 216.079 141.389 212.814 143.737 211.171C144.561 210.595 145.262 210.061 146.265 209.852C146.836 210.227 146.813 211.831 146.993 212.604C147.218 216.012 147.456 219.33 148.493 222.609C149.4 225.136 150.539 227.38 151.824 229.725C148.581 236.245 141.411 240.147 134.713 242.409C128.404 244.539 118.989 245.924 112.697 243.056C112.165 243.286 111.842 243.362 111.48 243.845C110.515 243.469 109.637 242.788 108.778 242.215C107.759 241.356 106.937 240.54 106.129 239.474C104.155 237.136 103.018 234.582 103.087 231.487C103.772 231.71 103.86 231.744 104.544 231.541C104.475 228.739 105.083 227.711 106.91 225.676Z"/>
	<path fill="#2B1C1A" transform="scale(2 2)" d="M109.058 240.806C110.235 241.623 111.383 242.471 112.697 243.056C112.165 243.286 111.842 243.362 111.48 243.845C110.515 243.469 109.637 242.788 108.778 242.215C108.84 241.743 108.96 241.272 109.058 240.806Z"/>
	<path fill="#320001" transform="scale(2 2)" d="M107.231 238.609C107.846 239.336 108.47 240.057 109.058 240.806C108.96 241.272 108.84 241.743 108.778 242.215C107.759 241.356 106.937 240.54 106.129 239.474L107.231 238.609Z"/>
	<path fill="#2B1C1A" transform="scale(2 2)" d="M103.087 231.487C103.772 231.71 103.86 231.744 104.544 231.541C105.037 234.045 105.721 236.514 107.231 238.609L106.129 239.474C104.155 237.136 103.018 234.582 103.087 231.487Z"/>
	<defs>
		<linearGradient id="gradient_3" gradientUnits="userSpaceOnUse" x1="135.21234" y1="136.8287" x2="141.02454" y2="4.8942547">
			<stop offset="0" stop-color="#06090D"/>
			<stop offset="1" stop-color="#221816"/>
		</linearGradient>
	</defs>
	<path fill="url(#gradient_3)" transform="scale(2 2)" d="M86.9886 40.9999C86.4096 39.6865 86.114 38.2417 85.6207 36.8882C83.9685 32.3553 81.9116 28.0697 82.7756 23.1254C83.0319 21.6582 83.6081 19.9519 84.915 19.0906C85.8147 18.4976 86.9088 18.4335 87.9371 18.6741C89.1752 18.9637 90.4264 19.6371 91.4485 20.3816C96.5956 24.1313 93.5403 28.7403 95.4454 31.5651C95.7665 32.0411 96.0261 32.2452 96.5922 32.3464C97.2212 31.5656 96.9715 29.9611 97.238 28.9794C97.3968 28.3943 97.5484 28.2576 98.0534 27.9672C98.9254 28.0409 99.8623 29.0053 100.651 29.4372C100.988 29.4017 101.189 29.4589 101.407 29.1756C102.656 27.5534 101.353 23.0604 101.134 21.1024C100.697 17.1853 101.487 12.7044 104.054 9.60973C105.131 8.31089 106.528 7.27349 108.257 7.13402C116.327 6.48279 116.502 22.9402 119.124 25.2325L119.589 25.0918C120.408 23.544 121.665 22.4363 122.547 20.9804C123.573 19.2888 124.289 17.3923 125.255 15.6616C127.251 12.0872 130.67 7.30854 134.159 5.13482C135.212 4.47891 136.474 3.8797 137.742 4.19026C143.162 5.51805 142.046 18.4545 142.958 22.5614C143.188 23.5944 143.663 24.4384 144.208 25.331C145.832 23.4035 147.826 21.8378 149.462 19.9059C152.358 16.4876 154.874 12.5284 158.124 9.44268C159.489 8.14675 161.243 7.00474 163.205 7.09927C164.548 7.16396 165.743 7.86844 166.634 8.84561C167.78 10.1035 168.489 11.7575 168.817 13.4137C170.218 20.497 165.365 23.6713 165.251 28.7838C165.239 29.3199 165.29 29.4873 165.663 29.8823C168.022 30.2014 174.594 21.8307 176.479 20.0216C177.699 18.8511 179.053 17.794 180.578 17.0505C183.378 15.6855 186.118 15.6959 189.004 16.6923C189.699 17.3861 190.302 18.0515 190.707 18.9573C193.31 24.7841 184.821 33.8769 182.747 39.1527L182.692 39.2941C185.088 38.4259 187.088 36.8215 189.27 35.5441C192.687 33.5432 198.328 31.2577 202.318 32.3785C204.433 32.9725 205.634 34.3889 206.661 36.2432C204.179 43.2326 200.638 44.8911 194.633 48.391C194.112 48.6948 193.598 49.0387 193.441 49.6554C193.565 50.399 193.935 51.0119 194.465 51.5452C195.797 52.8838 198.27 51.8385 199.978 51.8262C201.047 51.8185 202.136 52.0623 202.897 52.8593C204.202 54.2242 204.307 56.6459 204.283 58.4325C204.493 59.0978 204.519 59.6147 205.191 59.9684C205.247 59.998 205.309 60.0142 205.368 60.037C206.189 60.7356 206.484 61.2855 206.591 62.3625C206.792 64.3942 205.443 66.4606 204.175 67.9513C203.219 69.0763 200.248 71.5284 200.336 73.0033C200.51 75.9082 207.12 78.5691 204.182 82.0706C202.865 83.6399 200.326 83.6263 200.442 86.2821C200.482 87.2032 200.918 88.215 201.263 89.0656C200.199 90.2265 199.653 91.1417 199.262 92.6786C198.497 95.6855 198.55 98.9746 198.228 102.058C197.357 110.428 196.709 118.993 194.646 127.173C195.534 127.705 196.484 128.205 197.325 128.805C195.72 129.38 194.715 128.84 193.227 128.25C186.171 132.53 186.953 134.596 184.445 141.752C183.414 134.796 183.292 127.741 181.908 120.828C181.246 117.524 179.734 114.555 178.57 111.42C176.547 105.972 176.78 100.364 176.826 94.6497C175.073 93.7385 173.192 92.8296 171.711 91.5012C168.419 88.5494 170.64 86.3052 170.399 82.7939C169.889 75.3446 161.311 77.39 157.191 73.738C155.229 71.9981 155.17 69.6266 154.999 67.2034C151.705 67.2736 148.109 68.2312 144.857 67.7058C141.57 67.1749 139.28 63.7844 135.864 63.0852C134.622 62.8308 133.411 63.1296 132.182 63.3308C125.431 64.4361 124.117 63.3135 118.757 59.8013C111.623 62.7489 108.115 64.5669 100.364 61.8064C98.9715 62.4405 97.704 63.4091 96.4348 64.2585C91.33 67.6748 90.1266 66.8558 84.5415 66.3315C78.0034 69.0054 75.9763 77.1503 73.7488 78.2371C73.2294 77.4011 73.1304 76.8284 72.2461 76.3209L70.6842 75.1589C70.038 73.6232 70.3393 71.7853 70.6307 70.1951C71.2345 66.9005 71.9738 64.0394 73.6634 61.1358C74.5609 59.5934 75.6303 57.9962 76.3086 56.3459C76.8764 54.9644 77.0026 53.1405 77.303 51.6642C78.3581 51.3392 79.4661 52.5929 80.7389 52.197C81.7245 50.9967 80.9254 47.5494 80.8342 45.9547C82.4472 42.9449 83.8545 42.264 86.9886 40.9999Z"/>
	<path fill="#2B1C1A" transform="scale(2 2)" d="M179.775 40.1234C180.08 40.1578 180.47 40.1966 180.74 40.3545C181.855 41.0073 182.543 42.6644 182.794 43.8673L182.396 44.3088C181.154 43.7188 179.766 43.2485 179.208 41.8889C179.209 41.0482 179.371 40.8386 179.775 40.1234Z"/>
	<path fill="#544832" transform="scale(2 2)" d="M204.283 58.4325C204.493 59.0978 204.519 59.6147 205.191 59.9684C205.247 59.998 205.309 60.0142 205.368 60.037C204.617 61.2128 203.787 62.3902 202.788 63.3724C202.014 64.1339 200.722 65.3388 199.57 65.3411L199.454 64.9013C200.326 62.5601 202.746 60.4312 204.283 58.4325Z"/>
	<path fill="#2B1C1A" transform="scale(2 2)" d="M103.682 39.6225L103.915 39.776C103.997 41.4043 105.212 44.3732 106.224 45.6636C106.735 45.5689 107.029 45.3624 107.4 45.0017C109.141 43.3128 112.039 44.1329 113.836 43.2251C114.176 43.0532 114.615 42.5416 114.916 42.2771L115.257 42.3738L114.028 43.7326C113.523 44.7119 112.685 45.6704 111.888 46.4338C110.986 47.2979 109.788 48.2018 108.458 48.1037C107.604 48.0407 106.964 47.6169 106.42 46.9885C105.024 45.3781 103.511 41.7541 103.682 39.6225Z"/>
	<path fill="#2B1C1A" transform="scale(2 2)" d="M124.249 34.4681L124.45 34.4926C126.924 34.8024 131.521 35.137 133.121 37.3094C133.497 37.8186 133.67 38.4404 133.571 39.0692C133.251 41.1004 130.786 42.5401 129.238 43.6262C126.833 44.6898 124.193 45.0511 121.812 46.2088C121.717 43.1562 121.159 39.0474 122.384 36.2083C122.807 35.2271 123.268 34.8586 124.249 34.4681Z"/>
	<path fill="#2B1C1A" transform="scale(2 2)" d="M163.374 45.2376C165.623 45.5672 167.995 46.6826 170.108 47.5119C171.762 48.1613 174.182 48.9338 174.916 50.7149C176.186 53.7951 173.197 54.0072 172.379 56.2031C172.067 57.0422 172.751 57.8618 172.334 58.8313L171.703 58.9081C167.122 57.8269 163.335 56.8109 159.728 53.6305C159.387 51.8014 159.09 50.0042 158.945 48.1483C160.331 46.8931 161.667 45.9763 163.374 45.2376Z"/>
	<defs>
		<linearGradient id="gradient_4" gradientUnits="userSpaceOnUse" x1="147.12434" y1="201.28677" x2="109.79831" y2="59.732239">
			<stop offset="0" stop-color="#A9452A"/>
			<stop offset="1" stop-color="#BB5E37"/>
		</linearGradient>
	</defs>
	<path fill="url(#gradient_4)" transform="scale(2 2)" d="M100.364 61.8064C108.115 64.5669 111.623 62.7489 118.757 59.8013C124.117 63.3135 125.431 64.4361 132.182 63.3308C133.411 63.1296 134.622 62.8308 135.864 63.0852C139.28 63.7844 141.57 67.1749 144.857 67.7058C148.109 68.2312 151.705 67.2736 154.999 67.2034C155.17 69.6266 155.229 71.9981 157.191 73.738C161.311 77.39 169.889 75.3446 170.399 82.7939C170.64 86.3052 168.419 88.5494 171.711 91.5012C173.192 92.8296 175.073 93.7385 176.826 94.6497C176.78 100.364 176.547 105.972 178.57 111.42C179.734 114.555 181.246 117.524 181.908 120.828C183.292 127.741 183.414 134.796 184.445 141.752C186.953 134.596 186.171 132.53 193.227 128.25C194.715 128.84 195.72 129.38 197.325 128.805C201.21 130.942 203.814 134.555 205.047 138.761C206.712 144.444 206.487 152.164 203.594 157.438C202.509 159.417 198.098 164.248 198.688 166.3C199.002 167.389 199.882 168.489 200.508 169.432C200.457 169.428 200.406 169.428 200.357 169.418C199.359 169.216 195.211 163.534 194.377 162.486L192.866 161.502C192.502 162.247 192.001 163.047 192.004 163.892C192.12 164.025 192.199 164.179 192.372 164.23C192.35 164.273 192.327 164.317 192.306 164.361C191.163 166.75 191.696 168.05 188.954 169.292C187.196 170.129 185.552 170.438 183.627 170.573C182.417 170.558 179.7 169.427 178.879 169.717C178.532 169.84 178.416 170.242 178.24 170.554C177.048 174.073 175.899 177.882 175.266 181.542C174.018 181.576 173.649 180.738 172.623 180.26L172.093 180.48C171.732 181.48 171.129 182.692 171.148 183.76C168.577 189.679 156.05 198.546 150.143 200.877Q149.582 201.102 149.012 201.3L148.952 206.352C148.521 208.342 147.852 210.317 147.076 212.198L147.368 210.813C147.025 211.451 146.994 211.905 146.993 212.604C146.813 211.831 146.836 210.227 146.265 209.852C145.262 210.061 144.561 210.595 143.737 211.171C141.389 212.814 139.763 216.079 137.957 218.318C130.229 227.9 120.671 228.499 109.334 226.548C108.62 226.425 108.031 226.27 107.386 225.929C107.226 225.844 107.068 225.765 106.91 225.676C107.652 223.936 107.718 223.244 107.179 221.428C107.672 217.81 107.317 213.31 106.882 209.696C96.7607 207.517 83.0449 198.681 75.4222 191.691C76.0505 190.764 74.9192 189.435 74.8527 188.297C71.0842 185.318 67.9203 180.966 66.1327 176.521L65.091 174.057L63.1469 174.309C62.6148 172.586 62.0274 170.907 61.3688 169.227C61.8027 169.26 62.0117 169.435 62.3546 169.694L62.4876 169.797C62.8734 169.496 63.1792 169.102 63.4981 168.734C63.5748 165.867 63.1265 162.853 63.0795 159.96C63.0005 155.108 63.3182 150.237 63.5525 145.392Q63.6167 142.091 63.4915 138.792C63.6433 134.739 63.3196 126.896 62.7952 122.927C62.7694 121.074 62.7884 119.209 62.5128 117.374Q62.5203 114.309 62.7527 111.253L62.8343 111.164C63.9248 109.982 64.4969 108.143 64.9451 106.622L65.1346 106.078C66.2943 96.595 67.3267 89.8491 70.4714 80.7219C70.9902 79.2164 71.2459 77.6003 72.2461 76.3209C73.1304 76.8284 73.2294 77.4011 73.7488 78.2371C75.9763 77.1503 78.0034 69.0054 84.5415 66.3315C90.1266 66.8558 91.33 67.6748 96.4348 64.2585C97.704 63.4091 98.9715 62.4405 100.364 61.8064Z"/>
	<path fill="#822216" transform="scale(2 2)" d="M120.757 147.69C121.57 147.735 121.999 147.669 122.687 148.122C122.869 148.783 122.58 149.305 122.339 149.913C121.731 149.82 121.356 149.625 120.848 149.286C120.577 148.603 120.633 148.389 120.757 147.69Z"/>
	<path fill="#AA3D27" transform="scale(2 2)" d="M126.623 147.883C127.258 148.046 128.202 148.495 128.627 148.996C128.998 149.433 128.917 149.568 128.881 150.113C128.134 150.201 127.497 150.245 126.859 149.798C126.43 149.177 126.549 148.588 126.623 147.883Z"/>
	<path fill="#822216" transform="scale(2 2)" d="M109.389 163.143C110.208 163.148 110.809 163.114 111.495 163.624C111.659 164.025 111.88 164.354 111.79 164.787C110.643 164.917 109.407 164.784 108.252 164.744C108.946 164.518 109.325 164.546 109.693 163.898L109.389 163.143Z"/>
	<path fill="#AA3D27" transform="scale(2 2)" d="M124.488 145.603L125.303 146.253C125.672 147.25 125.263 148.175 125.014 149.191L124.396 149.246L124.079 148.869C123.904 147.785 124.256 146.66 124.488 145.603Z"/>
	<path fill="#AA3D27" transform="scale(2 2)" d="M143.337 153.628C143.413 153.686 143.488 153.737 143.554 153.807C144.021 154.305 144.027 154.728 143.981 155.353C143.511 156.085 143.058 156.275 142.267 156.586C142.239 156.554 142.21 156.523 142.184 156.49C141.702 155.878 141.654 155.64 141.734 154.898C142.166 154.258 142.677 153.993 143.337 153.628Z"/>
	<path fill="#AA3D27" transform="scale(2 2)" d="M102.48 150.798C103.151 151.085 103.821 151.404 104.518 151.622L104.834 152.456C104.152 153.098 102.393 153.438 101.461 153.649C101.708 152.621 101.996 151.74 102.48 150.798Z"/>
	<path fill="#822216" transform="scale(2 2)" d="M89.3775 150.188C90.242 150.336 90.5046 150.475 91.0223 151.172C91.2518 152.073 91.0669 152.88 90.9067 153.779C90.347 153.933 90.1922 154.039 89.6302 153.847C89.0784 152.942 89.3516 151.254 89.3775 150.188Z"/>
	<path fill="#320001" transform="scale(2 2)" d="M150.889 147.029C152.051 146.897 153.115 146.639 154.235 146.322C154.631 146.824 155.003 147.34 155.502 147.747C153.301 148.014 148.831 149.121 146.752 148.216C146.226 147.988 146.219 147.906 146.018 147.406C147.544 147.376 149.198 147.465 150.684 147.084C150.753 147.067 150.821 147.048 150.889 147.029Z"/>
	<path fill="#AA3D27" transform="scale(2 2)" d="M102.222 129.209C103.121 131.519 104.773 136.191 103.717 138.594C103.638 138.773 103.377 138.853 103.205 138.944C102.739 138.467 102.703 138.165 102.538 137.535L102.382 137.578L101.838 137.338C101.855 135.657 101.701 134.058 101.477 132.393C101.957 131.351 102.079 130.332 102.222 129.209Z"/>
	<path fill="#AA3D27" transform="scale(2 2)" d="M110.929 142.374C110.972 142.361 111.016 142.348 111.059 142.335C112.362 141.925 113.021 140.961 114.494 141.737C115.289 142.156 115.713 142.965 115.947 143.802Q116.012 144.04 116.052 144.283Q116.092 144.525 116.107 144.771Q116.122 145.017 116.112 145.263Q116.101 145.509 116.066 145.753Q116.031 145.996 115.97 146.235Q115.91 146.474 115.826 146.705Q115.742 146.937 115.634 147.158Q115.527 147.38 115.397 147.589C115.199 147.912 115.039 148.13 114.695 148.293C113.954 146.823 114.928 143.785 112.846 143.116C112.433 142.983 111.933 143.053 111.505 143.083L111.361 142.84L111.352 143.067C111.306 144.008 111.083 144.437 110.375 145.072C110.734 144.14 110.898 143.372 110.929 142.374Z"/>
	<path fill="#822216" transform="scale(2 2)" d="M105.919 148.609C106.009 148.369 106.108 148.129 106.238 147.908C106.916 146.755 109.83 142.655 110.929 142.374C110.898 143.372 110.734 144.14 110.375 145.072C110.186 145.445 110.009 145.835 109.792 146.193C108.87 147.369 107.985 148.698 106.763 149.579L106.77 149.704C105.985 150.299 105.162 150.87 104.518 151.622C103.821 151.404 103.151 151.085 102.48 150.798C103.497 149.221 104.983 149.714 105.919 148.609Z"/>
	<path fill="#6E1108" transform="scale(2 2)" d="M101.074 156.52C101.76 156.389 102.152 156.387 102.743 156.814C105.291 158.659 106.416 161.657 109.389 163.143L109.693 163.898C109.325 164.546 108.946 164.518 108.252 164.744C104.899 162.96 102.338 160.104 101.074 156.52Z"/>
	<path fill="#6E1108" transform="scale(2 2)" d="M121.647 155.759C122.181 156.608 122.418 157.278 122.195 158.284C121.802 160.06 120.147 161.325 118.678 162.231C117.908 162.706 117.046 163.065 116.22 163.437C115.858 162.904 115.686 162.549 115.772 161.882C116.01 160.028 120.11 156.914 121.647 155.759Z"/>
	<path fill="#AA3D27" transform="scale(2 2)" d="M109.792 146.193C110.189 146.732 110.308 147.033 110.963 147.245C111.774 146.692 111.753 145.82 112.67 145.432C112.93 145.727 112.926 145.698 112.903 146.094C112.836 147.274 112.206 148.641 111.827 149.765C112.249 150.116 112.555 150.092 113.092 150.047C113.93 149.978 116.954 149.575 117.467 148.945C118.108 148.158 118.451 147.063 118.836 146.129L118.791 146.195L119.7 145.584L119.611 145.269L119.187 145.605L119.678 145.817C119.521 147.209 119.206 148.185 118.578 149.432C116.879 149.988 114.977 150.79 113.193 150.883C113.147 150.885 113.1 150.889 113.054 150.891C111.902 150.954 111.601 150.047 110.715 149.797C109.796 149.537 108.178 150.048 106.77 149.704L106.763 149.579C107.985 148.698 108.87 147.369 109.792 146.193Z"/>
	<defs>
		<linearGradient id="gradient_5" gradientUnits="userSpaceOnUse" x1="173.97891" y1="171.01651" x2="178.28609" y2="174.57115">
			<stop offset="0" stop-color="#450000"/>
			<stop offset="1" stop-color="#7A1C0B"/>
		</linearGradient>
	</defs>
	<path fill="url(#gradient_5)" transform="scale(2 2)" d="M168.819 181.464C169.852 179.44 171.141 177.477 172.243 175.48C174.03 172.241 175.711 168.794 177.827 165.757C178.55 166.929 178.256 169.162 178.24 170.554C177.048 174.073 175.899 177.882 175.266 181.542C174.018 181.576 173.649 180.738 172.623 180.26L172.093 180.48C172.373 179.18 172.36 178.41 171.98 177.127C171.065 178.69 170.33 180.395 168.819 181.464Z"/>
	<defs>
		<linearGradient id="gradient_6" gradientUnits="userSpaceOnUse" x1="65.453934" y1="157.48453" x2="63.254829" y2="157.55951">
			<stop offset="0" stop-color="#CA6950"/>
			<stop offset="1" stop-color="#E08F66"/>
		</linearGradient>
	</defs>
	<path fill="url(#gradient_6)" transform="scale(2 2)" d="M63.5525 145.392L63.6 145.189C63.873 143.967 63.497 141.554 64.0832 140.636L63.8797 140.877L64.3522 140.59C65.6143 142.542 64.588 153.992 64.5854 157.065Q64.565 161.013 64.9885 164.938C65.2048 166.874 66.974 174.877 66.7995 175.856C66.7563 176.098 66.3262 176.358 66.1327 176.521L65.091 174.057L63.1469 174.309C62.6148 172.586 62.0274 170.907 61.3688 169.227C61.8027 169.26 62.0117 169.435 62.3546 169.694L62.4876 169.797C62.8734 169.496 63.1792 169.102 63.4981 168.734C63.5748 165.867 63.1265 162.853 63.0795 159.96C63.0005 155.108 63.3182 150.237 63.5525 145.392Z"/>
	<path fill="#320001" transform="scale(2 2)" d="M63.4981 168.734C63.9171 170.557 64.4737 172.292 65.091 174.057L63.1469 174.309C62.6148 172.586 62.0274 170.907 61.3688 169.227C61.8027 169.26 62.0117 169.435 62.3546 169.694L62.4876 169.797C62.8734 169.496 63.1792 169.102 63.4981 168.734Z"/>
	<defs>
		<linearGradient id="gradient_7" gradientUnits="userSpaceOnUse" x1="106.61273" y1="160.66812" x2="115.74913" y2="150.66205">
			<stop offset="0" stop-color="#8C1D11"/>
			<stop offset="1" stop-color="#B03F24"/>
		</linearGradient>
	</defs>
	<path fill="url(#gradient_7)" transform="scale(2 2)" d="M104.834 152.456C106.191 151.856 108.132 151.073 109.625 151.624C110.847 152.075 111.364 153.581 112.563 153.953C114.936 154.689 119.093 154.124 120.775 154.881C121.156 155.052 121.413 155.429 121.647 155.759C120.11 156.914 116.01 160.028 115.772 161.882C115.686 162.549 115.858 162.904 116.22 163.437C114.793 164.313 113.447 164.645 111.79 164.787C111.88 164.354 111.659 164.025 111.495 163.624C110.809 163.114 110.208 163.148 109.389 163.143C106.416 161.657 105.291 158.659 102.743 156.814C102.152 156.387 101.76 156.389 101.074 156.52C100.896 155.433 100.903 154.619 101.461 153.649C102.393 153.438 104.152 153.098 104.834 152.456Z"/>
	<path fill="#AA3D27" transform="scale(2 2)" d="M131.705 176.142C133.699 175.201 135.45 174.139 137.171 172.759C137.623 173.54 137.815 174.128 137.562 175.044C137.158 176.503 135.98 177.691 135.82 179.212L136.16 179.814C135.386 182.216 132.683 183.947 131.292 185.982C130.54 187.081 130.192 188.471 129.304 189.482C128.667 190.207 127.778 190.741 126.927 191.18C120.301 194.597 112.472 195.058 105.291 193.341C103.596 191.738 99.6308 187.314 99.1264 185.108C99.2471 184.639 99.2279 184.557 99.6171 184.24L102.463 185.453C104.133 186.253 107.359 187.56 109.204 187.477C110.123 187.361 111.884 188.755 112.716 189.273C113.768 189.295 114.851 189.316 115.896 189.18C121.939 188.393 130.075 186.561 133.954 181.449C134.565 180.644 136.408 176.562 136.301 175.767L135.822 175.491C134.796 175.392 133.798 175.784 132.829 176.078L133.451 176.417L133.364 176.751C132.766 176.658 132.341 176.573 131.823 176.225C131.783 176.198 131.745 176.17 131.705 176.142Z"/>
	<path fill="#C74E2D" transform="scale(2 2)" d="M131.705 176.142C131.745 176.17 131.783 176.198 131.823 176.225C132.341 176.573 132.766 176.658 133.364 176.751L133.451 176.417L132.829 176.078C133.798 175.784 134.796 175.392 135.822 175.491L136.301 175.767C136.408 176.562 134.565 180.644 133.954 181.449C130.075 186.561 121.939 188.393 115.896 189.18C114.851 189.316 113.768 189.295 112.716 189.273C111.884 188.755 110.123 187.361 109.204 187.477C108.198 187.011 107.425 186.34 106.588 185.629C106.476 184.413 106.566 183.185 106.617 181.967L104.693 181.851L105.103 181.394C104.943 181.076 105.113 180.582 105.175 180.225C106.219 180.39 107.248 180.556 108.306 180.592C116.925 180.568 123.662 179.032 131.705 176.142Z"/>
	<path fill="#822216" transform="scale(2 2)" d="M105.175 180.225C106.219 180.39 107.248 180.556 108.306 180.592C108.339 180.606 108.371 180.621 108.405 180.633C109.741 181.142 112.534 180.84 114.007 180.811C113.141 181.768 108.093 181.749 106.617 181.967L104.693 181.851L105.103 181.394C104.943 181.076 105.113 180.582 105.175 180.225Z"/>
	<path transform="scale(2 2)" d="M65.1346 106.078C65.1849 106.076 65.2354 106.076 65.2856 106.073C66.5775 105.984 67.6181 104.655 68.395 103.717C72.5943 98.6477 75.2453 94.456 82.345 93.7444C87.1105 93.2667 93.7474 94.8083 97.4711 97.856C98.7674 98.9169 100.211 100.523 100.373 102.272C100.435 102.934 100.267 103.59 99.8007 104.082C98.8433 105.093 97.1754 105.233 95.8702 105.2C89.3006 105.031 84.9765 101.367 77.1079 102.571C74.5093 102.968 72.0045 103.89 69.638 105.014C68.6928 105.463 66.6129 107.018 65.7001 106.801L64.9451 106.622L65.1346 106.078Z"/>
	<defs>
		<linearGradient id="gradient_8" gradientUnits="userSpaceOnUse" x1="76.243698" y1="116.04517" x2="87.610504" y2="143.67792">
			<stop offset="0" stop-color="black"/>
			<stop offset="1" stop-color="#3E0C0A"/>
		</linearGradient>
	</defs>
	<path fill="url(#gradient_8)" transform="scale(2 2)" d="M92.7758 147.412C90.9248 147.586 89.1085 147.284 87.2598 147.306C79.4353 147.401 78.6852 147.395 72.3634 142.637C69.6879 140.623 67.6456 139.01 67.1643 135.473C66.4902 130.519 66.7717 125.512 69.9345 121.415C73.0012 117.443 78.3882 113.906 83.4282 113.284C87.2089 112.818 91.2583 113.754 94.2819 116.101C94.0569 116.669 93.9619 116.703 93.4436 117.044C92.4949 117.095 90.8132 116.965 90.0685 117.554L90.2109 117.952L90.8983 118.195C89.9455 118.36 88.7311 118.885 87.8182 118.896C84.5454 118.38 80.3539 119.998 77.7277 121.904C74.9732 123.902 72.3928 127.249 71.8447 130.658C71.2763 134.194 72.8838 137.806 74.9587 140.591C77.0812 143.44 80.1288 146.357 83.7762 146.864C86.3534 147.222 89.9773 147.111 92.529 146.546L92.7758 147.412Z"/>
	<path fill="#4E130D" transform="scale(2 2)" d="M88.8343 167.741C93.6451 168.405 98.5321 168.689 103.372 169.091C108.306 169.5 113.38 170.204 118.331 169.78C121.6 169.501 124.771 168.53 127.99 167.94C132.537 167.107 137.18 166.497 141.753 165.786C142.438 166.246 143.307 166.648 143.578 167.475C142.413 170.799 138.306 176.75 136.16 179.814L135.82 179.212C135.98 177.691 137.158 176.503 137.562 175.044C137.815 174.128 137.623 173.54 137.171 172.759C137.938 171.761 138.932 170.565 138.954 169.245C138.864 169.072 138.768 168.758 138.581 168.699C137.342 168.307 118.645 172.018 114.753 172.39C107.863 173.048 101.258 172.229 94.3905 172.066C96.3307 175.96 98.8394 178.278 102.963 179.66C103.689 179.903 104.423 180.082 105.175 180.225C105.113 180.582 104.943 181.076 105.103 181.394L104.693 181.851L106.617 181.967C106.566 183.185 106.476 184.413 106.588 185.629C107.425 186.34 108.198 187.011 109.204 187.477C107.359 187.56 104.133 186.253 102.463 185.453L99.6171 184.24C95.7326 182.517 90.5727 171.745 88.8343 167.741Z"/>
	<path fill="#6E1108" transform="scale(2 2)" d="M102.411 184.236C101.518 183.705 99.6402 182.676 99.3549 181.675L99.681 181.343C101.417 181.09 103.33 181.386 105.103 181.394L104.693 181.851L106.617 181.967C106.566 183.185 106.476 184.413 106.588 185.629C107.425 186.34 108.198 187.011 109.204 187.477C107.359 187.56 104.133 186.253 102.463 185.453C102.649 184.854 102.636 184.823 102.411 184.236Z"/>
	<path fill="#AA3D27" transform="scale(2 2)" d="M103.815 183.243C103.453 182.848 103.202 182.442 102.941 181.975C103.474 181.643 104.075 181.813 104.693 181.851L106.617 181.967C106.566 183.185 106.476 184.413 106.588 185.629C105.617 184.896 104.723 184.051 103.815 183.243Z"/>
	<path fill="#FAF3EF" transform="scale(2 2)" d="M94.3905 172.066C101.258 172.229 107.863 173.048 114.753 172.39C118.645 172.018 137.342 168.307 138.581 168.699C138.768 168.758 138.864 169.072 138.954 169.245C138.932 170.565 137.938 171.761 137.171 172.759C135.45 174.139 133.699 175.201 131.705 176.142C123.662 179.032 116.925 180.568 108.306 180.592C107.248 180.556 106.219 180.39 105.175 180.225C104.423 180.082 103.689 179.903 102.963 179.66C98.8394 178.278 96.3307 175.96 94.3905 172.066Z"/>
	<defs>
		<linearGradient id="gradient_9" gradientUnits="userSpaceOnUse" x1="159.84732" y1="117.07708" x2="141.94106" y2="141.09714">
			<stop offset="0" stop-color="black"/>
			<stop offset="1" stop-color="#2C0201"/>
		</linearGradient>
	</defs>
	<path fill="url(#gradient_9)" transform="scale(2 2)" d="M132.544 138.277C132.006 138.027 131.895 138.031 131.674 137.449C130.505 134.371 131.933 125.327 133.553 122.202C135.606 118.241 139.49 115.652 143.68 114.374Q144.143 114.234 144.612 114.117Q145.082 113.999 145.556 113.906Q146.031 113.812 146.51 113.742Q146.988 113.672 147.47 113.626Q147.951 113.58 148.435 113.558Q148.918 113.536 149.402 113.538Q149.885 113.539 150.369 113.565Q150.852 113.591 151.333 113.641Q151.814 113.691 152.292 113.765Q152.77 113.839 153.244 113.936Q153.718 114.034 154.186 114.155Q154.655 114.276 155.117 114.42Q155.578 114.564 156.033 114.73Q156.487 114.897 156.932 115.086Q157.377 115.275 157.812 115.487Q158.248 115.698 158.672 115.93C162.657 118.076 168.005 122.868 169.342 127.32C170.235 130.294 167.129 137.443 165.608 140.152C163.529 143.854 159.529 146.563 155.502 147.747C155.003 147.34 154.631 146.824 154.235 146.322Q154.882 146.06 155.503 145.74C159.906 143.43 162.755 139.49 164.173 134.78C165.084 131.756 164.85 129.819 163.391 127.103L162.97 127.559C162.531 126.892 162.113 126.214 161.684 125.541C159.452 122.044 156.51 119.258 152.309 118.371C148.897 117.651 145.504 118.38 142.612 120.293L141.977 119.78C137.226 122.881 134.006 127.251 132.813 132.871C132.43 134.677 132.418 136.439 132.544 138.277Z"/>
	<path fill="#594D4C" transform="scale(2 2)" d="M141.977 119.78C142.934 118.474 145.205 117.545 146.741 117.299C150.559 116.686 154.105 117.407 157.238 119.719C159.303 121.244 162.775 124.54 163.391 127.103L162.97 127.559C162.531 126.892 162.113 126.214 161.684 125.541C159.452 122.044 156.51 119.258 152.309 118.371C148.897 117.651 145.504 118.38 142.612 120.293L141.977 119.78Z"/>
	<path transform="scale(2 2)" d="M144.004 93.344Q144.325 93.3072 144.647 93.2951C152.094 93.0205 159.541 96.9812 164.822 101.945C165.749 102.817 166.67 103.627 166.709 104.957L166.274 105.36C163.746 106 159.832 104.336 157.244 103.835C155.816 103.559 154.358 103.427 152.911 103.296C147.795 103.265 133.58 106.602 130.548 105.542C129.937 104.961 129.688 104.332 129.572 103.505C129.344 101.862 129.457 99.8003 130.528 98.4457C132.391 96.09 141.004 93.7187 144.004 93.344Z"/>
	<path fill="#822216" transform="scale(2 2)" d="M182.697 156.688C182.61 156.425 182.618 156.205 182.633 155.932C182.906 150.77 187.859 140.237 191.801 136.754C193.023 135.674 194.092 135.76 195.619 135.876C196.608 135.86 197.287 135.867 198.038 136.607C200.409 138.945 200.663 144.677 200.628 147.825C200.614 149.093 200.649 151.021 200.168 152.195C199.726 153.273 198.741 154.228 198.603 155.402L199.047 155.839C199.728 155.221 200.342 154.564 200.956 153.88C200.974 154.315 200.778 154.613 200.561 154.985C200.11 155.756 199.429 156.389 198.892 157.102C198.045 158.227 197.374 159.685 196.79 160.962C196.616 160.667 196.562 160.534 196.584 160.19C195.885 161.01 195.177 161.765 194.377 162.486L192.866 161.502C192.502 162.247 192.001 163.047 192.004 163.892C192.12 164.025 192.199 164.179 192.372 164.23C192.35 164.273 192.327 164.317 192.306 164.361C191.163 166.75 191.696 168.05 188.954 169.292C187.196 170.129 185.552 170.438 183.627 170.573C182.417 170.558 179.7 169.427 178.879 169.717C178.532 169.84 178.416 170.242 178.24 170.554C178.256 169.162 178.55 166.929 177.827 165.757C177.999 165.395 178.328 165.076 178.585 164.768C178.857 163.591 181.45 158.589 182.261 157.657C182.537 157.339 182.619 157.097 182.697 156.688Z"/>
	<path fill="#D56C18" transform="scale(2 2)" d="M192.866 161.502C193.351 161.118 193.783 160.453 194.223 159.989C195.644 158.486 197.111 156.972 198.76 155.719C198.182 157.246 197.306 158.722 196.584 160.19C195.885 161.01 195.177 161.765 194.377 162.486L192.866 161.502Z"/>
	<path fill="#320001" transform="scale(2 2)" d="M182.697 156.688C182.61 156.425 182.618 156.205 182.633 155.932C182.906 150.77 187.859 140.237 191.801 136.754C193.023 135.674 194.092 135.76 195.619 135.876C197.464 136.696 198.176 137.331 198.919 139.232C200.495 143.267 200.439 148.906 199.298 153.046C199.362 148.613 199.941 144.621 196.586 141.142C195.654 140.176 193.978 138.343 192.626 138.151C191.959 138.581 191.637 139.171 191.311 139.874C190.145 142.386 189.574 145.233 188.69 147.856C187.704 150.782 186.338 153.684 185.676 156.702C185.35 156.958 185.093 157.108 184.701 157.244C184.67 157.215 184.64 157.185 184.608 157.158C183.918 156.592 183.517 156.636 182.697 156.688Z"/>
	<path fill="#C74E2D" transform="scale(2 2)" d="M182.697 156.688C183.517 156.636 183.918 156.592 184.608 157.158C184.64 157.185 184.67 157.215 184.701 157.244C186.219 158.479 187.987 159.327 189.52 160.543C189.437 163.103 189.511 165.82 188.692 168.273L188.954 169.292C187.196 170.129 185.552 170.438 183.627 170.573C182.417 170.558 179.7 169.427 178.879 169.717C178.532 169.84 178.416 170.242 178.24 170.554C178.256 169.162 178.55 166.929 177.827 165.757C177.999 165.395 178.328 165.076 178.585 164.768C178.857 163.591 181.45 158.589 182.261 157.657C182.537 157.339 182.619 157.097 182.697 156.688Z"/>
	<path fill="#6E1108" transform="scale(2 2)" d="M178.585 164.768C180.61 166.23 182.383 168.417 183.627 170.573C182.417 170.558 179.7 169.427 178.879 169.717C178.532 169.84 178.416 170.242 178.24 170.554C178.256 169.162 178.55 166.929 177.827 165.757C177.999 165.395 178.328 165.076 178.585 164.768Z"/>
	<path transform="scale(2 2)" d="M94.2819 116.101C97.1232 118.99 98.8917 121.777 100.649 125.431C101.12 126.591 101.557 128.175 102.222 129.209C102.079 130.332 101.957 131.351 101.477 132.393C101.701 134.058 101.855 135.657 101.838 137.338C101.478 140.496 100.18 143.02 97.6612 145.034C96.1585 146.237 94.6202 146.886 92.7758 147.412L92.529 146.546C89.9773 147.111 86.3534 147.222 83.7762 146.864C80.1288 146.357 77.0812 143.44 74.9587 140.591C72.8838 137.806 71.2763 134.194 71.8447 130.658C72.3928 127.249 74.9732 123.902 77.7277 121.904C80.3539 119.998 84.5454 118.38 87.8182 118.896C88.7311 118.885 89.9455 118.36 90.8983 118.195L90.2109 117.952L90.0685 117.554C90.8132 116.965 92.4949 117.095 93.4436 117.044C93.9619 116.703 94.0569 116.669 94.2819 116.101Z"/>
	<path fill="#822216" transform="scale(2 2)" d="M100.649 125.431C101.12 126.591 101.557 128.175 102.222 129.209C102.079 130.332 101.957 131.351 101.477 132.393C101.086 130.839 100.644 129.229 99.9358 127.787C100.017 126.849 100.179 126.249 100.649 125.431Z"/>
	<path fill="#FAF3EF" transform="scale(2 2)" d="M83.8516 126.963C85.0359 128.349 84.5228 135.384 84.3825 137.305C83.6557 136.037 83.1543 134.67 82.6195 133.313C82.5659 132.789 82.5394 132.329 82.2968 131.851C81.3599 131.685 80.4962 132.207 79.6087 132.467C79.3958 131.777 79.555 131.282 79.7272 130.58C80.1651 128.796 82.4037 127.827 83.8516 126.963Z"/>
	<path fill="#4E130D" transform="scale(2 2)" d="M94.2819 116.101C97.1232 118.99 98.8917 121.777 100.649 125.431C100.179 126.249 100.017 126.849 99.9358 127.787Q99.1212 126.316 98.2734 124.863C96.4358 121.74 94.5839 119.148 90.8983 118.195L90.2109 117.952L90.0685 117.554C90.8132 116.965 92.4949 117.095 93.4436 117.044C93.9619 116.703 94.0569 116.669 94.2819 116.101Z"/>
	<defs>
		<linearGradient id="gradient_10" gradientUnits="userSpaceOnUse" x1="96.890549" y1="130.4568" x2="72.900864" y2="136.55882">
			<stop offset="0" stop-color="#E5D8D0"/>
			<stop offset="1" stop-color="#F9F8F9"/>
		</linearGradient>
	</defs>
	<path fill="url(#gradient_10)" transform="scale(2 2)" d="M92.529 146.546C89.9773 147.111 86.3534 147.222 83.7762 146.864C80.1288 146.357 77.0812 143.44 74.9587 140.591C72.8838 137.806 71.2763 134.194 71.8447 130.658C72.3928 127.249 74.9732 123.902 77.7277 121.904C80.3539 119.998 84.5454 118.38 87.8182 118.896C83.9737 121.083 79.8782 124.71 78.6296 129.098C77.6938 132.387 77.9952 136.064 79.708 139.046C81.2376 141.71 83.8395 144.086 86.8548 144.851C89.2475 145.458 91.8975 145.027 94.0087 143.759C96.9457 141.995 98.222 138.856 99.6213 135.902C99.8212 138.798 99.6246 140.852 97.6066 143.159C96.3428 144.604 94.3733 146.003 92.529 146.546Z"/>
	<path transform="scale(2 2)" d="M142.612 120.293C145.504 118.38 148.897 117.651 152.309 118.371C156.51 119.258 159.452 122.044 161.684 125.541C162.113 126.214 162.531 126.892 162.97 127.559L163.391 127.103C164.85 129.819 165.084 131.756 164.173 134.78C162.755 139.49 159.906 143.43 155.503 145.74Q154.882 146.06 154.235 146.322C153.115 146.639 152.051 146.897 150.889 147.029C146.429 147.034 141.258 147.429 137.158 145.333C133.771 143.602 133.606 141.497 132.544 138.277C132.418 136.439 132.43 134.677 132.813 132.871C134.006 127.251 137.226 122.881 141.977 119.78L142.612 120.293Z"/>
	<path fill="#594D4C" transform="scale(2 2)" d="M141.422 143.634C143.361 141.193 140.868 140.553 140.661 138.293L140.966 138.005L141.757 138.196C142.615 139.738 143.526 141.24 144.61 142.635C146.948 143.668 149.325 144.344 151.885 144.526C149.336 145.19 146.43 145.28 143.811 145.212C142.962 144.752 142.2 144.204 141.422 143.634Z"/>
	<path fill="#FAF3EF" transform="scale(2 2)" d="M140.355 123.776C140.664 123.274 140.935 123.133 141.478 122.927C141.393 126.615 143.156 130.24 142.791 133.908C142.717 134.649 142.311 135.283 142.16 136.008C142.095 136.321 142.012 136.534 141.757 136.734C141.636 136.672 141.626 136.67 141.497 136.587C140.925 136.219 140.466 135.459 140.087 134.898C136.826 130.069 141.04 126.984 140.355 123.776Z"/>
	<path fill="#4E130D" transform="scale(2 2)" d="M140.355 123.776C141.04 126.984 136.826 130.069 140.087 134.898C140.466 135.459 140.925 136.219 141.497 136.587C141.626 136.67 141.636 136.672 141.757 136.734L141.345 137.165L141.757 138.196L140.966 138.005L140.661 138.293C140.868 140.553 143.361 141.193 141.422 143.634C139.052 141.305 137.534 138.698 137.079 135.375C136.448 130.757 137.556 127.451 140.355 123.776Z"/>
	<path fill="#FAF3EF" transform="scale(2 2)" d="M141.977 119.78L142.612 120.293C141.978 121.116 141.747 121.933 141.478 122.927C140.935 123.133 140.664 123.274 140.355 123.776C137.556 127.451 136.448 130.757 137.079 135.375C137.534 138.698 139.052 141.305 141.422 143.634C142.2 144.204 142.962 144.752 143.811 145.212C146.43 145.28 149.336 145.19 151.885 144.526C152.71 144.417 153.623 144.153 154.382 143.812C158.659 141.891 161.568 136.698 163.17 132.477C163.902 130.547 163.804 129.432 162.97 127.559L163.391 127.103C164.85 129.819 165.084 131.756 164.173 134.78C162.755 139.49 159.906 143.43 155.503 145.74Q154.882 146.06 154.235 146.322C153.115 146.639 152.051 146.897 150.889 147.029C146.429 147.034 141.258 147.429 137.158 145.333C133.771 143.602 133.606 141.497 132.544 138.277C132.418 136.439 132.43 134.677 132.813 132.871C134.006 127.251 137.226 122.881 141.977 119.78Z"/>
	<defs>
		<linearGradient id="gradient_11" gradientUnits="userSpaceOnUse" x1="123.54983" y1="182.17932" x2="130.15247" y2="225.7417">
			<stop offset="0" stop-color="#0F0000"/>
			<stop offset="1" stop-color="#761915"/>
		</linearGradient>
	</defs>
	<path fill="url(#gradient_11)" transform="scale(2 2)" d="M168.819 181.464C170.33 180.395 171.065 178.69 171.98 177.127C172.36 178.41 172.373 179.18 172.093 180.48C171.732 181.48 171.129 182.692 171.148 183.76C168.577 189.679 156.05 198.546 150.143 200.877Q149.582 201.102 149.012 201.3L148.952 206.352C148.521 208.342 147.852 210.317 147.076 212.198L147.368 210.813C147.025 211.451 146.994 211.905 146.993 212.604C146.813 211.831 146.836 210.227 146.265 209.852C145.262 210.061 144.561 210.595 143.737 211.171C141.389 212.814 139.763 216.079 137.957 218.318C130.229 227.9 120.671 228.499 109.334 226.548C108.62 226.425 108.031 226.27 107.386 225.929C107.226 225.844 107.068 225.765 106.91 225.676C107.652 223.936 107.718 223.244 107.179 221.428C107.672 217.81 107.317 213.31 106.882 209.696C96.7607 207.517 83.0449 198.681 75.4222 191.691C76.0505 190.764 74.9192 189.435 74.8527 188.297Q76.0096 189.313 77.1923 190.298C89.201 200.29 103.126 209.891 119.573 208.357C127.613 207.607 135.522 205.09 142.788 201.669C145.466 200.409 148.311 199.492 150.932 198.11C155.817 195.534 161.263 190.668 164.912 186.49C166.308 184.892 167.468 183.099 168.819 181.464Z"/>
</svg>
